M48
; DRILL file {KiCad 7.0.5.1-1-g8f565ef7f0-dirty-deb11} date Sat Jul  1 20:56:19 2023
; FORMAT={-:-/ absolute / metric / decimal}
; #@! TF.CreationDate,2023-07-01T20:56:19+00:00
; #@! TF.GenerationSoftware,Kicad,Pcbnew,7.0.5.1-1-g8f565ef7f0-dirty-deb11
; #@! TF.FileFunction,Plated,1,2,PTH
FMAT,2
METRIC
; #@! TA.AperFunction,Plated,PTH,ViaDrill
T1C0.400
%
G90
G05
T1
X-38.205Y-1.421
X-37.865Y5.24
X-37.384Y-8.04
X-36.374Y11.741
X-35.425Y-14.416
X-33.776Y17.884
X-32.389Y-20.354
X-28.368Y-25.676
X-23.484Y-30.218
X-7.6Y0.0
X-5.3Y5.2
X-5.3Y-5.2
X0.0Y7.2
X0.0Y-7.4
X5.5Y5.2
X5.5Y-5.2
X7.3Y0.0
X23.55Y30.15
X28.434Y25.608
X32.455Y20.286
X33.842Y-17.952
X35.491Y14.348
X36.44Y-11.809
X37.45Y7.972
X37.932Y-5.308
X38.272Y1.353
T0
M30
