%TF.GenerationSoftware,KiCad,Pcbnew,6.0.4-6f826c9f35~116~ubuntu20.04.1*%
%TF.CreationDate,2022-04-16T23:10:01+00:00*%
%TF.ProjectId,USTTHUNDERMILLPCB02A,55535454-4855-44e4-9445-524d494c4c50,rev?*%
%TF.SameCoordinates,Original*%
%TF.FileFunction,Copper,L1,Top*%
%TF.FilePolarity,Positive*%
%FSLAX46Y46*%
G04 Gerber Fmt 4.6, Leading zero omitted, Abs format (unit mm)*
G04 Created by KiCad (PCBNEW 6.0.4-6f826c9f35~116~ubuntu20.04.1) date 2022-04-16 23:10:01*
%MOMM*%
%LPD*%
G01*
G04 APERTURE LIST*
G04 Aperture macros list*
%AMRotRect*
0 Rectangle, with rotation*
0 The origin of the aperture is its center*
0 $1 length*
0 $2 width*
0 $3 Rotation angle, in degrees counterclockwise*
0 Add horizontal line*
21,1,$1,$2,0,0,$3*%
G04 Aperture macros list end*
%TA.AperFunction,SMDPad,CuDef*%
%ADD10RotRect,4.000000X1.200000X325.000000*%
%TD*%
%TA.AperFunction,ViaPad*%
%ADD11C,0.800000*%
%TD*%
G04 APERTURE END LIST*
D10*
%TO.P,J1,1*%
%TO.N,GND*%
X-13700000Y6100000D03*
%TD*%
D11*
%TO.N,GND*%
X-33775887Y17884130D03*
X38271793Y1352987D03*
X36440101Y-11809027D03*
X-32388899Y-20354463D03*
X-37865311Y5240146D03*
X-36373701Y11741027D03*
X-28367724Y-25675788D03*
X37931711Y-5308146D03*
X28434124Y25607788D03*
X37450015Y7971978D03*
X-35424946Y-14415711D03*
X35491346Y14347711D03*
X-23483600Y-30218000D03*
X-38205393Y-1420987D03*
X23550000Y30150000D03*
X33842287Y-17952130D03*
X32455299Y20286463D03*
X-37383615Y-8039978D03*
%TD*%
%TA.AperFunction,Conductor*%
%TO.N,GND*%
G36*
X451383Y39955053D02*
G01*
X2122727Y39911304D01*
X2130518Y39910896D01*
X4210443Y39747206D01*
X4218205Y39746390D01*
X4764810Y39674413D01*
X6286732Y39474006D01*
X6294403Y39472790D01*
X7190171Y39306783D01*
X8345813Y39092614D01*
X8353447Y39090992D01*
X10382212Y38603909D01*
X10389741Y38601891D01*
X12390137Y38009414D01*
X12397565Y38007001D01*
X14364207Y37310506D01*
X14371484Y37307713D01*
X16299098Y36509290D01*
X16306223Y36506117D01*
X18189266Y35607981D01*
X18196221Y35604437D01*
X20029756Y34608863D01*
X20036508Y34604965D01*
X21815460Y33514839D01*
X21822003Y33510590D01*
X23541375Y32328908D01*
X23547689Y32324320D01*
X25202880Y31054183D01*
X25208938Y31049278D01*
X26795421Y29694331D01*
X26801217Y29689112D01*
X28314653Y28252990D01*
X28320174Y28247469D01*
X29756294Y26734037D01*
X29761513Y26728241D01*
X31116459Y25141759D01*
X31121364Y25135701D01*
X32391506Y23480508D01*
X32396094Y23474194D01*
X33577773Y21754821D01*
X33582022Y21748278D01*
X34672148Y19969324D01*
X34676046Y19962572D01*
X35671624Y18129038D01*
X35675168Y18122083D01*
X36573300Y16239040D01*
X36576473Y16231915D01*
X37374897Y14304298D01*
X37374899Y14304292D01*
X37377692Y14297014D01*
X38074179Y12330384D01*
X38076592Y12322957D01*
X38669074Y10322557D01*
X38671092Y10315028D01*
X39158176Y8286261D01*
X39159798Y8278627D01*
X39539972Y6227234D01*
X39541192Y6219535D01*
X39813573Y4151022D01*
X39814389Y4143260D01*
X39978084Y2063333D01*
X39978492Y2055542D01*
X40033082Y-30093D01*
X40033082Y-37891D01*
X39978492Y-2123526D01*
X39978084Y-2131317D01*
X39814389Y-4211244D01*
X39813573Y-4219006D01*
X39541192Y-6287518D01*
X39539972Y-6295217D01*
X39159798Y-8346613D01*
X39158176Y-8354247D01*
X38671092Y-10383011D01*
X38669074Y-10390540D01*
X38076592Y-12390943D01*
X38074179Y-12398370D01*
X37377692Y-14365000D01*
X37374901Y-14372273D01*
X37148237Y-14919501D01*
X36576473Y-16299898D01*
X36573300Y-16307023D01*
X35675168Y-18190066D01*
X35671624Y-18197021D01*
X34676046Y-20030556D01*
X34672148Y-20037308D01*
X33582022Y-21816260D01*
X33577773Y-21822803D01*
X32396100Y-23542166D01*
X32391512Y-23548481D01*
X31121365Y-25203680D01*
X31121357Y-25203690D01*
X31116452Y-25209747D01*
X29761522Y-26796210D01*
X29756304Y-26802006D01*
X28320161Y-28315467D01*
X28314667Y-28320961D01*
X27209104Y-29370044D01*
X26801206Y-29757104D01*
X26795410Y-29762322D01*
X25208947Y-31117252D01*
X25202897Y-31122151D01*
X23547689Y-32392306D01*
X23547681Y-32392312D01*
X23541366Y-32396900D01*
X21822003Y-33578573D01*
X21815460Y-33582822D01*
X20036508Y-34672948D01*
X20029756Y-34676846D01*
X18196221Y-35672424D01*
X18189266Y-35675968D01*
X16306223Y-36574100D01*
X16299098Y-36577273D01*
X14371478Y-37375699D01*
X14364200Y-37378492D01*
X12397570Y-38074979D01*
X12390143Y-38077392D01*
X10389740Y-38669874D01*
X10382211Y-38671892D01*
X8353447Y-39158976D01*
X8345813Y-39160598D01*
X7190171Y-39374767D01*
X6294403Y-39540774D01*
X6286732Y-39541990D01*
X4239483Y-39811571D01*
X4218206Y-39814373D01*
X4210444Y-39815189D01*
X2130517Y-39978884D01*
X2122726Y-39979292D01*
X387301Y-40024716D01*
X37089Y-40033882D01*
X29295Y-40033882D01*
X-320917Y-40024716D01*
X-2056342Y-39979292D01*
X-2064133Y-39978884D01*
X-4144060Y-39815189D01*
X-4151822Y-39814373D01*
X-4174414Y-39811398D01*
X-6220349Y-39541990D01*
X-6228020Y-39540774D01*
X-7124090Y-39374711D01*
X-8279427Y-39160598D01*
X-8287061Y-39158976D01*
X-10315828Y-38671892D01*
X-10323357Y-38669874D01*
X-12323757Y-38077392D01*
X-12331184Y-38074979D01*
X-14297814Y-37378492D01*
X-14305092Y-37375699D01*
X-16232715Y-36577273D01*
X-16239840Y-36574100D01*
X-18122883Y-35675968D01*
X-18129838Y-35672424D01*
X-19963372Y-34676846D01*
X-19970124Y-34672948D01*
X-21749078Y-33582822D01*
X-21755621Y-33578573D01*
X-23474994Y-32396894D01*
X-23481308Y-32392306D01*
X-25136501Y-31122164D01*
X-25142559Y-31117259D01*
X-26729041Y-29762313D01*
X-26734837Y-29757094D01*
X-28248269Y-28320974D01*
X-28253790Y-28315453D01*
X-29689912Y-26802017D01*
X-29695131Y-26796221D01*
X-31050078Y-25209738D01*
X-31054983Y-25203680D01*
X-32325120Y-23548489D01*
X-32329708Y-23542175D01*
X-33511390Y-21822803D01*
X-33515639Y-21816260D01*
X-34605765Y-20037308D01*
X-34609663Y-20030556D01*
X-35605237Y-18197021D01*
X-35608781Y-18190066D01*
X-36506917Y-16307023D01*
X-36510090Y-16299898D01*
X-37308513Y-14372284D01*
X-37311306Y-14365007D01*
X-38007801Y-12398365D01*
X-38010214Y-12390937D01*
X-38602691Y-10390541D01*
X-38604709Y-10383012D01*
X-39091792Y-8354247D01*
X-39093414Y-8346613D01*
X-39473588Y-6295217D01*
X-39474808Y-6287518D01*
X-39747190Y-4219005D01*
X-39748006Y-4211243D01*
X-39911696Y-2131318D01*
X-39912104Y-2123527D01*
X-39966698Y-37891D01*
X-39966698Y-30093D01*
X-39912104Y2055543D01*
X-39911696Y2063334D01*
X-39748006Y4143259D01*
X-39747190Y4151021D01*
X-39474808Y6219535D01*
X-39473588Y6227234D01*
X-39093414Y8278627D01*
X-39091792Y8286261D01*
X-38604709Y10315029D01*
X-38602691Y10322558D01*
X-38010214Y12322951D01*
X-38007801Y12330379D01*
X-37311306Y14297021D01*
X-37308513Y14304298D01*
X-36510090Y16231914D01*
X-36506917Y16239039D01*
X-35608781Y18122083D01*
X-35605237Y18129038D01*
X-34609663Y19962572D01*
X-34605765Y19969324D01*
X-33515639Y21748278D01*
X-33511390Y21754821D01*
X-32329716Y23474182D01*
X-32325128Y23480496D01*
X-31054973Y25135713D01*
X-31050068Y25141771D01*
X-29695131Y26728241D01*
X-29689912Y26734037D01*
X-28253790Y28247469D01*
X-28248269Y28252990D01*
X-26734837Y29689112D01*
X-26729041Y29694331D01*
X-25142571Y31049268D01*
X-25136513Y31054173D01*
X-23481296Y32324328D01*
X-23474982Y32328916D01*
X-21755621Y33510590D01*
X-21749078Y33514839D01*
X-19970124Y34604965D01*
X-19963372Y34608863D01*
X-18129838Y35604437D01*
X-18122883Y35607981D01*
X-16239839Y36506117D01*
X-16232714Y36509290D01*
X-14305098Y37307713D01*
X-14297821Y37310506D01*
X-12331179Y38007001D01*
X-12323751Y38009414D01*
X-10323358Y38601891D01*
X-10315829Y38603909D01*
X-8287061Y39090992D01*
X-8279427Y39092614D01*
X-7124090Y39306727D01*
X-6228020Y39472790D01*
X-6220349Y39474006D01*
X-4698900Y39674351D01*
X-4151821Y39746390D01*
X-4144059Y39747206D01*
X-2064134Y39910896D01*
X-2056343Y39911304D01*
X-384999Y39955053D01*
X29295Y39965898D01*
X37089Y39965898D01*
X451383Y39955053D01*
G37*
%TD.AperFunction*%
%TD*%
M02*
