%TF.GenerationSoftware,KiCad,Pcbnew,7.0.5.1-1-g8f565ef7f0-dirty-deb11*%
%TF.CreationDate,2023-06-30T14:59:50+00:00*%
%TF.ProjectId,USTTHUNDERMILLPCB02,55535454-4855-44e4-9445-524d494c4c50,rev?*%
%TF.SameCoordinates,Original*%
%TF.FileFunction,Soldermask,Bot*%
%TF.FilePolarity,Negative*%
%FSLAX46Y46*%
G04 Gerber Fmt 4.6, Leading zero omitted, Abs format (unit mm)*
G04 Created by KiCad (PCBNEW 7.0.5.1-1-g8f565ef7f0-dirty-deb11) date 2023-06-30 14:59:50*
%MOMM*%
%LPD*%
G01*
G04 APERTURE LIST*
G04 APERTURE END LIST*
G36*
X2124677Y39911254D02*
G01*
X2128573Y39911050D01*
X4212388Y39747054D01*
X4216270Y39746646D01*
X6288650Y39473753D01*
X6292500Y39473144D01*
X8347732Y39092260D01*
X8351549Y39091448D01*
X10384106Y38603455D01*
X10387871Y38602446D01*
X12392008Y38008860D01*
X12395723Y38007653D01*
X14366044Y37309856D01*
X14369683Y37308459D01*
X16300899Y36508544D01*
X16304463Y36506958D01*
X18191028Y35607142D01*
X18194506Y35605370D01*
X20031469Y34607934D01*
X20034846Y34605985D01*
X21817123Y33513821D01*
X21820395Y33511696D01*
X23542983Y32327803D01*
X23546141Y32325509D01*
X25204427Y31052998D01*
X25207456Y31050545D01*
X26796903Y29693065D01*
X26799801Y29690456D01*
X28316069Y28251648D01*
X28318830Y28248886D01*
X29757637Y26732622D01*
X29760246Y26729724D01*
X31117725Y25140278D01*
X31120178Y25137249D01*
X32392693Y23478961D01*
X32394988Y23475803D01*
X33578877Y21753213D01*
X33581002Y21749942D01*
X34673167Y19967663D01*
X34675116Y19964287D01*
X35672556Y18127324D01*
X35674328Y18123846D01*
X36574140Y16237280D01*
X36575726Y16233716D01*
X37375643Y14302492D01*
X37377040Y14298853D01*
X38074831Y12328544D01*
X38076038Y12324829D01*
X38669628Y10320689D01*
X38670637Y10316924D01*
X39158631Y8284364D01*
X39159443Y8280547D01*
X39540327Y6225318D01*
X39540936Y6221468D01*
X39813827Y4149089D01*
X39814235Y4145207D01*
X39978237Y2061389D01*
X39978441Y2057492D01*
X40033132Y-32040D01*
X40033132Y-35942D01*
X39978441Y-2125475D01*
X39978237Y-2129372D01*
X39814235Y-4213190D01*
X39813827Y-4217072D01*
X39540936Y-6289450D01*
X39540327Y-6293300D01*
X39159443Y-8348532D01*
X39158631Y-8352349D01*
X38670637Y-10384906D01*
X38669628Y-10388671D01*
X38076038Y-12392814D01*
X38074831Y-12396529D01*
X37377040Y-14366838D01*
X37375643Y-14370477D01*
X36575726Y-16301699D01*
X36574140Y-16305263D01*
X35674328Y-18191828D01*
X35672556Y-18195306D01*
X34675116Y-20032270D01*
X34673166Y-20035646D01*
X33581002Y-21817923D01*
X33578877Y-21821194D01*
X32394995Y-23543773D01*
X32392700Y-23546931D01*
X31120170Y-25205236D01*
X31117717Y-25208265D01*
X29760255Y-26797693D01*
X29757646Y-26800591D01*
X28318830Y-28316868D01*
X28316068Y-28319630D01*
X26799791Y-29758446D01*
X26796893Y-29761055D01*
X25207465Y-31118517D01*
X25204436Y-31120970D01*
X23546131Y-32393500D01*
X23542973Y-32395795D01*
X21820394Y-33579677D01*
X21817123Y-33581802D01*
X20034846Y-34673966D01*
X20031470Y-34675916D01*
X18194506Y-35673356D01*
X18191028Y-35675128D01*
X16304463Y-36574940D01*
X16300899Y-36576526D01*
X14369677Y-37376443D01*
X14366038Y-37377840D01*
X12395729Y-38075631D01*
X12392014Y-38076838D01*
X10387871Y-38670428D01*
X10384106Y-38671437D01*
X8351549Y-39159431D01*
X8347732Y-39160243D01*
X6292500Y-39541127D01*
X6288650Y-39541736D01*
X4216272Y-39814627D01*
X4212390Y-39815035D01*
X2128572Y-39979037D01*
X2124675Y-39979241D01*
X35141Y-40033932D01*
X31241Y-40033932D01*
X-2058292Y-39979241D01*
X-2062189Y-39979037D01*
X-4146007Y-39815035D01*
X-4149889Y-39814627D01*
X-6222268Y-39541736D01*
X-6226118Y-39541127D01*
X-8281347Y-39160243D01*
X-8285164Y-39159431D01*
X-10317724Y-38671437D01*
X-10321489Y-38670428D01*
X-12325629Y-38076838D01*
X-12329344Y-38075631D01*
X-14299653Y-37377840D01*
X-14303292Y-37376443D01*
X-16234516Y-36576526D01*
X-16238080Y-36574940D01*
X-18124646Y-35675128D01*
X-18128124Y-35673356D01*
X-19965087Y-34675916D01*
X-19968463Y-34673967D01*
X-21750742Y-33581802D01*
X-21754013Y-33579677D01*
X-23476603Y-32395788D01*
X-23479761Y-32393493D01*
X-25138049Y-31120978D01*
X-25141078Y-31118525D01*
X-26730524Y-29761046D01*
X-26733422Y-29758437D01*
X-28249686Y-28319630D01*
X-28252448Y-28316869D01*
X-29691256Y-26800601D01*
X-29693865Y-26797703D01*
X-31051345Y-25208256D01*
X-31053798Y-25205227D01*
X-32326309Y-23546941D01*
X-32328603Y-23543783D01*
X-33512496Y-21821195D01*
X-33514621Y-21817923D01*
X-34606785Y-20035646D01*
X-34608734Y-20032269D01*
X-35606170Y-18195306D01*
X-35607942Y-18191828D01*
X-36507758Y-16305263D01*
X-36509344Y-16301699D01*
X-37309259Y-14370483D01*
X-37310656Y-14366844D01*
X-38008453Y-12396523D01*
X-38009660Y-12392808D01*
X-38603246Y-10388671D01*
X-38604255Y-10384906D01*
X-39092248Y-8352349D01*
X-39093060Y-8348532D01*
X-39473944Y-6293300D01*
X-39474553Y-6289450D01*
X-39747446Y-4217070D01*
X-39747854Y-4213188D01*
X-39911850Y-2129373D01*
X-39912054Y-2125477D01*
X-39966749Y-35940D01*
X-39966749Y-32044D01*
X-39912054Y2057494D01*
X-39911850Y2061390D01*
X-39747854Y4145205D01*
X-39747446Y4149087D01*
X-39474553Y6221468D01*
X-39473944Y6225318D01*
X-39093060Y8280547D01*
X-39092248Y8284364D01*
X-38604255Y10316924D01*
X-38603246Y10320689D01*
X-38009660Y12324823D01*
X-38008453Y12328538D01*
X-37310656Y14298859D01*
X-37309259Y14302498D01*
X-36509344Y16233716D01*
X-36507758Y16237280D01*
X-35607942Y18123846D01*
X-35606170Y18127324D01*
X-34608734Y19964286D01*
X-34606785Y19967663D01*
X-33514621Y21749942D01*
X-33512496Y21753213D01*
X-32328612Y23475790D01*
X-32326318Y23478948D01*
X-31053788Y25137260D01*
X-31051335Y25140289D01*
X-29693865Y26729724D01*
X-29691256Y26732623D01*
X-28252447Y28248886D01*
X-28249686Y28251647D01*
X-26733423Y29690456D01*
X-26730524Y29693065D01*
X-25141089Y31050535D01*
X-25138060Y31052988D01*
X-23479748Y32325518D01*
X-23476590Y32327812D01*
X-21754013Y33511696D01*
X-21750742Y33513821D01*
X-19968463Y34605985D01*
X-19965086Y34607934D01*
X-18128124Y35605370D01*
X-18124646Y35607142D01*
X-16238080Y36506958D01*
X-16234516Y36508544D01*
X-14303298Y37308459D01*
X-14299659Y37309856D01*
X-12329338Y38007653D01*
X-12325623Y38008860D01*
X-10321489Y38602446D01*
X-10317724Y38603455D01*
X-8285164Y39091448D01*
X-8281347Y39092260D01*
X-6226118Y39473144D01*
X-6222268Y39473753D01*
X-4149887Y39746646D01*
X-4146005Y39747054D01*
X-2062190Y39911050D01*
X-2058294Y39911254D01*
X31241Y39965949D01*
X35141Y39965949D01*
X2124677Y39911254D01*
G37*
M02*
