%TF.GenerationSoftware,KiCad,Pcbnew,5.99.0-unknown-7d8f51dc2e~131~ubuntu18.04.1*%
%TF.CreationDate,2021-08-23T11:01:16+02:00*%
%TF.ProjectId,USTTHUNDERMILLPCB02A,55535454-4855-44e4-9445-524d494c4c50,rev?*%
%TF.SameCoordinates,Original*%
%TF.FileFunction,Profile,NP*%
%FSLAX46Y46*%
G04 Gerber Fmt 4.6, Leading zero omitted, Abs format (unit mm)*
G04 Created by KiCad (PCBNEW 5.99.0-unknown-7d8f51dc2e~131~ubuntu18.04.1) date 2021-08-23 11:01:16*
%MOMM*%
%LPD*%
G01*
G04 APERTURE LIST*
%TA.AperFunction,Profile*%
%ADD10C,0.049999*%
%TD*%
G04 APERTURE END LIST*
D10*
X142093433Y-129945190D02*
X144181133Y-129780883D01*
X144181133Y-129780883D02*
X146257373Y-129507484D01*
X146257373Y-129507484D02*
X148316463Y-129125885D01*
X148316463Y-129125885D02*
X150352790Y-128636985D01*
X150352790Y-128636985D02*
X152360691Y-128042282D01*
X152360691Y-128042282D02*
X154334690Y-127343185D01*
X154334690Y-127343185D02*
X156269489Y-126541786D01*
X156269489Y-126541786D02*
X158159587Y-125640289D01*
X158159587Y-125640289D02*
X159999988Y-124640983D01*
X159999988Y-124640983D02*
X161785587Y-123546783D01*
X161785587Y-123546783D02*
X163511386Y-122360687D01*
X163511386Y-122360687D02*
X165172782Y-121085784D01*
X165172782Y-121085784D02*
X166765182Y-119725784D01*
X166765182Y-119725784D02*
X168284286Y-118284286D01*
X168284286Y-118284286D02*
X169725784Y-116765182D01*
X169725784Y-116765182D02*
X171085784Y-115172782D01*
X171085784Y-115172782D02*
X172360687Y-113511386D01*
X172360687Y-113511386D02*
X173546783Y-111785587D01*
X173546783Y-111785587D02*
X174640983Y-109999988D01*
X174640983Y-109999988D02*
X175640289Y-108159587D01*
X175640289Y-108159587D02*
X176541786Y-106269489D01*
X176541786Y-106269489D02*
X177343185Y-104334690D01*
X177343185Y-104334690D02*
X178042282Y-102360691D01*
X178042282Y-102360691D02*
X178636985Y-100352790D01*
X178636985Y-100352790D02*
X179125885Y-98316463D01*
X179125885Y-98316463D02*
X179507484Y-96257373D01*
X179507484Y-96257373D02*
X179780883Y-94181133D01*
X179780883Y-94181133D02*
X179945190Y-92093433D01*
X179945190Y-92093433D02*
X179999984Y-89999992D01*
X179999984Y-89999992D02*
X179945190Y-87906551D01*
X179945190Y-87906551D02*
X179780883Y-85818851D01*
X179780883Y-85818851D02*
X179507484Y-83742610D01*
X179507484Y-83742610D02*
X179125885Y-81683523D01*
X179125885Y-81683523D02*
X178636985Y-79647193D01*
X178636985Y-79647193D02*
X178042282Y-77639295D01*
X178042282Y-77639295D02*
X177343185Y-75665296D01*
X177343185Y-75665296D02*
X176541786Y-73730495D01*
X176541786Y-73730495D02*
X175640289Y-71840396D01*
X175640289Y-71840396D02*
X174640983Y-69999996D01*
X174640983Y-69999996D02*
X173546783Y-68214395D01*
X173546783Y-68214395D02*
X172360687Y-66488595D01*
X172360687Y-66488595D02*
X171085784Y-64827197D01*
X171085784Y-64827197D02*
X169725784Y-63234798D01*
X169725784Y-63234798D02*
X168284286Y-61715698D01*
X168284286Y-61715698D02*
X166765182Y-60274198D01*
X166765182Y-60274198D02*
X165172782Y-58914197D01*
X165172782Y-58914197D02*
X163511386Y-57639299D01*
X163511386Y-57639299D02*
X161785587Y-56453200D01*
X161785587Y-56453200D02*
X159999988Y-55359000D01*
X159999988Y-55359000D02*
X158159587Y-54359698D01*
X158159587Y-54359698D02*
X156269489Y-53458197D01*
X156269489Y-53458197D02*
X154334690Y-52656798D01*
X154334690Y-52656798D02*
X152360691Y-51957698D01*
X152360691Y-51957698D02*
X150352790Y-51362998D01*
X150352790Y-51362998D02*
X148316463Y-50874099D01*
X148316463Y-50874099D02*
X146257373Y-50492500D01*
X146257373Y-50492500D02*
X144181133Y-50219100D01*
X144181133Y-50219100D02*
X142093433Y-50054798D01*
X142093433Y-50054798D02*
X139999992Y-50000000D01*
X139999992Y-50000000D02*
X137906551Y-50054798D01*
X137906551Y-50054798D02*
X135818851Y-50219100D01*
X135818851Y-50219100D02*
X133742610Y-50492500D01*
X133742610Y-50492500D02*
X131683523Y-50874099D01*
X131683523Y-50874099D02*
X129647193Y-51362998D01*
X129647193Y-51362998D02*
X127639295Y-51957698D01*
X127639295Y-51957698D02*
X125665296Y-52656798D01*
X125665296Y-52656798D02*
X123730495Y-53458197D01*
X123730495Y-53458197D02*
X121840396Y-54359698D01*
X121840396Y-54359698D02*
X119999996Y-55359000D01*
X119999996Y-55359000D02*
X118214395Y-56453200D01*
X118214395Y-56453200D02*
X116488595Y-57639299D01*
X116488595Y-57639299D02*
X114827197Y-58914197D01*
X114827197Y-58914197D02*
X113234798Y-60274198D01*
X113234798Y-60274198D02*
X111715698Y-61715698D01*
X111715698Y-61715698D02*
X110274198Y-63234798D01*
X110274198Y-63234798D02*
X108914197Y-64827197D01*
X108914197Y-64827197D02*
X107639299Y-66488595D01*
X107639299Y-66488595D02*
X106453200Y-68214395D01*
X106453200Y-68214395D02*
X105359000Y-69999996D01*
X105359000Y-69999996D02*
X104359698Y-71840396D01*
X104359698Y-71840396D02*
X103458197Y-73730495D01*
X103458197Y-73730495D02*
X102656798Y-75665296D01*
X102656798Y-75665296D02*
X101957698Y-77639295D01*
X101957698Y-77639295D02*
X101362998Y-79647193D01*
X101362998Y-79647193D02*
X100874099Y-81683523D01*
X100874099Y-81683523D02*
X100492500Y-83742610D01*
X100492500Y-83742610D02*
X100219100Y-85818851D01*
X100219100Y-85818851D02*
X100054798Y-87906551D01*
X100054798Y-87906551D02*
X100000000Y-89999992D01*
X100000000Y-89999992D02*
X100054798Y-92093433D01*
X100054798Y-92093433D02*
X100219100Y-94181133D01*
X100219100Y-94181133D02*
X100492500Y-96257373D01*
X100492500Y-96257373D02*
X100874099Y-98316463D01*
X100874099Y-98316463D02*
X101362998Y-100352790D01*
X101362998Y-100352790D02*
X101957698Y-102360691D01*
X101957698Y-102360691D02*
X102656798Y-104334690D01*
X102656798Y-104334690D02*
X103458197Y-106269489D01*
X103458197Y-106269489D02*
X104359698Y-108159587D01*
X104359698Y-108159587D02*
X105359000Y-109999988D01*
X105359000Y-109999988D02*
X106453200Y-111785587D01*
X106453200Y-111785587D02*
X107639299Y-113511386D01*
X107639299Y-113511386D02*
X108914197Y-115172782D01*
X108914197Y-115172782D02*
X110274198Y-116765182D01*
X110274198Y-116765182D02*
X111715698Y-118284286D01*
X111715698Y-118284286D02*
X113234798Y-119725784D01*
X113234798Y-119725784D02*
X114827197Y-121085784D01*
X114827197Y-121085784D02*
X116488595Y-122360687D01*
X116488595Y-122360687D02*
X118214395Y-123546783D01*
X118214395Y-123546783D02*
X119999996Y-124640983D01*
X119999996Y-124640983D02*
X121840396Y-125640289D01*
X121840396Y-125640289D02*
X123730495Y-126541786D01*
X123730495Y-126541786D02*
X125665296Y-127343185D01*
X125665296Y-127343185D02*
X127639295Y-128042282D01*
X127639295Y-128042282D02*
X129647193Y-128636985D01*
X129647193Y-128636985D02*
X131683523Y-129125885D01*
X131683523Y-129125885D02*
X133742610Y-129507484D01*
X133742610Y-129507484D02*
X135818851Y-129780883D01*
X135818851Y-129780883D02*
X137906551Y-129945190D01*
X137906551Y-129945190D02*
X139999992Y-129999984D01*
X139999992Y-129999984D02*
X142093433Y-129945190D01*
X142093433Y-129945190D02*
X142093433Y-129945190D01*
M02*
