%TF.GenerationSoftware,KiCad,Pcbnew,6.0.4-6f826c9f35~116~ubuntu20.04.1*%
%TF.CreationDate,2022-04-16T23:10:01+00:00*%
%TF.ProjectId,USTTHUNDERMILLPCB02A,55535454-4855-44e4-9445-524d494c4c50,rev?*%
%TF.SameCoordinates,Original*%
%TF.FileFunction,Profile,NP*%
%FSLAX46Y46*%
G04 Gerber Fmt 4.6, Leading zero omitted, Abs format (unit mm)*
G04 Created by KiCad (PCBNEW 6.0.4-6f826c9f35~116~ubuntu20.04.1) date 2022-04-16 23:10:01*
%MOMM*%
%LPD*%
G01*
G04 APERTURE LIST*
%TA.AperFunction,Profile*%
%ADD10C,0.049999*%
%TD*%
G04 APERTURE END LIST*
D10*
X2126633Y39911202D02*
X4214333Y39746900D01*
X6290573Y39473500D01*
X8349663Y39091901D01*
X10385990Y38603002D01*
X12393891Y38008302D01*
X14367890Y37309202D01*
X16302689Y36507803D01*
X18192787Y35606302D01*
X20033188Y34607000D01*
X21818787Y33512800D01*
X23544586Y32326701D01*
X25205982Y31051803D01*
X26798382Y29691802D01*
X28317486Y28250302D01*
X29758984Y26731202D01*
X31118984Y25138803D01*
X32393887Y23477405D01*
X33579983Y21751605D01*
X34674183Y19966004D01*
X35673489Y18125604D01*
X36574986Y16235505D01*
X37376385Y14300704D01*
X38075482Y12326705D01*
X38670185Y10318807D01*
X39159085Y8282477D01*
X39540684Y6223390D01*
X39814083Y4147149D01*
X39978390Y2059449D01*
X40033184Y-33992D01*
X39978390Y-2127433D01*
X39814083Y-4215133D01*
X39540684Y-6291373D01*
X39159085Y-8350463D01*
X38670185Y-10386790D01*
X38075482Y-12394691D01*
X37376385Y-14368690D01*
X36574986Y-16303489D01*
X35673489Y-18193587D01*
X34674183Y-20033988D01*
X33579983Y-21819587D01*
X32393887Y-23545386D01*
X31118984Y-25206782D01*
X29758984Y-26799182D01*
X28317486Y-28318286D01*
X26798382Y-29759784D01*
X25205982Y-31119784D01*
X23544586Y-32394687D01*
X21818787Y-33580783D01*
X20033188Y-34674983D01*
X18192787Y-35674289D01*
X16302689Y-36575786D01*
X14367890Y-37377185D01*
X12393891Y-38076282D01*
X10385990Y-38670985D01*
X8349663Y-39159885D01*
X6290573Y-39541484D01*
X4214333Y-39814883D01*
X2126633Y-39979190D01*
X33192Y-40033984D01*
X-2060249Y-39979190D01*
X-4147949Y-39814883D01*
X-6224190Y-39541484D01*
X-8283277Y-39159885D01*
X-10319607Y-38670985D01*
X-12327505Y-38076282D01*
X-14301504Y-37377185D01*
X-16236305Y-36575786D01*
X-18126404Y-35674289D01*
X-19966804Y-34674983D01*
X-21752405Y-33580783D01*
X-23478205Y-32394687D01*
X-25139603Y-31119784D01*
X-26732002Y-29759784D01*
X-28251102Y-28318286D01*
X-29692602Y-26799182D01*
X-31052603Y-25206782D01*
X-32327501Y-23545386D01*
X-33513600Y-21819587D01*
X-34607800Y-20033988D01*
X-35607102Y-18193587D01*
X-36508603Y-16303489D01*
X-37310002Y-14368690D01*
X-38009102Y-12394691D01*
X-38603802Y-10386790D01*
X-39092701Y-8350463D01*
X-39474300Y-6291373D01*
X-39747700Y-4215133D01*
X-39912002Y-2127433D01*
X-39966800Y-33992D01*
X-39912002Y2059449D01*
X-39747700Y4147149D01*
X-39474300Y6223390D01*
X-39092701Y8282477D01*
X-38603802Y10318807D01*
X-38009102Y12326705D01*
X-37310002Y14300704D01*
X-36508603Y16235505D01*
X-35607102Y18125604D01*
X-34607800Y19966004D01*
X-33513600Y21751605D01*
X-32327501Y23477405D01*
X-31052603Y25138803D01*
X-29692602Y26731202D01*
X-28251102Y28250302D01*
X-26732002Y29691802D01*
X-25139603Y31051803D01*
X-23478205Y32326701D01*
X-21752405Y33512800D01*
X-19966804Y34607000D01*
X-18126404Y35606302D01*
X-16236305Y36507803D01*
X-14301504Y37309202D01*
X-12327505Y38008302D01*
X-10319607Y38603002D01*
X-8283277Y39091901D01*
X-6224190Y39473500D01*
X-4147949Y39746900D01*
X-2060249Y39911202D01*
X33192Y39966000D01*
X2126633Y39911202D01*
M02*
