  0
SECTION
  2
HEADER
  9
$ANGBASE
  50
0.0
  9
$ANGDIR
  70
1
  9
$MEASUREMENT
  70
0
  0
ENDSEC
  0
SECTION
  2
TABLES
  0
TABLE
  2
LTYPE
  70
4
  0
LTYPE
  5
40F
  2
CONTINUOUS
  70
0
  3
Solid line
  72
65
  73
0
  40
0.0
  0
LTYPE
  5
410
  2
DASHDOT
 70
0
  3
Dash Dot ____ _ ____ _
 72
65
 73
4
 40
2.0
 49
1.25
 49
-0.25
 49
0.25
 49
-0.25
  0
LTYPE
  5
411
  2
DASHED
 70
0
  3
Dashed __ __ __ __ __
 72
65
 73
2
 40
0.75
 49
0.5
 49
-0.25
  0
LTYPE
  5
43B
  2
DOTTED
 70
0
  3
Dotted .  .  .  .
 72
65
 73
2
 40
0.2
 49
0.0
 49
-0.2
  0
ENDTAB
  0
TABLE
  2
STYLE
  70
4
  0
STYLE
  2
KICAD
  70
0
  40
0
  41
1
  42
1
  50
0
  71
0
  3
isocp.shx
  0
STYLE
  2
KICADB
  70
0
  40
0
  41
1
  42
1
  50
0
  71
0
  3
isocp.shx
  0
STYLE
  2
KICADI
  70
0
  40
0
  41
1
  42
1
  50
15
  71
0
  3
isocp.shx
  0
STYLE
  2
KICADBI
  70
0
  40
0
  41
1
  42
1
  50
15
  71
0
  3
isocp.shx
  0
ENDTAB
  0
TABLE
  2
LAYER
  70
1
  0
LAYER
  2
BLACK
  70
0
  62
7
  6
CONTINUOUS
  0
ENDTAB
  0
ENDSEC
  0
SECTION
  2
ENTITIES
0
LINE
8
BLACK
6
CONTINUOUS
10
0.905174
20
-0.536852
11
0.905279
21
-0.536832
0
LINE
8
BLACK
6
CONTINUOUS
10
0.905279
20
-0.536832
11
0.921378
21
-0.540257
0
LINE
8
BLACK
6
CONTINUOUS
10
0.921378
20
-0.540257
11
0.921466
21
-0.540318
0
LINE
8
BLACK
6
CONTINUOUS
10
0.921466
20
-0.540318
11
0.921573
21
-0.540321
0
LINE
8
BLACK
6
CONTINUOUS
10
0.921573
20
-0.540321
11
0.936612
21
-0.547014
0
LINE
8
BLACK
6
CONTINUOUS
10
0.936612
20
-0.547014
11
0.936677
21
-0.547082
0
LINE
8
BLACK
6
CONTINUOUS
10
0.936677
20
-0.547082
11
0.936769
21
-0.547101
0
LINE
8
BLACK
6
CONTINUOUS
10
0.936769
20
-0.547101
11
0.959497
21
-0.562704
0
LINE
8
BLACK
6
CONTINUOUS
10
0.959497
20
-0.562704
11
0.959497
21
-0.562704
0
LINE
8
BLACK
6
CONTINUOUS
10
0.959497
20
-0.562704
11
1.00151
21
-0.591546
0
LINE
8
BLACK
6
CONTINUOUS
10
1.00151
20
-0.591546
11
1.04089
21
-0.618582
0
LINE
8
BLACK
6
CONTINUOUS
10
1.04089
20
-0.618582
11
1.04089
21
-0.618582
0
LINE
8
BLACK
6
CONTINUOUS
10
1.04089
20
-0.618582
11
1.07753
21
-0.643735
0
LINE
8
BLACK
6
CONTINUOUS
10
1.07753
20
-0.643735
11
1.07753
21
-0.643735
0
LINE
8
BLACK
6
CONTINUOUS
10
1.07753
20
-0.643735
11
1.11133
21
-0.666936
0
LINE
8
BLACK
6
CONTINUOUS
10
1.11133
20
-0.666936
11
1.11133
21
-0.666936
0
LINE
8
BLACK
6
CONTINUOUS
10
1.11133
20
-0.666936
11
1.1422
21
-0.688129
0
LINE
8
BLACK
6
CONTINUOUS
10
1.1422
20
-0.688129
11
1.1422
21
-0.688129
0
LINE
8
BLACK
6
CONTINUOUS
10
1.1422
20
-0.688129
11
1.17005
21
-0.707247
0
LINE
8
BLACK
6
CONTINUOUS
10
1.17005
20
-0.707247
11
1.17005
21
-0.707247
0
LINE
8
BLACK
6
CONTINUOUS
10
1.17005
20
-0.707247
11
1.19481
21
-0.724239
0
LINE
8
BLACK
6
CONTINUOUS
10
1.19481
20
-0.724239
11
1.19481
21
-0.724239
0
LINE
8
BLACK
6
CONTINUOUS
10
1.19481
20
-0.724239
11
1.20932
21
-0.734204
0
LINE
8
BLACK
6
CONTINUOUS
10
1.20932
20
-0.734204
11
1.20933
21
-0.734216
0
LINE
8
BLACK
6
CONTINUOUS
10
1.20933
20
-0.734216
11
1.20935
21
-0.734219
0
LINE
8
BLACK
6
CONTINUOUS
10
1.20935
20
-0.734219
11
1.22266
21
-0.743896
0
LINE
8
BLACK
6
CONTINUOUS
10
1.22266
20
-0.743896
11
1.22272
21
-0.743988
0
LINE
8
BLACK
6
CONTINUOUS
10
1.22272
20
-0.743988
11
1.22281
21
-0.744034
0
LINE
8
BLACK
6
CONTINUOUS
10
1.22281
20
-0.744034
11
1.23383
21
-0.756266
0
LINE
8
BLACK
6
CONTINUOUS
10
1.23383
20
-0.756266
11
1.23386
21
-0.756367
0
LINE
8
BLACK
6
CONTINUOUS
10
1.23386
20
-0.756367
11
1.23395
21
-0.756433
0
LINE
8
BLACK
6
CONTINUOUS
10
1.23395
20
-0.756433
11
1.24218
21
-0.770688
0
LINE
8
BLACK
6
CONTINUOUS
10
1.24218
20
-0.770688
11
1.2422
21
-0.770795
0
LINE
8
BLACK
6
CONTINUOUS
10
1.2422
20
-0.770795
11
1.24227
21
-0.770877
0
LINE
8
BLACK
6
CONTINUOUS
10
1.24227
20
-0.770877
11
1.24735
21
-0.786534
0
LINE
8
BLACK
6
CONTINUOUS
10
1.24735
20
-0.786534
11
1.24734
21
-0.786641
0
LINE
8
BLACK
6
CONTINUOUS
10
1.24734
20
-0.786641
11
1.2474
21
-0.786735
0
LINE
8
BLACK
6
CONTINUOUS
10
1.2474
20
-0.786735
11
1.24912
21
-0.803105
0
LINE
8
BLACK
6
CONTINUOUS
10
1.24912
20
-0.803105
11
1.24909
21
-0.803208
0
LINE
8
BLACK
6
CONTINUOUS
10
1.24909
20
-0.803208
11
1.24912
21
-0.803311
0
LINE
8
BLACK
6
CONTINUOUS
10
1.24912
20
-0.803311
11
1.2474
21
-0.819681
0
LINE
8
BLACK
6
CONTINUOUS
10
1.2474
20
-0.819681
11
1.24734
21
-0.819775
0
LINE
8
BLACK
6
CONTINUOUS
10
1.24734
20
-0.819775
11
1.24735
21
-0.819882
0
LINE
8
BLACK
6
CONTINUOUS
10
1.24735
20
-0.819882
11
1.24227
21
-0.83554
0
LINE
8
BLACK
6
CONTINUOUS
10
1.24227
20
-0.83554
11
1.2422
21
-0.835621
0
LINE
8
BLACK
6
CONTINUOUS
10
1.2422
20
-0.835621
11
1.24218
21
-0.835728
0
LINE
8
BLACK
6
CONTINUOUS
10
1.24218
20
-0.835728
11
1.23395
21
-0.849984
0
LINE
8
BLACK
6
CONTINUOUS
10
1.23395
20
-0.849984
11
1.23392
21
-0.850009
0
LINE
8
BLACK
6
CONTINUOUS
10
1.23392
20
-0.850009
11
1.23391
21
-0.850049
0
LINE
8
BLACK
6
CONTINUOUS
10
1.23391
20
-0.850049
11
1.22879
21
-0.857502
0
LINE
8
BLACK
6
CONTINUOUS
10
1.22879
20
-0.857502
11
1.22879
21
-0.857502
0
LINE
8
BLACK
6
CONTINUOUS
10
1.22879
20
-0.857502
11
1.22879
21
-0.857502
0
LINE
8
BLACK
6
CONTINUOUS
10
1.22879
20
-0.857502
11
1.21549
21
-0.876845
0
LINE
8
BLACK
6
CONTINUOUS
10
1.21549
20
-0.876845
11
1.21549
21
-0.876845
0
LINE
8
BLACK
6
CONTINUOUS
10
1.21549
20
-0.876845
11
1.21549
21
-0.876845
0
LINE
8
BLACK
6
CONTINUOUS
10
1.21549
20
-0.876845
11
1.21246
21
-0.881258
0
LINE
8
BLACK
6
CONTINUOUS
10
1.21246
20
-0.881258
11
1.21243
21
-0.881273
0
LINE
8
BLACK
6
CONTINUOUS
10
1.21243
20
-0.881273
11
1.21243
21
-0.881299
0
LINE
8
BLACK
6
CONTINUOUS
10
1.21243
20
-0.881299
11
1.20343
21
-0.89302
0
LINE
8
BLACK
6
CONTINUOUS
10
1.20343
20
-0.89302
11
1.20343
21
-0.89302
0
LINE
8
BLACK
6
CONTINUOUS
10
1.20343
20
-0.89302
11
1.19372
21
-0.905685
0
LINE
8
BLACK
6
CONTINUOUS
10
1.19372
20
-0.905685
11
1.19372
21
-0.905685
0
LINE
8
BLACK
6
CONTINUOUS
10
1.19372
20
-0.905685
11
1.19372
21
-0.905685
0
LINE
8
BLACK
6
CONTINUOUS
10
1.19372
20
-0.905685
11
1.18676
21
-0.914756
0
LINE
8
BLACK
6
CONTINUOUS
10
1.18676
20
-0.914756
11
1.18676
21
-0.914756
0
LINE
8
BLACK
6
CONTINUOUS
10
1.18676
20
-0.914756
11
1.18258
21
-0.920209
0
LINE
8
BLACK
6
CONTINUOUS
10
1.18258
20
-0.920209
11
1.18258
21
-0.920209
0
LINE
8
BLACK
6
CONTINUOUS
10
1.18258
20
-0.920209
11
1.18257
21
-0.920209
0
LINE
8
BLACK
6
CONTINUOUS
10
1.18257
20
-0.920209
11
1.18118
21
-0.922028
0
LINE
8
BLACK
6
CONTINUOUS
10
1.18118
20
-0.922028
11
1.18118
21
-0.922028
0
LINE
8
BLACK
6
CONTINUOUS
10
1.18118
20
-0.922028
11
1.16726
21
-0.94017
0
LINE
8
BLACK
6
CONTINUOUS
10
1.16726
20
-0.94017
11
1.16723
21
-0.940183
0
LINE
8
BLACK
6
CONTINUOUS
10
1.16723
20
-0.940183
11
1.16722
21
-0.94021
0
LINE
8
BLACK
6
CONTINUOUS
10
1.16722
20
-0.94021
11
1.11903
21
-0.996635
0
LINE
8
BLACK
6
CONTINUOUS
10
1.11903
20
-0.996635
11
1.11902
21
-0.996641
0
LINE
8
BLACK
6
CONTINUOUS
10
1.11902
20
-0.996641
11
1.11901
21
-0.996654
0
LINE
8
BLACK
6
CONTINUOUS
10
1.11901
20
-0.996654
11
1.108
21
-1.00889
0
LINE
8
BLACK
6
CONTINUOUS
10
1.108
20
-1.00889
11
1.10799
21
-1.00889
0
LINE
8
BLACK
6
CONTINUOUS
10
1.10799
20
-1.00889
11
1.10798
21
-1.00891
0
LINE
8
BLACK
6
CONTINUOUS
10
1.10798
20
-1.00891
11
1.05691
21
-1.06273
0
LINE
8
BLACK
6
CONTINUOUS
10
1.05691
20
-1.06273
11
1.05688
21
-1.06274
0
LINE
8
BLACK
6
CONTINUOUS
10
1.05688
20
-1.06274
11
1.05687
21
-1.06276
0
LINE
8
BLACK
6
CONTINUOUS
10
1.05687
20
-1.06276
11
1.00305
21
-1.11384
0
LINE
8
BLACK
6
CONTINUOUS
10
1.00305
20
-1.11384
11
1.00302
21
-1.11385
0
LINE
8
BLACK
6
CONTINUOUS
10
1.00302
20
-1.11385
11
1.00301
21
-1.11388
0
LINE
8
BLACK
6
CONTINUOUS
10
1.00301
20
-1.11388
11
0.946583
21
-1.16207
0
LINE
8
BLACK
6
CONTINUOUS
10
0.946583
20
-1.16207
11
0.946557
21
-1.16208
0
LINE
8
BLACK
6
CONTINUOUS
10
0.946557
20
-1.16208
11
0.946543
21
-1.1621
0
LINE
8
BLACK
6
CONTINUOUS
10
0.946543
20
-1.1621
11
0.887674
21
-1.20727
0
LINE
8
BLACK
6
CONTINUOUS
10
0.887674
20
-1.20727
11
0.88766
21
-1.20728
0
LINE
8
BLACK
6
CONTINUOUS
10
0.88766
20
-1.20728
11
0.887653
21
-1.20729
0
LINE
8
BLACK
6
CONTINUOUS
10
0.887653
20
-1.20729
11
0.874338
21
-1.21697
0
LINE
8
BLACK
6
CONTINUOUS
10
0.874338
20
-1.21697
11
0.874324
21
-1.21697
0
LINE
8
BLACK
6
CONTINUOUS
10
0.874324
20
-1.21697
11
0.874317
21
-1.21698
0
LINE
8
BLACK
6
CONTINUOUS
10
0.874317
20
-1.21698
11
0.813163
21
-1.25901
0
LINE
8
BLACK
6
CONTINUOUS
10
0.813163
20
-1.25901
11
0.813136
21
-1.25901
0
LINE
8
BLACK
6
CONTINUOUS
10
0.813136
20
-1.25901
11
0.81312
21
-1.25904
0
LINE
8
BLACK
6
CONTINUOUS
10
0.81312
20
-1.25904
11
0.749852
21
-1.29781
0
LINE
8
BLACK
6
CONTINUOUS
10
0.749852
20
-1.29781
11
0.749825
21
-1.29781
0
LINE
8
BLACK
6
CONTINUOUS
10
0.749825
20
-1.29781
11
0.749808
21
-1.29783
0
LINE
8
BLACK
6
CONTINUOUS
10
0.749808
20
-1.29783
11
0.684599
21
-1.33324
0
LINE
8
BLACK
6
CONTINUOUS
10
0.684599
20
-1.33324
11
0.684572
21
-1.33324
0
LINE
8
BLACK
6
CONTINUOUS
10
0.684572
20
-1.33324
11
0.684553
21
-1.33326
0
LINE
8
BLACK
6
CONTINUOUS
10
0.684553
20
-1.33326
11
0.617577
21
-1.36521
0
LINE
8
BLACK
6
CONTINUOUS
10
0.617577
20
-1.36521
11
0.617563
21
-1.36521
0
LINE
8
BLACK
6
CONTINUOUS
10
0.617563
20
-1.36521
11
0.617553
21
-1.36522
0
LINE
8
BLACK
6
CONTINUOUS
10
0.617553
20
-1.36522
11
0.602518
21
-1.37191
0
LINE
8
BLACK
6
CONTINUOUS
10
0.602518
20
-1.37191
11
0.602504
21
-1.37191
0
LINE
8
BLACK
6
CONTINUOUS
10
0.602504
20
-1.37191
11
0.602494
21
-1.37192
0
LINE
8
BLACK
6
CONTINUOUS
10
0.602494
20
-1.37192
11
0.533939
21
-1.40032
0
LINE
8
BLACK
6
CONTINUOUS
10
0.533939
20
-1.40032
11
0.533912
21
-1.40032
0
LINE
8
BLACK
6
CONTINUOUS
10
0.533912
20
-1.40032
11
0.533891
21
-1.40034
0
LINE
8
BLACK
6
CONTINUOUS
10
0.533891
20
-1.40034
11
0.463942
21
-1.4251
0
LINE
8
BLACK
6
CONTINUOUS
10
0.463942
20
-1.4251
11
0.463915
21
-1.4251
0
LINE
8
BLACK
6
CONTINUOUS
10
0.463915
20
-1.4251
11
0.463893
21
-1.42512
0
LINE
8
BLACK
6
CONTINUOUS
10
0.463893
20
-1.42512
11
0.392749
21
-1.44619
0
LINE
8
BLACK
6
CONTINUOUS
10
0.392749
20
-1.44619
11
0.392721
21
-1.44619
0
LINE
8
BLACK
6
CONTINUOUS
10
0.392721
20
-1.44619
11
0.392699
21
-1.44621
0
LINE
8
BLACK
6
CONTINUOUS
10
0.392699
20
-1.44621
11
0.320546
21
-1.46353
0
LINE
8
BLACK
6
CONTINUOUS
10
0.320546
20
-1.46353
11
0.320533
21
-1.46353
0
LINE
8
BLACK
6
CONTINUOUS
10
0.320533
20
-1.46353
11
0.320521
21
-1.46354
0
LINE
8
BLACK
6
CONTINUOUS
10
0.320521
20
-1.46354
11
0.30442
21
-1.46696
0
LINE
8
BLACK
6
CONTINUOUS
10
0.30442
20
-1.46696
11
0.304406
21
-1.46696
0
LINE
8
BLACK
6
CONTINUOUS
10
0.304406
20
-1.46696
11
0.304395
21
-1.46697
0
LINE
8
BLACK
6
CONTINUOUS
10
0.304395
20
-1.46697
11
0.231435
21
-1.48049
0
LINE
8
BLACK
6
CONTINUOUS
10
0.231435
20
-1.48049
11
0.231408
21
-1.48048
0
LINE
8
BLACK
6
CONTINUOUS
10
0.231408
20
-1.48048
11
0.231384
21
-1.48049
0
LINE
8
BLACK
6
CONTINUOUS
10
0.231384
20
-1.48049
11
0.157816
21
-1.49018
0
LINE
8
BLACK
6
CONTINUOUS
10
0.157816
20
-1.49018
11
0.15779
21
-1.49017
0
LINE
8
BLACK
6
CONTINUOUS
10
0.15779
20
-1.49017
11
0.157765
21
-1.49019
0
LINE
8
BLACK
6
CONTINUOUS
10
0.157765
20
-1.49019
11
0.0837915
21
-1.49601
0
LINE
8
BLACK
6
CONTINUOUS
10
0.0837915
20
-1.49601
11
0.0837652
21
-1.496
0
LINE
8
BLACK
6
CONTINUOUS
10
0.0837652
20
-1.496
11
0.08374
21
-1.49601
0
LINE
8
BLACK
6
CONTINUOUS
10
0.08374
20
-1.49601
11
0.00956311
21
-1.49795
0
LINE
8
BLACK
6
CONTINUOUS
10
0.00956311
20
-1.49795
11
0.00955016
21
-1.49795
0
LINE
8
BLACK
6
CONTINUOUS
10
0.00955016
20
-1.49795
11
0.00953736
21
-1.49795
0
LINE
8
BLACK
6
CONTINUOUS
10
0.00953736
20
-1.49795
11
-0.00692382
21
-1.49795
0
LINE
8
BLACK
6
CONTINUOUS
10
-0.00692382
20
-1.49795
11
-0.00693665
21
-1.49795
0
LINE
8
BLACK
6
CONTINUOUS
10
-0.00693665
20
-1.49795
11
-0.00694957
21
-1.49795
0
LINE
8
BLACK
6
CONTINUOUS
10
-0.00694957
20
-1.49795
11
-0.0811265
21
-1.49601
0
LINE
8
BLACK
6
CONTINUOUS
10
-0.0811265
20
-1.49601
11
-0.0811517
21
-1.496
0
LINE
8
BLACK
6
CONTINUOUS
10
-0.0811517
20
-1.496
11
-0.081178
21
-1.49601
0
LINE
8
BLACK
6
CONTINUOUS
10
-0.081178
20
-1.49601
11
-0.155152
21
-1.49019
0
LINE
8
BLACK
6
CONTINUOUS
10
-0.155152
20
-1.49019
11
-0.155176
21
-1.49017
0
LINE
8
BLACK
6
CONTINUOUS
10
-0.155176
20
-1.49017
11
-0.155203
21
-1.49018
0
LINE
8
BLACK
6
CONTINUOUS
10
-0.155203
20
-1.49018
11
-0.22877
21
-1.48049
0
LINE
8
BLACK
6
CONTINUOUS
10
-0.22877
20
-1.48049
11
-0.228794
21
-1.48048
0
LINE
8
BLACK
6
CONTINUOUS
10
-0.228794
20
-1.48048
11
-0.228821
21
-1.48049
0
LINE
8
BLACK
6
CONTINUOUS
10
-0.228821
20
-1.48049
11
-0.301781
21
-1.46697
0
LINE
8
BLACK
6
CONTINUOUS
10
-0.301781
20
-1.46697
11
-0.301793
21
-1.46696
0
LINE
8
BLACK
6
CONTINUOUS
10
-0.301793
20
-1.46696
11
-0.301807
21
-1.46696
0
LINE
8
BLACK
6
CONTINUOUS
10
-0.301807
20
-1.46696
11
-0.317908
21
-1.46354
0
LINE
8
BLACK
6
CONTINUOUS
10
-0.317908
20
-1.46354
11
-0.317919
21
-1.46353
0
LINE
8
BLACK
6
CONTINUOUS
10
-0.317919
20
-1.46353
11
-0.317933
21
-1.46353
0
LINE
8
BLACK
6
CONTINUOUS
10
-0.317933
20
-1.46353
11
-0.390085
21
-1.44621
0
LINE
8
BLACK
6
CONTINUOUS
10
-0.390085
20
-1.44621
11
-0.390107
21
-1.44619
0
LINE
8
BLACK
6
CONTINUOUS
10
-0.390107
20
-1.44619
11
-0.390135
21
-1.4462
0
LINE
8
BLACK
6
CONTINUOUS
10
-0.390135
20
-1.4462
11
-0.46128
21
-1.42512
0
LINE
8
BLACK
6
CONTINUOUS
10
-0.46128
20
-1.42512
11
-0.461301
21
-1.4251
0
LINE
8
BLACK
6
CONTINUOUS
10
-0.461301
20
-1.4251
11
-0.461329
21
-1.4251
0
LINE
8
BLACK
6
CONTINUOUS
10
-0.461329
20
-1.4251
11
-0.531278
21
-1.40034
0
LINE
8
BLACK
6
CONTINUOUS
10
-0.531278
20
-1.40034
11
-0.531298
21
-1.40032
0
LINE
8
BLACK
6
CONTINUOUS
10
-0.531298
20
-1.40032
11
-0.531326
21
-1.40032
0
LINE
8
BLACK
6
CONTINUOUS
10
-0.531326
20
-1.40032
11
-0.599881
21
-1.37192
0
LINE
8
BLACK
6
CONTINUOUS
10
-0.599881
20
-1.37192
11
-0.599891
21
-1.37191
0
LINE
8
BLACK
6
CONTINUOUS
10
-0.599891
20
-1.37191
11
-0.599904
21
-1.37191
0
LINE
8
BLACK
6
CONTINUOUS
10
-0.599904
20
-1.37191
11
-0.61494
21
-1.36522
0
LINE
8
BLACK
6
CONTINUOUS
10
-0.61494
20
-1.36522
11
-0.614949
21
-1.36521
0
LINE
8
BLACK
6
CONTINUOUS
10
-0.614949
20
-1.36521
11
-0.614963
21
-1.36521
0
LINE
8
BLACK
6
CONTINUOUS
10
-0.614963
20
-1.36521
11
-0.68194
21
-1.33326
0
LINE
8
BLACK
6
CONTINUOUS
10
-0.68194
20
-1.33326
11
-0.681958
21
-1.33324
0
LINE
8
BLACK
6
CONTINUOUS
10
-0.681958
20
-1.33324
11
-0.681986
21
-1.33324
0
LINE
8
BLACK
6
CONTINUOUS
10
-0.681986
20
-1.33324
11
-0.70208
21
-1.32232
0
LINE
8
BLACK
6
CONTINUOUS
10
-0.70208
20
-1.32232
11
-0.70208
21
-1.32232
0
LINE
8
BLACK
6
CONTINUOUS
10
-0.70208
20
-1.32232
11
-0.704096
21
-1.32123
0
LINE
8
BLACK
6
CONTINUOUS
10
-0.704096
20
-1.32123
11
-0.704096
21
-1.32123
0
LINE
8
BLACK
6
CONTINUOUS
10
-0.704096
20
-1.32123
11
-0.710135
21
-1.31795
0
LINE
8
BLACK
6
CONTINUOUS
10
-0.710135
20
-1.31795
11
-0.720186
21
-1.3125
0
LINE
8
BLACK
6
CONTINUOUS
10
-0.720186
20
-1.3125
11
-0.720186
21
-1.3125
0
LINE
8
BLACK
6
CONTINUOUS
10
-0.720186
20
-1.3125
11
-0.720186
21
-1.3125
0
LINE
8
BLACK
6
CONTINUOUS
10
-0.720186
20
-1.3125
11
-0.734214
21
-1.30488
0
LINE
8
BLACK
6
CONTINUOUS
10
-0.734214
20
-1.30488
11
-0.747194
21
-1.29783
0
LINE
8
BLACK
6
CONTINUOUS
10
-0.747194
20
-1.29783
11
-0.747212
21
-1.29781
0
LINE
8
BLACK
6
CONTINUOUS
10
-0.747212
20
-1.29781
11
-0.747239
21
-1.29781
0
LINE
8
BLACK
6
CONTINUOUS
10
-0.747239
20
-1.29781
11
-0.751806
21
-1.29501
0
LINE
8
BLACK
6
CONTINUOUS
10
-0.751806
20
-1.29501
11
-0.751806
21
-1.29501
0
LINE
8
BLACK
6
CONTINUOUS
10
-0.751806
20
-1.29501
11
-0.771821
21
-1.28274
0
LINE
8
BLACK
6
CONTINUOUS
10
-0.771821
20
-1.28274
11
-0.771822
21
-1.28274
0
LINE
8
BLACK
6
CONTINUOUS
10
-0.771822
20
-1.28274
11
-0.771822
21
-1.28274
0
LINE
8
BLACK
6
CONTINUOUS
10
-0.771822
20
-1.28274
11
-0.779531
21
-1.27802
0
LINE
8
BLACK
6
CONTINUOUS
10
-0.779531
20
-1.27802
11
-0.779555
21
-1.27798
0
LINE
8
BLACK
6
CONTINUOUS
10
-0.779555
20
-1.27798
11
-0.779594
21
-1.27797
0
LINE
8
BLACK
6
CONTINUOUS
10
-0.779594
20
-1.27797
11
-0.792913
21
-1.2683
0
LINE
8
BLACK
6
CONTINUOUS
10
-0.792913
20
-1.2683
11
-0.792969
21
-1.26821
0
LINE
8
BLACK
6
CONTINUOUS
10
-0.792969
20
-1.26821
11
-0.793066
21
-1.26816
0
LINE
8
BLACK
6
CONTINUOUS
10
-0.793066
20
-1.26816
11
-0.804078
21
-1.25593
0
LINE
8
BLACK
6
CONTINUOUS
10
-0.804078
20
-1.25593
11
-0.804114
21
-1.25583
0
LINE
8
BLACK
6
CONTINUOUS
10
-0.804114
20
-1.25583
11
-0.804199
21
-1.25576
0
LINE
8
BLACK
6
CONTINUOUS
10
-0.804199
20
-1.25576
11
-0.812431
21
-1.24151
0
LINE
8
BLACK
6
CONTINUOUS
10
-0.812431
20
-1.24151
11
-0.812445
21
-1.2414
0
LINE
8
BLACK
6
CONTINUOUS
10
-0.812445
20
-1.2414
11
-0.812515
21
-1.24132
0
LINE
8
BLACK
6
CONTINUOUS
10
-0.812515
20
-1.24132
11
-0.817602
21
-1.22566
0
LINE
8
BLACK
6
CONTINUOUS
10
-0.817602
20
-1.22566
11
-0.817593
21
-1.22555
0
LINE
8
BLACK
6
CONTINUOUS
10
-0.817593
20
-1.22555
11
-0.817644
21
-1.22546
0
LINE
8
BLACK
6
CONTINUOUS
10
-0.817644
20
-1.22546
11
-0.819365
21
-1.20909
0
LINE
8
BLACK
6
CONTINUOUS
10
-0.819365
20
-1.20909
11
-0.819334
21
-1.20899
0
LINE
8
BLACK
6
CONTINUOUS
10
-0.819334
20
-1.20899
11
-0.819365
21
-1.20888
0
LINE
8
BLACK
6
CONTINUOUS
10
-0.819365
20
-1.20888
11
-0.817644
21
-1.19251
0
LINE
8
BLACK
6
CONTINUOUS
10
-0.817644
20
-1.19251
11
-0.817593
21
-1.19242
0
LINE
8
BLACK
6
CONTINUOUS
10
-0.817593
20
-1.19242
11
-0.817602
21
-1.19231
0
LINE
8
BLACK
6
CONTINUOUS
10
-0.817602
20
-1.19231
11
-0.812515
21
-1.17666
0
LINE
8
BLACK
6
CONTINUOUS
10
-0.812515
20
-1.17666
11
-0.812445
21
-1.17657
0
LINE
8
BLACK
6
CONTINUOUS
10
-0.812445
20
-1.17657
11
-0.812431
21
-1.17647
0
LINE
8
BLACK
6
CONTINUOUS
10
-0.812431
20
-1.17647
11
-0.804199
21
-1.16221
0
LINE
8
BLACK
6
CONTINUOUS
10
-0.804199
20
-1.16221
11
-0.804188
21
-1.1622
0
LINE
8
BLACK
6
CONTINUOUS
10
-0.804188
20
-1.1622
11
-0.804186
21
-1.16219
0
LINE
8
BLACK
6
CONTINUOUS
10
-0.804186
20
-1.16219
11
-0.794981
21
-1.14718
0
LINE
8
BLACK
6
CONTINUOUS
10
-0.794981
20
-1.14718
11
-0.794981
21
-1.14718
0
LINE
8
BLACK
6
CONTINUOUS
10
-0.794981
20
-1.14718
11
-0.794981
21
-1.14718
0
LINE
8
BLACK
6
CONTINUOUS
10
-0.794981
20
-1.14718
11
-0.779276
21
-1.12159
0
LINE
8
BLACK
6
CONTINUOUS
10
-0.779276
20
-1.12159
11
-0.779276
21
-1.12159
0
LINE
8
BLACK
6
CONTINUOUS
10
-0.779276
20
-1.12159
11
-0.761611
21
-1.0928
0
LINE
8
BLACK
6
CONTINUOUS
10
-0.761611
20
-1.0928
11
-0.761611
21
-1.0928
0
LINE
8
BLACK
6
CONTINUOUS
10
-0.761611
20
-1.0928
11
-0.742028
21
-1.06088
0
LINE
8
BLACK
6
CONTINUOUS
10
-0.742028
20
-1.06088
11
-0.742028
21
-1.06088
0
LINE
8
BLACK
6
CONTINUOUS
10
-0.742028
20
-1.06088
11
-0.720587
21
-1.02594
0
LINE
8
BLACK
6
CONTINUOUS
10
-0.720587
20
-1.02594
11
-0.720587
21
-1.02594
0
LINE
8
BLACK
6
CONTINUOUS
10
-0.720587
20
-1.02594
11
-0.697347
21
-0.988056
0
LINE
8
BLACK
6
CONTINUOUS
10
-0.697347
20
-0.988056
11
-0.697347
21
-0.988055
0
LINE
8
BLACK
6
CONTINUOUS
10
-0.697347
20
-0.988055
11
-0.672367
21
-0.947339
0
LINE
8
BLACK
6
CONTINUOUS
10
-0.672367
20
-0.947339
11
-0.672367
21
-0.947339
0
LINE
8
BLACK
6
CONTINUOUS
10
-0.672367
20
-0.947339
11
-0.645717
21
-0.903902
0
LINE
8
BLACK
6
CONTINUOUS
10
-0.645717
20
-0.903902
11
-0.645717
21
-0.903902
0
LINE
8
BLACK
6
CONTINUOUS
10
-0.645717
20
-0.903902
11
-0.645717
21
-0.903902
0
LINE
8
BLACK
6
CONTINUOUS
10
-0.645717
20
-0.903902
11
-0.6313
21
-0.880406
0
LINE
8
BLACK
6
CONTINUOUS
10
-0.6313
20
-0.880406
11
-0.631224
21
-0.880351
0
LINE
8
BLACK
6
CONTINUOUS
10
-0.631224
20
-0.880351
11
-0.631192
21
-0.880262
0
LINE
8
BLACK
6
CONTINUOUS
10
-0.631192
20
-0.880262
11
-0.620176
21
-0.86803
0
LINE
8
BLACK
6
CONTINUOUS
10
-0.620176
20
-0.86803
11
-0.62008
21
-0.867984
0
LINE
8
BLACK
6
CONTINUOUS
10
-0.62008
20
-0.867984
11
-0.620024
21
-0.867892
0
LINE
8
BLACK
6
CONTINUOUS
10
-0.620024
20
-0.867892
11
-0.606705
21
-0.858215
0
LINE
8
BLACK
6
CONTINUOUS
10
-0.606705
20
-0.858215
11
-0.6066
21
-0.85819
0
LINE
8
BLACK
6
CONTINUOUS
10
-0.6066
20
-0.85819
11
-0.606527
21
-0.858112
0
LINE
8
BLACK
6
CONTINUOUS
10
-0.606527
20
-0.858112
11
-0.591491
21
-0.851415
0
LINE
8
BLACK
6
CONTINUOUS
10
-0.591491
20
-0.851415
11
-0.591384
21
-0.851413
0
LINE
8
BLACK
6
CONTINUOUS
10
-0.591384
20
-0.851413
11
-0.591295
21
-0.851352
0
LINE
8
BLACK
6
CONTINUOUS
10
-0.591295
20
-0.851352
11
-0.575193
21
-0.847931
0
LINE
8
BLACK
6
CONTINUOUS
10
-0.575193
20
-0.847931
11
-0.575088
21
-0.84795
0
LINE
8
BLACK
6
CONTINUOUS
10
-0.575088
20
-0.84795
11
-0.574988
21
-0.847909
0
LINE
8
BLACK
6
CONTINUOUS
10
-0.574988
20
-0.847909
11
-0.558528
21
-0.847909
0
LINE
8
BLACK
6
CONTINUOUS
10
-0.558528
20
-0.847909
11
-0.558429
21
-0.84795
0
LINE
8
BLACK
6
CONTINUOUS
10
-0.558429
20
-0.84795
11
-0.558323
21
-0.847931
0
LINE
8
BLACK
6
CONTINUOUS
10
-0.558323
20
-0.847931
11
-0.542221
21
-0.851352
0
LINE
8
BLACK
6
CONTINUOUS
10
-0.542221
20
-0.851352
11
-0.542132
21
-0.851413
0
LINE
8
BLACK
6
CONTINUOUS
10
-0.542132
20
-0.851413
11
-0.542025
21
-0.851415
0
LINE
8
BLACK
6
CONTINUOUS
10
-0.542025
20
-0.851415
11
-0.526986
21
-0.858112
0
LINE
8
BLACK
6
CONTINUOUS
10
-0.526986
20
-0.858112
11
-0.526939
21
-0.858162
0
LINE
8
BLACK
6
CONTINUOUS
10
-0.526939
20
-0.858162
11
-0.526872
21
-0.858172
0
LINE
8
BLACK
6
CONTINUOUS
10
-0.526872
20
-0.858172
11
-0.502138
21
-0.873328
0
LINE
8
BLACK
6
CONTINUOUS
10
-0.502138
20
-0.873328
11
-0.452187
21
-0.900449
0
LINE
8
BLACK
6
CONTINUOUS
10
-0.452187
20
-0.900449
11
-0.40832
21
-0.921376
0
LINE
8
BLACK
6
CONTINUOUS
10
-0.40832
20
-0.921376
11
-0.363416
21
-0.939974
0
LINE
8
BLACK
6
CONTINUOUS
10
-0.363416
20
-0.939974
11
-0.309839
21
-0.958945
0
LINE
8
BLACK
6
CONTINUOUS
10
-0.309839
20
-0.958945
11
-0.255343
21
-0.975088
0
LINE
8
BLACK
6
CONTINUOUS
10
-0.255343
20
-0.975088
11
-0.208083
21
-0.986434
0
LINE
8
BLACK
6
CONTINUOUS
10
-0.208083
20
-0.986434
11
-0.160292
21
-0.995295
0
LINE
8
BLACK
6
CONTINUOUS
10
-0.160292
20
-0.995295
11
-0.103942
21
-1.00271
0
LINE
8
BLACK
6
CONTINUOUS
10
-0.103942
20
-1.00271
11
-0.04728
21
-1.00717
0
LINE
8
BLACK
6
CONTINUOUS
10
-0.04728
20
-1.00717
11
0.00130709
21
-1.00844
0
LINE
8
BLACK
6
CONTINUOUS
10
0.00130709
20
-1.00844
11
0.0498935
21
-1.00717
0
LINE
8
BLACK
6
CONTINUOUS
10
0.0498935
20
-1.00717
11
0.106556
21
-1.00271
0
LINE
8
BLACK
6
CONTINUOUS
10
0.106556
20
-1.00271
11
0.162906
21
-0.995295
0
LINE
8
BLACK
6
CONTINUOUS
10
0.162906
20
-0.995295
11
0.210696
21
-0.986434
0
LINE
8
BLACK
6
CONTINUOUS
10
0.210696
20
-0.986434
11
0.257957
21
-0.975088
0
LINE
8
BLACK
6
CONTINUOUS
10
0.257957
20
-0.975088
11
0.312453
21
-0.958945
0
LINE
8
BLACK
6
CONTINUOUS
10
0.312453
20
-0.958945
11
0.36603
21
-0.939974
0
LINE
8
BLACK
6
CONTINUOUS
10
0.36603
20
-0.939974
11
0.410934
21
-0.921376
0
LINE
8
BLACK
6
CONTINUOUS
10
0.410934
20
-0.921376
11
0.454801
21
-0.900449
0
LINE
8
BLACK
6
CONTINUOUS
10
0.454801
20
-0.900449
11
0.504751
21
-0.873328
0
LINE
8
BLACK
6
CONTINUOUS
10
0.504751
20
-0.873328
11
0.553211
21
-0.843634
0
LINE
8
BLACK
6
CONTINUOUS
10
0.553211
20
-0.843634
11
0.593267
21
-0.816105
0
LINE
8
BLACK
6
CONTINUOUS
10
0.593267
20
-0.816105
11
0.631829
21
-0.786514
0
LINE
8
BLACK
6
CONTINUOUS
10
0.631829
20
-0.786514
11
0.675045
21
-0.749603
0
LINE
8
BLACK
6
CONTINUOUS
10
0.675045
20
-0.749603
11
0.716276
21
-0.71048
0
LINE
8
BLACK
6
CONTINUOUS
10
0.716276
20
-0.71048
11
0.749733
21
-0.675223
0
LINE
8
BLACK
6
CONTINUOUS
10
0.749733
20
-0.675223
11
0.781297
21
-0.638266
0
LINE
8
BLACK
6
CONTINUOUS
10
0.781297
20
-0.638266
11
0.815896
21
-0.593173
0
LINE
8
BLACK
6
CONTINUOUS
10
0.815896
20
-0.593173
11
0.83233
21
-0.569265
0
LINE
8
BLACK
6
CONTINUOUS
10
0.83233
20
-0.569265
11
0.832387
21
-0.569228
0
LINE
8
BLACK
6
CONTINUOUS
10
0.832387
20
-0.569228
11
0.83241
21
-0.569164
0
LINE
8
BLACK
6
CONTINUOUS
10
0.83241
20
-0.569164
11
0.843422
21
-0.556932
0
LINE
8
BLACK
6
CONTINUOUS
10
0.843422
20
-0.556932
11
0.843519
21
-0.556885
0
LINE
8
BLACK
6
CONTINUOUS
10
0.843519
20
-0.556885
11
0.843575
21
-0.556794
0
LINE
8
BLACK
6
CONTINUOUS
10
0.843575
20
-0.556794
11
0.856893
21
-0.547117
0
LINE
8
BLACK
6
CONTINUOUS
10
0.856893
20
-0.547117
11
0.856998
21
-0.547092
0
LINE
8
BLACK
6
CONTINUOUS
10
0.856998
20
-0.547092
11
0.857072
21
-0.547014
0
LINE
8
BLACK
6
CONTINUOUS
10
0.857072
20
-0.547014
11
0.872111
21
-0.540321
0
LINE
8
BLACK
6
CONTINUOUS
10
0.872111
20
-0.540321
11
0.872218
21
-0.540318
0
LINE
8
BLACK
6
CONTINUOUS
10
0.872218
20
-0.540318
11
0.872307
21
-0.540257
0
LINE
8
BLACK
6
CONTINUOUS
10
0.872307
20
-0.540257
11
0.888405
21
-0.536832
0
LINE
8
BLACK
6
CONTINUOUS
10
0.888405
20
-0.536832
11
0.888511
21
-0.536852
0
LINE
8
BLACK
6
CONTINUOUS
10
0.888511
20
-0.536852
11
0.88861
21
-0.536811
0
LINE
8
BLACK
6
CONTINUOUS
10
0.88861
20
-0.536811
11
0.905074
21
-0.536811
0
LINE
8
BLACK
6
CONTINUOUS
10
0.905074
20
-0.536811
11
0.905174
21
-0.536852
0
LINE
8
BLACK
6
CONTINUOUS
10
0.888713
20
-0.538779
11
0.872817
21
-0.542161
0
LINE
8
BLACK
6
CONTINUOUS
10
0.872817
20
-0.542161
11
0.857967
21
-0.54877
0
LINE
8
BLACK
6
CONTINUOUS
10
0.857967
20
-0.54877
11
0.844815
21
-0.558325
0
LINE
8
BLACK
6
CONTINUOUS
10
0.844815
20
-0.558325
11
0.833916
21
-0.570433
0
LINE
8
BLACK
6
CONTINUOUS
10
0.833916
20
-0.570433
11
0.817504
21
-0.594309
0
LINE
8
BLACK
6
CONTINUOUS
10
0.817504
20
-0.594309
11
0.81748
21
-0.594324
0
LINE
8
BLACK
6
CONTINUOUS
10
0.81748
20
-0.594324
11
0.817473
21
-0.594351
0
LINE
8
BLACK
6
CONTINUOUS
10
0.817473
20
-0.594351
11
0.782843
21
-0.639485
0
LINE
8
BLACK
6
CONTINUOUS
10
0.782843
20
-0.639485
11
0.782819
21
-0.639498
0
LINE
8
BLACK
6
CONTINUOUS
10
0.782819
20
-0.639498
11
0.782811
21
-0.639525
0
LINE
8
BLACK
6
CONTINUOUS
10
0.782811
20
-0.639525
11
0.751213
21
-0.676521
0
LINE
8
BLACK
6
CONTINUOUS
10
0.751213
20
-0.676521
11
0.751188
21
-0.676533
0
LINE
8
BLACK
6
CONTINUOUS
10
0.751188
20
-0.676533
11
0.751178
21
-0.676559
0
LINE
8
BLACK
6
CONTINUOUS
10
0.751178
20
-0.676559
11
0.717686
21
-0.711854
0
LINE
8
BLACK
6
CONTINUOUS
10
0.717686
20
-0.711854
11
0.717661
21
-0.711865
0
LINE
8
BLACK
6
CONTINUOUS
10
0.717661
20
-0.711865
11
0.717649
21
-0.711891
0
LINE
8
BLACK
6
CONTINUOUS
10
0.717649
20
-0.711891
11
0.676382
21
-0.751048
0
LINE
8
BLACK
6
CONTINUOUS
10
0.676382
20
-0.751048
11
0.676356
21
-0.751058
0
LINE
8
BLACK
6
CONTINUOUS
10
0.676356
20
-0.751058
11
0.676343
21
-0.751082
0
LINE
8
BLACK
6
CONTINUOUS
10
0.676343
20
-0.751082
11
0.633087
21
-0.788027
0
LINE
8
BLACK
6
CONTINUOUS
10
0.633087
20
-0.788027
11
0.633061
21
-0.788036
0
LINE
8
BLACK
6
CONTINUOUS
10
0.633061
20
-0.788036
11
0.633047
21
-0.78806
0
LINE
8
BLACK
6
CONTINUOUS
10
0.633047
20
-0.78806
11
0.594445
21
-0.817682
0
LINE
8
BLACK
6
CONTINUOUS
10
0.594445
20
-0.817682
11
0.594418
21
-0.817689
0
LINE
8
BLACK
6
CONTINUOUS
10
0.594418
20
-0.817689
11
0.594403
21
-0.817712
0
LINE
8
BLACK
6
CONTINUOUS
10
0.594403
20
-0.817712
11
0.554305
21
-0.845271
0
LINE
8
BLACK
6
CONTINUOUS
10
0.554305
20
-0.845271
11
0.554278
21
-0.845277
0
LINE
8
BLACK
6
CONTINUOUS
10
0.554278
20
-0.845277
11
0.554262
21
-0.845299
0
LINE
8
BLACK
6
CONTINUOUS
10
0.554262
20
-0.845299
11
0.505758
21
-0.87502
0
LINE
8
BLACK
6
CONTINUOUS
10
0.505758
20
-0.87502
11
0.505731
21
-0.875024
0
LINE
8
BLACK
6
CONTINUOUS
10
0.505731
20
-0.875024
11
0.505713
21
-0.875046
0
LINE
8
BLACK
6
CONTINUOUS
10
0.505713
20
-0.875046
11
0.455717
21
-0.902191
0
LINE
8
BLACK
6
CONTINUOUS
10
0.455717
20
-0.902191
11
0.45569
21
-0.902194
0
LINE
8
BLACK
6
CONTINUOUS
10
0.45569
20
-0.902194
11
0.455671
21
-0.902215
0
LINE
8
BLACK
6
CONTINUOUS
10
0.455671
20
-0.902215
11
0.411758
21
-0.923163
0
LINE
8
BLACK
6
CONTINUOUS
10
0.411758
20
-0.923163
11
0.41173
21
-0.923165
0
LINE
8
BLACK
6
CONTINUOUS
10
0.41173
20
-0.923165
11
0.411711
21
-0.923184
0
LINE
8
BLACK
6
CONTINUOUS
10
0.411711
20
-0.923184
11
0.366759
21
-0.941803
0
LINE
8
BLACK
6
CONTINUOUS
10
0.366759
20
-0.941803
11
0.366731
21
-0.941803
0
LINE
8
BLACK
6
CONTINUOUS
10
0.366731
20
-0.941803
11
0.366711
21
-0.941821
0
LINE
8
BLACK
6
CONTINUOUS
10
0.366711
20
-0.941821
11
0.313085
21
-0.960809
0
LINE
8
BLACK
6
CONTINUOUS
10
0.313085
20
-0.960809
11
0.313058
21
-0.960808
0
LINE
8
BLACK
6
CONTINUOUS
10
0.313058
20
-0.960808
11
0.313036
21
-0.960825
0
LINE
8
BLACK
6
CONTINUOUS
10
0.313036
20
-0.960825
11
0.258491
21
-0.976982
0
LINE
8
BLACK
6
CONTINUOUS
10
0.258491
20
-0.976982
11
0.258463
21
-0.97698
0
LINE
8
BLACK
6
CONTINUOUS
10
0.258463
20
-0.97698
11
0.258441
21
-0.976996
0
LINE
8
BLACK
6
CONTINUOUS
10
0.258441
20
-0.976996
11
0.21113
21
-0.988354
0
LINE
8
BLACK
6
CONTINUOUS
10
0.21113
20
-0.988354
11
0.211103
21
-0.98835
0
LINE
8
BLACK
6
CONTINUOUS
10
0.211103
20
-0.98835
11
0.21108
21
-0.988365
0
LINE
8
BLACK
6
CONTINUOUS
10
0.21108
20
-0.988365
11
0.163239
21
-0.997235
0
LINE
8
BLACK
6
CONTINUOUS
10
0.163239
20
-0.997235
11
0.163212
21
-0.997229
0
LINE
8
BLACK
6
CONTINUOUS
10
0.163212
20
-0.997229
11
0.163188
21
-0.997243
0
LINE
8
BLACK
6
CONTINUOUS
10
0.163188
20
-0.997243
11
0.106787
21
-1.00467
0
LINE
8
BLACK
6
CONTINUOUS
10
0.106787
20
-1.00467
11
0.10676
21
-1.00466
0
LINE
8
BLACK
6
CONTINUOUS
10
0.10676
20
-1.00466
11
0.106736
21
-1.00467
0
LINE
8
BLACK
6
CONTINUOUS
10
0.106736
20
-1.00467
11
0.0500225
21
-1.00913
0
LINE
8
BLACK
6
CONTINUOUS
10
0.0500225
20
-1.00913
11
0.0499963
21
-1.00913
0
LINE
8
BLACK
6
CONTINUOUS
10
0.0499963
20
-1.00913
11
0.0499712
21
-1.00914
0
LINE
8
BLACK
6
CONTINUOUS
10
0.0499712
20
-1.00914
11
0.00133287
21
-1.01041
0
LINE
8
BLACK
6
CONTINUOUS
10
0.00133287
20
-1.01041
11
0.00130709
21
-1.0104
0
LINE
8
BLACK
6
CONTINUOUS
10
0.00130709
20
-1.0104
11
0.0012813
21
-1.01041
0
LINE
8
BLACK
6
CONTINUOUS
10
0.0012813
20
-1.01041
11
-0.0473576
21
-1.00914
0
LINE
8
BLACK
6
CONTINUOUS
10
-0.0473576
20
-1.00914
11
-0.0473828
21
-1.00913
0
LINE
8
BLACK
6
CONTINUOUS
10
-0.0473828
20
-1.00913
11
-0.047409
21
-1.00913
0
LINE
8
BLACK
6
CONTINUOUS
10
-0.047409
20
-1.00913
11
-0.104122
21
-1.00467
0
LINE
8
BLACK
6
CONTINUOUS
10
-0.104122
20
-1.00467
11
-0.104147
21
-1.00466
0
LINE
8
BLACK
6
CONTINUOUS
10
-0.104147
20
-1.00466
11
-0.104173
21
-1.00467
0
LINE
8
BLACK
6
CONTINUOUS
10
-0.104173
20
-1.00467
11
-0.160575
21
-0.997243
0
LINE
8
BLACK
6
CONTINUOUS
10
-0.160575
20
-0.997243
11
-0.160599
21
-0.997229
0
LINE
8
BLACK
6
CONTINUOUS
10
-0.160599
20
-0.997229
11
-0.160626
21
-0.997235
0
LINE
8
BLACK
6
CONTINUOUS
10
-0.160626
20
-0.997235
11
-0.208467
21
-0.988365
0
LINE
8
BLACK
6
CONTINUOUS
10
-0.208467
20
-0.988365
11
-0.20849
21
-0.98835
0
LINE
8
BLACK
6
CONTINUOUS
10
-0.20849
20
-0.98835
11
-0.208517
21
-0.988354
0
LINE
8
BLACK
6
CONTINUOUS
10
-0.208517
20
-0.988354
11
-0.255827
21
-0.976996
0
LINE
8
BLACK
6
CONTINUOUS
10
-0.255827
20
-0.976996
11
-0.25585
21
-0.97698
0
LINE
8
BLACK
6
CONTINUOUS
10
-0.25585
20
-0.97698
11
-0.255877
21
-0.976982
0
LINE
8
BLACK
6
CONTINUOUS
10
-0.255877
20
-0.976982
11
-0.310423
21
-0.960825
0
LINE
8
BLACK
6
CONTINUOUS
10
-0.310423
20
-0.960825
11
-0.310444
21
-0.960808
0
LINE
8
BLACK
6
CONTINUOUS
10
-0.310444
20
-0.960808
11
-0.310472
21
-0.960809
0
LINE
8
BLACK
6
CONTINUOUS
10
-0.310472
20
-0.960809
11
-0.364097
21
-0.941821
0
LINE
8
BLACK
6
CONTINUOUS
10
-0.364097
20
-0.941821
11
-0.364118
21
-0.941803
0
LINE
8
BLACK
6
CONTINUOUS
10
-0.364118
20
-0.941803
11
-0.364145
21
-0.941803
0
LINE
8
BLACK
6
CONTINUOUS
10
-0.364145
20
-0.941803
11
-0.409097
21
-0.923184
0
LINE
8
BLACK
6
CONTINUOUS
10
-0.409097
20
-0.923184
11
-0.409117
21
-0.923165
0
LINE
8
BLACK
6
CONTINUOUS
10
-0.409117
20
-0.923165
11
-0.409144
21
-0.923163
0
LINE
8
BLACK
6
CONTINUOUS
10
-0.409144
20
-0.923163
11
-0.453058
21
-0.902215
0
LINE
8
BLACK
6
CONTINUOUS
10
-0.453058
20
-0.902215
11
-0.453076
21
-0.902194
0
LINE
8
BLACK
6
CONTINUOUS
10
-0.453076
20
-0.902194
11
-0.453104
21
-0.902191
0
LINE
8
BLACK
6
CONTINUOUS
10
-0.453104
20
-0.902191
11
-0.5031
21
-0.875046
0
LINE
8
BLACK
6
CONTINUOUS
10
-0.5031
20
-0.875046
11
-0.503117
21
-0.875024
0
LINE
8
BLACK
6
CONTINUOUS
10
-0.503117
20
-0.875024
11
-0.503144
21
-0.87502
0
LINE
8
BLACK
6
CONTINUOUS
10
-0.503144
20
-0.87502
11
-0.527845
21
-0.859884
0
LINE
8
BLACK
6
CONTINUOUS
10
-0.527845
20
-0.859884
11
-0.542731
21
-0.853256
0
LINE
8
BLACK
6
CONTINUOUS
10
-0.542731
20
-0.853256
11
-0.558631
21
-0.849877
0
LINE
8
BLACK
6
CONTINUOUS
10
-0.558631
20
-0.849877
11
-0.574885
21
-0.849877
0
LINE
8
BLACK
6
CONTINUOUS
10
-0.574885
20
-0.849877
11
-0.590785
21
-0.853256
0
LINE
8
BLACK
6
CONTINUOUS
10
-0.590785
20
-0.853256
11
-0.605631
21
-0.859868
0
LINE
8
BLACK
6
CONTINUOUS
10
-0.605631
20
-0.859868
11
-0.618783
21
-0.869424
0
LINE
8
BLACK
6
CONTINUOUS
10
-0.618783
20
-0.869424
11
-0.629669
21
-0.881512
0
LINE
8
BLACK
6
CONTINUOUS
10
-0.629669
20
-0.881512
11
-0.644039
21
-0.904932
0
LINE
8
BLACK
6
CONTINUOUS
10
-0.644039
20
-0.904932
11
-0.644039
21
-0.904932
0
LINE
8
BLACK
6
CONTINUOUS
10
-0.644039
20
-0.904932
11
-0.670689
21
-0.948369
0
LINE
8
BLACK
6
CONTINUOUS
10
-0.670689
20
-0.948369
11
-0.670689
21
-0.948369
0
LINE
8
BLACK
6
CONTINUOUS
10
-0.670689
20
-0.948369
11
-0.695669
21
-0.989085
0
LINE
8
BLACK
6
CONTINUOUS
10
-0.695669
20
-0.989085
11
-0.695669
21
-0.989085
0
LINE
8
BLACK
6
CONTINUOUS
10
-0.695669
20
-0.989085
11
-0.718909
21
-1.02697
0
LINE
8
BLACK
6
CONTINUOUS
10
-0.718909
20
-1.02697
11
-0.718909
21
-1.02697
0
LINE
8
BLACK
6
CONTINUOUS
10
-0.718909
20
-1.02697
11
-0.718909
21
-1.02697
0
LINE
8
BLACK
6
CONTINUOUS
10
-0.718909
20
-1.02697
11
-0.74035
21
-1.06191
0
LINE
8
BLACK
6
CONTINUOUS
10
-0.74035
20
-1.06191
11
-0.74035
21
-1.06191
0
LINE
8
BLACK
6
CONTINUOUS
10
-0.74035
20
-1.06191
11
-0.74035
21
-1.06191
0
LINE
8
BLACK
6
CONTINUOUS
10
-0.74035
20
-1.06191
11
-0.759933
21
-1.09383
0
LINE
8
BLACK
6
CONTINUOUS
10
-0.759933
20
-1.09383
11
-0.759933
21
-1.09383
0
LINE
8
BLACK
6
CONTINUOUS
10
-0.759933
20
-1.09383
11
-0.777598
21
-1.12262
0
LINE
8
BLACK
6
CONTINUOUS
10
-0.777598
20
-1.12262
11
-0.793303
21
-1.14821
0
LINE
8
BLACK
6
CONTINUOUS
10
-0.793303
20
-1.14821
11
-0.793303
21
-1.14821
0
LINE
8
BLACK
6
CONTINUOUS
10
-0.793303
20
-1.14821
11
-0.802501
21
-1.16321
0
LINE
8
BLACK
6
CONTINUOUS
10
-0.802501
20
-1.16321
11
-0.810675
21
-1.17736
0
LINE
8
BLACK
6
CONTINUOUS
10
-0.810675
20
-1.17736
11
-0.815698
21
-1.19282
0
LINE
8
BLACK
6
CONTINUOUS
10
-0.815698
20
-1.19282
11
-0.817396
21
-1.20899
0
LINE
8
BLACK
6
CONTINUOUS
10
-0.817396
20
-1.20899
11
-0.815698
21
-1.22515
0
LINE
8
BLACK
6
CONTINUOUS
10
-0.815698
20
-1.22515
11
-0.810675
21
-1.24061
0
LINE
8
BLACK
6
CONTINUOUS
10
-0.810675
20
-1.24061
11
-0.802546
21
-1.25469
0
LINE
8
BLACK
6
CONTINUOUS
10
-0.802546
20
-1.25469
11
-0.791673
21
-1.26677
0
LINE
8
BLACK
6
CONTINUOUS
10
-0.791673
20
-1.26677
11
-0.778469
21
-1.27636
0
LINE
8
BLACK
6
CONTINUOUS
10
-0.778469
20
-1.27636
11
-0.770793
21
-1.28107
0
LINE
8
BLACK
6
CONTINUOUS
10
-0.770793
20
-1.28107
11
-0.770793
21
-1.28107
0
LINE
8
BLACK
6
CONTINUOUS
10
-0.770793
20
-1.28107
11
-0.750777
21
-1.29333
0
LINE
8
BLACK
6
CONTINUOUS
10
-0.750777
20
-1.29333
11
-0.750777
21
-1.29333
0
LINE
8
BLACK
6
CONTINUOUS
10
-0.750777
20
-1.29333
11
-0.750777
21
-1.29333
0
LINE
8
BLACK
6
CONTINUOUS
10
-0.750777
20
-1.29333
11
-0.746233
21
-1.29611
0
LINE
8
BLACK
6
CONTINUOUS
10
-0.746233
20
-1.29611
11
-0.733275
21
-1.30315
0
LINE
8
BLACK
6
CONTINUOUS
10
-0.733275
20
-1.30315
11
-0.733275
21
-1.30315
0
LINE
8
BLACK
6
CONTINUOUS
10
-0.733275
20
-1.30315
11
-0.733275
21
-1.30315
0
LINE
8
BLACK
6
CONTINUOUS
10
-0.733275
20
-1.30315
11
-0.719247
21
-1.31077
0
LINE
8
BLACK
6
CONTINUOUS
10
-0.719247
20
-1.31077
11
-0.719247
21
-1.31077
0
LINE
8
BLACK
6
CONTINUOUS
10
-0.719247
20
-1.31077
11
-0.709196
21
-1.31622
0
LINE
8
BLACK
6
CONTINUOUS
10
-0.709196
20
-1.31622
11
-0.709196
21
-1.31622
0
LINE
8
BLACK
6
CONTINUOUS
10
-0.709196
20
-1.31622
11
-0.709196
21
-1.31622
0
LINE
8
BLACK
6
CONTINUOUS
10
-0.709196
20
-1.31622
11
-0.703156
21
-1.3195
0
LINE
8
BLACK
6
CONTINUOUS
10
-0.703156
20
-1.3195
11
-0.701141
21
-1.32059
0
LINE
8
BLACK
6
CONTINUOUS
10
-0.701141
20
-1.32059
11
-0.701141
21
-1.3206
0
LINE
8
BLACK
6
CONTINUOUS
10
-0.701141
20
-1.3206
11
-0.681069
21
-1.3315
0
LINE
8
BLACK
6
CONTINUOUS
10
-0.681069
20
-1.3315
11
-0.614127
21
-1.36342
0
LINE
8
BLACK
6
CONTINUOUS
10
-0.614127
20
-1.36342
11
-0.599116
21
-1.37011
0
LINE
8
BLACK
6
CONTINUOUS
10
-0.599116
20
-1.37011
11
-0.530596
21
-1.39849
0
LINE
8
BLACK
6
CONTINUOUS
10
-0.530596
20
-1.39849
11
-0.460696
21
-1.42324
0
LINE
8
BLACK
6
CONTINUOUS
10
-0.460696
20
-1.42324
11
-0.389601
21
-1.4443
0
LINE
8
BLACK
6
CONTINUOUS
10
-0.389601
20
-1.4443
11
-0.317486
21
-1.46161
0
LINE
8
BLACK
6
CONTINUOUS
10
-0.317486
20
-1.46161
11
-0.30141
21
-1.46503
0
LINE
8
BLACK
6
CONTINUOUS
10
-0.30141
20
-1.46503
11
-0.228488
21
-1.47855
0
LINE
8
BLACK
6
CONTINUOUS
10
-0.228488
20
-1.47855
11
-0.154972
21
-1.48822
0
LINE
8
BLACK
6
CONTINUOUS
10
-0.154972
20
-1.48822
11
-0.0810488
21
-1.49404
0
LINE
8
BLACK
6
CONTINUOUS
10
-0.0810488
20
-1.49404
11
-0.00691161
21
-1.49598
0
LINE
8
BLACK
6
CONTINUOUS
10
-0.00691161
20
-1.49598
11
0.00952516
21
-1.49598
0
LINE
8
BLACK
6
CONTINUOUS
10
0.00952516
20
-1.49598
11
0.0836623
21
-1.49404
0
LINE
8
BLACK
6
CONTINUOUS
10
0.0836623
20
-1.49404
11
0.157585
21
-1.48822
0
LINE
8
BLACK
6
CONTINUOUS
10
0.157585
20
-1.48822
11
0.231101
21
-1.47855
0
LINE
8
BLACK
6
CONTINUOUS
10
0.231101
20
-1.47855
11
0.304024
21
-1.46503
0
LINE
8
BLACK
6
CONTINUOUS
10
0.304024
20
-1.46503
11
0.3201
21
-1.46161
0
LINE
8
BLACK
6
CONTINUOUS
10
0.3201
20
-1.46161
11
0.392214
21
-1.4443
0
LINE
8
BLACK
6
CONTINUOUS
10
0.392214
20
-1.4443
11
0.46331
21
-1.42324
0
LINE
8
BLACK
6
CONTINUOUS
10
0.46331
20
-1.42324
11
0.533209
21
-1.39849
0
LINE
8
BLACK
6
CONTINUOUS
10
0.533209
20
-1.39849
11
0.60173
21
-1.37011
0
LINE
8
BLACK
6
CONTINUOUS
10
0.60173
20
-1.37011
11
0.616741
21
-1.36342
0
LINE
8
BLACK
6
CONTINUOUS
10
0.616741
20
-1.36342
11
0.683683
21
-1.3315
0
LINE
8
BLACK
6
CONTINUOUS
10
0.683683
20
-1.3315
11
0.748846
21
-1.29612
0
LINE
8
BLACK
6
CONTINUOUS
10
0.748846
20
-1.29612
11
0.81207
21
-1.25737
0
LINE
8
BLACK
6
CONTINUOUS
10
0.81207
20
-1.25737
11
0.873191
21
-1.21537
0
LINE
8
BLACK
6
CONTINUOUS
10
0.873191
20
-1.21537
11
0.886485
21
-1.2057
0
LINE
8
BLACK
6
CONTINUOUS
10
0.886485
20
-1.2057
11
0.945325
21
-1.16055
0
LINE
8
BLACK
6
CONTINUOUS
10
0.945325
20
-1.16055
11
1.00171
21
-1.1124
0
LINE
8
BLACK
6
CONTINUOUS
10
1.00171
20
-1.1124
11
1.0555
21
-1.06135
0
LINE
8
BLACK
6
CONTINUOUS
10
1.0555
20
-1.06135
11
1.10655
21
-1.00756
0
LINE
8
BLACK
6
CONTINUOUS
10
1.10655
20
-1.00756
11
1.11754
21
-0.995347
0
LINE
8
BLACK
6
CONTINUOUS
10
1.11754
20
-0.995347
11
1.16571
21
-0.938951
0
LINE
8
BLACK
6
CONTINUOUS
10
1.16571
20
-0.938951
11
1.17962
21
-0.920829
0
LINE
8
BLACK
6
CONTINUOUS
10
1.17962
20
-0.920829
11
1.17962
21
-0.920829
0
LINE
8
BLACK
6
CONTINUOUS
10
1.17962
20
-0.920829
11
1.17962
21
-0.920829
0
LINE
8
BLACK
6
CONTINUOUS
10
1.17962
20
-0.920829
11
1.18101
21
-0.91901
0
LINE
8
BLACK
6
CONTINUOUS
10
1.18101
20
-0.91901
11
1.18101
21
-0.91901
0
LINE
8
BLACK
6
CONTINUOUS
10
1.18101
20
-0.91901
11
1.18519
21
-0.913558
0
LINE
8
BLACK
6
CONTINUOUS
10
1.18519
20
-0.913558
11
1.18519
21
-0.913558
0
LINE
8
BLACK
6
CONTINUOUS
10
1.18519
20
-0.913558
11
1.18519
21
-0.913558
0
LINE
8
BLACK
6
CONTINUOUS
10
1.18519
20
-0.913558
11
1.19216
21
-0.904487
0
LINE
8
BLACK
6
CONTINUOUS
10
1.19216
20
-0.904487
11
1.19216
21
-0.904487
0
LINE
8
BLACK
6
CONTINUOUS
10
1.19216
20
-0.904487
11
1.20187
21
-0.891822
0
LINE
8
BLACK
6
CONTINUOUS
10
1.20187
20
-0.891822
11
1.20187
21
-0.891822
0
LINE
8
BLACK
6
CONTINUOUS
10
1.20187
20
-0.891822
11
1.20187
21
-0.891822
0
LINE
8
BLACK
6
CONTINUOUS
10
1.20187
20
-0.891822
11
1.21085
21
-0.880121
0
LINE
8
BLACK
6
CONTINUOUS
10
1.21085
20
-0.880121
11
1.21387
21
-0.87573
0
LINE
8
BLACK
6
CONTINUOUS
10
1.21387
20
-0.87573
11
1.21387
21
-0.875729
0
LINE
8
BLACK
6
CONTINUOUS
10
1.21387
20
-0.875729
11
1.22716
21
-0.856387
0
LINE
8
BLACK
6
CONTINUOUS
10
1.22716
20
-0.856387
11
1.22716
21
-0.856387
0
LINE
8
BLACK
6
CONTINUOUS
10
1.22716
20
-0.856387
11
1.23226
21
-0.848966
0
LINE
8
BLACK
6
CONTINUOUS
10
1.23226
20
-0.848966
11
1.24043
21
-0.834833
0
LINE
8
BLACK
6
CONTINUOUS
10
1.24043
20
-0.834833
11
1.24545
21
-0.819373
0
LINE
8
BLACK
6
CONTINUOUS
10
1.24545
20
-0.819373
11
1.24715
21
-0.803208
0
LINE
8
BLACK
6
CONTINUOUS
10
1.24715
20
-0.803208
11
1.24545
21
-0.787044
0
LINE
8
BLACK
6
CONTINUOUS
10
1.24545
20
-0.787044
11
1.24043
21
-0.771583
0
LINE
8
BLACK
6
CONTINUOUS
10
1.24043
20
-0.771583
11
1.2323
21
-0.757506
0
LINE
8
BLACK
6
CONTINUOUS
10
1.2323
20
-0.757506
11
1.22142
21
-0.745428
0
LINE
8
BLACK
6
CONTINUOUS
10
1.22142
20
-0.745428
11
1.2082
21
-0.735819
0
LINE
8
BLACK
6
CONTINUOUS
10
1.2082
20
-0.735819
11
1.19369
21
-0.725862
0
LINE
8
BLACK
6
CONTINUOUS
10
1.19369
20
-0.725862
11
1.16894
21
-0.70887
0
LINE
8
BLACK
6
CONTINUOUS
10
1.16894
20
-0.70887
11
1.16894
21
-0.70887
0
LINE
8
BLACK
6
CONTINUOUS
10
1.16894
20
-0.70887
11
1.14109
21
-0.689752
0
LINE
8
BLACK
6
CONTINUOUS
10
1.14109
20
-0.689752
11
1.14109
21
-0.689752
0
LINE
8
BLACK
6
CONTINUOUS
10
1.14109
20
-0.689752
11
1.11022
21
-0.668559
0
LINE
8
BLACK
6
CONTINUOUS
10
1.11022
20
-0.668559
11
1.11022
21
-0.668559
0
LINE
8
BLACK
6
CONTINUOUS
10
1.11022
20
-0.668559
11
1.07642
21
-0.645358
0
LINE
8
BLACK
6
CONTINUOUS
10
1.07642
20
-0.645358
11
1.07642
21
-0.645358
0
LINE
8
BLACK
6
CONTINUOUS
10
1.07642
20
-0.645358
11
1.03978
21
-0.620205
0
LINE
8
BLACK
6
CONTINUOUS
10
1.03978
20
-0.620205
11
1.03978
21
-0.620205
0
LINE
8
BLACK
6
CONTINUOUS
10
1.03978
20
-0.620205
11
1.0004
21
-0.593169
0
LINE
8
BLACK
6
CONTINUOUS
10
1.0004
20
-0.593169
11
1.0004
21
-0.593169
0
LINE
8
BLACK
6
CONTINUOUS
10
1.0004
20
-0.593169
11
0.958383
21
-0.564327
0
LINE
8
BLACK
6
CONTINUOUS
10
0.958383
20
-0.564327
11
0.935729
21
-0.548775
0
LINE
8
BLACK
6
CONTINUOUS
10
0.935729
20
-0.548775
11
0.920867
21
-0.542161
0
LINE
8
BLACK
6
CONTINUOUS
10
0.920867
20
-0.542161
11
0.904971
21
-0.538779
0
LINE
8
BLACK
6
CONTINUOUS
10
0.904971
20
-0.538779
11
0.888713
21
-0.538779
0
LINE
8
BLACK
6
CONTINUOUS
10
0.0193059
20
0.245304
11
0.0384927
21
0.243034
0
LINE
8
BLACK
6
CONTINUOUS
10
0.0384927
20
0.243034
11
0.0574423
21
0.239264
0
LINE
8
BLACK
6
CONTINUOUS
10
0.0574423
20
0.239264
11
0.0760376
21
0.23402
0
LINE
8
BLACK
6
CONTINUOUS
10
0.0760376
20
0.23402
11
0.0941642
21
0.227333
0
LINE
8
BLACK
6
CONTINUOUS
10
0.0941642
20
0.227333
11
0.11171
21
0.219244
0
LINE
8
BLACK
6
CONTINUOUS
10
0.11171
20
0.219244
11
0.128568
21
0.209803
0
LINE
8
BLACK
6
CONTINUOUS
10
0.128568
20
0.209803
11
0.144632
21
0.199069
0
LINE
8
BLACK
6
CONTINUOUS
10
0.144632
20
0.199069
11
0.159805
21
0.187108
0
LINE
8
BLACK
6
CONTINUOUS
10
0.159805
20
0.187108
11
0.173993
21
0.173993
0
LINE
8
BLACK
6
CONTINUOUS
10
0.173993
20
0.173993
11
0.187108
21
0.159805
0
LINE
8
BLACK
6
CONTINUOUS
10
0.187108
20
0.159805
11
0.199069
21
0.144632
0
LINE
8
BLACK
6
CONTINUOUS
10
0.199069
20
0.144632
11
0.209803
21
0.128568
0
LINE
8
BLACK
6
CONTINUOUS
10
0.209803
20
0.128568
11
0.219244
21
0.11171
0
LINE
8
BLACK
6
CONTINUOUS
10
0.219244
20
0.11171
11
0.227333
21
0.0941642
0
LINE
8
BLACK
6
CONTINUOUS
10
0.227333
20
0.0941642
11
0.23402
21
0.0760376
0
LINE
8
BLACK
6
CONTINUOUS
10
0.23402
20
0.0760376
11
0.239264
21
0.0574423
0
LINE
8
BLACK
6
CONTINUOUS
10
0.239264
20
0.0574423
11
0.243034
21
0.0384927
0
LINE
8
BLACK
6
CONTINUOUS
10
0.243034
20
0.0384927
11
0.245304
21
0.0193059
0
LINE
8
BLACK
6
CONTINUOUS
10
0.245304
20
0.0193059
11
0.246063
21
0
0
LINE
8
BLACK
6
CONTINUOUS
10
0.246063
20
0
11
0.245304
21
-0.0193059
0
LINE
8
BLACK
6
CONTINUOUS
10
0.245304
20
-0.0193059
11
0.243034
21
-0.0384927
0
LINE
8
BLACK
6
CONTINUOUS
10
0.243034
20
-0.0384927
11
0.239264
21
-0.0574423
0
LINE
8
BLACK
6
CONTINUOUS
10
0.239264
20
-0.0574423
11
0.23402
21
-0.0760376
0
LINE
8
BLACK
6
CONTINUOUS
10
0.23402
20
-0.0760376
11
0.227333
21
-0.0941642
0
LINE
8
BLACK
6
CONTINUOUS
10
0.227333
20
-0.0941642
11
0.219244
21
-0.11171
0
LINE
8
BLACK
6
CONTINUOUS
10
0.219244
20
-0.11171
11
0.209803
21
-0.128568
0
LINE
8
BLACK
6
CONTINUOUS
10
0.209803
20
-0.128568
11
0.199069
21
-0.144632
0
LINE
8
BLACK
6
CONTINUOUS
10
0.199069
20
-0.144632
11
0.187108
21
-0.159805
0
LINE
8
BLACK
6
CONTINUOUS
10
0.187108
20
-0.159805
11
0.173993
21
-0.173993
0
LINE
8
BLACK
6
CONTINUOUS
10
0.173993
20
-0.173993
11
0.159805
21
-0.187108
0
LINE
8
BLACK
6
CONTINUOUS
10
0.159805
20
-0.187108
11
0.144632
21
-0.199069
0
LINE
8
BLACK
6
CONTINUOUS
10
0.144632
20
-0.199069
11
0.128568
21
-0.209803
0
LINE
8
BLACK
6
CONTINUOUS
10
0.128568
20
-0.209803
11
0.11171
21
-0.219244
0
LINE
8
BLACK
6
CONTINUOUS
10
0.11171
20
-0.219244
11
0.0941642
21
-0.227333
0
LINE
8
BLACK
6
CONTINUOUS
10
0.0941642
20
-0.227333
11
0.0760376
21
-0.23402
0
LINE
8
BLACK
6
CONTINUOUS
10
0.0760376
20
-0.23402
11
0.0574423
21
-0.239264
0
LINE
8
BLACK
6
CONTINUOUS
10
0.0574423
20
-0.239264
11
0.0384927
21
-0.243034
0
LINE
8
BLACK
6
CONTINUOUS
10
0.0384927
20
-0.243034
11
0.0193059
21
-0.245304
0
LINE
8
BLACK
6
CONTINUOUS
10
0.0193059
20
-0.245304
11
0
21
-0.246063
0
LINE
8
BLACK
6
CONTINUOUS
10
0
20
-0.246063
11
-0.0193059
21
-0.245304
0
LINE
8
BLACK
6
CONTINUOUS
10
-0.0193059
20
-0.245304
11
-0.0384927
21
-0.243034
0
LINE
8
BLACK
6
CONTINUOUS
10
-0.0384927
20
-0.243034
11
-0.0574423
21
-0.239264
0
LINE
8
BLACK
6
CONTINUOUS
10
-0.0574423
20
-0.239264
11
-0.0760376
21
-0.23402
0
LINE
8
BLACK
6
CONTINUOUS
10
-0.0760376
20
-0.23402
11
-0.0941642
21
-0.227333
0
LINE
8
BLACK
6
CONTINUOUS
10
-0.0941642
20
-0.227333
11
-0.11171
21
-0.219244
0
LINE
8
BLACK
6
CONTINUOUS
10
-0.11171
20
-0.219244
11
-0.128568
21
-0.209803
0
LINE
8
BLACK
6
CONTINUOUS
10
-0.128568
20
-0.209803
11
-0.144632
21
-0.199069
0
LINE
8
BLACK
6
CONTINUOUS
10
-0.144632
20
-0.199069
11
-0.159805
21
-0.187108
0
LINE
8
BLACK
6
CONTINUOUS
10
-0.159805
20
-0.187108
11
-0.173993
21
-0.173993
0
LINE
8
BLACK
6
CONTINUOUS
10
-0.173993
20
-0.173993
11
-0.187108
21
-0.159805
0
LINE
8
BLACK
6
CONTINUOUS
10
-0.187108
20
-0.159805
11
-0.199069
21
-0.144632
0
LINE
8
BLACK
6
CONTINUOUS
10
-0.199069
20
-0.144632
11
-0.209803
21
-0.128568
0
LINE
8
BLACK
6
CONTINUOUS
10
-0.209803
20
-0.128568
11
-0.219244
21
-0.11171
0
LINE
8
BLACK
6
CONTINUOUS
10
-0.219244
20
-0.11171
11
-0.227333
21
-0.0941642
0
LINE
8
BLACK
6
CONTINUOUS
10
-0.227333
20
-0.0941642
11
-0.23402
21
-0.0760376
0
LINE
8
BLACK
6
CONTINUOUS
10
-0.23402
20
-0.0760376
11
-0.239264
21
-0.0574423
0
LINE
8
BLACK
6
CONTINUOUS
10
-0.239264
20
-0.0574423
11
-0.243034
21
-0.0384927
0
LINE
8
BLACK
6
CONTINUOUS
10
-0.243034
20
-0.0384927
11
-0.245304
21
-0.0193059
0
LINE
8
BLACK
6
CONTINUOUS
10
-0.245304
20
-0.0193059
11
-0.246063
21
0
0
LINE
8
BLACK
6
CONTINUOUS
10
-0.246063
20
0
11
-0.245304
21
0.0193059
0
LINE
8
BLACK
6
CONTINUOUS
10
-0.245304
20
0.0193059
11
-0.243034
21
0.0384927
0
LINE
8
BLACK
6
CONTINUOUS
10
-0.243034
20
0.0384927
11
-0.239264
21
0.0574423
0
LINE
8
BLACK
6
CONTINUOUS
10
-0.239264
20
0.0574423
11
-0.23402
21
0.0760376
0
LINE
8
BLACK
6
CONTINUOUS
10
-0.23402
20
0.0760376
11
-0.227333
21
0.0941642
0
LINE
8
BLACK
6
CONTINUOUS
10
-0.227333
20
0.0941642
11
-0.219244
21
0.11171
0
LINE
8
BLACK
6
CONTINUOUS
10
-0.219244
20
0.11171
11
-0.209803
21
0.128568
0
LINE
8
BLACK
6
CONTINUOUS
10
-0.209803
20
0.128568
11
-0.199069
21
0.144632
0
LINE
8
BLACK
6
CONTINUOUS
10
-0.199069
20
0.144632
11
-0.187108
21
0.159805
0
LINE
8
BLACK
6
CONTINUOUS
10
-0.187108
20
0.159805
11
-0.173993
21
0.173993
0
LINE
8
BLACK
6
CONTINUOUS
10
-0.173993
20
0.173993
11
-0.159805
21
0.187108
0
LINE
8
BLACK
6
CONTINUOUS
10
-0.159805
20
0.187108
11
-0.144632
21
0.199069
0
LINE
8
BLACK
6
CONTINUOUS
10
-0.144632
20
0.199069
11
-0.128568
21
0.209803
0
LINE
8
BLACK
6
CONTINUOUS
10
-0.128568
20
0.209803
11
-0.11171
21
0.219244
0
LINE
8
BLACK
6
CONTINUOUS
10
-0.11171
20
0.219244
11
-0.0941642
21
0.227333
0
LINE
8
BLACK
6
CONTINUOUS
10
-0.0941642
20
0.227333
11
-0.0760376
21
0.23402
0
LINE
8
BLACK
6
CONTINUOUS
10
-0.0760376
20
0.23402
11
-0.0574423
21
0.239264
0
LINE
8
BLACK
6
CONTINUOUS
10
-0.0574423
20
0.239264
11
-0.0384927
21
0.243034
0
LINE
8
BLACK
6
CONTINUOUS
10
-0.0384927
20
0.243034
11
-0.0193059
21
0.245304
0
LINE
8
BLACK
6
CONTINUOUS
10
-0.0193059
20
0.245304
11
0
21
0.246063
0
LINE
8
BLACK
6
CONTINUOUS
10
0
20
0.246063
11
0.0193059
21
0.245304
0
LINE
8
BLACK
6
CONTINUOUS
10
-0.241537
20
-0.0194989
11
-0.239184
21
-0.0388713
0
LINE
8
BLACK
6
CONTINUOUS
10
-0.239184
20
-0.0388713
11
-0.235281
21
-0.0579916
0
LINE
8
BLACK
6
CONTINUOUS
10
-0.235281
20
-0.0579916
11
-0.229852
21
-0.0767358
0
LINE
8
BLACK
6
CONTINUOUS
10
-0.229852
20
-0.0767358
11
-0.222932
21
-0.0949823
0
LINE
8
BLACK
6
CONTINUOUS
10
-0.222932
20
-0.0949823
11
-0.214566
21
-0.112613
0
LINE
8
BLACK
6
CONTINUOUS
10
-0.214566
20
-0.112613
11
-0.204809
21
-0.129513
0
LINE
8
BLACK
6
CONTINUOUS
10
-0.204809
20
-0.129513
11
-0.193723
21
-0.145573
0
LINE
8
BLACK
6
CONTINUOUS
10
-0.193723
20
-0.145573
11
-0.181381
21
-0.16069
0
LINE
8
BLACK
6
CONTINUOUS
10
-0.181381
20
-0.16069
11
-0.167863
21
-0.174764
0
LINE
8
BLACK
6
CONTINUOUS
10
-0.167863
20
-0.174764
11
-0.153256
21
-0.187704
0
LINE
8
BLACK
6
CONTINUOUS
10
-0.153256
20
-0.187704
11
-0.137655
21
-0.199428
0
LINE
8
BLACK
6
CONTINUOUS
10
-0.137655
20
-0.199428
11
-0.121161
21
-0.209857
0
LINE
8
BLACK
6
CONTINUOUS
10
-0.121161
20
-0.209857
11
-0.103882
21
-0.218926
0
LINE
8
BLACK
6
CONTINUOUS
10
-0.103882
20
-0.218926
11
-0.0859287
21
-0.226575
0
LINE
8
BLACK
6
CONTINUOUS
10
-0.0859287
20
-0.226575
11
-0.0674183
21
-0.232755
0
LINE
8
BLACK
6
CONTINUOUS
10
-0.0674183
20
-0.232755
11
-0.0484707
21
-0.237425
0
LINE
8
BLACK
6
CONTINUOUS
10
-0.0484707
20
-0.237425
11
-0.0292087
21
-0.240556
0
LINE
8
BLACK
6
CONTINUOUS
10
-0.0292087
20
-0.240556
11
-0.00975736
21
-0.242126
0
LINE
8
BLACK
6
CONTINUOUS
10
-0.00975736
20
-0.242126
11
0.00975736
21
-0.242126
0
LINE
8
BLACK
6
CONTINUOUS
10
0.00975736
20
-0.242126
11
0.0292087
21
-0.240556
0
LINE
8
BLACK
6
CONTINUOUS
10
0.0292087
20
-0.240556
11
0.0484707
21
-0.237425
0
LINE
8
BLACK
6
CONTINUOUS
10
0.0484707
20
-0.237425
11
0.0674183
21
-0.232755
0
LINE
8
BLACK
6
CONTINUOUS
10
0.0674183
20
-0.232755
11
0.0859287
21
-0.226575
0
LINE
8
BLACK
6
CONTINUOUS
10
0.0859287
20
-0.226575
11
0.103882
21
-0.218926
0
LINE
8
BLACK
6
CONTINUOUS
10
0.103882
20
-0.218926
11
0.121161
21
-0.209857
0
LINE
8
BLACK
6
CONTINUOUS
10
0.121161
20
-0.209857
11
0.137655
21
-0.199428
0
LINE
8
BLACK
6
CONTINUOUS
10
0.137655
20
-0.199428
11
0.153256
21
-0.187704
0
LINE
8
BLACK
6
CONTINUOUS
10
0.153256
20
-0.187704
11
0.167863
21
-0.174764
0
LINE
8
BLACK
6
CONTINUOUS
10
0.167863
20
-0.174764
11
0.181381
21
-0.16069
0
LINE
8
BLACK
6
CONTINUOUS
10
0.181381
20
-0.16069
11
0.193723
21
-0.145573
0
LINE
8
BLACK
6
CONTINUOUS
10
0.193723
20
-0.145573
11
0.204809
21
-0.129513
0
LINE
8
BLACK
6
CONTINUOUS
10
0.204809
20
-0.129513
11
0.214566
21
-0.112613
0
LINE
8
BLACK
6
CONTINUOUS
10
0.214566
20
-0.112613
11
0.222932
21
-0.0949823
0
LINE
8
BLACK
6
CONTINUOUS
10
0.222932
20
-0.0949823
11
0.229852
21
-0.0767358
0
LINE
8
BLACK
6
CONTINUOUS
10
0.229852
20
-0.0767358
11
0.235281
21
-0.0579916
0
LINE
8
BLACK
6
CONTINUOUS
10
0.235281
20
-0.0579916
11
0.239184
21
-0.0388713
0
LINE
8
BLACK
6
CONTINUOUS
10
0.239184
20
-0.0388713
11
0.241537
21
-0.0194989
0
LINE
8
BLACK
6
CONTINUOUS
10
0.241537
20
-0.0194989
11
0.242323
21
0
0
LINE
8
BLACK
6
CONTINUOUS
10
0.242323
20
0
11
0.241537
21
0.0194989
0
LINE
8
BLACK
6
CONTINUOUS
10
0.241537
20
0.0194989
11
0.239184
21
0.0388713
0
LINE
8
BLACK
6
CONTINUOUS
10
0.239184
20
0.0388713
11
0.235281
21
0.0579916
0
LINE
8
BLACK
6
CONTINUOUS
10
0.235281
20
0.0579916
11
0.229852
21
0.0767358
0
LINE
8
BLACK
6
CONTINUOUS
10
0.229852
20
0.0767358
11
0.222932
21
0.0949823
0
LINE
8
BLACK
6
CONTINUOUS
10
0.222932
20
0.0949823
11
0.214566
21
0.112613
0
LINE
8
BLACK
6
CONTINUOUS
10
0.214566
20
0.112613
11
0.204809
21
0.129513
0
LINE
8
BLACK
6
CONTINUOUS
10
0.204809
20
0.129513
11
0.193723
21
0.145573
0
LINE
8
BLACK
6
CONTINUOUS
10
0.193723
20
0.145573
11
0.181381
21
0.16069
0
LINE
8
BLACK
6
CONTINUOUS
10
0.181381
20
0.16069
11
0.167863
21
0.174764
0
LINE
8
BLACK
6
CONTINUOUS
10
0.167863
20
0.174764
11
0.153256
21
0.187704
0
LINE
8
BLACK
6
CONTINUOUS
10
0.153256
20
0.187704
11
0.137655
21
0.199428
0
LINE
8
BLACK
6
CONTINUOUS
10
0.137655
20
0.199428
11
0.121161
21
0.209857
0
LINE
8
BLACK
6
CONTINUOUS
10
0.121161
20
0.209857
11
0.103882
21
0.218926
0
LINE
8
BLACK
6
CONTINUOUS
10
0.103882
20
0.218926
11
0.0859287
21
0.226575
0
LINE
8
BLACK
6
CONTINUOUS
10
0.0859287
20
0.226575
11
0.0674183
21
0.232755
0
LINE
8
BLACK
6
CONTINUOUS
10
0.0674183
20
0.232755
11
0.0484707
21
0.237425
0
LINE
8
BLACK
6
CONTINUOUS
10
0.0484707
20
0.237425
11
0.0292087
21
0.240556
0
LINE
8
BLACK
6
CONTINUOUS
10
0.0292087
20
0.240556
11
0.00975736
21
0.242126
0
LINE
8
BLACK
6
CONTINUOUS
10
0.00975736
20
0.242126
11
-0.00975736
21
0.242126
0
LINE
8
BLACK
6
CONTINUOUS
10
-0.00975736
20
0.242126
11
-0.0292087
21
0.240556
0
LINE
8
BLACK
6
CONTINUOUS
10
-0.0292087
20
0.240556
11
-0.0484707
21
0.237425
0
LINE
8
BLACK
6
CONTINUOUS
10
-0.0484707
20
0.237425
11
-0.0674183
21
0.232755
0
LINE
8
BLACK
6
CONTINUOUS
10
-0.0674183
20
0.232755
11
-0.0859287
21
0.226575
0
LINE
8
BLACK
6
CONTINUOUS
10
-0.0859287
20
0.226575
11
-0.103882
21
0.218926
0
LINE
8
BLACK
6
CONTINUOUS
10
-0.103882
20
0.218926
11
-0.121161
21
0.209857
0
LINE
8
BLACK
6
CONTINUOUS
10
-0.121161
20
0.209857
11
-0.137655
21
0.199428
0
LINE
8
BLACK
6
CONTINUOUS
10
-0.137655
20
0.199428
11
-0.153256
21
0.187704
0
LINE
8
BLACK
6
CONTINUOUS
10
-0.153256
20
0.187704
11
-0.167863
21
0.174764
0
LINE
8
BLACK
6
CONTINUOUS
10
-0.167863
20
0.174764
11
-0.181381
21
0.16069
0
LINE
8
BLACK
6
CONTINUOUS
10
-0.181381
20
0.16069
11
-0.193723
21
0.145573
0
LINE
8
BLACK
6
CONTINUOUS
10
-0.193723
20
0.145573
11
-0.204809
21
0.129513
0
LINE
8
BLACK
6
CONTINUOUS
10
-0.204809
20
0.129513
11
-0.214566
21
0.112613
0
LINE
8
BLACK
6
CONTINUOUS
10
-0.214566
20
0.112613
11
-0.222932
21
0.0949823
0
LINE
8
BLACK
6
CONTINUOUS
10
-0.222932
20
0.0949823
11
-0.229852
21
0.0767358
0
LINE
8
BLACK
6
CONTINUOUS
10
-0.229852
20
0.0767358
11
-0.235281
21
0.0579916
0
LINE
8
BLACK
6
CONTINUOUS
10
-0.235281
20
0.0579916
11
-0.239184
21
0.0388713
0
LINE
8
BLACK
6
CONTINUOUS
10
-0.239184
20
0.0388713
11
-0.241537
21
0.0194989
0
LINE
8
BLACK
6
CONTINUOUS
10
-0.241537
20
0.0194989
11
-0.242323
21
0
0
LINE
8
BLACK
6
CONTINUOUS
10
-0.242323
20
0
11
-0.241537
21
-0.0194989
0
LINE
8
BLACK
6
CONTINUOUS
10
0.00955016
20
1.49527
11
0.00956311
21
1.49528
0
LINE
8
BLACK
6
CONTINUOUS
10
0.00956311
20
1.49528
11
0.08374
21
1.49333
0
LINE
8
BLACK
6
CONTINUOUS
10
0.08374
20
1.49333
11
0.0837652
21
1.49332
0
LINE
8
BLACK
6
CONTINUOUS
10
0.0837652
20
1.49332
11
0.0837915
21
1.49333
0
LINE
8
BLACK
6
CONTINUOUS
10
0.0837915
20
1.49333
11
0.157765
21
1.48751
0
LINE
8
BLACK
6
CONTINUOUS
10
0.157765
20
1.48751
11
0.15779
21
1.4875
0
LINE
8
BLACK
6
CONTINUOUS
10
0.15779
20
1.4875
11
0.157816
21
1.4875
0
LINE
8
BLACK
6
CONTINUOUS
10
0.157816
20
1.4875
11
0.231384
21
1.47782
0
LINE
8
BLACK
6
CONTINUOUS
10
0.231384
20
1.47782
11
0.231408
21
1.4778
0
LINE
8
BLACK
6
CONTINUOUS
10
0.231408
20
1.4778
11
0.231435
21
1.47781
0
LINE
8
BLACK
6
CONTINUOUS
10
0.231435
20
1.47781
11
0.304395
21
1.46429
0
LINE
8
BLACK
6
CONTINUOUS
10
0.304395
20
1.46429
11
0.304406
21
1.46428
0
LINE
8
BLACK
6
CONTINUOUS
10
0.304406
20
1.46428
11
0.30442
21
1.46429
0
LINE
8
BLACK
6
CONTINUOUS
10
0.30442
20
1.46429
11
0.320521
21
1.46086
0
LINE
8
BLACK
6
CONTINUOUS
10
0.320521
20
1.46086
11
0.320533
21
1.46085
0
LINE
8
BLACK
6
CONTINUOUS
10
0.320533
20
1.46085
11
0.320546
21
1.46085
0
LINE
8
BLACK
6
CONTINUOUS
10
0.320546
20
1.46085
11
0.392699
21
1.44353
0
LINE
8
BLACK
6
CONTINUOUS
10
0.392699
20
1.44353
11
0.392721
21
1.44352
0
LINE
8
BLACK
6
CONTINUOUS
10
0.392721
20
1.44352
11
0.392749
21
1.44352
0
LINE
8
BLACK
6
CONTINUOUS
10
0.392749
20
1.44352
11
0.463893
21
1.42244
0
LINE
8
BLACK
6
CONTINUOUS
10
0.463893
20
1.42244
11
0.463915
21
1.42243
0
LINE
8
BLACK
6
CONTINUOUS
10
0.463915
20
1.42243
11
0.463942
21
1.42243
0
LINE
8
BLACK
6
CONTINUOUS
10
0.463942
20
1.42243
11
0.533891
21
1.39766
0
LINE
8
BLACK
6
CONTINUOUS
10
0.533891
20
1.39766
11
0.533912
21
1.39764
0
LINE
8
BLACK
6
CONTINUOUS
10
0.533912
20
1.39764
11
0.533939
21
1.39764
0
LINE
8
BLACK
6
CONTINUOUS
10
0.533939
20
1.39764
11
0.602494
21
1.36924
0
LINE
8
BLACK
6
CONTINUOUS
10
0.602494
20
1.36924
11
0.602504
21
1.36923
0
LINE
8
BLACK
6
CONTINUOUS
10
0.602504
20
1.36923
11
0.602518
21
1.36923
0
LINE
8
BLACK
6
CONTINUOUS
10
0.602518
20
1.36923
11
0.617553
21
1.36254
0
LINE
8
BLACK
6
CONTINUOUS
10
0.617553
20
1.36254
11
0.617563
21
1.36253
0
LINE
8
BLACK
6
CONTINUOUS
10
0.617563
20
1.36253
11
0.617577
21
1.36253
0
LINE
8
BLACK
6
CONTINUOUS
10
0.617577
20
1.36253
11
0.684553
21
1.33059
0
LINE
8
BLACK
6
CONTINUOUS
10
0.684553
20
1.33059
11
0.684572
21
1.33056
0
LINE
8
BLACK
6
CONTINUOUS
10
0.684572
20
1.33056
11
0.684599
21
1.33056
0
LINE
8
BLACK
6
CONTINUOUS
10
0.684599
20
1.33056
11
0.704694
21
1.31965
0
LINE
8
BLACK
6
CONTINUOUS
10
0.704694
20
1.31965
11
0.706709
21
1.31855
0
LINE
8
BLACK
6
CONTINUOUS
10
0.706709
20
1.31855
11
0.706709
21
1.31855
0
LINE
8
BLACK
6
CONTINUOUS
10
0.706709
20
1.31855
11
0.712748
21
1.31527
0
LINE
8
BLACK
6
CONTINUOUS
10
0.712748
20
1.31527
11
0.712748
21
1.31527
0
LINE
8
BLACK
6
CONTINUOUS
10
0.712748
20
1.31527
11
0.7228
21
1.30982
0
LINE
8
BLACK
6
CONTINUOUS
10
0.7228
20
1.30982
11
0.7228
21
1.30982
0
LINE
8
BLACK
6
CONTINUOUS
10
0.7228
20
1.30982
11
0.7228
21
1.30982
0
LINE
8
BLACK
6
CONTINUOUS
10
0.7228
20
1.30982
11
0.736827
21
1.3022
0
LINE
8
BLACK
6
CONTINUOUS
10
0.736827
20
1.3022
11
0.736827
21
1.3022
0
LINE
8
BLACK
6
CONTINUOUS
10
0.736827
20
1.3022
11
0.749808
21
1.29516
0
LINE
8
BLACK
6
CONTINUOUS
10
0.749808
20
1.29516
11
0.749825
21
1.29513
0
LINE
8
BLACK
6
CONTINUOUS
10
0.749825
20
1.29513
11
0.749852
21
1.29513
0
LINE
8
BLACK
6
CONTINUOUS
10
0.749852
20
1.29513
11
0.754419
21
1.29233
0
LINE
8
BLACK
6
CONTINUOUS
10
0.754419
20
1.29233
11
0.774435
21
1.28007
0
LINE
8
BLACK
6
CONTINUOUS
10
0.774435
20
1.28007
11
0.774435
21
1.28007
0
LINE
8
BLACK
6
CONTINUOUS
10
0.774435
20
1.28007
11
0.774435
21
1.28007
0
LINE
8
BLACK
6
CONTINUOUS
10
0.774435
20
1.28007
11
0.782144
21
1.27534
0
LINE
8
BLACK
6
CONTINUOUS
10
0.782144
20
1.27534
11
0.782168
21
1.27531
0
LINE
8
BLACK
6
CONTINUOUS
10
0.782168
20
1.27531
11
0.782208
21
1.2753
0
LINE
8
BLACK
6
CONTINUOUS
10
0.782208
20
1.2753
11
0.795527
21
1.26562
0
LINE
8
BLACK
6
CONTINUOUS
10
0.795527
20
1.26562
11
0.795583
21
1.26553
0
LINE
8
BLACK
6
CONTINUOUS
10
0.795583
20
1.26553
11
0.79568
21
1.26549
0
LINE
8
BLACK
6
CONTINUOUS
10
0.79568
20
1.26549
11
0.806692
21
1.25325
0
LINE
8
BLACK
6
CONTINUOUS
10
0.806692
20
1.25325
11
0.806727
21
1.25315
0
LINE
8
BLACK
6
CONTINUOUS
10
0.806727
20
1.25315
11
0.806813
21
1.25309
0
LINE
8
BLACK
6
CONTINUOUS
10
0.806813
20
1.25309
11
0.815045
21
1.23883
0
LINE
8
BLACK
6
CONTINUOUS
10
0.815045
20
1.23883
11
0.815059
21
1.23872
0
LINE
8
BLACK
6
CONTINUOUS
10
0.815059
20
1.23872
11
0.815129
21
1.23864
0
LINE
8
BLACK
6
CONTINUOUS
10
0.815129
20
1.23864
11
0.820215
21
1.22299
0
LINE
8
BLACK
6
CONTINUOUS
10
0.820215
20
1.22299
11
0.820207
21
1.22288
0
LINE
8
BLACK
6
CONTINUOUS
10
0.820207
20
1.22288
11
0.820258
21
1.22278
0
LINE
8
BLACK
6
CONTINUOUS
10
0.820258
20
1.22278
11
0.821978
21
1.20641
0
LINE
8
BLACK
6
CONTINUOUS
10
0.821978
20
1.20641
11
0.821948
21
1.20631
0
LINE
8
BLACK
6
CONTINUOUS
10
0.821948
20
1.20631
11
0.821978
21
1.20621
0
LINE
8
BLACK
6
CONTINUOUS
10
0.821978
20
1.20621
11
0.820258
21
1.18984
0
LINE
8
BLACK
6
CONTINUOUS
10
0.820258
20
1.18984
11
0.820207
21
1.18974
0
LINE
8
BLACK
6
CONTINUOUS
10
0.820207
20
1.18974
11
0.820215
21
1.18964
0
LINE
8
BLACK
6
CONTINUOUS
10
0.820215
20
1.18964
11
0.815129
21
1.17398
0
LINE
8
BLACK
6
CONTINUOUS
10
0.815129
20
1.17398
11
0.815059
21
1.1739
0
LINE
8
BLACK
6
CONTINUOUS
10
0.815059
20
1.1739
11
0.815045
21
1.17379
0
LINE
8
BLACK
6
CONTINUOUS
10
0.815045
20
1.17379
11
0.806813
21
1.15954
0
LINE
8
BLACK
6
CONTINUOUS
10
0.806813
20
1.15954
11
0.806801
21
1.15953
0
LINE
8
BLACK
6
CONTINUOUS
10
0.806801
20
1.15953
11
0.806799
21
1.15951
0
LINE
8
BLACK
6
CONTINUOUS
10
0.806799
20
1.15951
11
0.797594
21
1.14451
0
LINE
8
BLACK
6
CONTINUOUS
10
0.797594
20
1.14451
11
0.797594
21
1.14451
0
LINE
8
BLACK
6
CONTINUOUS
10
0.797594
20
1.14451
11
0.797594
21
1.14451
0
LINE
8
BLACK
6
CONTINUOUS
10
0.797594
20
1.14451
11
0.78189
21
1.11891
0
LINE
8
BLACK
6
CONTINUOUS
10
0.78189
20
1.11891
11
0.78189
21
1.11891
0
LINE
8
BLACK
6
CONTINUOUS
10
0.78189
20
1.11891
11
0.764224
21
1.09012
0
LINE
8
BLACK
6
CONTINUOUS
10
0.764224
20
1.09012
11
0.764224
21
1.09012
0
LINE
8
BLACK
6
CONTINUOUS
10
0.764224
20
1.09012
11
0.764224
21
1.09012
0
LINE
8
BLACK
6
CONTINUOUS
10
0.764224
20
1.09012
11
0.744641
21
1.05821
0
LINE
8
BLACK
6
CONTINUOUS
10
0.744641
20
1.05821
11
0.744641
21
1.05821
0
LINE
8
BLACK
6
CONTINUOUS
10
0.744641
20
1.05821
11
0.723201
21
1.02326
0
LINE
8
BLACK
6
CONTINUOUS
10
0.723201
20
1.02326
11
0.723201
21
1.02326
0
LINE
8
BLACK
6
CONTINUOUS
10
0.723201
20
1.02326
11
0.699961
21
0.985379
0
LINE
8
BLACK
6
CONTINUOUS
10
0.699961
20
0.985379
11
0.699961
21
0.985379
0
LINE
8
BLACK
6
CONTINUOUS
10
0.699961
20
0.985379
11
0.67498
21
0.944663
0
LINE
8
BLACK
6
CONTINUOUS
10
0.67498
20
0.944663
11
0.67498
21
0.944663
0
LINE
8
BLACK
6
CONTINUOUS
10
0.67498
20
0.944663
11
0.648331
21
0.901226
0
LINE
8
BLACK
6
CONTINUOUS
10
0.648331
20
0.901226
11
0.648331
21
0.901226
0
LINE
8
BLACK
6
CONTINUOUS
10
0.648331
20
0.901226
11
0.648331
21
0.901226
0
LINE
8
BLACK
6
CONTINUOUS
10
0.648331
20
0.901226
11
0.633913
21
0.87773
0
LINE
8
BLACK
6
CONTINUOUS
10
0.633913
20
0.87773
11
0.633837
21
0.877674
0
LINE
8
BLACK
6
CONTINUOUS
10
0.633837
20
0.877674
11
0.633806
21
0.877586
0
LINE
8
BLACK
6
CONTINUOUS
10
0.633806
20
0.877586
11
0.62279
21
0.865353
0
LINE
8
BLACK
6
CONTINUOUS
10
0.62279
20
0.865353
11
0.622693
21
0.865307
0
LINE
8
BLACK
6
CONTINUOUS
10
0.622693
20
0.865307
11
0.622637
21
0.865216
0
LINE
8
BLACK
6
CONTINUOUS
10
0.622637
20
0.865216
11
0.609318
21
0.855539
0
LINE
8
BLACK
6
CONTINUOUS
10
0.609318
20
0.855539
11
0.609214
21
0.855514
0
LINE
8
BLACK
6
CONTINUOUS
10
0.609214
20
0.855514
11
0.60914
21
0.855436
0
LINE
8
BLACK
6
CONTINUOUS
10
0.60914
20
0.855436
11
0.594105
21
0.848739
0
LINE
8
BLACK
6
CONTINUOUS
10
0.594105
20
0.848739
11
0.593997
21
0.848736
0
LINE
8
BLACK
6
CONTINUOUS
10
0.593997
20
0.848736
11
0.593909
21
0.848675
0
LINE
8
BLACK
6
CONTINUOUS
10
0.593909
20
0.848675
11
0.577806
21
0.845254
0
LINE
8
BLACK
6
CONTINUOUS
10
0.577806
20
0.845254
11
0.577701
21
0.845274
0
LINE
8
BLACK
6
CONTINUOUS
10
0.577701
20
0.845274
11
0.577602
21
0.845233
0
LINE
8
BLACK
6
CONTINUOUS
10
0.577602
20
0.845233
11
0.561141
21
0.845233
0
LINE
8
BLACK
6
CONTINUOUS
10
0.561141
20
0.845233
11
0.561042
21
0.845274
0
LINE
8
BLACK
6
CONTINUOUS
10
0.561042
20
0.845274
11
0.560937
21
0.845254
0
LINE
8
BLACK
6
CONTINUOUS
10
0.560937
20
0.845254
11
0.544834
21
0.848675
0
LINE
8
BLACK
6
CONTINUOUS
10
0.544834
20
0.848675
11
0.544746
21
0.848736
0
LINE
8
BLACK
6
CONTINUOUS
10
0.544746
20
0.848736
11
0.544639
21
0.848739
0
LINE
8
BLACK
6
CONTINUOUS
10
0.544639
20
0.848739
11
0.529599
21
0.855436
0
LINE
8
BLACK
6
CONTINUOUS
10
0.529599
20
0.855436
11
0.529552
21
0.855485
0
LINE
8
BLACK
6
CONTINUOUS
10
0.529552
20
0.855485
11
0.529485
21
0.855496
0
LINE
8
BLACK
6
CONTINUOUS
10
0.529485
20
0.855496
11
0.504751
21
0.870652
0
LINE
8
BLACK
6
CONTINUOUS
10
0.504751
20
0.870652
11
0.4548
21
0.897773
0
LINE
8
BLACK
6
CONTINUOUS
10
0.4548
20
0.897773
11
0.410934
21
0.918699
0
LINE
8
BLACK
6
CONTINUOUS
10
0.410934
20
0.918699
11
0.366029
21
0.937298
0
LINE
8
BLACK
6
CONTINUOUS
10
0.366029
20
0.937298
11
0.312453
21
0.956268
0
LINE
8
BLACK
6
CONTINUOUS
10
0.312453
20
0.956268
11
0.257957
21
0.972411
0
LINE
8
BLACK
6
CONTINUOUS
10
0.257957
20
0.972411
11
0.210696
21
0.983758
0
LINE
8
BLACK
6
CONTINUOUS
10
0.210696
20
0.983758
11
0.162906
21
0.992618
0
LINE
8
BLACK
6
CONTINUOUS
10
0.162906
20
0.992618
11
0.106556
21
1.00004
0
LINE
8
BLACK
6
CONTINUOUS
10
0.106556
20
1.00004
11
0.0498935
21
1.00449
0
LINE
8
BLACK
6
CONTINUOUS
10
0.0498935
20
1.00449
11
0.00130646
21
1.00577
0
LINE
8
BLACK
6
CONTINUOUS
10
0.00130646
20
1.00577
11
-0.04728
21
1.00449
0
LINE
8
BLACK
6
CONTINUOUS
10
-0.04728
20
1.00449
11
-0.103942
21
1.00004
0
LINE
8
BLACK
6
CONTINUOUS
10
-0.103942
20
1.00004
11
-0.160292
21
0.992618
0
LINE
8
BLACK
6
CONTINUOUS
10
-0.160292
20
0.992618
11
-0.208082
21
0.983758
0
LINE
8
BLACK
6
CONTINUOUS
10
-0.208082
20
0.983758
11
-0.255343
21
0.972411
0
LINE
8
BLACK
6
CONTINUOUS
10
-0.255343
20
0.972411
11
-0.309839
21
0.956269
0
LINE
8
BLACK
6
CONTINUOUS
10
-0.309839
20
0.956269
11
-0.363415
21
0.937298
0
LINE
8
BLACK
6
CONTINUOUS
10
-0.363415
20
0.937298
11
-0.40832
21
0.918699
0
LINE
8
BLACK
6
CONTINUOUS
10
-0.40832
20
0.918699
11
-0.452187
21
0.897773
0
LINE
8
BLACK
6
CONTINUOUS
10
-0.452187
20
0.897773
11
-0.502138
21
0.870652
0
LINE
8
BLACK
6
CONTINUOUS
10
-0.502138
20
0.870652
11
-0.550598
21
0.840958
0
LINE
8
BLACK
6
CONTINUOUS
10
-0.550598
20
0.840958
11
-0.590654
21
0.813428
0
LINE
8
BLACK
6
CONTINUOUS
10
-0.590654
20
0.813428
11
-0.629215
21
0.783837
0
LINE
8
BLACK
6
CONTINUOUS
10
-0.629215
20
0.783837
11
-0.672432
21
0.746926
0
LINE
8
BLACK
6
CONTINUOUS
10
-0.672432
20
0.746926
11
-0.713662
21
0.707804
0
LINE
8
BLACK
6
CONTINUOUS
10
-0.713662
20
0.707804
11
-0.747119
21
0.672546
0
LINE
8
BLACK
6
CONTINUOUS
10
-0.747119
20
0.672546
11
-0.778684
21
0.63559
0
LINE
8
BLACK
6
CONTINUOUS
10
-0.778684
20
0.63559
11
-0.813282
21
0.590496
0
LINE
8
BLACK
6
CONTINUOUS
10
-0.813282
20
0.590496
11
-0.829717
21
0.566588
0
LINE
8
BLACK
6
CONTINUOUS
10
-0.829717
20
0.566588
11
-0.829774
21
0.566551
0
LINE
8
BLACK
6
CONTINUOUS
10
-0.829774
20
0.566551
11
-0.829796
21
0.566487
0
LINE
8
BLACK
6
CONTINUOUS
10
-0.829796
20
0.566487
11
-0.840808
21
0.554255
0
LINE
8
BLACK
6
CONTINUOUS
10
-0.840808
20
0.554255
11
-0.840905
21
0.554209
0
LINE
8
BLACK
6
CONTINUOUS
10
-0.840905
20
0.554209
11
-0.840961
21
0.554117
0
LINE
8
BLACK
6
CONTINUOUS
10
-0.840961
20
0.554117
11
-0.85428
21
0.54444
0
LINE
8
BLACK
6
CONTINUOUS
10
-0.85428
20
0.54444
11
-0.854384
21
0.544415
0
LINE
8
BLACK
6
CONTINUOUS
10
-0.854384
20
0.544415
11
-0.854458
21
0.544337
0
LINE
8
BLACK
6
CONTINUOUS
10
-0.854458
20
0.544337
11
-0.869498
21
0.537644
0
LINE
8
BLACK
6
CONTINUOUS
10
-0.869498
20
0.537644
11
-0.869605
21
0.537642
0
LINE
8
BLACK
6
CONTINUOUS
10
-0.869605
20
0.537642
11
-0.869693
21
0.537581
0
LINE
8
BLACK
6
CONTINUOUS
10
-0.869693
20
0.537581
11
-0.885791
21
0.534156
0
LINE
8
BLACK
6
CONTINUOUS
10
-0.885791
20
0.534156
11
-0.885897
21
0.534175
0
LINE
8
BLACK
6
CONTINUOUS
10
-0.885897
20
0.534175
11
-0.885996
21
0.534134
0
LINE
8
BLACK
6
CONTINUOUS
10
-0.885996
20
0.534134
11
-0.902461
21
0.534134
0
LINE
8
BLACK
6
CONTINUOUS
10
-0.902461
20
0.534134
11
-0.90256
21
0.534175
0
LINE
8
BLACK
6
CONTINUOUS
10
-0.90256
20
0.534175
11
-0.902666
21
0.534156
0
LINE
8
BLACK
6
CONTINUOUS
10
-0.902666
20
0.534156
11
-0.918764
21
0.537581
0
LINE
8
BLACK
6
CONTINUOUS
10
-0.918764
20
0.537581
11
-0.918852
21
0.537642
0
LINE
8
BLACK
6
CONTINUOUS
10
-0.918852
20
0.537642
11
-0.918959
21
0.537644
0
LINE
8
BLACK
6
CONTINUOUS
10
-0.918959
20
0.537644
11
-0.933999
21
0.544337
0
LINE
8
BLACK
6
CONTINUOUS
10
-0.933999
20
0.544337
11
-0.934064
21
0.544405
0
LINE
8
BLACK
6
CONTINUOUS
10
-0.934064
20
0.544405
11
-0.934156
21
0.544425
0
LINE
8
BLACK
6
CONTINUOUS
10
-0.934156
20
0.544425
11
-0.956884
21
0.560027
0
LINE
8
BLACK
6
CONTINUOUS
10
-0.956884
20
0.560027
11
-0.956884
21
0.560027
0
LINE
8
BLACK
6
CONTINUOUS
10
-0.956884
20
0.560027
11
-0.998896
21
0.58887
0
LINE
8
BLACK
6
CONTINUOUS
10
-0.998896
20
0.58887
11
-1.03828
21
0.615905
0
LINE
8
BLACK
6
CONTINUOUS
10
-1.03828
20
0.615905
11
-1.03828
21
0.615905
0
LINE
8
BLACK
6
CONTINUOUS
10
-1.03828
20
0.615905
11
-1.07492
21
0.641059
0
LINE
8
BLACK
6
CONTINUOUS
10
-1.07492
20
0.641059
11
-1.07492
21
0.641059
0
LINE
8
BLACK
6
CONTINUOUS
10
-1.07492
20
0.641059
11
-1.10872
21
0.66426
0
LINE
8
BLACK
6
CONTINUOUS
10
-1.10872
20
0.66426
11
-1.10872
21
0.66426
0
LINE
8
BLACK
6
CONTINUOUS
10
-1.10872
20
0.66426
11
-1.13959
21
0.685453
0
LINE
8
BLACK
6
CONTINUOUS
10
-1.13959
20
0.685453
11
-1.13959
21
0.685453
0
LINE
8
BLACK
6
CONTINUOUS
10
-1.13959
20
0.685453
11
-1.16744
21
0.704571
0
LINE
8
BLACK
6
CONTINUOUS
10
-1.16744
20
0.704571
11
-1.19219
21
0.721563
0
LINE
8
BLACK
6
CONTINUOUS
10
-1.19219
20
0.721563
11
-1.19219
21
0.721563
0
LINE
8
BLACK
6
CONTINUOUS
10
-1.19219
20
0.721563
11
-1.19219
21
0.721563
0
LINE
8
BLACK
6
CONTINUOUS
10
-1.19219
20
0.721563
11
-1.20671
21
0.731527
0
LINE
8
BLACK
6
CONTINUOUS
10
-1.20671
20
0.731527
11
-1.20672
21
0.731539
0
LINE
8
BLACK
6
CONTINUOUS
10
-1.20672
20
0.731539
11
-1.20673
21
0.731543
0
LINE
8
BLACK
6
CONTINUOUS
10
-1.20673
20
0.731543
11
-1.22005
21
0.74122
0
LINE
8
BLACK
6
CONTINUOUS
10
-1.22005
20
0.74122
11
-1.2201
21
0.741311
0
LINE
8
BLACK
6
CONTINUOUS
10
-1.2201
20
0.741311
11
-1.2202
21
0.741357
0
LINE
8
BLACK
6
CONTINUOUS
10
-1.2202
20
0.741357
11
-1.23122
21
0.75359
0
LINE
8
BLACK
6
CONTINUOUS
10
-1.23122
20
0.75359
11
-1.23125
21
0.753691
0
LINE
8
BLACK
6
CONTINUOUS
10
-1.23125
20
0.753691
11
-1.23134
21
0.753756
0
LINE
8
BLACK
6
CONTINUOUS
10
-1.23134
20
0.753756
11
-1.23957
21
0.768012
0
LINE
8
BLACK
6
CONTINUOUS
10
-1.23957
20
0.768012
11
-1.23958
21
0.768118
0
LINE
8
BLACK
6
CONTINUOUS
10
-1.23958
20
0.768118
11
-1.23965
21
0.7682
0
LINE
8
BLACK
6
CONTINUOUS
10
-1.23965
20
0.7682
11
-1.24474
21
0.783858
0
LINE
8
BLACK
6
CONTINUOUS
10
-1.24474
20
0.783858
11
-1.24473
21
0.783964
0
LINE
8
BLACK
6
CONTINUOUS
10
-1.24473
20
0.783964
11
-1.24478
21
0.784059
0
LINE
8
BLACK
6
CONTINUOUS
10
-1.24478
20
0.784059
11
-1.2465
21
0.800429
0
LINE
8
BLACK
6
CONTINUOUS
10
-1.2465
20
0.800429
11
-1.24647
21
0.800532
0
LINE
8
BLACK
6
CONTINUOUS
10
-1.24647
20
0.800532
11
-1.2465
21
0.800635
0
LINE
8
BLACK
6
CONTINUOUS
10
-1.2465
20
0.800635
11
-1.24478
21
0.817005
0
LINE
8
BLACK
6
CONTINUOUS
10
-1.24478
20
0.817005
11
-1.24473
21
0.817099
0
LINE
8
BLACK
6
CONTINUOUS
10
-1.24473
20
0.817099
11
-1.24474
21
0.817206
0
LINE
8
BLACK
6
CONTINUOUS
10
-1.24474
20
0.817206
11
-1.23965
21
0.832863
0
LINE
8
BLACK
6
CONTINUOUS
10
-1.23965
20
0.832863
11
-1.23958
21
0.832945
0
LINE
8
BLACK
6
CONTINUOUS
10
-1.23958
20
0.832945
11
-1.23957
21
0.833051
0
LINE
8
BLACK
6
CONTINUOUS
10
-1.23957
20
0.833051
11
-1.23134
21
0.847307
0
LINE
8
BLACK
6
CONTINUOUS
10
-1.23134
20
0.847307
11
-1.2313
21
0.847332
0
LINE
8
BLACK
6
CONTINUOUS
10
-1.2313
20
0.847332
11
-1.2313
21
0.847373
0
LINE
8
BLACK
6
CONTINUOUS
10
-1.2313
20
0.847373
11
-1.22617
21
0.854825
0
LINE
8
BLACK
6
CONTINUOUS
10
-1.22617
20
0.854825
11
-1.22617
21
0.854825
0
LINE
8
BLACK
6
CONTINUOUS
10
-1.22617
20
0.854825
11
-1.22617
21
0.854825
0
LINE
8
BLACK
6
CONTINUOUS
10
-1.22617
20
0.854825
11
-1.21288
21
0.874168
0
LINE
8
BLACK
6
CONTINUOUS
10
-1.21288
20
0.874168
11
-1.21288
21
0.874168
0
LINE
8
BLACK
6
CONTINUOUS
10
-1.21288
20
0.874168
11
-1.21288
21
0.874168
0
LINE
8
BLACK
6
CONTINUOUS
10
-1.21288
20
0.874168
11
-1.20984
21
0.878582
0
LINE
8
BLACK
6
CONTINUOUS
10
-1.20984
20
0.878582
11
-1.20982
21
0.878596
0
LINE
8
BLACK
6
CONTINUOUS
10
-1.20982
20
0.878596
11
-1.20981
21
0.878623
0
LINE
8
BLACK
6
CONTINUOUS
10
-1.20981
20
0.878623
11
-1.20082
21
0.890343
0
LINE
8
BLACK
6
CONTINUOUS
10
-1.20082
20
0.890343
11
-1.20082
21
0.890343
0
LINE
8
BLACK
6
CONTINUOUS
10
-1.20082
20
0.890343
11
-1.1911
21
0.903009
0
LINE
8
BLACK
6
CONTINUOUS
10
-1.1911
20
0.903009
11
-1.1911
21
0.903009
0
LINE
8
BLACK
6
CONTINUOUS
10
-1.1911
20
0.903009
11
-1.1911
21
0.903009
0
LINE
8
BLACK
6
CONTINUOUS
10
-1.1911
20
0.903009
11
-1.18414
21
0.91208
0
LINE
8
BLACK
6
CONTINUOUS
10
-1.18414
20
0.91208
11
-1.18414
21
0.91208
0
LINE
8
BLACK
6
CONTINUOUS
10
-1.18414
20
0.91208
11
-1.17996
21
0.917532
0
LINE
8
BLACK
6
CONTINUOUS
10
-1.17996
20
0.917532
11
-1.17996
21
0.917532
0
LINE
8
BLACK
6
CONTINUOUS
10
-1.17996
20
0.917532
11
-1.17996
21
0.917533
0
LINE
8
BLACK
6
CONTINUOUS
10
-1.17996
20
0.917533
11
-1.17856
21
0.919351
0
LINE
8
BLACK
6
CONTINUOUS
10
-1.17856
20
0.919351
11
-1.17856
21
0.919351
0
LINE
8
BLACK
6
CONTINUOUS
10
-1.17856
20
0.919351
11
-1.16464
21
0.937493
0
LINE
8
BLACK
6
CONTINUOUS
10
-1.16464
20
0.937493
11
-1.16462
21
0.937507
0
LINE
8
BLACK
6
CONTINUOUS
10
-1.16462
20
0.937507
11
-1.16461
21
0.937533
0
LINE
8
BLACK
6
CONTINUOUS
10
-1.16461
20
0.937533
11
-1.11642
21
0.993958
0
LINE
8
BLACK
6
CONTINUOUS
10
-1.11642
20
0.993958
11
-1.11641
21
0.993964
0
LINE
8
BLACK
6
CONTINUOUS
10
-1.11641
20
0.993964
11
-1.1164
21
0.993978
0
LINE
8
BLACK
6
CONTINUOUS
10
-1.1164
20
0.993978
11
-1.10539
21
1.00621
0
LINE
8
BLACK
6
CONTINUOUS
10
-1.10539
20
1.00621
11
-1.10538
21
1.00622
0
LINE
8
BLACK
6
CONTINUOUS
10
-1.10538
20
1.00622
11
-1.10537
21
1.00623
0
LINE
8
BLACK
6
CONTINUOUS
10
-1.10537
20
1.00623
11
-1.05429
21
1.06005
0
LINE
8
BLACK
6
CONTINUOUS
10
-1.05429
20
1.06005
11
-1.05427
21
1.06006
0
LINE
8
BLACK
6
CONTINUOUS
10
-1.05427
20
1.06006
11
-1.05426
21
1.06009
0
LINE
8
BLACK
6
CONTINUOUS
10
-1.05426
20
1.06009
11
-1.00043
21
1.11117
0
LINE
8
BLACK
6
CONTINUOUS
10
-1.00043
20
1.11117
11
-1.00041
21
1.11118
0
LINE
8
BLACK
6
CONTINUOUS
10
-1.00041
20
1.11118
11
-1.0004
21
1.1112
0
LINE
8
BLACK
6
CONTINUOUS
10
-1.0004
20
1.1112
11
-0.94397
21
1.15939
0
LINE
8
BLACK
6
CONTINUOUS
10
-0.94397
20
1.15939
11
-0.943944
21
1.1594
0
LINE
8
BLACK
6
CONTINUOUS
10
-0.943944
20
1.1594
11
-0.94393
21
1.15942
0
LINE
8
BLACK
6
CONTINUOUS
10
-0.94393
20
1.15942
11
-0.88506
21
1.2046
0
LINE
8
BLACK
6
CONTINUOUS
10
-0.88506
20
1.2046
11
-0.885047
21
1.2046
0
LINE
8
BLACK
6
CONTINUOUS
10
-0.885047
20
1.2046
11
-0.885039
21
1.20461
0
LINE
8
BLACK
6
CONTINUOUS
10
-0.885039
20
1.20461
11
-0.871724
21
1.21429
0
LINE
8
BLACK
6
CONTINUOUS
10
-0.871724
20
1.21429
11
-0.871711
21
1.21429
0
LINE
8
BLACK
6
CONTINUOUS
10
-0.871711
20
1.21429
11
-0.871703
21
1.2143
0
LINE
8
BLACK
6
CONTINUOUS
10
-0.871703
20
1.2143
11
-0.81055
21
1.25633
0
LINE
8
BLACK
6
CONTINUOUS
10
-0.81055
20
1.25633
11
-0.810523
21
1.25634
0
LINE
8
BLACK
6
CONTINUOUS
10
-0.810523
20
1.25634
11
-0.810507
21
1.25636
0
LINE
8
BLACK
6
CONTINUOUS
10
-0.810507
20
1.25636
11
-0.747239
21
1.29513
0
LINE
8
BLACK
6
CONTINUOUS
10
-0.747239
20
1.29513
11
-0.747212
21
1.29513
0
LINE
8
BLACK
6
CONTINUOUS
10
-0.747212
20
1.29513
11
-0.747194
21
1.29516
0
LINE
8
BLACK
6
CONTINUOUS
10
-0.747194
20
1.29516
11
-0.681986
21
1.33056
0
LINE
8
BLACK
6
CONTINUOUS
10
-0.681986
20
1.33056
11
-0.681958
21
1.33056
0
LINE
8
BLACK
6
CONTINUOUS
10
-0.681958
20
1.33056
11
-0.68194
21
1.33059
0
LINE
8
BLACK
6
CONTINUOUS
10
-0.68194
20
1.33059
11
-0.614963
21
1.36253
0
LINE
8
BLACK
6
CONTINUOUS
10
-0.614963
20
1.36253
11
-0.614949
21
1.36253
0
LINE
8
BLACK
6
CONTINUOUS
10
-0.614949
20
1.36253
11
-0.61494
21
1.36254
0
LINE
8
BLACK
6
CONTINUOUS
10
-0.61494
20
1.36254
11
-0.599904
21
1.36923
0
LINE
8
BLACK
6
CONTINUOUS
10
-0.599904
20
1.36923
11
-0.599891
21
1.36923
0
LINE
8
BLACK
6
CONTINUOUS
10
-0.599891
20
1.36923
11
-0.599881
21
1.36924
0
LINE
8
BLACK
6
CONTINUOUS
10
-0.599881
20
1.36924
11
-0.531326
21
1.39764
0
LINE
8
BLACK
6
CONTINUOUS
10
-0.531326
20
1.39764
11
-0.531298
21
1.39764
0
LINE
8
BLACK
6
CONTINUOUS
10
-0.531298
20
1.39764
11
-0.531278
21
1.39766
0
LINE
8
BLACK
6
CONTINUOUS
10
-0.531278
20
1.39766
11
-0.461329
21
1.42243
0
LINE
8
BLACK
6
CONTINUOUS
10
-0.461329
20
1.42243
11
-0.461301
21
1.42243
0
LINE
8
BLACK
6
CONTINUOUS
10
-0.461301
20
1.42243
11
-0.46128
21
1.42244
0
LINE
8
BLACK
6
CONTINUOUS
10
-0.46128
20
1.42244
11
-0.390135
21
1.44352
0
LINE
8
BLACK
6
CONTINUOUS
10
-0.390135
20
1.44352
11
-0.390107
21
1.44352
0
LINE
8
BLACK
6
CONTINUOUS
10
-0.390107
20
1.44352
11
-0.390085
21
1.44353
0
LINE
8
BLACK
6
CONTINUOUS
10
-0.390085
20
1.44353
11
-0.317933
21
1.46085
0
LINE
8
BLACK
6
CONTINUOUS
10
-0.317933
20
1.46085
11
-0.317919
21
1.46085
0
LINE
8
BLACK
6
CONTINUOUS
10
-0.317919
20
1.46085
11
-0.317908
21
1.46086
0
LINE
8
BLACK
6
CONTINUOUS
10
-0.317908
20
1.46086
11
-0.301807
21
1.46429
0
LINE
8
BLACK
6
CONTINUOUS
10
-0.301807
20
1.46429
11
-0.301793
21
1.46428
0
LINE
8
BLACK
6
CONTINUOUS
10
-0.301793
20
1.46428
11
-0.301781
21
1.46429
0
LINE
8
BLACK
6
CONTINUOUS
10
-0.301781
20
1.46429
11
-0.228821
21
1.47781
0
LINE
8
BLACK
6
CONTINUOUS
10
-0.228821
20
1.47781
11
-0.228794
21
1.4778
0
LINE
8
BLACK
6
CONTINUOUS
10
-0.228794
20
1.4778
11
-0.22877
21
1.47782
0
LINE
8
BLACK
6
CONTINUOUS
10
-0.22877
20
1.47782
11
-0.155203
21
1.4875
0
LINE
8
BLACK
6
CONTINUOUS
10
-0.155203
20
1.4875
11
-0.155176
21
1.4875
0
LINE
8
BLACK
6
CONTINUOUS
10
-0.155176
20
1.4875
11
-0.155152
21
1.48751
0
LINE
8
BLACK
6
CONTINUOUS
10
-0.155152
20
1.48751
11
-0.081178
21
1.49333
0
LINE
8
BLACK
6
CONTINUOUS
10
-0.081178
20
1.49333
11
-0.0811517
21
1.49332
0
LINE
8
BLACK
6
CONTINUOUS
10
-0.0811517
20
1.49332
11
-0.0811265
21
1.49333
0
LINE
8
BLACK
6
CONTINUOUS
10
-0.0811265
20
1.49333
11
-0.00694957
21
1.49528
0
LINE
8
BLACK
6
CONTINUOUS
10
-0.00694957
20
1.49528
11
-0.00693665
21
1.49527
0
LINE
8
BLACK
6
CONTINUOUS
10
-0.00693665
20
1.49527
11
-0.00692382
21
1.49528
0
LINE
8
BLACK
6
CONTINUOUS
10
-0.00692382
20
1.49528
11
0.00953736
21
1.49528
0
LINE
8
BLACK
6
CONTINUOUS
10
0.00953736
20
1.49528
11
0.00955016
21
1.49527
0
LINE
8
BLACK
6
CONTINUOUS
10
-0.00691161
20
1.49331
11
-0.0810488
21
1.49137
0
LINE
8
BLACK
6
CONTINUOUS
10
-0.0810488
20
1.49137
11
-0.154972
21
1.48555
0
LINE
8
BLACK
6
CONTINUOUS
10
-0.154972
20
1.48555
11
-0.228488
21
1.47587
0
LINE
8
BLACK
6
CONTINUOUS
10
-0.228488
20
1.47587
11
-0.30141
21
1.46236
0
LINE
8
BLACK
6
CONTINUOUS
10
-0.30141
20
1.46236
11
-0.317486
21
1.45894
0
LINE
8
BLACK
6
CONTINUOUS
10
-0.317486
20
1.45894
11
-0.389601
21
1.44162
0
LINE
8
BLACK
6
CONTINUOUS
10
-0.389601
20
1.44162
11
-0.460696
21
1.42056
0
LINE
8
BLACK
6
CONTINUOUS
10
-0.460696
20
1.42056
11
-0.530596
21
1.39581
0
LINE
8
BLACK
6
CONTINUOUS
10
-0.530596
20
1.39581
11
-0.599116
21
1.36743
0
LINE
8
BLACK
6
CONTINUOUS
10
-0.599116
20
1.36743
11
-0.614127
21
1.36075
0
LINE
8
BLACK
6
CONTINUOUS
10
-0.614127
20
1.36075
11
-0.681069
21
1.32882
0
LINE
8
BLACK
6
CONTINUOUS
10
-0.681069
20
1.32882
11
-0.746233
21
1.29344
0
LINE
8
BLACK
6
CONTINUOUS
10
-0.746233
20
1.29344
11
-0.809456
21
1.25469
0
LINE
8
BLACK
6
CONTINUOUS
10
-0.809456
20
1.25469
11
-0.870578
21
1.21269
0
LINE
8
BLACK
6
CONTINUOUS
10
-0.870578
20
1.21269
11
-0.883871
21
1.20303
0
LINE
8
BLACK
6
CONTINUOUS
10
-0.883871
20
1.20303
11
-0.942711
21
1.15788
0
LINE
8
BLACK
6
CONTINUOUS
10
-0.942711
20
1.15788
11
-0.999097
21
1.10972
0
LINE
8
BLACK
6
CONTINUOUS
10
-0.999097
20
1.10972
11
-1.05288
21
1.05868
0
LINE
8
BLACK
6
CONTINUOUS
10
-1.05288
20
1.05868
11
-1.10394
21
1.00488
0
LINE
8
BLACK
6
CONTINUOUS
10
-1.10394
20
1.00488
11
-1.11493
21
0.992669
0
LINE
8
BLACK
6
CONTINUOUS
10
-1.11493
20
0.992669
11
-1.1631
21
0.936274
0
LINE
8
BLACK
6
CONTINUOUS
10
-1.1631
20
0.936274
11
-1.177
21
0.918153
0
LINE
8
BLACK
6
CONTINUOUS
10
-1.177
20
0.918153
11
-1.177
21
0.918153
0
LINE
8
BLACK
6
CONTINUOUS
10
-1.177
20
0.918153
11
-1.177
21
0.918152
0
LINE
8
BLACK
6
CONTINUOUS
10
-1.177
20
0.918152
11
-1.1784
21
0.916334
0
LINE
8
BLACK
6
CONTINUOUS
10
-1.1784
20
0.916334
11
-1.1784
21
0.916334
0
LINE
8
BLACK
6
CONTINUOUS
10
-1.1784
20
0.916334
11
-1.18258
21
0.910882
0
LINE
8
BLACK
6
CONTINUOUS
10
-1.18258
20
0.910882
11
-1.18258
21
0.910882
0
LINE
8
BLACK
6
CONTINUOUS
10
-1.18258
20
0.910882
11
-1.18258
21
0.910881
0
LINE
8
BLACK
6
CONTINUOUS
10
-1.18258
20
0.910881
11
-1.18954
21
0.901811
0
LINE
8
BLACK
6
CONTINUOUS
10
-1.18954
20
0.901811
11
-1.18954
21
0.901811
0
LINE
8
BLACK
6
CONTINUOUS
10
-1.18954
20
0.901811
11
-1.19926
21
0.889145
0
LINE
8
BLACK
6
CONTINUOUS
10
-1.19926
20
0.889145
11
-1.19926
21
0.889145
0
LINE
8
BLACK
6
CONTINUOUS
10
-1.19926
20
0.889145
11
-1.19926
21
0.889145
0
LINE
8
BLACK
6
CONTINUOUS
10
-1.19926
20
0.889145
11
-1.20824
21
0.877445
0
LINE
8
BLACK
6
CONTINUOUS
10
-1.20824
20
0.877445
11
-1.21126
21
0.873053
0
LINE
8
BLACK
6
CONTINUOUS
10
-1.21126
20
0.873053
11
-1.21126
21
0.873053
0
LINE
8
BLACK
6
CONTINUOUS
10
-1.21126
20
0.873053
11
-1.22455
21
0.85371
0
LINE
8
BLACK
6
CONTINUOUS
10
-1.22455
20
0.85371
11
-1.22455
21
0.85371
0
LINE
8
BLACK
6
CONTINUOUS
10
-1.22455
20
0.85371
11
-1.22965
21
0.84629
0
LINE
8
BLACK
6
CONTINUOUS
10
-1.22965
20
0.84629
11
-1.23781
21
0.832157
0
LINE
8
BLACK
6
CONTINUOUS
10
-1.23781
20
0.832157
11
-1.24284
21
0.816696
0
LINE
8
BLACK
6
CONTINUOUS
10
-1.24284
20
0.816696
11
-1.24453
21
0.800532
0
LINE
8
BLACK
6
CONTINUOUS
10
-1.24453
20
0.800532
11
-1.24284
21
0.784367
0
LINE
8
BLACK
6
CONTINUOUS
10
-1.24284
20
0.784367
11
-1.23781
21
0.768907
0
LINE
8
BLACK
6
CONTINUOUS
10
-1.23781
20
0.768907
11
-1.22968
21
0.75483
0
LINE
8
BLACK
6
CONTINUOUS
10
-1.22968
20
0.75483
11
-1.21881
21
0.742751
0
LINE
8
BLACK
6
CONTINUOUS
10
-1.21881
20
0.742751
11
-1.20559
21
0.733143
0
LINE
8
BLACK
6
CONTINUOUS
10
-1.20559
20
0.733143
11
-1.19108
21
0.723186
0
LINE
8
BLACK
6
CONTINUOUS
10
-1.19108
20
0.723186
11
-1.19108
21
0.723186
0
LINE
8
BLACK
6
CONTINUOUS
10
-1.19108
20
0.723186
11
-1.16633
21
0.706194
0
LINE
8
BLACK
6
CONTINUOUS
10
-1.16633
20
0.706194
11
-1.16633
21
0.706194
0
LINE
8
BLACK
6
CONTINUOUS
10
-1.16633
20
0.706194
11
-1.13847
21
0.687075
0
LINE
8
BLACK
6
CONTINUOUS
10
-1.13847
20
0.687075
11
-1.13847
21
0.687075
0
LINE
8
BLACK
6
CONTINUOUS
10
-1.13847
20
0.687075
11
-1.1076
21
0.665883
0
LINE
8
BLACK
6
CONTINUOUS
10
-1.1076
20
0.665883
11
-1.1076
21
0.665882
0
LINE
8
BLACK
6
CONTINUOUS
10
-1.1076
20
0.665882
11
-1.07381
21
0.642682
0
LINE
8
BLACK
6
CONTINUOUS
10
-1.07381
20
0.642682
11
-1.03716
21
0.617528
0
LINE
8
BLACK
6
CONTINUOUS
10
-1.03716
20
0.617528
11
-1.03716
21
0.617528
0
LINE
8
BLACK
6
CONTINUOUS
10
-1.03716
20
0.617528
11
-0.997782
21
0.590493
0
LINE
8
BLACK
6
CONTINUOUS
10
-0.997782
20
0.590493
11
-0.997782
21
0.590493
0
LINE
8
BLACK
6
CONTINUOUS
10
-0.997782
20
0.590493
11
-0.95577
21
0.56165
0
LINE
8
BLACK
6
CONTINUOUS
10
-0.95577
20
0.56165
11
-0.95577
21
0.56165
0
LINE
8
BLACK
6
CONTINUOUS
10
-0.95577
20
0.56165
11
-0.933116
21
0.546099
0
LINE
8
BLACK
6
CONTINUOUS
10
-0.933116
20
0.546099
11
-0.918254
21
0.539485
0
LINE
8
BLACK
6
CONTINUOUS
10
-0.918254
20
0.539485
11
-0.902357
21
0.536102
0
LINE
8
BLACK
6
CONTINUOUS
10
-0.902357
20
0.536102
11
-0.8861
21
0.536102
0
LINE
8
BLACK
6
CONTINUOUS
10
-0.8861
20
0.536102
11
-0.870203
21
0.539485
0
LINE
8
BLACK
6
CONTINUOUS
10
-0.870203
20
0.539485
11
-0.855353
21
0.546094
0
LINE
8
BLACK
6
CONTINUOUS
10
-0.855353
20
0.546094
11
-0.842202
21
0.555649
0
LINE
8
BLACK
6
CONTINUOUS
10
-0.842202
20
0.555649
11
-0.831302
21
0.567756
0
LINE
8
BLACK
6
CONTINUOUS
10
-0.831302
20
0.567756
11
-0.81489
21
0.591633
0
LINE
8
BLACK
6
CONTINUOUS
10
-0.81489
20
0.591633
11
-0.814867
21
0.591648
0
LINE
8
BLACK
6
CONTINUOUS
10
-0.814867
20
0.591648
11
-0.81486
21
0.591674
0
LINE
8
BLACK
6
CONTINUOUS
10
-0.81486
20
0.591674
11
-0.78023
21
0.636808
0
LINE
8
BLACK
6
CONTINUOUS
10
-0.78023
20
0.636808
11
-0.780206
21
0.636822
0
LINE
8
BLACK
6
CONTINUOUS
10
-0.780206
20
0.636822
11
-0.780197
21
0.636848
0
LINE
8
BLACK
6
CONTINUOUS
10
-0.780197
20
0.636848
11
-0.748599
21
0.673844
0
LINE
8
BLACK
6
CONTINUOUS
10
-0.748599
20
0.673844
11
-0.748574
21
0.673857
0
LINE
8
BLACK
6
CONTINUOUS
10
-0.748574
20
0.673857
11
-0.748565
21
0.673882
0
LINE
8
BLACK
6
CONTINUOUS
10
-0.748565
20
0.673882
11
-0.715072
21
0.709178
0
LINE
8
BLACK
6
CONTINUOUS
10
-0.715072
20
0.709178
11
-0.715047
21
0.709189
0
LINE
8
BLACK
6
CONTINUOUS
10
-0.715047
20
0.709189
11
-0.715036
21
0.709214
0
LINE
8
BLACK
6
CONTINUOUS
10
-0.715036
20
0.709214
11
-0.673768
21
0.748372
0
LINE
8
BLACK
6
CONTINUOUS
10
-0.673768
20
0.748372
11
-0.673742
21
0.748381
0
LINE
8
BLACK
6
CONTINUOUS
10
-0.673742
20
0.748381
11
-0.67373
21
0.748406
0
LINE
8
BLACK
6
CONTINUOUS
10
-0.67373
20
0.748406
11
-0.630474
21
0.785351
0
LINE
8
BLACK
6
CONTINUOUS
10
-0.630474
20
0.785351
11
-0.630448
21
0.785359
0
LINE
8
BLACK
6
CONTINUOUS
10
-0.630448
20
0.785359
11
-0.630434
21
0.785383
0
LINE
8
BLACK
6
CONTINUOUS
10
-0.630434
20
0.785383
11
-0.591832
21
0.815005
0
LINE
8
BLACK
6
CONTINUOUS
10
-0.591832
20
0.815005
11
-0.591805
21
0.815013
0
LINE
8
BLACK
6
CONTINUOUS
10
-0.591805
20
0.815013
11
-0.59179
21
0.815036
0
LINE
8
BLACK
6
CONTINUOUS
10
-0.59179
20
0.815036
11
-0.551691
21
0.842595
0
LINE
8
BLACK
6
CONTINUOUS
10
-0.551691
20
0.842595
11
-0.551664
21
0.842601
0
LINE
8
BLACK
6
CONTINUOUS
10
-0.551664
20
0.842601
11
-0.551648
21
0.842623
0
LINE
8
BLACK
6
CONTINUOUS
10
-0.551648
20
0.842623
11
-0.503144
21
0.872343
0
LINE
8
BLACK
6
CONTINUOUS
10
-0.503144
20
0.872343
11
-0.503117
21
0.872348
0
LINE
8
BLACK
6
CONTINUOUS
10
-0.503117
20
0.872348
11
-0.5031
21
0.872369
0
LINE
8
BLACK
6
CONTINUOUS
10
-0.5031
20
0.872369
11
-0.453104
21
0.899515
0
LINE
8
BLACK
6
CONTINUOUS
10
-0.453104
20
0.899515
11
-0.453076
21
0.899518
0
LINE
8
BLACK
6
CONTINUOUS
10
-0.453076
20
0.899518
11
-0.453058
21
0.899538
0
LINE
8
BLACK
6
CONTINUOUS
10
-0.453058
20
0.899538
11
-0.409144
21
0.920487
0
LINE
8
BLACK
6
CONTINUOUS
10
-0.409144
20
0.920487
11
-0.409117
21
0.920488
0
LINE
8
BLACK
6
CONTINUOUS
10
-0.409117
20
0.920488
11
-0.409097
21
0.920508
0
LINE
8
BLACK
6
CONTINUOUS
10
-0.409097
20
0.920508
11
-0.364145
21
0.939126
0
LINE
8
BLACK
6
CONTINUOUS
10
-0.364145
20
0.939126
11
-0.364118
21
0.939126
0
LINE
8
BLACK
6
CONTINUOUS
10
-0.364118
20
0.939126
11
-0.364097
21
0.939144
0
LINE
8
BLACK
6
CONTINUOUS
10
-0.364097
20
0.939144
11
-0.310472
21
0.958133
0
LINE
8
BLACK
6
CONTINUOUS
10
-0.310472
20
0.958133
11
-0.310444
21
0.958131
0
LINE
8
BLACK
6
CONTINUOUS
10
-0.310444
20
0.958131
11
-0.310423
21
0.958149
0
LINE
8
BLACK
6
CONTINUOUS
10
-0.310423
20
0.958149
11
-0.255877
21
0.974306
0
LINE
8
BLACK
6
CONTINUOUS
10
-0.255877
20
0.974306
11
-0.25585
21
0.974303
0
LINE
8
BLACK
6
CONTINUOUS
10
-0.25585
20
0.974303
11
-0.255827
21
0.974319
0
LINE
8
BLACK
6
CONTINUOUS
10
-0.255827
20
0.974319
11
-0.208517
21
0.985678
0
LINE
8
BLACK
6
CONTINUOUS
10
-0.208517
20
0.985678
11
-0.20849
21
0.985673
0
LINE
8
BLACK
6
CONTINUOUS
10
-0.20849
20
0.985673
11
-0.208466
21
0.985688
0
LINE
8
BLACK
6
CONTINUOUS
10
-0.208466
20
0.985688
11
-0.160626
21
0.994558
0
LINE
8
BLACK
6
CONTINUOUS
10
-0.160626
20
0.994558
11
-0.160599
21
0.994553
0
LINE
8
BLACK
6
CONTINUOUS
10
-0.160599
20
0.994553
11
-0.160575
21
0.994566
0
LINE
8
BLACK
6
CONTINUOUS
10
-0.160575
20
0.994566
11
-0.104173
21
1.00199
0
LINE
8
BLACK
6
CONTINUOUS
10
-0.104173
20
1.00199
11
-0.104147
21
1.00198
0
LINE
8
BLACK
6
CONTINUOUS
10
-0.104147
20
1.00198
11
-0.104122
21
1.002
0
LINE
8
BLACK
6
CONTINUOUS
10
-0.104122
20
1.002
11
-0.047409
21
1.00646
0
LINE
8
BLACK
6
CONTINUOUS
10
-0.047409
20
1.00646
11
-0.0473828
21
1.00645
0
LINE
8
BLACK
6
CONTINUOUS
10
-0.0473828
20
1.00645
11
-0.0473576
21
1.00646
0
LINE
8
BLACK
6
CONTINUOUS
10
-0.0473576
20
1.00646
11
0.00128067
21
1.00774
0
LINE
8
BLACK
6
CONTINUOUS
10
0.00128067
20
1.00774
11
0.00130646
21
1.00773
0
LINE
8
BLACK
6
CONTINUOUS
10
0.00130646
20
1.00773
11
0.00133224
21
1.00774
0
LINE
8
BLACK
6
CONTINUOUS
10
0.00133224
20
1.00774
11
0.0499712
21
1.00646
0
LINE
8
BLACK
6
CONTINUOUS
10
0.0499712
20
1.00646
11
0.0499963
21
1.00645
0
LINE
8
BLACK
6
CONTINUOUS
10
0.0499963
20
1.00645
11
0.0500225
21
1.00646
0
LINE
8
BLACK
6
CONTINUOUS
10
0.0500225
20
1.00646
11
0.106736
21
1.002
0
LINE
8
BLACK
6
CONTINUOUS
10
0.106736
20
1.002
11
0.10676
21
1.00198
0
LINE
8
BLACK
6
CONTINUOUS
10
0.10676
20
1.00198
11
0.106787
21
1.00199
0
LINE
8
BLACK
6
CONTINUOUS
10
0.106787
20
1.00199
11
0.163188
21
0.994566
0
LINE
8
BLACK
6
CONTINUOUS
10
0.163188
20
0.994566
11
0.163212
21
0.994553
0
LINE
8
BLACK
6
CONTINUOUS
10
0.163212
20
0.994553
11
0.163239
21
0.994558
0
LINE
8
BLACK
6
CONTINUOUS
10
0.163239
20
0.994558
11
0.21108
21
0.985688
0
LINE
8
BLACK
6
CONTINUOUS
10
0.21108
20
0.985688
11
0.211103
21
0.985673
0
LINE
8
BLACK
6
CONTINUOUS
10
0.211103
20
0.985673
11
0.211131
21
0.985678
0
LINE
8
BLACK
6
CONTINUOUS
10
0.211131
20
0.985678
11
0.258441
21
0.974319
0
LINE
8
BLACK
6
CONTINUOUS
10
0.258441
20
0.974319
11
0.258463
21
0.974303
0
LINE
8
BLACK
6
CONTINUOUS
10
0.258463
20
0.974303
11
0.258491
21
0.974306
0
LINE
8
BLACK
6
CONTINUOUS
10
0.258491
20
0.974306
11
0.313036
21
0.958149
0
LINE
8
BLACK
6
CONTINUOUS
10
0.313036
20
0.958149
11
0.313058
21
0.958131
0
LINE
8
BLACK
6
CONTINUOUS
10
0.313058
20
0.958131
11
0.313085
21
0.958133
0
LINE
8
BLACK
6
CONTINUOUS
10
0.313085
20
0.958133
11
0.366711
21
0.939144
0
LINE
8
BLACK
6
CONTINUOUS
10
0.366711
20
0.939144
11
0.366731
21
0.939126
0
LINE
8
BLACK
6
CONTINUOUS
10
0.366731
20
0.939126
11
0.366759
21
0.939126
0
LINE
8
BLACK
6
CONTINUOUS
10
0.366759
20
0.939126
11
0.411711
21
0.920508
0
LINE
8
BLACK
6
CONTINUOUS
10
0.411711
20
0.920508
11
0.41173
21
0.920488
0
LINE
8
BLACK
6
CONTINUOUS
10
0.41173
20
0.920488
11
0.411758
21
0.920487
0
LINE
8
BLACK
6
CONTINUOUS
10
0.411758
20
0.920487
11
0.455671
21
0.899538
0
LINE
8
BLACK
6
CONTINUOUS
10
0.455671
20
0.899538
11
0.45569
21
0.899518
0
LINE
8
BLACK
6
CONTINUOUS
10
0.45569
20
0.899518
11
0.455717
21
0.899515
0
LINE
8
BLACK
6
CONTINUOUS
10
0.455717
20
0.899515
11
0.505713
21
0.872369
0
LINE
8
BLACK
6
CONTINUOUS
10
0.505713
20
0.872369
11
0.505731
21
0.872348
0
LINE
8
BLACK
6
CONTINUOUS
10
0.505731
20
0.872348
11
0.505758
21
0.872343
0
LINE
8
BLACK
6
CONTINUOUS
10
0.505758
20
0.872343
11
0.530459
21
0.857208
0
LINE
8
BLACK
6
CONTINUOUS
10
0.530459
20
0.857208
11
0.545345
21
0.850579
0
LINE
8
BLACK
6
CONTINUOUS
10
0.545345
20
0.850579
11
0.561245
21
0.847201
0
LINE
8
BLACK
6
CONTINUOUS
10
0.561245
20
0.847201
11
0.577499
21
0.847201
0
LINE
8
BLACK
6
CONTINUOUS
10
0.577499
20
0.847201
11
0.593398
21
0.850579
0
LINE
8
BLACK
6
CONTINUOUS
10
0.593398
20
0.850579
11
0.608245
21
0.857192
0
LINE
8
BLACK
6
CONTINUOUS
10
0.608245
20
0.857192
11
0.621396
21
0.866747
0
LINE
8
BLACK
6
CONTINUOUS
10
0.621396
20
0.866747
11
0.632283
21
0.878836
0
LINE
8
BLACK
6
CONTINUOUS
10
0.632283
20
0.878836
11
0.646653
21
0.902255
0
LINE
8
BLACK
6
CONTINUOUS
10
0.646653
20
0.902255
11
0.646653
21
0.902255
0
LINE
8
BLACK
6
CONTINUOUS
10
0.646653
20
0.902255
11
0.673302
21
0.945692
0
LINE
8
BLACK
6
CONTINUOUS
10
0.673302
20
0.945692
11
0.673302
21
0.945692
0
LINE
8
BLACK
6
CONTINUOUS
10
0.673302
20
0.945692
11
0.698283
21
0.986409
0
LINE
8
BLACK
6
CONTINUOUS
10
0.698283
20
0.986409
11
0.698283
21
0.986409
0
LINE
8
BLACK
6
CONTINUOUS
10
0.698283
20
0.986409
11
0.721523
21
1.02429
0
LINE
8
BLACK
6
CONTINUOUS
10
0.721523
20
1.02429
11
0.721523
21
1.02429
0
LINE
8
BLACK
6
CONTINUOUS
10
0.721523
20
1.02429
11
0.742964
21
1.05924
0
LINE
8
BLACK
6
CONTINUOUS
10
0.742964
20
1.05924
11
0.742964
21
1.05924
0
LINE
8
BLACK
6
CONTINUOUS
10
0.742964
20
1.05924
11
0.742964
21
1.05924
0
LINE
8
BLACK
6
CONTINUOUS
10
0.742964
20
1.05924
11
0.762546
21
1.09115
0
LINE
8
BLACK
6
CONTINUOUS
10
0.762546
20
1.09115
11
0.762546
21
1.09115
0
LINE
8
BLACK
6
CONTINUOUS
10
0.762546
20
1.09115
11
0.780212
21
1.11994
0
LINE
8
BLACK
6
CONTINUOUS
10
0.780212
20
1.11994
11
0.780212
21
1.11994
0
LINE
8
BLACK
6
CONTINUOUS
10
0.780212
20
1.11994
11
0.795917
21
1.14553
0
LINE
8
BLACK
6
CONTINUOUS
10
0.795917
20
1.14553
11
0.795917
21
1.14553
0
LINE
8
BLACK
6
CONTINUOUS
10
0.795917
20
1.14553
11
0.805114
21
1.16053
0
LINE
8
BLACK
6
CONTINUOUS
10
0.805114
20
1.16053
11
0.813288
21
1.17469
0
LINE
8
BLACK
6
CONTINUOUS
10
0.813288
20
1.17469
11
0.818311
21
1.19015
0
LINE
8
BLACK
6
CONTINUOUS
10
0.818311
20
1.19015
11
0.82001
21
1.20631
0
LINE
8
BLACK
6
CONTINUOUS
10
0.82001
20
1.20631
11
0.818311
21
1.22248
0
LINE
8
BLACK
6
CONTINUOUS
10
0.818311
20
1.22248
11
0.813288
21
1.23794
0
LINE
8
BLACK
6
CONTINUOUS
10
0.813288
20
1.23794
11
0.80516
21
1.25201
0
LINE
8
BLACK
6
CONTINUOUS
10
0.80516
20
1.25201
11
0.794286
21
1.26409
0
LINE
8
BLACK
6
CONTINUOUS
10
0.794286
20
1.26409
11
0.781082
21
1.27368
0
LINE
8
BLACK
6
CONTINUOUS
10
0.781082
20
1.27368
11
0.773406
21
1.27839
0
LINE
8
BLACK
6
CONTINUOUS
10
0.773406
20
1.27839
11
0.773406
21
1.27839
0
LINE
8
BLACK
6
CONTINUOUS
10
0.773406
20
1.27839
11
0.753391
21
1.29065
0
LINE
8
BLACK
6
CONTINUOUS
10
0.753391
20
1.29065
11
0.753391
21
1.29065
0
LINE
8
BLACK
6
CONTINUOUS
10
0.753391
20
1.29065
11
0.753391
21
1.29065
0
LINE
8
BLACK
6
CONTINUOUS
10
0.753391
20
1.29065
11
0.748846
21
1.29344
0
LINE
8
BLACK
6
CONTINUOUS
10
0.748846
20
1.29344
11
0.735888
21
1.30047
0
LINE
8
BLACK
6
CONTINUOUS
10
0.735888
20
1.30047
11
0.735888
21
1.30047
0
LINE
8
BLACK
6
CONTINUOUS
10
0.735888
20
1.30047
11
0.735888
21
1.30047
0
LINE
8
BLACK
6
CONTINUOUS
10
0.735888
20
1.30047
11
0.72186
21
1.30809
0
LINE
8
BLACK
6
CONTINUOUS
10
0.72186
20
1.30809
11
0.71181
21
1.31354
0
LINE
8
BLACK
6
CONTINUOUS
10
0.71181
20
1.31354
11
0.71181
21
1.31354
0
LINE
8
BLACK
6
CONTINUOUS
10
0.71181
20
1.31354
11
0.711809
21
1.31354
0
LINE
8
BLACK
6
CONTINUOUS
10
0.711809
20
1.31354
11
0.70577
21
1.31682
0
LINE
8
BLACK
6
CONTINUOUS
10
0.70577
20
1.31682
11
0.70577
21
1.31682
0
LINE
8
BLACK
6
CONTINUOUS
10
0.70577
20
1.31682
11
0.703754
21
1.31792
0
LINE
8
BLACK
6
CONTINUOUS
10
0.703754
20
1.31792
11
0.703754
21
1.31792
0
LINE
8
BLACK
6
CONTINUOUS
10
0.703754
20
1.31792
11
0.703754
21
1.31792
0
LINE
8
BLACK
6
CONTINUOUS
10
0.703754
20
1.31792
11
0.683683
21
1.32882
0
LINE
8
BLACK
6
CONTINUOUS
10
0.683683
20
1.32882
11
0.616741
21
1.36075
0
LINE
8
BLACK
6
CONTINUOUS
10
0.616741
20
1.36075
11
0.601729
21
1.36743
0
LINE
8
BLACK
6
CONTINUOUS
10
0.601729
20
1.36743
11
0.533209
21
1.39581
0
LINE
8
BLACK
6
CONTINUOUS
10
0.533209
20
1.39581
11
0.46331
21
1.42056
0
LINE
8
BLACK
6
CONTINUOUS
10
0.46331
20
1.42056
11
0.392214
21
1.44162
0
LINE
8
BLACK
6
CONTINUOUS
10
0.392214
20
1.44162
11
0.3201
21
1.45894
0
LINE
8
BLACK
6
CONTINUOUS
10
0.3201
20
1.45894
11
0.304024
21
1.46236
0
LINE
8
BLACK
6
CONTINUOUS
10
0.304024
20
1.46236
11
0.231101
21
1.47587
0
LINE
8
BLACK
6
CONTINUOUS
10
0.231101
20
1.47587
11
0.157585
21
1.48555
0
LINE
8
BLACK
6
CONTINUOUS
10
0.157585
20
1.48555
11
0.0836623
21
1.49137
0
LINE
8
BLACK
6
CONTINUOUS
10
0.0836623
20
1.49137
11
0.00952516
21
1.49331
0
LINE
8
BLACK
6
CONTINUOUS
10
0.00952516
20
1.49331
11
-0.00691161
21
1.49331
0
LINE
8
BLACK
6
CONTINUOUS
10
0.0837515
20
1.57229
11
0.0837766
21
1.57228
0
LINE
8
BLACK
6
CONTINUOUS
10
0.0837766
20
1.57228
11
0.0838029
21
1.57229
0
LINE
8
BLACK
6
CONTINUOUS
10
0.0838029
20
1.57229
11
0.165996
21
1.56582
0
LINE
8
BLACK
6
CONTINUOUS
10
0.165996
20
1.56582
11
0.16602
21
1.56581
0
LINE
8
BLACK
6
CONTINUOUS
10
0.16602
20
1.56581
11
0.166047
21
1.56581
0
LINE
8
BLACK
6
CONTINUOUS
10
0.166047
20
1.56581
11
0.247789
21
1.55505
0
LINE
8
BLACK
6
CONTINUOUS
10
0.247789
20
1.55505
11
0.247813
21
1.55504
0
LINE
8
BLACK
6
CONTINUOUS
10
0.247813
20
1.55504
11
0.24784
21
1.55504
0
LINE
8
BLACK
6
CONTINUOUS
10
0.24784
20
1.55504
11
0.328906
21
1.54002
0
LINE
8
BLACK
6
CONTINUOUS
10
0.328906
20
1.54002
11
0.328929
21
1.54
0
LINE
8
BLACK
6
CONTINUOUS
10
0.328929
20
1.54
11
0.328957
21
1.54001
0
LINE
8
BLACK
6
CONTINUOUS
10
0.328957
20
1.54001
11
0.409127
21
1.52076
0
LINE
8
BLACK
6
CONTINUOUS
10
0.409127
20
1.52076
11
0.409149
21
1.52074
0
LINE
8
BLACK
6
CONTINUOUS
10
0.409149
20
1.52074
11
0.409177
21
1.52075
0
LINE
8
BLACK
6
CONTINUOUS
10
0.409177
20
1.52075
11
0.488228
21
1.49733
0
LINE
8
BLACK
6
CONTINUOUS
10
0.488228
20
1.49733
11
0.488249
21
1.49732
0
LINE
8
BLACK
6
CONTINUOUS
10
0.488249
20
1.49732
11
0.488277
21
1.49732
0
LINE
8
BLACK
6
CONTINUOUS
10
0.488277
20
1.49732
11
0.565994
21
1.46979
0
LINE
8
BLACK
6
CONTINUOUS
10
0.565994
20
1.46979
11
0.566014
21
1.46978
0
LINE
8
BLACK
6
CONTINUOUS
10
0.566014
20
1.46978
11
0.566042
21
1.46978
0
LINE
8
BLACK
6
CONTINUOUS
10
0.566042
20
1.46978
11
0.642215
21
1.43822
0
LINE
8
BLACK
6
CONTINUOUS
10
0.642215
20
1.43822
11
0.642234
21
1.4382
0
LINE
8
BLACK
6
CONTINUOUS
10
0.642234
20
1.4382
11
0.642262
21
1.4382
0
LINE
8
BLACK
6
CONTINUOUS
10
0.642262
20
1.4382
11
0.716675
21
1.40271
0
LINE
8
BLACK
6
CONTINUOUS
10
0.716675
20
1.40271
11
0.716694
21
1.40269
0
LINE
8
BLACK
6
CONTINUOUS
10
0.716694
20
1.40269
11
0.716721
21
1.40269
0
LINE
8
BLACK
6
CONTINUOUS
10
0.716721
20
1.40269
11
0.789178
21
1.36335
0
LINE
8
BLACK
6
CONTINUOUS
10
0.789178
20
1.36335
11
0.789195
21
1.36332
0
LINE
8
BLACK
6
CONTINUOUS
10
0.789195
20
1.36332
11
0.789222
21
1.36332
0
LINE
8
BLACK
6
CONTINUOUS
10
0.789222
20
1.36332
11
0.859522
21
1.32024
0
LINE
8
BLACK
6
CONTINUOUS
10
0.859522
20
1.32024
11
0.859538
21
1.32022
0
LINE
8
BLACK
6
CONTINUOUS
10
0.859538
20
1.32022
11
0.859565
21
1.32021
0
LINE
8
BLACK
6
CONTINUOUS
10
0.859565
20
1.32021
11
0.92751
21
1.27352
0
LINE
8
BLACK
6
CONTINUOUS
10
0.92751
20
1.27352
11
0.927525
21
1.27349
0
LINE
8
BLACK
6
CONTINUOUS
10
0.927525
20
1.27349
11
0.927551
21
1.27349
0
LINE
8
BLACK
6
CONTINUOUS
10
0.927551
20
1.27349
11
0.992961
21
1.22329
0
LINE
8
BLACK
6
CONTINUOUS
10
0.992961
20
1.22329
11
0.992974
21
1.22327
0
LINE
8
BLACK
6
CONTINUOUS
10
0.992974
20
1.22327
11
0.993001
21
1.22326
0
LINE
8
BLACK
6
CONTINUOUS
10
0.993001
20
1.22326
11
1.05569
21
1.16972
0
LINE
8
BLACK
6
CONTINUOUS
10
1.05569
20
1.16972
11
1.05571
21
1.16969
0
LINE
8
BLACK
6
CONTINUOUS
10
1.05571
20
1.16969
11
1.05573
21
1.16968
0
LINE
8
BLACK
6
CONTINUOUS
10
1.05573
20
1.16968
11
1.11554
21
1.11293
0
LINE
8
BLACK
6
CONTINUOUS
10
1.11554
20
1.11293
11
1.11555
21
1.11291
0
LINE
8
BLACK
6
CONTINUOUS
10
1.11555
20
1.11291
11
1.11558
21
1.11289
0
LINE
8
BLACK
6
CONTINUOUS
10
1.11558
20
1.11289
11
1.17233
21
1.05309
0
LINE
8
BLACK
6
CONTINUOUS
10
1.17233
20
1.05309
11
1.17234
21
1.05306
0
LINE
8
BLACK
6
CONTINUOUS
10
1.17234
20
1.05306
11
1.17236
21
1.05305
0
LINE
8
BLACK
6
CONTINUOUS
10
1.17236
20
1.05305
11
1.22591
21
0.990356
0
LINE
8
BLACK
6
CONTINUOUS
10
1.22591
20
0.990356
11
1.22591
21
0.99033
0
LINE
8
BLACK
6
CONTINUOUS
10
1.22591
20
0.99033
11
1.22594
21
0.990316
0
LINE
8
BLACK
6
CONTINUOUS
10
1.22594
20
0.990316
11
1.27613
21
0.924906
0
LINE
8
BLACK
6
CONTINUOUS
10
1.27613
20
0.924906
11
1.27614
21
0.92488
0
LINE
8
BLACK
6
CONTINUOUS
10
1.27614
20
0.92488
11
1.27616
21
0.924865
0
LINE
8
BLACK
6
CONTINUOUS
10
1.27616
20
0.924865
11
1.32286
21
0.85692
0
LINE
8
BLACK
6
CONTINUOUS
10
1.32286
20
0.85692
11
1.32286
21
0.856893
0
LINE
8
BLACK
6
CONTINUOUS
10
1.32286
20
0.856893
11
1.32289
21
0.856877
0
LINE
8
BLACK
6
CONTINUOUS
10
1.32289
20
0.856877
11
1.36596
21
0.786577
0
LINE
8
BLACK
6
CONTINUOUS
10
1.36596
20
0.786577
11
1.36597
21
0.78655
0
LINE
8
BLACK
6
CONTINUOUS
10
1.36597
20
0.78655
11
1.36599
21
0.786533
0
LINE
8
BLACK
6
CONTINUOUS
10
1.36599
20
0.786533
11
1.40533
21
0.714076
0
LINE
8
BLACK
6
CONTINUOUS
10
1.40533
20
0.714076
11
1.40534
21
0.714049
0
LINE
8
BLACK
6
CONTINUOUS
10
1.40534
20
0.714049
11
1.40536
21
0.71403
0
LINE
8
BLACK
6
CONTINUOUS
10
1.40536
20
0.71403
11
1.44085
21
0.639617
0
LINE
8
BLACK
6
CONTINUOUS
10
1.44085
20
0.639617
11
1.44085
21
0.639589
0
LINE
8
BLACK
6
CONTINUOUS
10
1.44085
20
0.639589
11
1.44087
21
0.63957
0
LINE
8
BLACK
6
CONTINUOUS
10
1.44087
20
0.63957
11
1.47242
21
0.563396
0
LINE
8
BLACK
6
CONTINUOUS
10
1.47242
20
0.563396
11
1.47242
21
0.563369
0
LINE
8
BLACK
6
CONTINUOUS
10
1.47242
20
0.563369
11
1.47244
21
0.563348
0
LINE
8
BLACK
6
CONTINUOUS
10
1.47244
20
0.563348
11
1.49996
21
0.485632
0
LINE
8
BLACK
6
CONTINUOUS
10
1.49996
20
0.485632
11
1.49996
21
0.485604
0
LINE
8
BLACK
6
CONTINUOUS
10
1.49996
20
0.485604
11
1.49998
21
0.485583
0
LINE
8
BLACK
6
CONTINUOUS
10
1.49998
20
0.485583
11
1.52339
21
0.406532
0
LINE
8
BLACK
6
CONTINUOUS
10
1.52339
20
0.406532
11
1.52339
21
0.406504
0
LINE
8
BLACK
6
CONTINUOUS
10
1.52339
20
0.406504
11
1.52341
21
0.406482
0
LINE
8
BLACK
6
CONTINUOUS
10
1.52341
20
0.406482
11
1.54265
21
0.326312
0
LINE
8
BLACK
6
CONTINUOUS
10
1.54265
20
0.326312
11
1.54265
21
0.326284
0
LINE
8
BLACK
6
CONTINUOUS
10
1.54265
20
0.326284
11
1.54266
21
0.326261
0
LINE
8
BLACK
6
CONTINUOUS
10
1.54266
20
0.326261
11
1.55769
21
0.245195
0
LINE
8
BLACK
6
CONTINUOUS
10
1.55769
20
0.245195
11
1.55768
21
0.245168
0
LINE
8
BLACK
6
CONTINUOUS
10
1.55768
20
0.245168
11
1.5577
21
0.245144
0
LINE
8
BLACK
6
CONTINUOUS
10
1.5577
20
0.245144
11
1.56846
21
0.163402
0
LINE
8
BLACK
6
CONTINUOUS
10
1.56846
20
0.163402
11
1.56845
21
0.163375
0
LINE
8
BLACK
6
CONTINUOUS
10
1.56845
20
0.163375
11
1.56846
21
0.163351
0
LINE
8
BLACK
6
CONTINUOUS
10
1.56846
20
0.163351
11
1.57493
21
0.0811579
0
LINE
8
BLACK
6
CONTINUOUS
10
1.57493
20
0.0811579
11
1.57492
21
0.0811316
0
LINE
8
BLACK
6
CONTINUOUS
10
1.57492
20
0.0811316
11
1.57494
21
0.0811064
0
LINE
8
BLACK
6
CONTINUOUS
10
1.57494
20
0.0811064
11
1.57709
21
-0.00131252
0
LINE
8
BLACK
6
CONTINUOUS
10
1.57709
20
-0.00131252
11
1.57708
21
-0.00133827
0
LINE
8
BLACK
6
CONTINUOUS
10
1.57708
20
-0.00133827
11
1.57709
21
-0.00136402
0
LINE
8
BLACK
6
CONTINUOUS
10
1.57709
20
-0.00136402
11
1.57494
21
-0.083783
0
LINE
8
BLACK
6
CONTINUOUS
10
1.57494
20
-0.083783
11
1.57492
21
-0.0838081
0
LINE
8
BLACK
6
CONTINUOUS
10
1.57492
20
-0.0838081
11
1.57493
21
-0.0838344
0
LINE
8
BLACK
6
CONTINUOUS
10
1.57493
20
-0.0838344
11
1.56846
21
-0.166027
0
LINE
8
BLACK
6
CONTINUOUS
10
1.56846
20
-0.166027
11
1.56845
21
-0.166052
0
LINE
8
BLACK
6
CONTINUOUS
10
1.56845
20
-0.166052
11
1.56846
21
-0.166079
0
LINE
8
BLACK
6
CONTINUOUS
10
1.56846
20
-0.166079
11
1.5577
21
-0.24782
0
LINE
8
BLACK
6
CONTINUOUS
10
1.5577
20
-0.24782
11
1.55768
21
-0.247844
0
LINE
8
BLACK
6
CONTINUOUS
10
1.55768
20
-0.247844
11
1.55769
21
-0.247871
0
LINE
8
BLACK
6
CONTINUOUS
10
1.55769
20
-0.247871
11
1.54266
21
-0.328938
0
LINE
8
BLACK
6
CONTINUOUS
10
1.54266
20
-0.328938
11
1.54265
21
-0.328961
0
LINE
8
BLACK
6
CONTINUOUS
10
1.54265
20
-0.328961
11
1.54265
21
-0.328988
0
LINE
8
BLACK
6
CONTINUOUS
10
1.54265
20
-0.328988
11
1.52341
21
-0.409159
0
LINE
8
BLACK
6
CONTINUOUS
10
1.52341
20
-0.409159
11
1.52339
21
-0.409181
0
LINE
8
BLACK
6
CONTINUOUS
10
1.52339
20
-0.409181
11
1.52339
21
-0.409208
0
LINE
8
BLACK
6
CONTINUOUS
10
1.52339
20
-0.409208
11
1.49998
21
-0.488259
0
LINE
8
BLACK
6
CONTINUOUS
10
1.49998
20
-0.488259
11
1.49996
21
-0.488281
0
LINE
8
BLACK
6
CONTINUOUS
10
1.49996
20
-0.488281
11
1.49996
21
-0.488309
0
LINE
8
BLACK
6
CONTINUOUS
10
1.49996
20
-0.488309
11
1.47244
21
-0.566025
0
LINE
8
BLACK
6
CONTINUOUS
10
1.47244
20
-0.566025
11
1.47242
21
-0.566046
0
LINE
8
BLACK
6
CONTINUOUS
10
1.47242
20
-0.566046
11
1.47242
21
-0.566073
0
LINE
8
BLACK
6
CONTINUOUS
10
1.47242
20
-0.566073
11
1.44087
21
-0.642246
0
LINE
8
BLACK
6
CONTINUOUS
10
1.44087
20
-0.642246
11
1.44085
21
-0.642266
0
LINE
8
BLACK
6
CONTINUOUS
10
1.44085
20
-0.642266
11
1.44085
21
-0.642293
0
LINE
8
BLACK
6
CONTINUOUS
10
1.44085
20
-0.642293
11
1.40536
21
-0.716707
0
LINE
8
BLACK
6
CONTINUOUS
10
1.40536
20
-0.716707
11
1.40534
21
-0.716725
0
LINE
8
BLACK
6
CONTINUOUS
10
1.40534
20
-0.716725
11
1.40533
21
-0.716753
0
LINE
8
BLACK
6
CONTINUOUS
10
1.40533
20
-0.716753
11
1.36599
21
-0.789209
0
LINE
8
BLACK
6
CONTINUOUS
10
1.36599
20
-0.789209
11
1.36597
21
-0.789227
0
LINE
8
BLACK
6
CONTINUOUS
10
1.36597
20
-0.789227
11
1.36596
21
-0.789254
0
LINE
8
BLACK
6
CONTINUOUS
10
1.36596
20
-0.789254
11
1.32289
21
-0.859553
0
LINE
8
BLACK
6
CONTINUOUS
10
1.32289
20
-0.859553
11
1.32286
21
-0.859569
0
LINE
8
BLACK
6
CONTINUOUS
10
1.32286
20
-0.859569
11
1.32286
21
-0.859596
0
LINE
8
BLACK
6
CONTINUOUS
10
1.32286
20
-0.859596
11
1.27616
21
-0.927541
0
LINE
8
BLACK
6
CONTINUOUS
10
1.27616
20
-0.927541
11
1.27614
21
-0.927556
0
LINE
8
BLACK
6
CONTINUOUS
10
1.27614
20
-0.927556
11
1.27613
21
-0.927583
0
LINE
8
BLACK
6
CONTINUOUS
10
1.27613
20
-0.927583
11
1.22594
21
-0.992992
0
LINE
8
BLACK
6
CONTINUOUS
10
1.22594
20
-0.992992
11
1.22591
21
-0.993006
0
LINE
8
BLACK
6
CONTINUOUS
10
1.22591
20
-0.993006
11
1.22591
21
-0.993032
0
LINE
8
BLACK
6
CONTINUOUS
10
1.22591
20
-0.993032
11
1.17236
21
-1.05573
0
LINE
8
BLACK
6
CONTINUOUS
10
1.17236
20
-1.05573
11
1.17234
21
-1.05574
0
LINE
8
BLACK
6
CONTINUOUS
10
1.17234
20
-1.05574
11
1.17233
21
-1.05576
0
LINE
8
BLACK
6
CONTINUOUS
10
1.17233
20
-1.05576
11
1.11558
21
-1.11557
0
LINE
8
BLACK
6
CONTINUOUS
10
1.11558
20
-1.11557
11
1.11555
21
-1.11558
0
LINE
8
BLACK
6
CONTINUOUS
10
1.11555
20
-1.11558
11
1.11554
21
-1.11561
0
LINE
8
BLACK
6
CONTINUOUS
10
1.11554
20
-1.11561
11
1.05573
21
-1.17236
0
LINE
8
BLACK
6
CONTINUOUS
10
1.05573
20
-1.17236
11
1.05571
21
-1.17237
0
LINE
8
BLACK
6
CONTINUOUS
10
1.05571
20
-1.17237
11
1.05569
21
-1.17239
0
LINE
8
BLACK
6
CONTINUOUS
10
1.05569
20
-1.17239
11
0.993001
21
-1.22594
0
LINE
8
BLACK
6
CONTINUOUS
10
0.993001
20
-1.22594
11
0.992974
21
-1.22595
0
LINE
8
BLACK
6
CONTINUOUS
10
0.992974
20
-1.22595
11
0.992961
21
-1.22597
0
LINE
8
BLACK
6
CONTINUOUS
10
0.992961
20
-1.22597
11
0.927551
21
-1.27616
0
LINE
8
BLACK
6
CONTINUOUS
10
0.927551
20
-1.27616
11
0.927525
21
-1.27617
0
LINE
8
BLACK
6
CONTINUOUS
10
0.927525
20
-1.27617
11
0.92751
21
-1.27619
0
LINE
8
BLACK
6
CONTINUOUS
10
0.92751
20
-1.27619
11
0.859565
21
-1.32289
0
LINE
8
BLACK
6
CONTINUOUS
10
0.859565
20
-1.32289
11
0.859538
21
-1.32289
0
LINE
8
BLACK
6
CONTINUOUS
10
0.859538
20
-1.32289
11
0.859522
21
-1.32292
0
LINE
8
BLACK
6
CONTINUOUS
10
0.859522
20
-1.32292
11
0.789222
21
-1.366
0
LINE
8
BLACK
6
CONTINUOUS
10
0.789222
20
-1.366
11
0.789195
21
-1.366
0
LINE
8
BLACK
6
CONTINUOUS
10
0.789195
20
-1.366
11
0.789178
21
-1.36602
0
LINE
8
BLACK
6
CONTINUOUS
10
0.789178
20
-1.36602
11
0.716721
21
-1.40536
0
LINE
8
BLACK
6
CONTINUOUS
10
0.716721
20
-1.40536
11
0.716694
21
-1.40537
0
LINE
8
BLACK
6
CONTINUOUS
10
0.716694
20
-1.40537
11
0.716675
21
-1.40539
0
LINE
8
BLACK
6
CONTINUOUS
10
0.716675
20
-1.40539
11
0.642262
21
-1.44088
0
LINE
8
BLACK
6
CONTINUOUS
10
0.642262
20
-1.44088
11
0.642234
21
-1.44088
0
LINE
8
BLACK
6
CONTINUOUS
10
0.642234
20
-1.44088
11
0.642215
21
-1.4409
0
LINE
8
BLACK
6
CONTINUOUS
10
0.642215
20
-1.4409
11
0.566042
21
-1.47245
0
LINE
8
BLACK
6
CONTINUOUS
10
0.566042
20
-1.47245
11
0.566014
21
-1.47245
0
LINE
8
BLACK
6
CONTINUOUS
10
0.566014
20
-1.47245
11
0.565994
21
-1.47247
0
LINE
8
BLACK
6
CONTINUOUS
10
0.565994
20
-1.47247
11
0.488277
21
-1.49999
0
LINE
8
BLACK
6
CONTINUOUS
10
0.488277
20
-1.49999
11
0.488249
21
-1.49999
0
LINE
8
BLACK
6
CONTINUOUS
10
0.488249
20
-1.49999
11
0.488228
21
-1.50001
0
LINE
8
BLACK
6
CONTINUOUS
10
0.488228
20
-1.50001
11
0.409177
21
-1.52342
0
LINE
8
BLACK
6
CONTINUOUS
10
0.409177
20
-1.52342
11
0.409149
21
-1.52342
0
LINE
8
BLACK
6
CONTINUOUS
10
0.409149
20
-1.52342
11
0.409127
21
-1.52344
0
LINE
8
BLACK
6
CONTINUOUS
10
0.409127
20
-1.52344
11
0.328957
21
-1.54268
0
LINE
8
BLACK
6
CONTINUOUS
10
0.328957
20
-1.54268
11
0.328929
21
-1.54268
0
LINE
8
BLACK
6
CONTINUOUS
10
0.328929
20
-1.54268
11
0.328906
21
-1.5427
0
LINE
8
BLACK
6
CONTINUOUS
10
0.328906
20
-1.5427
11
0.24784
21
-1.55772
0
LINE
8
BLACK
6
CONTINUOUS
10
0.24784
20
-1.55772
11
0.247813
21
-1.55771
0
LINE
8
BLACK
6
CONTINUOUS
10
0.247813
20
-1.55771
11
0.247789
21
-1.55773
0
LINE
8
BLACK
6
CONTINUOUS
10
0.247789
20
-1.55773
11
0.166047
21
-1.56849
0
LINE
8
BLACK
6
CONTINUOUS
10
0.166047
20
-1.56849
11
0.16602
21
-1.56848
0
LINE
8
BLACK
6
CONTINUOUS
10
0.16602
20
-1.56848
11
0.165996
21
-1.5685
0
LINE
8
BLACK
6
CONTINUOUS
10
0.165996
20
-1.5685
11
0.0838029
21
-1.57497
0
LINE
8
BLACK
6
CONTINUOUS
10
0.0838029
20
-1.57497
11
0.0837766
21
-1.57496
0
LINE
8
BLACK
6
CONTINUOUS
10
0.0837766
20
-1.57496
11
0.0837515
21
-1.57497
0
LINE
8
BLACK
6
CONTINUOUS
10
0.0837515
20
-1.57497
11
0.00133252
21
-1.57712
0
LINE
8
BLACK
6
CONTINUOUS
10
0.00133252
20
-1.57712
11
0.00130673
21
-1.57712
0
LINE
8
BLACK
6
CONTINUOUS
10
0.00130673
20
-1.57712
11
0.00128102
21
-1.57712
0
LINE
8
BLACK
6
CONTINUOUS
10
0.00128102
20
-1.57712
11
-0.0811379
21
-1.57497
0
LINE
8
BLACK
6
CONTINUOUS
10
-0.0811379
20
-1.57497
11
-0.0811631
21
-1.57496
0
LINE
8
BLACK
6
CONTINUOUS
10
-0.0811631
20
-1.57496
11
-0.0811894
21
-1.57497
0
LINE
8
BLACK
6
CONTINUOUS
10
-0.0811894
20
-1.57497
11
-0.163382
21
-1.5685
0
LINE
8
BLACK
6
CONTINUOUS
10
-0.163382
20
-1.5685
11
-0.163407
21
-1.56848
0
LINE
8
BLACK
6
CONTINUOUS
10
-0.163407
20
-1.56848
11
-0.163434
21
-1.56849
0
LINE
8
BLACK
6
CONTINUOUS
10
-0.163434
20
-1.56849
11
-0.245175
21
-1.55773
0
LINE
8
BLACK
6
CONTINUOUS
10
-0.245175
20
-1.55773
11
-0.245199
21
-1.55771
0
LINE
8
BLACK
6
CONTINUOUS
10
-0.245199
20
-1.55771
11
-0.245226
21
-1.55772
0
LINE
8
BLACK
6
CONTINUOUS
10
-0.245226
20
-1.55772
11
-0.326293
21
-1.5427
0
LINE
8
BLACK
6
CONTINUOUS
10
-0.326293
20
-1.5427
11
-0.326316
21
-1.54268
0
LINE
8
BLACK
6
CONTINUOUS
10
-0.326316
20
-1.54268
11
-0.326343
21
-1.54268
0
LINE
8
BLACK
6
CONTINUOUS
10
-0.326343
20
-1.54268
11
-0.406514
21
-1.52344
0
LINE
8
BLACK
6
CONTINUOUS
10
-0.406514
20
-1.52344
11
-0.406536
21
-1.52342
0
LINE
8
BLACK
6
CONTINUOUS
10
-0.406536
20
-1.52342
11
-0.406563
21
-1.52342
0
LINE
8
BLACK
6
CONTINUOUS
10
-0.406563
20
-1.52342
11
-0.485614
21
-1.50001
0
LINE
8
BLACK
6
CONTINUOUS
10
-0.485614
20
-1.50001
11
-0.485636
21
-1.49999
0
LINE
8
BLACK
6
CONTINUOUS
10
-0.485636
20
-1.49999
11
-0.485663
21
-1.49999
0
LINE
8
BLACK
6
CONTINUOUS
10
-0.485663
20
-1.49999
11
-0.56338
21
-1.47247
0
LINE
8
BLACK
6
CONTINUOUS
10
-0.56338
20
-1.47247
11
-0.5634
21
-1.47245
0
LINE
8
BLACK
6
CONTINUOUS
10
-0.5634
20
-1.47245
11
-0.563428
21
-1.47245
0
LINE
8
BLACK
6
CONTINUOUS
10
-0.563428
20
-1.47245
11
-0.639601
21
-1.4409
0
LINE
8
BLACK
6
CONTINUOUS
10
-0.639601
20
-1.4409
11
-0.639621
21
-1.44088
0
LINE
8
BLACK
6
CONTINUOUS
10
-0.639621
20
-1.44088
11
-0.639648
21
-1.44088
0
LINE
8
BLACK
6
CONTINUOUS
10
-0.639648
20
-1.44088
11
-0.714062
21
-1.40539
0
LINE
8
BLACK
6
CONTINUOUS
10
-0.714062
20
-1.40539
11
-0.71408
21
-1.40537
0
LINE
8
BLACK
6
CONTINUOUS
10
-0.71408
20
-1.40537
11
-0.714108
21
-1.40536
0
LINE
8
BLACK
6
CONTINUOUS
10
-0.714108
20
-1.40536
11
-0.786564
21
-1.36602
0
LINE
8
BLACK
6
CONTINUOUS
10
-0.786564
20
-1.36602
11
-0.786582
21
-1.366
0
LINE
8
BLACK
6
CONTINUOUS
10
-0.786582
20
-1.366
11
-0.786609
21
-1.366
0
LINE
8
BLACK
6
CONTINUOUS
10
-0.786609
20
-1.366
11
-0.856908
21
-1.32292
0
LINE
8
BLACK
6
CONTINUOUS
10
-0.856908
20
-1.32292
11
-0.856924
21
-1.32289
0
LINE
8
BLACK
6
CONTINUOUS
10
-0.856924
20
-1.32289
11
-0.856951
21
-1.32289
0
LINE
8
BLACK
6
CONTINUOUS
10
-0.856951
20
-1.32289
11
-0.924896
21
-1.27619
0
LINE
8
BLACK
6
CONTINUOUS
10
-0.924896
20
-1.27619
11
-0.924911
21
-1.27617
0
LINE
8
BLACK
6
CONTINUOUS
10
-0.924911
20
-1.27617
11
-0.924938
21
-1.27616
0
LINE
8
BLACK
6
CONTINUOUS
10
-0.924938
20
-1.27616
11
-0.990347
21
-1.22597
0
LINE
8
BLACK
6
CONTINUOUS
10
-0.990347
20
-1.22597
11
-0.990361
21
-1.22595
0
LINE
8
BLACK
6
CONTINUOUS
10
-0.990361
20
-1.22595
11
-0.990387
21
-1.22594
0
LINE
8
BLACK
6
CONTINUOUS
10
-0.990387
20
-1.22594
11
-1.05308
21
-1.17239
0
LINE
8
BLACK
6
CONTINUOUS
10
-1.05308
20
-1.17239
11
-1.05309
21
-1.17237
0
LINE
8
BLACK
6
CONTINUOUS
10
-1.05309
20
-1.17237
11
-1.05312
21
-1.17236
0
LINE
8
BLACK
6
CONTINUOUS
10
-1.05312
20
-1.17236
11
-1.11293
21
-1.11561
0
LINE
8
BLACK
6
CONTINUOUS
10
-1.11293
20
-1.11561
11
-1.11294
21
-1.11558
0
LINE
8
BLACK
6
CONTINUOUS
10
-1.11294
20
-1.11558
11
-1.11296
21
-1.11557
0
LINE
8
BLACK
6
CONTINUOUS
10
-1.11296
20
-1.11557
11
-1.16971
21
-1.05576
0
LINE
8
BLACK
6
CONTINUOUS
10
-1.16971
20
-1.05576
11
-1.16972
21
-1.05574
0
LINE
8
BLACK
6
CONTINUOUS
10
-1.16972
20
-1.05574
11
-1.16975
21
-1.05573
0
LINE
8
BLACK
6
CONTINUOUS
10
-1.16975
20
-1.05573
11
-1.22329
21
-0.993032
0
LINE
8
BLACK
6
CONTINUOUS
10
-1.22329
20
-0.993032
11
-1.2233
21
-0.993006
0
LINE
8
BLACK
6
CONTINUOUS
10
-1.2233
20
-0.993006
11
-1.22332
21
-0.992992
0
LINE
8
BLACK
6
CONTINUOUS
10
-1.22332
20
-0.992992
11
-1.27352
21
-0.927583
0
LINE
8
BLACK
6
CONTINUOUS
10
-1.27352
20
-0.927583
11
-1.27352
21
-0.927556
0
LINE
8
BLACK
6
CONTINUOUS
10
-1.27352
20
-0.927556
11
-1.27355
21
-0.927541
0
LINE
8
BLACK
6
CONTINUOUS
10
-1.27355
20
-0.927541
11
-1.32024
21
-0.859596
0
LINE
8
BLACK
6
CONTINUOUS
10
-1.32024
20
-0.859596
11
-1.32025
21
-0.859569
0
LINE
8
BLACK
6
CONTINUOUS
10
-1.32025
20
-0.859569
11
-1.32027
21
-0.859553
0
LINE
8
BLACK
6
CONTINUOUS
10
-1.32027
20
-0.859553
11
-1.36335
21
-0.789254
0
LINE
8
BLACK
6
CONTINUOUS
10
-1.36335
20
-0.789254
11
-1.36336
21
-0.789227
0
LINE
8
BLACK
6
CONTINUOUS
10
-1.36336
20
-0.789227
11
-1.36338
21
-0.789209
0
LINE
8
BLACK
6
CONTINUOUS
10
-1.36338
20
-0.789209
11
-1.40272
21
-0.716753
0
LINE
8
BLACK
6
CONTINUOUS
10
-1.40272
20
-0.716753
11
-1.40272
21
-0.716725
0
LINE
8
BLACK
6
CONTINUOUS
10
-1.40272
20
-0.716725
11
-1.40274
21
-0.716707
0
LINE
8
BLACK
6
CONTINUOUS
10
-1.40274
20
-0.716707
11
-1.43823
21
-0.642293
0
LINE
8
BLACK
6
CONTINUOUS
10
-1.43823
20
-0.642293
11
-1.43824
21
-0.642266
0
LINE
8
BLACK
6
CONTINUOUS
10
-1.43824
20
-0.642266
11
-1.43826
21
-0.642246
0
LINE
8
BLACK
6
CONTINUOUS
10
-1.43826
20
-0.642246
11
-1.46981
21
-0.566073
0
LINE
8
BLACK
6
CONTINUOUS
10
-1.46981
20
-0.566073
11
-1.46981
21
-0.566046
0
LINE
8
BLACK
6
CONTINUOUS
10
-1.46981
20
-0.566046
11
-1.46983
21
-0.566025
0
LINE
8
BLACK
6
CONTINUOUS
10
-1.46983
20
-0.566025
11
-1.49735
21
-0.488309
0
LINE
8
BLACK
6
CONTINUOUS
10
-1.49735
20
-0.488309
11
-1.49735
21
-0.488281
0
LINE
8
BLACK
6
CONTINUOUS
10
-1.49735
20
-0.488281
11
-1.49737
21
-0.488259
0
LINE
8
BLACK
6
CONTINUOUS
10
-1.49737
20
-0.488259
11
-1.52078
21
-0.409208
0
LINE
8
BLACK
6
CONTINUOUS
10
-1.52078
20
-0.409208
11
-1.52078
21
-0.409181
0
LINE
8
BLACK
6
CONTINUOUS
10
-1.52078
20
-0.409181
11
-1.52079
21
-0.409159
0
LINE
8
BLACK
6
CONTINUOUS
10
-1.52079
20
-0.409159
11
-1.54004
21
-0.328988
0
LINE
8
BLACK
6
CONTINUOUS
10
-1.54004
20
-0.328988
11
-1.54004
21
-0.328961
0
LINE
8
BLACK
6
CONTINUOUS
10
-1.54004
20
-0.328961
11
-1.54005
21
-0.328938
0
LINE
8
BLACK
6
CONTINUOUS
10
-1.54005
20
-0.328938
11
-1.55507
21
-0.247871
0
LINE
8
BLACK
6
CONTINUOUS
10
-1.55507
20
-0.247871
11
-1.55507
21
-0.247844
0
LINE
8
BLACK
6
CONTINUOUS
10
-1.55507
20
-0.247844
11
-1.55508
21
-0.24782
0
LINE
8
BLACK
6
CONTINUOUS
10
-1.55508
20
-0.24782
11
-1.56585
21
-0.166079
0
LINE
8
BLACK
6
CONTINUOUS
10
-1.56585
20
-0.166079
11
-1.56584
21
-0.166052
0
LINE
8
BLACK
6
CONTINUOUS
10
-1.56584
20
-0.166052
11
-1.56585
21
-0.166027
0
LINE
8
BLACK
6
CONTINUOUS
10
-1.56585
20
-0.166027
11
-1.57232
21
-0.0838344
0
LINE
8
BLACK
6
CONTINUOUS
10
-1.57232
20
-0.0838344
11
-1.57231
21
-0.0838081
0
LINE
8
BLACK
6
CONTINUOUS
10
-1.57231
20
-0.0838081
11
-1.57232
21
-0.083783
0
LINE
8
BLACK
6
CONTINUOUS
10
-1.57232
20
-0.083783
11
-1.57448
21
-0.00136402
0
LINE
8
BLACK
6
CONTINUOUS
10
-1.57448
20
-0.00136402
11
-1.57447
21
-0.00133827
0
LINE
8
BLACK
6
CONTINUOUS
10
-1.57447
20
-0.00133827
11
-1.57448
21
-0.00131252
0
LINE
8
BLACK
6
CONTINUOUS
10
-1.57448
20
-0.00131252
11
-1.57232
21
0.0811064
0
LINE
8
BLACK
6
CONTINUOUS
10
-1.57232
20
0.0811064
11
-1.57231
21
0.0811316
0
LINE
8
BLACK
6
CONTINUOUS
10
-1.57231
20
0.0811316
11
-1.57232
21
0.0811579
0
LINE
8
BLACK
6
CONTINUOUS
10
-1.57232
20
0.0811579
11
-1.56585
21
0.163351
0
LINE
8
BLACK
6
CONTINUOUS
10
-1.56585
20
0.163351
11
-1.56584
21
0.163375
0
LINE
8
BLACK
6
CONTINUOUS
10
-1.56584
20
0.163375
11
-1.56585
21
0.163402
0
LINE
8
BLACK
6
CONTINUOUS
10
-1.56585
20
0.163402
11
-1.55508
21
0.245144
0
LINE
8
BLACK
6
CONTINUOUS
10
-1.55508
20
0.245144
11
-1.55507
21
0.245168
0
LINE
8
BLACK
6
CONTINUOUS
10
-1.55507
20
0.245168
11
-1.55507
21
0.245195
0
LINE
8
BLACK
6
CONTINUOUS
10
-1.55507
20
0.245195
11
-1.54005
21
0.326261
0
LINE
8
BLACK
6
CONTINUOUS
10
-1.54005
20
0.326261
11
-1.54004
21
0.326284
0
LINE
8
BLACK
6
CONTINUOUS
10
-1.54004
20
0.326284
11
-1.54004
21
0.326312
0
LINE
8
BLACK
6
CONTINUOUS
10
-1.54004
20
0.326312
11
-1.52079
21
0.406482
0
LINE
8
BLACK
6
CONTINUOUS
10
-1.52079
20
0.406482
11
-1.52078
21
0.406504
0
LINE
8
BLACK
6
CONTINUOUS
10
-1.52078
20
0.406504
11
-1.52078
21
0.406532
0
LINE
8
BLACK
6
CONTINUOUS
10
-1.52078
20
0.406532
11
-1.49737
21
0.485583
0
LINE
8
BLACK
6
CONTINUOUS
10
-1.49737
20
0.485583
11
-1.49735
21
0.485604
0
LINE
8
BLACK
6
CONTINUOUS
10
-1.49735
20
0.485604
11
-1.49735
21
0.485632
0
LINE
8
BLACK
6
CONTINUOUS
10
-1.49735
20
0.485632
11
-1.46983
21
0.563348
0
LINE
8
BLACK
6
CONTINUOUS
10
-1.46983
20
0.563348
11
-1.46981
21
0.563369
0
LINE
8
BLACK
6
CONTINUOUS
10
-1.46981
20
0.563369
11
-1.46981
21
0.563396
0
LINE
8
BLACK
6
CONTINUOUS
10
-1.46981
20
0.563396
11
-1.43826
21
0.63957
0
LINE
8
BLACK
6
CONTINUOUS
10
-1.43826
20
0.63957
11
-1.43824
21
0.639589
0
LINE
8
BLACK
6
CONTINUOUS
10
-1.43824
20
0.639589
11
-1.43823
21
0.639617
0
LINE
8
BLACK
6
CONTINUOUS
10
-1.43823
20
0.639617
11
-1.40274
21
0.71403
0
LINE
8
BLACK
6
CONTINUOUS
10
-1.40274
20
0.71403
11
-1.40272
21
0.714049
0
LINE
8
BLACK
6
CONTINUOUS
10
-1.40272
20
0.714049
11
-1.40272
21
0.714076
0
LINE
8
BLACK
6
CONTINUOUS
10
-1.40272
20
0.714076
11
-1.36338
21
0.786533
0
LINE
8
BLACK
6
CONTINUOUS
10
-1.36338
20
0.786533
11
-1.36336
21
0.78655
0
LINE
8
BLACK
6
CONTINUOUS
10
-1.36336
20
0.78655
11
-1.36335
21
0.786577
0
LINE
8
BLACK
6
CONTINUOUS
10
-1.36335
20
0.786577
11
-1.32027
21
0.856877
0
LINE
8
BLACK
6
CONTINUOUS
10
-1.32027
20
0.856877
11
-1.32025
21
0.856893
0
LINE
8
BLACK
6
CONTINUOUS
10
-1.32025
20
0.856893
11
-1.32024
21
0.85692
0
LINE
8
BLACK
6
CONTINUOUS
10
-1.32024
20
0.85692
11
-1.27355
21
0.924865
0
LINE
8
BLACK
6
CONTINUOUS
10
-1.27355
20
0.924865
11
-1.27352
21
0.92488
0
LINE
8
BLACK
6
CONTINUOUS
10
-1.27352
20
0.92488
11
-1.27352
21
0.924906
0
LINE
8
BLACK
6
CONTINUOUS
10
-1.27352
20
0.924906
11
-1.22332
21
0.990316
0
LINE
8
BLACK
6
CONTINUOUS
10
-1.22332
20
0.990316
11
-1.2233
21
0.99033
0
LINE
8
BLACK
6
CONTINUOUS
10
-1.2233
20
0.99033
11
-1.22329
21
0.990356
0
LINE
8
BLACK
6
CONTINUOUS
10
-1.22329
20
0.990356
11
-1.16975
21
1.05305
0
LINE
8
BLACK
6
CONTINUOUS
10
-1.16975
20
1.05305
11
-1.16972
21
1.05306
0
LINE
8
BLACK
6
CONTINUOUS
10
-1.16972
20
1.05306
11
-1.16971
21
1.05309
0
LINE
8
BLACK
6
CONTINUOUS
10
-1.16971
20
1.05309
11
-1.11296
21
1.11289
0
LINE
8
BLACK
6
CONTINUOUS
10
-1.11296
20
1.11289
11
-1.11294
21
1.11291
0
LINE
8
BLACK
6
CONTINUOUS
10
-1.11294
20
1.11291
11
-1.11293
21
1.11293
0
LINE
8
BLACK
6
CONTINUOUS
10
-1.11293
20
1.11293
11
-1.05312
21
1.16968
0
LINE
8
BLACK
6
CONTINUOUS
10
-1.05312
20
1.16968
11
-1.05309
21
1.16969
0
LINE
8
BLACK
6
CONTINUOUS
10
-1.05309
20
1.16969
11
-1.05308
21
1.16972
0
LINE
8
BLACK
6
CONTINUOUS
10
-1.05308
20
1.16972
11
-0.990387
21
1.22326
0
LINE
8
BLACK
6
CONTINUOUS
10
-0.990387
20
1.22326
11
-0.990361
21
1.22327
0
LINE
8
BLACK
6
CONTINUOUS
10
-0.990361
20
1.22327
11
-0.990347
21
1.22329
0
LINE
8
BLACK
6
CONTINUOUS
10
-0.990347
20
1.22329
11
-0.924938
21
1.27349
0
LINE
8
BLACK
6
CONTINUOUS
10
-0.924938
20
1.27349
11
-0.924911
21
1.27349
0
LINE
8
BLACK
6
CONTINUOUS
10
-0.924911
20
1.27349
11
-0.924896
21
1.27352
0
LINE
8
BLACK
6
CONTINUOUS
10
-0.924896
20
1.27352
11
-0.856951
21
1.32021
0
LINE
8
BLACK
6
CONTINUOUS
10
-0.856951
20
1.32021
11
-0.856924
21
1.32022
0
LINE
8
BLACK
6
CONTINUOUS
10
-0.856924
20
1.32022
11
-0.856908
21
1.32024
0
LINE
8
BLACK
6
CONTINUOUS
10
-0.856908
20
1.32024
11
-0.786609
21
1.36332
0
LINE
8
BLACK
6
CONTINUOUS
10
-0.786609
20
1.36332
11
-0.786582
21
1.36332
0
LINE
8
BLACK
6
CONTINUOUS
10
-0.786582
20
1.36332
11
-0.786564
21
1.36335
0
LINE
8
BLACK
6
CONTINUOUS
10
-0.786564
20
1.36335
11
-0.714108
21
1.40269
0
LINE
8
BLACK
6
CONTINUOUS
10
-0.714108
20
1.40269
11
-0.71408
21
1.40269
0
LINE
8
BLACK
6
CONTINUOUS
10
-0.71408
20
1.40269
11
-0.714062
21
1.40271
0
LINE
8
BLACK
6
CONTINUOUS
10
-0.714062
20
1.40271
11
-0.639648
21
1.4382
0
LINE
8
BLACK
6
CONTINUOUS
10
-0.639648
20
1.4382
11
-0.639621
21
1.4382
0
LINE
8
BLACK
6
CONTINUOUS
10
-0.639621
20
1.4382
11
-0.639601
21
1.43822
0
LINE
8
BLACK
6
CONTINUOUS
10
-0.639601
20
1.43822
11
-0.563428
21
1.46978
0
LINE
8
BLACK
6
CONTINUOUS
10
-0.563428
20
1.46978
11
-0.5634
21
1.46978
0
LINE
8
BLACK
6
CONTINUOUS
10
-0.5634
20
1.46978
11
-0.56338
21
1.46979
0
LINE
8
BLACK
6
CONTINUOUS
10
-0.56338
20
1.46979
11
-0.485663
21
1.49732
0
LINE
8
BLACK
6
CONTINUOUS
10
-0.485663
20
1.49732
11
-0.485636
21
1.49732
0
LINE
8
BLACK
6
CONTINUOUS
10
-0.485636
20
1.49732
11
-0.485614
21
1.49733
0
LINE
8
BLACK
6
CONTINUOUS
10
-0.485614
20
1.49733
11
-0.406563
21
1.52075
0
LINE
8
BLACK
6
CONTINUOUS
10
-0.406563
20
1.52075
11
-0.406536
21
1.52074
0
LINE
8
BLACK
6
CONTINUOUS
10
-0.406536
20
1.52074
11
-0.406514
21
1.52076
0
LINE
8
BLACK
6
CONTINUOUS
10
-0.406514
20
1.52076
11
-0.326343
21
1.54001
0
LINE
8
BLACK
6
CONTINUOUS
10
-0.326343
20
1.54001
11
-0.326316
21
1.54
0
LINE
8
BLACK
6
CONTINUOUS
10
-0.326316
20
1.54
11
-0.326293
21
1.54002
0
LINE
8
BLACK
6
CONTINUOUS
10
-0.326293
20
1.54002
11
-0.245226
21
1.55504
0
LINE
8
BLACK
6
CONTINUOUS
10
-0.245226
20
1.55504
11
-0.245199
21
1.55504
0
LINE
8
BLACK
6
CONTINUOUS
10
-0.245199
20
1.55504
11
-0.245175
21
1.55505
0
LINE
8
BLACK
6
CONTINUOUS
10
-0.245175
20
1.55505
11
-0.163434
21
1.56581
0
LINE
8
BLACK
6
CONTINUOUS
10
-0.163434
20
1.56581
11
-0.163407
21
1.56581
0
LINE
8
BLACK
6
CONTINUOUS
10
-0.163407
20
1.56581
11
-0.163382
21
1.56582
0
LINE
8
BLACK
6
CONTINUOUS
10
-0.163382
20
1.56582
11
-0.0811894
21
1.57229
0
LINE
8
BLACK
6
CONTINUOUS
10
-0.0811894
20
1.57229
11
-0.0811631
21
1.57228
0
LINE
8
BLACK
6
CONTINUOUS
10
-0.0811631
20
1.57228
11
-0.0811379
21
1.57229
0
LINE
8
BLACK
6
CONTINUOUS
10
-0.0811379
20
1.57229
11
0.00128102
21
1.57445
0
LINE
8
BLACK
6
CONTINUOUS
10
0.00128102
20
1.57445
11
0.00130677
21
1.57444
0
LINE
8
BLACK
6
CONTINUOUS
10
0.00130677
20
1.57444
11
0.00133252
21
1.57445
0
LINE
8
BLACK
6
CONTINUOUS
10
0.00133252
20
1.57445
11
0.0837515
21
1.57229
0
LINE
8
BLACK
6
CONTINUOUS
10
-0.0810603
20
1.57032
11
-0.163202
21
1.56386
0
LINE
8
BLACK
6
CONTINUOUS
10
-0.163202
20
1.56386
11
-0.244892
21
1.5531
0
LINE
8
BLACK
6
CONTINUOUS
10
-0.244892
20
1.5531
11
-0.325908
21
1.53809
0
LINE
8
BLACK
6
CONTINUOUS
10
-0.325908
20
1.53809
11
-0.406029
21
1.51885
0
LINE
8
BLACK
6
CONTINUOUS
10
-0.406029
20
1.51885
11
-0.485031
21
1.49545
0
LINE
8
BLACK
6
CONTINUOUS
10
-0.485031
20
1.49545
11
-0.562699
21
1.46795
0
LINE
8
BLACK
6
CONTINUOUS
10
-0.562699
20
1.46795
11
-0.638824
21
1.43642
0
LINE
8
BLACK
6
CONTINUOUS
10
-0.638824
20
1.43642
11
-0.713191
21
1.40095
0
LINE
8
BLACK
6
CONTINUOUS
10
-0.713191
20
1.40095
11
-0.785602
21
1.36163
0
LINE
8
BLACK
6
CONTINUOUS
10
-0.785602
20
1.36163
11
-0.855858
21
1.31858
0
LINE
8
BLACK
6
CONTINUOUS
10
-0.855858
20
1.31858
11
-0.92376
21
1.27191
0
LINE
8
BLACK
6
CONTINUOUS
10
-0.92376
20
1.27191
11
-0.989129
21
1.22175
0
LINE
8
BLACK
6
CONTINUOUS
10
-0.989129
20
1.22175
11
-1.05178
21
1.16824
0
LINE
8
BLACK
6
CONTINUOUS
10
-1.05178
20
1.16824
11
-1.11155
21
1.11152
0
LINE
8
BLACK
6
CONTINUOUS
10
-1.11155
20
1.11152
11
-1.16827
21
1.05175
0
LINE
8
BLACK
6
CONTINUOUS
10
-1.16827
20
1.05175
11
-1.22178
21
0.989097
0
LINE
8
BLACK
6
CONTINUOUS
10
-1.22178
20
0.989097
11
-1.27194
21
0.923728
0
LINE
8
BLACK
6
CONTINUOUS
10
-1.27194
20
0.923728
11
-1.31861
21
0.855826
0
LINE
8
BLACK
6
CONTINUOUS
10
-1.31861
20
0.855826
11
-1.36166
21
0.785571
0
LINE
8
BLACK
6
CONTINUOUS
10
-1.36166
20
0.785571
11
-1.40098
21
0.71316
0
LINE
8
BLACK
6
CONTINUOUS
10
-1.40098
20
0.71316
11
-1.43645
21
0.638793
0
LINE
8
BLACK
6
CONTINUOUS
10
-1.43645
20
0.638793
11
-1.46798
21
0.562667
0
LINE
8
BLACK
6
CONTINUOUS
10
-1.46798
20
0.562667
11
-1.49548
21
0.484999
0
LINE
8
BLACK
6
CONTINUOUS
10
-1.49548
20
0.484999
11
-1.51888
21
0.405997
0
LINE
8
BLACK
6
CONTINUOUS
10
-1.51888
20
0.405997
11
-1.53812
21
0.325877
0
LINE
8
BLACK
6
CONTINUOUS
10
-1.53812
20
0.325877
11
-1.55313
21
0.244862
0
LINE
8
BLACK
6
CONTINUOUS
10
-1.55313
20
0.244862
11
-1.56389
21
0.163171
0
LINE
8
BLACK
6
CONTINUOUS
10
-1.56389
20
0.163171
11
-1.57036
21
0.0810288
0
LINE
8
BLACK
6
CONTINUOUS
10
-1.57036
20
0.0810288
11
-1.57251
21
-0.00133823
0
LINE
8
BLACK
6
CONTINUOUS
10
-1.57251
20
-0.00133823
11
-1.57036
21
-0.0837053
0
LINE
8
BLACK
6
CONTINUOUS
10
-1.57036
20
-0.0837053
11
-1.56389
21
-0.165847
0
LINE
8
BLACK
6
CONTINUOUS
10
-1.56389
20
-0.165847
11
-1.55313
21
-0.247538
0
LINE
8
BLACK
6
CONTINUOUS
10
-1.55313
20
-0.247538
11
-1.53812
21
-0.328554
0
LINE
8
BLACK
6
CONTINUOUS
10
-1.53812
20
-0.328554
11
-1.51888
21
-0.408674
0
LINE
8
BLACK
6
CONTINUOUS
10
-1.51888
20
-0.408674
11
-1.49549
21
-0.487676
0
LINE
8
BLACK
6
CONTINUOUS
10
-1.49549
20
-0.487676
11
-1.46798
21
-0.565344
0
LINE
8
BLACK
6
CONTINUOUS
10
-1.46798
20
-0.565344
11
-1.43645
21
-0.641469
0
LINE
8
BLACK
6
CONTINUOUS
10
-1.43645
20
-0.641469
11
-1.40098
21
-0.715836
0
LINE
8
BLACK
6
CONTINUOUS
10
-1.40098
20
-0.715836
11
-1.36166
21
-0.788248
0
LINE
8
BLACK
6
CONTINUOUS
10
-1.36166
20
-0.788248
11
-1.31861
21
-0.858503
0
LINE
8
BLACK
6
CONTINUOUS
10
-1.31861
20
-0.858503
11
-1.27194
21
-0.926405
0
LINE
8
BLACK
6
CONTINUOUS
10
-1.27194
20
-0.926405
11
-1.22178
21
-0.991774
0
LINE
8
BLACK
6
CONTINUOUS
10
-1.22178
20
-0.991774
11
-1.16827
21
-1.05443
0
LINE
8
BLACK
6
CONTINUOUS
10
-1.16827
20
-1.05443
11
-1.11155
21
-1.1142
0
LINE
8
BLACK
6
CONTINUOUS
10
-1.11155
20
-1.1142
11
-1.05178
21
-1.17091
0
LINE
8
BLACK
6
CONTINUOUS
10
-1.05178
20
-1.17091
11
-0.989129
21
-1.22442
0
LINE
8
BLACK
6
CONTINUOUS
10
-0.989129
20
-1.22442
11
-0.92376
21
-1.27459
0
LINE
8
BLACK
6
CONTINUOUS
10
-0.92376
20
-1.27459
11
-0.855858
21
-1.32125
0
LINE
8
BLACK
6
CONTINUOUS
10
-0.855858
20
-1.32125
11
-0.785602
21
-1.3643
0
LINE
8
BLACK
6
CONTINUOUS
10
-0.785602
20
-1.3643
11
-0.713191
21
-1.40362
0
LINE
8
BLACK
6
CONTINUOUS
10
-0.713191
20
-1.40362
11
-0.638824
21
-1.43909
0
LINE
8
BLACK
6
CONTINUOUS
10
-0.638824
20
-1.43909
11
-0.562699
21
-1.47062
0
LINE
8
BLACK
6
CONTINUOUS
10
-0.562699
20
-1.47062
11
-0.485031
21
-1.49813
0
LINE
8
BLACK
6
CONTINUOUS
10
-0.485031
20
-1.49813
11
-0.406029
21
-1.52153
0
LINE
8
BLACK
6
CONTINUOUS
10
-0.406029
20
-1.52153
11
-0.325908
21
-1.54076
0
LINE
8
BLACK
6
CONTINUOUS
10
-0.325908
20
-1.54076
11
-0.244892
21
-1.55578
0
LINE
8
BLACK
6
CONTINUOUS
10
-0.244892
20
-1.55578
11
-0.163202
21
-1.56654
0
LINE
8
BLACK
6
CONTINUOUS
10
-0.163202
20
-1.56654
11
-0.0810602
21
-1.573
0
LINE
8
BLACK
6
CONTINUOUS
10
-0.0810602
20
-1.573
11
0.00130677
21
-1.57516
0
LINE
8
BLACK
6
CONTINUOUS
10
0.00130677
20
-1.57516
11
0.0836738
21
-1.573
0
LINE
8
BLACK
6
CONTINUOUS
10
0.0836738
20
-1.573
11
0.165816
21
-1.56654
0
LINE
8
BLACK
6
CONTINUOUS
10
0.165816
20
-1.56654
11
0.247507
21
-1.55578
0
LINE
8
BLACK
6
CONTINUOUS
10
0.247507
20
-1.55578
11
0.328522
21
-1.54076
0
LINE
8
BLACK
6
CONTINUOUS
10
0.328522
20
-1.54076
11
0.408642
21
-1.52153
0
LINE
8
BLACK
6
CONTINUOUS
10
0.408642
20
-1.52153
11
0.487644
21
-1.49813
0
LINE
8
BLACK
6
CONTINUOUS
10
0.487644
20
-1.49813
11
0.565312
21
-1.47062
0
LINE
8
BLACK
6
CONTINUOUS
10
0.565312
20
-1.47062
11
0.641438
21
-1.43909
0
LINE
8
BLACK
6
CONTINUOUS
10
0.641438
20
-1.43909
11
0.715805
21
-1.40362
0
LINE
8
BLACK
6
CONTINUOUS
10
0.715805
20
-1.40362
11
0.788216
21
-1.3643
0
LINE
8
BLACK
6
CONTINUOUS
10
0.788216
20
-1.3643
11
0.858471
21
-1.32125
0
LINE
8
BLACK
6
CONTINUOUS
10
0.858471
20
-1.32125
11
0.926373
21
-1.27459
0
LINE
8
BLACK
6
CONTINUOUS
10
0.926373
20
-1.27459
11
0.991742
21
-1.22442
0
LINE
8
BLACK
6
CONTINUOUS
10
0.991742
20
-1.22442
11
1.0544
21
-1.17091
0
LINE
8
BLACK
6
CONTINUOUS
10
1.0544
20
-1.17091
11
1.11417
21
-1.1142
0
LINE
8
BLACK
6
CONTINUOUS
10
1.11417
20
-1.1142
11
1.17088
21
-1.05443
0
LINE
8
BLACK
6
CONTINUOUS
10
1.17088
20
-1.05443
11
1.22439
21
-0.991774
0
LINE
8
BLACK
6
CONTINUOUS
10
1.22439
20
-0.991774
11
1.27455
21
-0.926404
0
LINE
8
BLACK
6
CONTINUOUS
10
1.27455
20
-0.926404
11
1.32122
21
-0.858502
0
LINE
8
BLACK
6
CONTINUOUS
10
1.32122
20
-0.858502
11
1.36427
21
-0.788248
0
LINE
8
BLACK
6
CONTINUOUS
10
1.36427
20
-0.788248
11
1.40359
21
-0.715836
0
LINE
8
BLACK
6
CONTINUOUS
10
1.40359
20
-0.715836
11
1.43906
21
-0.641469
0
LINE
8
BLACK
6
CONTINUOUS
10
1.43906
20
-0.641469
11
1.47059
21
-0.565344
0
LINE
8
BLACK
6
CONTINUOUS
10
1.47059
20
-0.565344
11
1.4981
21
-0.487676
0
LINE
8
BLACK
6
CONTINUOUS
10
1.4981
20
-0.487676
11
1.5215
21
-0.408673
0
LINE
8
BLACK
6
CONTINUOUS
10
1.5215
20
-0.408673
11
1.54073
21
-0.328553
0
LINE
8
BLACK
6
CONTINUOUS
10
1.54073
20
-0.328553
11
1.55575
21
-0.247538
0
LINE
8
BLACK
6
CONTINUOUS
10
1.55575
20
-0.247538
11
1.5665
21
-0.165847
0
LINE
8
BLACK
6
CONTINUOUS
10
1.5665
20
-0.165847
11
1.57297
21
-0.0837052
0
LINE
8
BLACK
6
CONTINUOUS
10
1.57297
20
-0.0837052
11
1.57513
21
-0.00133827
0
LINE
8
BLACK
6
CONTINUOUS
10
1.57513
20
-0.00133827
11
1.57297
21
0.0810287
0
LINE
8
BLACK
6
CONTINUOUS
10
1.57297
20
0.0810287
11
1.5665
21
0.163171
0
LINE
8
BLACK
6
CONTINUOUS
10
1.5665
20
0.163171
11
1.55575
21
0.244861
0
LINE
8
BLACK
6
CONTINUOUS
10
1.55575
20
0.244861
11
1.54073
21
0.325877
0
LINE
8
BLACK
6
CONTINUOUS
10
1.54073
20
0.325877
11
1.5215
21
0.405997
0
LINE
8
BLACK
6
CONTINUOUS
10
1.5215
20
0.405997
11
1.4981
21
0.484999
0
LINE
8
BLACK
6
CONTINUOUS
10
1.4981
20
0.484999
11
1.47059
21
0.562667
0
LINE
8
BLACK
6
CONTINUOUS
10
1.47059
20
0.562667
11
1.43906
21
0.638792
0
LINE
8
BLACK
6
CONTINUOUS
10
1.43906
20
0.638792
11
1.40359
21
0.71316
0
LINE
8
BLACK
6
CONTINUOUS
10
1.40359
20
0.71316
11
1.36427
21
0.785571
0
LINE
8
BLACK
6
CONTINUOUS
10
1.36427
20
0.785571
11
1.32122
21
0.855827
0
LINE
8
BLACK
6
CONTINUOUS
10
1.32122
20
0.855827
11
1.27455
21
0.923728
0
LINE
8
BLACK
6
CONTINUOUS
10
1.27455
20
0.923728
11
1.22439
21
0.989097
0
LINE
8
BLACK
6
CONTINUOUS
10
1.22439
20
0.989097
11
1.17088
21
1.05175
0
LINE
8
BLACK
6
CONTINUOUS
10
1.17088
20
1.05175
11
1.11417
21
1.11152
0
LINE
8
BLACK
6
CONTINUOUS
10
1.11417
20
1.11152
11
1.0544
21
1.16824
0
LINE
8
BLACK
6
CONTINUOUS
10
1.0544
20
1.16824
11
0.991742
21
1.22175
0
LINE
8
BLACK
6
CONTINUOUS
10
0.991742
20
1.22175
11
0.926373
21
1.27191
0
LINE
8
BLACK
6
CONTINUOUS
10
0.926373
20
1.27191
11
0.858471
21
1.31858
0
LINE
8
BLACK
6
CONTINUOUS
10
0.858471
20
1.31858
11
0.788216
21
1.36163
0
LINE
8
BLACK
6
CONTINUOUS
10
0.788216
20
1.36163
11
0.715805
21
1.40095
0
LINE
8
BLACK
6
CONTINUOUS
10
0.715805
20
1.40095
11
0.641438
21
1.43642
0
LINE
8
BLACK
6
CONTINUOUS
10
0.641438
20
1.43642
11
0.565312
21
1.46795
0
LINE
8
BLACK
6
CONTINUOUS
10
0.565312
20
1.46795
11
0.487644
21
1.49545
0
LINE
8
BLACK
6
CONTINUOUS
10
0.487644
20
1.49545
11
0.408642
21
1.51885
0
LINE
8
BLACK
6
CONTINUOUS
10
0.408642
20
1.51885
11
0.328522
21
1.53809
0
LINE
8
BLACK
6
CONTINUOUS
10
0.328522
20
1.53809
11
0.247507
21
1.5531
0
LINE
8
BLACK
6
CONTINUOUS
10
0.247507
20
1.5531
11
0.165816
21
1.56386
0
LINE
8
BLACK
6
CONTINUOUS
10
0.165816
20
1.56386
11
0.0836738
21
1.57032
0
LINE
8
BLACK
6
CONTINUOUS
10
0.0836738
20
1.57032
11
0.00130673
21
1.57248
0
LINE
8
BLACK
6
CONTINUOUS
10
0.00130673
20
1.57248
11
-0.0810603
21
1.57032
  0
ENDSEC
  0
EOF
