  0
SECTION
  2
HEADER
  9
$ANGBASE
  50
0.0
  9
$ANGDIR
  70
1
  9
$MEASUREMENT
  70
0
  0
ENDSEC
  0
SECTION
  2
TABLES
  0
TABLE
  2
LTYPE
  70
4
  0
LTYPE
  5
40F
  2
CONTINUOUS
  70
0
  3
Solid line
  72
65
  73
0
  40
0.0
  0
LTYPE
  5
410
  2
DASHDOT
 70
0
  3
Dash Dot ____ _ ____ _
 72
65
 73
4
 40
2.0
 49
1.25
 49
-0.25
 49
0.25
 49
-0.25
  0
LTYPE
  5
411
  2
DASHED
 70
0
  3
Dashed __ __ __ __ __
 72
65
 73
2
 40
0.75
 49
0.5
 49
-0.25
  0
LTYPE
  5
43B
  2
DOTTED
 70
0
  3
Dotted .  .  .  .
 72
65
 73
2
 40
0.2
 49
0.0
 49
-0.2
  0
ENDTAB
  0
TABLE
  2
STYLE
  70
4
  0
STYLE
  2
KICAD
  70
0
  40
0
  41
1
  42
1
  50
0
  71
0
  3
isocp.shx
  0
STYLE
  2
KICADB
  70
0
  40
0
  41
1
  42
1
  50
0
  71
0
  3
isocp.shx
  0
STYLE
  2
KICADI
  70
0
  40
0
  41
1
  42
1
  50
15
  71
0
  3
isocp.shx
  0
STYLE
  2
KICADBI
  70
0
  40
0
  41
1
  42
1
  50
15
  71
0
  3
isocp.shx
  0
ENDTAB
  0
TABLE
  2
LAYER
  70
1
  0
LAYER
  2
BLACK
  70
0
  62
7
  6
CONTINUOUS
  0
ENDTAB
  0
ENDSEC
  0
SECTION
  2
ENTITIES
0
LINE
8
BLACK
6
CONTINUOUS
10
0.0837515
20
1.57229
11
0.0837766
21
1.57228
0
LINE
8
BLACK
6
CONTINUOUS
10
0.0837766
20
1.57228
11
0.0838029
21
1.57229
0
LINE
8
BLACK
6
CONTINUOUS
10
0.0838029
20
1.57229
11
0.165996
21
1.56582
0
LINE
8
BLACK
6
CONTINUOUS
10
0.165996
20
1.56582
11
0.16602
21
1.56581
0
LINE
8
BLACK
6
CONTINUOUS
10
0.16602
20
1.56581
11
0.166047
21
1.56581
0
LINE
8
BLACK
6
CONTINUOUS
10
0.166047
20
1.56581
11
0.247789
21
1.55505
0
LINE
8
BLACK
6
CONTINUOUS
10
0.247789
20
1.55505
11
0.247813
21
1.55504
0
LINE
8
BLACK
6
CONTINUOUS
10
0.247813
20
1.55504
11
0.24784
21
1.55504
0
LINE
8
BLACK
6
CONTINUOUS
10
0.24784
20
1.55504
11
0.328906
21
1.54002
0
LINE
8
BLACK
6
CONTINUOUS
10
0.328906
20
1.54002
11
0.328929
21
1.54
0
LINE
8
BLACK
6
CONTINUOUS
10
0.328929
20
1.54
11
0.328957
21
1.54001
0
LINE
8
BLACK
6
CONTINUOUS
10
0.328957
20
1.54001
11
0.409127
21
1.52076
0
LINE
8
BLACK
6
CONTINUOUS
10
0.409127
20
1.52076
11
0.409149
21
1.52074
0
LINE
8
BLACK
6
CONTINUOUS
10
0.409149
20
1.52074
11
0.409177
21
1.52075
0
LINE
8
BLACK
6
CONTINUOUS
10
0.409177
20
1.52075
11
0.488228
21
1.49733
0
LINE
8
BLACK
6
CONTINUOUS
10
0.488228
20
1.49733
11
0.488249
21
1.49732
0
LINE
8
BLACK
6
CONTINUOUS
10
0.488249
20
1.49732
11
0.488277
21
1.49732
0
LINE
8
BLACK
6
CONTINUOUS
10
0.488277
20
1.49732
11
0.565994
21
1.46979
0
LINE
8
BLACK
6
CONTINUOUS
10
0.565994
20
1.46979
11
0.566014
21
1.46978
0
LINE
8
BLACK
6
CONTINUOUS
10
0.566014
20
1.46978
11
0.566042
21
1.46978
0
LINE
8
BLACK
6
CONTINUOUS
10
0.566042
20
1.46978
11
0.642215
21
1.43822
0
LINE
8
BLACK
6
CONTINUOUS
10
0.642215
20
1.43822
11
0.642234
21
1.4382
0
LINE
8
BLACK
6
CONTINUOUS
10
0.642234
20
1.4382
11
0.642262
21
1.4382
0
LINE
8
BLACK
6
CONTINUOUS
10
0.642262
20
1.4382
11
0.716675
21
1.40271
0
LINE
8
BLACK
6
CONTINUOUS
10
0.716675
20
1.40271
11
0.716694
21
1.40269
0
LINE
8
BLACK
6
CONTINUOUS
10
0.716694
20
1.40269
11
0.716721
21
1.40269
0
LINE
8
BLACK
6
CONTINUOUS
10
0.716721
20
1.40269
11
0.789178
21
1.36335
0
LINE
8
BLACK
6
CONTINUOUS
10
0.789178
20
1.36335
11
0.789195
21
1.36332
0
LINE
8
BLACK
6
CONTINUOUS
10
0.789195
20
1.36332
11
0.789222
21
1.36332
0
LINE
8
BLACK
6
CONTINUOUS
10
0.789222
20
1.36332
11
0.859522
21
1.32024
0
LINE
8
BLACK
6
CONTINUOUS
10
0.859522
20
1.32024
11
0.859538
21
1.32022
0
LINE
8
BLACK
6
CONTINUOUS
10
0.859538
20
1.32022
11
0.859565
21
1.32021
0
LINE
8
BLACK
6
CONTINUOUS
10
0.859565
20
1.32021
11
0.92751
21
1.27352
0
LINE
8
BLACK
6
CONTINUOUS
10
0.92751
20
1.27352
11
0.927525
21
1.27349
0
LINE
8
BLACK
6
CONTINUOUS
10
0.927525
20
1.27349
11
0.927551
21
1.27349
0
LINE
8
BLACK
6
CONTINUOUS
10
0.927551
20
1.27349
11
0.992961
21
1.22329
0
LINE
8
BLACK
6
CONTINUOUS
10
0.992961
20
1.22329
11
0.992974
21
1.22327
0
LINE
8
BLACK
6
CONTINUOUS
10
0.992974
20
1.22327
11
0.993001
21
1.22326
0
LINE
8
BLACK
6
CONTINUOUS
10
0.993001
20
1.22326
11
1.05569
21
1.16972
0
LINE
8
BLACK
6
CONTINUOUS
10
1.05569
20
1.16972
11
1.05571
21
1.16969
0
LINE
8
BLACK
6
CONTINUOUS
10
1.05571
20
1.16969
11
1.05573
21
1.16968
0
LINE
8
BLACK
6
CONTINUOUS
10
1.05573
20
1.16968
11
1.11554
21
1.11293
0
LINE
8
BLACK
6
CONTINUOUS
10
1.11554
20
1.11293
11
1.11555
21
1.11291
0
LINE
8
BLACK
6
CONTINUOUS
10
1.11555
20
1.11291
11
1.11558
21
1.11289
0
LINE
8
BLACK
6
CONTINUOUS
10
1.11558
20
1.11289
11
1.17233
21
1.05309
0
LINE
8
BLACK
6
CONTINUOUS
10
1.17233
20
1.05309
11
1.17234
21
1.05306
0
LINE
8
BLACK
6
CONTINUOUS
10
1.17234
20
1.05306
11
1.17236
21
1.05305
0
LINE
8
BLACK
6
CONTINUOUS
10
1.17236
20
1.05305
11
1.22591
21
0.990356
0
LINE
8
BLACK
6
CONTINUOUS
10
1.22591
20
0.990356
11
1.22591
21
0.99033
0
LINE
8
BLACK
6
CONTINUOUS
10
1.22591
20
0.99033
11
1.22594
21
0.990316
0
LINE
8
BLACK
6
CONTINUOUS
10
1.22594
20
0.990316
11
1.27613
21
0.924906
0
LINE
8
BLACK
6
CONTINUOUS
10
1.27613
20
0.924906
11
1.27614
21
0.92488
0
LINE
8
BLACK
6
CONTINUOUS
10
1.27614
20
0.92488
11
1.27616
21
0.924865
0
LINE
8
BLACK
6
CONTINUOUS
10
1.27616
20
0.924865
11
1.32286
21
0.85692
0
LINE
8
BLACK
6
CONTINUOUS
10
1.32286
20
0.85692
11
1.32286
21
0.856893
0
LINE
8
BLACK
6
CONTINUOUS
10
1.32286
20
0.856893
11
1.32289
21
0.856877
0
LINE
8
BLACK
6
CONTINUOUS
10
1.32289
20
0.856877
11
1.36596
21
0.786577
0
LINE
8
BLACK
6
CONTINUOUS
10
1.36596
20
0.786577
11
1.36597
21
0.78655
0
LINE
8
BLACK
6
CONTINUOUS
10
1.36597
20
0.78655
11
1.36599
21
0.786533
0
LINE
8
BLACK
6
CONTINUOUS
10
1.36599
20
0.786533
11
1.40533
21
0.714076
0
LINE
8
BLACK
6
CONTINUOUS
10
1.40533
20
0.714076
11
1.40534
21
0.714049
0
LINE
8
BLACK
6
CONTINUOUS
10
1.40534
20
0.714049
11
1.40536
21
0.71403
0
LINE
8
BLACK
6
CONTINUOUS
10
1.40536
20
0.71403
11
1.44085
21
0.639617
0
LINE
8
BLACK
6
CONTINUOUS
10
1.44085
20
0.639617
11
1.44085
21
0.639589
0
LINE
8
BLACK
6
CONTINUOUS
10
1.44085
20
0.639589
11
1.44087
21
0.63957
0
LINE
8
BLACK
6
CONTINUOUS
10
1.44087
20
0.63957
11
1.47242
21
0.563396
0
LINE
8
BLACK
6
CONTINUOUS
10
1.47242
20
0.563396
11
1.47242
21
0.563369
0
LINE
8
BLACK
6
CONTINUOUS
10
1.47242
20
0.563369
11
1.47244
21
0.563348
0
LINE
8
BLACK
6
CONTINUOUS
10
1.47244
20
0.563348
11
1.49996
21
0.485632
0
LINE
8
BLACK
6
CONTINUOUS
10
1.49996
20
0.485632
11
1.49996
21
0.485604
0
LINE
8
BLACK
6
CONTINUOUS
10
1.49996
20
0.485604
11
1.49998
21
0.485583
0
LINE
8
BLACK
6
CONTINUOUS
10
1.49998
20
0.485583
11
1.52339
21
0.406532
0
LINE
8
BLACK
6
CONTINUOUS
10
1.52339
20
0.406532
11
1.52339
21
0.406504
0
LINE
8
BLACK
6
CONTINUOUS
10
1.52339
20
0.406504
11
1.52341
21
0.406482
0
LINE
8
BLACK
6
CONTINUOUS
10
1.52341
20
0.406482
11
1.54265
21
0.326312
0
LINE
8
BLACK
6
CONTINUOUS
10
1.54265
20
0.326312
11
1.54265
21
0.326284
0
LINE
8
BLACK
6
CONTINUOUS
10
1.54265
20
0.326284
11
1.54266
21
0.326261
0
LINE
8
BLACK
6
CONTINUOUS
10
1.54266
20
0.326261
11
1.55769
21
0.245195
0
LINE
8
BLACK
6
CONTINUOUS
10
1.55769
20
0.245195
11
1.55768
21
0.245168
0
LINE
8
BLACK
6
CONTINUOUS
10
1.55768
20
0.245168
11
1.5577
21
0.245144
0
LINE
8
BLACK
6
CONTINUOUS
10
1.5577
20
0.245144
11
1.56846
21
0.163402
0
LINE
8
BLACK
6
CONTINUOUS
10
1.56846
20
0.163402
11
1.56845
21
0.163375
0
LINE
8
BLACK
6
CONTINUOUS
10
1.56845
20
0.163375
11
1.56846
21
0.163351
0
LINE
8
BLACK
6
CONTINUOUS
10
1.56846
20
0.163351
11
1.57493
21
0.0811579
0
LINE
8
BLACK
6
CONTINUOUS
10
1.57493
20
0.0811579
11
1.57492
21
0.0811316
0
LINE
8
BLACK
6
CONTINUOUS
10
1.57492
20
0.0811316
11
1.57494
21
0.0811064
0
LINE
8
BLACK
6
CONTINUOUS
10
1.57494
20
0.0811064
11
1.57709
21
-0.00131252
0
LINE
8
BLACK
6
CONTINUOUS
10
1.57709
20
-0.00131252
11
1.57708
21
-0.00133827
0
LINE
8
BLACK
6
CONTINUOUS
10
1.57708
20
-0.00133827
11
1.57709
21
-0.00136402
0
LINE
8
BLACK
6
CONTINUOUS
10
1.57709
20
-0.00136402
11
1.57494
21
-0.083783
0
LINE
8
BLACK
6
CONTINUOUS
10
1.57494
20
-0.083783
11
1.57492
21
-0.0838081
0
LINE
8
BLACK
6
CONTINUOUS
10
1.57492
20
-0.0838081
11
1.57493
21
-0.0838344
0
LINE
8
BLACK
6
CONTINUOUS
10
1.57493
20
-0.0838344
11
1.56846
21
-0.166027
0
LINE
8
BLACK
6
CONTINUOUS
10
1.56846
20
-0.166027
11
1.56845
21
-0.166052
0
LINE
8
BLACK
6
CONTINUOUS
10
1.56845
20
-0.166052
11
1.56846
21
-0.166079
0
LINE
8
BLACK
6
CONTINUOUS
10
1.56846
20
-0.166079
11
1.5577
21
-0.24782
0
LINE
8
BLACK
6
CONTINUOUS
10
1.5577
20
-0.24782
11
1.55768
21
-0.247844
0
LINE
8
BLACK
6
CONTINUOUS
10
1.55768
20
-0.247844
11
1.55769
21
-0.247871
0
LINE
8
BLACK
6
CONTINUOUS
10
1.55769
20
-0.247871
11
1.54266
21
-0.328938
0
LINE
8
BLACK
6
CONTINUOUS
10
1.54266
20
-0.328938
11
1.54265
21
-0.328961
0
LINE
8
BLACK
6
CONTINUOUS
10
1.54265
20
-0.328961
11
1.54265
21
-0.328988
0
LINE
8
BLACK
6
CONTINUOUS
10
1.54265
20
-0.328988
11
1.52341
21
-0.409159
0
LINE
8
BLACK
6
CONTINUOUS
10
1.52341
20
-0.409159
11
1.52339
21
-0.409181
0
LINE
8
BLACK
6
CONTINUOUS
10
1.52339
20
-0.409181
11
1.52339
21
-0.409208
0
LINE
8
BLACK
6
CONTINUOUS
10
1.52339
20
-0.409208
11
1.49998
21
-0.488259
0
LINE
8
BLACK
6
CONTINUOUS
10
1.49998
20
-0.488259
11
1.49996
21
-0.488281
0
LINE
8
BLACK
6
CONTINUOUS
10
1.49996
20
-0.488281
11
1.49996
21
-0.488309
0
LINE
8
BLACK
6
CONTINUOUS
10
1.49996
20
-0.488309
11
1.47244
21
-0.566025
0
LINE
8
BLACK
6
CONTINUOUS
10
1.47244
20
-0.566025
11
1.47242
21
-0.566046
0
LINE
8
BLACK
6
CONTINUOUS
10
1.47242
20
-0.566046
11
1.47242
21
-0.566073
0
LINE
8
BLACK
6
CONTINUOUS
10
1.47242
20
-0.566073
11
1.44087
21
-0.642246
0
LINE
8
BLACK
6
CONTINUOUS
10
1.44087
20
-0.642246
11
1.44085
21
-0.642266
0
LINE
8
BLACK
6
CONTINUOUS
10
1.44085
20
-0.642266
11
1.44085
21
-0.642293
0
LINE
8
BLACK
6
CONTINUOUS
10
1.44085
20
-0.642293
11
1.40536
21
-0.716707
0
LINE
8
BLACK
6
CONTINUOUS
10
1.40536
20
-0.716707
11
1.40534
21
-0.716725
0
LINE
8
BLACK
6
CONTINUOUS
10
1.40534
20
-0.716725
11
1.40533
21
-0.716753
0
LINE
8
BLACK
6
CONTINUOUS
10
1.40533
20
-0.716753
11
1.36599
21
-0.789209
0
LINE
8
BLACK
6
CONTINUOUS
10
1.36599
20
-0.789209
11
1.36597
21
-0.789227
0
LINE
8
BLACK
6
CONTINUOUS
10
1.36597
20
-0.789227
11
1.36596
21
-0.789254
0
LINE
8
BLACK
6
CONTINUOUS
10
1.36596
20
-0.789254
11
1.32289
21
-0.859553
0
LINE
8
BLACK
6
CONTINUOUS
10
1.32289
20
-0.859553
11
1.32286
21
-0.859569
0
LINE
8
BLACK
6
CONTINUOUS
10
1.32286
20
-0.859569
11
1.32286
21
-0.859596
0
LINE
8
BLACK
6
CONTINUOUS
10
1.32286
20
-0.859596
11
1.27616
21
-0.927541
0
LINE
8
BLACK
6
CONTINUOUS
10
1.27616
20
-0.927541
11
1.27614
21
-0.927556
0
LINE
8
BLACK
6
CONTINUOUS
10
1.27614
20
-0.927556
11
1.27613
21
-0.927583
0
LINE
8
BLACK
6
CONTINUOUS
10
1.27613
20
-0.927583
11
1.22594
21
-0.992992
0
LINE
8
BLACK
6
CONTINUOUS
10
1.22594
20
-0.992992
11
1.22591
21
-0.993006
0
LINE
8
BLACK
6
CONTINUOUS
10
1.22591
20
-0.993006
11
1.22591
21
-0.993032
0
LINE
8
BLACK
6
CONTINUOUS
10
1.22591
20
-0.993032
11
1.17236
21
-1.05573
0
LINE
8
BLACK
6
CONTINUOUS
10
1.17236
20
-1.05573
11
1.17234
21
-1.05574
0
LINE
8
BLACK
6
CONTINUOUS
10
1.17234
20
-1.05574
11
1.17233
21
-1.05576
0
LINE
8
BLACK
6
CONTINUOUS
10
1.17233
20
-1.05576
11
1.11558
21
-1.11557
0
LINE
8
BLACK
6
CONTINUOUS
10
1.11558
20
-1.11557
11
1.11555
21
-1.11558
0
LINE
8
BLACK
6
CONTINUOUS
10
1.11555
20
-1.11558
11
1.11554
21
-1.11561
0
LINE
8
BLACK
6
CONTINUOUS
10
1.11554
20
-1.11561
11
1.05573
21
-1.17236
0
LINE
8
BLACK
6
CONTINUOUS
10
1.05573
20
-1.17236
11
1.05571
21
-1.17237
0
LINE
8
BLACK
6
CONTINUOUS
10
1.05571
20
-1.17237
11
1.05569
21
-1.17239
0
LINE
8
BLACK
6
CONTINUOUS
10
1.05569
20
-1.17239
11
0.993001
21
-1.22594
0
LINE
8
BLACK
6
CONTINUOUS
10
0.993001
20
-1.22594
11
0.992974
21
-1.22595
0
LINE
8
BLACK
6
CONTINUOUS
10
0.992974
20
-1.22595
11
0.992961
21
-1.22597
0
LINE
8
BLACK
6
CONTINUOUS
10
0.992961
20
-1.22597
11
0.927551
21
-1.27616
0
LINE
8
BLACK
6
CONTINUOUS
10
0.927551
20
-1.27616
11
0.927525
21
-1.27617
0
LINE
8
BLACK
6
CONTINUOUS
10
0.927525
20
-1.27617
11
0.92751
21
-1.27619
0
LINE
8
BLACK
6
CONTINUOUS
10
0.92751
20
-1.27619
11
0.859565
21
-1.32289
0
LINE
8
BLACK
6
CONTINUOUS
10
0.859565
20
-1.32289
11
0.859538
21
-1.32289
0
LINE
8
BLACK
6
CONTINUOUS
10
0.859538
20
-1.32289
11
0.859522
21
-1.32292
0
LINE
8
BLACK
6
CONTINUOUS
10
0.859522
20
-1.32292
11
0.789222
21
-1.366
0
LINE
8
BLACK
6
CONTINUOUS
10
0.789222
20
-1.366
11
0.789195
21
-1.366
0
LINE
8
BLACK
6
CONTINUOUS
10
0.789195
20
-1.366
11
0.789178
21
-1.36602
0
LINE
8
BLACK
6
CONTINUOUS
10
0.789178
20
-1.36602
11
0.716721
21
-1.40536
0
LINE
8
BLACK
6
CONTINUOUS
10
0.716721
20
-1.40536
11
0.716694
21
-1.40537
0
LINE
8
BLACK
6
CONTINUOUS
10
0.716694
20
-1.40537
11
0.716675
21
-1.40539
0
LINE
8
BLACK
6
CONTINUOUS
10
0.716675
20
-1.40539
11
0.642262
21
-1.44088
0
LINE
8
BLACK
6
CONTINUOUS
10
0.642262
20
-1.44088
11
0.642234
21
-1.44088
0
LINE
8
BLACK
6
CONTINUOUS
10
0.642234
20
-1.44088
11
0.642215
21
-1.4409
0
LINE
8
BLACK
6
CONTINUOUS
10
0.642215
20
-1.4409
11
0.566042
21
-1.47245
0
LINE
8
BLACK
6
CONTINUOUS
10
0.566042
20
-1.47245
11
0.566014
21
-1.47245
0
LINE
8
BLACK
6
CONTINUOUS
10
0.566014
20
-1.47245
11
0.565994
21
-1.47247
0
LINE
8
BLACK
6
CONTINUOUS
10
0.565994
20
-1.47247
11
0.488277
21
-1.49999
0
LINE
8
BLACK
6
CONTINUOUS
10
0.488277
20
-1.49999
11
0.488249
21
-1.49999
0
LINE
8
BLACK
6
CONTINUOUS
10
0.488249
20
-1.49999
11
0.488228
21
-1.50001
0
LINE
8
BLACK
6
CONTINUOUS
10
0.488228
20
-1.50001
11
0.409177
21
-1.52342
0
LINE
8
BLACK
6
CONTINUOUS
10
0.409177
20
-1.52342
11
0.409149
21
-1.52342
0
LINE
8
BLACK
6
CONTINUOUS
10
0.409149
20
-1.52342
11
0.409127
21
-1.52344
0
LINE
8
BLACK
6
CONTINUOUS
10
0.409127
20
-1.52344
11
0.328957
21
-1.54268
0
LINE
8
BLACK
6
CONTINUOUS
10
0.328957
20
-1.54268
11
0.328929
21
-1.54268
0
LINE
8
BLACK
6
CONTINUOUS
10
0.328929
20
-1.54268
11
0.328906
21
-1.5427
0
LINE
8
BLACK
6
CONTINUOUS
10
0.328906
20
-1.5427
11
0.24784
21
-1.55772
0
LINE
8
BLACK
6
CONTINUOUS
10
0.24784
20
-1.55772
11
0.247813
21
-1.55771
0
LINE
8
BLACK
6
CONTINUOUS
10
0.247813
20
-1.55771
11
0.247789
21
-1.55773
0
LINE
8
BLACK
6
CONTINUOUS
10
0.247789
20
-1.55773
11
0.166047
21
-1.56849
0
LINE
8
BLACK
6
CONTINUOUS
10
0.166047
20
-1.56849
11
0.16602
21
-1.56848
0
LINE
8
BLACK
6
CONTINUOUS
10
0.16602
20
-1.56848
11
0.165996
21
-1.5685
0
LINE
8
BLACK
6
CONTINUOUS
10
0.165996
20
-1.5685
11
0.0838029
21
-1.57497
0
LINE
8
BLACK
6
CONTINUOUS
10
0.0838029
20
-1.57497
11
0.0837766
21
-1.57496
0
LINE
8
BLACK
6
CONTINUOUS
10
0.0837766
20
-1.57496
11
0.0837515
21
-1.57497
0
LINE
8
BLACK
6
CONTINUOUS
10
0.0837515
20
-1.57497
11
0.00133252
21
-1.57712
0
LINE
8
BLACK
6
CONTINUOUS
10
0.00133252
20
-1.57712
11
0.00130673
21
-1.57712
0
LINE
8
BLACK
6
CONTINUOUS
10
0.00130673
20
-1.57712
11
0.00128102
21
-1.57712
0
LINE
8
BLACK
6
CONTINUOUS
10
0.00128102
20
-1.57712
11
-0.0811379
21
-1.57497
0
LINE
8
BLACK
6
CONTINUOUS
10
-0.0811379
20
-1.57497
11
-0.0811631
21
-1.57496
0
LINE
8
BLACK
6
CONTINUOUS
10
-0.0811631
20
-1.57496
11
-0.0811894
21
-1.57497
0
LINE
8
BLACK
6
CONTINUOUS
10
-0.0811894
20
-1.57497
11
-0.163382
21
-1.5685
0
LINE
8
BLACK
6
CONTINUOUS
10
-0.163382
20
-1.5685
11
-0.163407
21
-1.56848
0
LINE
8
BLACK
6
CONTINUOUS
10
-0.163407
20
-1.56848
11
-0.163434
21
-1.56849
0
LINE
8
BLACK
6
CONTINUOUS
10
-0.163434
20
-1.56849
11
-0.245175
21
-1.55773
0
LINE
8
BLACK
6
CONTINUOUS
10
-0.245175
20
-1.55773
11
-0.245199
21
-1.55771
0
LINE
8
BLACK
6
CONTINUOUS
10
-0.245199
20
-1.55771
11
-0.245226
21
-1.55772
0
LINE
8
BLACK
6
CONTINUOUS
10
-0.245226
20
-1.55772
11
-0.326293
21
-1.5427
0
LINE
8
BLACK
6
CONTINUOUS
10
-0.326293
20
-1.5427
11
-0.326316
21
-1.54268
0
LINE
8
BLACK
6
CONTINUOUS
10
-0.326316
20
-1.54268
11
-0.326343
21
-1.54268
0
LINE
8
BLACK
6
CONTINUOUS
10
-0.326343
20
-1.54268
11
-0.406514
21
-1.52344
0
LINE
8
BLACK
6
CONTINUOUS
10
-0.406514
20
-1.52344
11
-0.406536
21
-1.52342
0
LINE
8
BLACK
6
CONTINUOUS
10
-0.406536
20
-1.52342
11
-0.406563
21
-1.52342
0
LINE
8
BLACK
6
CONTINUOUS
10
-0.406563
20
-1.52342
11
-0.485614
21
-1.50001
0
LINE
8
BLACK
6
CONTINUOUS
10
-0.485614
20
-1.50001
11
-0.485636
21
-1.49999
0
LINE
8
BLACK
6
CONTINUOUS
10
-0.485636
20
-1.49999
11
-0.485663
21
-1.49999
0
LINE
8
BLACK
6
CONTINUOUS
10
-0.485663
20
-1.49999
11
-0.56338
21
-1.47247
0
LINE
8
BLACK
6
CONTINUOUS
10
-0.56338
20
-1.47247
11
-0.5634
21
-1.47245
0
LINE
8
BLACK
6
CONTINUOUS
10
-0.5634
20
-1.47245
11
-0.563428
21
-1.47245
0
LINE
8
BLACK
6
CONTINUOUS
10
-0.563428
20
-1.47245
11
-0.639601
21
-1.4409
0
LINE
8
BLACK
6
CONTINUOUS
10
-0.639601
20
-1.4409
11
-0.639621
21
-1.44088
0
LINE
8
BLACK
6
CONTINUOUS
10
-0.639621
20
-1.44088
11
-0.639648
21
-1.44088
0
LINE
8
BLACK
6
CONTINUOUS
10
-0.639648
20
-1.44088
11
-0.714062
21
-1.40539
0
LINE
8
BLACK
6
CONTINUOUS
10
-0.714062
20
-1.40539
11
-0.71408
21
-1.40537
0
LINE
8
BLACK
6
CONTINUOUS
10
-0.71408
20
-1.40537
11
-0.714108
21
-1.40536
0
LINE
8
BLACK
6
CONTINUOUS
10
-0.714108
20
-1.40536
11
-0.786564
21
-1.36602
0
LINE
8
BLACK
6
CONTINUOUS
10
-0.786564
20
-1.36602
11
-0.786582
21
-1.366
0
LINE
8
BLACK
6
CONTINUOUS
10
-0.786582
20
-1.366
11
-0.786609
21
-1.366
0
LINE
8
BLACK
6
CONTINUOUS
10
-0.786609
20
-1.366
11
-0.856908
21
-1.32292
0
LINE
8
BLACK
6
CONTINUOUS
10
-0.856908
20
-1.32292
11
-0.856924
21
-1.32289
0
LINE
8
BLACK
6
CONTINUOUS
10
-0.856924
20
-1.32289
11
-0.856951
21
-1.32289
0
LINE
8
BLACK
6
CONTINUOUS
10
-0.856951
20
-1.32289
11
-0.924896
21
-1.27619
0
LINE
8
BLACK
6
CONTINUOUS
10
-0.924896
20
-1.27619
11
-0.924911
21
-1.27617
0
LINE
8
BLACK
6
CONTINUOUS
10
-0.924911
20
-1.27617
11
-0.924938
21
-1.27616
0
LINE
8
BLACK
6
CONTINUOUS
10
-0.924938
20
-1.27616
11
-0.990347
21
-1.22597
0
LINE
8
BLACK
6
CONTINUOUS
10
-0.990347
20
-1.22597
11
-0.990361
21
-1.22595
0
LINE
8
BLACK
6
CONTINUOUS
10
-0.990361
20
-1.22595
11
-0.990387
21
-1.22594
0
LINE
8
BLACK
6
CONTINUOUS
10
-0.990387
20
-1.22594
11
-1.05308
21
-1.17239
0
LINE
8
BLACK
6
CONTINUOUS
10
-1.05308
20
-1.17239
11
-1.05309
21
-1.17237
0
LINE
8
BLACK
6
CONTINUOUS
10
-1.05309
20
-1.17237
11
-1.05312
21
-1.17236
0
LINE
8
BLACK
6
CONTINUOUS
10
-1.05312
20
-1.17236
11
-1.11293
21
-1.11561
0
LINE
8
BLACK
6
CONTINUOUS
10
-1.11293
20
-1.11561
11
-1.11294
21
-1.11558
0
LINE
8
BLACK
6
CONTINUOUS
10
-1.11294
20
-1.11558
11
-1.11296
21
-1.11557
0
LINE
8
BLACK
6
CONTINUOUS
10
-1.11296
20
-1.11557
11
-1.16971
21
-1.05576
0
LINE
8
BLACK
6
CONTINUOUS
10
-1.16971
20
-1.05576
11
-1.16972
21
-1.05574
0
LINE
8
BLACK
6
CONTINUOUS
10
-1.16972
20
-1.05574
11
-1.16975
21
-1.05573
0
LINE
8
BLACK
6
CONTINUOUS
10
-1.16975
20
-1.05573
11
-1.22329
21
-0.993032
0
LINE
8
BLACK
6
CONTINUOUS
10
-1.22329
20
-0.993032
11
-1.2233
21
-0.993006
0
LINE
8
BLACK
6
CONTINUOUS
10
-1.2233
20
-0.993006
11
-1.22332
21
-0.992992
0
LINE
8
BLACK
6
CONTINUOUS
10
-1.22332
20
-0.992992
11
-1.27352
21
-0.927583
0
LINE
8
BLACK
6
CONTINUOUS
10
-1.27352
20
-0.927583
11
-1.27352
21
-0.927556
0
LINE
8
BLACK
6
CONTINUOUS
10
-1.27352
20
-0.927556
11
-1.27355
21
-0.927541
0
LINE
8
BLACK
6
CONTINUOUS
10
-1.27355
20
-0.927541
11
-1.32024
21
-0.859596
0
LINE
8
BLACK
6
CONTINUOUS
10
-1.32024
20
-0.859596
11
-1.32025
21
-0.859569
0
LINE
8
BLACK
6
CONTINUOUS
10
-1.32025
20
-0.859569
11
-1.32027
21
-0.859553
0
LINE
8
BLACK
6
CONTINUOUS
10
-1.32027
20
-0.859553
11
-1.36335
21
-0.789254
0
LINE
8
BLACK
6
CONTINUOUS
10
-1.36335
20
-0.789254
11
-1.36336
21
-0.789227
0
LINE
8
BLACK
6
CONTINUOUS
10
-1.36336
20
-0.789227
11
-1.36338
21
-0.789209
0
LINE
8
BLACK
6
CONTINUOUS
10
-1.36338
20
-0.789209
11
-1.40272
21
-0.716753
0
LINE
8
BLACK
6
CONTINUOUS
10
-1.40272
20
-0.716753
11
-1.40272
21
-0.716725
0
LINE
8
BLACK
6
CONTINUOUS
10
-1.40272
20
-0.716725
11
-1.40274
21
-0.716707
0
LINE
8
BLACK
6
CONTINUOUS
10
-1.40274
20
-0.716707
11
-1.43823
21
-0.642293
0
LINE
8
BLACK
6
CONTINUOUS
10
-1.43823
20
-0.642293
11
-1.43824
21
-0.642266
0
LINE
8
BLACK
6
CONTINUOUS
10
-1.43824
20
-0.642266
11
-1.43826
21
-0.642246
0
LINE
8
BLACK
6
CONTINUOUS
10
-1.43826
20
-0.642246
11
-1.46981
21
-0.566073
0
LINE
8
BLACK
6
CONTINUOUS
10
-1.46981
20
-0.566073
11
-1.46981
21
-0.566046
0
LINE
8
BLACK
6
CONTINUOUS
10
-1.46981
20
-0.566046
11
-1.46983
21
-0.566025
0
LINE
8
BLACK
6
CONTINUOUS
10
-1.46983
20
-0.566025
11
-1.49735
21
-0.488309
0
LINE
8
BLACK
6
CONTINUOUS
10
-1.49735
20
-0.488309
11
-1.49735
21
-0.488281
0
LINE
8
BLACK
6
CONTINUOUS
10
-1.49735
20
-0.488281
11
-1.49737
21
-0.488259
0
LINE
8
BLACK
6
CONTINUOUS
10
-1.49737
20
-0.488259
11
-1.52078
21
-0.409208
0
LINE
8
BLACK
6
CONTINUOUS
10
-1.52078
20
-0.409208
11
-1.52078
21
-0.409181
0
LINE
8
BLACK
6
CONTINUOUS
10
-1.52078
20
-0.409181
11
-1.52079
21
-0.409159
0
LINE
8
BLACK
6
CONTINUOUS
10
-1.52079
20
-0.409159
11
-1.54004
21
-0.328988
0
LINE
8
BLACK
6
CONTINUOUS
10
-1.54004
20
-0.328988
11
-1.54004
21
-0.328961
0
LINE
8
BLACK
6
CONTINUOUS
10
-1.54004
20
-0.328961
11
-1.54005
21
-0.328938
0
LINE
8
BLACK
6
CONTINUOUS
10
-1.54005
20
-0.328938
11
-1.55507
21
-0.247871
0
LINE
8
BLACK
6
CONTINUOUS
10
-1.55507
20
-0.247871
11
-1.55507
21
-0.247844
0
LINE
8
BLACK
6
CONTINUOUS
10
-1.55507
20
-0.247844
11
-1.55508
21
-0.24782
0
LINE
8
BLACK
6
CONTINUOUS
10
-1.55508
20
-0.24782
11
-1.56585
21
-0.166079
0
LINE
8
BLACK
6
CONTINUOUS
10
-1.56585
20
-0.166079
11
-1.56584
21
-0.166052
0
LINE
8
BLACK
6
CONTINUOUS
10
-1.56584
20
-0.166052
11
-1.56585
21
-0.166027
0
LINE
8
BLACK
6
CONTINUOUS
10
-1.56585
20
-0.166027
11
-1.57232
21
-0.0838344
0
LINE
8
BLACK
6
CONTINUOUS
10
-1.57232
20
-0.0838344
11
-1.57231
21
-0.0838081
0
LINE
8
BLACK
6
CONTINUOUS
10
-1.57231
20
-0.0838081
11
-1.57232
21
-0.083783
0
LINE
8
BLACK
6
CONTINUOUS
10
-1.57232
20
-0.083783
11
-1.57448
21
-0.00136402
0
LINE
8
BLACK
6
CONTINUOUS
10
-1.57448
20
-0.00136402
11
-1.57447
21
-0.00133827
0
LINE
8
BLACK
6
CONTINUOUS
10
-1.57447
20
-0.00133827
11
-1.57448
21
-0.00131252
0
LINE
8
BLACK
6
CONTINUOUS
10
-1.57448
20
-0.00131252
11
-1.57232
21
0.0811064
0
LINE
8
BLACK
6
CONTINUOUS
10
-1.57232
20
0.0811064
11
-1.57231
21
0.0811316
0
LINE
8
BLACK
6
CONTINUOUS
10
-1.57231
20
0.0811316
11
-1.57232
21
0.0811579
0
LINE
8
BLACK
6
CONTINUOUS
10
-1.57232
20
0.0811579
11
-1.56585
21
0.163351
0
LINE
8
BLACK
6
CONTINUOUS
10
-1.56585
20
0.163351
11
-1.56584
21
0.163375
0
LINE
8
BLACK
6
CONTINUOUS
10
-1.56584
20
0.163375
11
-1.56585
21
0.163402
0
LINE
8
BLACK
6
CONTINUOUS
10
-1.56585
20
0.163402
11
-1.55508
21
0.245144
0
LINE
8
BLACK
6
CONTINUOUS
10
-1.55508
20
0.245144
11
-1.55507
21
0.245168
0
LINE
8
BLACK
6
CONTINUOUS
10
-1.55507
20
0.245168
11
-1.55507
21
0.245195
0
LINE
8
BLACK
6
CONTINUOUS
10
-1.55507
20
0.245195
11
-1.54005
21
0.326261
0
LINE
8
BLACK
6
CONTINUOUS
10
-1.54005
20
0.326261
11
-1.54004
21
0.326284
0
LINE
8
BLACK
6
CONTINUOUS
10
-1.54004
20
0.326284
11
-1.54004
21
0.326312
0
LINE
8
BLACK
6
CONTINUOUS
10
-1.54004
20
0.326312
11
-1.52079
21
0.406482
0
LINE
8
BLACK
6
CONTINUOUS
10
-1.52079
20
0.406482
11
-1.52078
21
0.406504
0
LINE
8
BLACK
6
CONTINUOUS
10
-1.52078
20
0.406504
11
-1.52078
21
0.406532
0
LINE
8
BLACK
6
CONTINUOUS
10
-1.52078
20
0.406532
11
-1.49737
21
0.485583
0
LINE
8
BLACK
6
CONTINUOUS
10
-1.49737
20
0.485583
11
-1.49735
21
0.485604
0
LINE
8
BLACK
6
CONTINUOUS
10
-1.49735
20
0.485604
11
-1.49735
21
0.485632
0
LINE
8
BLACK
6
CONTINUOUS
10
-1.49735
20
0.485632
11
-1.46983
21
0.563348
0
LINE
8
BLACK
6
CONTINUOUS
10
-1.46983
20
0.563348
11
-1.46981
21
0.563369
0
LINE
8
BLACK
6
CONTINUOUS
10
-1.46981
20
0.563369
11
-1.46981
21
0.563396
0
LINE
8
BLACK
6
CONTINUOUS
10
-1.46981
20
0.563396
11
-1.43826
21
0.63957
0
LINE
8
BLACK
6
CONTINUOUS
10
-1.43826
20
0.63957
11
-1.43824
21
0.639589
0
LINE
8
BLACK
6
CONTINUOUS
10
-1.43824
20
0.639589
11
-1.43823
21
0.639617
0
LINE
8
BLACK
6
CONTINUOUS
10
-1.43823
20
0.639617
11
-1.40274
21
0.71403
0
LINE
8
BLACK
6
CONTINUOUS
10
-1.40274
20
0.71403
11
-1.40272
21
0.714049
0
LINE
8
BLACK
6
CONTINUOUS
10
-1.40272
20
0.714049
11
-1.40272
21
0.714076
0
LINE
8
BLACK
6
CONTINUOUS
10
-1.40272
20
0.714076
11
-1.36338
21
0.786533
0
LINE
8
BLACK
6
CONTINUOUS
10
-1.36338
20
0.786533
11
-1.36336
21
0.78655
0
LINE
8
BLACK
6
CONTINUOUS
10
-1.36336
20
0.78655
11
-1.36335
21
0.786577
0
LINE
8
BLACK
6
CONTINUOUS
10
-1.36335
20
0.786577
11
-1.32027
21
0.856877
0
LINE
8
BLACK
6
CONTINUOUS
10
-1.32027
20
0.856877
11
-1.32025
21
0.856893
0
LINE
8
BLACK
6
CONTINUOUS
10
-1.32025
20
0.856893
11
-1.32024
21
0.85692
0
LINE
8
BLACK
6
CONTINUOUS
10
-1.32024
20
0.85692
11
-1.27355
21
0.924865
0
LINE
8
BLACK
6
CONTINUOUS
10
-1.27355
20
0.924865
11
-1.27352
21
0.92488
0
LINE
8
BLACK
6
CONTINUOUS
10
-1.27352
20
0.92488
11
-1.27352
21
0.924906
0
LINE
8
BLACK
6
CONTINUOUS
10
-1.27352
20
0.924906
11
-1.22332
21
0.990316
0
LINE
8
BLACK
6
CONTINUOUS
10
-1.22332
20
0.990316
11
-1.2233
21
0.99033
0
LINE
8
BLACK
6
CONTINUOUS
10
-1.2233
20
0.99033
11
-1.22329
21
0.990356
0
LINE
8
BLACK
6
CONTINUOUS
10
-1.22329
20
0.990356
11
-1.16975
21
1.05305
0
LINE
8
BLACK
6
CONTINUOUS
10
-1.16975
20
1.05305
11
-1.16972
21
1.05306
0
LINE
8
BLACK
6
CONTINUOUS
10
-1.16972
20
1.05306
11
-1.16971
21
1.05309
0
LINE
8
BLACK
6
CONTINUOUS
10
-1.16971
20
1.05309
11
-1.11296
21
1.11289
0
LINE
8
BLACK
6
CONTINUOUS
10
-1.11296
20
1.11289
11
-1.11294
21
1.11291
0
LINE
8
BLACK
6
CONTINUOUS
10
-1.11294
20
1.11291
11
-1.11293
21
1.11293
0
LINE
8
BLACK
6
CONTINUOUS
10
-1.11293
20
1.11293
11
-1.05312
21
1.16968
0
LINE
8
BLACK
6
CONTINUOUS
10
-1.05312
20
1.16968
11
-1.05309
21
1.16969
0
LINE
8
BLACK
6
CONTINUOUS
10
-1.05309
20
1.16969
11
-1.05308
21
1.16972
0
LINE
8
BLACK
6
CONTINUOUS
10
-1.05308
20
1.16972
11
-0.990387
21
1.22326
0
LINE
8
BLACK
6
CONTINUOUS
10
-0.990387
20
1.22326
11
-0.990361
21
1.22327
0
LINE
8
BLACK
6
CONTINUOUS
10
-0.990361
20
1.22327
11
-0.990347
21
1.22329
0
LINE
8
BLACK
6
CONTINUOUS
10
-0.990347
20
1.22329
11
-0.924938
21
1.27349
0
LINE
8
BLACK
6
CONTINUOUS
10
-0.924938
20
1.27349
11
-0.924911
21
1.27349
0
LINE
8
BLACK
6
CONTINUOUS
10
-0.924911
20
1.27349
11
-0.924896
21
1.27352
0
LINE
8
BLACK
6
CONTINUOUS
10
-0.924896
20
1.27352
11
-0.856951
21
1.32021
0
LINE
8
BLACK
6
CONTINUOUS
10
-0.856951
20
1.32021
11
-0.856924
21
1.32022
0
LINE
8
BLACK
6
CONTINUOUS
10
-0.856924
20
1.32022
11
-0.856908
21
1.32024
0
LINE
8
BLACK
6
CONTINUOUS
10
-0.856908
20
1.32024
11
-0.786609
21
1.36332
0
LINE
8
BLACK
6
CONTINUOUS
10
-0.786609
20
1.36332
11
-0.786582
21
1.36332
0
LINE
8
BLACK
6
CONTINUOUS
10
-0.786582
20
1.36332
11
-0.786564
21
1.36335
0
LINE
8
BLACK
6
CONTINUOUS
10
-0.786564
20
1.36335
11
-0.714108
21
1.40269
0
LINE
8
BLACK
6
CONTINUOUS
10
-0.714108
20
1.40269
11
-0.71408
21
1.40269
0
LINE
8
BLACK
6
CONTINUOUS
10
-0.71408
20
1.40269
11
-0.714062
21
1.40271
0
LINE
8
BLACK
6
CONTINUOUS
10
-0.714062
20
1.40271
11
-0.639648
21
1.4382
0
LINE
8
BLACK
6
CONTINUOUS
10
-0.639648
20
1.4382
11
-0.639621
21
1.4382
0
LINE
8
BLACK
6
CONTINUOUS
10
-0.639621
20
1.4382
11
-0.639601
21
1.43822
0
LINE
8
BLACK
6
CONTINUOUS
10
-0.639601
20
1.43822
11
-0.563428
21
1.46978
0
LINE
8
BLACK
6
CONTINUOUS
10
-0.563428
20
1.46978
11
-0.5634
21
1.46978
0
LINE
8
BLACK
6
CONTINUOUS
10
-0.5634
20
1.46978
11
-0.56338
21
1.46979
0
LINE
8
BLACK
6
CONTINUOUS
10
-0.56338
20
1.46979
11
-0.485663
21
1.49732
0
LINE
8
BLACK
6
CONTINUOUS
10
-0.485663
20
1.49732
11
-0.485636
21
1.49732
0
LINE
8
BLACK
6
CONTINUOUS
10
-0.485636
20
1.49732
11
-0.485614
21
1.49733
0
LINE
8
BLACK
6
CONTINUOUS
10
-0.485614
20
1.49733
11
-0.406563
21
1.52075
0
LINE
8
BLACK
6
CONTINUOUS
10
-0.406563
20
1.52075
11
-0.406536
21
1.52074
0
LINE
8
BLACK
6
CONTINUOUS
10
-0.406536
20
1.52074
11
-0.406514
21
1.52076
0
LINE
8
BLACK
6
CONTINUOUS
10
-0.406514
20
1.52076
11
-0.326343
21
1.54001
0
LINE
8
BLACK
6
CONTINUOUS
10
-0.326343
20
1.54001
11
-0.326316
21
1.54
0
LINE
8
BLACK
6
CONTINUOUS
10
-0.326316
20
1.54
11
-0.326293
21
1.54002
0
LINE
8
BLACK
6
CONTINUOUS
10
-0.326293
20
1.54002
11
-0.245226
21
1.55504
0
LINE
8
BLACK
6
CONTINUOUS
10
-0.245226
20
1.55504
11
-0.245199
21
1.55504
0
LINE
8
BLACK
6
CONTINUOUS
10
-0.245199
20
1.55504
11
-0.245175
21
1.55505
0
LINE
8
BLACK
6
CONTINUOUS
10
-0.245175
20
1.55505
11
-0.163434
21
1.56581
0
LINE
8
BLACK
6
CONTINUOUS
10
-0.163434
20
1.56581
11
-0.163407
21
1.56581
0
LINE
8
BLACK
6
CONTINUOUS
10
-0.163407
20
1.56581
11
-0.163382
21
1.56582
0
LINE
8
BLACK
6
CONTINUOUS
10
-0.163382
20
1.56582
11
-0.0811894
21
1.57229
0
LINE
8
BLACK
6
CONTINUOUS
10
-0.0811894
20
1.57229
11
-0.0811631
21
1.57228
0
LINE
8
BLACK
6
CONTINUOUS
10
-0.0811631
20
1.57228
11
-0.0811379
21
1.57229
0
LINE
8
BLACK
6
CONTINUOUS
10
-0.0811379
20
1.57229
11
0.00128102
21
1.57445
0
LINE
8
BLACK
6
CONTINUOUS
10
0.00128102
20
1.57445
11
0.00130677
21
1.57444
0
LINE
8
BLACK
6
CONTINUOUS
10
0.00130677
20
1.57444
11
0.00133252
21
1.57445
0
LINE
8
BLACK
6
CONTINUOUS
10
0.00133252
20
1.57445
11
0.0837515
21
1.57229
0
LINE
8
BLACK
6
CONTINUOUS
10
-0.0810603
20
1.57032
11
-0.163202
21
1.56386
0
LINE
8
BLACK
6
CONTINUOUS
10
-0.163202
20
1.56386
11
-0.244892
21
1.5531
0
LINE
8
BLACK
6
CONTINUOUS
10
-0.244892
20
1.5531
11
-0.325908
21
1.53809
0
LINE
8
BLACK
6
CONTINUOUS
10
-0.325908
20
1.53809
11
-0.406029
21
1.51885
0
LINE
8
BLACK
6
CONTINUOUS
10
-0.406029
20
1.51885
11
-0.485031
21
1.49545
0
LINE
8
BLACK
6
CONTINUOUS
10
-0.485031
20
1.49545
11
-0.562699
21
1.46795
0
LINE
8
BLACK
6
CONTINUOUS
10
-0.562699
20
1.46795
11
-0.638824
21
1.43642
0
LINE
8
BLACK
6
CONTINUOUS
10
-0.638824
20
1.43642
11
-0.713191
21
1.40095
0
LINE
8
BLACK
6
CONTINUOUS
10
-0.713191
20
1.40095
11
-0.785602
21
1.36163
0
LINE
8
BLACK
6
CONTINUOUS
10
-0.785602
20
1.36163
11
-0.855858
21
1.31858
0
LINE
8
BLACK
6
CONTINUOUS
10
-0.855858
20
1.31858
11
-0.92376
21
1.27191
0
LINE
8
BLACK
6
CONTINUOUS
10
-0.92376
20
1.27191
11
-0.989129
21
1.22175
0
LINE
8
BLACK
6
CONTINUOUS
10
-0.989129
20
1.22175
11
-1.05178
21
1.16824
0
LINE
8
BLACK
6
CONTINUOUS
10
-1.05178
20
1.16824
11
-1.11155
21
1.11152
0
LINE
8
BLACK
6
CONTINUOUS
10
-1.11155
20
1.11152
11
-1.16827
21
1.05175
0
LINE
8
BLACK
6
CONTINUOUS
10
-1.16827
20
1.05175
11
-1.22178
21
0.989097
0
LINE
8
BLACK
6
CONTINUOUS
10
-1.22178
20
0.989097
11
-1.27194
21
0.923728
0
LINE
8
BLACK
6
CONTINUOUS
10
-1.27194
20
0.923728
11
-1.31861
21
0.855826
0
LINE
8
BLACK
6
CONTINUOUS
10
-1.31861
20
0.855826
11
-1.36166
21
0.785571
0
LINE
8
BLACK
6
CONTINUOUS
10
-1.36166
20
0.785571
11
-1.40098
21
0.71316
0
LINE
8
BLACK
6
CONTINUOUS
10
-1.40098
20
0.71316
11
-1.43645
21
0.638793
0
LINE
8
BLACK
6
CONTINUOUS
10
-1.43645
20
0.638793
11
-1.46798
21
0.562667
0
LINE
8
BLACK
6
CONTINUOUS
10
-1.46798
20
0.562667
11
-1.49548
21
0.484999
0
LINE
8
BLACK
6
CONTINUOUS
10
-1.49548
20
0.484999
11
-1.51888
21
0.405997
0
LINE
8
BLACK
6
CONTINUOUS
10
-1.51888
20
0.405997
11
-1.53812
21
0.325877
0
LINE
8
BLACK
6
CONTINUOUS
10
-1.53812
20
0.325877
11
-1.55313
21
0.244862
0
LINE
8
BLACK
6
CONTINUOUS
10
-1.55313
20
0.244862
11
-1.56389
21
0.163171
0
LINE
8
BLACK
6
CONTINUOUS
10
-1.56389
20
0.163171
11
-1.57036
21
0.0810288
0
LINE
8
BLACK
6
CONTINUOUS
10
-1.57036
20
0.0810288
11
-1.57251
21
-0.00133823
0
LINE
8
BLACK
6
CONTINUOUS
10
-1.57251
20
-0.00133823
11
-1.57036
21
-0.0837053
0
LINE
8
BLACK
6
CONTINUOUS
10
-1.57036
20
-0.0837053
11
-1.56389
21
-0.165847
0
LINE
8
BLACK
6
CONTINUOUS
10
-1.56389
20
-0.165847
11
-1.55313
21
-0.247538
0
LINE
8
BLACK
6
CONTINUOUS
10
-1.55313
20
-0.247538
11
-1.53812
21
-0.328554
0
LINE
8
BLACK
6
CONTINUOUS
10
-1.53812
20
-0.328554
11
-1.51888
21
-0.408674
0
LINE
8
BLACK
6
CONTINUOUS
10
-1.51888
20
-0.408674
11
-1.49549
21
-0.487676
0
LINE
8
BLACK
6
CONTINUOUS
10
-1.49549
20
-0.487676
11
-1.46798
21
-0.565344
0
LINE
8
BLACK
6
CONTINUOUS
10
-1.46798
20
-0.565344
11
-1.43645
21
-0.641469
0
LINE
8
BLACK
6
CONTINUOUS
10
-1.43645
20
-0.641469
11
-1.40098
21
-0.715836
0
LINE
8
BLACK
6
CONTINUOUS
10
-1.40098
20
-0.715836
11
-1.36166
21
-0.788248
0
LINE
8
BLACK
6
CONTINUOUS
10
-1.36166
20
-0.788248
11
-1.31861
21
-0.858503
0
LINE
8
BLACK
6
CONTINUOUS
10
-1.31861
20
-0.858503
11
-1.27194
21
-0.926405
0
LINE
8
BLACK
6
CONTINUOUS
10
-1.27194
20
-0.926405
11
-1.22178
21
-0.991774
0
LINE
8
BLACK
6
CONTINUOUS
10
-1.22178
20
-0.991774
11
-1.16827
21
-1.05443
0
LINE
8
BLACK
6
CONTINUOUS
10
-1.16827
20
-1.05443
11
-1.11155
21
-1.1142
0
LINE
8
BLACK
6
CONTINUOUS
10
-1.11155
20
-1.1142
11
-1.05178
21
-1.17091
0
LINE
8
BLACK
6
CONTINUOUS
10
-1.05178
20
-1.17091
11
-0.989129
21
-1.22442
0
LINE
8
BLACK
6
CONTINUOUS
10
-0.989129
20
-1.22442
11
-0.92376
21
-1.27459
0
LINE
8
BLACK
6
CONTINUOUS
10
-0.92376
20
-1.27459
11
-0.855858
21
-1.32125
0
LINE
8
BLACK
6
CONTINUOUS
10
-0.855858
20
-1.32125
11
-0.785602
21
-1.3643
0
LINE
8
BLACK
6
CONTINUOUS
10
-0.785602
20
-1.3643
11
-0.713191
21
-1.40362
0
LINE
8
BLACK
6
CONTINUOUS
10
-0.713191
20
-1.40362
11
-0.638824
21
-1.43909
0
LINE
8
BLACK
6
CONTINUOUS
10
-0.638824
20
-1.43909
11
-0.562699
21
-1.47062
0
LINE
8
BLACK
6
CONTINUOUS
10
-0.562699
20
-1.47062
11
-0.485031
21
-1.49813
0
LINE
8
BLACK
6
CONTINUOUS
10
-0.485031
20
-1.49813
11
-0.406029
21
-1.52153
0
LINE
8
BLACK
6
CONTINUOUS
10
-0.406029
20
-1.52153
11
-0.325908
21
-1.54076
0
LINE
8
BLACK
6
CONTINUOUS
10
-0.325908
20
-1.54076
11
-0.244892
21
-1.55578
0
LINE
8
BLACK
6
CONTINUOUS
10
-0.244892
20
-1.55578
11
-0.163202
21
-1.56654
0
LINE
8
BLACK
6
CONTINUOUS
10
-0.163202
20
-1.56654
11
-0.0810602
21
-1.573
0
LINE
8
BLACK
6
CONTINUOUS
10
-0.0810602
20
-1.573
11
0.00130677
21
-1.57516
0
LINE
8
BLACK
6
CONTINUOUS
10
0.00130677
20
-1.57516
11
0.0836738
21
-1.573
0
LINE
8
BLACK
6
CONTINUOUS
10
0.0836738
20
-1.573
11
0.165816
21
-1.56654
0
LINE
8
BLACK
6
CONTINUOUS
10
0.165816
20
-1.56654
11
0.247507
21
-1.55578
0
LINE
8
BLACK
6
CONTINUOUS
10
0.247507
20
-1.55578
11
0.328522
21
-1.54076
0
LINE
8
BLACK
6
CONTINUOUS
10
0.328522
20
-1.54076
11
0.408642
21
-1.52153
0
LINE
8
BLACK
6
CONTINUOUS
10
0.408642
20
-1.52153
11
0.487644
21
-1.49813
0
LINE
8
BLACK
6
CONTINUOUS
10
0.487644
20
-1.49813
11
0.565312
21
-1.47062
0
LINE
8
BLACK
6
CONTINUOUS
10
0.565312
20
-1.47062
11
0.641438
21
-1.43909
0
LINE
8
BLACK
6
CONTINUOUS
10
0.641438
20
-1.43909
11
0.715805
21
-1.40362
0
LINE
8
BLACK
6
CONTINUOUS
10
0.715805
20
-1.40362
11
0.788216
21
-1.3643
0
LINE
8
BLACK
6
CONTINUOUS
10
0.788216
20
-1.3643
11
0.858471
21
-1.32125
0
LINE
8
BLACK
6
CONTINUOUS
10
0.858471
20
-1.32125
11
0.926373
21
-1.27459
0
LINE
8
BLACK
6
CONTINUOUS
10
0.926373
20
-1.27459
11
0.991742
21
-1.22442
0
LINE
8
BLACK
6
CONTINUOUS
10
0.991742
20
-1.22442
11
1.0544
21
-1.17091
0
LINE
8
BLACK
6
CONTINUOUS
10
1.0544
20
-1.17091
11
1.11417
21
-1.1142
0
LINE
8
BLACK
6
CONTINUOUS
10
1.11417
20
-1.1142
11
1.17088
21
-1.05443
0
LINE
8
BLACK
6
CONTINUOUS
10
1.17088
20
-1.05443
11
1.22439
21
-0.991774
0
LINE
8
BLACK
6
CONTINUOUS
10
1.22439
20
-0.991774
11
1.27455
21
-0.926404
0
LINE
8
BLACK
6
CONTINUOUS
10
1.27455
20
-0.926404
11
1.32122
21
-0.858502
0
LINE
8
BLACK
6
CONTINUOUS
10
1.32122
20
-0.858502
11
1.36427
21
-0.788248
0
LINE
8
BLACK
6
CONTINUOUS
10
1.36427
20
-0.788248
11
1.40359
21
-0.715836
0
LINE
8
BLACK
6
CONTINUOUS
10
1.40359
20
-0.715836
11
1.43906
21
-0.641469
0
LINE
8
BLACK
6
CONTINUOUS
10
1.43906
20
-0.641469
11
1.47059
21
-0.565344
0
LINE
8
BLACK
6
CONTINUOUS
10
1.47059
20
-0.565344
11
1.4981
21
-0.487676
0
LINE
8
BLACK
6
CONTINUOUS
10
1.4981
20
-0.487676
11
1.5215
21
-0.408673
0
LINE
8
BLACK
6
CONTINUOUS
10
1.5215
20
-0.408673
11
1.54073
21
-0.328553
0
LINE
8
BLACK
6
CONTINUOUS
10
1.54073
20
-0.328553
11
1.55575
21
-0.247538
0
LINE
8
BLACK
6
CONTINUOUS
10
1.55575
20
-0.247538
11
1.5665
21
-0.165847
0
LINE
8
BLACK
6
CONTINUOUS
10
1.5665
20
-0.165847
11
1.57297
21
-0.0837052
0
LINE
8
BLACK
6
CONTINUOUS
10
1.57297
20
-0.0837052
11
1.57513
21
-0.00133827
0
LINE
8
BLACK
6
CONTINUOUS
10
1.57513
20
-0.00133827
11
1.57297
21
0.0810287
0
LINE
8
BLACK
6
CONTINUOUS
10
1.57297
20
0.0810287
11
1.5665
21
0.163171
0
LINE
8
BLACK
6
CONTINUOUS
10
1.5665
20
0.163171
11
1.55575
21
0.244861
0
LINE
8
BLACK
6
CONTINUOUS
10
1.55575
20
0.244861
11
1.54073
21
0.325877
0
LINE
8
BLACK
6
CONTINUOUS
10
1.54073
20
0.325877
11
1.5215
21
0.405997
0
LINE
8
BLACK
6
CONTINUOUS
10
1.5215
20
0.405997
11
1.4981
21
0.484999
0
LINE
8
BLACK
6
CONTINUOUS
10
1.4981
20
0.484999
11
1.47059
21
0.562667
0
LINE
8
BLACK
6
CONTINUOUS
10
1.47059
20
0.562667
11
1.43906
21
0.638792
0
LINE
8
BLACK
6
CONTINUOUS
10
1.43906
20
0.638792
11
1.40359
21
0.71316
0
LINE
8
BLACK
6
CONTINUOUS
10
1.40359
20
0.71316
11
1.36427
21
0.785571
0
LINE
8
BLACK
6
CONTINUOUS
10
1.36427
20
0.785571
11
1.32122
21
0.855827
0
LINE
8
BLACK
6
CONTINUOUS
10
1.32122
20
0.855827
11
1.27455
21
0.923728
0
LINE
8
BLACK
6
CONTINUOUS
10
1.27455
20
0.923728
11
1.22439
21
0.989097
0
LINE
8
BLACK
6
CONTINUOUS
10
1.22439
20
0.989097
11
1.17088
21
1.05175
0
LINE
8
BLACK
6
CONTINUOUS
10
1.17088
20
1.05175
11
1.11417
21
1.11152
0
LINE
8
BLACK
6
CONTINUOUS
10
1.11417
20
1.11152
11
1.0544
21
1.16824
0
LINE
8
BLACK
6
CONTINUOUS
10
1.0544
20
1.16824
11
0.991742
21
1.22175
0
LINE
8
BLACK
6
CONTINUOUS
10
0.991742
20
1.22175
11
0.926373
21
1.27191
0
LINE
8
BLACK
6
CONTINUOUS
10
0.926373
20
1.27191
11
0.858471
21
1.31858
0
LINE
8
BLACK
6
CONTINUOUS
10
0.858471
20
1.31858
11
0.788216
21
1.36163
0
LINE
8
BLACK
6
CONTINUOUS
10
0.788216
20
1.36163
11
0.715805
21
1.40095
0
LINE
8
BLACK
6
CONTINUOUS
10
0.715805
20
1.40095
11
0.641438
21
1.43642
0
LINE
8
BLACK
6
CONTINUOUS
10
0.641438
20
1.43642
11
0.565312
21
1.46795
0
LINE
8
BLACK
6
CONTINUOUS
10
0.565312
20
1.46795
11
0.487644
21
1.49545
0
LINE
8
BLACK
6
CONTINUOUS
10
0.487644
20
1.49545
11
0.408642
21
1.51885
0
LINE
8
BLACK
6
CONTINUOUS
10
0.408642
20
1.51885
11
0.328522
21
1.53809
0
LINE
8
BLACK
6
CONTINUOUS
10
0.328522
20
1.53809
11
0.247507
21
1.5531
0
LINE
8
BLACK
6
CONTINUOUS
10
0.247507
20
1.5531
11
0.165816
21
1.56386
0
LINE
8
BLACK
6
CONTINUOUS
10
0.165816
20
1.56386
11
0.0836738
21
1.57032
0
LINE
8
BLACK
6
CONTINUOUS
10
0.0836738
20
1.57032
11
0.00130673
21
1.57248
0
LINE
8
BLACK
6
CONTINUOUS
10
0.00130673
20
1.57248
11
-0.0810603
21
1.57032
  0
ENDSEC
  0
EOF
