  0
SECTION
  2
HEADER
  9
$ANGBASE
  50
0.0
  9
$ANGDIR
  70
1
  9
$MEASUREMENT
  70
0
  0
ENDSEC
  0
SECTION
  2
TABLES
  0
TABLE
  2
LTYPE
  70
4
  0
LTYPE
  5
40F
  2
CONTINUOUS
  70
0
  3
Solid line
  72
65
  73
0
  40
0.0
  0
LTYPE
  5
410
  2
DASHDOT
 70
0
  3
Dash Dot ____ _ ____ _
 72
65
 73
4
 40
2.0
 49
1.25
 49
-0.25
 49
0.25
 49
-0.25
  0
LTYPE
  5
411
  2
DASHED
 70
0
  3
Dashed __ __ __ __ __
 72
65
 73
2
 40
0.75
 49
0.5
 49
-0.25
  0
LTYPE
  5
43B
  2
DOTTED
 70
0
  3
Dotted .  .  .  .
 72
65
 73
2
 40
0.2
 49
0.0
 49
-0.2
  0
ENDTAB
  0
TABLE
  2
STYLE
  70
4
  0
STYLE
  2
KICAD
  70
0
  40
0
  41
1
  42
1
  50
0
  71
0
  3
isocp.shx
  0
STYLE
  2
KICADB
  70
0
  40
0
  41
1
  42
1
  50
0
  71
0
  3
isocp.shx
  0
STYLE
  2
KICADI
  70
0
  40
0
  41
1
  42
1
  50
15
  71
0
  3
isocp.shx
  0
STYLE
  2
KICADBI
  70
0
  40
0
  41
1
  42
1
  50
15
  71
0
  3
isocp.shx
  0
ENDTAB
  0
TABLE
  2
LAYER
  70
1
  0
LAYER
  2
BLACK
  70
0
  62
7
  6
CONTINUOUS
  0
ENDTAB
  0
ENDSEC
  0
SECTION
  2
ENTITIES
0
LINE
8
BLACK
6
CONTINUOUS
10
0.0836487
20
1.57131
11
0.0838021
21
1.5713
0
LINE
8
BLACK
6
CONTINUOUS
10
0.0838021
20
1.5713
11
0.165842
21
1.56484
0
LINE
8
BLACK
6
CONTINUOUS
10
0.165842
20
1.56484
11
0.165995
21
1.56483
0
LINE
8
BLACK
6
CONTINUOUS
10
0.165995
20
1.56483
11
0.247585
21
1.55408
0
LINE
8
BLACK
6
CONTINUOUS
10
0.247585
20
1.55408
11
0.247736
21
1.55406
0
LINE
8
BLACK
6
CONTINUOUS
10
0.247736
20
1.55406
11
0.328651
21
1.53907
0
LINE
8
BLACK
6
CONTINUOUS
10
0.328651
20
1.53907
11
0.328801
21
1.53903
0
LINE
8
BLACK
6
CONTINUOUS
10
0.328801
20
1.53903
11
0.408823
21
1.51982
0
LINE
8
BLACK
6
CONTINUOUS
10
0.408823
20
1.51982
11
0.408971
21
1.51978
0
LINE
8
BLACK
6
CONTINUOUS
10
0.408971
20
1.51978
11
0.487874
21
1.49641
0
LINE
8
BLACK
6
CONTINUOUS
10
0.487874
20
1.49641
11
0.488021
21
1.49636
0
LINE
8
BLACK
6
CONTINUOUS
10
0.488021
20
1.49636
11
0.565592
21
1.46889
0
LINE
8
BLACK
6
CONTINUOUS
10
0.565592
20
1.46889
11
0.565736
21
1.46884
0
LINE
8
BLACK
6
CONTINUOUS
10
0.565736
20
1.46884
11
0.641768
21
1.43734
0
LINE
8
BLACK
6
CONTINUOUS
10
0.641768
20
1.43734
11
0.641908
21
1.43728
0
LINE
8
BLACK
6
CONTINUOUS
10
0.641908
20
1.43728
11
0.716182
21
1.40186
0
LINE
8
BLACK
6
CONTINUOUS
10
0.716182
20
1.40186
11
0.716319
21
1.40179
0
LINE
8
BLACK
6
CONTINUOUS
10
0.716319
20
1.40179
11
0.788641
21
1.36252
0
LINE
8
BLACK
6
CONTINUOUS
10
0.788641
20
1.36252
11
0.788773
21
1.36244
0
LINE
8
BLACK
6
CONTINUOUS
10
0.788773
20
1.36244
11
0.858942
21
1.31944
0
LINE
8
BLACK
6
CONTINUOUS
10
0.858942
20
1.31944
11
0.859071
21
1.31936
0
LINE
8
BLACK
6
CONTINUOUS
10
0.859071
20
1.31936
11
0.926889
21
1.27275
0
LINE
8
BLACK
6
CONTINUOUS
10
0.926889
20
1.27275
11
0.927013
21
1.27266
0
LINE
8
BLACK
6
CONTINUOUS
10
0.927013
20
1.27266
11
0.9923
21
1.22256
0
LINE
8
BLACK
6
CONTINUOUS
10
0.9923
20
1.22256
11
0.99242
21
1.22246
0
LINE
8
BLACK
6
CONTINUOUS
10
0.99242
20
1.22246
11
1.055
21
1.16902
0
LINE
8
BLACK
6
CONTINUOUS
10
1.055
20
1.16902
11
1.05511
21
1.16892
0
LINE
8
BLACK
6
CONTINUOUS
10
1.05511
20
1.16892
11
1.11481
21
1.11227
0
LINE
8
BLACK
6
CONTINUOUS
10
1.11481
20
1.11227
11
1.11491
21
1.11216
0
LINE
8
BLACK
6
CONTINUOUS
10
1.11491
20
1.11216
11
1.17156
21
1.05247
0
LINE
8
BLACK
6
CONTINUOUS
10
1.17156
20
1.05247
11
1.17166
21
1.05235
0
LINE
8
BLACK
6
CONTINUOUS
10
1.17166
20
1.05235
11
1.22511
21
0.989775
0
LINE
8
BLACK
6
CONTINUOUS
10
1.22511
20
0.989775
11
1.2252
21
0.989655
0
LINE
8
BLACK
6
CONTINUOUS
10
1.2252
20
0.989655
11
1.2753
21
0.924369
0
LINE
8
BLACK
6
CONTINUOUS
10
1.2753
20
0.924369
11
1.27539
21
0.924244
0
LINE
8
BLACK
6
CONTINUOUS
10
1.27539
20
0.924244
11
1.322
21
0.856426
0
LINE
8
BLACK
6
CONTINUOUS
10
1.322
20
0.856426
11
1.32209
21
0.856297
0
LINE
8
BLACK
6
CONTINUOUS
10
1.32209
20
0.856297
11
1.36509
21
0.786128
0
LINE
8
BLACK
6
CONTINUOUS
10
1.36509
20
0.786128
11
1.36516
21
0.785996
0
LINE
8
BLACK
6
CONTINUOUS
10
1.36516
20
0.785996
11
1.40443
21
0.713674
0
LINE
8
BLACK
6
CONTINUOUS
10
1.40443
20
0.713674
11
1.4045
21
0.713537
0
LINE
8
BLACK
6
CONTINUOUS
10
1.4045
20
0.713537
11
1.43993
21
0.639263
0
LINE
8
BLACK
6
CONTINUOUS
10
1.43993
20
0.639263
11
1.43999
21
0.639123
0
LINE
8
BLACK
6
CONTINUOUS
10
1.43999
20
0.639123
11
1.47148
21
0.56309
0
LINE
8
BLACK
6
CONTINUOUS
10
1.47148
20
0.56309
11
1.47154
21
0.562947
0
LINE
8
BLACK
6
CONTINUOUS
10
1.47154
20
0.562947
11
1.49901
21
0.485376
0
LINE
8
BLACK
6
CONTINUOUS
10
1.49901
20
0.485376
11
1.49906
21
0.485229
0
LINE
8
BLACK
6
CONTINUOUS
10
1.49906
20
0.485229
11
1.52243
21
0.406326
0
LINE
8
BLACK
6
CONTINUOUS
10
1.52243
20
0.406326
11
1.52247
21
0.406178
0
LINE
8
BLACK
6
CONTINUOUS
10
1.52247
20
0.406178
11
1.54168
21
0.326156
0
LINE
8
BLACK
6
CONTINUOUS
10
1.54168
20
0.326156
11
1.54171
21
0.326006
0
LINE
8
BLACK
6
CONTINUOUS
10
1.54171
20
0.326006
11
1.55671
21
0.245091
0
LINE
8
BLACK
6
CONTINUOUS
10
1.55671
20
0.245091
11
1.55673
21
0.24494
0
LINE
8
BLACK
6
CONTINUOUS
10
1.55673
20
0.24494
11
1.56747
21
0.16335
0
LINE
8
BLACK
6
CONTINUOUS
10
1.56747
20
0.16335
11
1.56749
21
0.163197
0
LINE
8
BLACK
6
CONTINUOUS
10
1.56749
20
0.163197
11
1.57395
21
0.081157
0
LINE
8
BLACK
6
CONTINUOUS
10
1.57395
20
0.081157
11
1.57395
21
0.0810036
0
LINE
8
BLACK
6
CONTINUOUS
10
1.57395
20
0.0810036
11
1.57611
21
-0.00126142
0
LINE
8
BLACK
6
CONTINUOUS
10
1.57611
20
-0.00126142
11
1.57611
21
-0.00141504
0
LINE
8
BLACK
6
CONTINUOUS
10
1.57611
20
-0.00141504
11
1.57395
21
-0.0836801
0
LINE
8
BLACK
6
CONTINUOUS
10
1.57395
20
-0.0836801
11
1.57395
21
-0.0838335
0
LINE
8
BLACK
6
CONTINUOUS
10
1.57395
20
-0.0838335
11
1.56749
21
-0.165874
0
LINE
8
BLACK
6
CONTINUOUS
10
1.56749
20
-0.165874
11
1.56747
21
-0.166026
0
LINE
8
BLACK
6
CONTINUOUS
10
1.56747
20
-0.166026
11
1.55673
21
-0.247616
0
LINE
8
BLACK
6
CONTINUOUS
10
1.55673
20
-0.247616
11
1.55671
21
-0.247768
0
LINE
8
BLACK
6
CONTINUOUS
10
1.55671
20
-0.247768
11
1.54171
21
-0.328682
0
LINE
8
BLACK
6
CONTINUOUS
10
1.54171
20
-0.328682
11
1.54168
21
-0.328833
0
LINE
8
BLACK
6
CONTINUOUS
10
1.54168
20
-0.328833
11
1.52247
21
-0.408855
0
LINE
8
BLACK
6
CONTINUOUS
10
1.52247
20
-0.408855
11
1.52243
21
-0.409003
0
LINE
8
BLACK
6
CONTINUOUS
10
1.52243
20
-0.409003
11
1.49906
21
-0.487906
0
LINE
8
BLACK
6
CONTINUOUS
10
1.49906
20
-0.487906
11
1.49901
21
-0.488052
0
LINE
8
BLACK
6
CONTINUOUS
10
1.49901
20
-0.488052
11
1.47154
21
-0.565624
0
LINE
8
BLACK
6
CONTINUOUS
10
1.47154
20
-0.565624
11
1.47148
21
-0.565767
0
LINE
8
BLACK
6
CONTINUOUS
10
1.47148
20
-0.565767
11
1.43999
21
-0.641799
0
LINE
8
BLACK
6
CONTINUOUS
10
1.43999
20
-0.641799
11
1.43993
21
-0.641939
0
LINE
8
BLACK
6
CONTINUOUS
10
1.43993
20
-0.641939
11
1.4045
21
-0.716214
0
LINE
8
BLACK
6
CONTINUOUS
10
1.4045
20
-0.716214
11
1.40443
21
-0.716351
0
LINE
8
BLACK
6
CONTINUOUS
10
1.40443
20
-0.716351
11
1.36516
21
-0.788672
0
LINE
8
BLACK
6
CONTINUOUS
10
1.36516
20
-0.788672
11
1.36509
21
-0.788805
0
LINE
8
BLACK
6
CONTINUOUS
10
1.36509
20
-0.788805
11
1.32209
21
-0.858973
0
LINE
8
BLACK
6
CONTINUOUS
10
1.32209
20
-0.858973
11
1.322
21
-0.859102
0
LINE
8
BLACK
6
CONTINUOUS
10
1.322
20
-0.859102
11
1.27539
21
-0.92692
0
LINE
8
BLACK
6
CONTINUOUS
10
1.27539
20
-0.92692
11
1.2753
21
-0.927045
0
LINE
8
BLACK
6
CONTINUOUS
10
1.2753
20
-0.927045
11
1.2252
21
-0.992332
0
LINE
8
BLACK
6
CONTINUOUS
10
1.2252
20
-0.992332
11
1.22511
21
-0.992451
0
LINE
8
BLACK
6
CONTINUOUS
10
1.22511
20
-0.992451
11
1.17166
21
-1.05503
0
LINE
8
BLACK
6
CONTINUOUS
10
1.17166
20
-1.05503
11
1.17156
21
-1.05514
0
LINE
8
BLACK
6
CONTINUOUS
10
1.17156
20
-1.05514
11
1.11491
21
-1.11484
0
LINE
8
BLACK
6
CONTINUOUS
10
1.11491
20
-1.11484
11
1.11481
21
-1.11495
0
LINE
8
BLACK
6
CONTINUOUS
10
1.11481
20
-1.11495
11
1.05511
21
-1.17159
0
LINE
8
BLACK
6
CONTINUOUS
10
1.05511
20
-1.17159
11
1.055
21
-1.1717
0
LINE
8
BLACK
6
CONTINUOUS
10
1.055
20
-1.1717
11
0.99242
21
-1.22514
0
LINE
8
BLACK
6
CONTINUOUS
10
0.99242
20
-1.22514
11
0.992301
21
-1.22524
0
LINE
8
BLACK
6
CONTINUOUS
10
0.992301
20
-1.22524
11
0.927013
21
-1.27533
0
LINE
8
BLACK
6
CONTINUOUS
10
0.927013
20
-1.27533
11
0.926889
21
-1.27543
0
LINE
8
BLACK
6
CONTINUOUS
10
0.926889
20
-1.27543
11
0.859071
21
-1.32203
0
LINE
8
BLACK
6
CONTINUOUS
10
0.859071
20
-1.32203
11
0.858942
21
-1.32212
0
LINE
8
BLACK
6
CONTINUOUS
10
0.858942
20
-1.32212
11
0.788773
21
-1.36512
0
LINE
8
BLACK
6
CONTINUOUS
10
0.788773
20
-1.36512
11
0.788641
21
-1.36519
0
LINE
8
BLACK
6
CONTINUOUS
10
0.788641
20
-1.36519
11
0.716319
21
-1.40446
0
LINE
8
BLACK
6
CONTINUOUS
10
0.716319
20
-1.40446
11
0.716182
21
-1.40453
0
LINE
8
BLACK
6
CONTINUOUS
10
0.716182
20
-1.40453
11
0.641908
21
-1.43996
0
LINE
8
BLACK
6
CONTINUOUS
10
0.641908
20
-1.43996
11
0.641768
21
-1.44002
0
LINE
8
BLACK
6
CONTINUOUS
10
0.641768
20
-1.44002
11
0.565735
21
-1.47151
0
LINE
8
BLACK
6
CONTINUOUS
10
0.565735
20
-1.47151
11
0.565592
21
-1.47157
0
LINE
8
BLACK
6
CONTINUOUS
10
0.565592
20
-1.47157
11
0.488021
21
-1.49904
0
LINE
8
BLACK
6
CONTINUOUS
10
0.488021
20
-1.49904
11
0.487875
21
-1.49909
0
LINE
8
BLACK
6
CONTINUOUS
10
0.487875
20
-1.49909
11
0.408971
21
-1.52246
0
LINE
8
BLACK
6
CONTINUOUS
10
0.408971
20
-1.52246
11
0.408823
21
-1.5225
0
LINE
8
BLACK
6
CONTINUOUS
10
0.408823
20
-1.5225
11
0.328801
21
-1.54171
0
LINE
8
BLACK
6
CONTINUOUS
10
0.328801
20
-1.54171
11
0.328651
21
-1.54174
0
LINE
8
BLACK
6
CONTINUOUS
10
0.328651
20
-1.54174
11
0.247736
21
-1.55674
0
LINE
8
BLACK
6
CONTINUOUS
10
0.247736
20
-1.55674
11
0.247585
21
-1.55676
0
LINE
8
BLACK
6
CONTINUOUS
10
0.247585
20
-1.55676
11
0.165995
21
-1.5675
0
LINE
8
BLACK
6
CONTINUOUS
10
0.165995
20
-1.5675
11
0.165842
21
-1.56752
0
LINE
8
BLACK
6
CONTINUOUS
10
0.165842
20
-1.56752
11
0.083802
21
-1.57398
0
LINE
8
BLACK
6
CONTINUOUS
10
0.083802
20
-1.57398
11
0.0836486
21
-1.57399
0
LINE
8
BLACK
6
CONTINUOUS
10
0.0836486
20
-1.57399
11
0.0013835
21
-1.57614
0
LINE
8
BLACK
6
CONTINUOUS
10
0.0013835
20
-1.57614
11
0.00122996
21
-1.57614
0
LINE
8
BLACK
6
CONTINUOUS
10
0.00122996
20
-1.57614
11
-0.0810351
21
-1.57399
0
LINE
8
BLACK
6
CONTINUOUS
10
-0.0810351
20
-1.57399
11
-0.0811885
21
-1.57398
0
LINE
8
BLACK
6
CONTINUOUS
10
-0.0811885
20
-1.57398
11
-0.163229
21
-1.56752
0
LINE
8
BLACK
6
CONTINUOUS
10
-0.163229
20
-1.56752
11
-0.163381
21
-1.5675
0
LINE
8
BLACK
6
CONTINUOUS
10
-0.163381
20
-1.5675
11
-0.244971
21
-1.55676
0
LINE
8
BLACK
6
CONTINUOUS
10
-0.244971
20
-1.55676
11
-0.245123
21
-1.55674
0
LINE
8
BLACK
6
CONTINUOUS
10
-0.245123
20
-1.55674
11
-0.326037
21
-1.54174
0
LINE
8
BLACK
6
CONTINUOUS
10
-0.326037
20
-1.54174
11
-0.326188
21
-1.54171
0
LINE
8
BLACK
6
CONTINUOUS
10
-0.326188
20
-1.54171
11
-0.40621
21
-1.5225
0
LINE
8
BLACK
6
CONTINUOUS
10
-0.40621
20
-1.5225
11
-0.406358
21
-1.52246
0
LINE
8
BLACK
6
CONTINUOUS
10
-0.406358
20
-1.52246
11
-0.485261
21
-1.49909
0
LINE
8
BLACK
6
CONTINUOUS
10
-0.485261
20
-1.49909
11
-0.485407
21
-1.49904
0
LINE
8
BLACK
6
CONTINUOUS
10
-0.485407
20
-1.49904
11
-0.562978
21
-1.47157
0
LINE
8
BLACK
6
CONTINUOUS
10
-0.562978
20
-1.47157
11
-0.563122
21
-1.47151
0
LINE
8
BLACK
6
CONTINUOUS
10
-0.563122
20
-1.47151
11
-0.639154
21
-1.44002
0
LINE
8
BLACK
6
CONTINUOUS
10
-0.639154
20
-1.44002
11
-0.639294
21
-1.43996
0
LINE
8
BLACK
6
CONTINUOUS
10
-0.639294
20
-1.43996
11
-0.713569
21
-1.40453
0
LINE
8
BLACK
6
CONTINUOUS
10
-0.713569
20
-1.40453
11
-0.713706
21
-1.40446
0
LINE
8
BLACK
6
CONTINUOUS
10
-0.713706
20
-1.40446
11
-0.786027
21
-1.36519
0
LINE
8
BLACK
6
CONTINUOUS
10
-0.786027
20
-1.36519
11
-0.78616
21
-1.36512
0
LINE
8
BLACK
6
CONTINUOUS
10
-0.78616
20
-1.36512
11
-0.856328
21
-1.32212
0
LINE
8
BLACK
6
CONTINUOUS
10
-0.856328
20
-1.32212
11
-0.856457
21
-1.32203
0
LINE
8
BLACK
6
CONTINUOUS
10
-0.856457
20
-1.32203
11
-0.924276
21
-1.27542
0
LINE
8
BLACK
6
CONTINUOUS
10
-0.924276
20
-1.27542
11
-0.9244
21
-1.27533
0
LINE
8
BLACK
6
CONTINUOUS
10
-0.9244
20
-1.27533
11
-0.989687
21
-1.22524
0
LINE
8
BLACK
6
CONTINUOUS
10
-0.989687
20
-1.22524
11
-0.989806
21
-1.22514
0
LINE
8
BLACK
6
CONTINUOUS
10
-0.989806
20
-1.22514
11
-1.00872
21
-1.20899
0
LINE
8
BLACK
6
CONTINUOUS
10
-1.00872
20
-1.20899
11
-1.05238
21
-1.17169
0
LINE
8
BLACK
6
CONTINUOUS
10
-1.05238
20
-1.17169
11
-1.0525
21
-1.17159
0
LINE
8
BLACK
6
CONTINUOUS
10
-1.0525
20
-1.17159
11
-1.11219
21
-1.11495
0
LINE
8
BLACK
6
CONTINUOUS
10
-1.11219
20
-1.11495
11
-1.1123
21
-1.11484
0
LINE
8
BLACK
6
CONTINUOUS
10
-1.1123
20
-1.11484
11
-1.16895
21
-1.05514
0
LINE
8
BLACK
6
CONTINUOUS
10
-1.16895
20
-1.05514
11
-1.16905
21
-1.05503
0
LINE
8
BLACK
6
CONTINUOUS
10
-1.16905
20
-1.05503
11
-1.22249
21
-0.992451
0
LINE
8
BLACK
6
CONTINUOUS
10
-1.22249
20
-0.992451
11
-1.22259
21
-0.992332
0
LINE
8
BLACK
6
CONTINUOUS
10
-1.22259
20
-0.992332
11
-1.27269
21
-0.927045
0
LINE
8
BLACK
6
CONTINUOUS
10
-1.27269
20
-0.927045
11
-1.27278
21
-0.926921
0
LINE
8
BLACK
6
CONTINUOUS
10
-1.27278
20
-0.926921
11
-1.31939
21
-0.859102
0
LINE
8
BLACK
6
CONTINUOUS
10
-1.31939
20
-0.859102
11
-1.31947
21
-0.858973
0
LINE
8
BLACK
6
CONTINUOUS
10
-1.31947
20
-0.858973
11
-1.36247
21
-0.788805
0
LINE
8
BLACK
6
CONTINUOUS
10
-1.36247
20
-0.788805
11
-1.36255
21
-0.788672
0
LINE
8
BLACK
6
CONTINUOUS
10
-1.36255
20
-0.788672
11
-1.40182
21
-0.716351
0
LINE
8
BLACK
6
CONTINUOUS
10
-1.40182
20
-0.716351
11
-1.40189
21
-0.716214
0
LINE
8
BLACK
6
CONTINUOUS
10
-1.40189
20
-0.716214
11
-1.43731
21
-0.641939
0
LINE
8
BLACK
6
CONTINUOUS
10
-1.43731
20
-0.641939
11
-1.43738
21
-0.641799
0
LINE
8
BLACK
6
CONTINUOUS
10
-1.43738
20
-0.641799
11
-1.46887
21
-0.565767
0
LINE
8
BLACK
6
CONTINUOUS
10
-1.46887
20
-0.565767
11
-1.46892
21
-0.565624
0
LINE
8
BLACK
6
CONTINUOUS
10
-1.46892
20
-0.565624
11
-1.4964
21
-0.488052
0
LINE
8
BLACK
6
CONTINUOUS
10
-1.4964
20
-0.488052
11
-1.49644
21
-0.487906
0
LINE
8
BLACK
6
CONTINUOUS
10
-1.49644
20
-0.487906
11
-1.51981
21
-0.409003
0
LINE
8
BLACK
6
CONTINUOUS
10
-1.51981
20
-0.409003
11
-1.51985
21
-0.408855
0
LINE
8
BLACK
6
CONTINUOUS
10
-1.51985
20
-0.408855
11
-1.53906
21
-0.328833
0
LINE
8
BLACK
6
CONTINUOUS
10
-1.53906
20
-0.328833
11
-1.5391
21
-0.328682
0
LINE
8
BLACK
6
CONTINUOUS
10
-1.5391
20
-0.328682
11
-1.55409
21
-0.247768
0
LINE
8
BLACK
6
CONTINUOUS
10
-1.55409
20
-0.247768
11
-1.55412
21
-0.247616
0
LINE
8
BLACK
6
CONTINUOUS
10
-1.55412
20
-0.247616
11
-1.56486
21
-0.166026
0
LINE
8
BLACK
6
CONTINUOUS
10
-1.56486
20
-0.166026
11
-1.56488
21
-0.165874
0
LINE
8
BLACK
6
CONTINUOUS
10
-1.56488
20
-0.165874
11
-1.57133
21
-0.0838336
0
LINE
8
BLACK
6
CONTINUOUS
10
-1.57133
20
-0.0838336
11
-1.57134
21
-0.0836802
0
LINE
8
BLACK
6
CONTINUOUS
10
-1.57134
20
-0.0836802
11
-1.57349
21
-0.00141496
0
LINE
8
BLACK
6
CONTINUOUS
10
-1.57349
20
-0.00141496
11
-1.57349
21
-0.00126157
0
LINE
8
BLACK
6
CONTINUOUS
10
-1.57349
20
-0.00126157
11
-1.57346
21
-1.1811e-07
0
LINE
8
BLACK
6
CONTINUOUS
10
-1.57346
20
-1.1811e-07
11
-1.57134
21
0.0810037
0
LINE
8
BLACK
6
CONTINUOUS
10
-1.57134
20
0.0810037
11
-1.57133
21
0.0811571
0
LINE
8
BLACK
6
CONTINUOUS
10
-1.57133
20
0.0811571
11
-1.56488
21
0.163197
0
LINE
8
BLACK
6
CONTINUOUS
10
-1.56488
20
0.163197
11
-1.56486
21
0.16335
0
LINE
8
BLACK
6
CONTINUOUS
10
-1.56486
20
0.16335
11
-1.55412
21
0.24494
0
LINE
8
BLACK
6
CONTINUOUS
10
-1.55412
20
0.24494
11
-1.55409
21
0.245091
0
LINE
8
BLACK
6
CONTINUOUS
10
-1.55409
20
0.245091
11
-1.5391
21
0.326006
0
LINE
8
BLACK
6
CONTINUOUS
10
-1.5391
20
0.326006
11
-1.53906
21
0.326156
0
LINE
8
BLACK
6
CONTINUOUS
10
-1.53906
20
0.326156
11
-1.51985
21
0.406178
0
LINE
8
BLACK
6
CONTINUOUS
10
-1.51985
20
0.406178
11
-1.51981
21
0.406326
0
LINE
8
BLACK
6
CONTINUOUS
10
-1.51981
20
0.406326
11
-1.49644
21
0.485229
0
LINE
8
BLACK
6
CONTINUOUS
10
-1.49644
20
0.485229
11
-1.4964
21
0.485376
0
LINE
8
BLACK
6
CONTINUOUS
10
-1.4964
20
0.485376
11
-1.46892
21
0.562947
0
LINE
8
BLACK
6
CONTINUOUS
10
-1.46892
20
0.562947
11
-1.46887
21
0.56309
0
LINE
8
BLACK
6
CONTINUOUS
10
-1.46887
20
0.56309
11
-1.43738
21
0.639123
0
LINE
8
BLACK
6
CONTINUOUS
10
-1.43738
20
0.639123
11
-1.43731
21
0.639263
0
LINE
8
BLACK
6
CONTINUOUS
10
-1.43731
20
0.639263
11
-1.40189
21
0.713537
0
LINE
8
BLACK
6
CONTINUOUS
10
-1.40189
20
0.713537
11
-1.40182
21
0.713674
0
LINE
8
BLACK
6
CONTINUOUS
10
-1.40182
20
0.713674
11
-1.36255
21
0.785996
0
LINE
8
BLACK
6
CONTINUOUS
10
-1.36255
20
0.785996
11
-1.36247
21
0.786128
0
LINE
8
BLACK
6
CONTINUOUS
10
-1.36247
20
0.786128
11
-1.35365
21
0.800532
0
LINE
8
BLACK
6
CONTINUOUS
10
-1.35365
20
0.800532
11
-1.31947
21
0.856297
0
LINE
8
BLACK
6
CONTINUOUS
10
-1.31947
20
0.856297
11
-1.31939
21
0.856426
0
LINE
8
BLACK
6
CONTINUOUS
10
-1.31939
20
0.856426
11
-1.27278
21
0.924244
0
LINE
8
BLACK
6
CONTINUOUS
10
-1.27278
20
0.924244
11
-1.27269
21
0.924368
0
LINE
8
BLACK
6
CONTINUOUS
10
-1.27269
20
0.924368
11
-1.22259
21
0.989656
0
LINE
8
BLACK
6
CONTINUOUS
10
-1.22259
20
0.989656
11
-1.22249
21
0.989775
0
LINE
8
BLACK
6
CONTINUOUS
10
-1.22249
20
0.989775
11
-1.16905
21
1.05235
0
LINE
8
BLACK
6
CONTINUOUS
10
-1.16905
20
1.05235
11
-1.16895
21
1.05247
0
LINE
8
BLACK
6
CONTINUOUS
10
-1.16895
20
1.05247
11
-1.1123
21
1.11216
0
LINE
8
BLACK
6
CONTINUOUS
10
-1.1123
20
1.11216
11
-1.11219
21
1.11227
0
LINE
8
BLACK
6
CONTINUOUS
10
-1.11219
20
1.11227
11
-1.0525
21
1.16892
0
LINE
8
BLACK
6
CONTINUOUS
10
-1.0525
20
1.16892
11
-1.05238
21
1.16902
0
LINE
8
BLACK
6
CONTINUOUS
10
-1.05238
20
1.16902
11
-0.989807
21
1.22246
0
LINE
8
BLACK
6
CONTINUOUS
10
-0.989807
20
1.22246
11
-0.989687
21
1.22256
0
LINE
8
BLACK
6
CONTINUOUS
10
-0.989687
20
1.22256
11
-0.9244
21
1.27266
0
LINE
8
BLACK
6
CONTINUOUS
10
-0.9244
20
1.27266
11
-0.924275
21
1.27275
0
LINE
8
BLACK
6
CONTINUOUS
10
-0.924275
20
1.27275
11
-0.856457
21
1.31936
0
LINE
8
BLACK
6
CONTINUOUS
10
-0.856457
20
1.31936
11
-0.856328
21
1.31944
0
LINE
8
BLACK
6
CONTINUOUS
10
-0.856328
20
1.31944
11
-0.78616
21
1.36244
0
LINE
8
BLACK
6
CONTINUOUS
10
-0.78616
20
1.36244
11
-0.786027
21
1.36252
0
LINE
8
BLACK
6
CONTINUOUS
10
-0.786027
20
1.36252
11
-0.713706
21
1.40179
0
LINE
8
BLACK
6
CONTINUOUS
10
-0.713706
20
1.40179
11
-0.713569
21
1.40186
0
LINE
8
BLACK
6
CONTINUOUS
10
-0.713569
20
1.40186
11
-0.639294
21
1.43728
0
LINE
8
BLACK
6
CONTINUOUS
10
-0.639294
20
1.43728
11
-0.639154
21
1.43734
0
LINE
8
BLACK
6
CONTINUOUS
10
-0.639154
20
1.43734
11
-0.563122
21
1.46884
0
LINE
8
BLACK
6
CONTINUOUS
10
-0.563122
20
1.46884
11
-0.562979
21
1.46889
0
LINE
8
BLACK
6
CONTINUOUS
10
-0.562979
20
1.46889
11
-0.485407
21
1.49636
0
LINE
8
BLACK
6
CONTINUOUS
10
-0.485407
20
1.49636
11
-0.485261
21
1.49641
0
LINE
8
BLACK
6
CONTINUOUS
10
-0.485261
20
1.49641
11
-0.406358
21
1.51978
0
LINE
8
BLACK
6
CONTINUOUS
10
-0.406358
20
1.51978
11
-0.40621
21
1.51982
0
LINE
8
BLACK
6
CONTINUOUS
10
-0.40621
20
1.51982
11
-0.326188
21
1.53903
0
LINE
8
BLACK
6
CONTINUOUS
10
-0.326188
20
1.53903
11
-0.326037
21
1.53907
0
LINE
8
BLACK
6
CONTINUOUS
10
-0.326037
20
1.53907
11
-0.245123
21
1.55406
0
LINE
8
BLACK
6
CONTINUOUS
10
-0.245123
20
1.55406
11
-0.244971
21
1.55408
0
LINE
8
BLACK
6
CONTINUOUS
10
-0.244971
20
1.55408
11
-0.163381
21
1.56483
0
LINE
8
BLACK
6
CONTINUOUS
10
-0.163381
20
1.56483
11
-0.163229
21
1.56484
0
LINE
8
BLACK
6
CONTINUOUS
10
-0.163229
20
1.56484
11
-0.0811886
21
1.5713
0
LINE
8
BLACK
6
CONTINUOUS
10
-0.0811886
20
1.5713
11
-0.0810352
21
1.57131
0
LINE
8
BLACK
6
CONTINUOUS
10
-0.0810352
20
1.57131
11
0.00122996
21
1.57346
0
LINE
8
BLACK
6
CONTINUOUS
10
0.00122996
20
1.57346
11
0.0013835
21
1.57346
0
LINE
8
BLACK
6
CONTINUOUS
10
0.0013835
20
1.57346
11
0.0836487
21
1.57131
0
LINE
8
BLACK
6
CONTINUOUS
10
-0.816666
20
-1.22536
11
-0.811579
21
-1.24101
0
LINE
8
BLACK
6
CONTINUOUS
10
-0.811579
20
-1.24101
11
-0.811579
21
-1.24102
0
LINE
8
BLACK
6
CONTINUOUS
10
-0.811579
20
-1.24102
11
-0.803347
21
-1.25527
0
LINE
8
BLACK
6
CONTINUOUS
10
-0.803347
20
-1.25527
11
-0.803347
21
-1.25527
0
LINE
8
BLACK
6
CONTINUOUS
10
-0.803347
20
-1.25527
11
-0.792335
21
-1.2675
0
LINE
8
BLACK
6
CONTINUOUS
10
-0.792335
20
-1.2675
11
-0.792335
21
-1.2675
0
LINE
8
BLACK
6
CONTINUOUS
10
-0.792335
20
-1.2675
11
-0.779016
21
-1.27718
0
LINE
8
BLACK
6
CONTINUOUS
10
-0.779016
20
-1.27718
11
-0.779015
21
-1.27718
0
LINE
8
BLACK
6
CONTINUOUS
10
-0.779015
20
-1.27718
11
-0.771308
21
-1.2819
0
LINE
8
BLACK
6
CONTINUOUS
10
-0.771308
20
-1.2819
11
-0.771308
21
-1.2819
0
LINE
8
BLACK
6
CONTINUOUS
10
-0.771308
20
-1.2819
11
-0.751292
21
-1.29417
0
LINE
8
BLACK
6
CONTINUOUS
10
-0.751292
20
-1.29417
11
-0.751292
21
-1.29417
0
LINE
8
BLACK
6
CONTINUOUS
10
-0.751292
20
-1.29417
11
-0.751292
21
-1.29417
0
LINE
8
BLACK
6
CONTINUOUS
10
-0.751292
20
-1.29417
11
-0.746725
21
-1.29697
0
LINE
8
BLACK
6
CONTINUOUS
10
-0.746725
20
-1.29697
11
-0.733744
21
-1.30402
0
LINE
8
BLACK
6
CONTINUOUS
10
-0.733744
20
-1.30402
11
-0.733744
21
-1.30402
0
LINE
8
BLACK
6
CONTINUOUS
10
-0.733744
20
-1.30402
11
-0.733744
21
-1.30402
0
LINE
8
BLACK
6
CONTINUOUS
10
-0.733744
20
-1.30402
11
-0.719718
21
-1.31163
0
LINE
8
BLACK
6
CONTINUOUS
10
-0.719718
20
-1.31163
11
-0.719718
21
-1.31163
0
LINE
8
BLACK
6
CONTINUOUS
10
-0.719718
20
-1.31163
11
-0.709668
21
-1.31708
0
LINE
8
BLACK
6
CONTINUOUS
10
-0.709668
20
-1.31708
11
-0.709666
21
-1.31709
0
LINE
8
BLACK
6
CONTINUOUS
10
-0.709666
20
-1.31709
11
-0.709666
21
-1.31709
0
LINE
8
BLACK
6
CONTINUOUS
10
-0.709666
20
-1.31709
11
-0.703626
21
-1.32037
0
LINE
8
BLACK
6
CONTINUOUS
10
-0.703626
20
-1.32037
11
-0.70161
21
-1.32146
0
LINE
8
BLACK
6
CONTINUOUS
10
-0.70161
20
-1.32146
11
-0.681516
21
-1.33237
0
LINE
8
BLACK
6
CONTINUOUS
10
-0.681516
20
-1.33237
11
-0.614541
21
-1.36432
0
LINE
8
BLACK
6
CONTINUOUS
10
-0.614541
20
-1.36432
11
-0.61454
21
-1.36432
0
LINE
8
BLACK
6
CONTINUOUS
10
-0.61454
20
-1.36432
11
-0.599504
21
-1.37101
0
LINE
8
BLACK
6
CONTINUOUS
10
-0.599504
20
-1.37101
11
-0.599504
21
-1.37101
0
LINE
8
BLACK
6
CONTINUOUS
10
-0.599504
20
-1.37101
11
-0.530949
21
-1.39941
0
LINE
8
BLACK
6
CONTINUOUS
10
-0.530949
20
-1.39941
11
-0.530948
21
-1.39941
0
LINE
8
BLACK
6
CONTINUOUS
10
-0.530948
20
-1.39941
11
-0.461001
21
-1.42418
0
LINE
8
BLACK
6
CONTINUOUS
10
-0.461001
20
-1.42418
11
-0.461001
21
-1.42418
0
LINE
8
BLACK
6
CONTINUOUS
10
-0.461001
20
-1.42418
11
-0.389856
21
-1.44525
0
LINE
8
BLACK
6
CONTINUOUS
10
-0.389856
20
-1.44525
11
-0.317703
21
-1.46257
0
LINE
8
BLACK
6
CONTINUOUS
10
-0.317703
20
-1.46257
11
-0.301601
21
-1.466
0
LINE
8
BLACK
6
CONTINUOUS
10
-0.301601
20
-1.466
11
-0.301601
21
-1.466
0
LINE
8
BLACK
6
CONTINUOUS
10
-0.301601
20
-1.466
11
-0.228641
21
-1.47952
0
LINE
8
BLACK
6
CONTINUOUS
10
-0.228641
20
-1.47952
11
-0.155075
21
-1.4892
0
LINE
8
BLACK
6
CONTINUOUS
10
-0.155075
20
-1.4892
11
-0.155074
21
-1.4892
0
LINE
8
BLACK
6
CONTINUOUS
10
-0.155074
20
-1.4892
11
-0.0811006
21
-1.49503
0
LINE
8
BLACK
6
CONTINUOUS
10
-0.0811006
20
-1.49503
11
-0.00692535
21
-1.49697
0
LINE
8
BLACK
6
CONTINUOUS
10
-0.00692535
20
-1.49697
11
-0.00692374
21
-1.49697
0
LINE
8
BLACK
6
CONTINUOUS
10
-0.00692374
20
-1.49697
11
0.00953728
21
-1.49697
0
LINE
8
BLACK
6
CONTINUOUS
10
0.00953728
20
-1.49697
11
0.00953886
21
-1.49697
0
LINE
8
BLACK
6
CONTINUOUS
10
0.00953886
20
-1.49697
11
0.0837141
21
-1.49503
0
LINE
8
BLACK
6
CONTINUOUS
10
0.0837141
20
-1.49503
11
0.157688
21
-1.4892
0
LINE
8
BLACK
6
CONTINUOUS
10
0.157688
20
-1.4892
11
0.157689
21
-1.4892
0
LINE
8
BLACK
6
CONTINUOUS
10
0.157689
20
-1.4892
11
0.231255
21
-1.47952
0
LINE
8
BLACK
6
CONTINUOUS
10
0.231255
20
-1.47952
11
0.304215
21
-1.466
0
LINE
8
BLACK
6
CONTINUOUS
10
0.304215
20
-1.466
11
0.304215
21
-1.466
0
LINE
8
BLACK
6
CONTINUOUS
10
0.304215
20
-1.466
11
0.320317
21
-1.46257
0
LINE
8
BLACK
6
CONTINUOUS
10
0.320317
20
-1.46257
11
0.392469
21
-1.44525
0
LINE
8
BLACK
6
CONTINUOUS
10
0.392469
20
-1.44525
11
0.463614
21
-1.42418
0
LINE
8
BLACK
6
CONTINUOUS
10
0.463614
20
-1.42418
11
0.463614
21
-1.42418
0
LINE
8
BLACK
6
CONTINUOUS
10
0.463614
20
-1.42418
11
0.533562
21
-1.39941
0
LINE
8
BLACK
6
CONTINUOUS
10
0.533562
20
-1.39941
11
0.533562
21
-1.39941
0
LINE
8
BLACK
6
CONTINUOUS
10
0.533562
20
-1.39941
11
0.602117
21
-1.37101
0
LINE
8
BLACK
6
CONTINUOUS
10
0.602117
20
-1.37101
11
0.602117
21
-1.37101
0
LINE
8
BLACK
6
CONTINUOUS
10
0.602117
20
-1.37101
11
0.617154
21
-1.36432
0
LINE
8
BLACK
6
CONTINUOUS
10
0.617154
20
-1.36432
11
0.617154
21
-1.36432
0
LINE
8
BLACK
6
CONTINUOUS
10
0.617154
20
-1.36432
11
0.684129
21
-1.33237
0
LINE
8
BLACK
6
CONTINUOUS
10
0.684129
20
-1.33237
11
0.68413
21
-1.33237
0
LINE
8
BLACK
6
CONTINUOUS
10
0.68413
20
-1.33237
11
0.749337
21
-1.29697
0
LINE
8
BLACK
6
CONTINUOUS
10
0.749337
20
-1.29697
11
0.812606
21
-1.2582
0
LINE
8
BLACK
6
CONTINUOUS
10
0.812606
20
-1.2582
11
0.87376
21
-1.21617
0
LINE
8
BLACK
6
CONTINUOUS
10
0.87376
20
-1.21617
11
0.887074
21
-1.20649
0
LINE
8
BLACK
6
CONTINUOUS
10
0.887074
20
-1.20649
11
0.945943
21
-1.16132
0
LINE
8
BLACK
6
CONTINUOUS
10
0.945943
20
-1.16132
11
0.945945
21
-1.16132
0
LINE
8
BLACK
6
CONTINUOUS
10
0.945945
20
-1.16132
11
1.00237
21
-1.11313
0
LINE
8
BLACK
6
CONTINUOUS
10
1.00237
20
-1.11313
11
1.05619
21
-1.06205
0
LINE
8
BLACK
6
CONTINUOUS
10
1.05619
20
-1.06205
11
1.10727
21
-1.00823
0
LINE
8
BLACK
6
CONTINUOUS
10
1.10727
20
-1.00823
11
1.10727
21
-1.00823
0
LINE
8
BLACK
6
CONTINUOUS
10
1.10727
20
-1.00823
11
1.11828
21
-0.995996
0
LINE
8
BLACK
6
CONTINUOUS
10
1.11828
20
-0.995996
11
1.11828
21
-0.995994
0
LINE
8
BLACK
6
CONTINUOUS
10
1.11828
20
-0.995994
11
1.16648
21
-0.939571
0
LINE
8
BLACK
6
CONTINUOUS
10
1.16648
20
-0.939571
11
1.16648
21
-0.93957
0
LINE
8
BLACK
6
CONTINUOUS
10
1.16648
20
-0.93957
11
1.1804
21
-0.92143
0
LINE
8
BLACK
6
CONTINUOUS
10
1.1804
20
-0.92143
11
1.1818
21
-0.919607
0
LINE
8
BLACK
6
CONTINUOUS
10
1.1818
20
-0.919607
11
1.18597
21
-0.914159
0
LINE
8
BLACK
6
CONTINUOUS
10
1.18597
20
-0.914159
11
1.18598
21
-0.914157
0
LINE
8
BLACK
6
CONTINUOUS
10
1.18598
20
-0.914157
11
1.18598
21
-0.914157
0
LINE
8
BLACK
6
CONTINUOUS
10
1.18598
20
-0.914157
11
1.19294
21
-0.905086
0
LINE
8
BLACK
6
CONTINUOUS
10
1.19294
20
-0.905086
11
1.20265
21
-0.892421
0
LINE
8
BLACK
6
CONTINUOUS
10
1.20265
20
-0.892421
11
1.20265
21
-0.892421
0
LINE
8
BLACK
6
CONTINUOUS
10
1.20265
20
-0.892421
11
1.21164
21
-0.880701
0
LINE
8
BLACK
6
CONTINUOUS
10
1.21164
20
-0.880701
11
1.21165
21
-0.8807
0
LINE
8
BLACK
6
CONTINUOUS
10
1.21165
20
-0.8807
11
1.21468
21
-0.876288
0
LINE
8
BLACK
6
CONTINUOUS
10
1.21468
20
-0.876288
11
1.22798
21
-0.856944
0
LINE
8
BLACK
6
CONTINUOUS
10
1.22798
20
-0.856944
11
1.2331
21
-0.849492
0
LINE
8
BLACK
6
CONTINUOUS
10
1.2331
20
-0.849492
11
1.2331
21
-0.849491
0
LINE
8
BLACK
6
CONTINUOUS
10
1.2331
20
-0.849491
11
1.24133
21
-0.835236
0
LINE
8
BLACK
6
CONTINUOUS
10
1.24133
20
-0.835236
11
1.24133
21
-0.835236
0
LINE
8
BLACK
6
CONTINUOUS
10
1.24133
20
-0.835236
11
1.24642
21
-0.819578
0
LINE
8
BLACK
6
CONTINUOUS
10
1.24642
20
-0.819578
11
1.24814
21
-0.803208
0
LINE
8
BLACK
6
CONTINUOUS
10
1.24814
20
-0.803208
11
1.24642
21
-0.786838
0
LINE
8
BLACK
6
CONTINUOUS
10
1.24642
20
-0.786838
11
1.24133
21
-0.771181
0
LINE
8
BLACK
6
CONTINUOUS
10
1.24133
20
-0.771181
11
1.24133
21
-0.77118
0
LINE
8
BLACK
6
CONTINUOUS
10
1.24133
20
-0.77118
11
1.2331
21
-0.756925
0
LINE
8
BLACK
6
CONTINUOUS
10
1.2331
20
-0.756925
11
1.2331
21
-0.756925
0
LINE
8
BLACK
6
CONTINUOUS
10
1.2331
20
-0.756925
11
1.22208
21
-0.744693
0
LINE
8
BLACK
6
CONTINUOUS
10
1.22208
20
-0.744693
11
1.22208
21
-0.744692
0
LINE
8
BLACK
6
CONTINUOUS
10
1.22208
20
-0.744692
11
1.20877
21
-0.735015
0
LINE
8
BLACK
6
CONTINUOUS
10
1.20877
20
-0.735015
11
1.20877
21
-0.735015
0
LINE
8
BLACK
6
CONTINUOUS
10
1.20877
20
-0.735015
11
1.19425
21
-0.725051
0
LINE
8
BLACK
6
CONTINUOUS
10
1.19425
20
-0.725051
11
1.19425
21
-0.725051
0
LINE
8
BLACK
6
CONTINUOUS
10
1.19425
20
-0.725051
11
1.1695
21
-0.708058
0
LINE
8
BLACK
6
CONTINUOUS
10
1.1695
20
-0.708058
11
1.14165
21
-0.688941
0
LINE
8
BLACK
6
CONTINUOUS
10
1.14165
20
-0.688941
11
1.14165
21
-0.68894
0
LINE
8
BLACK
6
CONTINUOUS
10
1.14165
20
-0.68894
11
1.14165
21
-0.68894
0
LINE
8
BLACK
6
CONTINUOUS
10
1.14165
20
-0.68894
11
1.11077
21
-0.667748
0
LINE
8
BLACK
6
CONTINUOUS
10
1.11077
20
-0.667748
11
1.07698
21
-0.644547
0
LINE
8
BLACK
6
CONTINUOUS
10
1.07698
20
-0.644547
11
1.07698
21
-0.644547
0
LINE
8
BLACK
6
CONTINUOUS
10
1.07698
20
-0.644547
11
1.07698
21
-0.644547
0
LINE
8
BLACK
6
CONTINUOUS
10
1.07698
20
-0.644547
11
1.04033
21
-0.619393
0
LINE
8
BLACK
6
CONTINUOUS
10
1.04033
20
-0.619393
11
1.04033
21
-0.619393
0
LINE
8
BLACK
6
CONTINUOUS
10
1.04033
20
-0.619393
11
1.00095
21
-0.592358
0
LINE
8
BLACK
6
CONTINUOUS
10
1.00095
20
-0.592358
11
0.95894
21
-0.563515
0
LINE
8
BLACK
6
CONTINUOUS
10
0.95894
20
-0.563515
11
0.95894
21
-0.563515
0
LINE
8
BLACK
6
CONTINUOUS
10
0.95894
20
-0.563515
11
0.936212
21
-0.547913
0
LINE
8
BLACK
6
CONTINUOUS
10
0.936212
20
-0.547913
11
0.921173
21
-0.54122
0
LINE
8
BLACK
6
CONTINUOUS
10
0.921173
20
-0.54122
11
0.905074
21
-0.537795
0
LINE
8
BLACK
6
CONTINUOUS
10
0.905074
20
-0.537795
11
0.88861
21
-0.537795
0
LINE
8
BLACK
6
CONTINUOUS
10
0.88861
20
-0.537795
11
0.872511
21
-0.54122
0
LINE
8
BLACK
6
CONTINUOUS
10
0.872511
20
-0.54122
11
0.857472
21
-0.547913
0
LINE
8
BLACK
6
CONTINUOUS
10
0.857472
20
-0.547913
11
0.857472
21
-0.547913
0
LINE
8
BLACK
6
CONTINUOUS
10
0.857472
20
-0.547913
11
0.844153
21
-0.55759
0
LINE
8
BLACK
6
CONTINUOUS
10
0.844153
20
-0.55759
11
0.833141
21
-0.569822
0
LINE
8
BLACK
6
CONTINUOUS
10
0.833141
20
-0.569822
11
0.833141
21
-0.569823
0
LINE
8
BLACK
6
CONTINUOUS
10
0.833141
20
-0.569823
11
0.816736
21
-0.593688
0
LINE
8
BLACK
6
CONTINUOUS
10
0.816736
20
-0.593688
11
0.816646
21
-0.593812
0
LINE
8
BLACK
6
CONTINUOUS
10
0.816646
20
-0.593812
11
0.782109
21
-0.638825
0
LINE
8
BLACK
6
CONTINUOUS
10
0.782109
20
-0.638825
11
0.782012
21
-0.638944
0
LINE
8
BLACK
6
CONTINUOUS
10
0.782012
20
-0.638944
11
0.750514
21
-0.675823
0
LINE
8
BLACK
6
CONTINUOUS
10
0.750514
20
-0.675823
11
0.750412
21
-0.675937
0
LINE
8
BLACK
6
CONTINUOUS
10
0.750412
20
-0.675937
11
0.717025
21
-0.711121
0
LINE
8
BLACK
6
CONTINUOUS
10
0.717025
20
-0.711121
11
0.716916
21
-0.71123
0
LINE
8
BLACK
6
CONTINUOUS
10
0.716916
20
-0.71123
11
0.67576
21
-0.750281
0
LINE
8
BLACK
6
CONTINUOUS
10
0.67576
20
-0.750281
11
0.675646
21
-0.750384
0
LINE
8
BLACK
6
CONTINUOUS
10
0.675646
20
-0.750384
11
0.632507
21
-0.787229
0
LINE
8
BLACK
6
CONTINUOUS
10
0.632507
20
-0.787229
11
0.632388
21
-0.787326
0
LINE
8
BLACK
6
CONTINUOUS
10
0.632388
20
-0.787326
11
0.593907
21
-0.816854
0
LINE
8
BLACK
6
CONTINUOUS
10
0.593907
20
-0.816854
11
0.593783
21
-0.816944
0
LINE
8
BLACK
6
CONTINUOUS
10
0.593783
20
-0.816944
11
0.55381
21
-0.844417
0
LINE
8
BLACK
6
CONTINUOUS
10
0.55381
20
-0.844417
11
0.553681
21
-0.844501
0
LINE
8
BLACK
6
CONTINUOUS
10
0.553681
20
-0.844501
11
0.50531
21
-0.87414
0
LINE
8
BLACK
6
CONTINUOUS
10
0.50531
20
-0.87414
11
0.505177
21
-0.874217
0
LINE
8
BLACK
6
CONTINUOUS
10
0.505177
20
-0.874217
11
0.455314
21
-0.90129
0
LINE
8
BLACK
6
CONTINUOUS
10
0.455314
20
-0.90129
11
0.455178
21
-0.90136
0
LINE
8
BLACK
6
CONTINUOUS
10
0.455178
20
-0.90136
11
0.411404
21
-0.922242
0
LINE
8
BLACK
6
CONTINUOUS
10
0.411404
20
-0.922242
11
0.411264
21
-0.922304
0
LINE
8
BLACK
6
CONTINUOUS
10
0.411264
20
-0.922304
11
0.366453
21
-0.940864
0
LINE
8
BLACK
6
CONTINUOUS
10
0.366453
20
-0.940864
11
0.36631
21
-0.940919
0
LINE
8
BLACK
6
CONTINUOUS
10
0.36631
20
-0.940919
11
0.312829
21
-0.959856
0
LINE
8
BLACK
6
CONTINUOUS
10
0.312829
20
-0.959856
11
0.312683
21
-0.959903
0
LINE
8
BLACK
6
CONTINUOUS
10
0.312683
20
-0.959903
11
0.258285
21
-0.976017
0
LINE
8
BLACK
6
CONTINUOUS
10
0.258285
20
-0.976017
11
0.258136
21
-0.976057
0
LINE
8
BLACK
6
CONTINUOUS
10
0.258136
20
-0.976057
11
0.210975
21
-0.987379
0
LINE
8
BLACK
6
CONTINUOUS
10
0.210975
20
-0.987379
11
0.210825
21
-0.987411
0
LINE
8
BLACK
6
CONTINUOUS
10
0.210825
20
-0.987411
11
0.163135
21
-0.996253
0
LINE
8
BLACK
6
CONTINUOUS
10
0.163135
20
-0.996253
11
0.162983
21
-0.996277
0
LINE
8
BLACK
6
CONTINUOUS
10
0.162983
20
-0.996277
11
0.106735
21
-1.00368
0
LINE
8
BLACK
6
CONTINUOUS
10
0.106735
20
-1.00368
11
0.106582
21
-1.0037
0
LINE
8
BLACK
6
CONTINUOUS
10
0.106582
20
-1.0037
11
0.0500222
21
-1.00815
0
LINE
8
BLACK
6
CONTINUOUS
10
0.0500222
20
-1.00815
11
0.0498691
21
-1.00815
0
LINE
8
BLACK
6
CONTINUOUS
10
0.0498691
20
-1.00815
11
0.00138398
21
-1.00943
0
LINE
8
BLACK
6
CONTINUOUS
10
0.00138398
20
-1.00943
11
0.00123012
21
-1.00943
0
LINE
8
BLACK
6
CONTINUOUS
10
0.00123012
20
-1.00943
11
-0.0472556
21
-1.00815
0
LINE
8
BLACK
6
CONTINUOUS
10
-0.0472556
20
-1.00815
11
-0.0474087
21
-1.00815
0
LINE
8
BLACK
6
CONTINUOUS
10
-0.0474087
20
-1.00815
11
-0.103968
21
-1.0037
0
LINE
8
BLACK
6
CONTINUOUS
10
-0.103968
20
-1.0037
11
-0.104121
21
-1.00368
0
LINE
8
BLACK
6
CONTINUOUS
10
-0.104121
20
-1.00368
11
-0.16037
21
-0.996277
0
LINE
8
BLACK
6
CONTINUOUS
10
-0.16037
20
-0.996277
11
-0.160522
21
-0.996253
0
LINE
8
BLACK
6
CONTINUOUS
10
-0.160522
20
-0.996253
11
-0.208212
21
-0.987411
0
LINE
8
BLACK
6
CONTINUOUS
10
-0.208212
20
-0.987411
11
-0.208362
21
-0.987379
0
LINE
8
BLACK
6
CONTINUOUS
10
-0.208362
20
-0.987379
11
-0.255523
21
-0.976057
0
LINE
8
BLACK
6
CONTINUOUS
10
-0.255523
20
-0.976057
11
-0.255671
21
-0.976017
0
LINE
8
BLACK
6
CONTINUOUS
10
-0.255671
20
-0.976017
11
-0.31007
21
-0.959903
0
LINE
8
BLACK
6
CONTINUOUS
10
-0.31007
20
-0.959903
11
-0.310216
21
-0.959856
0
LINE
8
BLACK
6
CONTINUOUS
10
-0.310216
20
-0.959856
11
-0.363696
21
-0.940919
0
LINE
8
BLACK
6
CONTINUOUS
10
-0.363696
20
-0.940919
11
-0.363839
21
-0.940864
0
LINE
8
BLACK
6
CONTINUOUS
10
-0.363839
20
-0.940864
11
-0.40865
21
-0.922304
0
LINE
8
BLACK
6
CONTINUOUS
10
-0.40865
20
-0.922304
11
-0.408791
21
-0.922242
0
LINE
8
BLACK
6
CONTINUOUS
10
-0.408791
20
-0.922242
11
-0.452564
21
-0.90136
0
LINE
8
BLACK
6
CONTINUOUS
10
-0.452564
20
-0.90136
11
-0.452701
21
-0.90129
0
LINE
8
BLACK
6
CONTINUOUS
10
-0.452701
20
-0.90129
11
-0.502563
21
-0.874217
0
LINE
8
BLACK
6
CONTINUOUS
10
-0.502563
20
-0.874217
11
-0.502696
21
-0.87414
0
LINE
8
BLACK
6
CONTINUOUS
10
-0.502696
20
-0.87414
11
-0.527386
21
-0.859012
0
LINE
8
BLACK
6
CONTINUOUS
10
-0.527386
20
-0.859012
11
-0.527386
21
-0.859011
0
LINE
8
BLACK
6
CONTINUOUS
10
-0.527386
20
-0.859011
11
-0.542425
21
-0.852314
0
LINE
8
BLACK
6
CONTINUOUS
10
-0.542425
20
-0.852314
11
-0.558528
21
-0.848893
0
LINE
8
BLACK
6
CONTINUOUS
10
-0.558528
20
-0.848893
11
-0.574988
21
-0.848893
0
LINE
8
BLACK
6
CONTINUOUS
10
-0.574988
20
-0.848893
11
-0.591091
21
-0.852315
0
LINE
8
BLACK
6
CONTINUOUS
10
-0.591091
20
-0.852315
11
-0.606126
21
-0.859011
0
LINE
8
BLACK
6
CONTINUOUS
10
-0.606126
20
-0.859011
11
-0.619445
21
-0.868688
0
LINE
8
BLACK
6
CONTINUOUS
10
-0.619445
20
-0.868688
11
-0.619445
21
-0.868689
0
LINE
8
BLACK
6
CONTINUOUS
10
-0.619445
20
-0.868689
11
-0.630461
21
-0.880921
0
LINE
8
BLACK
6
CONTINUOUS
10
-0.630461
20
-0.880921
11
-0.644878
21
-0.904417
0
LINE
8
BLACK
6
CONTINUOUS
10
-0.644878
20
-0.904417
11
-0.671528
21
-0.947854
0
LINE
8
BLACK
6
CONTINUOUS
10
-0.671528
20
-0.947854
11
-0.671528
21
-0.947854
0
LINE
8
BLACK
6
CONTINUOUS
10
-0.671528
20
-0.947854
11
-0.696508
21
-0.98857
0
LINE
8
BLACK
6
CONTINUOUS
10
-0.696508
20
-0.98857
11
-0.696508
21
-0.98857
0
LINE
8
BLACK
6
CONTINUOUS
10
-0.696508
20
-0.98857
11
-0.719748
21
-1.02645
0
LINE
8
BLACK
6
CONTINUOUS
10
-0.719748
20
-1.02645
11
-0.741189
21
-1.0614
0
LINE
8
BLACK
6
CONTINUOUS
10
-0.741189
20
-1.0614
11
-0.760772
21
-1.09331
0
LINE
8
BLACK
6
CONTINUOUS
10
-0.760772
20
-1.09331
11
-0.778437
21
-1.1221
0
LINE
8
BLACK
6
CONTINUOUS
10
-0.778437
20
-1.1221
11
-0.794142
21
-1.1477
0
LINE
8
BLACK
6
CONTINUOUS
10
-0.794142
20
-1.1477
11
-0.794142
21
-1.1477
0
LINE
8
BLACK
6
CONTINUOUS
10
-0.794142
20
-1.1477
11
-0.803347
21
-1.1627
0
LINE
8
BLACK
6
CONTINUOUS
10
-0.803347
20
-1.1627
11
-0.811579
21
-1.17696
0
LINE
8
BLACK
6
CONTINUOUS
10
-0.811579
20
-1.17696
11
-0.811579
21
-1.17696
0
LINE
8
BLACK
6
CONTINUOUS
10
-0.811579
20
-1.17696
11
-0.816666
21
-1.19262
0
LINE
8
BLACK
6
CONTINUOUS
10
-0.816666
20
-1.19262
11
-0.818386
21
-1.20899
0
LINE
8
BLACK
6
CONTINUOUS
10
-0.818386
20
-1.20899
11
-0.816666
21
-1.22536
0
LINE
8
BLACK
6
CONTINUOUS
10
-0.243303
20
-0.0196411
11
-0.243303
21
-0.0196413
0
LINE
8
BLACK
6
CONTINUOUS
10
-0.243303
20
-0.0196413
11
-0.240934
21
-0.0391555
0
LINE
8
BLACK
6
CONTINUOUS
10
-0.240934
20
-0.0391555
11
-0.237001
21
-0.0584161
0
LINE
8
BLACK
6
CONTINUOUS
10
-0.237001
20
-0.0584161
11
-0.231532
21
-0.0772972
0
LINE
8
BLACK
6
CONTINUOUS
10
-0.231532
20
-0.0772972
11
-0.224562
21
-0.095677
0
LINE
8
BLACK
6
CONTINUOUS
10
-0.224562
20
-0.095677
11
-0.216135
21
-0.113436
0
LINE
8
BLACK
6
CONTINUOUS
10
-0.216135
20
-0.113436
11
-0.216135
21
-0.113436
0
LINE
8
BLACK
6
CONTINUOUS
10
-0.216135
20
-0.113436
11
-0.206306
21
-0.13046
0
LINE
8
BLACK
6
CONTINUOUS
10
-0.206306
20
-0.13046
11
-0.19514
21
-0.146638
0
LINE
8
BLACK
6
CONTINUOUS
10
-0.19514
20
-0.146638
11
-0.195139
21
-0.146638
0
LINE
8
BLACK
6
CONTINUOUS
10
-0.195139
20
-0.146638
11
-0.182708
21
-0.161864
0
LINE
8
BLACK
6
CONTINUOUS
10
-0.182708
20
-0.161864
11
-0.182707
21
-0.161865
0
LINE
8
BLACK
6
CONTINUOUS
10
-0.182707
20
-0.161865
11
-0.16909
21
-0.176041
0
LINE
8
BLACK
6
CONTINUOUS
10
-0.16909
20
-0.176041
11
-0.16909
21
-0.176042
0
LINE
8
BLACK
6
CONTINUOUS
10
-0.16909
20
-0.176042
11
-0.154377
21
-0.189077
0
LINE
8
BLACK
6
CONTINUOUS
10
-0.154377
20
-0.189077
11
-0.154377
21
-0.189077
0
LINE
8
BLACK
6
CONTINUOUS
10
-0.154377
20
-0.189077
11
-0.138661
21
-0.200886
0
LINE
8
BLACK
6
CONTINUOUS
10
-0.138661
20
-0.200886
11
-0.122048
21
-0.211392
0
LINE
8
BLACK
6
CONTINUOUS
10
-0.122048
20
-0.211392
11
-0.122047
21
-0.211392
0
LINE
8
BLACK
6
CONTINUOUS
10
-0.122047
20
-0.211392
11
-0.104641
21
-0.220527
0
LINE
8
BLACK
6
CONTINUOUS
10
-0.104641
20
-0.220527
11
-0.104641
21
-0.220527
0
LINE
8
BLACK
6
CONTINUOUS
10
-0.104641
20
-0.220527
11
-0.0865568
21
-0.228232
0
LINE
8
BLACK
6
CONTINUOUS
10
-0.0865568
20
-0.228232
11
-0.0679113
21
-0.234457
0
LINE
8
BLACK
6
CONTINUOUS
10
-0.0679113
20
-0.234457
11
-0.0679111
21
-0.234457
0
LINE
8
BLACK
6
CONTINUOUS
10
-0.0679111
20
-0.234457
11
-0.0488259
21
-0.239161
0
LINE
8
BLACK
6
CONTINUOUS
10
-0.0488259
20
-0.239161
11
-0.0488248
21
-0.239162
0
LINE
8
BLACK
6
CONTINUOUS
10
-0.0488248
20
-0.239162
11
-0.0294231
21
-0.242315
0
LINE
8
BLACK
6
CONTINUOUS
10
-0.0294231
20
-0.242315
11
-0.0294227
21
-0.242315
0
LINE
8
BLACK
6
CONTINUOUS
10
-0.0294227
20
-0.242315
11
-0.00982854
21
-0.243896
0
LINE
8
BLACK
6
CONTINUOUS
10
-0.00982854
20
-0.243896
11
-0.00982835
21
-0.243897
0
LINE
8
BLACK
6
CONTINUOUS
10
-0.00982835
20
-0.243897
11
0.00982835
21
-0.243897
0
LINE
8
BLACK
6
CONTINUOUS
10
0.00982835
20
-0.243897
11
0.0098285
21
-0.243896
0
LINE
8
BLACK
6
CONTINUOUS
10
0.0098285
20
-0.243896
11
0.0294227
21
-0.242315
0
LINE
8
BLACK
6
CONTINUOUS
10
0.0294227
20
-0.242315
11
0.0294231
21
-0.242315
0
LINE
8
BLACK
6
CONTINUOUS
10
0.0294231
20
-0.242315
11
0.0488248
21
-0.239162
0
LINE
8
BLACK
6
CONTINUOUS
10
0.0488248
20
-0.239162
11
0.0488259
21
-0.239161
0
LINE
8
BLACK
6
CONTINUOUS
10
0.0488259
20
-0.239161
11
0.0679111
21
-0.234457
0
LINE
8
BLACK
6
CONTINUOUS
10
0.0679111
20
-0.234457
11
0.0679112
21
-0.234457
0
LINE
8
BLACK
6
CONTINUOUS
10
0.0679112
20
-0.234457
11
0.0865567
21
-0.228232
0
LINE
8
BLACK
6
CONTINUOUS
10
0.0865567
20
-0.228232
11
0.104641
21
-0.220527
0
LINE
8
BLACK
6
CONTINUOUS
10
0.104641
20
-0.220527
11
0.104641
21
-0.220527
0
LINE
8
BLACK
6
CONTINUOUS
10
0.104641
20
-0.220527
11
0.122047
21
-0.211392
0
LINE
8
BLACK
6
CONTINUOUS
10
0.122047
20
-0.211392
11
0.122048
21
-0.211392
0
LINE
8
BLACK
6
CONTINUOUS
10
0.122048
20
-0.211392
11
0.138661
21
-0.200886
0
LINE
8
BLACK
6
CONTINUOUS
10
0.138661
20
-0.200886
11
0.154377
21
-0.189077
0
LINE
8
BLACK
6
CONTINUOUS
10
0.154377
20
-0.189077
11
0.154377
21
-0.189077
0
LINE
8
BLACK
6
CONTINUOUS
10
0.154377
20
-0.189077
11
0.16909
21
-0.176042
0
LINE
8
BLACK
6
CONTINUOUS
10
0.16909
20
-0.176042
11
0.16909
21
-0.176041
0
LINE
8
BLACK
6
CONTINUOUS
10
0.16909
20
-0.176041
11
0.182707
21
-0.161865
0
LINE
8
BLACK
6
CONTINUOUS
10
0.182707
20
-0.161865
11
0.182708
21
-0.161864
0
LINE
8
BLACK
6
CONTINUOUS
10
0.182708
20
-0.161864
11
0.195139
21
-0.146638
0
LINE
8
BLACK
6
CONTINUOUS
10
0.195139
20
-0.146638
11
0.19514
21
-0.146638
0
LINE
8
BLACK
6
CONTINUOUS
10
0.19514
20
-0.146638
11
0.206306
21
-0.13046
0
LINE
8
BLACK
6
CONTINUOUS
10
0.206306
20
-0.13046
11
0.216135
21
-0.113436
0
LINE
8
BLACK
6
CONTINUOUS
10
0.216135
20
-0.113436
11
0.216135
21
-0.113436
0
LINE
8
BLACK
6
CONTINUOUS
10
0.216135
20
-0.113436
11
0.224562
21
-0.095677
0
LINE
8
BLACK
6
CONTINUOUS
10
0.224562
20
-0.095677
11
0.231532
21
-0.0772972
0
LINE
8
BLACK
6
CONTINUOUS
10
0.231532
20
-0.0772972
11
0.237001
21
-0.0584161
0
LINE
8
BLACK
6
CONTINUOUS
10
0.237001
20
-0.0584161
11
0.240934
21
-0.0391555
0
LINE
8
BLACK
6
CONTINUOUS
10
0.240934
20
-0.0391555
11
0.243303
21
-0.0196413
0
LINE
8
BLACK
6
CONTINUOUS
10
0.243303
20
-0.0196413
11
0.243303
21
-0.0196411
0
LINE
8
BLACK
6
CONTINUOUS
10
0.243303
20
-0.0196411
11
0.244094
21
-1.1811e-07
0
LINE
8
BLACK
6
CONTINUOUS
10
0.244094
20
-1.1811e-07
11
0.244094
21
1.5748e-07
0
LINE
8
BLACK
6
CONTINUOUS
10
0.244094
20
1.5748e-07
11
0.243303
21
0.0196411
0
LINE
8
BLACK
6
CONTINUOUS
10
0.243303
20
0.0196411
11
0.243303
21
0.0196413
0
LINE
8
BLACK
6
CONTINUOUS
10
0.243303
20
0.0196413
11
0.240934
21
0.0391556
0
LINE
8
BLACK
6
CONTINUOUS
10
0.240934
20
0.0391556
11
0.237001
21
0.0584161
0
LINE
8
BLACK
6
CONTINUOUS
10
0.237001
20
0.0584161
11
0.231532
21
0.0772973
0
LINE
8
BLACK
6
CONTINUOUS
10
0.231532
20
0.0772973
11
0.224562
21
0.0956771
0
LINE
8
BLACK
6
CONTINUOUS
10
0.224562
20
0.0956771
11
0.216135
21
0.113436
0
LINE
8
BLACK
6
CONTINUOUS
10
0.216135
20
0.113436
11
0.216135
21
0.113436
0
LINE
8
BLACK
6
CONTINUOUS
10
0.216135
20
0.113436
11
0.206306
21
0.13046
0
LINE
8
BLACK
6
CONTINUOUS
10
0.206306
20
0.13046
11
0.19514
21
0.146638
0
LINE
8
BLACK
6
CONTINUOUS
10
0.19514
20
0.146638
11
0.195139
21
0.146638
0
LINE
8
BLACK
6
CONTINUOUS
10
0.195139
20
0.146638
11
0.182708
21
0.161864
0
LINE
8
BLACK
6
CONTINUOUS
10
0.182708
20
0.161864
11
0.182707
21
0.161865
0
LINE
8
BLACK
6
CONTINUOUS
10
0.182707
20
0.161865
11
0.16909
21
0.176041
0
LINE
8
BLACK
6
CONTINUOUS
10
0.16909
20
0.176041
11
0.16909
21
0.176042
0
LINE
8
BLACK
6
CONTINUOUS
10
0.16909
20
0.176042
11
0.154377
21
0.189077
0
LINE
8
BLACK
6
CONTINUOUS
10
0.154377
20
0.189077
11
0.154377
21
0.189077
0
LINE
8
BLACK
6
CONTINUOUS
10
0.154377
20
0.189077
11
0.138661
21
0.200886
0
LINE
8
BLACK
6
CONTINUOUS
10
0.138661
20
0.200886
11
0.122048
21
0.211392
0
LINE
8
BLACK
6
CONTINUOUS
10
0.122048
20
0.211392
11
0.122047
21
0.211392
0
LINE
8
BLACK
6
CONTINUOUS
10
0.122047
20
0.211392
11
0.104641
21
0.220527
0
LINE
8
BLACK
6
CONTINUOUS
10
0.104641
20
0.220527
11
0.104641
21
0.220527
0
LINE
8
BLACK
6
CONTINUOUS
10
0.104641
20
0.220527
11
0.0865567
21
0.228232
0
LINE
8
BLACK
6
CONTINUOUS
10
0.0865567
20
0.228232
11
0.0679112
21
0.234457
0
LINE
8
BLACK
6
CONTINUOUS
10
0.0679112
20
0.234457
11
0.0679111
21
0.234457
0
LINE
8
BLACK
6
CONTINUOUS
10
0.0679111
20
0.234457
11
0.0488259
21
0.239161
0
LINE
8
BLACK
6
CONTINUOUS
10
0.0488259
20
0.239161
11
0.0488248
21
0.239162
0
LINE
8
BLACK
6
CONTINUOUS
10
0.0488248
20
0.239162
11
0.0294231
21
0.242315
0
LINE
8
BLACK
6
CONTINUOUS
10
0.0294231
20
0.242315
11
0.0294227
21
0.242315
0
LINE
8
BLACK
6
CONTINUOUS
10
0.0294227
20
0.242315
11
0.0098285
21
0.243897
0
LINE
8
BLACK
6
CONTINUOUS
10
0.0098285
20
0.243897
11
-0.00982854
21
0.243897
0
LINE
8
BLACK
6
CONTINUOUS
10
-0.00982854
20
0.243897
11
-0.0294227
21
0.242315
0
LINE
8
BLACK
6
CONTINUOUS
10
-0.0294227
20
0.242315
11
-0.0294231
21
0.242315
0
LINE
8
BLACK
6
CONTINUOUS
10
-0.0294231
20
0.242315
11
-0.0488248
21
0.239162
0
LINE
8
BLACK
6
CONTINUOUS
10
-0.0488248
20
0.239162
11
-0.0488259
21
0.239161
0
LINE
8
BLACK
6
CONTINUOUS
10
-0.0488259
20
0.239161
11
-0.0679111
21
0.234457
0
LINE
8
BLACK
6
CONTINUOUS
10
-0.0679111
20
0.234457
11
-0.0679113
21
0.234457
0
LINE
8
BLACK
6
CONTINUOUS
10
-0.0679113
20
0.234457
11
-0.0865568
21
0.228232
0
LINE
8
BLACK
6
CONTINUOUS
10
-0.0865568
20
0.228232
11
-0.104641
21
0.220527
0
LINE
8
BLACK
6
CONTINUOUS
10
-0.104641
20
0.220527
11
-0.104641
21
0.220527
0
LINE
8
BLACK
6
CONTINUOUS
10
-0.104641
20
0.220527
11
-0.122047
21
0.211392
0
LINE
8
BLACK
6
CONTINUOUS
10
-0.122047
20
0.211392
11
-0.122048
21
0.211392
0
LINE
8
BLACK
6
CONTINUOUS
10
-0.122048
20
0.211392
11
-0.138661
21
0.200886
0
LINE
8
BLACK
6
CONTINUOUS
10
-0.138661
20
0.200886
11
-0.154377
21
0.189077
0
LINE
8
BLACK
6
CONTINUOUS
10
-0.154377
20
0.189077
11
-0.154377
21
0.189077
0
LINE
8
BLACK
6
CONTINUOUS
10
-0.154377
20
0.189077
11
-0.16909
21
0.176042
0
LINE
8
BLACK
6
CONTINUOUS
10
-0.16909
20
0.176042
11
-0.16909
21
0.176041
0
LINE
8
BLACK
6
CONTINUOUS
10
-0.16909
20
0.176041
11
-0.182707
21
0.161865
0
LINE
8
BLACK
6
CONTINUOUS
10
-0.182707
20
0.161865
11
-0.182708
21
0.161864
0
LINE
8
BLACK
6
CONTINUOUS
10
-0.182708
20
0.161864
11
-0.195139
21
0.146638
0
LINE
8
BLACK
6
CONTINUOUS
10
-0.195139
20
0.146638
11
-0.19514
21
0.146638
0
LINE
8
BLACK
6
CONTINUOUS
10
-0.19514
20
0.146638
11
-0.206306
21
0.13046
0
LINE
8
BLACK
6
CONTINUOUS
10
-0.206306
20
0.13046
11
-0.216135
21
0.113436
0
LINE
8
BLACK
6
CONTINUOUS
10
-0.216135
20
0.113436
11
-0.216135
21
0.113436
0
LINE
8
BLACK
6
CONTINUOUS
10
-0.216135
20
0.113436
11
-0.224562
21
0.0956771
0
LINE
8
BLACK
6
CONTINUOUS
10
-0.224562
20
0.0956771
11
-0.231532
21
0.0772973
0
LINE
8
BLACK
6
CONTINUOUS
10
-0.231532
20
0.0772973
11
-0.237001
21
0.0584161
0
LINE
8
BLACK
6
CONTINUOUS
10
-0.237001
20
0.0584161
11
-0.240934
21
0.0391556
0
LINE
8
BLACK
6
CONTINUOUS
10
-0.240934
20
0.0391556
11
-0.243303
21
0.0196413
0
LINE
8
BLACK
6
CONTINUOUS
10
-0.243303
20
0.0196413
11
-0.243303
21
0.0196411
0
LINE
8
BLACK
6
CONTINUOUS
10
-0.243303
20
0.0196411
11
-0.244094
21
1.5748e-07
0
LINE
8
BLACK
6
CONTINUOUS
10
-0.244094
20
1.5748e-07
11
-0.244094
21
-1.1811e-07
0
LINE
8
BLACK
6
CONTINUOUS
10
-0.244094
20
-1.1811e-07
11
-0.243303
21
-0.0196411
0
LINE
8
BLACK
6
CONTINUOUS
10
-1.2438
20
0.784162
11
-1.2438
21
0.784161
0
LINE
8
BLACK
6
CONTINUOUS
10
-1.2438
20
0.784161
11
-1.23872
21
0.768504
0
LINE
8
BLACK
6
CONTINUOUS
10
-1.23872
20
0.768504
11
-1.23872
21
0.768504
0
LINE
8
BLACK
6
CONTINUOUS
10
-1.23872
20
0.768504
11
-1.23048
21
0.754248
0
LINE
8
BLACK
6
CONTINUOUS
10
-1.23048
20
0.754248
11
-1.23048
21
0.754248
0
LINE
8
BLACK
6
CONTINUOUS
10
-1.23048
20
0.754248
11
-1.21947
21
0.742016
0
LINE
8
BLACK
6
CONTINUOUS
10
-1.21947
20
0.742016
11
-1.21947
21
0.742016
0
LINE
8
BLACK
6
CONTINUOUS
10
-1.21947
20
0.742016
11
-1.20615
21
0.732339
0
LINE
8
BLACK
6
CONTINUOUS
10
-1.20615
20
0.732339
11
-1.20615
21
0.732339
0
LINE
8
BLACK
6
CONTINUOUS
10
-1.20615
20
0.732339
11
-1.19164
21
0.722374
0
LINE
8
BLACK
6
CONTINUOUS
10
-1.19164
20
0.722374
11
-1.16688
21
0.705382
0
LINE
8
BLACK
6
CONTINUOUS
10
-1.16688
20
0.705382
11
-1.16688
21
0.705382
0
LINE
8
BLACK
6
CONTINUOUS
10
-1.16688
20
0.705382
11
-1.16688
21
0.705382
0
LINE
8
BLACK
6
CONTINUOUS
10
-1.16688
20
0.705382
11
-1.13903
21
0.686264
0
LINE
8
BLACK
6
CONTINUOUS
10
-1.13903
20
0.686264
11
-1.13903
21
0.686264
0
LINE
8
BLACK
6
CONTINUOUS
10
-1.13903
20
0.686264
11
-1.10816
21
0.665071
0
LINE
8
BLACK
6
CONTINUOUS
10
-1.10816
20
0.665071
11
-1.07436
21
0.641871
0
LINE
8
BLACK
6
CONTINUOUS
10
-1.07436
20
0.641871
11
-1.07436
21
0.64187
0
LINE
8
BLACK
6
CONTINUOUS
10
-1.07436
20
0.64187
11
-1.03772
21
0.616717
0
LINE
8
BLACK
6
CONTINUOUS
10
-1.03772
20
0.616717
11
-1.03772
21
0.616717
0
LINE
8
BLACK
6
CONTINUOUS
10
-1.03772
20
0.616717
11
-0.998339
21
0.589681
0
LINE
8
BLACK
6
CONTINUOUS
10
-0.998339
20
0.589681
11
-0.998339
21
0.589681
0
LINE
8
BLACK
6
CONTINUOUS
10
-0.998339
20
0.589681
11
-0.956327
21
0.560839
0
LINE
8
BLACK
6
CONTINUOUS
10
-0.956327
20
0.560839
11
-0.956327
21
0.560839
0
LINE
8
BLACK
6
CONTINUOUS
10
-0.956327
20
0.560839
11
-0.933599
21
0.545237
0
LINE
8
BLACK
6
CONTINUOUS
10
-0.933599
20
0.545237
11
-0.933599
21
0.545236
0
LINE
8
BLACK
6
CONTINUOUS
10
-0.933599
20
0.545236
11
-0.918559
21
0.538544
0
LINE
8
BLACK
6
CONTINUOUS
10
-0.918559
20
0.538544
11
-0.902461
21
0.535118
0
LINE
8
BLACK
6
CONTINUOUS
10
-0.902461
20
0.535118
11
-0.885996
21
0.535118
0
LINE
8
BLACK
6
CONTINUOUS
10
-0.885996
20
0.535118
11
-0.885996
21
0.535118
0
LINE
8
BLACK
6
CONTINUOUS
10
-0.885996
20
0.535118
11
-0.869898
21
0.538544
0
LINE
8
BLACK
6
CONTINUOUS
10
-0.869898
20
0.538544
11
-0.854859
21
0.545236
0
LINE
8
BLACK
6
CONTINUOUS
10
-0.854859
20
0.545236
11
-0.854859
21
0.545236
0
LINE
8
BLACK
6
CONTINUOUS
10
-0.854859
20
0.545236
11
-0.841539
21
0.554914
0
LINE
8
BLACK
6
CONTINUOUS
10
-0.841539
20
0.554914
11
-0.830528
21
0.567146
0
LINE
8
BLACK
6
CONTINUOUS
10
-0.830528
20
0.567146
11
-0.830528
21
0.567146
0
LINE
8
BLACK
6
CONTINUOUS
10
-0.830528
20
0.567146
11
-0.814122
21
0.591012
0
LINE
8
BLACK
6
CONTINUOUS
10
-0.814122
20
0.591012
11
-0.814032
21
0.591136
0
LINE
8
BLACK
6
CONTINUOUS
10
-0.814032
20
0.591136
11
-0.779496
21
0.636148
0
LINE
8
BLACK
6
CONTINUOUS
10
-0.779496
20
0.636148
11
-0.779399
21
0.636268
0
LINE
8
BLACK
6
CONTINUOUS
10
-0.779399
20
0.636268
11
-0.747901
21
0.673146
0
LINE
8
BLACK
6
CONTINUOUS
10
-0.747901
20
0.673146
11
-0.747798
21
0.67326
0
LINE
8
BLACK
6
CONTINUOUS
10
-0.747798
20
0.67326
11
-0.714411
21
0.708445
0
LINE
8
BLACK
6
CONTINUOUS
10
-0.714411
20
0.708445
11
-0.714302
21
0.708553
0
LINE
8
BLACK
6
CONTINUOUS
10
-0.714302
20
0.708553
11
-0.673146
21
0.747605
0
LINE
8
BLACK
6
CONTINUOUS
10
-0.673146
20
0.747605
11
-0.673032
21
0.747708
0
LINE
8
BLACK
6
CONTINUOUS
10
-0.673032
20
0.747708
11
-0.629894
21
0.784552
0
LINE
8
BLACK
6
CONTINUOUS
10
-0.629894
20
0.784552
11
-0.629774
21
0.784649
0
LINE
8
BLACK
6
CONTINUOUS
10
-0.629774
20
0.784649
11
-0.591293
21
0.814178
0
LINE
8
BLACK
6
CONTINUOUS
10
-0.591293
20
0.814178
11
-0.591169
21
0.814268
0
LINE
8
BLACK
6
CONTINUOUS
10
-0.591169
20
0.814268
11
-0.551198
21
0.84174
0
LINE
8
BLACK
6
CONTINUOUS
10
-0.551198
20
0.84174
11
-0.551069
21
0.841824
0
LINE
8
BLACK
6
CONTINUOUS
10
-0.551069
20
0.841824
11
-0.502696
21
0.871464
0
LINE
8
BLACK
6
CONTINUOUS
10
-0.502696
20
0.871464
11
-0.502563
21
0.871541
0
LINE
8
BLACK
6
CONTINUOUS
10
-0.502563
20
0.871541
11
-0.452701
21
0.898613
0
LINE
8
BLACK
6
CONTINUOUS
10
-0.452701
20
0.898613
11
-0.452564
21
0.898683
0
LINE
8
BLACK
6
CONTINUOUS
10
-0.452564
20
0.898683
11
-0.408791
21
0.919565
0
LINE
8
BLACK
6
CONTINUOUS
10
-0.408791
20
0.919565
11
-0.40865
21
0.919628
0
LINE
8
BLACK
6
CONTINUOUS
10
-0.40865
20
0.919628
11
-0.363839
21
0.938187
0
LINE
8
BLACK
6
CONTINUOUS
10
-0.363839
20
0.938187
11
-0.363696
21
0.938242
0
LINE
8
BLACK
6
CONTINUOUS
10
-0.363696
20
0.938242
11
-0.310216
21
0.957179
0
LINE
8
BLACK
6
CONTINUOUS
10
-0.310216
20
0.957179
11
-0.31007
21
0.957227
0
LINE
8
BLACK
6
CONTINUOUS
10
-0.31007
20
0.957227
11
-0.255671
21
0.973341
0
LINE
8
BLACK
6
CONTINUOUS
10
-0.255671
20
0.973341
11
-0.255523
21
0.97338
0
LINE
8
BLACK
6
CONTINUOUS
10
-0.255523
20
0.97338
11
-0.208362
21
0.984703
0
LINE
8
BLACK
6
CONTINUOUS
10
-0.208362
20
0.984703
11
-0.208212
21
0.984735
0
LINE
8
BLACK
6
CONTINUOUS
10
-0.208212
20
0.984735
11
-0.160522
21
0.993577
0
LINE
8
BLACK
6
CONTINUOUS
10
-0.160522
20
0.993577
11
-0.16037
21
0.993601
0
LINE
8
BLACK
6
CONTINUOUS
10
-0.16037
20
0.993601
11
-0.104121
21
1.00101
0
LINE
8
BLACK
6
CONTINUOUS
10
-0.104121
20
1.00101
11
-0.103968
21
1.00102
0
LINE
8
BLACK
6
CONTINUOUS
10
-0.103968
20
1.00102
11
-0.0474086
21
1.00547
0
LINE
8
BLACK
6
CONTINUOUS
10
-0.0474086
20
1.00547
11
-0.0472555
21
1.00548
0
LINE
8
BLACK
6
CONTINUOUS
10
-0.0472555
20
1.00548
11
0.00122953
21
1.00675
0
LINE
8
BLACK
6
CONTINUOUS
10
0.00122953
20
1.00675
11
0.00138339
21
1.00675
0
LINE
8
BLACK
6
CONTINUOUS
10
0.00138339
20
1.00675
11
0.049869
21
1.00548
0
LINE
8
BLACK
6
CONTINUOUS
10
0.049869
20
1.00548
11
0.0500221
21
1.00547
0
LINE
8
BLACK
6
CONTINUOUS
10
0.0500221
20
1.00547
11
0.106582
21
1.00102
0
LINE
8
BLACK
6
CONTINUOUS
10
0.106582
20
1.00102
11
0.106735
21
1.00101
0
LINE
8
BLACK
6
CONTINUOUS
10
0.106735
20
1.00101
11
0.162983
21
0.993601
0
LINE
8
BLACK
6
CONTINUOUS
10
0.162983
20
0.993601
11
0.163135
21
0.993577
0
LINE
8
BLACK
6
CONTINUOUS
10
0.163135
20
0.993577
11
0.210825
21
0.984735
0
LINE
8
BLACK
6
CONTINUOUS
10
0.210825
20
0.984735
11
0.210975
21
0.984703
0
LINE
8
BLACK
6
CONTINUOUS
10
0.210975
20
0.984703
11
0.258136
21
0.97338
0
LINE
8
BLACK
6
CONTINUOUS
10
0.258136
20
0.97338
11
0.258285
21
0.973341
0
LINE
8
BLACK
6
CONTINUOUS
10
0.258285
20
0.973341
11
0.312683
21
0.957227
0
LINE
8
BLACK
6
CONTINUOUS
10
0.312683
20
0.957227
11
0.312829
21
0.957179
0
LINE
8
BLACK
6
CONTINUOUS
10
0.312829
20
0.957179
11
0.36631
21
0.938242
0
LINE
8
BLACK
6
CONTINUOUS
10
0.36631
20
0.938242
11
0.366453
21
0.938187
0
LINE
8
BLACK
6
CONTINUOUS
10
0.366453
20
0.938187
11
0.411264
21
0.919628
0
LINE
8
BLACK
6
CONTINUOUS
10
0.411264
20
0.919628
11
0.411404
21
0.919565
0
LINE
8
BLACK
6
CONTINUOUS
10
0.411404
20
0.919565
11
0.455178
21
0.898683
0
LINE
8
BLACK
6
CONTINUOUS
10
0.455178
20
0.898683
11
0.455314
21
0.898613
0
LINE
8
BLACK
6
CONTINUOUS
10
0.455314
20
0.898613
11
0.505176
21
0.871541
0
LINE
8
BLACK
6
CONTINUOUS
10
0.505176
20
0.871541
11
0.505309
21
0.871464
0
LINE
8
BLACK
6
CONTINUOUS
10
0.505309
20
0.871464
11
0.529999
21
0.856335
0
LINE
8
BLACK
6
CONTINUOUS
10
0.529999
20
0.856335
11
0.53
21
0.856335
0
LINE
8
BLACK
6
CONTINUOUS
10
0.53
20
0.856335
11
0.545039
21
0.849638
0
LINE
8
BLACK
6
CONTINUOUS
10
0.545039
20
0.849638
11
0.561141
21
0.846217
0
LINE
8
BLACK
6
CONTINUOUS
10
0.561141
20
0.846217
11
0.577602
21
0.846217
0
LINE
8
BLACK
6
CONTINUOUS
10
0.577602
20
0.846217
11
0.593704
21
0.849638
0
LINE
8
BLACK
6
CONTINUOUS
10
0.593704
20
0.849638
11
0.60874
21
0.856335
0
LINE
8
BLACK
6
CONTINUOUS
10
0.60874
20
0.856335
11
0.622059
21
0.866012
0
LINE
8
BLACK
6
CONTINUOUS
10
0.622059
20
0.866012
11
0.633074
21
0.878244
0
LINE
8
BLACK
6
CONTINUOUS
10
0.633074
20
0.878244
11
0.647492
21
0.90174
0
LINE
8
BLACK
6
CONTINUOUS
10
0.647492
20
0.90174
11
0.674141
21
0.945177
0
LINE
8
BLACK
6
CONTINUOUS
10
0.674141
20
0.945177
11
0.699122
21
0.985894
0
LINE
8
BLACK
6
CONTINUOUS
10
0.699122
20
0.985894
11
0.722362
21
1.02378
0
LINE
8
BLACK
6
CONTINUOUS
10
0.722362
20
1.02378
11
0.722362
21
1.02378
0
LINE
8
BLACK
6
CONTINUOUS
10
0.722362
20
1.02378
11
0.743803
21
1.05872
0
LINE
8
BLACK
6
CONTINUOUS
10
0.743803
20
1.05872
11
0.763385
21
1.09063
0
LINE
8
BLACK
6
CONTINUOUS
10
0.763385
20
1.09063
11
0.781051
21
1.11943
0
LINE
8
BLACK
6
CONTINUOUS
10
0.781051
20
1.11943
11
0.781051
21
1.11943
0
LINE
8
BLACK
6
CONTINUOUS
10
0.781051
20
1.11943
11
0.796756
21
1.14502
0
LINE
8
BLACK
6
CONTINUOUS
10
0.796756
20
1.14502
11
0.80596
21
1.16003
0
LINE
8
BLACK
6
CONTINUOUS
10
0.80596
20
1.16003
11
0.814192
21
1.17428
0
LINE
8
BLACK
6
CONTINUOUS
10
0.814192
20
1.17428
11
0.819279
21
1.18994
0
LINE
8
BLACK
6
CONTINUOUS
10
0.819279
20
1.18994
11
0.820999
21
1.20631
0
LINE
8
BLACK
6
CONTINUOUS
10
0.820999
20
1.20631
11
0.819279
21
1.22268
0
LINE
8
BLACK
6
CONTINUOUS
10
0.819279
20
1.22268
11
0.814192
21
1.23834
0
LINE
8
BLACK
6
CONTINUOUS
10
0.814192
20
1.23834
11
0.814192
21
1.23834
0
LINE
8
BLACK
6
CONTINUOUS
10
0.814192
20
1.23834
11
0.80596
21
1.25259
0
LINE
8
BLACK
6
CONTINUOUS
10
0.80596
20
1.25259
11
0.80596
21
1.25259
0
LINE
8
BLACK
6
CONTINUOUS
10
0.80596
20
1.25259
11
0.794949
21
1.26483
0
LINE
8
BLACK
6
CONTINUOUS
10
0.794949
20
1.26483
11
0.794948
21
1.26483
0
LINE
8
BLACK
6
CONTINUOUS
10
0.794948
20
1.26483
11
0.781629
21
1.2745
0
LINE
8
BLACK
6
CONTINUOUS
10
0.781629
20
1.2745
11
0.781629
21
1.2745
0
LINE
8
BLACK
6
CONTINUOUS
10
0.781629
20
1.2745
11
0.773922
21
1.27923
0
LINE
8
BLACK
6
CONTINUOUS
10
0.773922
20
1.27923
11
0.773922
21
1.27923
0
LINE
8
BLACK
6
CONTINUOUS
10
0.773922
20
1.27923
11
0.753904
21
1.29149
0
LINE
8
BLACK
6
CONTINUOUS
10
0.753904
20
1.29149
11
0.749339
21
1.29429
0
LINE
8
BLACK
6
CONTINUOUS
10
0.749339
20
1.29429
11
0.749338
21
1.29429
0
LINE
8
BLACK
6
CONTINUOUS
10
0.749338
20
1.29429
11
0.736357
21
1.30134
0
LINE
8
BLACK
6
CONTINUOUS
10
0.736357
20
1.30134
11
0.722329
21
1.30896
0
LINE
8
BLACK
6
CONTINUOUS
10
0.722329
20
1.30896
11
0.722329
21
1.30896
0
LINE
8
BLACK
6
CONTINUOUS
10
0.722329
20
1.30896
11
0.712281
21
1.31441
0
LINE
8
BLACK
6
CONTINUOUS
10
0.712281
20
1.31441
11
0.712279
21
1.31441
0
LINE
8
BLACK
6
CONTINUOUS
10
0.712279
20
1.31441
11
0.712279
21
1.31441
0
LINE
8
BLACK
6
CONTINUOUS
10
0.712279
20
1.31441
11
0.70624
21
1.31769
0
LINE
8
BLACK
6
CONTINUOUS
10
0.70624
20
1.31769
11
0.70624
21
1.31769
0
LINE
8
BLACK
6
CONTINUOUS
10
0.70624
20
1.31769
11
0.704224
21
1.31878
0
LINE
8
BLACK
6
CONTINUOUS
10
0.704224
20
1.31878
11
0.704224
21
1.31878
0
LINE
8
BLACK
6
CONTINUOUS
10
0.704224
20
1.31878
11
0.704224
21
1.31878
0
LINE
8
BLACK
6
CONTINUOUS
10
0.704224
20
1.31878
11
0.68413
21
1.3297
0
LINE
8
BLACK
6
CONTINUOUS
10
0.68413
20
1.3297
11
0.684129
21
1.3297
0
LINE
8
BLACK
6
CONTINUOUS
10
0.684129
20
1.3297
11
0.617154
21
1.36164
0
LINE
8
BLACK
6
CONTINUOUS
10
0.617154
20
1.36164
11
0.617154
21
1.36164
0
LINE
8
BLACK
6
CONTINUOUS
10
0.617154
20
1.36164
11
0.602118
21
1.36833
0
LINE
8
BLACK
6
CONTINUOUS
10
0.602118
20
1.36833
11
0.602117
21
1.36834
0
LINE
8
BLACK
6
CONTINUOUS
10
0.602117
20
1.36834
11
0.533562
21
1.39673
0
LINE
8
BLACK
6
CONTINUOUS
10
0.533562
20
1.39673
11
0.533562
21
1.39673
0
LINE
8
BLACK
6
CONTINUOUS
10
0.533562
20
1.39673
11
0.463614
21
1.4215
0
LINE
8
BLACK
6
CONTINUOUS
10
0.463614
20
1.4215
11
0.463614
21
1.4215
0
LINE
8
BLACK
6
CONTINUOUS
10
0.463614
20
1.4215
11
0.392469
21
1.44257
0
LINE
8
BLACK
6
CONTINUOUS
10
0.392469
20
1.44257
11
0.320317
21
1.4599
0
LINE
8
BLACK
6
CONTINUOUS
10
0.320317
20
1.4599
11
0.304215
21
1.46332
0
LINE
8
BLACK
6
CONTINUOUS
10
0.304215
20
1.46332
11
0.304214
21
1.46332
0
LINE
8
BLACK
6
CONTINUOUS
10
0.304214
20
1.46332
11
0.231255
21
1.47684
0
LINE
8
BLACK
6
CONTINUOUS
10
0.231255
20
1.47684
11
0.157689
21
1.48653
0
LINE
8
BLACK
6
CONTINUOUS
10
0.157689
20
1.48653
11
0.157688
21
1.48653
0
LINE
8
BLACK
6
CONTINUOUS
10
0.157688
20
1.48653
11
0.0837142
21
1.49235
0
LINE
8
BLACK
6
CONTINUOUS
10
0.0837142
20
1.49235
11
0.00953894
21
1.49429
0
LINE
8
BLACK
6
CONTINUOUS
10
0.00953894
20
1.49429
11
-0.00692543
21
1.49429
0
LINE
8
BLACK
6
CONTINUOUS
10
-0.00692543
20
1.49429
11
-0.0811007
21
1.49235
0
LINE
8
BLACK
6
CONTINUOUS
10
-0.0811007
20
1.49235
11
-0.155074
21
1.48653
0
LINE
8
BLACK
6
CONTINUOUS
10
-0.155074
20
1.48653
11
-0.155075
21
1.48653
0
LINE
8
BLACK
6
CONTINUOUS
10
-0.155075
20
1.48653
11
-0.228641
21
1.47684
0
LINE
8
BLACK
6
CONTINUOUS
10
-0.228641
20
1.47684
11
-0.301601
21
1.46332
0
LINE
8
BLACK
6
CONTINUOUS
10
-0.301601
20
1.46332
11
-0.301601
21
1.46332
0
LINE
8
BLACK
6
CONTINUOUS
10
-0.301601
20
1.46332
11
-0.317703
21
1.4599
0
LINE
8
BLACK
6
CONTINUOUS
10
-0.317703
20
1.4599
11
-0.389855
21
1.44257
0
LINE
8
BLACK
6
CONTINUOUS
10
-0.389855
20
1.44257
11
-0.461001
21
1.4215
0
LINE
8
BLACK
6
CONTINUOUS
10
-0.461001
20
1.4215
11
-0.461001
21
1.4215
0
LINE
8
BLACK
6
CONTINUOUS
10
-0.461001
20
1.4215
11
-0.530948
21
1.39673
0
LINE
8
BLACK
6
CONTINUOUS
10
-0.530948
20
1.39673
11
-0.530949
21
1.39673
0
LINE
8
BLACK
6
CONTINUOUS
10
-0.530949
20
1.39673
11
-0.599504
21
1.36833
0
LINE
8
BLACK
6
CONTINUOUS
10
-0.599504
20
1.36833
11
-0.599504
21
1.36833
0
LINE
8
BLACK
6
CONTINUOUS
10
-0.599504
20
1.36833
11
-0.61454
21
1.36164
0
LINE
8
BLACK
6
CONTINUOUS
10
-0.61454
20
1.36164
11
-0.614541
21
1.36164
0
LINE
8
BLACK
6
CONTINUOUS
10
-0.614541
20
1.36164
11
-0.681515
21
1.3297
0
LINE
8
BLACK
6
CONTINUOUS
10
-0.681515
20
1.3297
11
-0.681516
21
1.3297
0
LINE
8
BLACK
6
CONTINUOUS
10
-0.681516
20
1.3297
11
-0.746724
21
1.29429
0
LINE
8
BLACK
6
CONTINUOUS
10
-0.746724
20
1.29429
11
-0.746725
21
1.29429
0
LINE
8
BLACK
6
CONTINUOUS
10
-0.746725
20
1.29429
11
-0.809992
21
1.25552
0
LINE
8
BLACK
6
CONTINUOUS
10
-0.809992
20
1.25552
11
-0.871146
21
1.21349
0
LINE
8
BLACK
6
CONTINUOUS
10
-0.871146
20
1.21349
11
-0.88446
21
1.20382
0
LINE
8
BLACK
6
CONTINUOUS
10
-0.88446
20
1.20382
11
-0.94333
21
1.15864
0
LINE
8
BLACK
6
CONTINUOUS
10
-0.94333
20
1.15864
11
-0.943331
21
1.15864
0
LINE
8
BLACK
6
CONTINUOUS
10
-0.943331
20
1.15864
11
-0.999756
21
1.11045
0
LINE
8
BLACK
6
CONTINUOUS
10
-0.999756
20
1.11045
11
-1.05358
21
1.05937
0
LINE
8
BLACK
6
CONTINUOUS
10
-1.05358
20
1.05937
11
-1.10466
21
1.00555
0
LINE
8
BLACK
6
CONTINUOUS
10
-1.10466
20
1.00555
11
-1.10466
21
1.00555
0
LINE
8
BLACK
6
CONTINUOUS
10
-1.10466
20
1.00555
11
-1.11567
21
0.99332
0
LINE
8
BLACK
6
CONTINUOUS
10
-1.11567
20
0.99332
11
-1.11567
21
0.993318
0
LINE
8
BLACK
6
CONTINUOUS
10
-1.11567
20
0.993318
11
-1.16386
21
0.936894
0
LINE
8
BLACK
6
CONTINUOUS
10
-1.16386
20
0.936894
11
-1.17778
21
0.918754
0
LINE
8
BLACK
6
CONTINUOUS
10
-1.17778
20
0.918754
11
-1.17918
21
0.916936
0
LINE
8
BLACK
6
CONTINUOUS
10
-1.17918
20
0.916936
11
-1.17918
21
0.916936
0
LINE
8
BLACK
6
CONTINUOUS
10
-1.17918
20
0.916936
11
-1.18336
21
0.911481
0
LINE
8
BLACK
6
CONTINUOUS
10
-1.18336
20
0.911481
11
-1.19032
21
0.90241
0
LINE
8
BLACK
6
CONTINUOUS
10
-1.19032
20
0.90241
11
-1.19032
21
0.90241
0
LINE
8
BLACK
6
CONTINUOUS
10
-1.19032
20
0.90241
11
-1.20004
21
0.889744
0
LINE
8
BLACK
6
CONTINUOUS
10
-1.20004
20
0.889744
11
-1.20903
21
0.878024
0
LINE
8
BLACK
6
CONTINUOUS
10
-1.20903
20
0.878024
11
-1.21207
21
0.87361
0
LINE
8
BLACK
6
CONTINUOUS
10
-1.21207
20
0.87361
11
-1.21207
21
0.87361
0
LINE
8
BLACK
6
CONTINUOUS
10
-1.21207
20
0.87361
11
-1.22536
21
0.854268
0
LINE
8
BLACK
6
CONTINUOUS
10
-1.22536
20
0.854268
11
-1.22536
21
0.854268
0
LINE
8
BLACK
6
CONTINUOUS
10
-1.22536
20
0.854268
11
-1.23048
21
0.846815
0
LINE
8
BLACK
6
CONTINUOUS
10
-1.23048
20
0.846815
11
-1.23872
21
0.832559
0
LINE
8
BLACK
6
CONTINUOUS
10
-1.23872
20
0.832559
11
-1.23872
21
0.832559
0
LINE
8
BLACK
6
CONTINUOUS
10
-1.23872
20
0.832559
11
-1.2438
21
0.816902
0
LINE
8
BLACK
6
CONTINUOUS
10
-1.2438
20
0.816902
11
-1.2438
21
0.816902
0
LINE
8
BLACK
6
CONTINUOUS
10
-1.2438
20
0.816902
11
-1.24552
21
0.800532
0
LINE
8
BLACK
6
CONTINUOUS
10
-1.24552
20
0.800532
11
-1.2438
21
0.784162
  0
ENDSEC
  0
EOF
