  0
SECTION
  2
HEADER
  9
$ANGBASE
  50
0.0
  9
$ANGDIR
  70
1
  9
$MEASUREMENT
  70
0
  0
ENDSEC
  0
SECTION
  2
TABLES
  0
TABLE
  2
LTYPE
  70
4
  0
LTYPE
  5
40F
  2
CONTINUOUS
  70
0
  3
Solid line
  72
65
  73
0
  40
0.0
  0
LTYPE
  5
410
  2
DASHDOT
 70
0
  3
Dash Dot ____ _ ____ _
 72
65
 73
4
 40
2.0
 49
1.25
 49
-0.25
 49
0.25
 49
-0.25
  0
LTYPE
  5
411
  2
DASHED
 70
0
  3
Dashed __ __ __ __ __
 72
65
 73
2
 40
0.75
 49
0.5
 49
-0.25
  0
LTYPE
  5
43B
  2
DOTTED
 70
0
  3
Dotted .  .  .  .
 72
65
 73
2
 40
0.2
 49
0.0
 49
-0.2
  0
ENDTAB
  0
TABLE
  2
STYLE
  70
4
  0
STYLE
  2
KICAD
  70
0
  40
0
  41
1
  42
1
  50
0
  71
0
  3
isocp.shx
  0
STYLE
  2
KICADB
  70
0
  40
0
  41
1
  42
1
  50
0
  71
0
  3
isocp.shx
  0
STYLE
  2
KICADI
  70
0
  40
0
  41
1
  42
1
  50
15
  71
0
  3
isocp.shx
  0
STYLE
  2
KICADBI
  70
0
  40
0
  41
1
  42
1
  50
15
  71
0
  3
isocp.shx
  0
ENDTAB
  0
TABLE
  2
LAYER
  70
1
  0
LAYER
  2
BLACK
  70
0
  62
7
  6
CONTINUOUS
  0
ENDTAB
  0
ENDSEC
  0
SECTION
  2
ENTITIES
0
LINE
8
BLACK
6
CONTINUOUS
10
0.017771
20
1.57303
11
0.0835719
21
1.57131
0
LINE
8
BLACK
6
CONTINUOUS
10
0.0835719
20
1.57131
11
0.0838787
21
1.5713
0
LINE
8
BLACK
6
CONTINUOUS
10
0.0838787
20
1.5713
11
0.165765
21
1.56485
0
LINE
8
BLACK
6
CONTINUOUS
10
0.165765
20
1.56485
11
0.166071
21
1.56482
0
LINE
8
BLACK
6
CONTINUOUS
10
0.166071
20
1.56482
11
0.187591
21
1.56198
0
LINE
8
BLACK
6
CONTINUOUS
10
0.187591
20
1.56198
11
0.247509
21
1.55409
0
LINE
8
BLACK
6
CONTINUOUS
10
0.247509
20
1.55409
11
0.247811
21
1.55405
0
LINE
8
BLACK
6
CONTINUOUS
10
0.247811
20
1.55405
11
0.283078
21
1.54751
0
LINE
8
BLACK
6
CONTINUOUS
10
0.283078
20
1.54751
11
0.328575
21
1.53908
0
LINE
8
BLACK
6
CONTINUOUS
10
0.328575
20
1.53908
11
0.328876
21
1.53902
0
LINE
8
BLACK
6
CONTINUOUS
10
0.328876
20
1.53902
11
0.408749
21
1.51984
0
LINE
8
BLACK
6
CONTINUOUS
10
0.408749
20
1.51984
11
0.409045
21
1.51976
0
LINE
8
BLACK
6
CONTINUOUS
10
0.409045
20
1.51976
11
0.487801
21
1.49643
0
LINE
8
BLACK
6
CONTINUOUS
10
0.487801
20
1.49643
11
0.488093
21
1.49634
0
LINE
8
BLACK
6
CONTINUOUS
10
0.488093
20
1.49634
11
0.56552
21
1.46892
0
LINE
8
BLACK
6
CONTINUOUS
10
0.56552
20
1.46892
11
0.565806
21
1.46881
0
LINE
8
BLACK
6
CONTINUOUS
10
0.565806
20
1.46881
11
0.641697
21
1.43737
0
LINE
8
BLACK
6
CONTINUOUS
10
0.641697
20
1.43737
11
0.641977
21
1.43725
0
LINE
8
BLACK
6
CONTINUOUS
10
0.641977
20
1.43725
11
0.716113
21
1.40189
0
LINE
8
BLACK
6
CONTINUOUS
10
0.716113
20
1.40189
11
0.716387
21
1.40175
0
LINE
8
BLACK
6
CONTINUOUS
10
0.716387
20
1.40175
11
0.788573
21
1.36255
0
LINE
8
BLACK
6
CONTINUOUS
10
0.788573
20
1.36255
11
0.788839
21
1.3624
0
LINE
8
BLACK
6
CONTINUOUS
10
0.788839
20
1.3624
11
0.858876
21
1.31948
0
LINE
8
BLACK
6
CONTINUOUS
10
0.858876
20
1.31948
11
0.859134
21
1.31931
0
LINE
8
BLACK
6
CONTINUOUS
10
0.859134
20
1.31931
11
0.926826
21
1.27279
0
LINE
8
BLACK
6
CONTINUOUS
10
0.926826
20
1.27279
11
0.927074
21
1.27261
0
LINE
8
BLACK
6
CONTINUOUS
10
0.927074
20
1.27261
11
0.992239
21
1.22261
0
LINE
8
BLACK
6
CONTINUOUS
10
0.992239
20
1.22261
11
0.992478
21
1.22241
0
LINE
8
BLACK
6
CONTINUOUS
10
0.992478
20
1.22241
11
1.05494
21
1.16907
0
LINE
8
BLACK
6
CONTINUOUS
10
1.05494
20
1.16907
11
1.05517
21
1.16886
0
LINE
8
BLACK
6
CONTINUOUS
10
1.05517
20
1.16886
11
1.11475
21
1.11232
0
LINE
8
BLACK
6
CONTINUOUS
10
1.11475
20
1.11232
11
1.11497
21
1.11211
0
LINE
8
BLACK
6
CONTINUOUS
10
1.11497
20
1.11211
11
1.17151
21
1.05252
0
LINE
8
BLACK
6
CONTINUOUS
10
1.17151
20
1.05252
11
1.17171
21
1.05229
0
LINE
8
BLACK
6
CONTINUOUS
10
1.17171
20
1.05229
11
1.22506
21
0.989833
0
LINE
8
BLACK
6
CONTINUOUS
10
1.22506
20
0.989833
11
1.22525
21
0.989595
0
LINE
8
BLACK
6
CONTINUOUS
10
1.22525
20
0.989595
11
1.27526
21
0.924429
0
LINE
8
BLACK
6
CONTINUOUS
10
1.27526
20
0.924429
11
1.27544
21
0.924181
0
LINE
8
BLACK
6
CONTINUOUS
10
1.27544
20
0.924181
11
1.32196
21
0.856489
0
LINE
8
BLACK
6
CONTINUOUS
10
1.32196
20
0.856489
11
1.32213
21
0.856231
0
LINE
8
BLACK
6
CONTINUOUS
10
1.32213
20
0.856231
11
1.36505
21
0.786194
0
LINE
8
BLACK
6
CONTINUOUS
10
1.36505
20
0.786194
11
1.3652
21
0.785928
0
LINE
8
BLACK
6
CONTINUOUS
10
1.3652
20
0.785928
11
1.40439
21
0.713742
0
LINE
8
BLACK
6
CONTINUOUS
10
1.40439
20
0.713742
11
1.40453
21
0.713468
0
LINE
8
BLACK
6
CONTINUOUS
10
1.40453
20
0.713468
11
1.43989
21
0.639332
0
LINE
8
BLACK
6
CONTINUOUS
10
1.43989
20
0.639332
11
1.44002
21
0.639052
0
LINE
8
BLACK
6
CONTINUOUS
10
1.44002
20
0.639052
11
1.47145
21
0.563161
0
LINE
8
BLACK
6
CONTINUOUS
10
1.47145
20
0.563161
11
1.47145
21
0.563161
0
LINE
8
BLACK
6
CONTINUOUS
10
1.47145
20
0.563161
11
1.47156
21
0.562875
0
LINE
8
BLACK
6
CONTINUOUS
10
1.47156
20
0.562875
11
1.49898
21
0.485448
0
LINE
8
BLACK
6
CONTINUOUS
10
1.49898
20
0.485448
11
1.49908
21
0.485156
0
LINE
8
BLACK
6
CONTINUOUS
10
1.49908
20
0.485156
11
1.5224
21
0.4064
0
LINE
8
BLACK
6
CONTINUOUS
10
1.5224
20
0.4064
11
1.52248
21
0.406103
0
LINE
8
BLACK
6
CONTINUOUS
10
1.52248
20
0.406103
11
1.54166
21
0.326231
0
LINE
8
BLACK
6
CONTINUOUS
10
1.54166
20
0.326231
11
1.54172
21
0.32593
0
LINE
8
BLACK
6
CONTINUOUS
10
1.54172
20
0.32593
11
1.55669
21
0.245167
0
LINE
8
BLACK
6
CONTINUOUS
10
1.55669
20
0.245167
11
1.55674
21
0.244864
0
LINE
8
BLACK
6
CONTINUOUS
10
1.55674
20
0.244864
11
1.56746
21
0.163426
0
LINE
8
BLACK
6
CONTINUOUS
10
1.56746
20
0.163426
11
1.5675
21
0.16312
0
LINE
8
BLACK
6
CONTINUOUS
10
1.5675
20
0.16312
11
1.57394
21
0.0812336
0
LINE
8
BLACK
6
CONTINUOUS
10
1.57394
20
0.0812336
11
1.57396
21
0.0809269
0
LINE
8
BLACK
6
CONTINUOUS
10
1.57396
20
0.0809269
11
1.57611
21
-0.00118476
0
LINE
8
BLACK
6
CONTINUOUS
10
1.57611
20
-0.00118476
11
1.57611
21
-0.00149177
0
LINE
8
BLACK
6
CONTINUOUS
10
1.57611
20
-0.00149177
11
1.57396
21
-0.0836034
0
LINE
8
BLACK
6
CONTINUOUS
10
1.57396
20
-0.0836034
11
1.57394
21
-0.0839101
0
LINE
8
BLACK
6
CONTINUOUS
10
1.57394
20
-0.0839101
11
1.5675
21
-0.165797
0
LINE
8
BLACK
6
CONTINUOUS
10
1.5675
20
-0.165797
11
1.56746
21
-0.166103
0
LINE
8
BLACK
6
CONTINUOUS
10
1.56746
20
-0.166103
11
1.55674
21
-0.24754
0
LINE
8
BLACK
6
CONTINUOUS
10
1.55674
20
-0.24754
11
1.55669
21
-0.247843
0
LINE
8
BLACK
6
CONTINUOUS
10
1.55669
20
-0.247843
11
1.54172
21
-0.328607
0
LINE
8
BLACK
6
CONTINUOUS
10
1.54172
20
-0.328607
11
1.54166
21
-0.328907
0
LINE
8
BLACK
6
CONTINUOUS
10
1.54166
20
-0.328907
11
1.52248
21
-0.40878
0
LINE
8
BLACK
6
CONTINUOUS
10
1.52248
20
-0.40878
11
1.5224
21
-0.409076
0
LINE
8
BLACK
6
CONTINUOUS
10
1.5224
20
-0.409076
11
1.49908
21
-0.487832
0
LINE
8
BLACK
6
CONTINUOUS
10
1.49908
20
-0.487832
11
1.49898
21
-0.488125
0
LINE
8
BLACK
6
CONTINUOUS
10
1.49898
20
-0.488125
11
1.47156
21
-0.565551
0
LINE
8
BLACK
6
CONTINUOUS
10
1.47156
20
-0.565551
11
1.47145
21
-0.565838
0
LINE
8
BLACK
6
CONTINUOUS
10
1.47145
20
-0.565838
11
1.46253
21
-0.587382
0
LINE
8
BLACK
6
CONTINUOUS
10
1.46253
20
-0.587382
11
1.44002
21
-0.641728
0
LINE
8
BLACK
6
CONTINUOUS
10
1.44002
20
-0.641728
11
1.43989
21
-0.642009
0
LINE
8
BLACK
6
CONTINUOUS
10
1.43989
20
-0.642009
11
1.40453
21
-0.716144
0
LINE
8
BLACK
6
CONTINUOUS
10
1.40453
20
-0.716144
11
1.40439
21
-0.716418
0
LINE
8
BLACK
6
CONTINUOUS
10
1.40439
20
-0.716418
11
1.3652
21
-0.788605
0
LINE
8
BLACK
6
CONTINUOUS
10
1.3652
20
-0.788605
11
1.36505
21
-0.78887
0
LINE
8
BLACK
6
CONTINUOUS
10
1.36505
20
-0.78887
11
1.32213
21
-0.858908
0
LINE
8
BLACK
6
CONTINUOUS
10
1.32213
20
-0.858908
11
1.32196
21
-0.859165
0
LINE
8
BLACK
6
CONTINUOUS
10
1.32196
20
-0.859165
11
1.27544
21
-0.926857
0
LINE
8
BLACK
6
CONTINUOUS
10
1.27544
20
-0.926857
11
1.27526
21
-0.927106
0
LINE
8
BLACK
6
CONTINUOUS
10
1.27526
20
-0.927106
11
1.22525
21
-0.992271
0
LINE
8
BLACK
6
CONTINUOUS
10
1.22525
20
-0.992271
11
1.22525
21
-0.992271
0
LINE
8
BLACK
6
CONTINUOUS
10
1.22525
20
-0.992271
11
1.22506
21
-0.99251
0
LINE
8
BLACK
6
CONTINUOUS
10
1.22506
20
-0.99251
11
1.17171
21
-1.05497
0
LINE
8
BLACK
6
CONTINUOUS
10
1.17171
20
-1.05497
11
1.17151
21
-1.0552
0
LINE
8
BLACK
6
CONTINUOUS
10
1.17151
20
-1.0552
11
1.11497
21
-1.11478
0
LINE
8
BLACK
6
CONTINUOUS
10
1.11497
20
-1.11478
11
1.11475
21
-1.115
0
LINE
8
BLACK
6
CONTINUOUS
10
1.11475
20
-1.115
11
1.07122
21
-1.1563
0
LINE
8
BLACK
6
CONTINUOUS
10
1.07122
20
-1.1563
11
1.05517
21
-1.17154
0
LINE
8
BLACK
6
CONTINUOUS
10
1.05517
20
-1.17154
11
1.05494
21
-1.17174
0
LINE
8
BLACK
6
CONTINUOUS
10
1.05494
20
-1.17174
11
0.992478
21
-1.22509
0
LINE
8
BLACK
6
CONTINUOUS
10
0.992478
20
-1.22509
11
0.99224
21
-1.22528
0
LINE
8
BLACK
6
CONTINUOUS
10
0.99224
20
-1.22528
11
0.927074
21
-1.27529
0
LINE
8
BLACK
6
CONTINUOUS
10
0.927074
20
-1.27529
11
0.927074
21
-1.27529
0
LINE
8
BLACK
6
CONTINUOUS
10
0.927074
20
-1.27529
11
0.926825
21
-1.27547
0
LINE
8
BLACK
6
CONTINUOUS
10
0.926825
20
-1.27547
11
0.859134
21
-1.32199
0
LINE
8
BLACK
6
CONTINUOUS
10
0.859134
20
-1.32199
11
0.858876
21
-1.32216
0
LINE
8
BLACK
6
CONTINUOUS
10
0.858876
20
-1.32216
11
0.788839
21
-1.36508
0
LINE
8
BLACK
6
CONTINUOUS
10
0.788839
20
-1.36508
11
0.788573
21
-1.36523
0
LINE
8
BLACK
6
CONTINUOUS
10
0.788573
20
-1.36523
11
0.716387
21
-1.40443
0
LINE
8
BLACK
6
CONTINUOUS
10
0.716387
20
-1.40443
11
0.716113
21
-1.40457
0
LINE
8
BLACK
6
CONTINUOUS
10
0.716113
20
-1.40457
11
0.641977
21
-1.43993
0
LINE
8
BLACK
6
CONTINUOUS
10
0.641977
20
-1.43993
11
0.641697
21
-1.44005
0
LINE
8
BLACK
6
CONTINUOUS
10
0.641697
20
-1.44005
11
0.565806
21
-1.47148
0
LINE
8
BLACK
6
CONTINUOUS
10
0.565806
20
-1.47148
11
0.56552
21
-1.47159
0
LINE
8
BLACK
6
CONTINUOUS
10
0.56552
20
-1.47159
11
0.488093
21
-1.49901
0
LINE
8
BLACK
6
CONTINUOUS
10
0.488093
20
-1.49901
11
0.487801
21
-1.49911
0
LINE
8
BLACK
6
CONTINUOUS
10
0.487801
20
-1.49911
11
0.409045
21
-1.52244
0
LINE
8
BLACK
6
CONTINUOUS
10
0.409045
20
-1.52244
11
0.408748
21
-1.52252
0
LINE
8
BLACK
6
CONTINUOUS
10
0.408748
20
-1.52252
11
0.328876
21
-1.54169
0
LINE
8
BLACK
6
CONTINUOUS
10
0.328876
20
-1.54169
11
0.328575
21
-1.54176
0
LINE
8
BLACK
6
CONTINUOUS
10
0.328575
20
-1.54176
11
0.283078
21
-1.55019
0
LINE
8
BLACK
6
CONTINUOUS
10
0.283078
20
-1.55019
11
0.247811
21
-1.55672
0
LINE
8
BLACK
6
CONTINUOUS
10
0.247811
20
-1.55672
11
0.247509
21
-1.55677
0
LINE
8
BLACK
6
CONTINUOUS
10
0.247509
20
-1.55677
11
0.166909
21
-1.56738
0
LINE
8
BLACK
6
CONTINUOUS
10
0.166909
20
-1.56738
11
0.166071
21
-1.56749
0
LINE
8
BLACK
6
CONTINUOUS
10
0.166071
20
-1.56749
11
0.165766
21
-1.56753
0
LINE
8
BLACK
6
CONTINUOUS
10
0.165766
20
-1.56753
11
0.0838786
21
-1.57397
0
LINE
8
BLACK
6
CONTINUOUS
10
0.0838786
20
-1.57397
11
0.0835719
21
-1.57399
0
LINE
8
BLACK
6
CONTINUOUS
10
0.0835719
20
-1.57399
11
0.0152481
21
-1.57578
0
LINE
8
BLACK
6
CONTINUOUS
10
0.0152481
20
-1.57578
11
0.0014602
21
-1.57614
0
LINE
8
BLACK
6
CONTINUOUS
10
0.0014602
20
-1.57614
11
0.00115335
21
-1.57614
0
LINE
8
BLACK
6
CONTINUOUS
10
0.00115335
20
-1.57614
11
-0.0126345
21
-1.57578
0
LINE
8
BLACK
6
CONTINUOUS
10
-0.0126345
20
-1.57578
11
-0.0809583
21
-1.57399
0
LINE
8
BLACK
6
CONTINUOUS
10
-0.0809583
20
-1.57399
11
-0.0812651
21
-1.57397
0
LINE
8
BLACK
6
CONTINUOUS
10
-0.0812651
20
-1.57397
11
-0.163152
21
-1.56753
0
LINE
8
BLACK
6
CONTINUOUS
10
-0.163152
20
-1.56753
11
-0.163458
21
-1.56749
0
LINE
8
BLACK
6
CONTINUOUS
10
-0.163458
20
-1.56749
11
-0.164347
21
-1.56738
0
LINE
8
BLACK
6
CONTINUOUS
10
-0.164347
20
-1.56738
11
-0.244896
21
-1.55677
0
LINE
8
BLACK
6
CONTINUOUS
10
-0.244896
20
-1.55677
11
-0.245198
21
-1.55672
0
LINE
8
BLACK
6
CONTINUOUS
10
-0.245198
20
-1.55672
11
-0.280476
21
-1.55019
0
LINE
8
BLACK
6
CONTINUOUS
10
-0.280476
20
-1.55019
11
-0.325962
21
-1.54176
0
LINE
8
BLACK
6
CONTINUOUS
10
-0.325962
20
-1.54176
11
-0.326262
21
-1.54169
0
LINE
8
BLACK
6
CONTINUOUS
10
-0.326262
20
-1.54169
11
-0.406135
21
-1.52252
0
LINE
8
BLACK
6
CONTINUOUS
10
-0.406135
20
-1.52252
11
-0.406431
21
-1.52244
0
LINE
8
BLACK
6
CONTINUOUS
10
-0.406431
20
-1.52244
11
-0.485187
21
-1.49911
0
LINE
8
BLACK
6
CONTINUOUS
10
-0.485187
20
-1.49911
11
-0.48548
21
-1.49901
0
LINE
8
BLACK
6
CONTINUOUS
10
-0.48548
20
-1.49901
11
-0.562906
21
-1.47159
0
LINE
8
BLACK
6
CONTINUOUS
10
-0.562906
20
-1.47159
11
-0.563193
21
-1.47148
0
LINE
8
BLACK
6
CONTINUOUS
10
-0.563193
20
-1.47148
11
-0.639083
21
-1.44005
0
LINE
8
BLACK
6
CONTINUOUS
10
-0.639083
20
-1.44005
11
-0.639364
21
-1.43993
0
LINE
8
BLACK
6
CONTINUOUS
10
-0.639364
20
-1.43993
11
-0.713499
21
-1.40457
0
LINE
8
BLACK
6
CONTINUOUS
10
-0.713499
20
-1.40457
11
-0.713773
21
-1.40443
0
LINE
8
BLACK
6
CONTINUOUS
10
-0.713773
20
-1.40443
11
-0.78596
21
-1.36523
0
LINE
8
BLACK
6
CONTINUOUS
10
-0.78596
20
-1.36523
11
-0.786225
21
-1.36508
0
LINE
8
BLACK
6
CONTINUOUS
10
-0.786225
20
-1.36508
11
-0.856263
21
-1.32216
0
LINE
8
BLACK
6
CONTINUOUS
10
-0.856263
20
-1.32216
11
-0.856521
21
-1.32199
0
LINE
8
BLACK
6
CONTINUOUS
10
-0.856521
20
-1.32199
11
-0.924212
21
-1.27547
0
LINE
8
BLACK
6
CONTINUOUS
10
-0.924212
20
-1.27547
11
-0.924461
21
-1.27529
0
LINE
8
BLACK
6
CONTINUOUS
10
-0.924461
20
-1.27529
11
-0.989626
21
-1.22528
0
LINE
8
BLACK
6
CONTINUOUS
10
-0.989626
20
-1.22528
11
-0.989865
21
-1.22509
0
LINE
8
BLACK
6
CONTINUOUS
10
-0.989865
20
-1.22509
11
-1.05232
21
-1.17174
0
LINE
8
BLACK
6
CONTINUOUS
10
-1.05232
20
-1.17174
11
-1.05255
21
-1.17154
0
LINE
8
BLACK
6
CONTINUOUS
10
-1.05255
20
-1.17154
11
-1.11214
21
-1.115
0
LINE
8
BLACK
6
CONTINUOUS
10
-1.11214
20
-1.115
11
-1.11235
21
-1.11478
0
LINE
8
BLACK
6
CONTINUOUS
10
-1.11235
20
-1.11478
11
-1.16889
21
-1.0552
0
LINE
8
BLACK
6
CONTINUOUS
10
-1.16889
20
-1.0552
11
-1.1691
21
-1.05497
0
LINE
8
BLACK
6
CONTINUOUS
10
-1.1691
20
-1.05497
11
-1.22244
21
-0.992509
0
LINE
8
BLACK
6
CONTINUOUS
10
-1.22244
20
-0.992509
11
-1.22264
21
-0.992271
0
LINE
8
BLACK
6
CONTINUOUS
10
-1.22264
20
-0.992271
11
-1.27264
21
-0.927106
0
LINE
8
BLACK
6
CONTINUOUS
10
-1.27264
20
-0.927106
11
-1.27282
21
-0.926857
0
LINE
8
BLACK
6
CONTINUOUS
10
-1.27282
20
-0.926857
11
-1.31935
21
-0.859165
0
LINE
8
BLACK
6
CONTINUOUS
10
-1.31935
20
-0.859165
11
-1.31951
21
-0.858908
0
LINE
8
BLACK
6
CONTINUOUS
10
-1.31951
20
-0.858908
11
-1.36243
21
-0.78887
0
LINE
8
BLACK
6
CONTINUOUS
10
-1.36243
20
-0.78887
11
-1.36259
21
-0.788605
0
LINE
8
BLACK
6
CONTINUOUS
10
-1.36259
20
-0.788605
11
-1.40178
21
-0.716418
0
LINE
8
BLACK
6
CONTINUOUS
10
-1.40178
20
-0.716418
11
-1.40192
21
-0.716144
0
LINE
8
BLACK
6
CONTINUOUS
10
-1.40192
20
-0.716144
11
-1.43728
21
-0.642009
0
LINE
8
BLACK
6
CONTINUOUS
10
-1.43728
20
-0.642009
11
-1.43741
21
-0.641728
0
LINE
8
BLACK
6
CONTINUOUS
10
-1.43741
20
-0.641728
11
-1.46884
21
-0.565838
0
LINE
8
BLACK
6
CONTINUOUS
10
-1.46884
20
-0.565838
11
-1.46895
21
-0.565551
0
LINE
8
BLACK
6
CONTINUOUS
10
-1.46895
20
-0.565551
11
-1.49637
21
-0.488125
0
LINE
8
BLACK
6
CONTINUOUS
10
-1.49637
20
-0.488125
11
-1.49647
21
-0.487832
0
LINE
8
BLACK
6
CONTINUOUS
10
-1.49647
20
-0.487832
11
-1.51979
21
-0.409076
0
LINE
8
BLACK
6
CONTINUOUS
10
-1.51979
20
-0.409076
11
-1.51987
21
-0.40878
0
LINE
8
BLACK
6
CONTINUOUS
10
-1.51987
20
-0.40878
11
-1.53905
21
-0.328907
0
LINE
8
BLACK
6
CONTINUOUS
10
-1.53905
20
-0.328907
11
-1.53911
21
-0.328607
0
LINE
8
BLACK
6
CONTINUOUS
10
-1.53911
20
-0.328607
11
-1.55408
21
-0.247843
0
LINE
8
BLACK
6
CONTINUOUS
10
-1.55408
20
-0.247843
11
-1.55413
21
-0.24754
0
LINE
8
BLACK
6
CONTINUOUS
10
-1.55413
20
-0.24754
11
-1.56485
21
-0.166103
0
LINE
8
BLACK
6
CONTINUOUS
10
-1.56485
20
-0.166103
11
-1.56488
21
-0.165797
0
LINE
8
BLACK
6
CONTINUOUS
10
-1.56488
20
-0.165797
11
-1.57133
21
-0.0839102
0
LINE
8
BLACK
6
CONTINUOUS
10
-1.57133
20
-0.0839102
11
-1.57134
21
-0.0836034
0
LINE
8
BLACK
6
CONTINUOUS
10
-1.57134
20
-0.0836034
11
-1.57349
21
-0.00149177
0
LINE
8
BLACK
6
CONTINUOUS
10
-1.57349
20
-0.00149177
11
-1.57349
21
-0.00118476
0
LINE
8
BLACK
6
CONTINUOUS
10
-1.57349
20
-0.00118476
11
-1.57134
21
0.0809269
0
LINE
8
BLACK
6
CONTINUOUS
10
-1.57134
20
0.0809269
11
-1.57133
21
0.0812336
0
LINE
8
BLACK
6
CONTINUOUS
10
-1.57133
20
0.0812336
11
-1.56488
21
0.16312
0
LINE
8
BLACK
6
CONTINUOUS
10
-1.56488
20
0.16312
11
-1.56485
21
0.163426
0
LINE
8
BLACK
6
CONTINUOUS
10
-1.56485
20
0.163426
11
-1.55413
21
0.244864
0
LINE
8
BLACK
6
CONTINUOUS
10
-1.55413
20
0.244864
11
-1.55408
21
0.245167
0
LINE
8
BLACK
6
CONTINUOUS
10
-1.55408
20
0.245167
11
-1.53911
21
0.32593
0
LINE
8
BLACK
6
CONTINUOUS
10
-1.53911
20
0.32593
11
-1.53905
21
0.326231
0
LINE
8
BLACK
6
CONTINUOUS
10
-1.53905
20
0.326231
11
-1.51987
21
0.406104
0
LINE
8
BLACK
6
CONTINUOUS
10
-1.51987
20
0.406104
11
-1.51979
21
0.4064
0
LINE
8
BLACK
6
CONTINUOUS
10
-1.51979
20
0.4064
11
-1.49647
21
0.485156
0
LINE
8
BLACK
6
CONTINUOUS
10
-1.49647
20
0.485156
11
-1.49637
21
0.485448
0
LINE
8
BLACK
6
CONTINUOUS
10
-1.49637
20
0.485448
11
-1.46895
21
0.562875
0
LINE
8
BLACK
6
CONTINUOUS
10
-1.46895
20
0.562875
11
-1.46884
21
0.563161
0
LINE
8
BLACK
6
CONTINUOUS
10
-1.46884
20
0.563161
11
-1.43741
21
0.639052
0
LINE
8
BLACK
6
CONTINUOUS
10
-1.43741
20
0.639052
11
-1.43728
21
0.639332
0
LINE
8
BLACK
6
CONTINUOUS
10
-1.43728
20
0.639332
11
-1.40192
21
0.713468
0
LINE
8
BLACK
6
CONTINUOUS
10
-1.40192
20
0.713468
11
-1.40178
21
0.713742
0
LINE
8
BLACK
6
CONTINUOUS
10
-1.40178
20
0.713742
11
-1.36259
21
0.785928
0
LINE
8
BLACK
6
CONTINUOUS
10
-1.36259
20
0.785928
11
-1.36243
21
0.786194
0
LINE
8
BLACK
6
CONTINUOUS
10
-1.36243
20
0.786194
11
-1.31951
21
0.856231
0
LINE
8
BLACK
6
CONTINUOUS
10
-1.31951
20
0.856231
11
-1.31935
21
0.856489
0
LINE
8
BLACK
6
CONTINUOUS
10
-1.31935
20
0.856489
11
-1.27282
21
0.92418
0
LINE
8
BLACK
6
CONTINUOUS
10
-1.27282
20
0.92418
11
-1.27264
21
0.924429
0
LINE
8
BLACK
6
CONTINUOUS
10
-1.27264
20
0.924429
11
-1.22264
21
0.989595
0
LINE
8
BLACK
6
CONTINUOUS
10
-1.22264
20
0.989595
11
-1.22244
21
0.989834
0
LINE
8
BLACK
6
CONTINUOUS
10
-1.22244
20
0.989834
11
-1.1691
21
1.05229
0
LINE
8
BLACK
6
CONTINUOUS
10
-1.1691
20
1.05229
11
-1.16889
21
1.05252
0
LINE
8
BLACK
6
CONTINUOUS
10
-1.16889
20
1.05252
11
-1.11235
21
1.11211
0
LINE
8
BLACK
6
CONTINUOUS
10
-1.11235
20
1.11211
11
-1.11214
21
1.11232
0
LINE
8
BLACK
6
CONTINUOUS
10
-1.11214
20
1.11232
11
-1.05255
21
1.16886
0
LINE
8
BLACK
6
CONTINUOUS
10
-1.05255
20
1.16886
11
-1.05232
21
1.16907
0
LINE
8
BLACK
6
CONTINUOUS
10
-1.05232
20
1.16907
11
-0.989865
21
1.22241
0
LINE
8
BLACK
6
CONTINUOUS
10
-0.989865
20
1.22241
11
-0.989626
21
1.22261
0
LINE
8
BLACK
6
CONTINUOUS
10
-0.989626
20
1.22261
11
-0.92446
21
1.27261
0
LINE
8
BLACK
6
CONTINUOUS
10
-0.92446
20
1.27261
11
-0.924212
21
1.27279
0
LINE
8
BLACK
6
CONTINUOUS
10
-0.924212
20
1.27279
11
-0.856521
21
1.31931
0
LINE
8
BLACK
6
CONTINUOUS
10
-0.856521
20
1.31931
11
-0.856263
21
1.31948
0
LINE
8
BLACK
6
CONTINUOUS
10
-0.856263
20
1.31948
11
-0.786225
21
1.3624
0
LINE
8
BLACK
6
CONTINUOUS
10
-0.786225
20
1.3624
11
-0.78596
21
1.36255
0
LINE
8
BLACK
6
CONTINUOUS
10
-0.78596
20
1.36255
11
-0.713773
21
1.40175
0
LINE
8
BLACK
6
CONTINUOUS
10
-0.713773
20
1.40175
11
-0.713499
21
1.40189
0
LINE
8
BLACK
6
CONTINUOUS
10
-0.713499
20
1.40189
11
-0.639364
21
1.43725
0
LINE
8
BLACK
6
CONTINUOUS
10
-0.639364
20
1.43725
11
-0.639083
21
1.43737
0
LINE
8
BLACK
6
CONTINUOUS
10
-0.639083
20
1.43737
11
-0.563193
21
1.46881
0
LINE
8
BLACK
6
CONTINUOUS
10
-0.563193
20
1.46881
11
-0.562906
21
1.46892
0
LINE
8
BLACK
6
CONTINUOUS
10
-0.562906
20
1.46892
11
-0.485479
21
1.49634
0
LINE
8
BLACK
6
CONTINUOUS
10
-0.485479
20
1.49634
11
-0.485187
21
1.49643
0
LINE
8
BLACK
6
CONTINUOUS
10
-0.485187
20
1.49643
11
-0.406431
21
1.51976
0
LINE
8
BLACK
6
CONTINUOUS
10
-0.406431
20
1.51976
11
-0.406135
21
1.51984
0
LINE
8
BLACK
6
CONTINUOUS
10
-0.406135
20
1.51984
11
-0.326262
21
1.53902
0
LINE
8
BLACK
6
CONTINUOUS
10
-0.326262
20
1.53902
11
-0.325962
21
1.53908
0
LINE
8
BLACK
6
CONTINUOUS
10
-0.325962
20
1.53908
11
-0.280476
21
1.54751
0
LINE
8
BLACK
6
CONTINUOUS
10
-0.280476
20
1.54751
11
-0.245198
21
1.55405
0
LINE
8
BLACK
6
CONTINUOUS
10
-0.245198
20
1.55405
11
-0.244896
21
1.55409
0
LINE
8
BLACK
6
CONTINUOUS
10
-0.244896
20
1.55409
11
-0.184996
21
1.56198
0
LINE
8
BLACK
6
CONTINUOUS
10
-0.184996
20
1.56198
11
-0.163458
21
1.56482
0
LINE
8
BLACK
6
CONTINUOUS
10
-0.163458
20
1.56482
11
-0.163152
21
1.56485
0
LINE
8
BLACK
6
CONTINUOUS
10
-0.163152
20
1.56485
11
-0.0812651
21
1.5713
0
LINE
8
BLACK
6
CONTINUOUS
10
-0.0812651
20
1.5713
11
-0.0809584
21
1.57131
0
LINE
8
BLACK
6
CONTINUOUS
10
-0.0809584
20
1.57131
11
-0.0151574
21
1.57303
0
LINE
8
BLACK
6
CONTINUOUS
10
-0.0151574
20
1.57303
11
0.00115335
21
1.57346
0
LINE
8
BLACK
6
CONTINUOUS
10
0.00115335
20
1.57346
11
0.0014602
21
1.57346
0
LINE
8
BLACK
6
CONTINUOUS
10
0.0014602
20
1.57346
11
0.017771
21
1.57303
0
CIRCLE
8
BLACK
10
-1.32976
20
0.7041
40
0.00787402
0
CIRCLE
8
BLACK
10
1.50676
20
0.0532672
40
0.00787402
0
CIRCLE
8
BLACK
10
1.43465
20
-0.464922
40
0.00787402
0
CIRCLE
8
BLACK
10
-1.27515
20
-0.801357
40
0.00787402
0
CIRCLE
8
BLACK
10
-1.49076
20
0.206305
40
0.00787402
0
CIRCLE
8
BLACK
10
-1.43204
20
0.462245
40
0.00787402
0
CIRCLE
8
BLACK
10
-1.11684
20
-1.01086
40
0.00787402
0
CIRCLE
8
BLACK
10
1.49337
20
-0.208982
40
0.00787402
0
CIRCLE
8
BLACK
10
1.11945
20
1.00818
40
0.00787402
0
CIRCLE
8
BLACK
10
1.47441
20
0.313857
40
0.00787402
0
CIRCLE
8
BLACK
10
-1.39468
20
-0.567548
40
0.00787402
0
CIRCLE
8
BLACK
10
1.3973
20
0.564871
40
0.00787402
0
CIRCLE
8
BLACK
10
-0.924551
20
-1.18969
40
0.00787402
0
CIRCLE
8
BLACK
10
-1.50415
20
-0.0559444
40
0.00787402
0
CIRCLE
8
BLACK
10
0.927165
20
1.18701
40
0.00787402
0
CIRCLE
8
BLACK
10
1.33237
20
-0.706777
40
0.00787402
0
CIRCLE
8
BLACK
10
1.27777
20
0.79868
40
0.00787402
0
CIRCLE
8
BLACK
10
-1.4718
20
-0.316535
40
0.00787402
  0
ENDSEC
  0
EOF
