  0
SECTION
  2
HEADER
  9
$ANGBASE
  50
0.0
  9
$ANGDIR
  70
1
  9
$MEASUREMENT
  70
0
  0
ENDSEC
  0
SECTION
  2
TABLES
  0
TABLE
  2
LTYPE
  70
4
  0
LTYPE
  5
40F
  2
CONTINUOUS
  70
0
  3
Solid line
  72
65
  73
0
  40
0.0
  0
LTYPE
  5
410
  2
DASHDOT
 70
0
  3
Dash Dot ____ _ ____ _
 72
65
 73
4
 40
2.0
 49
1.25
 49
-0.25
 49
0.25
 49
-0.25
  0
LTYPE
  5
411
  2
DASHED
 70
0
  3
Dashed __ __ __ __ __
 72
65
 73
2
 40
0.75
 49
0.5
 49
-0.25
  0
LTYPE
  5
43B
  2
DOTTED
 70
0
  3
Dotted .  .  .  .
 72
65
 73
2
 40
0.2
 49
0.0
 49
-0.2
  0
ENDTAB
  0
TABLE
  2
STYLE
  70
4
  0
STYLE
  2
KICAD
  70
0
  40
0
  41
1
  42
1
  50
0
  71
0
  3
isocp.shx
  0
STYLE
  2
KICADB
  70
0
  40
0
  41
1
  42
1
  50
0
  71
0
  3
isocp.shx
  0
STYLE
  2
KICADI
  70
0
  40
0
  41
1
  42
1
  50
15
  71
0
  3
isocp.shx
  0
STYLE
  2
KICADBI
  70
0
  40
0
  41
1
  42
1
  50
15
  71
0
  3
isocp.shx
  0
ENDTAB
  0
TABLE
  2
LAYER
  70
1
  0
LAYER
  2
BLACK
  70
0
  62
7
  6
CONTINUOUS
  0
ENDTAB
  0
ENDSEC
  0
SECTION
  2
ENTITIES
0
LINE
8
BLACK
6
CONTINUOUS
10
0.0836483
20
1.57129
11
0.0837994
21
1.57128
0
LINE
8
BLACK
6
CONTINUOUS
10
0.0837994
20
1.57128
11
0.165841
21
1.56482
0
LINE
8
BLACK
6
CONTINUOUS
10
0.165841
20
1.56482
11
0.165991
21
1.56481
0
LINE
8
BLACK
6
CONTINUOUS
10
0.165991
20
1.56481
11
0.233518
21
1.55592
0
LINE
8
BLACK
6
CONTINUOUS
10
0.233518
20
1.55592
11
0.247582
21
1.55407
0
LINE
8
BLACK
6
CONTINUOUS
10
0.247582
20
1.55407
11
0.247731
21
1.55404
0
LINE
8
BLACK
6
CONTINUOUS
10
0.247731
20
1.55404
11
0.328649
21
1.53905
0
LINE
8
BLACK
6
CONTINUOUS
10
0.328649
20
1.53905
11
0.328797
21
1.53901
0
LINE
8
BLACK
6
CONTINUOUS
10
0.328797
20
1.53901
11
0.346633
21
1.53473
0
LINE
8
BLACK
6
CONTINUOUS
10
0.346633
20
1.53473
11
0.408819
21
1.5198
0
LINE
8
BLACK
6
CONTINUOUS
10
0.408819
20
1.5198
11
0.408965
21
1.51976
0
LINE
8
BLACK
6
CONTINUOUS
10
0.408965
20
1.51976
11
0.487869
21
1.49639
0
LINE
8
BLACK
6
CONTINUOUS
10
0.487869
20
1.49639
11
0.488015
21
1.49635
0
LINE
8
BLACK
6
CONTINUOUS
10
0.488015
20
1.49635
11
0.515792
21
1.48651
0
LINE
8
BLACK
6
CONTINUOUS
10
0.515792
20
1.48651
11
0.565585
21
1.46887
0
LINE
8
BLACK
6
CONTINUOUS
10
0.565585
20
1.46887
11
0.565728
21
1.46882
0
LINE
8
BLACK
6
CONTINUOUS
10
0.565728
20
1.46882
11
0.64176
21
1.43733
0
LINE
8
BLACK
6
CONTINUOUS
10
0.64176
20
1.43733
11
0.641898
21
1.43726
0
LINE
8
BLACK
6
CONTINUOUS
10
0.641898
20
1.43726
11
0.716175
21
1.40184
0
LINE
8
BLACK
6
CONTINUOUS
10
0.716175
20
1.40184
11
0.716309
21
1.40177
0
LINE
8
BLACK
6
CONTINUOUS
10
0.716309
20
1.40177
11
0.788631
21
1.3625
0
LINE
8
BLACK
6
CONTINUOUS
10
0.788631
20
1.3625
11
0.788762
21
1.36242
0
LINE
8
BLACK
6
CONTINUOUS
10
0.788762
20
1.36242
11
0.858932
21
1.31942
0
LINE
8
BLACK
6
CONTINUOUS
10
0.858932
20
1.31942
11
0.859059
21
1.31934
0
LINE
8
BLACK
6
CONTINUOUS
10
0.859059
20
1.31934
11
0.926877
21
1.27273
0
LINE
8
BLACK
6
CONTINUOUS
10
0.926877
20
1.27273
11
0.926878
21
1.27273
0
LINE
8
BLACK
6
CONTINUOUS
10
0.926878
20
1.27273
11
0.927001
21
1.27264
0
LINE
8
BLACK
6
CONTINUOUS
10
0.927001
20
1.27264
11
0.99229
21
1.22254
0
LINE
8
BLACK
6
CONTINUOUS
10
0.99229
20
1.22254
11
0.992406
21
1.22245
0
LINE
8
BLACK
6
CONTINUOUS
10
0.992406
20
1.22245
11
1.04582
21
1.17683
0
LINE
8
BLACK
6
CONTINUOUS
10
1.04582
20
1.17683
11
1.05498
21
1.169
0
LINE
8
BLACK
6
CONTINUOUS
10
1.05498
20
1.169
11
1.0551
21
1.1689
0
LINE
8
BLACK
6
CONTINUOUS
10
1.0551
20
1.1689
11
1.11479
21
1.11225
0
LINE
8
BLACK
6
CONTINUOUS
10
1.11479
20
1.11225
11
1.1149
21
1.11215
0
LINE
8
BLACK
6
CONTINUOUS
10
1.1149
20
1.11215
11
1.1656
21
1.05871
0
LINE
8
BLACK
6
CONTINUOUS
10
1.1656
20
1.05871
11
1.17155
21
1.05245
0
LINE
8
BLACK
6
CONTINUOUS
10
1.17155
20
1.05245
11
1.17165
21
1.05234
0
LINE
8
BLACK
6
CONTINUOUS
10
1.17165
20
1.05234
11
1.22509
21
0.989762
0
LINE
8
BLACK
6
CONTINUOUS
10
1.22509
20
0.989762
11
1.22519
21
0.989645
0
LINE
8
BLACK
6
CONTINUOUS
10
1.22519
20
0.989645
11
1.27529
21
0.924356
0
LINE
8
BLACK
6
CONTINUOUS
10
1.27529
20
0.924356
11
1.27538
21
0.924232
0
LINE
8
BLACK
6
CONTINUOUS
10
1.27538
20
0.924232
11
1.32199
21
0.856415
0
LINE
8
BLACK
6
CONTINUOUS
10
1.32199
20
0.856415
11
1.32207
21
0.856286
0
LINE
8
BLACK
6
CONTINUOUS
10
1.32207
20
0.856286
11
1.36507
21
0.786118
0
LINE
8
BLACK
6
CONTINUOUS
10
1.36507
20
0.786118
11
1.36514
21
0.785987
0
LINE
8
BLACK
6
CONTINUOUS
10
1.36514
20
0.785987
11
1.40441
21
0.713664
0
LINE
8
BLACK
6
CONTINUOUS
10
1.40441
20
0.713664
11
1.40448
21
0.713529
0
LINE
8
BLACK
6
CONTINUOUS
10
1.40448
20
0.713529
11
1.43991
21
0.639254
0
LINE
8
BLACK
6
CONTINUOUS
10
1.43991
20
0.639254
11
1.43997
21
0.639115
0
LINE
8
BLACK
6
CONTINUOUS
10
1.43997
20
0.639115
11
1.47146
21
0.563083
0
LINE
8
BLACK
6
CONTINUOUS
10
1.47146
20
0.563083
11
1.47152
21
0.56294
0
LINE
8
BLACK
6
CONTINUOUS
10
1.47152
20
0.56294
11
1.49899
21
0.48537
0
LINE
8
BLACK
6
CONTINUOUS
10
1.49899
20
0.48537
11
1.49904
21
0.485225
0
LINE
8
BLACK
6
CONTINUOUS
10
1.49904
20
0.485225
11
1.52241
21
0.406321
0
LINE
8
BLACK
6
CONTINUOUS
10
1.52241
20
0.406321
11
1.52245
21
0.406173
0
LINE
8
BLACK
6
CONTINUOUS
10
1.52245
20
0.406173
11
1.54166
21
0.326152
0
LINE
8
BLACK
6
CONTINUOUS
10
1.54166
20
0.326152
11
1.54169
21
0.326002
0
LINE
8
BLACK
6
CONTINUOUS
10
1.54169
20
0.326002
11
1.55669
21
0.245088
0
LINE
8
BLACK
6
CONTINUOUS
10
1.55669
20
0.245088
11
1.55671
21
0.244937
0
LINE
8
BLACK
6
CONTINUOUS
10
1.55671
20
0.244937
11
1.56745
21
0.163348
0
LINE
8
BLACK
6
CONTINUOUS
10
1.56745
20
0.163348
11
1.56747
21
0.163195
0
LINE
8
BLACK
6
CONTINUOUS
10
1.56747
20
0.163195
11
1.57393
21
0.0811555
0
LINE
8
BLACK
6
CONTINUOUS
10
1.57393
20
0.0811555
11
1.57393
21
0.0810021
0
LINE
8
BLACK
6
CONTINUOUS
10
1.57393
20
0.0810021
11
1.57609
21
-0.00126146
0
LINE
8
BLACK
6
CONTINUOUS
10
1.57609
20
-0.00126146
11
1.57609
21
-0.001415
0
LINE
8
BLACK
6
CONTINUOUS
10
1.57609
20
-0.001415
11
1.57393
21
-0.0836786
0
LINE
8
BLACK
6
CONTINUOUS
10
1.57393
20
-0.0836786
11
1.57393
21
-0.083832
0
LINE
8
BLACK
6
CONTINUOUS
10
1.57393
20
-0.083832
11
1.56747
21
-0.165871
0
LINE
8
BLACK
6
CONTINUOUS
10
1.56747
20
-0.165871
11
1.56745
21
-0.166024
0
LINE
8
BLACK
6
CONTINUOUS
10
1.56745
20
-0.166024
11
1.55671
21
-0.247613
0
LINE
8
BLACK
6
CONTINUOUS
10
1.55671
20
-0.247613
11
1.55669
21
-0.247765
0
LINE
8
BLACK
6
CONTINUOUS
10
1.55669
20
-0.247765
11
1.54169
21
-0.328679
0
LINE
8
BLACK
6
CONTINUOUS
10
1.54169
20
-0.328679
11
1.54166
21
-0.328829
0
LINE
8
BLACK
6
CONTINUOUS
10
1.54166
20
-0.328829
11
1.52245
21
-0.408849
0
LINE
8
BLACK
6
CONTINUOUS
10
1.52245
20
-0.408849
11
1.52241
21
-0.408998
0
LINE
8
BLACK
6
CONTINUOUS
10
1.52241
20
-0.408998
11
1.49904
21
-0.487901
0
LINE
8
BLACK
6
CONTINUOUS
10
1.49904
20
-0.487901
11
1.49899
21
-0.488047
0
LINE
8
BLACK
6
CONTINUOUS
10
1.49899
20
-0.488047
11
1.47152
21
-0.565616
0
LINE
8
BLACK
6
CONTINUOUS
10
1.47152
20
-0.565616
11
1.47146
21
-0.56576
0
LINE
8
BLACK
6
CONTINUOUS
10
1.47146
20
-0.56576
11
1.43997
21
-0.641791
0
LINE
8
BLACK
6
CONTINUOUS
10
1.43997
20
-0.641791
11
1.43991
21
-0.641931
0
LINE
8
BLACK
6
CONTINUOUS
10
1.43991
20
-0.641931
11
1.40689
21
-0.711163
0
LINE
8
BLACK
6
CONTINUOUS
10
1.40689
20
-0.711163
11
1.40448
21
-0.716205
0
LINE
8
BLACK
6
CONTINUOUS
10
1.40448
20
-0.716205
11
1.40441
21
-0.716341
0
LINE
8
BLACK
6
CONTINUOUS
10
1.40441
20
-0.716341
11
1.36614
21
-0.78683
0
LINE
8
BLACK
6
CONTINUOUS
10
1.36614
20
-0.78683
11
1.36514
21
-0.788663
0
LINE
8
BLACK
6
CONTINUOUS
10
1.36514
20
-0.788663
11
1.36507
21
-0.788795
0
LINE
8
BLACK
6
CONTINUOUS
10
1.36507
20
-0.788795
11
1.32207
21
-0.858963
0
LINE
8
BLACK
6
CONTINUOUS
10
1.32207
20
-0.858963
11
1.32199
21
-0.859091
0
LINE
8
BLACK
6
CONTINUOUS
10
1.32199
20
-0.859091
11
1.27538
21
-0.926909
0
LINE
8
BLACK
6
CONTINUOUS
10
1.27538
20
-0.926909
11
1.27529
21
-0.927033
0
LINE
8
BLACK
6
CONTINUOUS
10
1.27529
20
-0.927033
11
1.22519
21
-0.99232
0
LINE
8
BLACK
6
CONTINUOUS
10
1.22519
20
-0.99232
11
1.22509
21
-0.992439
0
LINE
8
BLACK
6
CONTINUOUS
10
1.22509
20
-0.992439
11
1.17165
21
-1.05501
0
LINE
8
BLACK
6
CONTINUOUS
10
1.17165
20
-1.05501
11
1.17155
21
-1.05513
0
LINE
8
BLACK
6
CONTINUOUS
10
1.17155
20
-1.05513
11
1.1149
21
-1.11482
0
LINE
8
BLACK
6
CONTINUOUS
10
1.1149
20
-1.11482
11
1.11479
21
-1.11493
0
LINE
8
BLACK
6
CONTINUOUS
10
1.11479
20
-1.11493
11
1.0551
21
-1.17158
0
LINE
8
BLACK
6
CONTINUOUS
10
1.0551
20
-1.17158
11
1.05498
21
-1.17168
0
LINE
8
BLACK
6
CONTINUOUS
10
1.05498
20
-1.17168
11
0.992408
21
-1.22512
0
LINE
8
BLACK
6
CONTINUOUS
10
0.992408
20
-1.22512
11
0.992288
21
-1.22522
0
LINE
8
BLACK
6
CONTINUOUS
10
0.992288
20
-1.22522
11
0.927002
21
-1.27532
0
LINE
8
BLACK
6
CONTINUOUS
10
0.927002
20
-1.27532
11
0.926877
21
-1.27541
0
LINE
8
BLACK
6
CONTINUOUS
10
0.926877
20
-1.27541
11
0.85906
21
-1.32202
0
LINE
8
BLACK
6
CONTINUOUS
10
0.85906
20
-1.32202
11
0.858931
21
-1.3221
0
LINE
8
BLACK
6
CONTINUOUS
10
0.858931
20
-1.3221
11
0.788763
21
-1.3651
0
LINE
8
BLACK
6
CONTINUOUS
10
0.788763
20
-1.3651
11
0.788631
21
-1.36518
0
LINE
8
BLACK
6
CONTINUOUS
10
0.788631
20
-1.36518
11
0.71631
21
-1.40445
0
LINE
8
BLACK
6
CONTINUOUS
10
0.71631
20
-1.40445
11
0.716173
21
-1.40451
0
LINE
8
BLACK
6
CONTINUOUS
10
0.716173
20
-1.40451
11
0.674858
21
-1.42422
0
LINE
8
BLACK
6
CONTINUOUS
10
0.674858
20
-1.42422
11
0.6419
21
-1.43994
0
LINE
8
BLACK
6
CONTINUOUS
10
0.6419
20
-1.43994
11
0.641759
21
-1.44
0
LINE
8
BLACK
6
CONTINUOUS
10
0.641759
20
-1.44
11
0.565728
21
-1.4715
0
LINE
8
BLACK
6
CONTINUOUS
10
0.565728
20
-1.4715
11
0.565585
21
-1.47155
0
LINE
8
BLACK
6
CONTINUOUS
10
0.565585
20
-1.47155
11
0.488015
21
-1.49902
0
LINE
8
BLACK
6
CONTINUOUS
10
0.488015
20
-1.49902
11
0.487869
21
-1.49907
0
LINE
8
BLACK
6
CONTINUOUS
10
0.487869
20
-1.49907
11
0.487812
21
-1.49909
0
LINE
8
BLACK
6
CONTINUOUS
10
0.487812
20
-1.49909
11
0.408966
21
-1.52244
0
LINE
8
BLACK
6
CONTINUOUS
10
0.408966
20
-1.52244
11
0.408818
21
-1.52248
0
LINE
8
BLACK
6
CONTINUOUS
10
0.408818
20
-1.52248
11
0.328797
21
-1.54169
0
LINE
8
BLACK
6
CONTINUOUS
10
0.328797
20
-1.54169
11
0.328647
21
-1.54172
0
LINE
8
BLACK
6
CONTINUOUS
10
0.328647
20
-1.54172
11
0.247733
21
-1.55672
0
LINE
8
BLACK
6
CONTINUOUS
10
0.247733
20
-1.55672
11
0.247582
21
-1.55674
0
LINE
8
BLACK
6
CONTINUOUS
10
0.247582
20
-1.55674
11
0.165992
21
-1.56749
0
LINE
8
BLACK
6
CONTINUOUS
10
0.165992
20
-1.56749
11
0.16584
21
-1.5675
0
LINE
8
BLACK
6
CONTINUOUS
10
0.16584
20
-1.5675
11
0.0838005
21
-1.57396
0
LINE
8
BLACK
6
CONTINUOUS
10
0.0838005
20
-1.57396
11
0.0836471
21
-1.57397
0
LINE
8
BLACK
6
CONTINUOUS
10
0.0836471
20
-1.57397
11
0.0013835
21
-1.57612
0
LINE
8
BLACK
6
CONTINUOUS
10
0.0013835
20
-1.57612
11
0.00122996
21
-1.57612
0
LINE
8
BLACK
6
CONTINUOUS
10
0.00122996
20
-1.57612
11
-0.0810336
21
-1.57397
0
LINE
8
BLACK
6
CONTINUOUS
10
-0.0810336
20
-1.57397
11
-0.081187
21
-1.57396
0
LINE
8
BLACK
6
CONTINUOUS
10
-0.081187
20
-1.57396
11
-0.163226
21
-1.5675
0
LINE
8
BLACK
6
CONTINUOUS
10
-0.163226
20
-1.5675
11
-0.163379
21
-1.56749
0
LINE
8
BLACK
6
CONTINUOUS
10
-0.163379
20
-1.56749
11
-0.175825
21
-1.56585
0
LINE
8
BLACK
6
CONTINUOUS
10
-0.175825
20
-1.56585
11
-0.244968
21
-1.55674
0
LINE
8
BLACK
6
CONTINUOUS
10
-0.244968
20
-1.55674
11
-0.245119
21
-1.55672
0
LINE
8
BLACK
6
CONTINUOUS
10
-0.245119
20
-1.55672
11
-0.326034
21
-1.54172
0
LINE
8
BLACK
6
CONTINUOUS
10
-0.326034
20
-1.54172
11
-0.326184
21
-1.54169
0
LINE
8
BLACK
6
CONTINUOUS
10
-0.326184
20
-1.54169
11
-0.406204
21
-1.52248
0
LINE
8
BLACK
6
CONTINUOUS
10
-0.406204
20
-1.52248
11
-0.406352
21
-1.52244
0
LINE
8
BLACK
6
CONTINUOUS
10
-0.406352
20
-1.52244
11
-0.485256
21
-1.49907
0
LINE
8
BLACK
6
CONTINUOUS
10
-0.485256
20
-1.49907
11
-0.485401
21
-1.49902
0
LINE
8
BLACK
6
CONTINUOUS
10
-0.485401
20
-1.49902
11
-0.513233
21
-1.48917
0
LINE
8
BLACK
6
CONTINUOUS
10
-0.513233
20
-1.48917
11
-0.562971
21
-1.47155
0
LINE
8
BLACK
6
CONTINUOUS
10
-0.562971
20
-1.47155
11
-0.563115
21
-1.4715
0
LINE
8
BLACK
6
CONTINUOUS
10
-0.563115
20
-1.4715
11
-0.639146
21
-1.44
0
LINE
8
BLACK
6
CONTINUOUS
10
-0.639146
20
-1.44
11
-0.639286
21
-1.43994
0
LINE
8
BLACK
6
CONTINUOUS
10
-0.639286
20
-1.43994
11
-0.713561
21
-1.40451
0
LINE
8
BLACK
6
CONTINUOUS
10
-0.713561
20
-1.40451
11
-0.713696
21
-1.40445
0
LINE
8
BLACK
6
CONTINUOUS
10
-0.713696
20
-1.40445
11
-0.786018
21
-1.36518
0
LINE
8
BLACK
6
CONTINUOUS
10
-0.786018
20
-1.36518
11
-0.786149
21
-1.3651
0
LINE
8
BLACK
6
CONTINUOUS
10
-0.786149
20
-1.3651
11
-0.856318
21
-1.3221
0
LINE
8
BLACK
6
CONTINUOUS
10
-0.856318
20
-1.3221
11
-0.856446
21
-1.32202
0
LINE
8
BLACK
6
CONTINUOUS
10
-0.856446
20
-1.32202
11
-0.924264
21
-1.27541
0
LINE
8
BLACK
6
CONTINUOUS
10
-0.924264
20
-1.27541
11
-0.924387
21
-1.27532
0
LINE
8
BLACK
6
CONTINUOUS
10
-0.924387
20
-1.27532
11
-0.989676
21
-1.22522
0
LINE
8
BLACK
6
CONTINUOUS
10
-0.989676
20
-1.22522
11
-0.989793
21
-1.22512
0
LINE
8
BLACK
6
CONTINUOUS
10
-0.989793
20
-1.22512
11
-1.00869
21
-1.20899
0
LINE
8
BLACK
6
CONTINUOUS
10
-1.00869
20
-1.20899
11
-1.03436
21
-1.18706
0
LINE
8
BLACK
6
CONTINUOUS
10
-1.03436
20
-1.18706
11
-1.05237
21
-1.17168
0
LINE
8
BLACK
6
CONTINUOUS
10
-1.05237
20
-1.17168
11
-1.05248
21
-1.17158
0
LINE
8
BLACK
6
CONTINUOUS
10
-1.05248
20
-1.17158
11
-1.06172
21
-1.16281
0
LINE
8
BLACK
6
CONTINUOUS
10
-1.06172
20
-1.16281
11
-1.11218
21
-1.11493
0
LINE
8
BLACK
6
CONTINUOUS
10
-1.11218
20
-1.11493
11
-1.11229
21
-1.11482
0
LINE
8
BLACK
6
CONTINUOUS
10
-1.11229
20
-1.11482
11
-1.16893
21
-1.05513
0
LINE
8
BLACK
6
CONTINUOUS
10
-1.16893
20
-1.05513
11
-1.16904
21
-1.05501
0
LINE
8
BLACK
6
CONTINUOUS
10
-1.16904
20
-1.05501
11
-1.17686
21
-1.04585
0
LINE
8
BLACK
6
CONTINUOUS
10
-1.17686
20
-1.04585
11
-1.22248
21
-0.992438
0
LINE
8
BLACK
6
CONTINUOUS
10
-1.22248
20
-0.992438
11
-1.22257
21
-0.992321
0
LINE
8
BLACK
6
CONTINUOUS
10
-1.22257
20
-0.992321
11
-1.27267
21
-0.927032
0
LINE
8
BLACK
6
CONTINUOUS
10
-1.27267
20
-0.927032
11
-1.27276
21
-0.926909
0
LINE
8
BLACK
6
CONTINUOUS
10
-1.27276
20
-0.926909
11
-1.27594
21
-0.922286
0
LINE
8
BLACK
6
CONTINUOUS
10
-1.27594
20
-0.922286
11
-1.31937
21
-0.85909
0
LINE
8
BLACK
6
CONTINUOUS
10
-1.31937
20
-0.85909
11
-1.31946
21
-0.858964
0
LINE
8
BLACK
6
CONTINUOUS
10
-1.31946
20
-0.858964
11
-1.36246
21
-0.788794
0
LINE
8
BLACK
6
CONTINUOUS
10
-1.36246
20
-0.788794
11
-1.36253
21
-0.788663
0
LINE
8
BLACK
6
CONTINUOUS
10
-1.36253
20
-0.788663
11
-1.4018
21
-0.71634
0
LINE
8
BLACK
6
CONTINUOUS
10
-1.4018
20
-0.71634
11
-1.40187
21
-0.716206
0
LINE
8
BLACK
6
CONTINUOUS
10
-1.40187
20
-0.716206
11
-1.4373
21
-0.64193
0
LINE
8
BLACK
6
CONTINUOUS
10
-1.4373
20
-0.64193
11
-1.43736
21
-0.641791
0
LINE
8
BLACK
6
CONTINUOUS
10
-1.43736
20
-0.641791
11
-1.46885
21
-0.56576
0
LINE
8
BLACK
6
CONTINUOUS
10
-1.46885
20
-0.56576
11
-1.46891
21
-0.565616
0
LINE
8
BLACK
6
CONTINUOUS
10
-1.46891
20
-0.565616
11
-1.46966
21
-0.563497
0
LINE
8
BLACK
6
CONTINUOUS
10
-1.46966
20
-0.563497
11
-1.49638
21
-0.488047
0
LINE
8
BLACK
6
CONTINUOUS
10
-1.49638
20
-0.488047
11
-1.49642
21
-0.4879
0
LINE
8
BLACK
6
CONTINUOUS
10
-1.49642
20
-0.4879
11
-1.51979
21
-0.408996
0
LINE
8
BLACK
6
CONTINUOUS
10
-1.51979
20
-0.408996
11
-1.51983
21
-0.40885
0
LINE
8
BLACK
6
CONTINUOUS
10
-1.51983
20
-0.40885
11
-1.53905
21
-0.328829
0
LINE
8
BLACK
6
CONTINUOUS
10
-1.53905
20
-0.328829
11
-1.53908
21
-0.32868
0
LINE
8
BLACK
6
CONTINUOUS
10
-1.53908
20
-0.32868
11
-1.55407
21
-0.247763
0
LINE
8
BLACK
6
CONTINUOUS
10
-1.55407
20
-0.247763
11
-1.5541
21
-0.247613
0
LINE
8
BLACK
6
CONTINUOUS
10
-1.5541
20
-0.247613
11
-1.55662
21
-0.228436
0
LINE
8
BLACK
6
CONTINUOUS
10
-1.55662
20
-0.228436
11
-1.56484
21
-0.166022
0
LINE
8
BLACK
6
CONTINUOUS
10
-1.56484
20
-0.166022
11
-1.56486
21
-0.165873
0
LINE
8
BLACK
6
CONTINUOUS
10
-1.56486
20
-0.165873
11
-1.57131
21
-0.0838309
0
LINE
8
BLACK
6
CONTINUOUS
10
-1.57131
20
-0.0838309
11
-1.57132
21
-0.0836798
0
LINE
8
BLACK
6
CONTINUOUS
10
-1.57132
20
-0.0836798
11
-1.57347
21
-0.00141496
0
LINE
8
BLACK
6
CONTINUOUS
10
-1.57347
20
-0.00141496
11
-1.57347
21
-0.00126146
0
LINE
8
BLACK
6
CONTINUOUS
10
-1.57347
20
-0.00126146
11
-1.57344
21
-1.1811e-07
0
LINE
8
BLACK
6
CONTINUOUS
10
-1.57344
20
-1.1811e-07
11
-1.57344
21
1.5748e-07
0
LINE
8
BLACK
6
CONTINUOUS
10
-1.57344
20
1.5748e-07
11
-1.57132
21
0.0810034
0
LINE
8
BLACK
6
CONTINUOUS
10
-1.57132
20
0.0810034
11
-1.57131
21
0.0811544
0
LINE
8
BLACK
6
CONTINUOUS
10
-1.57131
20
0.0811544
11
-1.56486
21
0.163196
0
LINE
8
BLACK
6
CONTINUOUS
10
-1.56486
20
0.163196
11
-1.56484
21
0.163346
0
LINE
8
BLACK
6
CONTINUOUS
10
-1.56484
20
0.163346
11
-1.5541
21
0.244937
0
LINE
8
BLACK
6
CONTINUOUS
10
-1.5541
20
0.244937
11
-1.55407
21
0.245086
0
LINE
8
BLACK
6
CONTINUOUS
10
-1.55407
20
0.245086
11
-1.53908
21
0.326004
0
LINE
8
BLACK
6
CONTINUOUS
10
-1.53908
20
0.326004
11
-1.53905
21
0.326152
0
LINE
8
BLACK
6
CONTINUOUS
10
-1.53905
20
0.326152
11
-1.51983
21
0.406174
0
LINE
8
BLACK
6
CONTINUOUS
10
-1.51983
20
0.406174
11
-1.51979
21
0.406319
0
LINE
8
BLACK
6
CONTINUOUS
10
-1.51979
20
0.406319
11
-1.49642
21
0.485224
0
LINE
8
BLACK
6
CONTINUOUS
10
-1.49642
20
0.485224
11
-1.49638
21
0.485369
0
LINE
8
BLACK
6
CONTINUOUS
10
-1.49638
20
0.485369
11
-1.49638
21
0.48537
0
LINE
8
BLACK
6
CONTINUOUS
10
-1.49638
20
0.48537
11
-1.4689
21
0.562941
0
LINE
8
BLACK
6
CONTINUOUS
10
-1.4689
20
0.562941
11
-1.46885
21
0.563083
0
LINE
8
BLACK
6
CONTINUOUS
10
-1.46885
20
0.563083
11
-1.46717
21
0.567129
0
LINE
8
BLACK
6
CONTINUOUS
10
-1.46717
20
0.567129
11
-1.43736
21
0.639115
0
LINE
8
BLACK
6
CONTINUOUS
10
-1.43736
20
0.639115
11
-1.4373
21
0.639253
0
LINE
8
BLACK
6
CONTINUOUS
10
-1.4373
20
0.639253
11
-1.40187
21
0.71353
0
LINE
8
BLACK
6
CONTINUOUS
10
-1.40187
20
0.71353
11
-1.4018
21
0.713663
0
LINE
8
BLACK
6
CONTINUOUS
10
-1.4018
20
0.713663
11
-1.36253
21
0.785987
0
LINE
8
BLACK
6
CONTINUOUS
10
-1.36253
20
0.785987
11
-1.36246
21
0.786117
0
LINE
8
BLACK
6
CONTINUOUS
10
-1.36246
20
0.786117
11
-1.35362
21
0.800532
0
LINE
8
BLACK
6
CONTINUOUS
10
-1.35362
20
0.800532
11
-1.31946
21
0.856287
0
LINE
8
BLACK
6
CONTINUOUS
10
-1.31946
20
0.856287
11
-1.31937
21
0.856415
0
LINE
8
BLACK
6
CONTINUOUS
10
-1.31937
20
0.856415
11
-1.31254
21
0.866353
0
LINE
8
BLACK
6
CONTINUOUS
10
-1.31254
20
0.866353
11
-1.27276
21
0.924234
0
LINE
8
BLACK
6
CONTINUOUS
10
-1.27276
20
0.924234
11
-1.27267
21
0.924355
0
LINE
8
BLACK
6
CONTINUOUS
10
-1.27267
20
0.924355
11
-1.22257
21
0.989646
0
LINE
8
BLACK
6
CONTINUOUS
10
-1.22257
20
0.989646
11
-1.22248
21
0.989761
0
LINE
8
BLACK
6
CONTINUOUS
10
-1.22248
20
0.989761
11
-1.16903
21
1.05234
0
LINE
8
BLACK
6
CONTINUOUS
10
-1.16903
20
1.05234
11
-1.16893
21
1.05245
0
LINE
8
BLACK
6
CONTINUOUS
10
-1.16893
20
1.05245
11
-1.11229
21
1.11215
0
LINE
8
BLACK
6
CONTINUOUS
10
-1.11229
20
1.11215
11
-1.11218
21
1.11226
0
LINE
8
BLACK
6
CONTINUOUS
10
-1.11218
20
1.11226
11
-1.05248
21
1.1689
0
LINE
8
BLACK
6
CONTINUOUS
10
-1.05248
20
1.1689
11
-1.05237
21
1.169
0
LINE
8
BLACK
6
CONTINUOUS
10
-1.05237
20
1.169
11
-0.989793
21
1.22245
0
LINE
8
BLACK
6
CONTINUOUS
10
-0.989793
20
1.22245
11
-0.989677
21
1.22254
0
LINE
8
BLACK
6
CONTINUOUS
10
-0.989677
20
1.22254
11
-0.924387
21
1.27264
0
LINE
8
BLACK
6
CONTINUOUS
10
-0.924387
20
1.27264
11
-0.924264
21
1.27273
0
LINE
8
BLACK
6
CONTINUOUS
10
-0.924264
20
1.27273
11
-0.856445
21
1.31934
0
LINE
8
BLACK
6
CONTINUOUS
10
-0.856445
20
1.31934
11
-0.85632
21
1.31942
0
LINE
8
BLACK
6
CONTINUOUS
10
-0.85632
20
1.31942
11
-0.786148
21
1.36242
0
LINE
8
BLACK
6
CONTINUOUS
10
-0.786148
20
1.36242
11
-0.786019
21
1.3625
0
LINE
8
BLACK
6
CONTINUOUS
10
-0.786019
20
1.3625
11
-0.713695
21
1.40177
0
LINE
8
BLACK
6
CONTINUOUS
10
-0.713695
20
1.40177
11
-0.713562
21
1.40184
0
LINE
8
BLACK
6
CONTINUOUS
10
-0.713562
20
1.40184
11
-0.639284
21
1.43726
0
LINE
8
BLACK
6
CONTINUOUS
10
-0.639284
20
1.43726
11
-0.639146
21
1.43733
0
LINE
8
BLACK
6
CONTINUOUS
10
-0.639146
20
1.43733
11
-0.584787
21
1.45984
0
LINE
8
BLACK
6
CONTINUOUS
10
-0.584787
20
1.45984
11
-0.563115
21
1.46882
0
LINE
8
BLACK
6
CONTINUOUS
10
-0.563115
20
1.46882
11
-0.562972
21
1.46887
0
LINE
8
BLACK
6
CONTINUOUS
10
-0.562972
20
1.46887
11
-0.485401
21
1.49635
0
LINE
8
BLACK
6
CONTINUOUS
10
-0.485401
20
1.49635
11
-0.485256
21
1.49639
0
LINE
8
BLACK
6
CONTINUOUS
10
-0.485256
20
1.49639
11
-0.406351
21
1.51976
0
LINE
8
BLACK
6
CONTINUOUS
10
-0.406351
20
1.51976
11
-0.406206
21
1.5198
0
LINE
8
BLACK
6
CONTINUOUS
10
-0.406206
20
1.5198
11
-0.326184
21
1.53901
0
LINE
8
BLACK
6
CONTINUOUS
10
-0.326184
20
1.53901
11
-0.326035
21
1.53905
0
LINE
8
BLACK
6
CONTINUOUS
10
-0.326035
20
1.53905
11
-0.245118
21
1.55404
0
LINE
8
BLACK
6
CONTINUOUS
10
-0.245118
20
1.55404
11
-0.244968
21
1.55407
0
LINE
8
BLACK
6
CONTINUOUS
10
-0.244968
20
1.55407
11
-0.239257
21
1.55482
0
LINE
8
BLACK
6
CONTINUOUS
10
-0.239257
20
1.55482
11
-0.163377
21
1.56481
0
LINE
8
BLACK
6
CONTINUOUS
10
-0.163377
20
1.56481
11
-0.163228
21
1.56482
0
LINE
8
BLACK
6
CONTINUOUS
10
-0.163228
20
1.56482
11
-0.0811859
21
1.57128
0
LINE
8
BLACK
6
CONTINUOUS
10
-0.0811859
20
1.57128
11
-0.0810349
21
1.57129
0
LINE
8
BLACK
6
CONTINUOUS
10
-0.0810349
20
1.57129
11
0.00123008
21
1.57344
0
LINE
8
BLACK
6
CONTINUOUS
10
0.00123008
20
1.57344
11
0.00138346
21
1.57344
0
LINE
8
BLACK
6
CONTINUOUS
10
0.00138346
20
1.57344
11
0.0836483
21
1.57129
0
LINE
8
BLACK
6
CONTINUOUS
10
-0.0294486
20
0.242531
11
-0.0294488
21
0.242531
0
LINE
8
BLACK
6
CONTINUOUS
10
-0.0294488
20
0.242531
11
-0.0294489
21
0.242531
0
LINE
8
BLACK
6
CONTINUOUS
10
-0.0294489
20
0.242531
11
-0.0294494
21
0.242531
0
LINE
8
BLACK
6
CONTINUOUS
10
-0.0294494
20
0.242531
11
-0.0488683
21
0.239375
0
LINE
8
BLACK
6
CONTINUOUS
10
-0.0488683
20
0.239375
11
-0.0488694
21
0.239375
0
LINE
8
BLACK
6
CONTINUOUS
10
-0.0488694
20
0.239375
11
-0.0679717
21
0.234667
0
LINE
8
BLACK
6
CONTINUOUS
10
-0.0679717
20
0.234667
11
-0.0866341
21
0.228436
0
LINE
8
BLACK
6
CONTINUOUS
10
-0.0866341
20
0.228436
11
-0.104735
21
0.220724
0
LINE
8
BLACK
6
CONTINUOUS
10
-0.104735
20
0.220724
11
-0.104735
21
0.220724
0
LINE
8
BLACK
6
CONTINUOUS
10
-0.104735
20
0.220724
11
-0.11661
21
0.214492
0
LINE
8
BLACK
6
CONTINUOUS
10
-0.11661
20
0.214492
11
-0.122156
21
0.211581
0
LINE
8
BLACK
6
CONTINUOUS
10
-0.122156
20
0.211581
11
-0.122156
21
0.211581
0
LINE
8
BLACK
6
CONTINUOUS
10
-0.122156
20
0.211581
11
-0.122156
21
0.211581
0
LINE
8
BLACK
6
CONTINUOUS
10
-0.122156
20
0.211581
11
-0.138785
21
0.201065
0
LINE
8
BLACK
6
CONTINUOUS
10
-0.138785
20
0.201065
11
-0.154514
21
0.189245
0
LINE
8
BLACK
6
CONTINUOUS
10
-0.154514
20
0.189245
11
-0.154514
21
0.189245
0
LINE
8
BLACK
6
CONTINUOUS
10
-0.154514
20
0.189245
11
-0.169241
21
0.176199
0
LINE
8
BLACK
6
CONTINUOUS
10
-0.169241
20
0.176199
11
-0.169241
21
0.176199
0
LINE
8
BLACK
6
CONTINUOUS
10
-0.169241
20
0.176199
11
-0.18287
21
0.162009
0
LINE
8
BLACK
6
CONTINUOUS
10
-0.18287
20
0.162009
11
-0.182871
21
0.162009
0
LINE
8
BLACK
6
CONTINUOUS
10
-0.182871
20
0.162009
11
-0.195313
21
0.146769
0
LINE
8
BLACK
6
CONTINUOUS
10
-0.195313
20
0.146769
11
-0.195314
21
0.146769
0
LINE
8
BLACK
6
CONTINUOUS
10
-0.195314
20
0.146769
11
-0.195314
21
0.146769
0
LINE
8
BLACK
6
CONTINUOUS
10
-0.195314
20
0.146769
11
-0.195314
21
0.146769
0
LINE
8
BLACK
6
CONTINUOUS
10
-0.195314
20
0.146769
11
-0.20649
21
0.130577
0
LINE
8
BLACK
6
CONTINUOUS
10
-0.20649
20
0.130577
11
-0.20649
21
0.130576
0
LINE
8
BLACK
6
CONTINUOUS
10
-0.20649
20
0.130576
11
-0.216328
21
0.113537
0
LINE
8
BLACK
6
CONTINUOUS
10
-0.216328
20
0.113537
11
-0.224762
21
0.0957625
0
LINE
8
BLACK
6
CONTINUOUS
10
-0.224762
20
0.0957625
11
-0.231739
21
0.0773663
0
LINE
8
BLACK
6
CONTINUOUS
10
-0.231739
20
0.0773663
11
-0.237213
21
0.0584678
0
LINE
8
BLACK
6
CONTINUOUS
10
-0.237213
20
0.0584678
11
-0.241149
21
0.0391905
0
LINE
8
BLACK
6
CONTINUOUS
10
-0.241149
20
0.0391905
11
-0.24352
21
0.0196588
0
LINE
8
BLACK
6
CONTINUOUS
10
-0.24352
20
0.0196588
11
-0.24352
21
0.0196587
0
LINE
8
BLACK
6
CONTINUOUS
10
-0.24352
20
0.0196587
11
-0.244312
21
1.5748e-07
0
LINE
8
BLACK
6
CONTINUOUS
10
-0.244312
20
1.5748e-07
11
-0.244312
21
-1.1811e-07
0
LINE
8
BLACK
6
CONTINUOUS
10
-0.244312
20
-1.1811e-07
11
-0.24352
21
-0.0196586
0
LINE
8
BLACK
6
CONTINUOUS
10
-0.24352
20
-0.0196586
11
-0.24352
21
-0.0196587
0
LINE
8
BLACK
6
CONTINUOUS
10
-0.24352
20
-0.0196587
11
-0.24352
21
-0.019659
0
LINE
8
BLACK
6
CONTINUOUS
10
-0.24352
20
-0.019659
11
-0.241544
21
-0.0359352
0
LINE
8
BLACK
6
CONTINUOUS
10
-0.241544
20
-0.0359352
11
-0.241149
21
-0.0391905
0
LINE
8
BLACK
6
CONTINUOUS
10
-0.241149
20
-0.0391905
11
-0.237213
21
-0.0584678
0
LINE
8
BLACK
6
CONTINUOUS
10
-0.237213
20
-0.0584678
11
-0.231739
21
-0.0773662
0
LINE
8
BLACK
6
CONTINUOUS
10
-0.231739
20
-0.0773662
11
-0.224762
21
-0.0957624
0
LINE
8
BLACK
6
CONTINUOUS
10
-0.224762
20
-0.0957624
11
-0.216328
21
-0.113537
0
LINE
8
BLACK
6
CONTINUOUS
10
-0.216328
20
-0.113537
11
-0.216328
21
-0.113538
0
LINE
8
BLACK
6
CONTINUOUS
10
-0.216328
20
-0.113538
11
-0.216328
21
-0.113538
0
LINE
8
BLACK
6
CONTINUOUS
10
-0.216328
20
-0.113538
11
-0.20649
21
-0.130577
0
LINE
8
BLACK
6
CONTINUOUS
10
-0.20649
20
-0.130577
11
-0.195314
21
-0.146769
0
LINE
8
BLACK
6
CONTINUOUS
10
-0.195314
20
-0.146769
11
-0.195314
21
-0.146769
0
LINE
8
BLACK
6
CONTINUOUS
10
-0.195314
20
-0.146769
11
-0.195313
21
-0.146769
0
LINE
8
BLACK
6
CONTINUOUS
10
-0.195313
20
-0.146769
11
-0.182871
21
-0.162009
0
LINE
8
BLACK
6
CONTINUOUS
10
-0.182871
20
-0.162009
11
-0.18287
21
-0.162009
0
LINE
8
BLACK
6
CONTINUOUS
10
-0.18287
20
-0.162009
11
-0.179161
21
-0.165871
0
LINE
8
BLACK
6
CONTINUOUS
10
-0.179161
20
-0.165871
11
-0.169241
21
-0.176199
0
LINE
8
BLACK
6
CONTINUOUS
10
-0.169241
20
-0.176199
11
-0.169241
21
-0.176199
0
LINE
8
BLACK
6
CONTINUOUS
10
-0.169241
20
-0.176199
11
-0.169241
21
-0.176199
0
LINE
8
BLACK
6
CONTINUOUS
10
-0.169241
20
-0.176199
11
-0.16027
21
-0.184146
0
LINE
8
BLACK
6
CONTINUOUS
10
-0.16027
20
-0.184146
11
-0.154514
21
-0.189245
0
LINE
8
BLACK
6
CONTINUOUS
10
-0.154514
20
-0.189245
11
-0.154514
21
-0.189245
0
LINE
8
BLACK
6
CONTINUOUS
10
-0.154514
20
-0.189245
11
-0.154514
21
-0.189246
0
LINE
8
BLACK
6
CONTINUOUS
10
-0.154514
20
-0.189246
11
-0.138785
21
-0.201065
0
LINE
8
BLACK
6
CONTINUOUS
10
-0.138785
20
-0.201065
11
-0.122156
21
-0.211581
0
LINE
8
BLACK
6
CONTINUOUS
10
-0.122156
20
-0.211581
11
-0.104735
21
-0.220724
0
LINE
8
BLACK
6
CONTINUOUS
10
-0.104735
20
-0.220724
11
-0.104735
21
-0.220724
0
LINE
8
BLACK
6
CONTINUOUS
10
-0.104735
20
-0.220724
11
-0.104735
21
-0.220724
0
LINE
8
BLACK
6
CONTINUOUS
10
-0.104735
20
-0.220724
11
-0.100981
21
-0.222324
0
LINE
8
BLACK
6
CONTINUOUS
10
-0.100981
20
-0.222324
11
-0.0866343
21
-0.228436
0
LINE
8
BLACK
6
CONTINUOUS
10
-0.0866343
20
-0.228436
11
-0.067972
21
-0.234666
0
LINE
8
BLACK
6
CONTINUOUS
10
-0.067972
20
-0.234666
11
-0.0679717
21
-0.234666
0
LINE
8
BLACK
6
CONTINUOUS
10
-0.0679717
20
-0.234666
11
-0.0679717
21
-0.234666
0
LINE
8
BLACK
6
CONTINUOUS
10
-0.0679717
20
-0.234666
11
-0.0488694
21
-0.239375
0
LINE
8
BLACK
6
CONTINUOUS
10
-0.0488694
20
-0.239375
11
-0.048869
21
-0.239375
0
LINE
8
BLACK
6
CONTINUOUS
10
-0.048869
20
-0.239375
11
-0.0488687
21
-0.239375
0
LINE
8
BLACK
6
CONTINUOUS
10
-0.0488687
20
-0.239375
11
-0.0488685
21
-0.239375
0
LINE
8
BLACK
6
CONTINUOUS
10
-0.0488685
20
-0.239375
11
-0.0488683
21
-0.239375
0
LINE
8
BLACK
6
CONTINUOUS
10
-0.0488683
20
-0.239375
11
-0.0294494
21
-0.242531
0
LINE
8
BLACK
6
CONTINUOUS
10
-0.0294494
20
-0.242531
11
-0.0294493
21
-0.242531
0
LINE
8
BLACK
6
CONTINUOUS
10
-0.0294493
20
-0.242531
11
-0.0294486
21
-0.242531
0
LINE
8
BLACK
6
CONTINUOUS
10
-0.0294486
20
-0.242531
11
-0.00983748
21
-0.244114
0
LINE
8
BLACK
6
CONTINUOUS
10
-0.00983748
20
-0.244114
11
-0.00983713
21
-0.244114
0
LINE
8
BLACK
6
CONTINUOUS
10
-0.00983713
20
-0.244114
11
0.00983713
21
-0.244114
0
LINE
8
BLACK
6
CONTINUOUS
10
0.00983713
20
-0.244114
11
0.00983748
21
-0.244114
0
LINE
8
BLACK
6
CONTINUOUS
10
0.00983748
20
-0.244114
11
0.0294486
21
-0.242531
0
LINE
8
BLACK
6
CONTINUOUS
10
0.0294486
20
-0.242531
11
0.0294493
21
-0.242531
0
LINE
8
BLACK
6
CONTINUOUS
10
0.0294493
20
-0.242531
11
0.0294493
21
-0.242531
0
LINE
8
BLACK
6
CONTINUOUS
10
0.0294493
20
-0.242531
11
0.0488683
21
-0.239375
0
LINE
8
BLACK
6
CONTINUOUS
10
0.0488683
20
-0.239375
11
0.0488683
21
-0.239375
0
LINE
8
BLACK
6
CONTINUOUS
10
0.0488683
20
-0.239375
11
0.0488687
21
-0.239375
0
LINE
8
BLACK
6
CONTINUOUS
10
0.0488687
20
-0.239375
11
0.0488692
21
-0.239375
0
LINE
8
BLACK
6
CONTINUOUS
10
0.0488692
20
-0.239375
11
0.0488694
21
-0.239375
0
LINE
8
BLACK
6
CONTINUOUS
10
0.0488694
20
-0.239375
11
0.0577613
21
-0.237183
0
LINE
8
BLACK
6
CONTINUOUS
10
0.0577613
20
-0.237183
11
0.067972
21
-0.234666
0
LINE
8
BLACK
6
CONTINUOUS
10
0.067972
20
-0.234666
11
0.0866343
21
-0.228436
0
LINE
8
BLACK
6
CONTINUOUS
10
0.0866343
20
-0.228436
11
0.104735
21
-0.220724
0
LINE
8
BLACK
6
CONTINUOUS
10
0.104735
20
-0.220724
11
0.122156
21
-0.211581
0
LINE
8
BLACK
6
CONTINUOUS
10
0.122156
20
-0.211581
11
0.138785
21
-0.201065
0
LINE
8
BLACK
6
CONTINUOUS
10
0.138785
20
-0.201065
11
0.154514
21
-0.189246
0
LINE
8
BLACK
6
CONTINUOUS
10
0.154514
20
-0.189246
11
0.169241
21
-0.176199
0
LINE
8
BLACK
6
CONTINUOUS
10
0.169241
20
-0.176199
11
0.18287
21
-0.162009
0
LINE
8
BLACK
6
CONTINUOUS
10
0.18287
20
-0.162009
11
0.195314
21
-0.146769
0
LINE
8
BLACK
6
CONTINUOUS
10
0.195314
20
-0.146769
11
0.20649
21
-0.130577
0
LINE
8
BLACK
6
CONTINUOUS
10
0.20649
20
-0.130577
11
0.216328
21
-0.113538
0
LINE
8
BLACK
6
CONTINUOUS
10
0.216328
20
-0.113538
11
0.224762
21
-0.0957623
0
LINE
8
BLACK
6
CONTINUOUS
10
0.224762
20
-0.0957623
11
0.231739
21
-0.0773659
0
LINE
8
BLACK
6
CONTINUOUS
10
0.231739
20
-0.0773659
11
0.237213
21
-0.0584678
0
LINE
8
BLACK
6
CONTINUOUS
10
0.237213
20
-0.0584678
11
0.241149
21
-0.0391904
0
LINE
8
BLACK
6
CONTINUOUS
10
0.241149
20
-0.0391904
11
0.24352
21
-0.019659
0
LINE
8
BLACK
6
CONTINUOUS
10
0.24352
20
-0.019659
11
0.244312
21
0
0
LINE
8
BLACK
6
CONTINUOUS
10
0.244312
20
0
11
0.24352
21
0.019659
0
LINE
8
BLACK
6
CONTINUOUS
10
0.24352
20
0.019659
11
0.241149
21
0.0391904
0
LINE
8
BLACK
6
CONTINUOUS
10
0.241149
20
0.0391904
11
0.237213
21
0.0584678
0
LINE
8
BLACK
6
CONTINUOUS
10
0.237213
20
0.0584678
11
0.231739
21
0.0773659
0
LINE
8
BLACK
6
CONTINUOUS
10
0.231739
20
0.0773659
11
0.230331
21
0.0810778
0
LINE
8
BLACK
6
CONTINUOUS
10
0.230331
20
0.0810778
11
0.224762
21
0.0957625
0
LINE
8
BLACK
6
CONTINUOUS
10
0.224762
20
0.0957625
11
0.216328
21
0.113537
0
LINE
8
BLACK
6
CONTINUOUS
10
0.216328
20
0.113537
11
0.216328
21
0.113537
0
LINE
8
BLACK
6
CONTINUOUS
10
0.216328
20
0.113537
11
0.216328
21
0.113538
0
LINE
8
BLACK
6
CONTINUOUS
10
0.216328
20
0.113538
11
0.20649
21
0.130577
0
LINE
8
BLACK
6
CONTINUOUS
10
0.20649
20
0.130577
11
0.195314
21
0.146769
0
LINE
8
BLACK
6
CONTINUOUS
10
0.195314
20
0.146769
11
0.18287
21
0.162009
0
LINE
8
BLACK
6
CONTINUOUS
10
0.18287
20
0.162009
11
0.18287
21
0.162009
0
LINE
8
BLACK
6
CONTINUOUS
10
0.18287
20
0.162009
11
0.18287
21
0.162009
0
LINE
8
BLACK
6
CONTINUOUS
10
0.18287
20
0.162009
11
0.177602
21
0.167494
0
LINE
8
BLACK
6
CONTINUOUS
10
0.177602
20
0.167494
11
0.169241
21
0.176199
0
LINE
8
BLACK
6
CONTINUOUS
10
0.169241
20
0.176199
11
0.169241
21
0.176199
0
LINE
8
BLACK
6
CONTINUOUS
10
0.169241
20
0.176199
11
0.16924
21
0.176199
0
LINE
8
BLACK
6
CONTINUOUS
10
0.16924
20
0.176199
11
0.158831
21
0.185421
0
LINE
8
BLACK
6
CONTINUOUS
10
0.158831
20
0.185421
11
0.154514
21
0.189245
0
LINE
8
BLACK
6
CONTINUOUS
10
0.154514
20
0.189245
11
0.146738
21
0.195089
0
LINE
8
BLACK
6
CONTINUOUS
10
0.146738
20
0.195089
11
0.138785
21
0.201065
0
LINE
8
BLACK
6
CONTINUOUS
10
0.138785
20
0.201065
11
0.138785
21
0.201065
0
LINE
8
BLACK
6
CONTINUOUS
10
0.138785
20
0.201065
11
0.138785
21
0.201065
0
LINE
8
BLACK
6
CONTINUOUS
10
0.138785
20
0.201065
11
0.122157
21
0.21158
0
LINE
8
BLACK
6
CONTINUOUS
10
0.122157
20
0.21158
11
0.122157
21
0.21158
0
LINE
8
BLACK
6
CONTINUOUS
10
0.122157
20
0.21158
11
0.122156
21
0.211581
0
LINE
8
BLACK
6
CONTINUOUS
10
0.122156
20
0.211581
11
0.104735
21
0.220724
0
LINE
8
BLACK
6
CONTINUOUS
10
0.104735
20
0.220724
11
0.104735
21
0.220724
0
LINE
8
BLACK
6
CONTINUOUS
10
0.104735
20
0.220724
11
0.104735
21
0.220724
0
LINE
8
BLACK
6
CONTINUOUS
10
0.104735
20
0.220724
11
0.104735
21
0.220724
0
LINE
8
BLACK
6
CONTINUOUS
10
0.104735
20
0.220724
11
0.0936958
21
0.225427
0
LINE
8
BLACK
6
CONTINUOUS
10
0.0936958
20
0.225427
11
0.0866343
21
0.228436
0
LINE
8
BLACK
6
CONTINUOUS
10
0.0866343
20
0.228436
11
0.067972
21
0.234666
0
LINE
8
BLACK
6
CONTINUOUS
10
0.067972
20
0.234666
11
0.0679719
21
0.234666
0
LINE
8
BLACK
6
CONTINUOUS
10
0.0679719
20
0.234666
11
0.0679716
21
0.234667
0
LINE
8
BLACK
6
CONTINUOUS
10
0.0679716
20
0.234667
11
0.0488694
21
0.239375
0
LINE
8
BLACK
6
CONTINUOUS
10
0.0488694
20
0.239375
11
0.0488683
21
0.239375
0
LINE
8
BLACK
6
CONTINUOUS
10
0.0488683
20
0.239375
11
0.0294493
21
0.242531
0
LINE
8
BLACK
6
CONTINUOUS
10
0.0294493
20
0.242531
11
0.0294489
21
0.242531
0
LINE
8
BLACK
6
CONTINUOUS
10
0.0294489
20
0.242531
11
0.0294488
21
0.242531
0
LINE
8
BLACK
6
CONTINUOUS
10
0.0294488
20
0.242531
11
0.0294486
21
0.242531
0
LINE
8
BLACK
6
CONTINUOUS
10
0.0294486
20
0.242531
11
0.00983748
21
0.244114
0
LINE
8
BLACK
6
CONTINUOUS
10
0.00983748
20
0.244114
11
-0.00983748
21
0.244114
0
LINE
8
BLACK
6
CONTINUOUS
10
-0.00983748
20
0.244114
11
-0.0294486
21
0.242531
0
LINE
8
BLACK
6
CONTINUOUS
10
-0.818351
20
-1.20952
11
-0.818348
21
-1.20954
0
LINE
8
BLACK
6
CONTINUOUS
10
-0.818348
20
-1.20954
11
-0.816735
21
-1.22489
0
LINE
8
BLACK
6
CONTINUOUS
10
-0.816735
20
-1.22489
11
-0.816733
21
-1.22497
0
LINE
8
BLACK
6
CONTINUOUS
10
-0.816733
20
-1.22497
11
-0.816685
21
-1.22536
0
LINE
8
BLACK
6
CONTINUOUS
10
-0.816685
20
-1.22536
11
-0.816531
21
-1.22585
0
LINE
8
BLACK
6
CONTINUOUS
10
-0.816531
20
-1.22585
11
-0.816518
21
-1.22588
0
LINE
8
BLACK
6
CONTINUOUS
10
-0.816518
20
-1.22588
11
-0.811762
21
-1.24052
0
LINE
8
BLACK
6
CONTINUOUS
10
-0.811762
20
-1.24052
11
-0.811744
21
-1.24059
0
LINE
8
BLACK
6
CONTINUOUS
10
-0.811744
20
-1.24059
11
-0.811597
21
-1.24102
0
LINE
8
BLACK
6
CONTINUOUS
10
-0.811597
20
-1.24102
11
-0.811398
21
-1.24138
0
LINE
8
BLACK
6
CONTINUOUS
10
-0.811398
20
-1.24138
11
-0.811344
21
-1.24146
0
LINE
8
BLACK
6
CONTINUOUS
10
-0.811344
20
-1.24146
11
-0.80361
21
-1.25485
0
LINE
8
BLACK
6
CONTINUOUS
10
-0.80361
20
-1.25485
11
-0.803561
21
-1.25496
0
LINE
8
BLACK
6
CONTINUOUS
10
-0.803561
20
-1.25496
11
-0.803376
21
-1.25526
0
LINE
8
BLACK
6
CONTINUOUS
10
-0.803376
20
-1.25526
11
-0.803364
21
-1.25528
0
LINE
8
BLACK
6
CONTINUOUS
10
-0.803364
20
-1.25528
11
-0.803028
21
-1.25566
0
LINE
8
BLACK
6
CONTINUOUS
10
-0.803028
20
-1.25566
11
-0.802985
21
-1.2557
0
LINE
8
BLACK
6
CONTINUOUS
10
-0.802985
20
-1.2557
11
-0.800563
21
-1.25839
0
LINE
8
BLACK
6
CONTINUOUS
10
-0.800563
20
-1.25839
11
-0.792705
21
-1.26712
0
LINE
8
BLACK
6
CONTINUOUS
10
-0.792705
20
-1.26712
11
-0.792645
21
-1.2672
0
LINE
8
BLACK
6
CONTINUOUS
10
-0.792645
20
-1.2672
11
-0.792368
21
-1.2675
0
LINE
8
BLACK
6
CONTINUOUS
10
-0.792368
20
-1.2675
11
-0.792349
21
-1.26752
0
LINE
8
BLACK
6
CONTINUOUS
10
-0.792349
20
-1.26752
11
-0.792325
21
-1.26754
0
LINE
8
BLACK
6
CONTINUOUS
10
-0.792325
20
-1.26754
11
-0.791994
21
-1.26779
0
LINE
8
BLACK
6
CONTINUOUS
10
-0.791994
20
-1.26779
11
-0.791914
21
-1.26783
0
LINE
8
BLACK
6
CONTINUOUS
10
-0.791914
20
-1.26783
11
-0.781483
21
-1.27541
0
LINE
8
BLACK
6
CONTINUOUS
10
-0.781483
20
-1.27541
11
-0.77917
21
-1.27709
0
LINE
8
BLACK
6
CONTINUOUS
10
-0.77917
20
-1.27709
11
-0.779084
21
-1.27716
0
LINE
8
BLACK
6
CONTINUOUS
10
-0.779084
20
-1.27716
11
-0.778969
21
-1.27724
0
LINE
8
BLACK
6
CONTINUOUS
10
-0.778969
20
-1.27724
11
-0.778871
21
-1.27729
0
LINE
8
BLACK
6
CONTINUOUS
10
-0.778871
20
-1.27729
11
-0.772021
21
-1.28149
0
LINE
8
BLACK
6
CONTINUOUS
10
-0.772021
20
-1.28149
11
-0.772018
21
-1.28149
0
LINE
8
BLACK
6
CONTINUOUS
10
-0.772018
20
-1.28149
11
-0.771321
21
-1.28192
0
LINE
8
BLACK
6
CONTINUOUS
10
-0.771321
20
-1.28192
11
-0.771321
21
-1.28192
0
LINE
8
BLACK
6
CONTINUOUS
10
-0.771321
20
-1.28192
11
-0.758937
21
-1.28951
0
LINE
8
BLACK
6
CONTINUOUS
10
-0.758937
20
-1.28951
11
-0.751305
21
-1.29418
0
LINE
8
BLACK
6
CONTINUOUS
10
-0.751305
20
-1.29418
11
-0.746914
21
-1.29687
0
LINE
8
BLACK
6
CONTINUOUS
10
-0.746914
20
-1.29687
11
-0.746838
21
-1.29693
0
LINE
8
BLACK
6
CONTINUOUS
10
-0.746838
20
-1.29693
11
-0.746808
21
-1.29694
0
LINE
8
BLACK
6
CONTINUOUS
10
-0.746808
20
-1.29694
11
-0.746662
21
-1.29703
0
LINE
8
BLACK
6
CONTINUOUS
10
-0.746662
20
-1.29703
11
-0.746526
21
-1.29711
0
LINE
8
BLACK
6
CONTINUOUS
10
-0.746526
20
-1.29711
11
-0.746357
21
-1.29719
0
LINE
8
BLACK
6
CONTINUOUS
10
-0.746357
20
-1.29719
11
-0.733864
21
-1.30397
0
LINE
8
BLACK
6
CONTINUOUS
10
-0.733864
20
-1.30397
11
-0.719082
21
-1.312
0
LINE
8
BLACK
6
CONTINUOUS
10
-0.719082
20
-1.312
11
-0.719079
21
-1.312
0
LINE
8
BLACK
6
CONTINUOUS
10
-0.719079
20
-1.312
11
-0.70968
21
-1.3171
0
LINE
8
BLACK
6
CONTINUOUS
10
-0.70968
20
-1.3171
11
-0.709679
21
-1.3171
0
LINE
8
BLACK
6
CONTINUOUS
10
-0.709679
20
-1.3171
11
-0.709678
21
-1.3171
0
LINE
8
BLACK
6
CONTINUOUS
10
-0.709678
20
-1.3171
11
-0.703639
21
-1.32038
0
LINE
8
BLACK
6
CONTINUOUS
10
-0.703639
20
-1.32038
11
-0.703639
21
-1.32038
0
LINE
8
BLACK
6
CONTINUOUS
10
-0.703639
20
-1.32038
11
-0.703639
21
-1.32038
0
LINE
8
BLACK
6
CONTINUOUS
10
-0.703639
20
-1.32038
11
-0.701995
21
-1.32127
0
LINE
8
BLACK
6
CONTINUOUS
10
-0.701995
20
-1.32127
11
-0.701995
21
-1.32127
0
LINE
8
BLACK
6
CONTINUOUS
10
-0.701995
20
-1.32127
11
-0.701995
21
-1.32127
0
LINE
8
BLACK
6
CONTINUOUS
10
-0.701995
20
-1.32127
11
-0.701935
21
-1.32131
0
LINE
8
BLACK
6
CONTINUOUS
10
-0.701935
20
-1.32131
11
-0.681706
21
-1.33229
0
LINE
8
BLACK
6
CONTINUOUS
10
-0.681706
20
-1.33229
11
-0.681626
21
-1.33234
0
LINE
8
BLACK
6
CONTINUOUS
10
-0.681626
20
-1.33234
11
-0.681609
21
-1.33235
0
LINE
8
BLACK
6
CONTINUOUS
10
-0.681609
20
-1.33235
11
-0.681443
21
-1.33244
0
LINE
8
BLACK
6
CONTINUOUS
10
-0.681443
20
-1.33244
11
-0.681301
21
-1.33251
0
LINE
8
BLACK
6
CONTINUOUS
10
-0.681301
20
-1.33251
11
-0.681118
21
-1.33259
0
LINE
8
BLACK
6
CONTINUOUS
10
-0.681118
20
-1.33259
11
-0.614961
21
-1.36414
0
LINE
8
BLACK
6
CONTINUOUS
10
-0.614961
20
-1.36414
11
-0.614846
21
-1.36421
0
LINE
8
BLACK
6
CONTINUOUS
10
-0.614846
20
-1.36421
11
-0.6146
21
-1.36431
0
LINE
8
BLACK
6
CONTINUOUS
10
-0.6146
20
-1.36431
11
-0.614497
21
-1.36436
0
LINE
8
BLACK
6
CONTINUOUS
10
-0.614497
20
-1.36436
11
-0.614165
21
-1.36452
0
LINE
8
BLACK
6
CONTINUOUS
10
-0.614165
20
-1.36452
11
-0.614026
21
-1.36457
0
LINE
8
BLACK
6
CONTINUOUS
10
-0.614026
20
-1.36457
11
-0.599965
21
-1.37083
0
LINE
8
BLACK
6
CONTINUOUS
10
-0.599965
20
-1.37083
11
-0.599844
21
-1.37089
0
LINE
8
BLACK
6
CONTINUOUS
10
-0.599844
20
-1.37089
11
-0.599564
21
-1.37101
0
LINE
8
BLACK
6
CONTINUOUS
10
-0.599564
20
-1.37101
11
-0.59946
21
-1.37105
0
LINE
8
BLACK
6
CONTINUOUS
10
-0.59946
20
-1.37105
11
-0.599152
21
-1.37119
0
LINE
8
BLACK
6
CONTINUOUS
10
-0.599152
20
-1.37119
11
-0.599019
21
-1.37123
0
LINE
8
BLACK
6
CONTINUOUS
10
-0.599019
20
-1.37123
11
-0.53115
21
-1.39935
0
LINE
8
BLACK
6
CONTINUOUS
10
-0.53115
20
-1.39935
11
-0.531068
21
-1.39939
0
LINE
8
BLACK
6
CONTINUOUS
10
-0.531068
20
-1.39939
11
-0.531033
21
-1.3994
0
LINE
8
BLACK
6
CONTINUOUS
10
-0.531033
20
-1.3994
11
-0.530881
21
-1.39946
0
LINE
8
BLACK
6
CONTINUOUS
10
-0.530881
20
-1.39946
11
-0.530731
21
-1.39952
0
LINE
8
BLACK
6
CONTINUOUS
10
-0.530731
20
-1.39952
11
-0.530555
21
-1.39957
0
LINE
8
BLACK
6
CONTINUOUS
10
-0.530555
20
-1.39957
11
-0.461417
21
-1.42405
0
LINE
8
BLACK
6
CONTINUOUS
10
-0.461417
20
-1.42405
11
-0.46125
21
-1.42412
0
LINE
8
BLACK
6
CONTINUOUS
10
-0.46125
20
-1.42412
11
-0.46108
21
-1.42417
0
LINE
8
BLACK
6
CONTINUOUS
10
-0.46108
20
-1.42417
11
-0.460935
21
-1.42422
0
LINE
8
BLACK
6
CONTINUOUS
10
-0.460935
20
-1.42422
11
-0.460743
21
-1.42429
0
LINE
8
BLACK
6
CONTINUOUS
10
-0.460743
20
-1.42429
11
-0.460562
21
-1.42433
0
LINE
8
BLACK
6
CONTINUOUS
10
-0.460562
20
-1.42433
11
-0.390322
21
-1.44513
0
LINE
8
BLACK
6
CONTINUOUS
10
-0.390322
20
-1.44513
11
-0.390127
21
-1.44521
0
LINE
8
BLACK
6
CONTINUOUS
10
-0.390127
20
-1.44521
11
-0.389961
21
-1.44525
0
LINE
8
BLACK
6
CONTINUOUS
10
-0.389961
20
-1.44525
11
-0.389763
21
-1.4453
0
LINE
8
BLACK
6
CONTINUOUS
10
-0.389763
20
-1.4453
11
-0.389602
21
-1.44535
0
LINE
8
BLACK
6
CONTINUOUS
10
-0.389602
20
-1.44535
11
-0.389402
21
-1.44538
0
LINE
8
BLACK
6
CONTINUOUS
10
-0.389402
20
-1.44538
11
-0.318179
21
-1.46248
0
LINE
8
BLACK
6
CONTINUOUS
10
-0.318179
20
-1.46248
11
-0.31807
21
-1.46252
0
LINE
8
BLACK
6
CONTINUOUS
10
-0.31807
20
-1.46252
11
-0.317743
21
-1.46259
0
LINE
8
BLACK
6
CONTINUOUS
10
-0.317743
20
-1.46259
11
-0.317673
21
-1.4626
0
LINE
8
BLACK
6
CONTINUOUS
10
-0.317673
20
-1.4626
11
-0.317098
21
-1.46274
0
LINE
8
BLACK
6
CONTINUOUS
10
-0.317098
20
-1.46274
11
-0.316973
21
-1.46275
0
LINE
8
BLACK
6
CONTINUOUS
10
-0.316973
20
-1.46275
11
-0.302102
21
-1.46591
0
LINE
8
BLACK
6
CONTINUOUS
10
-0.302102
20
-1.46591
11
-0.30196
21
-1.46596
0
LINE
8
BLACK
6
CONTINUOUS
10
-0.30196
20
-1.46596
11
-0.30167
21
-1.46601
0
LINE
8
BLACK
6
CONTINUOUS
10
-0.30167
20
-1.46601
11
-0.301542
21
-1.46603
0
LINE
8
BLACK
6
CONTINUOUS
10
-0.301542
20
-1.46603
11
-0.301083
21
-1.46613
0
LINE
8
BLACK
6
CONTINUOUS
10
-0.301083
20
-1.46613
11
-0.300921
21
-1.46615
0
LINE
8
BLACK
6
CONTINUOUS
10
-0.300921
20
-1.46615
11
-0.229063
21
-1.47946
0
LINE
8
BLACK
6
CONTINUOUS
10
-0.229063
20
-1.47946
11
-0.228877
21
-1.47951
0
LINE
8
BLACK
6
CONTINUOUS
10
-0.228877
20
-1.47951
11
-0.228739
21
-1.47953
0
LINE
8
BLACK
6
CONTINUOUS
10
-0.228739
20
-1.47953
11
-0.228552
21
-1.47956
0
LINE
8
BLACK
6
CONTINUOUS
10
-0.228552
20
-1.47956
11
-0.228398
21
-1.47959
0
LINE
8
BLACK
6
CONTINUOUS
10
-0.228398
20
-1.47959
11
-0.228204
21
-1.4796
0
LINE
8
BLACK
6
CONTINUOUS
10
-0.228204
20
-1.4796
11
-0.16733
21
-1.48761
0
LINE
8
BLACK
6
CONTINUOUS
10
-0.16733
20
-1.48761
11
-0.155522
21
-1.48917
0
LINE
8
BLACK
6
CONTINUOUS
10
-0.155522
20
-1.48917
11
-0.155326
21
-1.48921
0
LINE
8
BLACK
6
CONTINUOUS
10
-0.155326
20
-1.48921
11
-0.155176
21
-1.48922
0
LINE
8
BLACK
6
CONTINUOUS
10
-0.155176
20
-1.48922
11
-0.154977
21
-1.48924
0
LINE
8
BLACK
6
CONTINUOUS
10
-0.154977
20
-1.48924
11
-0.154811
21
-1.48926
0
LINE
8
BLACK
6
CONTINUOUS
10
-0.154811
20
-1.48926
11
-0.154608
21
-1.48926
0
LINE
8
BLACK
6
CONTINUOUS
10
-0.154608
20
-1.48926
11
-0.0815433
21
-1.49501
0
LINE
8
BLACK
6
CONTINUOUS
10
-0.0815433
20
-1.49501
11
-0.0813569
21
-1.49504
0
LINE
8
BLACK
6
CONTINUOUS
10
-0.0813569
20
-1.49504
11
-0.0811868
21
-1.49504
0
LINE
8
BLACK
6
CONTINUOUS
10
-0.0811868
20
-1.49504
11
-0.081017
21
-1.49505
0
LINE
8
BLACK
6
CONTINUOUS
10
-0.081017
20
-1.49505
11
-0.0807635
21
-1.49507
0
LINE
8
BLACK
6
CONTINUOUS
10
-0.0807635
20
-1.49507
11
-0.0805598
21
-1.49506
0
LINE
8
BLACK
6
CONTINUOUS
10
-0.0805598
20
-1.49506
11
-0.00753339
21
-1.49697
0
LINE
8
BLACK
6
CONTINUOUS
10
-0.00753339
20
-1.49697
11
-0.00741016
21
-1.49699
0
LINE
8
BLACK
6
CONTINUOUS
10
-0.00741016
20
-1.49699
11
-0.00696138
21
-1.49699
0
LINE
8
BLACK
6
CONTINUOUS
10
-0.00696138
20
-1.49699
11
-0.00688421
21
-1.49699
0
LINE
8
BLACK
6
CONTINUOUS
10
-0.00688421
20
-1.49699
11
-0.00651913
21
-1.497
0
LINE
8
BLACK
6
CONTINUOUS
10
-0.00651913
20
-1.497
11
-0.00639929
21
-1.49699
0
LINE
8
BLACK
6
CONTINUOUS
10
-0.00639929
20
-1.49699
11
0.00901283
21
-1.49699
0
LINE
8
BLACK
6
CONTINUOUS
10
0.00901283
20
-1.49699
11
0.00913264
21
-1.497
0
LINE
8
BLACK
6
CONTINUOUS
10
0.00913264
20
-1.497
11
0.00949776
21
-1.49699
0
LINE
8
BLACK
6
CONTINUOUS
10
0.00949776
20
-1.49699
11
0.00957492
21
-1.49699
0
LINE
8
BLACK
6
CONTINUOUS
10
0.00957492
20
-1.49699
11
0.0101032
21
-1.49699
0
LINE
8
BLACK
6
CONTINUOUS
10
0.0101032
20
-1.49699
11
0.0102291
21
-1.49697
0
LINE
8
BLACK
6
CONTINUOUS
10
0.0102291
20
-1.49697
11
0.0832492
21
-1.49506
0
LINE
8
BLACK
6
CONTINUOUS
10
0.0832492
20
-1.49506
11
0.0834415
21
-1.49507
0
LINE
8
BLACK
6
CONTINUOUS
10
0.0834415
20
-1.49507
11
0.0836306
21
-1.49505
0
LINE
8
BLACK
6
CONTINUOUS
10
0.0836306
20
-1.49505
11
0.0838002
21
-1.49504
0
LINE
8
BLACK
6
CONTINUOUS
10
0.0838002
20
-1.49504
11
0.0840096
21
-1.49504
0
LINE
8
BLACK
6
CONTINUOUS
10
0.0840096
20
-1.49504
11
0.0842031
21
-1.49501
0
LINE
8
BLACK
6
CONTINUOUS
10
0.0842031
20
-1.49501
11
0.157253
21
-1.48926
0
LINE
8
BLACK
6
CONTINUOUS
10
0.157253
20
-1.48926
11
0.157453
21
-1.48926
0
LINE
8
BLACK
6
CONTINUOUS
10
0.157453
20
-1.48926
11
0.157587
21
-1.48924
0
LINE
8
BLACK
6
CONTINUOUS
10
0.157587
20
-1.48924
11
0.157793
21
-1.48922
0
LINE
8
BLACK
6
CONTINUOUS
10
0.157793
20
-1.48922
11
0.157978
21
-1.4892
0
LINE
8
BLACK
6
CONTINUOUS
10
0.157978
20
-1.4892
11
0.158184
21
-1.48916
0
LINE
8
BLACK
6
CONTINUOUS
10
0.158184
20
-1.48916
11
0.230833
21
-1.47959
0
LINE
8
BLACK
6
CONTINUOUS
10
0.230833
20
-1.47959
11
0.231015
21
-1.47958
0
LINE
8
BLACK
6
CONTINUOUS
10
0.231015
20
-1.47958
11
0.23118
21
-1.47955
0
LINE
8
BLACK
6
CONTINUOUS
10
0.23118
20
-1.47955
11
0.231336
21
-1.47953
0
LINE
8
BLACK
6
CONTINUOUS
10
0.231336
20
-1.47953
11
0.231555
21
-1.4795
0
LINE
8
BLACK
6
CONTINUOUS
10
0.231555
20
-1.4795
11
0.23174
21
-1.47945
0
LINE
8
BLACK
6
CONTINUOUS
10
0.23174
20
-1.47945
11
0.303595
21
-1.46613
0
LINE
8
BLACK
6
CONTINUOUS
10
0.303595
20
-1.46613
11
0.303744
21
-1.46612
0
LINE
8
BLACK
6
CONTINUOUS
10
0.303744
20
-1.46612
11
0.304165
21
-1.46603
0
LINE
8
BLACK
6
CONTINUOUS
10
0.304165
20
-1.46603
11
0.304274
21
-1.46601
0
LINE
8
BLACK
6
CONTINUOUS
10
0.304274
20
-1.46601
11
0.304738
21
-1.46593
0
LINE
8
BLACK
6
CONTINUOUS
10
0.304738
20
-1.46593
11
0.304877
21
-1.46588
0
LINE
8
BLACK
6
CONTINUOUS
10
0.304877
20
-1.46588
11
0.319654
21
-1.46274
0
LINE
8
BLACK
6
CONTINUOUS
10
0.319654
20
-1.46274
11
0.319786
21
-1.46272
0
LINE
8
BLACK
6
CONTINUOUS
10
0.319786
20
-1.46272
11
0.320279
21
-1.4626
0
LINE
8
BLACK
6
CONTINUOUS
10
0.320279
20
-1.4626
11
0.320363
21
-1.46258
0
LINE
8
BLACK
6
CONTINUOUS
10
0.320363
20
-1.46258
11
0.320792
21
-1.46249
0
LINE
8
BLACK
6
CONTINUOUS
10
0.320792
20
-1.46249
11
0.320914
21
-1.46245
0
LINE
8
BLACK
6
CONTINUOUS
10
0.320914
20
-1.46245
11
0.392033
21
-1.44538
0
LINE
8
BLACK
6
CONTINUOUS
10
0.392033
20
-1.44538
11
0.392236
21
-1.44534
0
LINE
8
BLACK
6
CONTINUOUS
10
0.392236
20
-1.44534
11
0.392368
21
-1.4453
0
LINE
8
BLACK
6
CONTINUOUS
10
0.392368
20
-1.4453
11
0.392583
21
-1.44525
0
LINE
8
BLACK
6
CONTINUOUS
10
0.392583
20
-1.44525
11
0.392793
21
-1.4452
0
LINE
8
BLACK
6
CONTINUOUS
10
0.392793
20
-1.4452
11
0.393005
21
-1.44511
0
LINE
8
BLACK
6
CONTINUOUS
10
0.393005
20
-1.44511
11
0.463188
21
-1.42432
0
LINE
8
BLACK
6
CONTINUOUS
10
0.463188
20
-1.42432
11
0.463375
21
-1.42428
0
LINE
8
BLACK
6
CONTINUOUS
10
0.463375
20
-1.42428
11
0.463538
21
-1.42422
0
LINE
8
BLACK
6
CONTINUOUS
10
0.463538
20
-1.42422
11
0.463703
21
-1.42417
0
LINE
8
BLACK
6
CONTINUOUS
10
0.463703
20
-1.42417
11
0.463909
21
-1.42411
0
LINE
8
BLACK
6
CONTINUOUS
10
0.463909
20
-1.42411
11
0.464091
21
-1.42403
0
LINE
8
BLACK
6
CONTINUOUS
10
0.464091
20
-1.42403
11
0.53337
21
-1.3995
0
LINE
8
BLACK
6
CONTINUOUS
10
0.53337
20
-1.3995
11
0.533462
21
-1.39947
0
LINE
8
BLACK
6
CONTINUOUS
10
0.533462
20
-1.39947
11
0.533484
21
-1.39946
0
LINE
8
BLACK
6
CONTINUOUS
10
0.533484
20
-1.39946
11
0.533659
21
-1.3994
0
LINE
8
BLACK
6
CONTINUOUS
10
0.533659
20
-1.3994
11
0.533846
21
-1.39933
0
LINE
8
BLACK
6
CONTINUOUS
10
0.533846
20
-1.39933
11
0.534027
21
-1.39924
0
LINE
8
BLACK
6
CONTINUOUS
10
0.534027
20
-1.39924
11
0.601638
21
-1.37123
0
LINE
8
BLACK
6
CONTINUOUS
10
0.601638
20
-1.37123
11
0.601785
21
-1.37119
0
LINE
8
BLACK
6
CONTINUOUS
10
0.601785
20
-1.37119
11
0.602062
21
-1.37106
0
LINE
8
BLACK
6
CONTINUOUS
10
0.602062
20
-1.37106
11
0.602189
21
-1.371
0
LINE
8
BLACK
6
CONTINUOUS
10
0.602189
20
-1.371
11
0.602582
21
-1.37085
0
LINE
8
BLACK
6
CONTINUOUS
10
0.602582
20
-1.37085
11
0.602722
21
-1.37076
0
LINE
8
BLACK
6
CONTINUOUS
10
0.602722
20
-1.37076
11
0.616639
21
-1.36457
0
LINE
8
BLACK
6
CONTINUOUS
10
0.616639
20
-1.36457
11
0.616777
21
-1.36452
0
LINE
8
BLACK
6
CONTINUOUS
10
0.616777
20
-1.36452
11
0.617105
21
-1.36436
0
LINE
8
BLACK
6
CONTINUOUS
10
0.617105
20
-1.36436
11
0.61722
21
-1.36431
0
LINE
8
BLACK
6
CONTINUOUS
10
0.61722
20
-1.36431
11
0.617619
21
-1.36414
0
LINE
8
BLACK
6
CONTINUOUS
10
0.617619
20
-1.36414
11
0.617757
21
-1.36405
0
LINE
8
BLACK
6
CONTINUOUS
10
0.617757
20
-1.36405
11
0.683713
21
-1.33259
0
LINE
8
BLACK
6
CONTINUOUS
10
0.683713
20
-1.33259
11
0.683905
21
-1.33252
0
LINE
8
BLACK
6
CONTINUOUS
10
0.683905
20
-1.33252
11
0.684046
21
-1.33244
0
LINE
8
BLACK
6
CONTINUOUS
10
0.684046
20
-1.33244
11
0.684234
21
-1.33235
0
LINE
8
BLACK
6
CONTINUOUS
10
0.684234
20
-1.33235
11
0.684341
21
-1.3323
0
LINE
8
BLACK
6
CONTINUOUS
10
0.684341
20
-1.3323
11
0.684508
21
-1.33219
0
LINE
8
BLACK
6
CONTINUOUS
10
0.684508
20
-1.33219
11
0.748964
21
-1.29719
0
LINE
8
BLACK
6
CONTINUOUS
10
0.748964
20
-1.29719
11
0.749145
21
-1.29711
0
LINE
8
BLACK
6
CONTINUOUS
10
0.749145
20
-1.29711
11
0.749262
21
-1.29704
0
LINE
8
BLACK
6
CONTINUOUS
10
0.749262
20
-1.29704
11
0.749438
21
-1.29694
0
LINE
8
BLACK
6
CONTINUOUS
10
0.749438
20
-1.29694
11
0.7496
21
-1.29685
0
LINE
8
BLACK
6
CONTINUOUS
10
0.7496
20
-1.29685
11
0.749767
21
-1.29673
0
LINE
8
BLACK
6
CONTINUOUS
10
0.749767
20
-1.29673
11
0.812173
21
-1.25848
0
LINE
8
BLACK
6
CONTINUOUS
10
0.812173
20
-1.25848
11
0.812358
21
-1.25839
0
LINE
8
BLACK
6
CONTINUOUS
10
0.812358
20
-1.25839
11
0.812541
21
-1.25827
0
LINE
8
BLACK
6
CONTINUOUS
10
0.812541
20
-1.25827
11
0.812695
21
-1.25817
0
LINE
8
BLACK
6
CONTINUOUS
10
0.812695
20
-1.25817
11
0.812879
21
-1.25805
0
LINE
8
BLACK
6
CONTINUOUS
10
0.812879
20
-1.25805
11
0.813037
21
-1.25792
0
LINE
8
BLACK
6
CONTINUOUS
10
0.813037
20
-1.25792
11
0.873341
21
-1.21648
0
LINE
8
BLACK
6
CONTINUOUS
10
0.873341
20
-1.21648
11
0.873461
21
-1.21641
0
LINE
8
BLACK
6
CONTINUOUS
10
0.873461
20
-1.21641
11
0.873722
21
-1.21622
0
LINE
8
BLACK
6
CONTINUOUS
10
0.873722
20
-1.21622
11
0.873821
21
-1.21615
0
LINE
8
BLACK
6
CONTINUOUS
10
0.873821
20
-1.21615
11
0.874182
21
-1.21591
0
LINE
8
BLACK
6
CONTINUOUS
10
0.874182
20
-1.21591
11
0.874301
21
-1.2158
0
LINE
8
BLACK
6
CONTINUOUS
10
0.874301
20
-1.2158
11
0.886663
21
-1.20682
0
LINE
8
BLACK
6
CONTINUOUS
10
0.886663
20
-1.20682
11
0.886777
21
-1.20675
0
LINE
8
BLACK
6
CONTINUOUS
10
0.886777
20
-1.20675
11
0.887046
21
-1.20654
0
LINE
8
BLACK
6
CONTINUOUS
10
0.887046
20
-1.20654
11
0.887129
21
-1.20648
0
LINE
8
BLACK
6
CONTINUOUS
10
0.887129
20
-1.20648
11
0.887573
21
-1.20616
0
LINE
8
BLACK
6
CONTINUOUS
10
0.887573
20
-1.20616
11
0.887679
21
-1.20605
0
LINE
8
BLACK
6
CONTINUOUS
10
0.887679
20
-1.20605
11
0.945579
21
-1.16162
0
LINE
8
BLACK
6
CONTINUOUS
10
0.945579
20
-1.16162
11
0.945742
21
-1.16152
0
LINE
8
BLACK
6
CONTINUOUS
10
0.945742
20
-1.16152
11
0.945892
21
-1.16139
0
LINE
8
BLACK
6
CONTINUOUS
10
0.945892
20
-1.16139
11
0.946026
21
-1.16128
0
LINE
8
BLACK
6
CONTINUOUS
10
0.946026
20
-1.16128
11
0.946169
21
-1.16117
0
LINE
8
BLACK
6
CONTINUOUS
10
0.946169
20
-1.16117
11
0.946305
21
-1.16104
0
LINE
8
BLACK
6
CONTINUOUS
10
0.946305
20
-1.16104
11
1.00198
21
-1.11349
0
LINE
8
BLACK
6
CONTINUOUS
10
1.00198
20
-1.11349
11
1.00215
21
-1.11337
0
LINE
8
BLACK
6
CONTINUOUS
10
1.00215
20
-1.11337
11
1.00232
21
-1.1132
0
LINE
8
BLACK
6
CONTINUOUS
10
1.00232
20
-1.1132
11
1.00245
21
-1.11309
0
LINE
8
BLACK
6
CONTINUOUS
10
1.00245
20
-1.11309
11
1.0026
21
-1.11296
0
LINE
8
BLACK
6
CONTINUOUS
10
1.0026
20
-1.11296
11
1.00273
21
-1.11281
0
LINE
8
BLACK
6
CONTINUOUS
10
1.00273
20
-1.11281
11
1.05586
21
-1.0624
0
LINE
8
BLACK
6
CONTINUOUS
10
1.05586
20
-1.0624
11
1.05603
21
-1.06226
0
LINE
8
BLACK
6
CONTINUOUS
10
1.05603
20
-1.06226
11
1.05612
21
-1.06215
0
LINE
8
BLACK
6
CONTINUOUS
10
1.05612
20
-1.06215
11
1.0563
21
-1.06198
0
LINE
8
BLACK
6
CONTINUOUS
10
1.0563
20
-1.06198
11
1.0564
21
-1.06189
0
LINE
8
BLACK
6
CONTINUOUS
10
1.0564
20
-1.06189
11
1.05654
21
-1.06172
0
LINE
8
BLACK
6
CONTINUOUS
10
1.05654
20
-1.06172
11
1.10682
21
-1.00873
0
LINE
8
BLACK
6
CONTINUOUS
10
1.10682
20
-1.00873
11
1.10693
21
-1.00864
0
LINE
8
BLACK
6
CONTINUOUS
10
1.10693
20
-1.00864
11
1.10725
21
-1.00828
0
LINE
8
BLACK
6
CONTINUOUS
10
1.10725
20
-1.00828
11
1.10732
21
-1.0082
0
LINE
8
BLACK
6
CONTINUOUS
10
1.10732
20
-1.0082
11
1.10762
21
-1.00789
0
LINE
8
BLACK
6
CONTINUOUS
10
1.10762
20
-1.00789
11
1.1077
21
-1.00777
0
LINE
8
BLACK
6
CONTINUOUS
10
1.1077
20
-1.00777
11
1.11781
21
-0.996547
0
LINE
8
BLACK
6
CONTINUOUS
10
1.11781
20
-0.996547
11
1.11791
21
-0.996462
0
LINE
8
BLACK
6
CONTINUOUS
10
1.11791
20
-0.996462
11
1.11827
21
-0.996039
0
LINE
8
BLACK
6
CONTINUOUS
10
1.11827
20
-0.996039
11
1.11832
21
-0.995978
0
LINE
8
BLACK
6
CONTINUOUS
10
1.11832
20
-0.995978
11
1.11861
21
-0.995659
0
LINE
8
BLACK
6
CONTINUOUS
10
1.11861
20
-0.995659
11
1.11868
21
-0.995556
0
LINE
8
BLACK
6
CONTINUOUS
10
1.11868
20
-0.995556
11
1.16619
21
-0.939931
0
LINE
8
BLACK
6
CONTINUOUS
10
1.16619
20
-0.939931
11
1.16633
21
-0.939795
0
LINE
8
BLACK
6
CONTINUOUS
10
1.16633
20
-0.939795
11
1.16644
21
-0.939652
0
LINE
8
BLACK
6
CONTINUOUS
10
1.16644
20
-0.939652
11
1.16655
21
-0.939518
0
LINE
8
BLACK
6
CONTINUOUS
10
1.16655
20
-0.939518
11
1.16667
21
-0.939369
0
LINE
8
BLACK
6
CONTINUOUS
10
1.16667
20
-0.939369
11
1.16678
21
-0.939205
0
LINE
8
BLACK
6
CONTINUOUS
10
1.16678
20
-0.939205
11
1.18041
21
-0.921438
0
LINE
8
BLACK
6
CONTINUOUS
10
1.18041
20
-0.921438
11
1.18041
21
-0.921438
0
LINE
8
BLACK
6
CONTINUOUS
10
1.18041
20
-0.921438
11
1.18098
21
-0.920708
0
LINE
8
BLACK
6
CONTINUOUS
10
1.18098
20
-0.920708
11
1.18098
21
-0.920704
0
LINE
8
BLACK
6
CONTINUOUS
10
1.18098
20
-0.920704
11
1.18181
21
-0.919625
0
LINE
8
BLACK
6
CONTINUOUS
10
1.18181
20
-0.919625
11
1.18181
21
-0.919625
0
LINE
8
BLACK
6
CONTINUOUS
10
1.18181
20
-0.919625
11
1.18599
21
-0.914166
0
LINE
8
BLACK
6
CONTINUOUS
10
1.18599
20
-0.914166
11
1.18599
21
-0.914166
0
LINE
8
BLACK
6
CONTINUOUS
10
1.18599
20
-0.914166
11
1.19295
21
-0.905095
0
LINE
8
BLACK
6
CONTINUOUS
10
1.19295
20
-0.905095
11
1.19295
21
-0.905095
0
LINE
8
BLACK
6
CONTINUOUS
10
1.19295
20
-0.905095
11
1.19354
21
-0.904328
0
LINE
8
BLACK
6
CONTINUOUS
10
1.19354
20
-0.904328
11
1.19354
21
-0.904327
0
LINE
8
BLACK
6
CONTINUOUS
10
1.19354
20
-0.904327
11
1.20267
21
-0.89243
0
LINE
8
BLACK
6
CONTINUOUS
10
1.20267
20
-0.89243
11
1.20267
21
-0.89243
0
LINE
8
BLACK
6
CONTINUOUS
10
1.20267
20
-0.89243
11
1.20792
21
-0.885588
0
LINE
8
BLACK
6
CONTINUOUS
10
1.20792
20
-0.885588
11
1.21137
21
-0.88109
0
LINE
8
BLACK
6
CONTINUOUS
10
1.21137
20
-0.88109
11
1.21152
21
-0.88093
0
LINE
8
BLACK
6
CONTINUOUS
10
1.21152
20
-0.88093
11
1.21159
21
-0.880812
0
LINE
8
BLACK
6
CONTINUOUS
10
1.21159
20
-0.880812
11
1.21174
21
-0.880618
0
LINE
8
BLACK
6
CONTINUOUS
10
1.21174
20
-0.880618
11
1.21181
21
-0.880518
0
LINE
8
BLACK
6
CONTINUOUS
10
1.21181
20
-0.880518
11
1.21192
21
-0.880334
0
LINE
8
BLACK
6
CONTINUOUS
10
1.21192
20
-0.880334
11
1.2147
21
-0.876295
0
LINE
8
BLACK
6
CONTINUOUS
10
1.2147
20
-0.876295
11
1.2147
21
-0.876295
0
LINE
8
BLACK
6
CONTINUOUS
10
1.2147
20
-0.876295
11
1.21668
21
-0.873409
0
LINE
8
BLACK
6
CONTINUOUS
10
1.21668
20
-0.873409
11
1.2167
21
-0.873377
0
LINE
8
BLACK
6
CONTINUOUS
10
1.2167
20
-0.873377
11
1.22799
21
-0.856952
0
LINE
8
BLACK
6
CONTINUOUS
10
1.22799
20
-0.856952
11
1.22799
21
-0.856952
0
LINE
8
BLACK
6
CONTINUOUS
10
1.22799
20
-0.856952
11
1.22998
21
-0.854062
0
LINE
8
BLACK
6
CONTINUOUS
10
1.22998
20
-0.854062
11
1.23
21
-0.854036
0
LINE
8
BLACK
6
CONTINUOUS
10
1.23
20
-0.854036
11
1.233
21
-0.849666
0
LINE
8
BLACK
6
CONTINUOUS
10
1.233
20
-0.849666
11
1.23309
21
-0.849554
0
LINE
8
BLACK
6
CONTINUOUS
10
1.23309
20
-0.849554
11
1.23314
21
-0.849477
0
LINE
8
BLACK
6
CONTINUOUS
10
1.23314
20
-0.849477
11
1.2332
21
-0.849347
0
LINE
8
BLACK
6
CONTINUOUS
10
1.2332
20
-0.849347
11
1.24107
21
-0.835718
0
LINE
8
BLACK
6
CONTINUOUS
10
1.24107
20
-0.835718
11
1.24114
21
-0.835631
0
LINE
8
BLACK
6
CONTINUOUS
10
1.24114
20
-0.835631
11
1.24132
21
-0.835291
0
LINE
8
BLACK
6
CONTINUOUS
10
1.24132
20
-0.835291
11
1.24135
21
-0.835246
0
LINE
8
BLACK
6
CONTINUOUS
10
1.24135
20
-0.835246
11
1.24136
21
-0.835205
0
LINE
8
BLACK
6
CONTINUOUS
10
1.24136
20
-0.835205
11
1.24151
21
-0.834774
0
LINE
8
BLACK
6
CONTINUOUS
10
1.24151
20
-0.834774
11
1.24153
21
-0.834689
0
LINE
8
BLACK
6
CONTINUOUS
10
1.24153
20
-0.834689
11
1.24626
21
-0.820121
0
LINE
8
BLACK
6
CONTINUOUS
10
1.24626
20
-0.820121
11
1.2463
21
-0.820032
0
LINE
8
BLACK
6
CONTINUOUS
10
1.2463
20
-0.820032
11
1.24642
21
-0.819631
0
LINE
8
BLACK
6
CONTINUOUS
10
1.24642
20
-0.819631
11
1.24644
21
-0.819581
0
LINE
8
BLACK
6
CONTINUOUS
10
1.24644
20
-0.819581
11
1.24644
21
-0.819525
0
LINE
8
BLACK
6
CONTINUOUS
10
1.24644
20
-0.819525
11
1.24649
21
-0.819173
0
LINE
8
BLACK
6
CONTINUOUS
10
1.24649
20
-0.819173
11
1.24649
21
-0.819052
0
LINE
8
BLACK
6
CONTINUOUS
10
1.24649
20
-0.819052
11
1.24809
21
-0.803812
0
LINE
8
BLACK
6
CONTINUOUS
10
1.24809
20
-0.803812
11
1.2481
21
-0.803792
0
LINE
8
BLACK
6
CONTINUOUS
10
1.2481
20
-0.803792
11
1.24816
21
-0.80321
0
LINE
8
BLACK
6
CONTINUOUS
10
1.24816
20
-0.80321
11
1.24816
21
-0.80321
0
LINE
8
BLACK
6
CONTINUOUS
10
1.24816
20
-0.80321
11
1.24816
21
-0.80321
0
LINE
8
BLACK
6
CONTINUOUS
10
1.24816
20
-0.80321
11
1.24816
21
-0.803208
0
LINE
8
BLACK
6
CONTINUOUS
10
1.24816
20
-0.803208
11
1.24816
21
-0.803206
0
LINE
8
BLACK
6
CONTINUOUS
10
1.24816
20
-0.803206
11
1.24816
21
-0.803206
0
LINE
8
BLACK
6
CONTINUOUS
10
1.24816
20
-0.803206
11
1.24816
21
-0.803206
0
LINE
8
BLACK
6
CONTINUOUS
10
1.24816
20
-0.803206
11
1.24811
21
-0.802668
0
LINE
8
BLACK
6
CONTINUOUS
10
1.24811
20
-0.802668
11
1.2481
21
-0.802621
0
LINE
8
BLACK
6
CONTINUOUS
10
1.2481
20
-0.802621
11
1.24649
21
-0.787368
0
LINE
8
BLACK
6
CONTINUOUS
10
1.24649
20
-0.787368
11
1.24649
21
-0.787264
0
LINE
8
BLACK
6
CONTINUOUS
10
1.24649
20
-0.787264
11
1.24644
21
-0.786881
0
LINE
8
BLACK
6
CONTINUOUS
10
1.24644
20
-0.786881
11
1.24644
21
-0.786834
0
LINE
8
BLACK
6
CONTINUOUS
10
1.24644
20
-0.786834
11
1.24642
21
-0.786791
0
LINE
8
BLACK
6
CONTINUOUS
10
1.24642
20
-0.786791
11
1.24631
21
-0.786422
0
LINE
8
BLACK
6
CONTINUOUS
10
1.24631
20
-0.786422
11
1.24627
21
-0.78632
0
LINE
8
BLACK
6
CONTINUOUS
10
1.24627
20
-0.78632
11
1.24153
21
-0.771721
0
LINE
8
BLACK
6
CONTINUOUS
10
1.24153
20
-0.771721
11
1.24151
21
-0.771656
0
LINE
8
BLACK
6
CONTINUOUS
10
1.24151
20
-0.771656
11
1.24136
21
-0.771193
0
LINE
8
BLACK
6
CONTINUOUS
10
1.24136
20
-0.771193
11
1.24135
21
-0.77117
0
LINE
8
BLACK
6
CONTINUOUS
10
1.24135
20
-0.77117
11
1.24133
21
-0.771138
0
LINE
8
BLACK
6
CONTINUOUS
10
1.24133
20
-0.771138
11
1.24116
21
-0.770823
0
LINE
8
BLACK
6
CONTINUOUS
10
1.24116
20
-0.770823
11
1.24109
21
-0.770728
0
LINE
8
BLACK
6
CONTINUOUS
10
1.24109
20
-0.770728
11
1.2334
21
-0.757402
0
LINE
8
BLACK
6
CONTINUOUS
10
1.2334
20
-0.757402
11
1.23338
21
-0.757363
0
LINE
8
BLACK
6
CONTINUOUS
10
1.23338
20
-0.757363
11
1.23312
21
-0.756915
0
LINE
8
BLACK
6
CONTINUOUS
10
1.23312
20
-0.756915
11
1.23311
21
-0.756915
0
LINE
8
BLACK
6
CONTINUOUS
10
1.23311
20
-0.756915
11
1.23311
21
-0.756914
0
LINE
8
BLACK
6
CONTINUOUS
10
1.23311
20
-0.756914
11
1.23311
21
-0.756913
0
LINE
8
BLACK
6
CONTINUOUS
10
1.23311
20
-0.756913
11
1.23283
21
-0.756587
0
LINE
8
BLACK
6
CONTINUOUS
10
1.23283
20
-0.756587
11
1.23277
21
-0.756528
0
LINE
8
BLACK
6
CONTINUOUS
10
1.23277
20
-0.756528
11
1.2272
21
-0.750351
0
LINE
8
BLACK
6
CONTINUOUS
10
1.2272
20
-0.750351
11
1.22246
21
-0.745088
0
LINE
8
BLACK
6
CONTINUOUS
10
1.22246
20
-0.745088
11
1.22242
21
-0.745026
0
LINE
8
BLACK
6
CONTINUOUS
10
1.22242
20
-0.745026
11
1.22211
21
-0.744693
0
LINE
8
BLACK
6
CONTINUOUS
10
1.22211
20
-0.744693
11
1.2221
21
-0.744677
0
LINE
8
BLACK
6
CONTINUOUS
10
1.2221
20
-0.744677
11
1.22207
21
-0.744659
0
LINE
8
BLACK
6
CONTINUOUS
10
1.22207
20
-0.744659
11
1.22178
21
-0.744434
0
LINE
8
BLACK
6
CONTINUOUS
10
1.22178
20
-0.744434
11
1.22168
21
-0.744376
0
LINE
8
BLACK
6
CONTINUOUS
10
1.22168
20
-0.744376
11
1.20922
21
-0.735323
0
LINE
8
BLACK
6
CONTINUOUS
10
1.20922
20
-0.735323
11
1.20912
21
-0.735233
0
LINE
8
BLACK
6
CONTINUOUS
10
1.20912
20
-0.735233
11
1.20882
21
-0.735027
0
LINE
8
BLACK
6
CONTINUOUS
10
1.20882
20
-0.735027
11
1.20874
21
-0.73497
0
LINE
8
BLACK
6
CONTINUOUS
10
1.20874
20
-0.73497
11
1.20849
21
-0.73479
0
LINE
8
BLACK
6
CONTINUOUS
10
1.20849
20
-0.73479
11
1.20838
21
-0.734725
0
LINE
8
BLACK
6
CONTINUOUS
10
1.20838
20
-0.734725
11
1.19546
21
-0.725857
0
LINE
8
BLACK
6
CONTINUOUS
10
1.19546
20
-0.725857
11
1.19546
21
-0.725857
0
LINE
8
BLACK
6
CONTINUOUS
10
1.19546
20
-0.725857
11
1.18153
21
-0.716295
0
LINE
8
BLACK
6
CONTINUOUS
10
1.18153
20
-0.716295
11
1.1695
21
-0.70804
0
LINE
8
BLACK
6
CONTINUOUS
10
1.1695
20
-0.70804
11
1.1695
21
-0.70804
0
LINE
8
BLACK
6
CONTINUOUS
10
1.1695
20
-0.70804
11
1.15912
21
-0.700912
0
LINE
8
BLACK
6
CONTINUOUS
10
1.15912
20
-0.700912
11
1.14166
21
-0.688926
0
LINE
8
BLACK
6
CONTINUOUS
10
1.14166
20
-0.688926
11
1.11198
21
-0.668554
0
LINE
8
BLACK
6
CONTINUOUS
10
1.11198
20
-0.668554
11
1.11198
21
-0.668554
0
LINE
8
BLACK
6
CONTINUOUS
10
1.11198
20
-0.668554
11
1.07764
21
-0.644976
0
LINE
8
BLACK
6
CONTINUOUS
10
1.07764
20
-0.644976
11
1.04154
21
-0.6202
0
LINE
8
BLACK
6
CONTINUOUS
10
1.04154
20
-0.6202
11
1.04035
21
-0.619379
0
LINE
8
BLACK
6
CONTINUOUS
10
1.04035
20
-0.619379
11
1.00097
21
-0.592344
0
LINE
8
BLACK
6
CONTINUOUS
10
1.00097
20
-0.592344
11
1.00097
21
-0.592344
0
LINE
8
BLACK
6
CONTINUOUS
10
1.00097
20
-0.592344
11
0.958948
21
-0.563497
0
LINE
8
BLACK
6
CONTINUOUS
10
0.958948
20
-0.563497
11
0.958948
21
-0.563497
0
LINE
8
BLACK
6
CONTINUOUS
10
0.958948
20
-0.563497
11
0.948047
21
-0.556014
0
LINE
8
BLACK
6
CONTINUOUS
10
0.948047
20
-0.556014
11
0.936264
21
-0.547925
0
LINE
8
BLACK
6
CONTINUOUS
10
0.936264
20
-0.547925
11
0.936222
21
-0.547895
0
LINE
8
BLACK
6
CONTINUOUS
10
0.936222
20
-0.547895
11
0.936051
21
-0.547819
0
LINE
8
BLACK
6
CONTINUOUS
10
0.936051
20
-0.547819
11
0.921681
21
-0.541425
0
LINE
8
BLACK
6
CONTINUOUS
10
0.921681
20
-0.541425
11
0.921654
21
-0.54141
0
LINE
8
BLACK
6
CONTINUOUS
10
0.921654
20
-0.54141
11
0.921181
21
-0.541202
0
LINE
8
BLACK
6
CONTINUOUS
10
0.921181
20
-0.541202
11
0.921181
21
-0.541202
0
LINE
8
BLACK
6
CONTINUOUS
10
0.921181
20
-0.541202
11
0.921181
21
-0.541202
0
LINE
8
BLACK
6
CONTINUOUS
10
0.921181
20
-0.541202
11
0.921179
21
-0.541201
0
LINE
8
BLACK
6
CONTINUOUS
10
0.921179
20
-0.541201
11
0.920737
21
-0.541101
0
LINE
8
BLACK
6
CONTINUOUS
10
0.920737
20
-0.541101
11
0.920673
21
-0.541094
0
LINE
8
BLACK
6
CONTINUOUS
10
0.920673
20
-0.541094
11
0.905561
21
-0.537878
0
LINE
8
BLACK
6
CONTINUOUS
10
0.905561
20
-0.537878
11
0.905462
21
-0.537848
0
LINE
8
BLACK
6
CONTINUOUS
10
0.905462
20
-0.537848
11
0.905092
21
-0.537778
0
LINE
8
BLACK
6
CONTINUOUS
10
0.905092
20
-0.537778
11
0.905077
21
-0.537775
0
LINE
8
BLACK
6
CONTINUOUS
10
0.905077
20
-0.537775
11
0.904606
21
-0.537768
0
LINE
8
BLACK
6
CONTINUOUS
10
0.904606
20
-0.537768
11
0.904534
21
-0.537775
0
LINE
8
BLACK
6
CONTINUOUS
10
0.904534
20
-0.537775
11
0.88915
21
-0.537775
0
LINE
8
BLACK
6
CONTINUOUS
10
0.88915
20
-0.537775
11
0.889078
21
-0.537768
0
LINE
8
BLACK
6
CONTINUOUS
10
0.889078
20
-0.537768
11
0.888606
21
-0.537775
0
LINE
8
BLACK
6
CONTINUOUS
10
0.888606
20
-0.537775
11
0.888585
21
-0.537779
0
LINE
8
BLACK
6
CONTINUOUS
10
0.888585
20
-0.537779
11
0.888253
21
-0.537841
0
LINE
8
BLACK
6
CONTINUOUS
10
0.888253
20
-0.537841
11
0.888143
21
-0.537874
0
LINE
8
BLACK
6
CONTINUOUS
10
0.888143
20
-0.537874
11
0.873007
21
-0.541094
0
LINE
8
BLACK
6
CONTINUOUS
10
0.873007
20
-0.541094
11
0.872959
21
-0.5411
0
LINE
8
BLACK
6
CONTINUOUS
10
0.872959
20
-0.5411
11
0.872505
21
-0.541201
0
LINE
8
BLACK
6
CONTINUOUS
10
0.872505
20
-0.541201
11
0.872073
21
-0.541389
0
LINE
8
BLACK
6
CONTINUOUS
10
0.872073
20
-0.541389
11
0.872032
21
-0.541412
0
LINE
8
BLACK
6
CONTINUOUS
10
0.872032
20
-0.541412
11
0.857907
21
-0.547698
0
LINE
8
BLACK
6
CONTINUOUS
10
0.857907
20
-0.547698
11
0.857834
21
-0.547723
0
LINE
8
BLACK
6
CONTINUOUS
10
0.857834
20
-0.547723
11
0.857462
21
-0.547895
0
LINE
8
BLACK
6
CONTINUOUS
10
0.857462
20
-0.547895
11
0.857102
21
-0.54815
0
LINE
8
BLACK
6
CONTINUOUS
10
0.857102
20
-0.54815
11
0.857054
21
-0.548192
0
LINE
8
BLACK
6
CONTINUOUS
10
0.857054
20
-0.548192
11
0.844535
21
-0.557288
0
LINE
8
BLACK
6
CONTINUOUS
10
0.844535
20
-0.557288
11
0.844453
21
-0.557338
0
LINE
8
BLACK
6
CONTINUOUS
10
0.844453
20
-0.557338
11
0.84414
21
-0.557575
0
LINE
8
BLACK
6
CONTINUOUS
10
0.84414
20
-0.557575
11
0.843853
21
-0.557884
0
LINE
8
BLACK
6
CONTINUOUS
10
0.843853
20
-0.557884
11
0.843802
21
-0.557951
0
LINE
8
BLACK
6
CONTINUOUS
10
0.843802
20
-0.557951
11
0.833185
21
-0.569744
0
LINE
8
BLACK
6
CONTINUOUS
10
0.833185
20
-0.569744
11
0.833125
21
-0.569807
0
LINE
8
BLACK
6
CONTINUOUS
10
0.833125
20
-0.569807
11
0.833078
21
-0.56988
0
LINE
8
BLACK
6
CONTINUOUS
10
0.833078
20
-0.56988
11
0.81672
21
-0.593677
0
LINE
8
BLACK
6
CONTINUOUS
10
0.81672
20
-0.593677
11
0.81663
21
-0.593801
0
LINE
8
BLACK
6
CONTINUOUS
10
0.81663
20
-0.593801
11
0.782094
21
-0.638812
0
LINE
8
BLACK
6
CONTINUOUS
10
0.782094
20
-0.638812
11
0.781997
21
-0.638932
0
LINE
8
BLACK
6
CONTINUOUS
10
0.781997
20
-0.638932
11
0.7505
21
-0.675809
0
LINE
8
BLACK
6
CONTINUOUS
10
0.7505
20
-0.675809
11
0.750398
21
-0.675923
0
LINE
8
BLACK
6
CONTINUOUS
10
0.750398
20
-0.675923
11
0.717011
21
-0.711107
0
LINE
8
BLACK
6
CONTINUOUS
10
0.717011
20
-0.711107
11
0.716902
21
-0.711216
0
LINE
8
BLACK
6
CONTINUOUS
10
0.716902
20
-0.711216
11
0.675746
21
-0.750267
0
LINE
8
BLACK
6
CONTINUOUS
10
0.675746
20
-0.750267
11
0.675632
21
-0.750369
0
LINE
8
BLACK
6
CONTINUOUS
10
0.675632
20
-0.750369
11
0.632494
21
-0.787214
0
LINE
8
BLACK
6
CONTINUOUS
10
0.632494
20
-0.787214
11
0.632375
21
-0.78731
0
LINE
8
BLACK
6
CONTINUOUS
10
0.632375
20
-0.78731
11
0.593896
21
-0.816838
0
LINE
8
BLACK
6
CONTINUOUS
10
0.593896
20
-0.816838
11
0.593771
21
-0.816928
0
LINE
8
BLACK
6
CONTINUOUS
10
0.593771
20
-0.816928
11
0.553799
21
-0.8444
0
LINE
8
BLACK
6
CONTINUOUS
10
0.553799
20
-0.8444
11
0.553671
21
-0.844484
0
LINE
8
BLACK
6
CONTINUOUS
10
0.553671
20
-0.844484
11
0.529574
21
-0.859249
0
LINE
8
BLACK
6
CONTINUOUS
10
0.529574
20
-0.859249
11
0.5053
21
-0.874123
0
LINE
8
BLACK
6
CONTINUOUS
10
0.5053
20
-0.874123
11
0.505167
21
-0.8742
0
LINE
8
BLACK
6
CONTINUOUS
10
0.505167
20
-0.8742
11
0.455306
21
-0.901272
0
LINE
8
BLACK
6
CONTINUOUS
10
0.455306
20
-0.901272
11
0.455169
21
-0.901342
0
LINE
8
BLACK
6
CONTINUOUS
10
0.455169
20
-0.901342
11
0.431966
21
-0.912411
0
LINE
8
BLACK
6
CONTINUOUS
10
0.431966
20
-0.912411
11
0.411395
21
-0.922224
0
LINE
8
BLACK
6
CONTINUOUS
10
0.411395
20
-0.922224
11
0.411255
21
-0.922286
0
LINE
8
BLACK
6
CONTINUOUS
10
0.411255
20
-0.922286
11
0.366446
21
-0.940846
0
LINE
8
BLACK
6
CONTINUOUS
10
0.366446
20
-0.940846
11
0.366302
21
-0.940901
0
LINE
8
BLACK
6
CONTINUOUS
10
0.366302
20
-0.940901
11
0.312824
21
-0.959837
0
LINE
8
BLACK
6
CONTINUOUS
10
0.312824
20
-0.959837
11
0.312678
21
-0.959884
0
LINE
8
BLACK
6
CONTINUOUS
10
0.312678
20
-0.959884
11
0.258279
21
-0.975998
0
LINE
8
BLACK
6
CONTINUOUS
10
0.258279
20
-0.975998
11
0.258131
21
-0.976038
0
LINE
8
BLACK
6
CONTINUOUS
10
0.258131
20
-0.976038
11
0.224691
21
-0.984066
0
LINE
8
BLACK
6
CONTINUOUS
10
0.224691
20
-0.984066
11
0.210971
21
-0.98736
0
LINE
8
BLACK
6
CONTINUOUS
10
0.210971
20
-0.98736
11
0.210821
21
-0.987392
0
LINE
8
BLACK
6
CONTINUOUS
10
0.210821
20
-0.987392
11
0.163132
21
-0.996234
0
LINE
8
BLACK
6
CONTINUOUS
10
0.163132
20
-0.996234
11
0.16298
21
-0.996258
0
LINE
8
BLACK
6
CONTINUOUS
10
0.16298
20
-0.996258
11
0.106732
21
-1.00366
0
LINE
8
BLACK
6
CONTINUOUS
10
0.106732
20
-1.00366
11
0.106579
21
-1.00368
0
LINE
8
BLACK
6
CONTINUOUS
10
0.106579
20
-1.00368
11
0.0500206
21
-1.00813
0
LINE
8
BLACK
6
CONTINUOUS
10
0.0500206
20
-1.00813
11
0.0498674
21
-1.00814
0
LINE
8
BLACK
6
CONTINUOUS
10
0.0498674
20
-1.00814
11
0.00138394
21
-1.00941
0
LINE
8
BLACK
6
CONTINUOUS
10
0.00138394
20
-1.00941
11
0.00123008
21
-1.00941
0
LINE
8
BLACK
6
CONTINUOUS
10
0.00123008
20
-1.00941
11
-0.0472541
21
-1.00814
0
LINE
8
BLACK
6
CONTINUOUS
10
-0.0472541
20
-1.00814
11
-0.0474072
21
-1.00813
0
LINE
8
BLACK
6
CONTINUOUS
10
-0.0474072
20
-1.00813
11
-0.103548
21
-1.00371
0
LINE
8
BLACK
6
CONTINUOUS
10
-0.103548
20
-1.00371
11
-0.103966
21
-1.00368
0
LINE
8
BLACK
6
CONTINUOUS
10
-0.103966
20
-1.00368
11
-0.104119
21
-1.00366
0
LINE
8
BLACK
6
CONTINUOUS
10
-0.104119
20
-1.00366
11
-0.115545
21
-1.00216
0
LINE
8
BLACK
6
CONTINUOUS
10
-0.115545
20
-1.00216
11
-0.160367
21
-0.996258
0
LINE
8
BLACK
6
CONTINUOUS
10
-0.160367
20
-0.996258
11
-0.160519
21
-0.996234
0
LINE
8
BLACK
6
CONTINUOUS
10
-0.160519
20
-0.996234
11
-0.208208
21
-0.987392
0
LINE
8
BLACK
6
CONTINUOUS
10
-0.208208
20
-0.987392
11
-0.208358
21
-0.98736
0
LINE
8
BLACK
6
CONTINUOUS
10
-0.208358
20
-0.98736
11
-0.255518
21
-0.976038
0
LINE
8
BLACK
6
CONTINUOUS
10
-0.255518
20
-0.976038
11
-0.255666
21
-0.975998
0
LINE
8
BLACK
6
CONTINUOUS
10
-0.255666
20
-0.975998
11
-0.310064
21
-0.959884
0
LINE
8
BLACK
6
CONTINUOUS
10
-0.310064
20
-0.959884
11
-0.31021
21
-0.959837
0
LINE
8
BLACK
6
CONTINUOUS
10
-0.31021
20
-0.959837
11
-0.363689
21
-0.940901
0
LINE
8
BLACK
6
CONTINUOUS
10
-0.363689
20
-0.940901
11
-0.363832
21
-0.940846
0
LINE
8
BLACK
6
CONTINUOUS
10
-0.363832
20
-0.940846
11
-0.408642
21
-0.922286
0
LINE
8
BLACK
6
CONTINUOUS
10
-0.408642
20
-0.922286
11
-0.408782
21
-0.922224
0
LINE
8
BLACK
6
CONTINUOUS
10
-0.408782
20
-0.922224
11
-0.452557
21
-0.901341
0
LINE
8
BLACK
6
CONTINUOUS
10
-0.452557
20
-0.901341
11
-0.452692
21
-0.901272
0
LINE
8
BLACK
6
CONTINUOUS
10
-0.452692
20
-0.901272
11
-0.502554
21
-0.8742
0
LINE
8
BLACK
6
CONTINUOUS
10
-0.502554
20
-0.8742
11
-0.502687
21
-0.874123
0
LINE
8
BLACK
6
CONTINUOUS
10
-0.502687
20
-0.874123
11
-0.527289
21
-0.859048
0
LINE
8
BLACK
6
CONTINUOUS
10
-0.527289
20
-0.859048
11
-0.527373
21
-0.858992
0
LINE
8
BLACK
6
CONTINUOUS
10
-0.527373
20
-0.858992
11
-0.527464
21
-0.858955
0
LINE
8
BLACK
6
CONTINUOUS
10
-0.527464
20
-0.858955
11
-0.538517
21
-0.854033
0
LINE
8
BLACK
6
CONTINUOUS
10
-0.538517
20
-0.854033
11
-0.541947
21
-0.852506
0
LINE
8
BLACK
6
CONTINUOUS
10
-0.541947
20
-0.852506
11
-0.541999
21
-0.852477
0
LINE
8
BLACK
6
CONTINUOUS
10
-0.541999
20
-0.852477
11
-0.542419
21
-0.852295
0
LINE
8
BLACK
6
CONTINUOUS
10
-0.542419
20
-0.852295
11
-0.542859
21
-0.852196
0
LINE
8
BLACK
6
CONTINUOUS
10
-0.542859
20
-0.852196
11
-0.542924
21
-0.852188
0
LINE
8
BLACK
6
CONTINUOUS
10
-0.542924
20
-0.852188
11
-0.558019
21
-0.848981
0
LINE
8
BLACK
6
CONTINUOUS
10
-0.558019
20
-0.848981
11
-0.558104
21
-0.848955
0
LINE
8
BLACK
6
CONTINUOUS
10
-0.558104
20
-0.848955
11
-0.558526
21
-0.848873
0
LINE
8
BLACK
6
CONTINUOUS
10
-0.558526
20
-0.848873
11
-0.558996
21
-0.848867
0
LINE
8
BLACK
6
CONTINUOUS
10
-0.558996
20
-0.848867
11
-0.559068
21
-0.848874
0
LINE
8
BLACK
6
CONTINUOUS
10
-0.559068
20
-0.848874
11
-0.574448
21
-0.848874
0
LINE
8
BLACK
6
CONTINUOUS
10
-0.574448
20
-0.848874
11
-0.57452
21
-0.848867
0
LINE
8
BLACK
6
CONTINUOUS
10
-0.57452
20
-0.848867
11
-0.574991
21
-0.848873
0
LINE
8
BLACK
6
CONTINUOUS
10
-0.574991
20
-0.848873
11
-0.575006
21
-0.848876
0
LINE
8
BLACK
6
CONTINUOUS
10
-0.575006
20
-0.848876
11
-0.575378
21
-0.848947
0
LINE
8
BLACK
6
CONTINUOUS
10
-0.575378
20
-0.848947
11
-0.575476
21
-0.848977
0
LINE
8
BLACK
6
CONTINUOUS
10
-0.575476
20
-0.848977
11
-0.590606
21
-0.852191
0
LINE
8
BLACK
6
CONTINUOUS
10
-0.590606
20
-0.852191
11
-0.590669
21
-0.852199
0
LINE
8
BLACK
6
CONTINUOUS
10
-0.590669
20
-0.852199
11
-0.591097
21
-0.852295
0
LINE
8
BLACK
6
CONTINUOUS
10
-0.591097
20
-0.852295
11
-0.591472
21
-0.852456
0
LINE
8
BLACK
6
CONTINUOUS
10
-0.591472
20
-0.852456
11
-0.591541
21
-0.852493
0
LINE
8
BLACK
6
CONTINUOUS
10
-0.591541
20
-0.852493
11
-0.605677
21
-0.85879
0
LINE
8
BLACK
6
CONTINUOUS
10
-0.605677
20
-0.85879
11
-0.60574
21
-0.858812
0
LINE
8
BLACK
6
CONTINUOUS
10
-0.60574
20
-0.858812
11
-0.606136
21
-0.858994
0
LINE
8
BLACK
6
CONTINUOUS
10
-0.606136
20
-0.858994
11
-0.606496
21
-0.859249
0
LINE
8
BLACK
6
CONTINUOUS
10
-0.606496
20
-0.859249
11
-0.606544
21
-0.85929
0
LINE
8
BLACK
6
CONTINUOUS
10
-0.606544
20
-0.85929
11
-0.619064
21
-0.868387
0
LINE
8
BLACK
6
CONTINUOUS
10
-0.619064
20
-0.868387
11
-0.619145
21
-0.868437
0
LINE
8
BLACK
6
CONTINUOUS
10
-0.619145
20
-0.868437
11
-0.619459
21
-0.868674
0
LINE
8
BLACK
6
CONTINUOUS
10
-0.619459
20
-0.868674
11
-0.619746
21
-0.868983
0
LINE
8
BLACK
6
CONTINUOUS
10
-0.619746
20
-0.868983
11
-0.619797
21
-0.869049
0
LINE
8
BLACK
6
CONTINUOUS
10
-0.619797
20
-0.869049
11
-0.630459
21
-0.880889
0
LINE
8
BLACK
6
CONTINUOUS
10
-0.630459
20
-0.880889
11
-0.630477
21
-0.880909
0
LINE
8
BLACK
6
CONTINUOUS
10
-0.630477
20
-0.880909
11
-0.630489
21
-0.88093
0
LINE
8
BLACK
6
CONTINUOUS
10
-0.630489
20
-0.88093
11
-0.630588
21
-0.881091
0
LINE
8
BLACK
6
CONTINUOUS
10
-0.630588
20
-0.881091
11
-0.646691
21
-0.907334
0
LINE
8
BLACK
6
CONTINUOUS
10
-0.646691
20
-0.907334
11
-0.646691
21
-0.907335
0
LINE
8
BLACK
6
CONTINUOUS
10
-0.646691
20
-0.907335
11
-0.671362
21
-0.947546
0
LINE
8
BLACK
6
CONTINUOUS
10
-0.671362
20
-0.947546
11
-0.671362
21
-0.947546
0
LINE
8
BLACK
6
CONTINUOUS
10
-0.671362
20
-0.947546
11
-0.671542
21
-0.94784
0
LINE
8
BLACK
6
CONTINUOUS
10
-0.671542
20
-0.94784
11
-0.671542
21
-0.94784
0
LINE
8
BLACK
6
CONTINUOUS
10
-0.671542
20
-0.94784
11
-0.680174
21
-0.96191
0
LINE
8
BLACK
6
CONTINUOUS
10
-0.680174
20
-0.96191
11
-0.698321
21
-0.991488
0
LINE
8
BLACK
6
CONTINUOUS
10
-0.698321
20
-0.991488
11
-0.698321
21
-0.991488
0
LINE
8
BLACK
6
CONTINUOUS
10
-0.698321
20
-0.991488
11
-0.719516
21
-1.02604
0
LINE
8
BLACK
6
CONTINUOUS
10
-0.719516
20
-1.02604
11
-0.719516
21
-1.02604
0
LINE
8
BLACK
6
CONTINUOUS
10
-0.719516
20
-1.02604
11
-0.741573
21
-1.06198
0
LINE
8
BLACK
6
CONTINUOUS
10
-0.741573
20
-1.06198
11
-0.762585
21
-1.09623
0
LINE
8
BLACK
6
CONTINUOUS
10
-0.762585
20
-1.09623
11
-0.762585
21
-1.09623
0
LINE
8
BLACK
6
CONTINUOUS
10
-0.762585
20
-1.09623
11
-0.779261
21
-1.12341
0
LINE
8
BLACK
6
CONTINUOUS
10
-0.779261
20
-1.12341
11
-0.795923
21
-1.15056
0
LINE
8
BLACK
6
CONTINUOUS
10
-0.795923
20
-1.15056
11
-0.795924
21
-1.15056
0
LINE
8
BLACK
6
CONTINUOUS
10
-0.795924
20
-1.15056
11
-0.795954
21
-1.15061
0
LINE
8
BLACK
6
CONTINUOUS
10
-0.795954
20
-1.15061
11
-0.80328
21
-1.16256
0
LINE
8
BLACK
6
CONTINUOUS
10
-0.80328
20
-1.16256
11
-0.803309
21
-1.1626
0
LINE
8
BLACK
6
CONTINUOUS
10
-0.803309
20
-1.1626
11
-0.803348
21
-1.16267
0
LINE
8
BLACK
6
CONTINUOUS
10
-0.803348
20
-1.16267
11
-0.803381
21
-1.16272
0
LINE
8
BLACK
6
CONTINUOUS
10
-0.803381
20
-1.16272
11
-0.803409
21
-1.16277
0
LINE
8
BLACK
6
CONTINUOUS
10
-0.803409
20
-1.16277
11
-0.803431
21
-1.16281
0
LINE
8
BLACK
6
CONTINUOUS
10
-0.803431
20
-1.16281
11
-0.811361
21
-1.17654
0
LINE
8
BLACK
6
CONTINUOUS
10
-0.811361
20
-1.17654
11
-0.811419
21
-1.17663
0
LINE
8
BLACK
6
CONTINUOUS
10
-0.811419
20
-1.17663
11
-0.811597
21
-1.17695
0
LINE
8
BLACK
6
CONTINUOUS
10
-0.811597
20
-1.17695
11
-0.811746
21
-1.17739
0
LINE
8
BLACK
6
CONTINUOUS
10
-0.811746
20
-1.17739
11
-0.81176
21
-1.17745
0
LINE
8
BLACK
6
CONTINUOUS
10
-0.81176
20
-1.17745
11
-0.816526
21
-1.19212
0
LINE
8
BLACK
6
CONTINUOUS
10
-0.816526
20
-1.19212
11
-0.816544
21
-1.19217
0
LINE
8
BLACK
6
CONTINUOUS
10
-0.816544
20
-1.19217
11
-0.816685
21
-1.19261
0
LINE
8
BLACK
6
CONTINUOUS
10
-0.816685
20
-1.19261
11
-0.816734
21
-1.19302
0
LINE
8
BLACK
6
CONTINUOUS
10
-0.816734
20
-1.19302
11
-0.816735
21
-1.19309
0
LINE
8
BLACK
6
CONTINUOUS
10
-0.816735
20
-1.19309
11
-0.81835
21
-1.20845
0
LINE
8
BLACK
6
CONTINUOUS
10
-0.81835
20
-1.20845
11
-0.818356
21
-1.20848
0
LINE
8
BLACK
6
CONTINUOUS
10
-0.818356
20
-1.20848
11
-0.818406
21
-1.20899
0
LINE
8
BLACK
6
CONTINUOUS
10
-0.818406
20
-1.20899
11
-0.818351
21
-1.20952
0
LINE
8
BLACK
6
CONTINUOUS
10
-1.24549
20
0.799999
11
-1.24549
21
0.799982
0
LINE
8
BLACK
6
CONTINUOUS
10
-1.24549
20
0.799982
11
-1.24387
21
0.784633
0
LINE
8
BLACK
6
CONTINUOUS
10
-1.24387
20
0.784633
11
-1.24387
21
0.784546
0
LINE
8
BLACK
6
CONTINUOUS
10
-1.24387
20
0.784546
11
-1.24382
21
0.784157
0
LINE
8
BLACK
6
CONTINUOUS
10
-1.24382
20
0.784157
11
-1.24367
21
0.783673
0
LINE
8
BLACK
6
CONTINUOUS
10
-1.24367
20
0.783673
11
-1.24366
21
0.783644
0
LINE
8
BLACK
6
CONTINUOUS
10
-1.24366
20
0.783644
11
-1.2389
21
0.769004
0
LINE
8
BLACK
6
CONTINUOUS
10
-1.2389
20
0.769004
11
-1.23888
21
0.768925
0
LINE
8
BLACK
6
CONTINUOUS
10
-1.23888
20
0.768925
11
-1.23874
21
0.768496
0
LINE
8
BLACK
6
CONTINUOUS
10
-1.23874
20
0.768496
11
-1.23854
21
0.768135
0
LINE
8
BLACK
6
CONTINUOUS
10
-1.23854
20
0.768135
11
-1.23848
21
0.768057
0
LINE
8
BLACK
6
CONTINUOUS
10
-1.23848
20
0.768057
11
-1.23075
21
0.754677
0
LINE
8
BLACK
6
CONTINUOUS
10
-1.23075
20
0.754677
11
-1.23073
21
0.754614
0
LINE
8
BLACK
6
CONTINUOUS
10
-1.23073
20
0.754614
11
-1.2305
21
0.754236
0
LINE
8
BLACK
6
CONTINUOUS
10
-1.2305
20
0.754236
11
-1.23017
21
0.753861
0
LINE
8
BLACK
6
CONTINUOUS
10
-1.23017
20
0.753861
11
-1.23014
21
0.753834
0
LINE
8
BLACK
6
CONTINUOUS
10
-1.23014
20
0.753834
11
-1.21984
21
0.742403
0
LINE
8
BLACK
6
CONTINUOUS
10
-1.21984
20
0.742403
11
-1.21979
21
0.742331
0
LINE
8
BLACK
6
CONTINUOUS
10
-1.21979
20
0.742331
11
-1.21949
21
0.742011
0
LINE
8
BLACK
6
CONTINUOUS
10
-1.21949
20
0.742011
11
-1.21948
21
0.742001
0
LINE
8
BLACK
6
CONTINUOUS
10
-1.21948
20
0.742001
11
-1.21947
21
0.741996
0
LINE
8
BLACK
6
CONTINUOUS
10
-1.21947
20
0.741996
11
-1.21909
21
0.741706
0
LINE
8
BLACK
6
CONTINUOUS
10
-1.21909
20
0.741706
11
-1.21903
21
0.741673
0
LINE
8
BLACK
6
CONTINUOUS
10
-1.21903
20
0.741673
11
-1.20659
21
0.732633
0
LINE
8
BLACK
6
CONTINUOUS
10
-1.20659
20
0.732633
11
-1.2065
21
0.732549
0
LINE
8
BLACK
6
CONTINUOUS
10
-1.2065
20
0.732549
11
-1.2062
21
0.732346
0
LINE
8
BLACK
6
CONTINUOUS
10
-1.2062
20
0.732346
11
-1.20613
21
0.732297
0
LINE
8
BLACK
6
CONTINUOUS
10
-1.20613
20
0.732297
11
-1.20582
21
0.73207
0
LINE
8
BLACK
6
CONTINUOUS
10
-1.20582
20
0.73207
11
-1.20571
21
0.732008
0
LINE
8
BLACK
6
CONTINUOUS
10
-1.20571
20
0.732008
11
-1.19165
21
0.72236
0
LINE
8
BLACK
6
CONTINUOUS
10
-1.19165
20
0.72236
11
-1.17144
21
0.708487
0
LINE
8
BLACK
6
CONTINUOUS
10
-1.17144
20
0.708487
11
-1.16751
21
0.70579
0
LINE
8
BLACK
6
CONTINUOUS
10
-1.16751
20
0.70579
11
-1.16751
21
0.70579
0
LINE
8
BLACK
6
CONTINUOUS
10
-1.16751
20
0.70579
11
-1.16751
21
0.70579
0
LINE
8
BLACK
6
CONTINUOUS
10
-1.16751
20
0.70579
11
-1.1669
21
0.705368
0
LINE
8
BLACK
6
CONTINUOUS
10
-1.1669
20
0.705368
11
-1.1669
21
0.705368
0
LINE
8
BLACK
6
CONTINUOUS
10
-1.1669
20
0.705368
11
-1.13905
21
0.68625
0
LINE
8
BLACK
6
CONTINUOUS
10
-1.13905
20
0.68625
11
-1.13905
21
0.68625
0
LINE
8
BLACK
6
CONTINUOUS
10
-1.13905
20
0.68625
11
-1.13905
21
0.68625
0
LINE
8
BLACK
6
CONTINUOUS
10
-1.13905
20
0.68625
11
-1.10879
21
0.665479
0
LINE
8
BLACK
6
CONTINUOUS
10
-1.10879
20
0.665479
11
-1.10879
21
0.665478
0
LINE
8
BLACK
6
CONTINUOUS
10
-1.10879
20
0.665478
11
-1.07499
21
0.642278
0
LINE
8
BLACK
6
CONTINUOUS
10
-1.07499
20
0.642278
11
-1.07499
21
0.642278
0
LINE
8
BLACK
6
CONTINUOUS
10
-1.07499
20
0.642278
11
-1.03835
21
0.617125
0
LINE
8
BLACK
6
CONTINUOUS
10
-1.03835
20
0.617125
11
-1.03835
21
0.617125
0
LINE
8
BLACK
6
CONTINUOUS
10
-1.03835
20
0.617125
11
-1.03774
21
0.616703
0
LINE
8
BLACK
6
CONTINUOUS
10
-1.03774
20
0.616703
11
-1.03774
21
0.616703
0
LINE
8
BLACK
6
CONTINUOUS
10
-1.03774
20
0.616703
11
-0.998353
21
0.589667
0
LINE
8
BLACK
6
CONTINUOUS
10
-0.998353
20
0.589667
11
-0.956956
21
0.561247
0
LINE
8
BLACK
6
CONTINUOUS
10
-0.956956
20
0.561247
11
-0.956955
21
0.561246
0
LINE
8
BLACK
6
CONTINUOUS
10
-0.956955
20
0.561246
11
-0.933652
21
0.545249
0
LINE
8
BLACK
6
CONTINUOUS
10
-0.933652
20
0.545249
11
-0.933609
21
0.545219
0
LINE
8
BLACK
6
CONTINUOUS
10
-0.933609
20
0.545219
11
-0.933579
21
0.545206
0
LINE
8
BLACK
6
CONTINUOUS
10
-0.933579
20
0.545206
11
-0.919081
21
0.538754
0
LINE
8
BLACK
6
CONTINUOUS
10
-0.919081
20
0.538754
11
-0.919027
21
0.538724
0
LINE
8
BLACK
6
CONTINUOUS
10
-0.919027
20
0.538724
11
-0.918567
21
0.538525
0
LINE
8
BLACK
6
CONTINUOUS
10
-0.918567
20
0.538525
11
-0.918567
21
0.538525
0
LINE
8
BLACK
6
CONTINUOUS
10
-0.918567
20
0.538525
11
-0.918567
21
0.538525
0
LINE
8
BLACK
6
CONTINUOUS
10
-0.918567
20
0.538525
11
-0.918565
21
0.538524
0
LINE
8
BLACK
6
CONTINUOUS
10
-0.918565
20
0.538524
11
-0.918564
21
0.538524
0
LINE
8
BLACK
6
CONTINUOUS
10
-0.918564
20
0.538524
11
-0.918564
21
0.538524
0
LINE
8
BLACK
6
CONTINUOUS
10
-0.918564
20
0.538524
11
-0.918564
21
0.538524
0
LINE
8
BLACK
6
CONTINUOUS
10
-0.918564
20
0.538524
11
-0.918059
21
0.538412
0
LINE
8
BLACK
6
CONTINUOUS
10
-0.918059
20
0.538412
11
-0.91801
21
0.538407
0
LINE
8
BLACK
6
CONTINUOUS
10
-0.91801
20
0.538407
11
-0.902999
21
0.535213
0
LINE
8
BLACK
6
CONTINUOUS
10
-0.902999
20
0.535213
11
-0.902935
21
0.535193
0
LINE
8
BLACK
6
CONTINUOUS
10
-0.902935
20
0.535193
11
-0.902465
21
0.535099
0
LINE
8
BLACK
6
CONTINUOUS
10
-0.902465
20
0.535099
11
-0.902465
21
0.535099
0
LINE
8
BLACK
6
CONTINUOUS
10
-0.902465
20
0.535099
11
-0.902465
21
0.535099
0
LINE
8
BLACK
6
CONTINUOUS
10
-0.902465
20
0.535099
11
-0.902463
21
0.535098
0
LINE
8
BLACK
6
CONTINUOUS
10
-0.902463
20
0.535098
11
-0.902461
21
0.535098
0
LINE
8
BLACK
6
CONTINUOUS
10
-0.902461
20
0.535098
11
-0.902461
21
0.535098
0
LINE
8
BLACK
6
CONTINUOUS
10
-0.902461
20
0.535098
11
-0.902461
21
0.535098
0
LINE
8
BLACK
6
CONTINUOUS
10
-0.902461
20
0.535098
11
-0.901992
21
0.535092
0
LINE
8
BLACK
6
CONTINUOUS
10
-0.901992
20
0.535092
11
-0.90192
21
0.535099
0
LINE
8
BLACK
6
CONTINUOUS
10
-0.90192
20
0.535099
11
-0.886537
21
0.535099
0
LINE
8
BLACK
6
CONTINUOUS
10
-0.886537
20
0.535099
11
-0.886465
21
0.535092
0
LINE
8
BLACK
6
CONTINUOUS
10
-0.886465
20
0.535092
11
-0.885996
21
0.535098
0
LINE
8
BLACK
6
CONTINUOUS
10
-0.885996
20
0.535098
11
-0.885996
21
0.535098
0
LINE
8
BLACK
6
CONTINUOUS
10
-0.885996
20
0.535098
11
-0.885996
21
0.535098
0
LINE
8
BLACK
6
CONTINUOUS
10
-0.885996
20
0.535098
11
-0.885994
21
0.535098
0
LINE
8
BLACK
6
CONTINUOUS
10
-0.885994
20
0.535098
11
-0.885993
21
0.535099
0
LINE
8
BLACK
6
CONTINUOUS
10
-0.885993
20
0.535099
11
-0.885992
21
0.535099
0
LINE
8
BLACK
6
CONTINUOUS
10
-0.885992
20
0.535099
11
-0.885992
21
0.535099
0
LINE
8
BLACK
6
CONTINUOUS
10
-0.885992
20
0.535099
11
-0.885522
21
0.535193
0
LINE
8
BLACK
6
CONTINUOUS
10
-0.885522
20
0.535193
11
-0.885458
21
0.535213
0
LINE
8
BLACK
6
CONTINUOUS
10
-0.885458
20
0.535213
11
-0.870442
21
0.538408
0
LINE
8
BLACK
6
CONTINUOUS
10
-0.870442
20
0.538408
11
-0.870357
21
0.538417
0
LINE
8
BLACK
6
CONTINUOUS
10
-0.870357
20
0.538417
11
-0.869914
21
0.538519
0
LINE
8
BLACK
6
CONTINUOUS
10
-0.869914
20
0.538519
11
-0.869892
21
0.538524
0
LINE
8
BLACK
6
CONTINUOUS
10
-0.869892
20
0.538524
11
-0.869877
21
0.538531
0
LINE
8
BLACK
6
CONTINUOUS
10
-0.869877
20
0.538531
11
-0.869398
21
0.538739
0
LINE
8
BLACK
6
CONTINUOUS
10
-0.869398
20
0.538739
11
-0.869352
21
0.538765
0
LINE
8
BLACK
6
CONTINUOUS
10
-0.869352
20
0.538765
11
-0.855356
21
0.544993
0
LINE
8
BLACK
6
CONTINUOUS
10
-0.855356
20
0.544993
11
-0.855266
21
0.545024
0
LINE
8
BLACK
6
CONTINUOUS
10
-0.855266
20
0.545024
11
-0.854877
21
0.545206
0
LINE
8
BLACK
6
CONTINUOUS
10
-0.854877
20
0.545206
11
-0.854848
21
0.545218
0
LINE
8
BLACK
6
CONTINUOUS
10
-0.854848
20
0.545218
11
-0.854827
21
0.545234
0
LINE
8
BLACK
6
CONTINUOUS
10
-0.854827
20
0.545234
11
-0.85443
21
0.545515
0
LINE
8
BLACK
6
CONTINUOUS
10
-0.85443
20
0.545515
11
-0.854379
21
0.54556
0
LINE
8
BLACK
6
CONTINUOUS
10
-0.854379
20
0.54556
11
-0.850575
21
0.548325
0
LINE
8
BLACK
6
CONTINUOUS
10
-0.850575
20
0.548325
11
-0.84198
21
0.554569
0
LINE
8
BLACK
6
CONTINUOUS
10
-0.84198
20
0.554569
11
-0.841886
21
0.554625
0
LINE
8
BLACK
6
CONTINUOUS
10
-0.841886
20
0.554625
11
-0.841572
21
0.554864
0
LINE
8
BLACK
6
CONTINUOUS
10
-0.841572
20
0.554864
11
-0.841526
21
0.554897
0
LINE
8
BLACK
6
CONTINUOUS
10
-0.841526
20
0.554897
11
-0.84149
21
0.554937
0
LINE
8
BLACK
6
CONTINUOUS
10
-0.84149
20
0.554937
11
-0.841195
21
0.555253
0
LINE
8
BLACK
6
CONTINUOUS
10
-0.841195
20
0.555253
11
-0.841139
21
0.55533
0
LINE
8
BLACK
6
CONTINUOUS
10
-0.841139
20
0.55533
11
-0.830586
21
0.567052
0
LINE
8
BLACK
6
CONTINUOUS
10
-0.830586
20
0.567052
11
-0.830511
21
0.567129
0
LINE
8
BLACK
6
CONTINUOUS
10
-0.830511
20
0.567129
11
-0.830454
21
0.567218
0
LINE
8
BLACK
6
CONTINUOUS
10
-0.830454
20
0.567218
11
-0.814106
21
0.591001
0
LINE
8
BLACK
6
CONTINUOUS
10
-0.814106
20
0.591001
11
-0.814017
21
0.591123
0
LINE
8
BLACK
6
CONTINUOUS
10
-0.814017
20
0.591123
11
-0.77948
21
0.636136
0
LINE
8
BLACK
6
CONTINUOUS
10
-0.77948
20
0.636136
11
-0.779385
21
0.636254
0
LINE
8
BLACK
6
CONTINUOUS
10
-0.779385
20
0.636254
11
-0.747886
21
0.673133
0
LINE
8
BLACK
6
CONTINUOUS
10
-0.747886
20
0.673133
11
-0.747784
21
0.673247
0
LINE
8
BLACK
6
CONTINUOUS
10
-0.747784
20
0.673247
11
-0.714397
21
0.708431
0
LINE
8
BLACK
6
CONTINUOUS
10
-0.714397
20
0.708431
11
-0.714289
21
0.708539
0
LINE
8
BLACK
6
CONTINUOUS
10
-0.714289
20
0.708539
11
-0.673132
21
0.747591
0
LINE
8
BLACK
6
CONTINUOUS
10
-0.673132
20
0.747591
11
-0.673019
21
0.747693
0
LINE
8
BLACK
6
CONTINUOUS
10
-0.673019
20
0.747693
11
-0.62988
21
0.784538
0
LINE
8
BLACK
6
CONTINUOUS
10
-0.62988
20
0.784538
11
-0.629762
21
0.784634
0
LINE
8
BLACK
6
CONTINUOUS
10
-0.629762
20
0.784634
11
-0.627912
21
0.786053
0
LINE
8
BLACK
6
CONTINUOUS
10
-0.627912
20
0.786053
11
-0.591282
21
0.814162
0
LINE
8
BLACK
6
CONTINUOUS
10
-0.591282
20
0.814162
11
-0.591158
21
0.814252
0
LINE
8
BLACK
6
CONTINUOUS
10
-0.591158
20
0.814252
11
-0.551186
21
0.841724
0
LINE
8
BLACK
6
CONTINUOUS
10
-0.551186
20
0.841724
11
-0.551059
21
0.841806
0
LINE
8
BLACK
6
CONTINUOUS
10
-0.551059
20
0.841806
11
-0.502685
21
0.871447
0
LINE
8
BLACK
6
CONTINUOUS
10
-0.502685
20
0.871447
11
-0.502553
21
0.871524
0
LINE
8
BLACK
6
CONTINUOUS
10
-0.502553
20
0.871524
11
-0.452692
21
0.898596
0
LINE
8
BLACK
6
CONTINUOUS
10
-0.452692
20
0.898596
11
-0.452557
21
0.898665
0
LINE
8
BLACK
6
CONTINUOUS
10
-0.452557
20
0.898665
11
-0.40878
21
0.919548
0
LINE
8
BLACK
6
CONTINUOUS
10
-0.40878
20
0.919548
11
-0.408644
21
0.919609
0
LINE
8
BLACK
6
CONTINUOUS
10
-0.408644
20
0.919609
11
-0.367026
21
0.936846
0
LINE
8
BLACK
6
CONTINUOUS
10
-0.367026
20
0.936846
11
-0.363832
21
0.938169
0
LINE
8
BLACK
6
CONTINUOUS
10
-0.363832
20
0.938169
11
-0.36369
21
0.938224
0
LINE
8
BLACK
6
CONTINUOUS
10
-0.36369
20
0.938224
11
-0.310209
21
0.957161
0
LINE
8
BLACK
6
CONTINUOUS
10
-0.310209
20
0.957161
11
-0.310064
21
0.957208
0
LINE
8
BLACK
6
CONTINUOUS
10
-0.310064
20
0.957208
11
-0.307879
21
0.957855
0
LINE
8
BLACK
6
CONTINUOUS
10
-0.307879
20
0.957855
11
-0.255665
21
0.973322
0
LINE
8
BLACK
6
CONTINUOUS
10
-0.255665
20
0.973322
11
-0.25552
21
0.973361
0
LINE
8
BLACK
6
CONTINUOUS
10
-0.25552
20
0.973361
11
-0.208356
21
0.984684
0
LINE
8
BLACK
6
CONTINUOUS
10
-0.208356
20
0.984684
11
-0.208209
21
0.984715
0
LINE
8
BLACK
6
CONTINUOUS
10
-0.208209
20
0.984715
11
-0.160518
21
0.993557
0
LINE
8
BLACK
6
CONTINUOUS
10
-0.160518
20
0.993557
11
-0.160367
21
0.993581
0
LINE
8
BLACK
6
CONTINUOUS
10
-0.160367
20
0.993581
11
-0.104117
21
1.00099
0
LINE
8
BLACK
6
CONTINUOUS
10
-0.104117
20
1.00099
11
-0.103967
21
1.001
0
LINE
8
BLACK
6
CONTINUOUS
10
-0.103967
20
1.001
11
-0.0474064
21
1.00545
0
LINE
8
BLACK
6
CONTINUOUS
10
-0.0474064
20
1.00545
11
-0.0472542
21
1.00546
0
LINE
8
BLACK
6
CONTINUOUS
10
-0.0472542
20
1.00546
11
0.00122988
21
1.00673
0
LINE
8
BLACK
6
CONTINUOUS
10
0.00122988
20
1.00673
11
0.00138303
21
1.00673
0
LINE
8
BLACK
6
CONTINUOUS
10
0.00138303
20
1.00673
11
0.0498677
21
1.00546
0
LINE
8
BLACK
6
CONTINUOUS
10
0.0498677
20
1.00546
11
0.0500198
21
1.00545
0
LINE
8
BLACK
6
CONTINUOUS
10
0.0500198
20
1.00545
11
0.106581
21
1.001
0
LINE
8
BLACK
6
CONTINUOUS
10
0.106581
20
1.001
11
0.106731
21
1.00099
0
LINE
8
BLACK
6
CONTINUOUS
10
0.106731
20
1.00099
11
0.162981
21
0.993581
0
LINE
8
BLACK
6
CONTINUOUS
10
0.162981
20
0.993581
11
0.163132
21
0.993557
0
LINE
8
BLACK
6
CONTINUOUS
10
0.163132
20
0.993557
11
0.210823
21
0.984715
0
LINE
8
BLACK
6
CONTINUOUS
10
0.210823
20
0.984715
11
0.21097
21
0.984684
0
LINE
8
BLACK
6
CONTINUOUS
10
0.21097
20
0.984684
11
0.258133
21
0.973361
0
LINE
8
BLACK
6
CONTINUOUS
10
0.258133
20
0.973361
11
0.258279
21
0.973322
0
LINE
8
BLACK
6
CONTINUOUS
10
0.258279
20
0.973322
11
0.295668
21
0.962246
0
LINE
8
BLACK
6
CONTINUOUS
10
0.295668
20
0.962246
11
0.312678
21
0.957208
0
LINE
8
BLACK
6
CONTINUOUS
10
0.312678
20
0.957208
11
0.312823
21
0.957161
0
LINE
8
BLACK
6
CONTINUOUS
10
0.312823
20
0.957161
11
0.346627
21
0.945191
0
LINE
8
BLACK
6
CONTINUOUS
10
0.346627
20
0.945191
11
0.366302
21
0.938224
0
LINE
8
BLACK
6
CONTINUOUS
10
0.366302
20
0.938224
11
0.366446
21
0.938169
0
LINE
8
BLACK
6
CONTINUOUS
10
0.366446
20
0.938169
11
0.411255
21
0.91961
0
LINE
8
BLACK
6
CONTINUOUS
10
0.411255
20
0.91961
11
0.411395
21
0.919548
0
LINE
8
BLACK
6
CONTINUOUS
10
0.411395
20
0.919548
11
0.45517
21
0.898665
0
LINE
8
BLACK
6
CONTINUOUS
10
0.45517
20
0.898665
11
0.455306
21
0.898596
0
LINE
8
BLACK
6
CONTINUOUS
10
0.455306
20
0.898596
11
0.505167
21
0.871524
0
LINE
8
BLACK
6
CONTINUOUS
10
0.505167
20
0.871524
11
0.5053
21
0.871447
0
LINE
8
BLACK
6
CONTINUOUS
10
0.5053
20
0.871447
11
0.514731
21
0.865667
0
LINE
8
BLACK
6
CONTINUOUS
10
0.514731
20
0.865667
11
0.529905
21
0.85637
0
LINE
8
BLACK
6
CONTINUOUS
10
0.529905
20
0.85637
11
0.529908
21
0.856368
0
LINE
8
BLACK
6
CONTINUOUS
10
0.529908
20
0.856368
11
0.529993
21
0.856312
0
LINE
8
BLACK
6
CONTINUOUS
10
0.529993
20
0.856312
11
0.530091
21
0.856273
0
LINE
8
BLACK
6
CONTINUOUS
10
0.530091
20
0.856273
11
0.544549
21
0.849835
0
LINE
8
BLACK
6
CONTINUOUS
10
0.544549
20
0.849835
11
0.544627
21
0.849791
0
LINE
8
BLACK
6
CONTINUOUS
10
0.544627
20
0.849791
11
0.545021
21
0.849624
0
LINE
8
BLACK
6
CONTINUOUS
10
0.545021
20
0.849624
11
0.545032
21
0.849619
0
LINE
8
BLACK
6
CONTINUOUS
10
0.545032
20
0.849619
11
0.545034
21
0.849618
0
LINE
8
BLACK
6
CONTINUOUS
10
0.545034
20
0.849618
11
0.545034
21
0.849618
0
LINE
8
BLACK
6
CONTINUOUS
10
0.545034
20
0.849618
11
0.545035
21
0.849618
0
LINE
8
BLACK
6
CONTINUOUS
10
0.545035
20
0.849618
11
0.545515
21
0.84951
0
LINE
8
BLACK
6
CONTINUOUS
10
0.545515
20
0.84951
11
0.545581
21
0.849503
0
LINE
8
BLACK
6
CONTINUOUS
10
0.545581
20
0.849503
11
0.560602
21
0.846311
0
LINE
8
BLACK
6
CONTINUOUS
10
0.560602
20
0.846311
11
0.560665
21
0.846291
0
LINE
8
BLACK
6
CONTINUOUS
10
0.560665
20
0.846291
11
0.561137
21
0.846197
0
LINE
8
BLACK
6
CONTINUOUS
10
0.561137
20
0.846197
11
0.561137
21
0.846197
0
LINE
8
BLACK
6
CONTINUOUS
10
0.561137
20
0.846197
11
0.561137
21
0.846197
0
LINE
8
BLACK
6
CONTINUOUS
10
0.561137
20
0.846197
11
0.561139
21
0.846197
0
LINE
8
BLACK
6
CONTINUOUS
10
0.561139
20
0.846197
11
0.561141
21
0.846197
0
LINE
8
BLACK
6
CONTINUOUS
10
0.561141
20
0.846197
11
0.561141
21
0.846197
0
LINE
8
BLACK
6
CONTINUOUS
10
0.561141
20
0.846197
11
0.561141
21
0.846197
0
LINE
8
BLACK
6
CONTINUOUS
10
0.561141
20
0.846197
11
0.56161
21
0.84619
0
LINE
8
BLACK
6
CONTINUOUS
10
0.56161
20
0.84619
11
0.561682
21
0.846197
0
LINE
8
BLACK
6
CONTINUOUS
10
0.561682
20
0.846197
11
0.577061
21
0.846197
0
LINE
8
BLACK
6
CONTINUOUS
10
0.577061
20
0.846197
11
0.577133
21
0.84619
0
LINE
8
BLACK
6
CONTINUOUS
10
0.577133
20
0.84619
11
0.577602
21
0.846197
0
LINE
8
BLACK
6
CONTINUOUS
10
0.577602
20
0.846197
11
0.577602
21
0.846197
0
LINE
8
BLACK
6
CONTINUOUS
10
0.577602
20
0.846197
11
0.577602
21
0.846197
0
LINE
8
BLACK
6
CONTINUOUS
10
0.577602
20
0.846197
11
0.577604
21
0.846197
0
LINE
8
BLACK
6
CONTINUOUS
10
0.577604
20
0.846197
11
0.577606
21
0.846197
0
LINE
8
BLACK
6
CONTINUOUS
10
0.577606
20
0.846197
11
0.577606
21
0.846197
0
LINE
8
BLACK
6
CONTINUOUS
10
0.577606
20
0.846197
11
0.577606
21
0.846197
0
LINE
8
BLACK
6
CONTINUOUS
10
0.577606
20
0.846197
11
0.578117
21
0.846301
0
LINE
8
BLACK
6
CONTINUOUS
10
0.578117
20
0.846301
11
0.578163
21
0.846316
0
LINE
8
BLACK
6
CONTINUOUS
10
0.578163
20
0.846316
11
0.593154
21
0.849501
0
LINE
8
BLACK
6
CONTINUOUS
10
0.593154
20
0.849501
11
0.593224
21
0.849509
0
LINE
8
BLACK
6
CONTINUOUS
10
0.593224
20
0.849509
11
0.593699
21
0.849616
0
LINE
8
BLACK
6
CONTINUOUS
10
0.593699
20
0.849616
11
0.59371
21
0.849619
0
LINE
8
BLACK
6
CONTINUOUS
10
0.59371
20
0.849619
11
0.593712
21
0.849619
0
LINE
8
BLACK
6
CONTINUOUS
10
0.593712
20
0.849619
11
0.593712
21
0.84962
0
LINE
8
BLACK
6
CONTINUOUS
10
0.593712
20
0.84962
11
0.593712
21
0.84962
0
LINE
8
BLACK
6
CONTINUOUS
10
0.593712
20
0.84962
11
0.594213
21
0.849838
0
LINE
8
BLACK
6
CONTINUOUS
10
0.594213
20
0.849838
11
0.594254
21
0.849862
0
LINE
8
BLACK
6
CONTINUOUS
10
0.594254
20
0.849862
11
0.608241
21
0.856091
0
LINE
8
BLACK
6
CONTINUOUS
10
0.608241
20
0.856091
11
0.60833
21
0.856121
0
LINE
8
BLACK
6
CONTINUOUS
10
0.60833
20
0.856121
11
0.608721
21
0.856304
0
LINE
8
BLACK
6
CONTINUOUS
10
0.608721
20
0.856304
11
0.608749
21
0.856317
0
LINE
8
BLACK
6
CONTINUOUS
10
0.608749
20
0.856317
11
0.60877
21
0.856332
0
LINE
8
BLACK
6
CONTINUOUS
10
0.60877
20
0.856332
11
0.609172
21
0.856617
0
LINE
8
BLACK
6
CONTINUOUS
10
0.609172
20
0.856617
11
0.609222
21
0.856661
0
LINE
8
BLACK
6
CONTINUOUS
10
0.609222
20
0.856661
11
0.621618
21
0.865668
0
LINE
8
BLACK
6
CONTINUOUS
10
0.621618
20
0.865668
11
0.621712
21
0.865723
0
LINE
8
BLACK
6
CONTINUOUS
10
0.621712
20
0.865723
11
0.622026
21
0.865962
0
LINE
8
BLACK
6
CONTINUOUS
10
0.622026
20
0.865962
11
0.622072
21
0.865996
0
LINE
8
BLACK
6
CONTINUOUS
10
0.622072
20
0.865996
11
0.622108
21
0.866036
0
LINE
8
BLACK
6
CONTINUOUS
10
0.622108
20
0.866036
11
0.622404
21
0.866353
0
LINE
8
BLACK
6
CONTINUOUS
10
0.622404
20
0.866353
11
0.62246
21
0.866428
0
LINE
8
BLACK
6
CONTINUOUS
10
0.62246
20
0.866428
11
0.633069
21
0.87821
0
LINE
8
BLACK
6
CONTINUOUS
10
0.633069
20
0.87821
11
0.633089
21
0.878231
0
LINE
8
BLACK
6
CONTINUOUS
10
0.633089
20
0.878231
11
0.633089
21
0.878231
0
LINE
8
BLACK
6
CONTINUOUS
10
0.633089
20
0.878231
11
0.633089
21
0.878231
0
LINE
8
BLACK
6
CONTINUOUS
10
0.633089
20
0.878231
11
0.63309
21
0.878232
0
LINE
8
BLACK
6
CONTINUOUS
10
0.63309
20
0.878232
11
0.633091
21
0.878234
0
LINE
8
BLACK
6
CONTINUOUS
10
0.633091
20
0.878234
11
0.633091
21
0.878234
0
LINE
8
BLACK
6
CONTINUOUS
10
0.633091
20
0.878234
11
0.633092
21
0.878234
0
LINE
8
BLACK
6
CONTINUOUS
10
0.633092
20
0.878234
11
0.633108
21
0.878262
0
LINE
8
BLACK
6
CONTINUOUS
10
0.633108
20
0.878262
11
0.643423
21
0.895071
0
LINE
8
BLACK
6
CONTINUOUS
10
0.643423
20
0.895071
11
0.647935
21
0.902425
0
LINE
8
BLACK
6
CONTINUOUS
10
0.647935
20
0.902425
11
0.647935
21
0.902425
0
LINE
8
BLACK
6
CONTINUOUS
10
0.647935
20
0.902425
11
0.67416
21
0.94517
0
LINE
8
BLACK
6
CONTINUOUS
10
0.67416
20
0.94517
11
0.67416
21
0.94517
0
LINE
8
BLACK
6
CONTINUOUS
10
0.67416
20
0.94517
11
0.699141
21
0.985887
0
LINE
8
BLACK
6
CONTINUOUS
10
0.699141
20
0.985887
11
0.699141
21
0.985887
0
LINE
8
BLACK
6
CONTINUOUS
10
0.699141
20
0.985887
11
0.722381
21
1.02377
0
LINE
8
BLACK
6
CONTINUOUS
10
0.722381
20
1.02377
11
0.722381
21
1.02377
0
LINE
8
BLACK
6
CONTINUOUS
10
0.722381
20
1.02377
11
0.722393
21
1.02379
0
LINE
8
BLACK
6
CONTINUOUS
10
0.722393
20
1.02379
11
0.74421
21
1.05935
0
LINE
8
BLACK
6
CONTINUOUS
10
0.74421
20
1.05935
11
0.763404
21
1.09063
0
LINE
8
BLACK
6
CONTINUOUS
10
0.763404
20
1.09063
11
0.763404
21
1.09063
0
LINE
8
BLACK
6
CONTINUOUS
10
0.763404
20
1.09063
11
0.78107
21
1.11942
0
LINE
8
BLACK
6
CONTINUOUS
10
0.78107
20
1.11942
11
0.781494
21
1.12011
0
LINE
8
BLACK
6
CONTINUOUS
10
0.781494
20
1.12011
11
0.781494
21
1.12011
0
LINE
8
BLACK
6
CONTINUOUS
10
0.781494
20
1.12011
11
0.796774
21
1.14501
0
LINE
8
BLACK
6
CONTINUOUS
10
0.796774
20
1.14501
11
0.796774
21
1.14501
0
LINE
8
BLACK
6
CONTINUOUS
10
0.796774
20
1.14501
11
0.796788
21
1.14504
0
LINE
8
BLACK
6
CONTINUOUS
10
0.796788
20
1.14504
11
0.797198
21
1.1457
0
LINE
8
BLACK
6
CONTINUOUS
10
0.797198
20
1.1457
11
0.797199
21
1.1457
0
LINE
8
BLACK
6
CONTINUOUS
10
0.797199
20
1.1457
11
0.805141
21
1.15865
0
LINE
8
BLACK
6
CONTINUOUS
10
0.805141
20
1.15865
11
0.805634
21
1.15946
0
LINE
8
BLACK
6
CONTINUOUS
10
0.805634
20
1.15946
11
0.805735
21
1.15959
0
LINE
8
BLACK
6
CONTINUOUS
10
0.805735
20
1.15959
11
0.805944
21
1.15996
0
LINE
8
BLACK
6
CONTINUOUS
10
0.805944
20
1.15996
11
0.806012
21
1.16007
0
LINE
8
BLACK
6
CONTINUOUS
10
0.806012
20
1.16007
11
0.806184
21
1.16035
0
LINE
8
BLACK
6
CONTINUOUS
10
0.806184
20
1.16035
11
0.806247
21
1.16049
0
LINE
8
BLACK
6
CONTINUOUS
10
0.806247
20
1.16049
11
0.813937
21
1.1738
0
LINE
8
BLACK
6
CONTINUOUS
10
0.813937
20
1.1738
11
0.813998
21
1.17389
0
LINE
8
BLACK
6
CONTINUOUS
10
0.813998
20
1.17389
11
0.814185
21
1.17423
0
LINE
8
BLACK
6
CONTINUOUS
10
0.814185
20
1.17423
11
0.814211
21
1.17427
0
LINE
8
BLACK
6
CONTINUOUS
10
0.814211
20
1.17427
11
0.814224
21
1.17431
0
LINE
8
BLACK
6
CONTINUOUS
10
0.814224
20
1.17431
11
0.814372
21
1.17474
0
LINE
8
BLACK
6
CONTINUOUS
10
0.814372
20
1.17474
11
0.814391
21
1.17483
0
LINE
8
BLACK
6
CONTINUOUS
10
0.814391
20
1.17483
11
0.819117
21
1.18938
0
LINE
8
BLACK
6
CONTINUOUS
10
0.819117
20
1.18938
11
0.819134
21
1.18942
0
LINE
8
BLACK
6
CONTINUOUS
10
0.819134
20
1.18942
11
0.819298
21
1.18993
0
LINE
8
BLACK
6
CONTINUOUS
10
0.819298
20
1.18993
11
0.819298
21
1.18994
0
LINE
8
BLACK
6
CONTINUOUS
10
0.819298
20
1.18994
11
0.819298
21
1.18994
0
LINE
8
BLACK
6
CONTINUOUS
10
0.819298
20
1.18994
11
0.819299
21
1.18994
0
LINE
8
BLACK
6
CONTINUOUS
10
0.819299
20
1.18994
11
0.819301
21
1.18995
0
LINE
8
BLACK
6
CONTINUOUS
10
0.819301
20
1.18995
11
0.819353
21
1.19037
0
LINE
8
BLACK
6
CONTINUOUS
10
0.819353
20
1.19037
11
0.819354
21
1.19047
0
LINE
8
BLACK
6
CONTINUOUS
10
0.819354
20
1.19047
11
0.820956
21
1.20571
0
LINE
8
BLACK
6
CONTINUOUS
10
0.820956
20
1.20571
11
0.82096
21
1.20573
0
LINE
8
BLACK
6
CONTINUOUS
10
0.82096
20
1.20573
11
0.821019
21
1.20631
0
LINE
8
BLACK
6
CONTINUOUS
10
0.821019
20
1.20631
11
0.821019
21
1.20631
0
LINE
8
BLACK
6
CONTINUOUS
10
0.821019
20
1.20631
11
0.821019
21
1.20631
0
LINE
8
BLACK
6
CONTINUOUS
10
0.821019
20
1.20631
11
0.82102
21
1.20631
0
LINE
8
BLACK
6
CONTINUOUS
10
0.82102
20
1.20631
11
0.821019
21
1.20631
0
LINE
8
BLACK
6
CONTINUOUS
10
0.821019
20
1.20631
11
0.821019
21
1.20631
0
LINE
8
BLACK
6
CONTINUOUS
10
0.821019
20
1.20631
11
0.821019
21
1.20631
0
LINE
8
BLACK
6
CONTINUOUS
10
0.821019
20
1.20631
11
0.820967
21
1.20685
0
LINE
8
BLACK
6
CONTINUOUS
10
0.820967
20
1.20685
11
0.820958
21
1.2069
0
LINE
8
BLACK
6
CONTINUOUS
10
0.820958
20
1.2069
11
0.820266
21
1.21348
0
LINE
8
BLACK
6
CONTINUOUS
10
0.820266
20
1.21348
11
0.819355
21
1.22215
0
LINE
8
BLACK
6
CONTINUOUS
10
0.819355
20
1.22215
11
0.819354
21
1.22223
0
LINE
8
BLACK
6
CONTINUOUS
10
0.819354
20
1.22223
11
0.819299
21
1.22268
0
LINE
8
BLACK
6
CONTINUOUS
10
0.819299
20
1.22268
11
0.819299
21
1.22268
0
LINE
8
BLACK
6
CONTINUOUS
10
0.819299
20
1.22268
11
0.819299
21
1.22268
0
LINE
8
BLACK
6
CONTINUOUS
10
0.819299
20
1.22268
11
0.819299
21
1.22269
0
LINE
8
BLACK
6
CONTINUOUS
10
0.819299
20
1.22269
11
0.819298
21
1.22269
0
LINE
8
BLACK
6
CONTINUOUS
10
0.819298
20
1.22269
11
0.819298
21
1.22269
0
LINE
8
BLACK
6
CONTINUOUS
10
0.819298
20
1.22269
11
0.819298
21
1.22269
0
LINE
8
BLACK
6
CONTINUOUS
10
0.819298
20
1.22269
11
0.819149
21
1.22316
0
LINE
8
BLACK
6
CONTINUOUS
10
0.819149
20
1.22316
11
0.819125
21
1.22322
0
LINE
8
BLACK
6
CONTINUOUS
10
0.819125
20
1.22322
11
0.814389
21
1.2378
0
LINE
8
BLACK
6
CONTINUOUS
10
0.814389
20
1.2378
11
0.814374
21
1.23786
0
LINE
8
BLACK
6
CONTINUOUS
10
0.814374
20
1.23786
11
0.814218
21
1.23833
0
LINE
8
BLACK
6
CONTINUOUS
10
0.814218
20
1.23833
11
0.81421
21
1.23835
0
LINE
8
BLACK
6
CONTINUOUS
10
0.81421
20
1.23835
11
0.814192
21
1.23838
0
LINE
8
BLACK
6
CONTINUOUS
10
0.814192
20
1.23838
11
0.81402
21
1.2387
0
LINE
8
BLACK
6
CONTINUOUS
10
0.81402
20
1.2387
11
0.813954
21
1.23879
0
LINE
8
BLACK
6
CONTINUOUS
10
0.813954
20
1.23879
11
0.806258
21
1.25212
0
LINE
8
BLACK
6
CONTINUOUS
10
0.806258
20
1.25212
11
0.80624
21
1.25216
0
LINE
8
BLACK
6
CONTINUOUS
10
0.80624
20
1.25216
11
0.805978
21
1.2526
0
LINE
8
BLACK
6
CONTINUOUS
10
0.805978
20
1.2526
11
0.805977
21
1.2526
0
LINE
8
BLACK
6
CONTINUOUS
10
0.805977
20
1.2526
11
0.805977
21
1.2526
0
LINE
8
BLACK
6
CONTINUOUS
10
0.805977
20
1.2526
11
0.805976
21
1.25261
0
LINE
8
BLACK
6
CONTINUOUS
10
0.805976
20
1.25261
11
0.805692
21
1.25293
0
LINE
8
BLACK
6
CONTINUOUS
10
0.805692
20
1.25293
11
0.805629
21
1.25299
0
LINE
8
BLACK
6
CONTINUOUS
10
0.805629
20
1.25299
11
0.803388
21
1.25548
0
LINE
8
BLACK
6
CONTINUOUS
10
0.803388
20
1.25548
11
0.795325
21
1.26444
0
LINE
8
BLACK
6
CONTINUOUS
10
0.795325
20
1.26444
11
0.795287
21
1.26449
0
LINE
8
BLACK
6
CONTINUOUS
10
0.795287
20
1.26449
11
0.794962
21
1.26484
0
LINE
8
BLACK
6
CONTINUOUS
10
0.794962
20
1.26484
11
0.79496
21
1.26484
0
LINE
8
BLACK
6
CONTINUOUS
10
0.79496
20
1.26484
11
0.79496
21
1.26484
0
LINE
8
BLACK
6
CONTINUOUS
10
0.79496
20
1.26484
11
0.79496
21
1.26484
0
LINE
8
BLACK
6
CONTINUOUS
10
0.79496
20
1.26484
11
0.794622
21
1.2651
0
LINE
8
BLACK
6
CONTINUOUS
10
0.794622
20
1.2651
11
0.794546
21
1.26514
0
LINE
8
BLACK
6
CONTINUOUS
10
0.794546
20
1.26514
11
0.781807
21
1.2744
0
LINE
8
BLACK
6
CONTINUOUS
10
0.781807
20
1.2744
11
0.781713
21
1.27447
0
LINE
8
BLACK
6
CONTINUOUS
10
0.781713
20
1.27447
11
0.781598
21
1.27455
0
LINE
8
BLACK
6
CONTINUOUS
10
0.781598
20
1.27455
11
0.781489
21
1.27461
0
LINE
8
BLACK
6
CONTINUOUS
10
0.781489
20
1.27461
11
0.776587
21
1.27762
0
LINE
8
BLACK
6
CONTINUOUS
10
0.776587
20
1.27762
11
0.775238
21
1.27844
0
LINE
8
BLACK
6
CONTINUOUS
10
0.775238
20
1.27844
11
0.775236
21
1.27845
0
LINE
8
BLACK
6
CONTINUOUS
10
0.775236
20
1.27845
11
0.753967
21
1.29148
0
LINE
8
BLACK
6
CONTINUOUS
10
0.753967
20
1.29148
11
0.753912
21
1.29151
0
LINE
8
BLACK
6
CONTINUOUS
10
0.753912
20
1.29151
11
0.753912
21
1.29151
0
LINE
8
BLACK
6
CONTINUOUS
10
0.753912
20
1.29151
11
0.749722
21
1.29408
0
LINE
8
BLACK
6
CONTINUOUS
10
0.749722
20
1.29408
11
0.749577
21
1.29418
0
LINE
8
BLACK
6
CONTINUOUS
10
0.749577
20
1.29418
11
0.749411
21
1.29427
0
LINE
8
BLACK
6
CONTINUOUS
10
0.749411
20
1.29427
11
0.749287
21
1.29435
0
LINE
8
BLACK
6
CONTINUOUS
10
0.749287
20
1.29435
11
0.749267
21
1.29436
0
LINE
8
BLACK
6
CONTINUOUS
10
0.749267
20
1.29436
11
0.749192
21
1.29439
0
LINE
8
BLACK
6
CONTINUOUS
10
0.749192
20
1.29439
11
0.742473
21
1.29804
0
LINE
8
BLACK
6
CONTINUOUS
10
0.742473
20
1.29804
11
0.736364
21
1.30136
0
LINE
8
BLACK
6
CONTINUOUS
10
0.736364
20
1.30136
11
0.736364
21
1.30136
0
LINE
8
BLACK
6
CONTINUOUS
10
0.736364
20
1.30136
11
0.736364
21
1.30136
0
LINE
8
BLACK
6
CONTINUOUS
10
0.736364
20
1.30136
11
0.722329
21
1.30898
0
LINE
8
BLACK
6
CONTINUOUS
10
0.722329
20
1.30898
11
0.712286
21
1.31443
0
LINE
8
BLACK
6
CONTINUOUS
10
0.712286
20
1.31443
11
0.710853
21
1.31521
0
LINE
8
BLACK
6
CONTINUOUS
10
0.710853
20
1.31521
11
0.706246
21
1.31771
0
LINE
8
BLACK
6
CONTINUOUS
10
0.706246
20
1.31771
11
0.706246
21
1.31771
0
LINE
8
BLACK
6
CONTINUOUS
10
0.706246
20
1.31771
11
0.706019
21
1.31783
0
LINE
8
BLACK
6
CONTINUOUS
10
0.706019
20
1.31783
11
0.706019
21
1.31783
0
LINE
8
BLACK
6
CONTINUOUS
10
0.706019
20
1.31783
11
0.704186
21
1.31883
0
LINE
8
BLACK
6
CONTINUOUS
10
0.704186
20
1.31883
11
0.684511
21
1.32951
0
LINE
8
BLACK
6
CONTINUOUS
10
0.684511
20
1.32951
11
0.684356
21
1.32961
0
LINE
8
BLACK
6
CONTINUOUS
10
0.684356
20
1.32961
11
0.684214
21
1.32968
0
LINE
8
BLACK
6
CONTINUOUS
10
0.684214
20
1.32968
11
0.684065
21
1.32975
0
LINE
8
BLACK
6
CONTINUOUS
10
0.684065
20
1.32975
11
0.684052
21
1.32976
0
LINE
8
BLACK
6
CONTINUOUS
10
0.684052
20
1.32976
11
0.68397
21
1.32979
0
LINE
8
BLACK
6
CONTINUOUS
10
0.68397
20
1.32979
11
0.61759
21
1.36146
0
LINE
8
BLACK
6
CONTINUOUS
10
0.61759
20
1.36146
11
0.617507
21
1.3615
0
LINE
8
BLACK
6
CONTINUOUS
10
0.617507
20
1.3615
11
0.617165
21
1.36166
0
LINE
8
BLACK
6
CONTINUOUS
10
0.617165
20
1.36166
11
0.617161
21
1.36166
0
LINE
8
BLACK
6
CONTINUOUS
10
0.617161
20
1.36166
11
0.617029
21
1.36172
0
LINE
8
BLACK
6
CONTINUOUS
10
0.617029
20
1.36172
11
0.616985
21
1.36174
0
LINE
8
BLACK
6
CONTINUOUS
10
0.616985
20
1.36174
11
0.602586
21
1.36815
0
LINE
8
BLACK
6
CONTINUOUS
10
0.602586
20
1.36815
11
0.602481
21
1.36821
0
LINE
8
BLACK
6
CONTINUOUS
10
0.602481
20
1.36821
11
0.602161
21
1.36834
0
LINE
8
BLACK
6
CONTINUOUS
10
0.602161
20
1.36834
11
0.602089
21
1.36837
0
LINE
8
BLACK
6
CONTINUOUS
10
0.602089
20
1.36837
11
0.602021
21
1.3684
0
LINE
8
BLACK
6
CONTINUOUS
10
0.602021
20
1.3684
11
0.601969
21
1.36842
0
LINE
8
BLACK
6
CONTINUOUS
10
0.601969
20
1.36842
11
0.572569
21
1.3806
0
LINE
8
BLACK
6
CONTINUOUS
10
0.572569
20
1.3806
11
0.533764
21
1.39667
0
LINE
8
BLACK
6
CONTINUOUS
10
0.533764
20
1.39667
11
0.533689
21
1.39671
0
LINE
8
BLACK
6
CONTINUOUS
10
0.533689
20
1.39671
11
0.533627
21
1.39673
0
LINE
8
BLACK
6
CONTINUOUS
10
0.533627
20
1.39673
11
0.533512
21
1.39677
0
LINE
8
BLACK
6
CONTINUOUS
10
0.533512
20
1.39677
11
0.533327
21
1.39685
0
LINE
8
BLACK
6
CONTINUOUS
10
0.533327
20
1.39685
11
0.53316
21
1.3969
0
LINE
8
BLACK
6
CONTINUOUS
10
0.53316
20
1.3969
11
0.464026
21
1.42138
0
LINE
8
BLACK
6
CONTINUOUS
10
0.464026
20
1.42138
11
0.463876
21
1.42144
0
LINE
8
BLACK
6
CONTINUOUS
10
0.463876
20
1.42144
11
0.463672
21
1.4215
0
LINE
8
BLACK
6
CONTINUOUS
10
0.463672
20
1.4215
11
0.46357
21
1.42154
0
LINE
8
BLACK
6
CONTINUOUS
10
0.46357
20
1.42154
11
0.46352
21
1.42155
0
LINE
8
BLACK
6
CONTINUOUS
10
0.46352
20
1.42155
11
0.463444
21
1.42157
0
LINE
8
BLACK
6
CONTINUOUS
10
0.463444
20
1.42157
11
0.39293
21
1.44246
0
LINE
8
BLACK
6
CONTINUOUS
10
0.39293
20
1.44246
11
0.392754
21
1.44253
0
LINE
8
BLACK
6
CONTINUOUS
10
0.392754
20
1.44253
11
0.392549
21
1.44258
0
LINE
8
BLACK
6
CONTINUOUS
10
0.392549
20
1.44258
11
0.3924
21
1.44262
0
LINE
8
BLACK
6
CONTINUOUS
10
0.3924
20
1.44262
11
0.392376
21
1.44262
0
LINE
8
BLACK
6
CONTINUOUS
10
0.392376
20
1.44262
11
0.392291
21
1.44264
0
LINE
8
BLACK
6
CONTINUOUS
10
0.392291
20
1.44264
11
0.320736
21
1.45982
0
LINE
8
BLACK
6
CONTINUOUS
10
0.320736
20
1.45982
11
0.320658
21
1.45984
0
LINE
8
BLACK
6
CONTINUOUS
10
0.320658
20
1.45984
11
0.320319
21
1.45992
0
LINE
8
BLACK
6
CONTINUOUS
10
0.320319
20
1.45992
11
0.319921
21
1.46001
0
LINE
8
BLACK
6
CONTINUOUS
10
0.319921
20
1.46001
11
0.319836
21
1.46002
0
LINE
8
BLACK
6
CONTINUOUS
10
0.319836
20
1.46002
11
0.304736
21
1.46323
0
LINE
8
BLACK
6
CONTINUOUS
10
0.304736
20
1.46323
11
0.304636
21
1.46326
0
LINE
8
BLACK
6
CONTINUOUS
10
0.304636
20
1.46326
11
0.30422
21
1.46334
0
LINE
8
BLACK
6
CONTINUOUS
10
0.30422
20
1.46334
11
0.303874
21
1.46341
0
LINE
8
BLACK
6
CONTINUOUS
10
0.303874
20
1.46341
11
0.303776
21
1.46342
0
LINE
8
BLACK
6
CONTINUOUS
10
0.303776
20
1.46342
11
0.231457
21
1.47683
0
LINE
8
BLACK
6
CONTINUOUS
10
0.231457
20
1.47683
11
0.231375
21
1.47685
0
LINE
8
BLACK
6
CONTINUOUS
10
0.231375
20
1.47685
11
0.231324
21
1.47685
0
LINE
8
BLACK
6
CONTINUOUS
10
0.231324
20
1.47685
11
0.231194
21
1.47687
0
LINE
8
BLACK
6
CONTINUOUS
10
0.231194
20
1.47687
11
0.23117
21
1.47688
0
LINE
8
BLACK
6
CONTINUOUS
10
0.23117
20
1.47688
11
0.231091
21
1.47688
0
LINE
8
BLACK
6
CONTINUOUS
10
0.231091
20
1.47688
11
0.226227
21
1.47752
0
LINE
8
BLACK
6
CONTINUOUS
10
0.226227
20
1.47752
11
0.157901
21
1.48652
0
LINE
8
BLACK
6
CONTINUOUS
10
0.157901
20
1.48652
11
0.157814
21
1.48654
0
LINE
8
BLACK
6
CONTINUOUS
10
0.157814
20
1.48654
11
0.157759
21
1.48654
0
LINE
8
BLACK
6
CONTINUOUS
10
0.157759
20
1.48654
11
0.157621
21
1.48656
0
LINE
8
BLACK
6
CONTINUOUS
10
0.157621
20
1.48656
11
0.157592
21
1.48656
0
LINE
8
BLACK
6
CONTINUOUS
10
0.157592
20
1.48656
11
0.15751
21
1.48656
0
LINE
8
BLACK
6
CONTINUOUS
10
0.15751
20
1.48656
11
0.08392
21
1.49235
0
LINE
8
BLACK
6
CONTINUOUS
10
0.08392
20
1.49235
11
0.0838408
21
1.49237
0
LINE
8
BLACK
6
CONTINUOUS
10
0.0838408
20
1.49237
11
0.0837663
21
1.49237
0
LINE
8
BLACK
6
CONTINUOUS
10
0.0837663
20
1.49237
11
0.0836658
21
1.49237
0
LINE
8
BLACK
6
CONTINUOUS
10
0.0836658
20
1.49237
11
0.0835977
21
1.49238
0
LINE
8
BLACK
6
CONTINUOUS
10
0.0835977
20
1.49238
11
0.0835184
21
1.49238
0
LINE
8
BLACK
6
CONTINUOUS
10
0.0835184
20
1.49238
11
0.0100601
21
1.4943
0
LINE
8
BLACK
6
CONTINUOUS
10
0.0100601
20
1.4943
11
0.00994094
21
1.49431
0
LINE
8
BLACK
6
CONTINUOUS
10
0.00994094
20
1.49431
11
0.00957492
21
1.49431
0
LINE
8
BLACK
6
CONTINUOUS
10
0.00957492
20
1.49431
11
0.00949776
21
1.49431
0
LINE
8
BLACK
6
CONTINUOUS
10
0.00949776
20
1.49431
11
0.00913264
21
1.49432
0
LINE
8
BLACK
6
CONTINUOUS
10
0.00913264
20
1.49432
11
0.00901283
21
1.49431
0
LINE
8
BLACK
6
CONTINUOUS
10
0.00901283
20
1.49431
11
-0.00639929
21
1.49431
0
LINE
8
BLACK
6
CONTINUOUS
10
-0.00639929
20
1.49431
11
-0.00651913
21
1.49432
0
LINE
8
BLACK
6
CONTINUOUS
10
-0.00651913
20
1.49432
11
-0.00688421
21
1.49431
0
LINE
8
BLACK
6
CONTINUOUS
10
-0.00688421
20
1.49431
11
-0.00696138
21
1.49431
0
LINE
8
BLACK
6
CONTINUOUS
10
-0.00696138
20
1.49431
11
-0.00726315
21
1.49431
0
LINE
8
BLACK
6
CONTINUOUS
10
-0.00726315
20
1.49431
11
-0.00737858
21
1.4943
0
LINE
8
BLACK
6
CONTINUOUS
10
-0.00737858
20
1.4943
11
-0.0808898
21
1.49238
0
LINE
8
BLACK
6
CONTINUOUS
10
-0.0808898
20
1.49238
11
-0.0809702
21
1.49238
0
LINE
8
BLACK
6
CONTINUOUS
10
-0.0809702
20
1.49238
11
-0.0810537
21
1.49237
0
LINE
8
BLACK
6
CONTINUOUS
10
-0.0810537
20
1.49237
11
-0.0811505
21
1.49237
0
LINE
8
BLACK
6
CONTINUOUS
10
-0.0811505
20
1.49237
11
-0.0812111
21
1.49237
0
LINE
8
BLACK
6
CONTINUOUS
10
-0.0812111
20
1.49237
11
-0.0812865
21
1.49236
0
LINE
8
BLACK
6
CONTINUOUS
10
-0.0812865
20
1.49236
11
-0.154882
21
1.48656
0
LINE
8
BLACK
6
CONTINUOUS
10
-0.154882
20
1.48656
11
-0.154963
21
1.48656
0
LINE
8
BLACK
6
CONTINUOUS
10
-0.154963
20
1.48656
11
-0.155019
21
1.48655
0
LINE
8
BLACK
6
CONTINUOUS
10
-0.155019
20
1.48655
11
-0.155133
21
1.48654
0
LINE
8
BLACK
6
CONTINUOUS
10
-0.155133
20
1.48654
11
-0.155166
21
1.48654
0
LINE
8
BLACK
6
CONTINUOUS
10
-0.155166
20
1.48654
11
-0.15524
21
1.48653
0
LINE
8
BLACK
6
CONTINUOUS
10
-0.15524
20
1.48653
11
-0.228468
21
1.47689
0
LINE
8
BLACK
6
CONTINUOUS
10
-0.228468
20
1.47689
11
-0.228547
21
1.47688
0
LINE
8
BLACK
6
CONTINUOUS
10
-0.228547
20
1.47688
11
-0.228586
21
1.47687
0
LINE
8
BLACK
6
CONTINUOUS
10
-0.228586
20
1.47687
11
-0.228705
21
1.47685
0
LINE
8
BLACK
6
CONTINUOUS
10
-0.228705
20
1.47685
11
-0.228743
21
1.47685
0
LINE
8
BLACK
6
CONTINUOUS
10
-0.228743
20
1.47685
11
-0.228819
21
1.47683
0
LINE
8
BLACK
6
CONTINUOUS
10
-0.228819
20
1.47683
11
-0.301134
21
1.46343
0
LINE
8
BLACK
6
CONTINUOUS
10
-0.301134
20
1.46343
11
-0.301246
21
1.46342
0
LINE
8
BLACK
6
CONTINUOUS
10
-0.301246
20
1.46342
11
-0.301573
21
1.46335
0
LINE
8
BLACK
6
CONTINUOUS
10
-0.301573
20
1.46335
11
-0.30164
21
1.46334
0
LINE
8
BLACK
6
CONTINUOUS
10
-0.30164
20
1.46334
11
-0.301724
21
1.46332
0
LINE
8
BLACK
6
CONTINUOUS
10
-0.301724
20
1.46332
11
-0.301774
21
1.46331
0
LINE
8
BLACK
6
CONTINUOUS
10
-0.301774
20
1.46331
11
-0.317186
21
1.46003
0
LINE
8
BLACK
6
CONTINUOUS
10
-0.317186
20
1.46003
11
-0.317261
21
1.46002
0
LINE
8
BLACK
6
CONTINUOUS
10
-0.317261
20
1.46002
11
-0.317707
21
1.45992
0
LINE
8
BLACK
6
CONTINUOUS
10
-0.317707
20
1.45992
11
-0.317831
21
1.45989
0
LINE
8
BLACK
6
CONTINUOUS
10
-0.317831
20
1.45989
11
-0.317865
21
1.45988
0
LINE
8
BLACK
6
CONTINUOUS
10
-0.317865
20
1.45988
11
-0.389672
21
1.44264
0
LINE
8
BLACK
6
CONTINUOUS
10
-0.389672
20
1.44264
11
-0.389755
21
1.44262
0
LINE
8
BLACK
6
CONTINUOUS
10
-0.389755
20
1.44262
11
-0.389795
21
1.44261
0
LINE
8
BLACK
6
CONTINUOUS
10
-0.389795
20
1.44261
11
-0.389928
21
1.44258
0
LINE
8
BLACK
6
CONTINUOUS
10
-0.389928
20
1.44258
11
-0.389977
21
1.44257
0
LINE
8
BLACK
6
CONTINUOUS
10
-0.389977
20
1.44257
11
-0.390058
21
1.44254
0
LINE
8
BLACK
6
CONTINUOUS
10
-0.390058
20
1.44254
11
-0.460828
21
1.42157
0
LINE
8
BLACK
6
CONTINUOUS
10
-0.460828
20
1.42157
11
-0.4609
21
1.42155
0
LINE
8
BLACK
6
CONTINUOUS
10
-0.4609
20
1.42155
11
-0.460965
21
1.42153
0
LINE
8
BLACK
6
CONTINUOUS
10
-0.460965
20
1.42153
11
-0.461048
21
1.42151
0
LINE
8
BLACK
6
CONTINUOUS
10
-0.461048
20
1.42151
11
-0.461114
21
1.42149
0
LINE
8
BLACK
6
CONTINUOUS
10
-0.461114
20
1.42149
11
-0.461183
21
1.42146
0
LINE
8
BLACK
6
CONTINUOUS
10
-0.461183
20
1.42146
11
-0.530792
21
1.39681
0
LINE
8
BLACK
6
CONTINUOUS
10
-0.530792
20
1.39681
11
-0.530865
21
1.39679
0
LINE
8
BLACK
6
CONTINUOUS
10
-0.530865
20
1.39679
11
-0.530911
21
1.39677
0
LINE
8
BLACK
6
CONTINUOUS
10
-0.530911
20
1.39677
11
-0.531002
21
1.39673
0
LINE
8
BLACK
6
CONTINUOUS
10
-0.531002
20
1.39673
11
-0.531049
21
1.39672
0
LINE
8
BLACK
6
CONTINUOUS
10
-0.531049
20
1.39672
11
-0.531114
21
1.39669
0
LINE
8
BLACK
6
CONTINUOUS
10
-0.531114
20
1.39669
11
-0.599388
21
1.3684
0
LINE
8
BLACK
6
CONTINUOUS
10
-0.599388
20
1.3684
11
-0.599425
21
1.36839
0
LINE
8
BLACK
6
CONTINUOUS
10
-0.599425
20
1.36839
11
-0.599513
21
1.36835
0
LINE
8
BLACK
6
CONTINUOUS
10
-0.599513
20
1.36835
11
-0.599645
21
1.3683
0
LINE
8
BLACK
6
CONTINUOUS
10
-0.599645
20
1.3683
11
-0.599687
21
1.36827
0
LINE
8
BLACK
6
CONTINUOUS
10
-0.599687
20
1.36827
11
-0.614438
21
1.36171
0
LINE
8
BLACK
6
CONTINUOUS
10
-0.614438
20
1.36171
11
-0.614469
21
1.3617
0
LINE
8
BLACK
6
CONTINUOUS
10
-0.614469
20
1.3617
11
-0.614546
21
1.36166
0
LINE
8
BLACK
6
CONTINUOUS
10
-0.614546
20
1.36166
11
-0.614672
21
1.3616
0
LINE
8
BLACK
6
CONTINUOUS
10
-0.614672
20
1.3616
11
-0.614714
21
1.36158
0
LINE
8
BLACK
6
CONTINUOUS
10
-0.614714
20
1.36158
11
-0.681356
21
1.3298
0
LINE
8
BLACK
6
CONTINUOUS
10
-0.681356
20
1.3298
11
-0.681428
21
1.32977
0
LINE
8
BLACK
6
CONTINUOUS
10
-0.681428
20
1.32977
11
-0.681479
21
1.32974
0
LINE
8
BLACK
6
CONTINUOUS
10
-0.681479
20
1.32974
11
-0.681573
21
1.32969
0
LINE
8
BLACK
6
CONTINUOUS
10
-0.681573
20
1.32969
11
-0.681621
21
1.32967
0
LINE
8
BLACK
6
CONTINUOUS
10
-0.681621
20
1.32967
11
-0.681686
21
1.32963
0
LINE
8
BLACK
6
CONTINUOUS
10
-0.681686
20
1.32963
11
-0.746585
21
1.29439
0
LINE
8
BLACK
6
CONTINUOUS
10
-0.746585
20
1.29439
11
-0.746653
21
1.29436
0
LINE
8
BLACK
6
CONTINUOUS
10
-0.746653
20
1.29436
11
-0.746688
21
1.29434
0
LINE
8
BLACK
6
CONTINUOUS
10
-0.746688
20
1.29434
11
-0.746783
21
1.29428
0
LINE
8
BLACK
6
CONTINUOUS
10
-0.746783
20
1.29428
11
-0.746827
21
1.29426
0
LINE
8
BLACK
6
CONTINUOUS
10
-0.746827
20
1.29426
11
-0.746891
21
1.29421
0
LINE
8
BLACK
6
CONTINUOUS
10
-0.746891
20
1.29421
11
-0.798096
21
1.26283
0
LINE
8
BLACK
6
CONTINUOUS
10
-0.798096
20
1.26283
11
-0.809848
21
1.25563
0
LINE
8
BLACK
6
CONTINUOUS
10
-0.809848
20
1.25563
11
-0.809914
21
1.2556
0
LINE
8
BLACK
6
CONTINUOUS
10
-0.809914
20
1.2556
11
-0.809962
21
1.25556
0
LINE
8
BLACK
6
CONTINUOUS
10
-0.809962
20
1.25556
11
-0.810043
21
1.25551
0
LINE
8
BLACK
6
CONTINUOUS
10
-0.810043
20
1.25551
11
-0.810092
21
1.25548
0
LINE
8
BLACK
6
CONTINUOUS
10
-0.810092
20
1.25548
11
-0.810152
21
1.25543
0
LINE
8
BLACK
6
CONTINUOUS
10
-0.810152
20
1.25543
11
-0.870788
21
1.21376
0
LINE
8
BLACK
6
CONTINUOUS
10
-0.870788
20
1.21376
11
-0.870874
21
1.21371
0
LINE
8
BLACK
6
CONTINUOUS
10
-0.870874
20
1.21371
11
-0.871158
21
1.21351
0
LINE
8
BLACK
6
CONTINUOUS
10
-0.871158
20
1.21351
11
-0.871272
21
1.21343
0
LINE
8
BLACK
6
CONTINUOUS
10
-0.871272
20
1.21343
11
-0.871308
21
1.2134
0
LINE
8
BLACK
6
CONTINUOUS
10
-0.871308
20
1.2134
11
-0.884334
21
1.20393
0
LINE
8
BLACK
6
CONTINUOUS
10
-0.884334
20
1.20393
11
-0.884374
21
1.20391
0
LINE
8
BLACK
6
CONTINUOUS
10
-0.884374
20
1.20391
11
-0.884472
21
1.20383
0
LINE
8
BLACK
6
CONTINUOUS
10
-0.884472
20
1.20383
11
-0.884754
21
1.20362
0
LINE
8
BLACK
6
CONTINUOUS
10
-0.884754
20
1.20362
11
-0.884832
21
1.20355
0
LINE
8
BLACK
6
CONTINUOUS
10
-0.884832
20
1.20355
11
-0.943195
21
1.15877
0
LINE
8
BLACK
6
CONTINUOUS
10
-0.943195
20
1.15877
11
-0.943256
21
1.15873
0
LINE
8
BLACK
6
CONTINUOUS
10
-0.943256
20
1.15873
11
-0.943314
21
1.15868
0
LINE
8
BLACK
6
CONTINUOUS
10
-0.943314
20
1.15868
11
-0.943373
21
1.15863
0
LINE
8
BLACK
6
CONTINUOUS
10
-0.943373
20
1.15863
11
-0.943418
21
1.1586
0
LINE
8
BLACK
6
CONTINUOUS
10
-0.943418
20
1.1586
11
-0.943467
21
1.15855
0
LINE
8
BLACK
6
CONTINUOUS
10
-0.943467
20
1.15855
11
-0.999616
21
1.1106
0
LINE
8
BLACK
6
CONTINUOUS
10
-0.999616
20
1.1106
11
-0.99968
21
1.11055
0
LINE
8
BLACK
6
CONTINUOUS
10
-0.99968
20
1.11055
11
-0.99973
21
1.1105
0
LINE
8
BLACK
6
CONTINUOUS
10
-0.99973
20
1.1105
11
-0.999809
21
1.11043
0
LINE
8
BLACK
6
CONTINUOUS
10
-0.999809
20
1.11043
11
-0.999848
21
1.1104
0
LINE
8
BLACK
6
CONTINUOUS
10
-0.999848
20
1.1104
11
-0.9999
21
1.11034
0
LINE
8
BLACK
6
CONTINUOUS
10
-0.9999
20
1.11034
11
-1.05346
21
1.05952
0
LINE
8
BLACK
6
CONTINUOUS
10
-1.05346
20
1.05952
11
-1.05352
21
1.05947
0
LINE
8
BLACK
6
CONTINUOUS
10
-1.05352
20
1.05947
11
-1.05355
21
1.05943
0
LINE
8
BLACK
6
CONTINUOUS
10
-1.05355
20
1.05943
11
-1.05364
21
1.05935
0
LINE
8
BLACK
6
CONTINUOUS
10
-1.05364
20
1.05935
11
-1.05367
21
1.05931
0
LINE
8
BLACK
6
CONTINUOUS
10
-1.05367
20
1.05931
11
-1.05372
21
1.05925
0
LINE
8
BLACK
6
CONTINUOUS
10
-1.05372
20
1.05925
11
-1.10453
21
1.00571
0
LINE
8
BLACK
6
CONTINUOUS
10
-1.10453
20
1.00571
11
-1.10456
21
1.00569
0
LINE
8
BLACK
6
CONTINUOUS
10
-1.10456
20
1.00569
11
-1.10467
21
1.00556
0
LINE
8
BLACK
6
CONTINUOUS
10
-1.10467
20
1.00556
11
-1.10478
21
1.00545
0
LINE
8
BLACK
6
CONTINUOUS
10
-1.10478
20
1.00545
11
-1.1048
21
1.00542
0
LINE
8
BLACK
6
CONTINUOUS
10
-1.1048
20
1.00542
11
-1.11554
21
0.993488
0
LINE
8
BLACK
6
CONTINUOUS
10
-1.11554
20
0.993488
11
-1.11558
21
0.993455
0
LINE
8
BLACK
6
CONTINUOUS
10
-1.11558
20
0.993455
11
-1.11568
21
0.993332
0
LINE
8
BLACK
6
CONTINUOUS
10
-1.11568
20
0.993332
11
-1.11577
21
0.993239
0
LINE
8
BLACK
6
CONTINUOUS
10
-1.11577
20
0.993239
11
-1.11579
21
0.993203
0
LINE
8
BLACK
6
CONTINUOUS
10
-1.11579
20
0.993203
11
-1.13278
21
0.973322
0
LINE
8
BLACK
6
CONTINUOUS
10
-1.13278
20
0.973322
11
-1.16376
21
0.937047
0
LINE
8
BLACK
6
CONTINUOUS
10
-1.16376
20
0.937047
11
-1.16381
21
0.936989
0
LINE
8
BLACK
6
CONTINUOUS
10
-1.16381
20
0.936989
11
-1.16385
21
0.936948
0
LINE
8
BLACK
6
CONTINUOUS
10
-1.16385
20
0.936948
11
-1.16391
21
0.936866
0
LINE
8
BLACK
6
CONTINUOUS
10
-1.16391
20
0.936866
11
-1.16393
21
0.936846
0
LINE
8
BLACK
6
CONTINUOUS
10
-1.16393
20
0.936846
11
-1.16397
21
0.93679
0
LINE
8
BLACK
6
CONTINUOUS
10
-1.16397
20
0.93679
11
-1.1778
21
0.91876
0
LINE
8
BLACK
6
CONTINUOUS
10
-1.1778
20
0.91876
11
-1.17913
21
0.917035
0
LINE
8
BLACK
6
CONTINUOUS
10
-1.17913
20
0.917035
11
-1.17913
21
0.917033
0
LINE
8
BLACK
6
CONTINUOUS
10
-1.17913
20
0.917033
11
-1.18338
21
0.911489
0
LINE
8
BLACK
6
CONTINUOUS
10
-1.18338
20
0.911489
11
-1.19022
21
0.902571
0
LINE
8
BLACK
6
CONTINUOUS
10
-1.19022
20
0.902571
11
-1.19022
21
0.902571
0
LINE
8
BLACK
6
CONTINUOUS
10
-1.19022
20
0.902571
11
-1.19034
21
0.902419
0
LINE
8
BLACK
6
CONTINUOUS
10
-1.19034
20
0.902419
11
-1.19034
21
0.902419
0
LINE
8
BLACK
6
CONTINUOUS
10
-1.19034
20
0.902419
11
-1.19322
21
0.898665
0
LINE
8
BLACK
6
CONTINUOUS
10
-1.19322
20
0.898665
11
-1.20006
21
0.889753
0
LINE
8
BLACK
6
CONTINUOUS
10
-1.20006
20
0.889753
11
-1.20894
21
0.878178
0
LINE
8
BLACK
6
CONTINUOUS
10
-1.20894
20
0.878178
11
-1.20899
21
0.878116
0
LINE
8
BLACK
6
CONTINUOUS
10
-1.20899
20
0.878116
11
-1.20901
21
0.878094
0
LINE
8
BLACK
6
CONTINUOUS
10
-1.20901
20
0.878094
11
-1.20909
21
0.877978
0
LINE
8
BLACK
6
CONTINUOUS
10
-1.20909
20
0.877978
11
-1.2091
21
0.877961
0
LINE
8
BLACK
6
CONTINUOUS
10
-1.2091
20
0.877961
11
-1.20915
21
0.877892
0
LINE
8
BLACK
6
CONTINUOUS
10
-1.20915
20
0.877892
11
-1.21258
21
0.872893
0
LINE
8
BLACK
6
CONTINUOUS
10
-1.21258
20
0.872893
11
-1.21258
21
0.872892
0
LINE
8
BLACK
6
CONTINUOUS
10
-1.21258
20
0.872892
11
-1.22588
21
0.85355
0
LINE
8
BLACK
6
CONTINUOUS
10
-1.22588
20
0.85355
11
-1.22588
21
0.853549
0
LINE
8
BLACK
6
CONTINUOUS
10
-1.22588
20
0.853549
11
-1.23041
21
0.846957
0
LINE
8
BLACK
6
CONTINUOUS
10
-1.23041
20
0.846957
11
-1.23047
21
0.84688
0
LINE
8
BLACK
6
CONTINUOUS
10
-1.23047
20
0.84688
11
-1.23055
21
0.846758
0
LINE
8
BLACK
6
CONTINUOUS
10
-1.23055
20
0.846758
11
-1.23059
21
0.846671
0
LINE
8
BLACK
6
CONTINUOUS
10
-1.23059
20
0.846671
11
-1.2385
21
0.832977
0
LINE
8
BLACK
6
CONTINUOUS
10
-1.2385
20
0.832977
11
-1.23856
21
0.832892
0
LINE
8
BLACK
6
CONTINUOUS
10
-1.23856
20
0.832892
11
-1.23874
21
0.832567
0
LINE
8
BLACK
6
CONTINUOUS
10
-1.23874
20
0.832567
11
-1.23888
21
0.832126
0
LINE
8
BLACK
6
CONTINUOUS
10
-1.23888
20
0.832126
11
-1.2389
21
0.832067
0
LINE
8
BLACK
6
CONTINUOUS
10
-1.2389
20
0.832067
11
-1.24366
21
0.817395
0
LINE
8
BLACK
6
CONTINUOUS
10
-1.24366
20
0.817395
11
-1.24368
21
0.817352
0
LINE
8
BLACK
6
CONTINUOUS
10
-1.24368
20
0.817352
11
-1.24382
21
0.816906
0
LINE
8
BLACK
6
CONTINUOUS
10
-1.24382
20
0.816906
11
-1.24387
21
0.816498
0
LINE
8
BLACK
6
CONTINUOUS
10
-1.24387
20
0.816498
11
-1.24387
21
0.816428
0
LINE
8
BLACK
6
CONTINUOUS
10
-1.24387
20
0.816428
11
-1.24549
21
0.801066
0
LINE
8
BLACK
6
CONTINUOUS
10
-1.24549
20
0.801066
11
-1.24549
21
0.801034
0
LINE
8
BLACK
6
CONTINUOUS
10
-1.24549
20
0.801034
11
-1.24554
21
0.800532
0
LINE
8
BLACK
6
CONTINUOUS
10
-1.24554
20
0.800532
11
-1.24549
21
0.799999
0
CIRCLE
8
BLACK
10
-1.32976
20
0.7041
40
0.00787402
0
CIRCLE
8
BLACK
10
0
20
0.283465
40
0.00787402
0
CIRCLE
8
BLACK
10
1.50676
20
0.0532672
40
0.00787402
0
CIRCLE
8
BLACK
10
1.43465
20
-0.464922
40
0.00787402
0
CIRCLE
8
BLACK
10
-1.27515
20
-0.801357
40
0.00787402
0
CIRCLE
8
BLACK
10
-1.49076
20
0.206305
40
0.00787402
0
CIRCLE
8
BLACK
10
-1.43204
20
0.462245
40
0.00787402
0
CIRCLE
8
BLACK
10
-1.11684
20
-1.01086
40
0.00787402
0
CIRCLE
8
BLACK
10
1.49337
20
-0.208982
40
0.00787402
0
CIRCLE
8
BLACK
10
-0.299213
20
0
40
0.00787402
0
CIRCLE
8
BLACK
10
1.11945
20
1.00818
40
0.00787402
0
CIRCLE
8
BLACK
10
1.47441
20
0.313857
40
0.00787402
0
CIRCLE
8
BLACK
10
-1.39468
20
-0.567548
40
0.00787402
0
CIRCLE
8
BLACK
10
1.3973
20
0.564871
40
0.00787402
0
CIRCLE
8
BLACK
10
-0.924551
20
-1.18969
40
0.00787402
0
CIRCLE
8
BLACK
10
0.216535
20
0.204724
40
0.00787402
0
CIRCLE
8
BLACK
10
-0.208661
20
0.204724
40
0.00787402
0
CIRCLE
8
BLACK
10
-0.208661
20
-0.204724
40
0.00787402
0
CIRCLE
8
BLACK
10
-1.50415
20
-0.0559444
40
0.00787402
0
CIRCLE
8
BLACK
10
0.927165
20
1.18701
40
0.00787402
0
CIRCLE
8
BLACK
10
1.33237
20
-0.706777
40
0.00787402
0
CIRCLE
8
BLACK
10
0
20
-0.291339
40
0.00787402
0
CIRCLE
8
BLACK
10
1.27777
20
0.79868
40
0.00787402
0
CIRCLE
8
BLACK
10
0.216535
20
-0.204724
40
0.00787402
0
CIRCLE
8
BLACK
10
0.287402
20
0
40
0.00787402
0
CIRCLE
8
BLACK
10
-1.4718
20
-0.316535
40
0.00787402
  0
ENDSEC
  0
EOF
