  0
SECTION
  2
HEADER
  9
$ANGBASE
  50
0.0
  9
$ANGDIR
  70
1
  9
$MEASUREMENT
  70
0
  0
ENDSEC
  0
SECTION
  2
TABLES
  0
TABLE
  2
LTYPE
  70
4
  0
LTYPE
  5
40F
  2
CONTINUOUS
  70
0
  3
Solid line
  72
65
  73
0
  40
0.0
  0
LTYPE
  5
410
  2
DASHDOT
 70
0
  3
Dash Dot ____ _ ____ _
 72
65
 73
4
 40
2.0
 49
1.25
 49
-0.25
 49
0.25
 49
-0.25
  0
LTYPE
  5
411
  2
DASHED
 70
0
  3
Dashed __ __ __ __ __
 72
65
 73
2
 40
0.75
 49
0.5
 49
-0.25
  0
LTYPE
  5
43B
  2
DOTTED
 70
0
  3
Dotted .  .  .  .
 72
65
 73
2
 40
0.2
 49
0.0
 49
-0.2
  0
ENDTAB
  0
TABLE
  2
STYLE
  70
4
  0
STYLE
  2
KICAD
  70
0
  40
0
  41
1
  42
1
  50
0
  71
0
  3
isocp.shx
  0
STYLE
  2
KICADB
  70
0
  40
0
  41
1
  42
1
  50
0
  71
0
  3
isocp.shx
  0
STYLE
  2
KICADI
  70
0
  40
0
  41
1
  42
1
  50
15
  71
0
  3
isocp.shx
  0
STYLE
  2
KICADBI
  70
0
  40
0
  41
1
  42
1
  50
15
  71
0
  3
isocp.shx
  0
ENDTAB
  0
TABLE
  2
LAYER
  70
1
  0
LAYER
  2
BLACK
  70
0
  62
7
  6
CONTINUOUS
  0
ENDTAB
  0
ENDSEC
  0
SECTION
  2
ENTITIES
0
LINE
8
BLACK
6
CONTINUOUS
10
0.0836487
20
1.57131
11
0.0838021
21
1.5713
0
LINE
8
BLACK
6
CONTINUOUS
10
0.0838021
20
1.5713
11
0.165842
21
1.56484
0
LINE
8
BLACK
6
CONTINUOUS
10
0.165842
20
1.56484
11
0.165995
21
1.56483
0
LINE
8
BLACK
6
CONTINUOUS
10
0.165995
20
1.56483
11
0.247585
21
1.55408
0
LINE
8
BLACK
6
CONTINUOUS
10
0.247585
20
1.55408
11
0.247736
21
1.55406
0
LINE
8
BLACK
6
CONTINUOUS
10
0.247736
20
1.55406
11
0.328651
21
1.53907
0
LINE
8
BLACK
6
CONTINUOUS
10
0.328651
20
1.53907
11
0.328801
21
1.53903
0
LINE
8
BLACK
6
CONTINUOUS
10
0.328801
20
1.53903
11
0.408823
21
1.51982
0
LINE
8
BLACK
6
CONTINUOUS
10
0.408823
20
1.51982
11
0.408971
21
1.51978
0
LINE
8
BLACK
6
CONTINUOUS
10
0.408971
20
1.51978
11
0.487874
21
1.49641
0
LINE
8
BLACK
6
CONTINUOUS
10
0.487874
20
1.49641
11
0.488021
21
1.49636
0
LINE
8
BLACK
6
CONTINUOUS
10
0.488021
20
1.49636
11
0.565592
21
1.46889
0
LINE
8
BLACK
6
CONTINUOUS
10
0.565592
20
1.46889
11
0.565736
21
1.46884
0
LINE
8
BLACK
6
CONTINUOUS
10
0.565736
20
1.46884
11
0.641768
21
1.43734
0
LINE
8
BLACK
6
CONTINUOUS
10
0.641768
20
1.43734
11
0.641908
21
1.43728
0
LINE
8
BLACK
6
CONTINUOUS
10
0.641908
20
1.43728
11
0.716182
21
1.40186
0
LINE
8
BLACK
6
CONTINUOUS
10
0.716182
20
1.40186
11
0.716319
21
1.40179
0
LINE
8
BLACK
6
CONTINUOUS
10
0.716319
20
1.40179
11
0.788641
21
1.36252
0
LINE
8
BLACK
6
CONTINUOUS
10
0.788641
20
1.36252
11
0.788773
21
1.36244
0
LINE
8
BLACK
6
CONTINUOUS
10
0.788773
20
1.36244
11
0.858942
21
1.31944
0
LINE
8
BLACK
6
CONTINUOUS
10
0.858942
20
1.31944
11
0.859071
21
1.31936
0
LINE
8
BLACK
6
CONTINUOUS
10
0.859071
20
1.31936
11
0.926889
21
1.27275
0
LINE
8
BLACK
6
CONTINUOUS
10
0.926889
20
1.27275
11
0.927013
21
1.27266
0
LINE
8
BLACK
6
CONTINUOUS
10
0.927013
20
1.27266
11
0.9923
21
1.22256
0
LINE
8
BLACK
6
CONTINUOUS
10
0.9923
20
1.22256
11
0.99242
21
1.22246
0
LINE
8
BLACK
6
CONTINUOUS
10
0.99242
20
1.22246
11
1.055
21
1.16902
0
LINE
8
BLACK
6
CONTINUOUS
10
1.055
20
1.16902
11
1.05511
21
1.16892
0
LINE
8
BLACK
6
CONTINUOUS
10
1.05511
20
1.16892
11
1.11481
21
1.11227
0
LINE
8
BLACK
6
CONTINUOUS
10
1.11481
20
1.11227
11
1.11491
21
1.11216
0
LINE
8
BLACK
6
CONTINUOUS
10
1.11491
20
1.11216
11
1.17156
21
1.05247
0
LINE
8
BLACK
6
CONTINUOUS
10
1.17156
20
1.05247
11
1.17166
21
1.05235
0
LINE
8
BLACK
6
CONTINUOUS
10
1.17166
20
1.05235
11
1.22511
21
0.989775
0
LINE
8
BLACK
6
CONTINUOUS
10
1.22511
20
0.989775
11
1.2252
21
0.989655
0
LINE
8
BLACK
6
CONTINUOUS
10
1.2252
20
0.989655
11
1.2753
21
0.924369
0
LINE
8
BLACK
6
CONTINUOUS
10
1.2753
20
0.924369
11
1.27539
21
0.924244
0
LINE
8
BLACK
6
CONTINUOUS
10
1.27539
20
0.924244
11
1.322
21
0.856426
0
LINE
8
BLACK
6
CONTINUOUS
10
1.322
20
0.856426
11
1.32209
21
0.856297
0
LINE
8
BLACK
6
CONTINUOUS
10
1.32209
20
0.856297
11
1.36509
21
0.786128
0
LINE
8
BLACK
6
CONTINUOUS
10
1.36509
20
0.786128
11
1.36516
21
0.785996
0
LINE
8
BLACK
6
CONTINUOUS
10
1.36516
20
0.785996
11
1.40443
21
0.713674
0
LINE
8
BLACK
6
CONTINUOUS
10
1.40443
20
0.713674
11
1.4045
21
0.713537
0
LINE
8
BLACK
6
CONTINUOUS
10
1.4045
20
0.713537
11
1.43993
21
0.639263
0
LINE
8
BLACK
6
CONTINUOUS
10
1.43993
20
0.639263
11
1.43999
21
0.639123
0
LINE
8
BLACK
6
CONTINUOUS
10
1.43999
20
0.639123
11
1.47148
21
0.56309
0
LINE
8
BLACK
6
CONTINUOUS
10
1.47148
20
0.56309
11
1.47154
21
0.562947
0
LINE
8
BLACK
6
CONTINUOUS
10
1.47154
20
0.562947
11
1.49901
21
0.485376
0
LINE
8
BLACK
6
CONTINUOUS
10
1.49901
20
0.485376
11
1.49906
21
0.485229
0
LINE
8
BLACK
6
CONTINUOUS
10
1.49906
20
0.485229
11
1.52243
21
0.406326
0
LINE
8
BLACK
6
CONTINUOUS
10
1.52243
20
0.406326
11
1.52247
21
0.406178
0
LINE
8
BLACK
6
CONTINUOUS
10
1.52247
20
0.406178
11
1.54168
21
0.326156
0
LINE
8
BLACK
6
CONTINUOUS
10
1.54168
20
0.326156
11
1.54171
21
0.326006
0
LINE
8
BLACK
6
CONTINUOUS
10
1.54171
20
0.326006
11
1.55671
21
0.245091
0
LINE
8
BLACK
6
CONTINUOUS
10
1.55671
20
0.245091
11
1.55673
21
0.24494
0
LINE
8
BLACK
6
CONTINUOUS
10
1.55673
20
0.24494
11
1.56747
21
0.16335
0
LINE
8
BLACK
6
CONTINUOUS
10
1.56747
20
0.16335
11
1.56749
21
0.163197
0
LINE
8
BLACK
6
CONTINUOUS
10
1.56749
20
0.163197
11
1.57395
21
0.081157
0
LINE
8
BLACK
6
CONTINUOUS
10
1.57395
20
0.081157
11
1.57395
21
0.0810036
0
LINE
8
BLACK
6
CONTINUOUS
10
1.57395
20
0.0810036
11
1.57611
21
-0.00126142
0
LINE
8
BLACK
6
CONTINUOUS
10
1.57611
20
-0.00126142
11
1.57611
21
-0.00141504
0
LINE
8
BLACK
6
CONTINUOUS
10
1.57611
20
-0.00141504
11
1.57395
21
-0.0836801
0
LINE
8
BLACK
6
CONTINUOUS
10
1.57395
20
-0.0836801
11
1.57395
21
-0.0838335
0
LINE
8
BLACK
6
CONTINUOUS
10
1.57395
20
-0.0838335
11
1.56749
21
-0.165874
0
LINE
8
BLACK
6
CONTINUOUS
10
1.56749
20
-0.165874
11
1.56747
21
-0.166026
0
LINE
8
BLACK
6
CONTINUOUS
10
1.56747
20
-0.166026
11
1.55673
21
-0.247616
0
LINE
8
BLACK
6
CONTINUOUS
10
1.55673
20
-0.247616
11
1.55671
21
-0.247768
0
LINE
8
BLACK
6
CONTINUOUS
10
1.55671
20
-0.247768
11
1.54171
21
-0.328682
0
LINE
8
BLACK
6
CONTINUOUS
10
1.54171
20
-0.328682
11
1.54168
21
-0.328833
0
LINE
8
BLACK
6
CONTINUOUS
10
1.54168
20
-0.328833
11
1.52247
21
-0.408855
0
LINE
8
BLACK
6
CONTINUOUS
10
1.52247
20
-0.408855
11
1.52243
21
-0.409003
0
LINE
8
BLACK
6
CONTINUOUS
10
1.52243
20
-0.409003
11
1.49906
21
-0.487906
0
LINE
8
BLACK
6
CONTINUOUS
10
1.49906
20
-0.487906
11
1.49901
21
-0.488052
0
LINE
8
BLACK
6
CONTINUOUS
10
1.49901
20
-0.488052
11
1.47154
21
-0.565624
0
LINE
8
BLACK
6
CONTINUOUS
10
1.47154
20
-0.565624
11
1.47148
21
-0.565767
0
LINE
8
BLACK
6
CONTINUOUS
10
1.47148
20
-0.565767
11
1.43999
21
-0.641799
0
LINE
8
BLACK
6
CONTINUOUS
10
1.43999
20
-0.641799
11
1.43993
21
-0.641939
0
LINE
8
BLACK
6
CONTINUOUS
10
1.43993
20
-0.641939
11
1.4045
21
-0.716214
0
LINE
8
BLACK
6
CONTINUOUS
10
1.4045
20
-0.716214
11
1.40443
21
-0.716351
0
LINE
8
BLACK
6
CONTINUOUS
10
1.40443
20
-0.716351
11
1.36516
21
-0.788672
0
LINE
8
BLACK
6
CONTINUOUS
10
1.36516
20
-0.788672
11
1.36509
21
-0.788805
0
LINE
8
BLACK
6
CONTINUOUS
10
1.36509
20
-0.788805
11
1.32209
21
-0.858973
0
LINE
8
BLACK
6
CONTINUOUS
10
1.32209
20
-0.858973
11
1.322
21
-0.859102
0
LINE
8
BLACK
6
CONTINUOUS
10
1.322
20
-0.859102
11
1.27539
21
-0.92692
0
LINE
8
BLACK
6
CONTINUOUS
10
1.27539
20
-0.92692
11
1.2753
21
-0.927045
0
LINE
8
BLACK
6
CONTINUOUS
10
1.2753
20
-0.927045
11
1.2252
21
-0.992332
0
LINE
8
BLACK
6
CONTINUOUS
10
1.2252
20
-0.992332
11
1.22511
21
-0.992451
0
LINE
8
BLACK
6
CONTINUOUS
10
1.22511
20
-0.992451
11
1.17166
21
-1.05503
0
LINE
8
BLACK
6
CONTINUOUS
10
1.17166
20
-1.05503
11
1.17156
21
-1.05514
0
LINE
8
BLACK
6
CONTINUOUS
10
1.17156
20
-1.05514
11
1.11491
21
-1.11484
0
LINE
8
BLACK
6
CONTINUOUS
10
1.11491
20
-1.11484
11
1.11481
21
-1.11495
0
LINE
8
BLACK
6
CONTINUOUS
10
1.11481
20
-1.11495
11
1.05511
21
-1.17159
0
LINE
8
BLACK
6
CONTINUOUS
10
1.05511
20
-1.17159
11
1.055
21
-1.1717
0
LINE
8
BLACK
6
CONTINUOUS
10
1.055
20
-1.1717
11
0.99242
21
-1.22514
0
LINE
8
BLACK
6
CONTINUOUS
10
0.99242
20
-1.22514
11
0.992301
21
-1.22524
0
LINE
8
BLACK
6
CONTINUOUS
10
0.992301
20
-1.22524
11
0.927013
21
-1.27533
0
LINE
8
BLACK
6
CONTINUOUS
10
0.927013
20
-1.27533
11
0.926889
21
-1.27543
0
LINE
8
BLACK
6
CONTINUOUS
10
0.926889
20
-1.27543
11
0.859071
21
-1.32203
0
LINE
8
BLACK
6
CONTINUOUS
10
0.859071
20
-1.32203
11
0.858942
21
-1.32212
0
LINE
8
BLACK
6
CONTINUOUS
10
0.858942
20
-1.32212
11
0.788773
21
-1.36512
0
LINE
8
BLACK
6
CONTINUOUS
10
0.788773
20
-1.36512
11
0.788641
21
-1.36519
0
LINE
8
BLACK
6
CONTINUOUS
10
0.788641
20
-1.36519
11
0.716319
21
-1.40446
0
LINE
8
BLACK
6
CONTINUOUS
10
0.716319
20
-1.40446
11
0.716182
21
-1.40453
0
LINE
8
BLACK
6
CONTINUOUS
10
0.716182
20
-1.40453
11
0.641908
21
-1.43996
0
LINE
8
BLACK
6
CONTINUOUS
10
0.641908
20
-1.43996
11
0.641768
21
-1.44002
0
LINE
8
BLACK
6
CONTINUOUS
10
0.641768
20
-1.44002
11
0.565735
21
-1.47151
0
LINE
8
BLACK
6
CONTINUOUS
10
0.565735
20
-1.47151
11
0.565592
21
-1.47157
0
LINE
8
BLACK
6
CONTINUOUS
10
0.565592
20
-1.47157
11
0.488021
21
-1.49904
0
LINE
8
BLACK
6
CONTINUOUS
10
0.488021
20
-1.49904
11
0.487875
21
-1.49909
0
LINE
8
BLACK
6
CONTINUOUS
10
0.487875
20
-1.49909
11
0.408971
21
-1.52246
0
LINE
8
BLACK
6
CONTINUOUS
10
0.408971
20
-1.52246
11
0.408823
21
-1.5225
0
LINE
8
BLACK
6
CONTINUOUS
10
0.408823
20
-1.5225
11
0.328801
21
-1.54171
0
LINE
8
BLACK
6
CONTINUOUS
10
0.328801
20
-1.54171
11
0.328651
21
-1.54174
0
LINE
8
BLACK
6
CONTINUOUS
10
0.328651
20
-1.54174
11
0.247736
21
-1.55674
0
LINE
8
BLACK
6
CONTINUOUS
10
0.247736
20
-1.55674
11
0.247585
21
-1.55676
0
LINE
8
BLACK
6
CONTINUOUS
10
0.247585
20
-1.55676
11
0.165995
21
-1.5675
0
LINE
8
BLACK
6
CONTINUOUS
10
0.165995
20
-1.5675
11
0.165842
21
-1.56752
0
LINE
8
BLACK
6
CONTINUOUS
10
0.165842
20
-1.56752
11
0.083802
21
-1.57398
0
LINE
8
BLACK
6
CONTINUOUS
10
0.083802
20
-1.57398
11
0.0836486
21
-1.57399
0
LINE
8
BLACK
6
CONTINUOUS
10
0.0836486
20
-1.57399
11
0.0013835
21
-1.57614
0
LINE
8
BLACK
6
CONTINUOUS
10
0.0013835
20
-1.57614
11
0.00122996
21
-1.57614
0
LINE
8
BLACK
6
CONTINUOUS
10
0.00122996
20
-1.57614
11
-0.0810351
21
-1.57399
0
LINE
8
BLACK
6
CONTINUOUS
10
-0.0810351
20
-1.57399
11
-0.0811885
21
-1.57398
0
LINE
8
BLACK
6
CONTINUOUS
10
-0.0811885
20
-1.57398
11
-0.163229
21
-1.56752
0
LINE
8
BLACK
6
CONTINUOUS
10
-0.163229
20
-1.56752
11
-0.163381
21
-1.5675
0
LINE
8
BLACK
6
CONTINUOUS
10
-0.163381
20
-1.5675
11
-0.244971
21
-1.55676
0
LINE
8
BLACK
6
CONTINUOUS
10
-0.244971
20
-1.55676
11
-0.245123
21
-1.55674
0
LINE
8
BLACK
6
CONTINUOUS
10
-0.245123
20
-1.55674
11
-0.326037
21
-1.54174
0
LINE
8
BLACK
6
CONTINUOUS
10
-0.326037
20
-1.54174
11
-0.326188
21
-1.54171
0
LINE
8
BLACK
6
CONTINUOUS
10
-0.326188
20
-1.54171
11
-0.40621
21
-1.5225
0
LINE
8
BLACK
6
CONTINUOUS
10
-0.40621
20
-1.5225
11
-0.406358
21
-1.52246
0
LINE
8
BLACK
6
CONTINUOUS
10
-0.406358
20
-1.52246
11
-0.485261
21
-1.49909
0
LINE
8
BLACK
6
CONTINUOUS
10
-0.485261
20
-1.49909
11
-0.485407
21
-1.49904
0
LINE
8
BLACK
6
CONTINUOUS
10
-0.485407
20
-1.49904
11
-0.562978
21
-1.47157
0
LINE
8
BLACK
6
CONTINUOUS
10
-0.562978
20
-1.47157
11
-0.563122
21
-1.47151
0
LINE
8
BLACK
6
CONTINUOUS
10
-0.563122
20
-1.47151
11
-0.639154
21
-1.44002
0
LINE
8
BLACK
6
CONTINUOUS
10
-0.639154
20
-1.44002
11
-0.639294
21
-1.43996
0
LINE
8
BLACK
6
CONTINUOUS
10
-0.639294
20
-1.43996
11
-0.713569
21
-1.40453
0
LINE
8
BLACK
6
CONTINUOUS
10
-0.713569
20
-1.40453
11
-0.713706
21
-1.40446
0
LINE
8
BLACK
6
CONTINUOUS
10
-0.713706
20
-1.40446
11
-0.786027
21
-1.36519
0
LINE
8
BLACK
6
CONTINUOUS
10
-0.786027
20
-1.36519
11
-0.78616
21
-1.36512
0
LINE
8
BLACK
6
CONTINUOUS
10
-0.78616
20
-1.36512
11
-0.856328
21
-1.32212
0
LINE
8
BLACK
6
CONTINUOUS
10
-0.856328
20
-1.32212
11
-0.856457
21
-1.32203
0
LINE
8
BLACK
6
CONTINUOUS
10
-0.856457
20
-1.32203
11
-0.924276
21
-1.27542
0
LINE
8
BLACK
6
CONTINUOUS
10
-0.924276
20
-1.27542
11
-0.9244
21
-1.27533
0
LINE
8
BLACK
6
CONTINUOUS
10
-0.9244
20
-1.27533
11
-0.989687
21
-1.22524
0
LINE
8
BLACK
6
CONTINUOUS
10
-0.989687
20
-1.22524
11
-0.989806
21
-1.22514
0
LINE
8
BLACK
6
CONTINUOUS
10
-0.989806
20
-1.22514
11
-1.05238
21
-1.17169
0
LINE
8
BLACK
6
CONTINUOUS
10
-1.05238
20
-1.17169
11
-1.0525
21
-1.17159
0
LINE
8
BLACK
6
CONTINUOUS
10
-1.0525
20
-1.17159
11
-1.11219
21
-1.11495
0
LINE
8
BLACK
6
CONTINUOUS
10
-1.11219
20
-1.11495
11
-1.1123
21
-1.11484
0
LINE
8
BLACK
6
CONTINUOUS
10
-1.1123
20
-1.11484
11
-1.16895
21
-1.05514
0
LINE
8
BLACK
6
CONTINUOUS
10
-1.16895
20
-1.05514
11
-1.16905
21
-1.05503
0
LINE
8
BLACK
6
CONTINUOUS
10
-1.16905
20
-1.05503
11
-1.22249
21
-0.992451
0
LINE
8
BLACK
6
CONTINUOUS
10
-1.22249
20
-0.992451
11
-1.22259
21
-0.992332
0
LINE
8
BLACK
6
CONTINUOUS
10
-1.22259
20
-0.992332
11
-1.27269
21
-0.927045
0
LINE
8
BLACK
6
CONTINUOUS
10
-1.27269
20
-0.927045
11
-1.27278
21
-0.926921
0
LINE
8
BLACK
6
CONTINUOUS
10
-1.27278
20
-0.926921
11
-1.31939
21
-0.859102
0
LINE
8
BLACK
6
CONTINUOUS
10
-1.31939
20
-0.859102
11
-1.31947
21
-0.858973
0
LINE
8
BLACK
6
CONTINUOUS
10
-1.31947
20
-0.858973
11
-1.36247
21
-0.788805
0
LINE
8
BLACK
6
CONTINUOUS
10
-1.36247
20
-0.788805
11
-1.36255
21
-0.788672
0
LINE
8
BLACK
6
CONTINUOUS
10
-1.36255
20
-0.788672
11
-1.40182
21
-0.716351
0
LINE
8
BLACK
6
CONTINUOUS
10
-1.40182
20
-0.716351
11
-1.40189
21
-0.716214
0
LINE
8
BLACK
6
CONTINUOUS
10
-1.40189
20
-0.716214
11
-1.43731
21
-0.641939
0
LINE
8
BLACK
6
CONTINUOUS
10
-1.43731
20
-0.641939
11
-1.43738
21
-0.641799
0
LINE
8
BLACK
6
CONTINUOUS
10
-1.43738
20
-0.641799
11
-1.46887
21
-0.565767
0
LINE
8
BLACK
6
CONTINUOUS
10
-1.46887
20
-0.565767
11
-1.46892
21
-0.565624
0
LINE
8
BLACK
6
CONTINUOUS
10
-1.46892
20
-0.565624
11
-1.4964
21
-0.488052
0
LINE
8
BLACK
6
CONTINUOUS
10
-1.4964
20
-0.488052
11
-1.49644
21
-0.487906
0
LINE
8
BLACK
6
CONTINUOUS
10
-1.49644
20
-0.487906
11
-1.51981
21
-0.409003
0
LINE
8
BLACK
6
CONTINUOUS
10
-1.51981
20
-0.409003
11
-1.51985
21
-0.408855
0
LINE
8
BLACK
6
CONTINUOUS
10
-1.51985
20
-0.408855
11
-1.53906
21
-0.328833
0
LINE
8
BLACK
6
CONTINUOUS
10
-1.53906
20
-0.328833
11
-1.5391
21
-0.328682
0
LINE
8
BLACK
6
CONTINUOUS
10
-1.5391
20
-0.328682
11
-1.55409
21
-0.247768
0
LINE
8
BLACK
6
CONTINUOUS
10
-1.55409
20
-0.247768
11
-1.55412
21
-0.247616
0
LINE
8
BLACK
6
CONTINUOUS
10
-1.55412
20
-0.247616
11
-1.56486
21
-0.166026
0
LINE
8
BLACK
6
CONTINUOUS
10
-1.56486
20
-0.166026
11
-1.56488
21
-0.165874
0
LINE
8
BLACK
6
CONTINUOUS
10
-1.56488
20
-0.165874
11
-1.57133
21
-0.0838336
0
LINE
8
BLACK
6
CONTINUOUS
10
-1.57133
20
-0.0838336
11
-1.57134
21
-0.0836802
0
LINE
8
BLACK
6
CONTINUOUS
10
-1.57134
20
-0.0836802
11
-1.57349
21
-0.00141496
0
LINE
8
BLACK
6
CONTINUOUS
10
-1.57349
20
-0.00141496
11
-1.57349
21
-0.00126157
0
LINE
8
BLACK
6
CONTINUOUS
10
-1.57349
20
-0.00126157
11
-1.57134
21
0.0810037
0
LINE
8
BLACK
6
CONTINUOUS
10
-1.57134
20
0.0810037
11
-1.57133
21
0.0811571
0
LINE
8
BLACK
6
CONTINUOUS
10
-1.57133
20
0.0811571
11
-1.56488
21
0.163197
0
LINE
8
BLACK
6
CONTINUOUS
10
-1.56488
20
0.163197
11
-1.56486
21
0.16335
0
LINE
8
BLACK
6
CONTINUOUS
10
-1.56486
20
0.16335
11
-1.55412
21
0.24494
0
LINE
8
BLACK
6
CONTINUOUS
10
-1.55412
20
0.24494
11
-1.55409
21
0.245091
0
LINE
8
BLACK
6
CONTINUOUS
10
-1.55409
20
0.245091
11
-1.5391
21
0.326006
0
LINE
8
BLACK
6
CONTINUOUS
10
-1.5391
20
0.326006
11
-1.53906
21
0.326156
0
LINE
8
BLACK
6
CONTINUOUS
10
-1.53906
20
0.326156
11
-1.51985
21
0.406178
0
LINE
8
BLACK
6
CONTINUOUS
10
-1.51985
20
0.406178
11
-1.51981
21
0.406326
0
LINE
8
BLACK
6
CONTINUOUS
10
-1.51981
20
0.406326
11
-1.49644
21
0.485229
0
LINE
8
BLACK
6
CONTINUOUS
10
-1.49644
20
0.485229
11
-1.4964
21
0.485376
0
LINE
8
BLACK
6
CONTINUOUS
10
-1.4964
20
0.485376
11
-1.46892
21
0.562947
0
LINE
8
BLACK
6
CONTINUOUS
10
-1.46892
20
0.562947
11
-1.46887
21
0.56309
0
LINE
8
BLACK
6
CONTINUOUS
10
-1.46887
20
0.56309
11
-1.43738
21
0.639123
0
LINE
8
BLACK
6
CONTINUOUS
10
-1.43738
20
0.639123
11
-1.43731
21
0.639263
0
LINE
8
BLACK
6
CONTINUOUS
10
-1.43731
20
0.639263
11
-1.40189
21
0.713537
0
LINE
8
BLACK
6
CONTINUOUS
10
-1.40189
20
0.713537
11
-1.40182
21
0.713674
0
LINE
8
BLACK
6
CONTINUOUS
10
-1.40182
20
0.713674
11
-1.36255
21
0.785996
0
LINE
8
BLACK
6
CONTINUOUS
10
-1.36255
20
0.785996
11
-1.36247
21
0.786128
0
LINE
8
BLACK
6
CONTINUOUS
10
-1.36247
20
0.786128
11
-1.31947
21
0.856297
0
LINE
8
BLACK
6
CONTINUOUS
10
-1.31947
20
0.856297
11
-1.31939
21
0.856426
0
LINE
8
BLACK
6
CONTINUOUS
10
-1.31939
20
0.856426
11
-1.27278
21
0.924244
0
LINE
8
BLACK
6
CONTINUOUS
10
-1.27278
20
0.924244
11
-1.27269
21
0.924368
0
LINE
8
BLACK
6
CONTINUOUS
10
-1.27269
20
0.924368
11
-1.22259
21
0.989656
0
LINE
8
BLACK
6
CONTINUOUS
10
-1.22259
20
0.989656
11
-1.22249
21
0.989775
0
LINE
8
BLACK
6
CONTINUOUS
10
-1.22249
20
0.989775
11
-1.16905
21
1.05235
0
LINE
8
BLACK
6
CONTINUOUS
10
-1.16905
20
1.05235
11
-1.16895
21
1.05247
0
LINE
8
BLACK
6
CONTINUOUS
10
-1.16895
20
1.05247
11
-1.1123
21
1.11216
0
LINE
8
BLACK
6
CONTINUOUS
10
-1.1123
20
1.11216
11
-1.11219
21
1.11227
0
LINE
8
BLACK
6
CONTINUOUS
10
-1.11219
20
1.11227
11
-1.0525
21
1.16892
0
LINE
8
BLACK
6
CONTINUOUS
10
-1.0525
20
1.16892
11
-1.05238
21
1.16902
0
LINE
8
BLACK
6
CONTINUOUS
10
-1.05238
20
1.16902
11
-0.989807
21
1.22246
0
LINE
8
BLACK
6
CONTINUOUS
10
-0.989807
20
1.22246
11
-0.989687
21
1.22256
0
LINE
8
BLACK
6
CONTINUOUS
10
-0.989687
20
1.22256
11
-0.9244
21
1.27266
0
LINE
8
BLACK
6
CONTINUOUS
10
-0.9244
20
1.27266
11
-0.924275
21
1.27275
0
LINE
8
BLACK
6
CONTINUOUS
10
-0.924275
20
1.27275
11
-0.856457
21
1.31936
0
LINE
8
BLACK
6
CONTINUOUS
10
-0.856457
20
1.31936
11
-0.856328
21
1.31944
0
LINE
8
BLACK
6
CONTINUOUS
10
-0.856328
20
1.31944
11
-0.78616
21
1.36244
0
LINE
8
BLACK
6
CONTINUOUS
10
-0.78616
20
1.36244
11
-0.786027
21
1.36252
0
LINE
8
BLACK
6
CONTINUOUS
10
-0.786027
20
1.36252
11
-0.713706
21
1.40179
0
LINE
8
BLACK
6
CONTINUOUS
10
-0.713706
20
1.40179
11
-0.713569
21
1.40186
0
LINE
8
BLACK
6
CONTINUOUS
10
-0.713569
20
1.40186
11
-0.639294
21
1.43728
0
LINE
8
BLACK
6
CONTINUOUS
10
-0.639294
20
1.43728
11
-0.639154
21
1.43734
0
LINE
8
BLACK
6
CONTINUOUS
10
-0.639154
20
1.43734
11
-0.563122
21
1.46884
0
LINE
8
BLACK
6
CONTINUOUS
10
-0.563122
20
1.46884
11
-0.562979
21
1.46889
0
LINE
8
BLACK
6
CONTINUOUS
10
-0.562979
20
1.46889
11
-0.485407
21
1.49636
0
LINE
8
BLACK
6
CONTINUOUS
10
-0.485407
20
1.49636
11
-0.485261
21
1.49641
0
LINE
8
BLACK
6
CONTINUOUS
10
-0.485261
20
1.49641
11
-0.406358
21
1.51978
0
LINE
8
BLACK
6
CONTINUOUS
10
-0.406358
20
1.51978
11
-0.40621
21
1.51982
0
LINE
8
BLACK
6
CONTINUOUS
10
-0.40621
20
1.51982
11
-0.326188
21
1.53903
0
LINE
8
BLACK
6
CONTINUOUS
10
-0.326188
20
1.53903
11
-0.326037
21
1.53907
0
LINE
8
BLACK
6
CONTINUOUS
10
-0.326037
20
1.53907
11
-0.245123
21
1.55406
0
LINE
8
BLACK
6
CONTINUOUS
10
-0.245123
20
1.55406
11
-0.244971
21
1.55408
0
LINE
8
BLACK
6
CONTINUOUS
10
-0.244971
20
1.55408
11
-0.163381
21
1.56483
0
LINE
8
BLACK
6
CONTINUOUS
10
-0.163381
20
1.56483
11
-0.163229
21
1.56484
0
LINE
8
BLACK
6
CONTINUOUS
10
-0.163229
20
1.56484
11
-0.0811886
21
1.5713
0
LINE
8
BLACK
6
CONTINUOUS
10
-0.0811886
20
1.5713
11
-0.0810352
21
1.57131
0
LINE
8
BLACK
6
CONTINUOUS
10
-0.0810352
20
1.57131
11
0.00122996
21
1.57346
0
LINE
8
BLACK
6
CONTINUOUS
10
0.00122996
20
1.57346
11
0.0013835
21
1.57346
0
LINE
8
BLACK
6
CONTINUOUS
10
0.0013835
20
1.57346
11
0.0836487
21
1.57131
  0
ENDSEC
  0
EOF
