  0
SECTION
  2
HEADER
  9
$ANGBASE
  50
0.0
  9
$ANGDIR
  70
1
  9
$MEASUREMENT
  70
0
  0
ENDSEC
  0
SECTION
  2
TABLES
  0
TABLE
  2
LTYPE
  70
4
  0
LTYPE
  5
40F
  2
CONTINUOUS
  70
0
  3
Solid line
  72
65
  73
0
  40
0.0
  0
LTYPE
  5
410
  2
DASHDOT
 70
0
  3
Dash Dot ____ _ ____ _
 72
65
 73
4
 40
2.0
 49
1.25
 49
-0.25
 49
0.25
 49
-0.25
  0
LTYPE
  5
411
  2
DASHED
 70
0
  3
Dashed __ __ __ __ __
 72
65
 73
2
 40
0.75
 49
0.5
 49
-0.25
  0
LTYPE
  5
43B
  2
DOTTED
 70
0
  3
Dotted .  .  .  .
 72
65
 73
2
 40
0.2
 49
0.0
 49
-0.2
  0
ENDTAB
  0
TABLE
  2
STYLE
  70
4
  0
STYLE
  2
KICAD
  70
0
  40
0
  41
1
  42
1
  50
0
  71
0
  3
isocp.shx
  0
STYLE
  2
KICADB
  70
0
  40
0
  41
1
  42
1
  50
0
  71
0
  3
isocp.shx
  0
STYLE
  2
KICADI
  70
0
  40
0
  41
1
  42
1
  50
15
  71
0
  3
isocp.shx
  0
STYLE
  2
KICADBI
  70
0
  40
0
  41
1
  42
1
  50
15
  71
0
  3
isocp.shx
  0
ENDTAB
  0
TABLE
  2
LAYER
  70
1
  0
LAYER
  2
BLACK
  70
0
  62
7
  6
CONTINUOUS
  0
ENDTAB
  0
ENDSEC
  0
SECTION
  2
ENTITIES
0
LINE
8
BLACK
6
CONTINUOUS
10
0.0836483
20
1.57129
11
0.0837994
21
1.57128
0
LINE
8
BLACK
6
CONTINUOUS
10
0.0837994
20
1.57128
11
0.165841
21
1.56482
0
LINE
8
BLACK
6
CONTINUOUS
10
0.165841
20
1.56482
11
0.165991
21
1.56481
0
LINE
8
BLACK
6
CONTINUOUS
10
0.165991
20
1.56481
11
0.233518
21
1.55592
0
LINE
8
BLACK
6
CONTINUOUS
10
0.233518
20
1.55592
11
0.247582
21
1.55407
0
LINE
8
BLACK
6
CONTINUOUS
10
0.247582
20
1.55407
11
0.247731
21
1.55404
0
LINE
8
BLACK
6
CONTINUOUS
10
0.247731
20
1.55404
11
0.328649
21
1.53905
0
LINE
8
BLACK
6
CONTINUOUS
10
0.328649
20
1.53905
11
0.328797
21
1.53901
0
LINE
8
BLACK
6
CONTINUOUS
10
0.328797
20
1.53901
11
0.346633
21
1.53473
0
LINE
8
BLACK
6
CONTINUOUS
10
0.346633
20
1.53473
11
0.408819
21
1.5198
0
LINE
8
BLACK
6
CONTINUOUS
10
0.408819
20
1.5198
11
0.408965
21
1.51976
0
LINE
8
BLACK
6
CONTINUOUS
10
0.408965
20
1.51976
11
0.487869
21
1.49639
0
LINE
8
BLACK
6
CONTINUOUS
10
0.487869
20
1.49639
11
0.488015
21
1.49635
0
LINE
8
BLACK
6
CONTINUOUS
10
0.488015
20
1.49635
11
0.522955
21
1.48397
0
LINE
8
BLACK
6
CONTINUOUS
10
0.522955
20
1.48397
11
0.565585
21
1.46887
0
LINE
8
BLACK
6
CONTINUOUS
10
0.565585
20
1.46887
11
0.565728
21
1.46882
0
LINE
8
BLACK
6
CONTINUOUS
10
0.565728
20
1.46882
11
0.64176
21
1.43733
0
LINE
8
BLACK
6
CONTINUOUS
10
0.64176
20
1.43733
11
0.641898
21
1.43726
0
LINE
8
BLACK
6
CONTINUOUS
10
0.641898
20
1.43726
11
0.716175
21
1.40184
0
LINE
8
BLACK
6
CONTINUOUS
10
0.716175
20
1.40184
11
0.716309
21
1.40177
0
LINE
8
BLACK
6
CONTINUOUS
10
0.716309
20
1.40177
11
0.788631
21
1.3625
0
LINE
8
BLACK
6
CONTINUOUS
10
0.788631
20
1.3625
11
0.788762
21
1.36242
0
LINE
8
BLACK
6
CONTINUOUS
10
0.788762
20
1.36242
11
0.858932
21
1.31942
0
LINE
8
BLACK
6
CONTINUOUS
10
0.858932
20
1.31942
11
0.859059
21
1.31934
0
LINE
8
BLACK
6
CONTINUOUS
10
0.859059
20
1.31934
11
0.926877
21
1.27273
0
LINE
8
BLACK
6
CONTINUOUS
10
0.926877
20
1.27273
11
0.926878
21
1.27273
0
LINE
8
BLACK
6
CONTINUOUS
10
0.926878
20
1.27273
11
0.927001
21
1.27264
0
LINE
8
BLACK
6
CONTINUOUS
10
0.927001
20
1.27264
11
0.99229
21
1.22254
0
LINE
8
BLACK
6
CONTINUOUS
10
0.99229
20
1.22254
11
0.992406
21
1.22245
0
LINE
8
BLACK
6
CONTINUOUS
10
0.992406
20
1.22245
11
1.04582
21
1.17683
0
LINE
8
BLACK
6
CONTINUOUS
10
1.04582
20
1.17683
11
1.05498
21
1.169
0
LINE
8
BLACK
6
CONTINUOUS
10
1.05498
20
1.169
11
1.0551
21
1.1689
0
LINE
8
BLACK
6
CONTINUOUS
10
1.0551
20
1.1689
11
1.11479
21
1.11225
0
LINE
8
BLACK
6
CONTINUOUS
10
1.11479
20
1.11225
11
1.1149
21
1.11215
0
LINE
8
BLACK
6
CONTINUOUS
10
1.1149
20
1.11215
11
1.17155
21
1.05245
0
LINE
8
BLACK
6
CONTINUOUS
10
1.17155
20
1.05245
11
1.17165
21
1.05234
0
LINE
8
BLACK
6
CONTINUOUS
10
1.17165
20
1.05234
11
1.22509
21
0.989762
0
LINE
8
BLACK
6
CONTINUOUS
10
1.22509
20
0.989762
11
1.22519
21
0.989645
0
LINE
8
BLACK
6
CONTINUOUS
10
1.22519
20
0.989645
11
1.27529
21
0.924356
0
LINE
8
BLACK
6
CONTINUOUS
10
1.27529
20
0.924356
11
1.27538
21
0.924232
0
LINE
8
BLACK
6
CONTINUOUS
10
1.27538
20
0.924232
11
1.32199
21
0.856415
0
LINE
8
BLACK
6
CONTINUOUS
10
1.32199
20
0.856415
11
1.32207
21
0.856286
0
LINE
8
BLACK
6
CONTINUOUS
10
1.32207
20
0.856286
11
1.36507
21
0.786118
0
LINE
8
BLACK
6
CONTINUOUS
10
1.36507
20
0.786118
11
1.36514
21
0.785987
0
LINE
8
BLACK
6
CONTINUOUS
10
1.36514
20
0.785987
11
1.40441
21
0.713664
0
LINE
8
BLACK
6
CONTINUOUS
10
1.40441
20
0.713664
11
1.40448
21
0.713529
0
LINE
8
BLACK
6
CONTINUOUS
10
1.40448
20
0.713529
11
1.43991
21
0.639254
0
LINE
8
BLACK
6
CONTINUOUS
10
1.43991
20
0.639254
11
1.43997
21
0.639115
0
LINE
8
BLACK
6
CONTINUOUS
10
1.43997
20
0.639115
11
1.47146
21
0.563083
0
LINE
8
BLACK
6
CONTINUOUS
10
1.47146
20
0.563083
11
1.47152
21
0.56294
0
LINE
8
BLACK
6
CONTINUOUS
10
1.47152
20
0.56294
11
1.49899
21
0.48537
0
LINE
8
BLACK
6
CONTINUOUS
10
1.49899
20
0.48537
11
1.49904
21
0.485225
0
LINE
8
BLACK
6
CONTINUOUS
10
1.49904
20
0.485225
11
1.52241
21
0.406321
0
LINE
8
BLACK
6
CONTINUOUS
10
1.52241
20
0.406321
11
1.52245
21
0.406173
0
LINE
8
BLACK
6
CONTINUOUS
10
1.52245
20
0.406173
11
1.54166
21
0.326152
0
LINE
8
BLACK
6
CONTINUOUS
10
1.54166
20
0.326152
11
1.54169
21
0.326002
0
LINE
8
BLACK
6
CONTINUOUS
10
1.54169
20
0.326002
11
1.55669
21
0.245088
0
LINE
8
BLACK
6
CONTINUOUS
10
1.55669
20
0.245088
11
1.55671
21
0.244937
0
LINE
8
BLACK
6
CONTINUOUS
10
1.55671
20
0.244937
11
1.56745
21
0.163348
0
LINE
8
BLACK
6
CONTINUOUS
10
1.56745
20
0.163348
11
1.56747
21
0.163195
0
LINE
8
BLACK
6
CONTINUOUS
10
1.56747
20
0.163195
11
1.57393
21
0.0811555
0
LINE
8
BLACK
6
CONTINUOUS
10
1.57393
20
0.0811555
11
1.57393
21
0.0810021
0
LINE
8
BLACK
6
CONTINUOUS
10
1.57393
20
0.0810021
11
1.57609
21
-0.00126146
0
LINE
8
BLACK
6
CONTINUOUS
10
1.57609
20
-0.00126146
11
1.57609
21
-0.001415
0
LINE
8
BLACK
6
CONTINUOUS
10
1.57609
20
-0.001415
11
1.57393
21
-0.0836786
0
LINE
8
BLACK
6
CONTINUOUS
10
1.57393
20
-0.0836786
11
1.57393
21
-0.083832
0
LINE
8
BLACK
6
CONTINUOUS
10
1.57393
20
-0.083832
11
1.56747
21
-0.165871
0
LINE
8
BLACK
6
CONTINUOUS
10
1.56747
20
-0.165871
11
1.56745
21
-0.166024
0
LINE
8
BLACK
6
CONTINUOUS
10
1.56745
20
-0.166024
11
1.55671
21
-0.247613
0
LINE
8
BLACK
6
CONTINUOUS
10
1.55671
20
-0.247613
11
1.55669
21
-0.247765
0
LINE
8
BLACK
6
CONTINUOUS
10
1.55669
20
-0.247765
11
1.54169
21
-0.328679
0
LINE
8
BLACK
6
CONTINUOUS
10
1.54169
20
-0.328679
11
1.54166
21
-0.328829
0
LINE
8
BLACK
6
CONTINUOUS
10
1.54166
20
-0.328829
11
1.52245
21
-0.408849
0
LINE
8
BLACK
6
CONTINUOUS
10
1.52245
20
-0.408849
11
1.52241
21
-0.408998
0
LINE
8
BLACK
6
CONTINUOUS
10
1.52241
20
-0.408998
11
1.49904
21
-0.487901
0
LINE
8
BLACK
6
CONTINUOUS
10
1.49904
20
-0.487901
11
1.49899
21
-0.488047
0
LINE
8
BLACK
6
CONTINUOUS
10
1.49899
20
-0.488047
11
1.47152
21
-0.565616
0
LINE
8
BLACK
6
CONTINUOUS
10
1.47152
20
-0.565616
11
1.47146
21
-0.56576
0
LINE
8
BLACK
6
CONTINUOUS
10
1.47146
20
-0.56576
11
1.43997
21
-0.641791
0
LINE
8
BLACK
6
CONTINUOUS
10
1.43997
20
-0.641791
11
1.43991
21
-0.641931
0
LINE
8
BLACK
6
CONTINUOUS
10
1.43991
20
-0.641931
11
1.40448
21
-0.716205
0
LINE
8
BLACK
6
CONTINUOUS
10
1.40448
20
-0.716205
11
1.40441
21
-0.716342
0
LINE
8
BLACK
6
CONTINUOUS
10
1.40441
20
-0.716342
11
1.36514
21
-0.788663
0
LINE
8
BLACK
6
CONTINUOUS
10
1.36514
20
-0.788663
11
1.36507
21
-0.788795
0
LINE
8
BLACK
6
CONTINUOUS
10
1.36507
20
-0.788795
11
1.32207
21
-0.858963
0
LINE
8
BLACK
6
CONTINUOUS
10
1.32207
20
-0.858963
11
1.32199
21
-0.859091
0
LINE
8
BLACK
6
CONTINUOUS
10
1.32199
20
-0.859091
11
1.27538
21
-0.926909
0
LINE
8
BLACK
6
CONTINUOUS
10
1.27538
20
-0.926909
11
1.27529
21
-0.927033
0
LINE
8
BLACK
6
CONTINUOUS
10
1.27529
20
-0.927033
11
1.22519
21
-0.99232
0
LINE
8
BLACK
6
CONTINUOUS
10
1.22519
20
-0.99232
11
1.22509
21
-0.992439
0
LINE
8
BLACK
6
CONTINUOUS
10
1.22509
20
-0.992439
11
1.17165
21
-1.05501
0
LINE
8
BLACK
6
CONTINUOUS
10
1.17165
20
-1.05501
11
1.17155
21
-1.05513
0
LINE
8
BLACK
6
CONTINUOUS
10
1.17155
20
-1.05513
11
1.1149
21
-1.11482
0
LINE
8
BLACK
6
CONTINUOUS
10
1.1149
20
-1.11482
11
1.11479
21
-1.11493
0
LINE
8
BLACK
6
CONTINUOUS
10
1.11479
20
-1.11493
11
1.0551
21
-1.17158
0
LINE
8
BLACK
6
CONTINUOUS
10
1.0551
20
-1.17158
11
1.05498
21
-1.17168
0
LINE
8
BLACK
6
CONTINUOUS
10
1.05498
20
-1.17168
11
0.992408
21
-1.22512
0
LINE
8
BLACK
6
CONTINUOUS
10
0.992408
20
-1.22512
11
0.992288
21
-1.22522
0
LINE
8
BLACK
6
CONTINUOUS
10
0.992288
20
-1.22522
11
0.927002
21
-1.27532
0
LINE
8
BLACK
6
CONTINUOUS
10
0.927002
20
-1.27532
11
0.926877
21
-1.27541
0
LINE
8
BLACK
6
CONTINUOUS
10
0.926877
20
-1.27541
11
0.85906
21
-1.32202
0
LINE
8
BLACK
6
CONTINUOUS
10
0.85906
20
-1.32202
11
0.858931
21
-1.3221
0
LINE
8
BLACK
6
CONTINUOUS
10
0.858931
20
-1.3221
11
0.788763
21
-1.3651
0
LINE
8
BLACK
6
CONTINUOUS
10
0.788763
20
-1.3651
11
0.788631
21
-1.36518
0
LINE
8
BLACK
6
CONTINUOUS
10
0.788631
20
-1.36518
11
0.71631
21
-1.40445
0
LINE
8
BLACK
6
CONTINUOUS
10
0.71631
20
-1.40445
11
0.716173
21
-1.40451
0
LINE
8
BLACK
6
CONTINUOUS
10
0.716173
20
-1.40451
11
0.716173
21
-1.40452
0
LINE
8
BLACK
6
CONTINUOUS
10
0.716173
20
-1.40452
11
0.6419
21
-1.43994
0
LINE
8
BLACK
6
CONTINUOUS
10
0.6419
20
-1.43994
11
0.641759
21
-1.44
0
LINE
8
BLACK
6
CONTINUOUS
10
0.641759
20
-1.44
11
0.565728
21
-1.4715
0
LINE
8
BLACK
6
CONTINUOUS
10
0.565728
20
-1.4715
11
0.565585
21
-1.47155
0
LINE
8
BLACK
6
CONTINUOUS
10
0.565585
20
-1.47155
11
0.488015
21
-1.49902
0
LINE
8
BLACK
6
CONTINUOUS
10
0.488015
20
-1.49902
11
0.487869
21
-1.49907
0
LINE
8
BLACK
6
CONTINUOUS
10
0.487869
20
-1.49907
11
0.487812
21
-1.49909
0
LINE
8
BLACK
6
CONTINUOUS
10
0.487812
20
-1.49909
11
0.408966
21
-1.52244
0
LINE
8
BLACK
6
CONTINUOUS
10
0.408966
20
-1.52244
11
0.408818
21
-1.52248
0
LINE
8
BLACK
6
CONTINUOUS
10
0.408818
20
-1.52248
11
0.328797
21
-1.54169
0
LINE
8
BLACK
6
CONTINUOUS
10
0.328797
20
-1.54169
11
0.328647
21
-1.54172
0
LINE
8
BLACK
6
CONTINUOUS
10
0.328647
20
-1.54172
11
0.247733
21
-1.55672
0
LINE
8
BLACK
6
CONTINUOUS
10
0.247733
20
-1.55672
11
0.247582
21
-1.55674
0
LINE
8
BLACK
6
CONTINUOUS
10
0.247582
20
-1.55674
11
0.165992
21
-1.56749
0
LINE
8
BLACK
6
CONTINUOUS
10
0.165992
20
-1.56749
11
0.16584
21
-1.5675
0
LINE
8
BLACK
6
CONTINUOUS
10
0.16584
20
-1.5675
11
0.0838005
21
-1.57396
0
LINE
8
BLACK
6
CONTINUOUS
10
0.0838005
20
-1.57396
11
0.0836471
21
-1.57397
0
LINE
8
BLACK
6
CONTINUOUS
10
0.0836471
20
-1.57397
11
0.0013835
21
-1.57612
0
LINE
8
BLACK
6
CONTINUOUS
10
0.0013835
20
-1.57612
11
0.00122996
21
-1.57612
0
LINE
8
BLACK
6
CONTINUOUS
10
0.00122996
20
-1.57612
11
-0.0810336
21
-1.57397
0
LINE
8
BLACK
6
CONTINUOUS
10
-0.0810336
20
-1.57397
11
-0.081187
21
-1.57396
0
LINE
8
BLACK
6
CONTINUOUS
10
-0.081187
20
-1.57396
11
-0.163226
21
-1.5675
0
LINE
8
BLACK
6
CONTINUOUS
10
-0.163226
20
-1.5675
11
-0.163379
21
-1.56749
0
LINE
8
BLACK
6
CONTINUOUS
10
-0.163379
20
-1.56749
11
-0.175825
21
-1.56585
0
LINE
8
BLACK
6
CONTINUOUS
10
-0.175825
20
-1.56585
11
-0.244968
21
-1.55674
0
LINE
8
BLACK
6
CONTINUOUS
10
-0.244968
20
-1.55674
11
-0.245119
21
-1.55672
0
LINE
8
BLACK
6
CONTINUOUS
10
-0.245119
20
-1.55672
11
-0.326034
21
-1.54172
0
LINE
8
BLACK
6
CONTINUOUS
10
-0.326034
20
-1.54172
11
-0.326184
21
-1.54169
0
LINE
8
BLACK
6
CONTINUOUS
10
-0.326184
20
-1.54169
11
-0.406204
21
-1.52248
0
LINE
8
BLACK
6
CONTINUOUS
10
-0.406204
20
-1.52248
11
-0.406352
21
-1.52244
0
LINE
8
BLACK
6
CONTINUOUS
10
-0.406352
20
-1.52244
11
-0.485256
21
-1.49907
0
LINE
8
BLACK
6
CONTINUOUS
10
-0.485256
20
-1.49907
11
-0.485401
21
-1.49902
0
LINE
8
BLACK
6
CONTINUOUS
10
-0.485401
20
-1.49902
11
-0.512424
21
-1.48945
0
LINE
8
BLACK
6
CONTINUOUS
10
-0.512424
20
-1.48945
11
-0.562971
21
-1.47155
0
LINE
8
BLACK
6
CONTINUOUS
10
-0.562971
20
-1.47155
11
-0.563115
21
-1.4715
0
LINE
8
BLACK
6
CONTINUOUS
10
-0.563115
20
-1.4715
11
-0.639146
21
-1.44
0
LINE
8
BLACK
6
CONTINUOUS
10
-0.639146
20
-1.44
11
-0.639286
21
-1.43994
0
LINE
8
BLACK
6
CONTINUOUS
10
-0.639286
20
-1.43994
11
-0.713561
21
-1.40451
0
LINE
8
BLACK
6
CONTINUOUS
10
-0.713561
20
-1.40451
11
-0.713696
21
-1.40445
0
LINE
8
BLACK
6
CONTINUOUS
10
-0.713696
20
-1.40445
11
-0.786018
21
-1.36518
0
LINE
8
BLACK
6
CONTINUOUS
10
-0.786018
20
-1.36518
11
-0.786149
21
-1.3651
0
LINE
8
BLACK
6
CONTINUOUS
10
-0.786149
20
-1.3651
11
-0.856318
21
-1.3221
0
LINE
8
BLACK
6
CONTINUOUS
10
-0.856318
20
-1.3221
11
-0.856446
21
-1.32202
0
LINE
8
BLACK
6
CONTINUOUS
10
-0.856446
20
-1.32202
11
-0.924264
21
-1.27541
0
LINE
8
BLACK
6
CONTINUOUS
10
-0.924264
20
-1.27541
11
-0.924387
21
-1.27532
0
LINE
8
BLACK
6
CONTINUOUS
10
-0.924387
20
-1.27532
11
-0.989676
21
-1.22522
0
LINE
8
BLACK
6
CONTINUOUS
10
-0.989676
20
-1.22522
11
-0.989793
21
-1.22512
0
LINE
8
BLACK
6
CONTINUOUS
10
-0.989793
20
-1.22512
11
-1.03436
21
-1.18706
0
LINE
8
BLACK
6
CONTINUOUS
10
-1.03436
20
-1.18706
11
-1.05237
21
-1.17168
0
LINE
8
BLACK
6
CONTINUOUS
10
-1.05237
20
-1.17168
11
-1.05248
21
-1.17158
0
LINE
8
BLACK
6
CONTINUOUS
10
-1.05248
20
-1.17158
11
-1.11218
21
-1.11493
0
LINE
8
BLACK
6
CONTINUOUS
10
-1.11218
20
-1.11493
11
-1.11229
21
-1.11482
0
LINE
8
BLACK
6
CONTINUOUS
10
-1.11229
20
-1.11482
11
-1.16893
21
-1.05513
0
LINE
8
BLACK
6
CONTINUOUS
10
-1.16893
20
-1.05513
11
-1.16904
21
-1.05501
0
LINE
8
BLACK
6
CONTINUOUS
10
-1.16904
20
-1.05501
11
-1.17686
21
-1.04585
0
LINE
8
BLACK
6
CONTINUOUS
10
-1.17686
20
-1.04585
11
-1.22248
21
-0.992438
0
LINE
8
BLACK
6
CONTINUOUS
10
-1.22248
20
-0.992438
11
-1.22257
21
-0.992321
0
LINE
8
BLACK
6
CONTINUOUS
10
-1.22257
20
-0.992321
11
-1.27267
21
-0.927032
0
LINE
8
BLACK
6
CONTINUOUS
10
-1.27267
20
-0.927032
11
-1.27276
21
-0.926909
0
LINE
8
BLACK
6
CONTINUOUS
10
-1.27276
20
-0.926909
11
-1.27276
21
-0.926909
0
LINE
8
BLACK
6
CONTINUOUS
10
-1.27276
20
-0.926909
11
-1.31937
21
-0.85909
0
LINE
8
BLACK
6
CONTINUOUS
10
-1.31937
20
-0.85909
11
-1.31946
21
-0.858964
0
LINE
8
BLACK
6
CONTINUOUS
10
-1.31946
20
-0.858964
11
-1.36246
21
-0.788794
0
LINE
8
BLACK
6
CONTINUOUS
10
-1.36246
20
-0.788794
11
-1.36253
21
-0.788663
0
LINE
8
BLACK
6
CONTINUOUS
10
-1.36253
20
-0.788663
11
-1.4018
21
-0.71634
0
LINE
8
BLACK
6
CONTINUOUS
10
-1.4018
20
-0.71634
11
-1.40187
21
-0.716206
0
LINE
8
BLACK
6
CONTINUOUS
10
-1.40187
20
-0.716206
11
-1.4373
21
-0.64193
0
LINE
8
BLACK
6
CONTINUOUS
10
-1.4373
20
-0.64193
11
-1.43736
21
-0.641791
0
LINE
8
BLACK
6
CONTINUOUS
10
-1.43736
20
-0.641791
11
-1.46885
21
-0.56576
0
LINE
8
BLACK
6
CONTINUOUS
10
-1.46885
20
-0.56576
11
-1.46891
21
-0.565616
0
LINE
8
BLACK
6
CONTINUOUS
10
-1.46891
20
-0.565616
11
-1.49638
21
-0.488047
0
LINE
8
BLACK
6
CONTINUOUS
10
-1.49638
20
-0.488047
11
-1.49642
21
-0.4879
0
LINE
8
BLACK
6
CONTINUOUS
10
-1.49642
20
-0.4879
11
-1.51979
21
-0.408996
0
LINE
8
BLACK
6
CONTINUOUS
10
-1.51979
20
-0.408996
11
-1.51983
21
-0.40885
0
LINE
8
BLACK
6
CONTINUOUS
10
-1.51983
20
-0.40885
11
-1.53905
21
-0.328829
0
LINE
8
BLACK
6
CONTINUOUS
10
-1.53905
20
-0.328829
11
-1.53908
21
-0.32868
0
LINE
8
BLACK
6
CONTINUOUS
10
-1.53908
20
-0.32868
11
-1.55407
21
-0.247763
0
LINE
8
BLACK
6
CONTINUOUS
10
-1.55407
20
-0.247763
11
-1.5541
21
-0.247613
0
LINE
8
BLACK
6
CONTINUOUS
10
-1.5541
20
-0.247613
11
-1.55595
21
-0.23355
0
LINE
8
BLACK
6
CONTINUOUS
10
-1.55595
20
-0.23355
11
-1.56484
21
-0.166022
0
LINE
8
BLACK
6
CONTINUOUS
10
-1.56484
20
-0.166022
11
-1.56486
21
-0.165873
0
LINE
8
BLACK
6
CONTINUOUS
10
-1.56486
20
-0.165873
11
-1.57131
21
-0.0838309
0
LINE
8
BLACK
6
CONTINUOUS
10
-1.57131
20
-0.0838309
11
-1.57132
21
-0.0836798
0
LINE
8
BLACK
6
CONTINUOUS
10
-1.57132
20
-0.0836798
11
-1.57347
21
-0.00141496
0
LINE
8
BLACK
6
CONTINUOUS
10
-1.57347
20
-0.00141496
11
-1.57347
21
-0.00126146
0
LINE
8
BLACK
6
CONTINUOUS
10
-1.57347
20
-0.00126146
11
-1.57132
21
0.0810034
0
LINE
8
BLACK
6
CONTINUOUS
10
-1.57132
20
0.0810034
11
-1.57131
21
0.0811544
0
LINE
8
BLACK
6
CONTINUOUS
10
-1.57131
20
0.0811544
11
-1.56486
21
0.163196
0
LINE
8
BLACK
6
CONTINUOUS
10
-1.56486
20
0.163196
11
-1.56484
21
0.163346
0
LINE
8
BLACK
6
CONTINUOUS
10
-1.56484
20
0.163346
11
-1.5541
21
0.244937
0
LINE
8
BLACK
6
CONTINUOUS
10
-1.5541
20
0.244937
11
-1.55407
21
0.245086
0
LINE
8
BLACK
6
CONTINUOUS
10
-1.55407
20
0.245086
11
-1.53908
21
0.326004
0
LINE
8
BLACK
6
CONTINUOUS
10
-1.53908
20
0.326004
11
-1.53905
21
0.326152
0
LINE
8
BLACK
6
CONTINUOUS
10
-1.53905
20
0.326152
11
-1.51983
21
0.406174
0
LINE
8
BLACK
6
CONTINUOUS
10
-1.51983
20
0.406174
11
-1.51979
21
0.406319
0
LINE
8
BLACK
6
CONTINUOUS
10
-1.51979
20
0.406319
11
-1.49642
21
0.485224
0
LINE
8
BLACK
6
CONTINUOUS
10
-1.49642
20
0.485224
11
-1.49638
21
0.485369
0
LINE
8
BLACK
6
CONTINUOUS
10
-1.49638
20
0.485369
11
-1.49638
21
0.48537
0
LINE
8
BLACK
6
CONTINUOUS
10
-1.49638
20
0.48537
11
-1.4689
21
0.562941
0
LINE
8
BLACK
6
CONTINUOUS
10
-1.4689
20
0.562941
11
-1.46885
21
0.563083
0
LINE
8
BLACK
6
CONTINUOUS
10
-1.46885
20
0.563083
11
-1.43736
21
0.639115
0
LINE
8
BLACK
6
CONTINUOUS
10
-1.43736
20
0.639115
11
-1.4373
21
0.639253
0
LINE
8
BLACK
6
CONTINUOUS
10
-1.4373
20
0.639253
11
-1.40187
21
0.71353
0
LINE
8
BLACK
6
CONTINUOUS
10
-1.40187
20
0.71353
11
-1.4018
21
0.713663
0
LINE
8
BLACK
6
CONTINUOUS
10
-1.4018
20
0.713663
11
-1.36253
21
0.785987
0
LINE
8
BLACK
6
CONTINUOUS
10
-1.36253
20
0.785987
11
-1.36246
21
0.786117
0
LINE
8
BLACK
6
CONTINUOUS
10
-1.36246
20
0.786117
11
-1.31946
21
0.856287
0
LINE
8
BLACK
6
CONTINUOUS
10
-1.31946
20
0.856287
11
-1.31937
21
0.856415
0
LINE
8
BLACK
6
CONTINUOUS
10
-1.31937
20
0.856415
11
-1.27276
21
0.924234
0
LINE
8
BLACK
6
CONTINUOUS
10
-1.27276
20
0.924234
11
-1.27267
21
0.924355
0
LINE
8
BLACK
6
CONTINUOUS
10
-1.27267
20
0.924355
11
-1.22257
21
0.989646
0
LINE
8
BLACK
6
CONTINUOUS
10
-1.22257
20
0.989646
11
-1.22248
21
0.989761
0
LINE
8
BLACK
6
CONTINUOUS
10
-1.22248
20
0.989761
11
-1.16903
21
1.05234
0
LINE
8
BLACK
6
CONTINUOUS
10
-1.16903
20
1.05234
11
-1.16893
21
1.05245
0
LINE
8
BLACK
6
CONTINUOUS
10
-1.16893
20
1.05245
11
-1.11229
21
1.11215
0
LINE
8
BLACK
6
CONTINUOUS
10
-1.11229
20
1.11215
11
-1.11218
21
1.11226
0
LINE
8
BLACK
6
CONTINUOUS
10
-1.11218
20
1.11226
11
-1.05248
21
1.1689
0
LINE
8
BLACK
6
CONTINUOUS
10
-1.05248
20
1.1689
11
-1.05237
21
1.169
0
LINE
8
BLACK
6
CONTINUOUS
10
-1.05237
20
1.169
11
-0.989793
21
1.22245
0
LINE
8
BLACK
6
CONTINUOUS
10
-0.989793
20
1.22245
11
-0.989677
21
1.22254
0
LINE
8
BLACK
6
CONTINUOUS
10
-0.989677
20
1.22254
11
-0.924387
21
1.27264
0
LINE
8
BLACK
6
CONTINUOUS
10
-0.924387
20
1.27264
11
-0.924264
21
1.27273
0
LINE
8
BLACK
6
CONTINUOUS
10
-0.924264
20
1.27273
11
-0.856445
21
1.31934
0
LINE
8
BLACK
6
CONTINUOUS
10
-0.856445
20
1.31934
11
-0.85632
21
1.31942
0
LINE
8
BLACK
6
CONTINUOUS
10
-0.85632
20
1.31942
11
-0.786148
21
1.36242
0
LINE
8
BLACK
6
CONTINUOUS
10
-0.786148
20
1.36242
11
-0.786019
21
1.3625
0
LINE
8
BLACK
6
CONTINUOUS
10
-0.786019
20
1.3625
11
-0.713695
21
1.40177
0
LINE
8
BLACK
6
CONTINUOUS
10
-0.713695
20
1.40177
11
-0.713562
21
1.40184
0
LINE
8
BLACK
6
CONTINUOUS
10
-0.713562
20
1.40184
11
-0.639284
21
1.43726
0
LINE
8
BLACK
6
CONTINUOUS
10
-0.639284
20
1.43726
11
-0.639146
21
1.43733
0
LINE
8
BLACK
6
CONTINUOUS
10
-0.639146
20
1.43733
11
-0.563115
21
1.46882
0
LINE
8
BLACK
6
CONTINUOUS
10
-0.563115
20
1.46882
11
-0.562972
21
1.46887
0
LINE
8
BLACK
6
CONTINUOUS
10
-0.562972
20
1.46887
11
-0.485401
21
1.49635
0
LINE
8
BLACK
6
CONTINUOUS
10
-0.485401
20
1.49635
11
-0.485256
21
1.49639
0
LINE
8
BLACK
6
CONTINUOUS
10
-0.485256
20
1.49639
11
-0.406351
21
1.51976
0
LINE
8
BLACK
6
CONTINUOUS
10
-0.406351
20
1.51976
11
-0.406206
21
1.5198
0
LINE
8
BLACK
6
CONTINUOUS
10
-0.406206
20
1.5198
11
-0.326184
21
1.53901
0
LINE
8
BLACK
6
CONTINUOUS
10
-0.326184
20
1.53901
11
-0.326035
21
1.53905
0
LINE
8
BLACK
6
CONTINUOUS
10
-0.326035
20
1.53905
11
-0.245118
21
1.55404
0
LINE
8
BLACK
6
CONTINUOUS
10
-0.245118
20
1.55404
11
-0.244968
21
1.55407
0
LINE
8
BLACK
6
CONTINUOUS
10
-0.244968
20
1.55407
11
-0.239257
21
1.55482
0
LINE
8
BLACK
6
CONTINUOUS
10
-0.239257
20
1.55482
11
-0.163377
21
1.56481
0
LINE
8
BLACK
6
CONTINUOUS
10
-0.163377
20
1.56481
11
-0.163228
21
1.56482
0
LINE
8
BLACK
6
CONTINUOUS
10
-0.163228
20
1.56482
11
-0.0811859
21
1.57128
0
LINE
8
BLACK
6
CONTINUOUS
10
-0.0811859
20
1.57128
11
-0.0810349
21
1.57129
0
LINE
8
BLACK
6
CONTINUOUS
10
-0.0810349
20
1.57129
11
0.00123008
21
1.57344
0
LINE
8
BLACK
6
CONTINUOUS
10
0.00123008
20
1.57344
11
0.00138346
21
1.57344
0
LINE
8
BLACK
6
CONTINUOUS
10
0.00138346
20
1.57344
11
0.0836483
21
1.57129
0
CIRCLE
8
BLACK
10
-1.32976
20
0.7041
40
0.00787402
0
CIRCLE
8
BLACK
10
1.50676
20
0.0532672
40
0.00787402
0
CIRCLE
8
BLACK
10
1.43465
20
-0.464922
40
0.00787402
0
CIRCLE
8
BLACK
10
-1.27515
20
-0.801357
40
0.00787402
0
CIRCLE
8
BLACK
10
-1.49076
20
0.206305
40
0.00787402
0
CIRCLE
8
BLACK
10
-1.43204
20
0.462245
40
0.00787402
0
CIRCLE
8
BLACK
10
-1.11684
20
-1.01086
40
0.00787402
0
CIRCLE
8
BLACK
10
1.49337
20
-0.208982
40
0.00787402
0
CIRCLE
8
BLACK
10
1.11945
20
1.00818
40
0.00787402
0
CIRCLE
8
BLACK
10
1.47441
20
0.313857
40
0.00787402
0
CIRCLE
8
BLACK
10
-1.39468
20
-0.567548
40
0.00787402
0
CIRCLE
8
BLACK
10
1.3973
20
0.564871
40
0.00787402
0
CIRCLE
8
BLACK
10
-0.924551
20
-1.18969
40
0.00787402
0
CIRCLE
8
BLACK
10
-1.50415
20
-0.0559444
40
0.00787402
0
CIRCLE
8
BLACK
10
0.927165
20
1.18701
40
0.00787402
0
CIRCLE
8
BLACK
10
1.33237
20
-0.706777
40
0.00787402
0
CIRCLE
8
BLACK
10
1.27777
20
0.79868
40
0.00787402
0
CIRCLE
8
BLACK
10
-1.4718
20
-0.316535
40
0.00787402
  0
ENDSEC
  0
EOF
