<!DOCTYPE svg PUBLIC "-//W3C//DTD SVG 1.1//EN" "http://www.w3.org/Graphics/SVG/1.1/DTD/svg11.dtd">
<svg xmlns="http://www.w3.org/2000/svg" version="1.1" width="90.049982mm" height="90.049982mm" viewBox="94.975001 44.975001 90.04998200000001 90.049982">
            <title>Picture generated by PcbDraw </title>
            <desc>Picture generated by PcbDraw</desc>
        <defs><clipPath id="cut-off"><path d="M140.0000 50.0000 L142.0934 50.0548 M 144.1811 50.2191 L 146.2574 50.4925 L 148.3165 50.8741 L 150.3528 51.363 L 152.3607 51.9577 L 154.3347 52.6568 L 156.2695 53.4582 L 158.1596 54.3597 L 160.0 55.359 L 161.7856 56.4532 L 163.5114 57.6393 L 165.1728 58.9142 L 166.7652 60.2742 L 168.2843 61.7157 L 169.7258 63.2348 L 171.0858 64.8272 L 172.3607 66.4886 L 173.5468 68.2144 L 174.641 70.0 L 175.6403 71.8404 L 176.5418 73.7305 L 177.3432 75.6653 L 178.0423 77.6393 L 178.637 79.6472 L 179.1259 81.6835 L 179.5075 83.7426 L 179.7809 85.8189 L 179.9452 87.9066 L 180.0 90.0 L 179.9452 92.0934 L 179.7809 94.1811 L 179.5075 96.2574 L 179.1259 98.3165 L 178.637 100.3528 L 178.0423 102.3607 L 177.3432 104.3347 L 176.5418 106.2695 L 175.6403 108.1596 L 174.641 110.0 L 173.5468 111.7856 L 172.3607 113.5114 L 171.0858 115.1728 L 169.7258 116.7652 L 168.2843 118.2843 L 166.7652 119.7258 L 165.1728 121.0858 L 163.5114 122.3607 L 161.7856 123.5468 L 160.0 124.641 L 158.1596 125.6403 L 156.2695 126.5418 L 154.3347 127.3432 L 152.3607 128.0423 L 150.3528 128.637 L 148.3165 129.1259 L 146.2574 129.5075 L 144.1811 129.7809 L 142.0934 129.9452 L 140.0 130.0 L 137.9066 129.9452 L 135.8189 129.7809 L 133.7426 129.5075 L 131.6835 129.1259 L 129.6472 128.637 L 127.6393 128.0423 L 125.6653 127.3432 L 123.7305 126.5418 L 121.8404 125.6403 L 120.0 124.641 L 118.2144 123.5468 L 116.4886 122.3607 L 114.8272 121.0858 L 113.2348 119.7258 L 111.7157 118.2843 L 110.2742 116.7652 L 108.9142 115.1728 L 107.6393 113.5114 L 106.4532 111.7856 L 105.359 110.0 L 104.3597 108.1596 L 103.4582 106.2695 L 102.6568 104.3347 L 101.9577 102.3607 L 101.363 100.3528 L 100.8741 98.3165 L 100.4925 96.2574 L 100.2191 94.1811 L 100.0548 92.0934 L 100.0 90.0 L 100.0548 87.9066 L 100.2191 85.8189 L 100.4925 83.7426 L 100.8741 81.6835 L 101.363 79.6472 L 101.9577 77.6393 L 102.6568 75.6653 L 103.4582 73.7305 L 104.3597 71.8404 L 105.359 70.0 L 106.4532 68.2144 L 107.6393 66.4886 L 108.9142 64.8272 L 110.2742 63.2348 L 111.7157 61.7157 L 113.2348 60.2742 L 114.8272 58.9142 L 116.4886 57.6393 L 118.2144 56.4532 L 120.0 55.359 L 121.8404 54.3597 L 123.7305 53.4582 L 125.6653 52.6568 L 127.6393 51.9577 L 129.6472 51.363 L 131.6835 50.8741 L 133.7426 50.4925 L 135.8189 50.2191 L 137.9066 50.0548 L 140.0 50.0 L 142.0934 50.0548 L 144.1811 50.2191 " style="fill-rule: evenodd;"/></clipPath><mask id="pads-mask"><g style="fill:#ffffff; fill-opacity:0.0;  stroke:#ffffff; stroke-width:0.0000; stroke-opacity:1;  stroke-linecap:round; stroke-linejoin:round;">
<g style="fill:#ffffff; fill-opacity:1.0000;  stroke:#ffffff; stroke-width:0.0000; stroke-opacity:1;  stroke-linecap:round; stroke-linejoin:round;">
<path style="fill:#ffffff; fill-opacity:1.0000;  stroke:#ffffff; stroke-width:0.0000; stroke-opacity:1;  stroke-linecap:round; stroke-linejoin:round;fill-rule:evenodd;" d="M 124.2843,83.2103 124.9726,82.2274 128.2492,84.5217 127.5610,85.5046 Z"/> 
</g>
<g style="fill:#ffffff; fill-opacity:1.0000;  stroke:#ffffff; stroke-width:0.0000; stroke-opacity:1;  stroke-linecap:round; stroke-linejoin:round;">
<g>
<path style="fill:#ffffff; fill-opacity:1.0000;  stroke:#ffffff; stroke-width:0.0000; stroke-opacity:1;  stroke-linecap:round; stroke-linejoin:round;fill-rule:evenodd;" d="M 142.0895,50.0547 142.0973,50.0551 144.1772,50.2188 144.1850,50.2196 146.2535,50.4920 146.2612,50.4932 148.3126,50.8734 148.3202,50.8750 150.3490,51.3621 150.3565,51.3641 152.3569,51.9566 152.3644,51.9590 154.3310,52.6555 154.3383,52.6583 156.2659,53.4567 156.2730,53.4599 158.1561,54.3580 158.1630,54.3616 159.9966,55.3571 160.0033,55.3610 161.7823,56.4512 161.7888,56.4554 163.5082,57.6371 163.5145,57.6417 165.1697,58.9118 165.1757,58.9167 166.7622,60.2717 166.7680,60.2769 168.2815,61.7130 168.2870,61.7185 169.7231,63.2320 169.7283,63.2378 171.0833,64.8242 171.0882,64.8303 172.3583,66.4855 172.3629,66.4918 173.5446,68.2112 173.5488,68.2177 174.6389,69.9967 174.6428,70.0034 175.6384,71.8370 175.6420,71.8439 176.5401,73.7270 176.5433,73.7341 177.3417,75.6617 177.3445,75.6690 178.0410,77.6356 178.0434,77.6430 178.6359,79.6434 178.6379,79.6510 179.1250,81.6797 179.1266,81.6874 179.5068,83.7388 179.5080,83.7465 179.7804,85.8150 179.7812,85.8227 179.9449,87.9027 179.9453,87.9105 179.9999,89.9961 179.9999,90.0039 179.9453,92.0895 179.9449,92.0973 179.7812,94.1772 179.7804,94.1850 179.5080,96.2535 179.5068,96.2612 179.1266,98.3126 179.1250,98.3202 178.6379,100.3490 178.6359,100.3565 178.0434,102.3569 178.0410,102.3644 177.3445,104.3310 177.3417,104.3383 176.5433,106.2659 176.5401,106.2730 175.6420,108.1561 175.6384,108.1630 174.6428,109.9966 174.6389,110.0033 173.5488,111.7823 173.5446,111.7888 172.3629,113.5082 172.3583,113.5145 171.0882,115.1697 171.0833,115.1757 169.7283,116.7622 169.7231,116.7680 168.2870,118.2815 168.2815,118.2870 166.7680,119.7231 166.7622,119.7283 165.1757,121.0833 165.1697,121.0882 163.5145,122.3583 163.5082,122.3629 161.7888,123.5446 161.7823,123.5488 160.0033,124.6389 159.9966,124.6428 158.1630,125.6384 158.1561,125.6420 156.2730,126.5401 156.2659,126.5433 154.3383,127.3417 154.3310,127.3445 152.3644,128.0410 152.3569,128.0434 150.3565,128.6359 150.3490,128.6379 148.3202,129.1250 148.3126,129.1266 146.2612,129.5068 146.2535,129.5080 144.1850,129.7804 144.1772,129.7812 142.0973,129.9449 142.0895,129.9453 140.0039,129.9999 139.9961,129.9999 137.9105,129.9453 137.9027,129.9449 135.8227,129.7812 135.8150,129.7804 133.7465,129.5080 133.7388,129.5068 131.6874,129.1266 131.6797,129.1250 129.6510,128.6379 129.6434,128.6359 127.6430,128.0434 127.6356,128.0410 125.6690,127.3445 125.6617,127.3417 123.7341,126.5433 123.7270,126.5401 121.8439,125.6420 121.8370,125.6384 120.0034,124.6428 119.9967,124.6389 118.2177,123.5488 118.2112,123.5446 116.4918,122.3629 116.4855,122.3583 114.8303,121.0882 114.8242,121.0833 113.2378,119.7283 113.2320,119.7231 111.7185,118.2870 111.7130,118.2815 110.2769,116.7680 110.2717,116.7622 108.9167,115.1757 108.9118,115.1697 107.6417,113.5145 107.6371,113.5082 106.4554,111.7888 106.4512,111.7823 105.3610,110.0033 105.3571,109.9966 104.3616,108.1630 104.3580,108.1561 103.4599,106.2730 103.4567,106.2659 102.6583,104.3383 102.6555,104.3310 101.9590,102.3644 101.9566,102.3569 101.3641,100.3565 101.3621,100.3490 100.8750,98.3202 100.8734,98.3126 100.4932,96.2612 100.4920,96.2535 100.2196,94.1850 100.2188,94.1772 100.0551,92.0973 100.0547,92.0895 100.0001,90.0039 100.0001,89.9961 100.0547,87.9105 100.0551,87.9027 100.2188,85.8227 100.2196,85.8150 100.4920,83.7465 100.4932,83.7388 100.8734,81.6874 100.8750,81.6797 101.3621,79.6510 101.3641,79.6434 101.9566,77.6430 101.9590,77.6356 102.6555,75.6690 102.6583,75.6617 103.4567,73.7341 103.4599,73.7270 104.3580,71.8439 104.3616,71.8370 105.3571,70.0034 105.3610,69.9967 106.4512,68.2177 106.4554,68.2112 107.6371,66.4918 107.6417,66.4855 108.9118,64.8303 108.9167,64.8242 110.2717,63.2378 110.2769,63.2320 111.7130,61.7185 111.7185,61.7130 113.2320,60.2769 113.2378,60.2717 114.8242,58.9167 114.8303,58.9118 116.4855,57.6417 116.4918,57.6371 118.2112,56.4554 118.2177,56.4512 119.9967,55.3610 120.0034,55.3571 121.8370,54.3616 121.8439,54.3580 123.7270,53.4599 123.7341,53.4567 125.6617,52.6583 125.6690,52.6555 127.6356,51.9590 127.6430,51.9566 129.6434,51.3641 129.6510,51.3621 131.6797,50.8750 131.6874,50.8734 133.7388,50.4932 133.7465,50.4920 135.8150,50.2196 135.8227,50.2188 137.9027,50.0551 137.9105,50.0547 139.9961,50.0001 140.0039,50.0001 Z"/> 
</g>
</g>
</g> 
</mask><mask id="pads-mask-silkscreen"><rect x="99.975001" y="49.975001" width="80.049982" height="80.049982" fill="white"/><g style="fill:#000000; fill-opacity:0.0;  stroke:#000000; stroke-width:0.0000; stroke-opacity:1;  stroke-linecap:round; stroke-linejoin:round;">
<g style="fill:#000000; fill-opacity:1.0000;  stroke:#000000; stroke-width:0.0000; stroke-opacity:1;  stroke-linecap:round; stroke-linejoin:round;">
<path style="fill:#000000; fill-opacity:1.0000;  stroke:#000000; stroke-width:0.0000; stroke-opacity:1;  stroke-linecap:round; stroke-linejoin:round;fill-rule:evenodd;" d="M 124.2843,83.2103 124.9726,82.2274 128.2492,84.5217 127.5610,85.5046 Z"/> 
</g>
<g style="fill:#000000; fill-opacity:1.0000;  stroke:#000000; stroke-width:0.0000; stroke-opacity:1;  stroke-linecap:round; stroke-linejoin:round;">
<g>
<path style="fill:#000000; fill-opacity:1.0000;  stroke:#000000; stroke-width:0.0000; stroke-opacity:1;  stroke-linecap:round; stroke-linejoin:round;fill-rule:evenodd;" d="M 142.0895,50.0547 142.0973,50.0551 144.1772,50.2188 144.1850,50.2196 146.2535,50.4920 146.2612,50.4932 148.3126,50.8734 148.3202,50.8750 150.3490,51.3621 150.3565,51.3641 152.3569,51.9566 152.3644,51.9590 154.3310,52.6555 154.3383,52.6583 156.2659,53.4567 156.2730,53.4599 158.1561,54.3580 158.1630,54.3616 159.9966,55.3571 160.0033,55.3610 161.7823,56.4512 161.7888,56.4554 163.5082,57.6371 163.5145,57.6417 165.1697,58.9118 165.1757,58.9167 166.7622,60.2717 166.7680,60.2769 168.2815,61.7130 168.2870,61.7185 169.7231,63.2320 169.7283,63.2378 171.0833,64.8242 171.0882,64.8303 172.3583,66.4855 172.3629,66.4918 173.5446,68.2112 173.5488,68.2177 174.6389,69.9967 174.6428,70.0034 175.6384,71.8370 175.6420,71.8439 176.5401,73.7270 176.5433,73.7341 177.3417,75.6617 177.3445,75.6690 178.0410,77.6356 178.0434,77.6430 178.6359,79.6434 178.6379,79.6510 179.1250,81.6797 179.1266,81.6874 179.5068,83.7388 179.5080,83.7465 179.7804,85.8150 179.7812,85.8227 179.9449,87.9027 179.9453,87.9105 179.9999,89.9961 179.9999,90.0039 179.9453,92.0895 179.9449,92.0973 179.7812,94.1772 179.7804,94.1850 179.5080,96.2535 179.5068,96.2612 179.1266,98.3126 179.1250,98.3202 178.6379,100.3490 178.6359,100.3565 178.0434,102.3569 178.0410,102.3644 177.3445,104.3310 177.3417,104.3383 176.5433,106.2659 176.5401,106.2730 175.6420,108.1561 175.6384,108.1630 174.6428,109.9966 174.6389,110.0033 173.5488,111.7823 173.5446,111.7888 172.3629,113.5082 172.3583,113.5145 171.0882,115.1697 171.0833,115.1757 169.7283,116.7622 169.7231,116.7680 168.2870,118.2815 168.2815,118.2870 166.7680,119.7231 166.7622,119.7283 165.1757,121.0833 165.1697,121.0882 163.5145,122.3583 163.5082,122.3629 161.7888,123.5446 161.7823,123.5488 160.0033,124.6389 159.9966,124.6428 158.1630,125.6384 158.1561,125.6420 156.2730,126.5401 156.2659,126.5433 154.3383,127.3417 154.3310,127.3445 152.3644,128.0410 152.3569,128.0434 150.3565,128.6359 150.3490,128.6379 148.3202,129.1250 148.3126,129.1266 146.2612,129.5068 146.2535,129.5080 144.1850,129.7804 144.1772,129.7812 142.0973,129.9449 142.0895,129.9453 140.0039,129.9999 139.9961,129.9999 137.9105,129.9453 137.9027,129.9449 135.8227,129.7812 135.8150,129.7804 133.7465,129.5080 133.7388,129.5068 131.6874,129.1266 131.6797,129.1250 129.6510,128.6379 129.6434,128.6359 127.6430,128.0434 127.6356,128.0410 125.6690,127.3445 125.6617,127.3417 123.7341,126.5433 123.7270,126.5401 121.8439,125.6420 121.8370,125.6384 120.0034,124.6428 119.9967,124.6389 118.2177,123.5488 118.2112,123.5446 116.4918,122.3629 116.4855,122.3583 114.8303,121.0882 114.8242,121.0833 113.2378,119.7283 113.2320,119.7231 111.7185,118.2870 111.7130,118.2815 110.2769,116.7680 110.2717,116.7622 108.9167,115.1757 108.9118,115.1697 107.6417,113.5145 107.6371,113.5082 106.4554,111.7888 106.4512,111.7823 105.3610,110.0033 105.3571,109.9966 104.3616,108.1630 104.3580,108.1561 103.4599,106.2730 103.4567,106.2659 102.6583,104.3383 102.6555,104.3310 101.9590,102.3644 101.9566,102.3569 101.3641,100.3565 101.3621,100.3490 100.8750,98.3202 100.8734,98.3126 100.4932,96.2612 100.4920,96.2535 100.2196,94.1850 100.2188,94.1772 100.0551,92.0973 100.0547,92.0895 100.0001,90.0039 100.0001,89.9961 100.0547,87.9105 100.0551,87.9027 100.2188,85.8227 100.2196,85.8150 100.4920,83.7465 100.4932,83.7388 100.8734,81.6874 100.8750,81.6797 101.3621,79.6510 101.3641,79.6434 101.9566,77.6430 101.9590,77.6356 102.6555,75.6690 102.6583,75.6617 103.4567,73.7341 103.4599,73.7270 104.3580,71.8439 104.3616,71.8370 105.3571,70.0034 105.3610,69.9967 106.4512,68.2177 106.4554,68.2112 107.6371,66.4918 107.6417,66.4855 108.9118,64.8303 108.9167,64.8242 110.2717,63.2378 110.2769,63.2320 111.7130,61.7185 111.7185,61.7130 113.2320,60.2769 113.2378,60.2717 114.8242,58.9167 114.8303,58.9118 116.4855,57.6417 116.4918,57.6371 118.2112,56.4554 118.2177,56.4512 119.9967,55.3610 120.0034,55.3571 121.8370,54.3616 121.8439,54.3580 123.7270,53.4599 123.7341,53.4567 125.6617,52.6583 125.6690,52.6555 127.6356,51.9590 127.6430,51.9566 129.6434,51.3641 129.6510,51.3621 131.6797,50.8750 131.6874,50.8734 133.7388,50.4932 133.7465,50.4920 135.8150,50.2196 135.8227,50.2188 137.9027,50.0551 137.9105,50.0547 139.9961,50.0001 140.0039,50.0001 Z"/> 
</g>
</g>
</g> 
</mask><mask id="hole-mask"><g><rect x="99.975001" y="49.975001" fill="white" width="80.049982" height="80.049982"/><polyline stroke-linecap="round" stroke="black" stroke-width="0.4" points="-0.0 0 0.0 0" transform="translate(106.190913 72.08187) rotate(-0.0)"/><polyline stroke-linecap="round" stroke="black" stroke-width="0.4" points="-0.0 0 0.0 0" transform="translate(178.238593 88.613013) rotate(-0.0)"/><polyline stroke-linecap="round" stroke="black" stroke-width="0.4" points="-0.0 0 0.0 0" transform="translate(176.406901 101.775027) rotate(-0.0)"/><polyline stroke-linecap="round" stroke="black" stroke-width="0.4" points="-0.0 0 0.0 0" transform="translate(107.577901 110.320463) rotate(-0.0)"/><polyline stroke-linecap="round" stroke="black" stroke-width="0.4" points="-0.0 0 0.0 0" transform="translate(102.101489 84.725854) rotate(-0.0)"/><polyline stroke-linecap="round" stroke="black" stroke-width="0.4" points="-0.0 0 0.0 0" transform="translate(103.593099 78.224973) rotate(-0.0)"/><polyline stroke-linecap="round" stroke="black" stroke-width="0.4" points="-0.0 0 0.0 0" transform="translate(111.599076 115.641788) rotate(-0.0)"/><polyline stroke-linecap="round" stroke="black" stroke-width="0.4" points="-0.0 0 0.0 0" transform="translate(177.898511 95.274146) rotate(-0.0)"/><polyline stroke-linecap="round" stroke="black" stroke-width="0.4" points="-0.0 0 0.0 0" transform="translate(168.400924 64.358212) rotate(-0.0)"/><polyline stroke-linecap="round" stroke="black" stroke-width="0.4" points="-0.0 0 0.0 0" transform="translate(177.416815 81.994022) rotate(-0.0)"/><polyline stroke-linecap="round" stroke="black" stroke-width="0.4" points="-0.0 0 0.0 0" transform="translate(104.541854 104.381711) rotate(-0.0)"/><polyline stroke-linecap="round" stroke="black" stroke-width="0.4" points="-0.0 0 0.0 0" transform="translate(175.458146 75.618289) rotate(-0.0)"/><polyline stroke-linecap="round" stroke="black" stroke-width="0.4" points="-0.0 0 0.0 0" transform="translate(116.4832 120.184) rotate(-0.0)"/><polyline stroke-linecap="round" stroke="black" stroke-width="0.4" points="-0.0 0 0.0 0" transform="translate(101.761407 91.386987) rotate(-0.0)"/><polyline stroke-linecap="round" stroke="black" stroke-width="0.4" points="-0.0 0 0.0 0" transform="translate(163.5168 59.816) rotate(-0.0)"/><polyline stroke-linecap="round" stroke="black" stroke-width="0.4" points="-0.0 0 0.0 0" transform="translate(173.809087 107.91813) rotate(-0.0)"/><polyline stroke-linecap="round" stroke="black" stroke-width="0.4" points="-0.0 0 0.0 0" transform="translate(172.422099 69.679537) rotate(-0.0)"/><polyline stroke-linecap="round" stroke="black" stroke-width="0.4" points="-0.0 0 0.0 0" transform="translate(102.583185 98.005978) rotate(-0.0)"/></g></mask></defs><g transform="" id="boardContainer"><g id="substrate" clip-path="url(#cut-off)" mask="url(#hole-mask)"><g id="substrate-board" style="fill:#f1f4f3; stroke:#f1f4f3;"><path d="M140.0000 50.0000 L142.0934 50.0548 M 144.1811 50.2191 L 146.2574 50.4925 L 148.3165 50.8741 L 150.3528 51.363 L 152.3607 51.9577 L 154.3347 52.6568 L 156.2695 53.4582 L 158.1596 54.3597 L 160.0 55.359 L 161.7856 56.4532 L 163.5114 57.6393 L 165.1728 58.9142 L 166.7652 60.2742 L 168.2843 61.7157 L 169.7258 63.2348 L 171.0858 64.8272 L 172.3607 66.4886 L 173.5468 68.2144 L 174.641 70.0 L 175.6403 71.8404 L 176.5418 73.7305 L 177.3432 75.6653 L 178.0423 77.6393 L 178.637 79.6472 L 179.1259 81.6835 L 179.5075 83.7426 L 179.7809 85.8189 L 179.9452 87.9066 L 180.0 90.0 L 179.9452 92.0934 L 179.7809 94.1811 L 179.5075 96.2574 L 179.1259 98.3165 L 178.637 100.3528 L 178.0423 102.3607 L 177.3432 104.3347 L 176.5418 106.2695 L 175.6403 108.1596 L 174.641 110.0 L 173.5468 111.7856 L 172.3607 113.5114 L 171.0858 115.1728 L 169.7258 116.7652 L 168.2843 118.2843 L 166.7652 119.7258 L 165.1728 121.0858 L 163.5114 122.3607 L 161.7856 123.5468 L 160.0 124.641 L 158.1596 125.6403 L 156.2695 126.5418 L 154.3347 127.3432 L 152.3607 128.0423 L 150.3528 128.637 L 148.3165 129.1259 L 146.2574 129.5075 L 144.1811 129.7809 L 142.0934 129.9452 L 140.0 130.0 L 137.9066 129.9452 L 135.8189 129.7809 L 133.7426 129.5075 L 131.6835 129.1259 L 129.6472 128.637 L 127.6393 128.0423 L 125.6653 127.3432 L 123.7305 126.5418 L 121.8404 125.6403 L 120.0 124.641 L 118.2144 123.5468 L 116.4886 122.3607 L 114.8272 121.0858 L 113.2348 119.7258 L 111.7157 118.2843 L 110.2742 116.7652 L 108.9142 115.1728 L 107.6393 113.5114 L 106.4532 111.7856 L 105.359 110.0 L 104.3597 108.1596 L 103.4582 106.2695 L 102.6568 104.3347 L 101.9577 102.3607 L 101.363 100.3528 L 100.8741 98.3165 L 100.4925 96.2574 L 100.2191 94.1811 L 100.0548 92.0934 L 100.0 90.0 L 100.0548 87.9066 L 100.2191 85.8189 L 100.4925 83.7426 L 100.8741 81.6835 L 101.363 79.6472 L 101.9577 77.6393 L 102.6568 75.6653 L 103.4582 73.7305 L 104.3597 71.8404 L 105.359 70.0 L 106.4532 68.2144 L 107.6393 66.4886 L 108.9142 64.8272 L 110.2742 63.2348 L 111.7157 61.7157 L 113.2348 60.2742 L 114.8272 58.9142 L 116.4886 57.6393 L 118.2144 56.4532 L 120.0 55.359 L 121.8404 54.3597 L 123.7305 53.4582 L 125.6653 52.6568 L 127.6393 51.9577 L 129.6472 51.363 L 131.6835 50.8741 L 133.7426 50.4925 L 135.8189 50.2191 L 137.9066 50.0548 L 140.0 50.0 L 142.0934 50.0548 L 144.1811 50.2191 " style="fill-rule: evenodd;"/><g style="fill-opacity: 0.0;stroke-width: 0.0500;stroke-opacity: 1;stroke-linecap: round;stroke-linejoin: round">
<path style="fill-opacity: 0.0;stroke-width: 0.0500;stroke-opacity: 1;stroke-linecap: round;stroke-linejoin: round" d="M 142.0934,50.0548 144.1811,50.2191 146.2574,50.4925 148.3165,50.8741 150.3528,51.3630 152.3607,51.9577 154.3347,52.6568 156.2695,53.4582 158.1596,54.3597 160.0000,55.3590 161.7856,56.4532 163.5114,57.6393 165.1728,58.9142 166.7652,60.2742 168.2843,61.7157 169.7258,63.2348 171.0858,64.8272 172.3607,66.4886 173.5468,68.2144 174.6410,70.0000 175.6403,71.8404 176.5418,73.7305 177.3432,75.6653 178.0423,77.6393 178.6370,79.6472 179.1259,81.6835 179.5075,83.7426 179.7809,85.8189 179.9452,87.9066 180.0000,90.0000 179.9452,92.0934 179.7809,94.1811 179.5075,96.2574 179.1259,98.3165 178.6370,100.3528 178.0423,102.3607 177.3432,104.3347 176.5418,106.2695 175.6403,108.1596 174.6410,110.0000 173.5468,111.7856 172.3607,113.5114 171.0858,115.1728 169.7258,116.7652 168.2843,118.2843 166.7652,119.7258 165.1728,121.0858 163.5114,122.3607 161.7856,123.5468 160.0000,124.6410 158.1596,125.6403 156.2695,126.5418 154.3347,127.3432 152.3607,128.0423 150.3528,128.6370 148.3165,129.1259 146.2574,129.5075 144.1811,129.7809 142.0934,129.9452 140.0000,130.0000 137.9066,129.9452 135.8189,129.7809 133.7426,129.5075 131.6835,129.1259 129.6472,128.6370 127.6393,128.0423 125.6653,127.3432 123.7305,126.5418 121.8404,125.6403 120.0000,124.6410 118.2144,123.5468 116.4886,122.3607 114.8272,121.0858 113.2348,119.7258 111.7157,118.2843 110.2742,116.7652 108.9142,115.1728 107.6393,113.5114 106.4532,111.7856 105.3590,110.0000 104.3597,108.1596 103.4582,106.2695 102.6568,104.3347 101.9577,102.3607 101.3630,100.3528 100.8741,98.3165 100.4925,96.2574 100.2191,94.1811 100.0548,92.0934 100.0000,90.0000 100.0548,87.9066 100.2191,85.8189 100.4925,83.7426 100.8741,81.6835 101.3630,79.6472 101.9577,77.6393 102.6568,75.6653 103.4582,73.7305 104.3597,71.8404 105.3590,70.0000 106.4532,68.2144 107.6393,66.4886 108.9142,64.8272 110.2742,63.2348 111.7157,61.7157 113.2348,60.2742 114.8272,58.9142 116.4886,57.6393 118.2144,56.4532 120.0000,55.3590 121.8404,54.3597 123.7305,53.4582 125.6653,52.6568 127.6393,51.9577 129.6472,51.3630 131.6835,50.8741 133.7426,50.4925 135.8189,50.2191 137.9066,50.0548 140.0000,50.0000 Z"/> 
</g> 
</g><g id="substrate-clad" style="fill:#72786c; stroke:#72786c;"><g style="fill-opacity: 0.0;stroke-width: 0.0000;stroke-opacity: 1;stroke-linecap: round;stroke-linejoin: round">
<g style="fill-opacity: 1.0000;stroke-width: 0.0000;stroke-opacity: 1;stroke-linecap: round;stroke-linejoin: round">
<path style="fill-opacity: 1.0000;stroke-width: 0.0000;stroke-opacity: 1;stroke-linecap: round;stroke-linejoin: round;fill-rule: evenodd" d="M 124.2843,83.2103 124.9726,82.2274 128.2492,84.5217 127.5610,85.5046 Z"/> 
</g>
<g style="fill-opacity: 1.0000;stroke-width: 0.0000;stroke-opacity: 1;stroke-linecap: round;stroke-linejoin: round">
<g>
<path style="fill-opacity: 1.0000;stroke-width: 0.0000;stroke-opacity: 1;stroke-linecap: round;stroke-linejoin: round;fill-rule: evenodd" d="M 142.0895,50.0547 142.0973,50.0551 144.1772,50.2188 144.1850,50.2196 146.2535,50.4920 146.2612,50.4932 148.3126,50.8734 148.3202,50.8750 150.3490,51.3621 150.3565,51.3641 152.3569,51.9566 152.3644,51.9590 154.3310,52.6555 154.3383,52.6583 156.2659,53.4567 156.2730,53.4599 158.1561,54.3580 158.1630,54.3616 159.9966,55.3571 160.0033,55.3610 161.7823,56.4512 161.7888,56.4554 163.5082,57.6371 163.5145,57.6417 165.1697,58.9118 165.1757,58.9167 166.7622,60.2717 166.7680,60.2769 168.2815,61.7130 168.2870,61.7185 169.7231,63.2320 169.7283,63.2378 171.0833,64.8242 171.0882,64.8303 172.3583,66.4855 172.3629,66.4918 173.5446,68.2112 173.5488,68.2177 174.6389,69.9967 174.6428,70.0034 175.6384,71.8370 175.6420,71.8439 176.5401,73.7270 176.5433,73.7341 177.3417,75.6617 177.3445,75.6690 178.0410,77.6356 178.0434,77.6430 178.6359,79.6434 178.6379,79.6510 179.1250,81.6797 179.1266,81.6874 179.5068,83.7388 179.5080,83.7465 179.7804,85.8150 179.7812,85.8227 179.9449,87.9027 179.9453,87.9105 179.9999,89.9961 179.9999,90.0039 179.9453,92.0895 179.9449,92.0973 179.7812,94.1772 179.7804,94.1850 179.5080,96.2535 179.5068,96.2612 179.1266,98.3126 179.1250,98.3202 178.6379,100.3490 178.6359,100.3565 178.0434,102.3569 178.0410,102.3644 177.3445,104.3310 177.3417,104.3383 176.5433,106.2659 176.5401,106.2730 175.6420,108.1561 175.6384,108.1630 174.6428,109.9966 174.6389,110.0033 173.5488,111.7823 173.5446,111.7888 172.3629,113.5082 172.3583,113.5145 171.0882,115.1697 171.0833,115.1757 169.7283,116.7622 169.7231,116.7680 168.2870,118.2815 168.2815,118.2870 166.7680,119.7231 166.7622,119.7283 165.1757,121.0833 165.1697,121.0882 163.5145,122.3583 163.5082,122.3629 161.7888,123.5446 161.7823,123.5488 160.0033,124.6389 159.9966,124.6428 158.1630,125.6384 158.1561,125.6420 156.2730,126.5401 156.2659,126.5433 154.3383,127.3417 154.3310,127.3445 152.3644,128.0410 152.3569,128.0434 150.3565,128.6359 150.3490,128.6379 148.3202,129.1250 148.3126,129.1266 146.2612,129.5068 146.2535,129.5080 144.1850,129.7804 144.1772,129.7812 142.0973,129.9449 142.0895,129.9453 140.0039,129.9999 139.9961,129.9999 137.9105,129.9453 137.9027,129.9449 135.8227,129.7812 135.8150,129.7804 133.7465,129.5080 133.7388,129.5068 131.6874,129.1266 131.6797,129.1250 129.6510,128.6379 129.6434,128.6359 127.6430,128.0434 127.6356,128.0410 125.6690,127.3445 125.6617,127.3417 123.7341,126.5433 123.7270,126.5401 121.8439,125.6420 121.8370,125.6384 120.0034,124.6428 119.9967,124.6389 118.2177,123.5488 118.2112,123.5446 116.4918,122.3629 116.4855,122.3583 114.8303,121.0882 114.8242,121.0833 113.2378,119.7283 113.2320,119.7231 111.7185,118.2870 111.7130,118.2815 110.2769,116.7680 110.2717,116.7622 108.9167,115.1757 108.9118,115.1697 107.6417,113.5145 107.6371,113.5082 106.4554,111.7888 106.4512,111.7823 105.3610,110.0033 105.3571,109.9966 104.3616,108.1630 104.3580,108.1561 103.4599,106.2730 103.4567,106.2659 102.6583,104.3383 102.6555,104.3310 101.9590,102.3644 101.9566,102.3569 101.3641,100.3565 101.3621,100.3490 100.8750,98.3202 100.8734,98.3126 100.4932,96.2612 100.4920,96.2535 100.2196,94.1850 100.2188,94.1772 100.0551,92.0973 100.0547,92.0895 100.0001,90.0039 100.0001,89.9961 100.0547,87.9105 100.0551,87.9027 100.2188,85.8227 100.2196,85.8150 100.4920,83.7465 100.4932,83.7388 100.8734,81.6874 100.8750,81.6797 101.3621,79.6510 101.3641,79.6434 101.9566,77.6430 101.9590,77.6356 102.6555,75.6690 102.6583,75.6617 103.4567,73.7341 103.4599,73.7270 104.3580,71.8439 104.3616,71.8370 105.3571,70.0034 105.3610,69.9967 106.4512,68.2177 106.4554,68.2112 107.6371,66.4918 107.6417,66.4855 108.9118,64.8303 108.9167,64.8242 110.2717,63.2378 110.2769,63.2320 111.7130,61.7185 111.7185,61.7130 113.2320,60.2769 113.2378,60.2717 114.8242,58.9167 114.8303,58.9118 116.4855,57.6417 116.4918,57.6371 118.2112,56.4554 118.2177,56.4512 119.9967,55.3610 120.0034,55.3571 121.8370,54.3616 121.8439,54.3580 123.7270,53.4599 123.7341,53.4567 125.6617,52.6583 125.6690,52.6555 127.6356,51.9590 127.6430,51.9566 129.6434,51.3641 129.6510,51.3621 131.6797,50.8750 131.6874,50.8734 133.7388,50.4932 133.7465,50.4920 135.8150,50.2196 135.8227,50.2188 137.9027,50.0551 137.9105,50.0547 139.9961,50.0001 140.0039,50.0001 Z"/> 
</g>
</g>
</g> 
</g><g id="substrate-copper" style="fill:#f8f8f7; stroke:#f8f8f7;"><g style="fill-opacity: 0.0;stroke-width: 0.0000;stroke-opacity: 1;stroke-linecap: round;stroke-linejoin: round">
<g style="fill-opacity: 1.0000;stroke-width: 0.0000;stroke-opacity: 1;stroke-linecap: round;stroke-linejoin: round">
<path style="fill-opacity: 1.0000;stroke-width: 0.0000;stroke-opacity: 1;stroke-linecap: round;stroke-linejoin: round;fill-rule: evenodd" d="M 124.2843,83.2103 124.9726,82.2274 128.2492,84.5217 127.5610,85.5046 Z"/> 
</g>
<g style="fill-opacity: 1.0000;stroke-width: 0.0000;stroke-opacity: 1;stroke-linecap: round;stroke-linejoin: round">
<circle cx="106.1909" cy="72.0819" r="0.4000"/> 
</g>
<g style="fill-opacity: 1.0000;stroke-width: 0.0000;stroke-opacity: 1;stroke-linecap: round;stroke-linejoin: round">
<circle cx="178.2386" cy="88.6130" r="0.4000"/> 
</g>
<g style="fill-opacity: 1.0000;stroke-width: 0.0000;stroke-opacity: 1;stroke-linecap: round;stroke-linejoin: round">
<circle cx="176.4069" cy="101.7750" r="0.4000"/> 
</g>
<g style="fill-opacity: 1.0000;stroke-width: 0.0000;stroke-opacity: 1;stroke-linecap: round;stroke-linejoin: round">
<circle cx="107.5779" cy="110.3205" r="0.4000"/> 
</g>
<g style="fill-opacity: 1.0000;stroke-width: 0.0000;stroke-opacity: 1;stroke-linecap: round;stroke-linejoin: round">
<circle cx="102.1015" cy="84.7259" r="0.4000"/> 
</g>
<g style="fill-opacity: 1.0000;stroke-width: 0.0000;stroke-opacity: 1;stroke-linecap: round;stroke-linejoin: round">
<circle cx="103.5931" cy="78.2250" r="0.4000"/> 
</g>
<g style="fill-opacity: 1.0000;stroke-width: 0.0000;stroke-opacity: 1;stroke-linecap: round;stroke-linejoin: round">
<circle cx="111.5991" cy="115.6418" r="0.4000"/> 
</g>
<g style="fill-opacity: 1.0000;stroke-width: 0.0000;stroke-opacity: 1;stroke-linecap: round;stroke-linejoin: round">
<circle cx="177.8985" cy="95.2741" r="0.4000"/> 
</g>
<g style="fill-opacity: 1.0000;stroke-width: 0.0000;stroke-opacity: 1;stroke-linecap: round;stroke-linejoin: round">
<circle cx="168.4009" cy="64.3582" r="0.4000"/> 
</g>
<g style="fill-opacity: 1.0000;stroke-width: 0.0000;stroke-opacity: 1;stroke-linecap: round;stroke-linejoin: round">
<circle cx="177.4168" cy="81.9940" r="0.4000"/> 
</g>
<g style="fill-opacity: 1.0000;stroke-width: 0.0000;stroke-opacity: 1;stroke-linecap: round;stroke-linejoin: round">
<circle cx="104.5419" cy="104.3817" r="0.4000"/> 
</g>
<g style="fill-opacity: 1.0000;stroke-width: 0.0000;stroke-opacity: 1;stroke-linecap: round;stroke-linejoin: round">
<circle cx="175.4581" cy="75.6183" r="0.4000"/> 
</g>
<g style="fill-opacity: 1.0000;stroke-width: 0.0000;stroke-opacity: 1;stroke-linecap: round;stroke-linejoin: round">
<circle cx="116.4832" cy="120.1840" r="0.4000"/> 
</g>
<g style="fill-opacity: 1.0000;stroke-width: 0.0000;stroke-opacity: 1;stroke-linecap: round;stroke-linejoin: round">
<circle cx="101.7614" cy="91.3870" r="0.4000"/> 
</g>
<g style="fill-opacity: 1.0000;stroke-width: 0.0000;stroke-opacity: 1;stroke-linecap: round;stroke-linejoin: round">
<circle cx="163.5168" cy="59.8160" r="0.4000"/> 
</g>
<g style="fill-opacity: 1.0000;stroke-width: 0.0000;stroke-opacity: 1;stroke-linecap: round;stroke-linejoin: round">
<circle cx="173.8091" cy="107.9181" r="0.4000"/> 
</g>
<g style="fill-opacity: 1.0000;stroke-width: 0.0000;stroke-opacity: 1;stroke-linecap: round;stroke-linejoin: round">
<circle cx="172.4221" cy="69.6795" r="0.4000"/> 
</g>
<g style="fill-opacity: 1.0000;stroke-width: 0.0000;stroke-opacity: 1;stroke-linecap: round;stroke-linejoin: round">
<circle cx="102.5832" cy="98.0060" r="0.4000"/> 
</g>
<g style="fill-opacity: 1.0000;stroke-width: 0.0212;stroke-opacity: 1;stroke-linecap: round;stroke-linejoin: round">
<g style="fill-opacity: 1.0000;stroke-width: 0.0000;stroke-opacity: 1;stroke-linecap: round;stroke-linejoin: round">
<path style="fill-opacity: 1.0000;stroke-width: 0.0000;stroke-opacity: 1;stroke-linecap: round;stroke-linejoin: round;fill-rule: evenodd" d="M 140.4182,50.0109 142.0895,50.0547 142.0973,50.0551 144.1772,50.2188 144.1850,50.2196 144.7316,50.2916 146.2535,50.4920 146.2612,50.4932 147.1570,50.6592 148.3126,50.8734 148.3202,50.8750 150.3490,51.3621 150.3565,51.3641 152.3569,51.9566 152.3644,51.9590 154.3310,52.6555 154.3383,52.6583 156.2659,53.4567 156.2730,53.4599 158.1561,54.3580 158.1630,54.3616 159.9966,55.3571 160.0033,55.3610 161.7823,56.4512 161.7888,56.4554 163.5082,57.6371 163.5145,57.6417 165.1697,58.9118 165.1757,58.9167 166.7622,60.2717 166.7680,60.2769 168.2815,61.7130 168.2870,61.7185 169.7231,63.2320 169.7283,63.2378 171.0833,64.8242 171.0882,64.8303 172.3583,66.4855 172.3629,66.4918 173.5446,68.2112 173.5488,68.2177 174.6389,69.9967 174.6428,70.0034 175.6384,71.8370 175.6420,71.8439 176.5401,73.7270 176.5433,73.7341 177.3417,75.6617 177.3417,75.6617 177.3445,75.6690 178.0410,77.6356 178.0434,77.6430 178.6359,79.6434 178.6379,79.6510 179.1250,81.6797 179.1266,81.6874 179.5068,83.7388 179.5080,83.7465 179.7804,85.8150 179.7812,85.8227 179.9449,87.9027 179.9453,87.9105 179.9999,89.9961 179.9999,90.0039 179.9453,92.0895 179.9449,92.0973 179.7812,94.1772 179.7804,94.1850 179.5080,96.2535 179.5068,96.2612 179.1266,98.3126 179.1250,98.3202 178.6379,100.3490 178.6359,100.3565 178.0434,102.3569 178.0410,102.3644 177.3445,104.3310 177.3417,104.3383 177.1150,104.8855 176.5433,106.2659 176.5401,106.2730 175.6420,108.1561 175.6384,108.1630 174.6428,109.9966 174.6389,110.0033 173.5488,111.7823 173.5446,111.7888 172.3629,113.5082 172.3583,113.5145 171.0882,115.1697 171.0882,115.1697 171.0833,115.1757 169.7283,116.7622 169.7231,116.7680 168.2870,118.2815 168.2815,118.2870 167.1759,119.3360 166.7680,119.7231 166.7622,119.7283 165.1757,121.0833 165.1697,121.0882 163.5145,122.3583 163.5145,122.3583 163.5082,122.3629 161.7888,123.5446 161.7823,123.5488 160.0033,124.6389 159.9966,124.6428 158.1630,125.6384 158.1561,125.6420 156.2730,126.5401 156.2659,126.5433 154.3383,127.3417 154.3310,127.3445 152.3644,128.0410 152.3569,128.0434 150.3565,128.6359 150.3490,128.6379 148.3202,129.1250 148.3126,129.1266 147.1570,129.3408 146.2612,129.5068 146.2535,129.5080 144.2063,129.7776 144.1850,129.7804 144.1772,129.7812 142.0973,129.9449 142.0895,129.9453 140.3541,129.9907 140.0039,129.9999 139.9961,129.9999 139.6459,129.9907 137.9105,129.9453 137.9027,129.9449 135.8227,129.7812 135.8150,129.7804 135.7924,129.7774 133.7465,129.5080 133.7388,129.5068 132.8427,129.3407 131.6874,129.1266 131.6797,129.1250 129.6510,128.6379 129.6434,128.6359 127.6430,128.0434 127.6356,128.0410 125.6690,127.3445 125.6617,127.3417 123.7341,126.5433 123.7270,126.5401 121.8439,125.6420 121.8370,125.6384 120.0034,124.6428 119.9967,124.6389 118.2177,123.5488 118.2112,123.5446 116.4918,122.3629 116.4855,122.3583 114.8303,121.0882 114.8242,121.0833 113.2378,119.7283 113.2320,119.7231 111.7185,118.2870 111.7130,118.2815 110.2769,116.7680 110.2717,116.7622 108.9167,115.1757 108.9118,115.1697 107.6417,113.5145 107.6371,113.5082 106.4554,111.7888 106.4512,111.7823 105.3610,110.0033 105.3571,109.9966 104.3616,108.1630 104.3580,108.1561 103.4599,106.2730 103.4567,106.2659 102.6583,104.3383 102.6555,104.3310 101.9590,102.3644 101.9566,102.3569 101.3641,100.3565 101.3621,100.3490 100.8750,98.3202 100.8734,98.3126 100.4932,96.2612 100.4920,96.2535 100.2196,94.1850 100.2188,94.1772 100.0551,92.0973 100.0547,92.0895 100.0001,90.0039 100.0001,89.9961 100.0547,87.9105 100.0551,87.9027 100.2188,85.8227 100.2196,85.8150 100.4920,83.7465 100.4932,83.7388 100.8734,81.6874 100.8750,81.6797 101.3621,79.6510 101.3641,79.6434 101.9566,77.6430 101.9590,77.6356 102.6555,75.6690 102.6583,75.6617 103.4567,73.7341 103.4599,73.7270 104.3580,71.8439 104.3616,71.8370 105.3571,70.0034 105.3610,69.9967 106.4512,68.2177 106.4554,68.2112 107.6371,66.4918 107.6417,66.4855 108.9118,64.8303 108.9167,64.8242 110.2717,63.2378 110.2769,63.2320 111.7130,61.7185 111.7185,61.7130 113.2320,60.2769 113.2378,60.2717 114.8242,58.9167 114.8303,58.9118 116.4855,57.6417 116.4918,57.6371 118.2112,56.4554 118.2177,56.4512 119.9967,55.3610 120.0034,55.3571 121.8370,54.3616 121.8439,54.3580 123.7270,53.4599 123.7341,53.4567 125.6617,52.6583 125.6690,52.6555 127.6356,51.9590 127.6430,51.9566 129.6434,51.3641 129.6510,51.3621 131.6797,50.8750 131.6874,50.8734 132.8427,50.6593 133.7388,50.4932 133.7465,50.4920 135.2679,50.2916 135.8150,50.2196 135.8227,50.2188 137.9027,50.0551 137.9105,50.0547 139.5818,50.0109 139.9961,50.0001 140.0039,50.0001 Z"/> 
</g>
</g>
</g> 
</g><g id="substrate-pads" style="fill:#c4c1ba; stroke:#c4c1ba;" mask="url(#pads-mask)"><g style="fill-opacity: 0.0;stroke-width: 0.0000;stroke-opacity: 1;stroke-linecap: round;stroke-linejoin: round">
<g style="fill-opacity: 1.0000;stroke-width: 0.0000;stroke-opacity: 1;stroke-linecap: round;stroke-linejoin: round">
<path style="fill-opacity: 1.0000;stroke-width: 0.0000;stroke-opacity: 1;stroke-linecap: round;stroke-linejoin: round;fill-rule: evenodd" d="M 124.2843,83.2103 124.9726,82.2274 128.2492,84.5217 127.5610,85.5046 Z"/> 
</g>
<g style="fill-opacity: 1.0000;stroke-width: 0.0000;stroke-opacity: 1;stroke-linecap: round;stroke-linejoin: round">
<circle cx="106.1909" cy="72.0819" r="0.4000"/> 
</g>
<g style="fill-opacity: 1.0000;stroke-width: 0.0000;stroke-opacity: 1;stroke-linecap: round;stroke-linejoin: round">
<circle cx="178.2386" cy="88.6130" r="0.4000"/> 
</g>
<g style="fill-opacity: 1.0000;stroke-width: 0.0000;stroke-opacity: 1;stroke-linecap: round;stroke-linejoin: round">
<circle cx="176.4069" cy="101.7750" r="0.4000"/> 
</g>
<g style="fill-opacity: 1.0000;stroke-width: 0.0000;stroke-opacity: 1;stroke-linecap: round;stroke-linejoin: round">
<circle cx="107.5779" cy="110.3205" r="0.4000"/> 
</g>
<g style="fill-opacity: 1.0000;stroke-width: 0.0000;stroke-opacity: 1;stroke-linecap: round;stroke-linejoin: round">
<circle cx="102.1015" cy="84.7259" r="0.4000"/> 
</g>
<g style="fill-opacity: 1.0000;stroke-width: 0.0000;stroke-opacity: 1;stroke-linecap: round;stroke-linejoin: round">
<circle cx="103.5931" cy="78.2250" r="0.4000"/> 
</g>
<g style="fill-opacity: 1.0000;stroke-width: 0.0000;stroke-opacity: 1;stroke-linecap: round;stroke-linejoin: round">
<circle cx="111.5991" cy="115.6418" r="0.4000"/> 
</g>
<g style="fill-opacity: 1.0000;stroke-width: 0.0000;stroke-opacity: 1;stroke-linecap: round;stroke-linejoin: round">
<circle cx="177.8985" cy="95.2741" r="0.4000"/> 
</g>
<g style="fill-opacity: 1.0000;stroke-width: 0.0000;stroke-opacity: 1;stroke-linecap: round;stroke-linejoin: round">
<circle cx="168.4009" cy="64.3582" r="0.4000"/> 
</g>
<g style="fill-opacity: 1.0000;stroke-width: 0.0000;stroke-opacity: 1;stroke-linecap: round;stroke-linejoin: round">
<circle cx="177.4168" cy="81.9940" r="0.4000"/> 
</g>
<g style="fill-opacity: 1.0000;stroke-width: 0.0000;stroke-opacity: 1;stroke-linecap: round;stroke-linejoin: round">
<circle cx="104.5419" cy="104.3817" r="0.4000"/> 
</g>
<g style="fill-opacity: 1.0000;stroke-width: 0.0000;stroke-opacity: 1;stroke-linecap: round;stroke-linejoin: round">
<circle cx="175.4581" cy="75.6183" r="0.4000"/> 
</g>
<g style="fill-opacity: 1.0000;stroke-width: 0.0000;stroke-opacity: 1;stroke-linecap: round;stroke-linejoin: round">
<circle cx="116.4832" cy="120.1840" r="0.4000"/> 
</g>
<g style="fill-opacity: 1.0000;stroke-width: 0.0000;stroke-opacity: 1;stroke-linecap: round;stroke-linejoin: round">
<circle cx="101.7614" cy="91.3870" r="0.4000"/> 
</g>
<g style="fill-opacity: 1.0000;stroke-width: 0.0000;stroke-opacity: 1;stroke-linecap: round;stroke-linejoin: round">
<circle cx="163.5168" cy="59.8160" r="0.4000"/> 
</g>
<g style="fill-opacity: 1.0000;stroke-width: 0.0000;stroke-opacity: 1;stroke-linecap: round;stroke-linejoin: round">
<circle cx="173.8091" cy="107.9181" r="0.4000"/> 
</g>
<g style="fill-opacity: 1.0000;stroke-width: 0.0000;stroke-opacity: 1;stroke-linecap: round;stroke-linejoin: round">
<circle cx="172.4221" cy="69.6795" r="0.4000"/> 
</g>
<g style="fill-opacity: 1.0000;stroke-width: 0.0000;stroke-opacity: 1;stroke-linecap: round;stroke-linejoin: round">
<circle cx="102.5832" cy="98.0060" r="0.4000"/> 
</g>
<g style="fill-opacity: 1.0000;stroke-width: 0.0212;stroke-opacity: 1;stroke-linecap: round;stroke-linejoin: round">
<g style="fill-opacity: 1.0000;stroke-width: 0.0000;stroke-opacity: 1;stroke-linecap: round;stroke-linejoin: round">
<path style="fill-opacity: 1.0000;stroke-width: 0.0000;stroke-opacity: 1;stroke-linecap: round;stroke-linejoin: round;fill-rule: evenodd" d="M 140.4182,50.0109 142.0895,50.0547 142.0973,50.0551 144.1772,50.2188 144.1850,50.2196 144.7316,50.2916 146.2535,50.4920 146.2612,50.4932 147.1570,50.6592 148.3126,50.8734 148.3202,50.8750 150.3490,51.3621 150.3565,51.3641 152.3569,51.9566 152.3644,51.9590 154.3310,52.6555 154.3383,52.6583 156.2659,53.4567 156.2730,53.4599 158.1561,54.3580 158.1630,54.3616 159.9966,55.3571 160.0033,55.3610 161.7823,56.4512 161.7888,56.4554 163.5082,57.6371 163.5145,57.6417 165.1697,58.9118 165.1757,58.9167 166.7622,60.2717 166.7680,60.2769 168.2815,61.7130 168.2870,61.7185 169.7231,63.2320 169.7283,63.2378 171.0833,64.8242 171.0882,64.8303 172.3583,66.4855 172.3629,66.4918 173.5446,68.2112 173.5488,68.2177 174.6389,69.9967 174.6428,70.0034 175.6384,71.8370 175.6420,71.8439 176.5401,73.7270 176.5433,73.7341 177.3417,75.6617 177.3417,75.6617 177.3445,75.6690 178.0410,77.6356 178.0434,77.6430 178.6359,79.6434 178.6379,79.6510 179.1250,81.6797 179.1266,81.6874 179.5068,83.7388 179.5080,83.7465 179.7804,85.8150 179.7812,85.8227 179.9449,87.9027 179.9453,87.9105 179.9999,89.9961 179.9999,90.0039 179.9453,92.0895 179.9449,92.0973 179.7812,94.1772 179.7804,94.1850 179.5080,96.2535 179.5068,96.2612 179.1266,98.3126 179.1250,98.3202 178.6379,100.3490 178.6359,100.3565 178.0434,102.3569 178.0410,102.3644 177.3445,104.3310 177.3417,104.3383 177.1150,104.8855 176.5433,106.2659 176.5401,106.2730 175.6420,108.1561 175.6384,108.1630 174.6428,109.9966 174.6389,110.0033 173.5488,111.7823 173.5446,111.7888 172.3629,113.5082 172.3583,113.5145 171.0882,115.1697 171.0882,115.1697 171.0833,115.1757 169.7283,116.7622 169.7231,116.7680 168.2870,118.2815 168.2815,118.2870 167.1759,119.3360 166.7680,119.7231 166.7622,119.7283 165.1757,121.0833 165.1697,121.0882 163.5145,122.3583 163.5145,122.3583 163.5082,122.3629 161.7888,123.5446 161.7823,123.5488 160.0033,124.6389 159.9966,124.6428 158.1630,125.6384 158.1561,125.6420 156.2730,126.5401 156.2659,126.5433 154.3383,127.3417 154.3310,127.3445 152.3644,128.0410 152.3569,128.0434 150.3565,128.6359 150.3490,128.6379 148.3202,129.1250 148.3126,129.1266 147.1570,129.3408 146.2612,129.5068 146.2535,129.5080 144.2063,129.7776 144.1850,129.7804 144.1772,129.7812 142.0973,129.9449 142.0895,129.9453 140.3541,129.9907 140.0039,129.9999 139.9961,129.9999 139.6459,129.9907 137.9105,129.9453 137.9027,129.9449 135.8227,129.7812 135.8150,129.7804 135.7924,129.7774 133.7465,129.5080 133.7388,129.5068 132.8427,129.3407 131.6874,129.1266 131.6797,129.1250 129.6510,128.6379 129.6434,128.6359 127.6430,128.0434 127.6356,128.0410 125.6690,127.3445 125.6617,127.3417 123.7341,126.5433 123.7270,126.5401 121.8439,125.6420 121.8370,125.6384 120.0034,124.6428 119.9967,124.6389 118.2177,123.5488 118.2112,123.5446 116.4918,122.3629 116.4855,122.3583 114.8303,121.0882 114.8242,121.0833 113.2378,119.7283 113.2320,119.7231 111.7185,118.2870 111.7130,118.2815 110.2769,116.7680 110.2717,116.7622 108.9167,115.1757 108.9118,115.1697 107.6417,113.5145 107.6371,113.5082 106.4554,111.7888 106.4512,111.7823 105.3610,110.0033 105.3571,109.9966 104.3616,108.1630 104.3580,108.1561 103.4599,106.2730 103.4567,106.2659 102.6583,104.3383 102.6555,104.3310 101.9590,102.3644 101.9566,102.3569 101.3641,100.3565 101.3621,100.3490 100.8750,98.3202 100.8734,98.3126 100.4932,96.2612 100.4920,96.2535 100.2196,94.1850 100.2188,94.1772 100.0551,92.0973 100.0547,92.0895 100.0001,90.0039 100.0001,89.9961 100.0547,87.9105 100.0551,87.9027 100.2188,85.8227 100.2196,85.8150 100.4920,83.7465 100.4932,83.7388 100.8734,81.6874 100.8750,81.6797 101.3621,79.6510 101.3641,79.6434 101.9566,77.6430 101.9590,77.6356 102.6555,75.6690 102.6583,75.6617 103.4567,73.7341 103.4599,73.7270 104.3580,71.8439 104.3616,71.8370 105.3571,70.0034 105.3610,69.9967 106.4512,68.2177 106.4554,68.2112 107.6371,66.4918 107.6417,66.4855 108.9118,64.8303 108.9167,64.8242 110.2717,63.2378 110.2769,63.2320 111.7130,61.7185 111.7185,61.7130 113.2320,60.2769 113.2378,60.2717 114.8242,58.9167 114.8303,58.9118 116.4855,57.6417 116.4918,57.6371 118.2112,56.4554 118.2177,56.4512 119.9967,55.3610 120.0034,55.3571 121.8370,54.3616 121.8439,54.3580 123.7270,53.4599 123.7341,53.4567 125.6617,52.6583 125.6690,52.6555 127.6356,51.9590 127.6430,51.9566 129.6434,51.3641 129.6510,51.3621 131.6797,50.8750 131.6874,50.8734 132.8427,50.6593 133.7388,50.4932 133.7465,50.4920 135.2679,50.2916 135.8150,50.2196 135.8227,50.2188 137.9027,50.0551 137.9105,50.0547 139.5818,50.0109 139.9961,50.0001 140.0039,50.0001 Z"/> 
</g>
</g>
</g> 
</g><g id="substrate-outline" style="fill:#000000; stroke:#000000; stroke-width: 0.15"><g style="fill-opacity: 0.0;stroke-opacity: 1;stroke-linecap: round;stroke-linejoin: round">
<path style="fill-opacity: 0.0;stroke-opacity: 1;stroke-linecap: round;stroke-linejoin: round" d="M 142.0934,50.0548 144.1811,50.2191 146.2574,50.4925 148.3165,50.8741 150.3528,51.3630 152.3607,51.9577 154.3347,52.6568 156.2695,53.4582 158.1596,54.3597 160.0000,55.3590 161.7856,56.4532 163.5114,57.6393 165.1728,58.9142 166.7652,60.2742 168.2843,61.7157 169.7258,63.2348 171.0858,64.8272 172.3607,66.4886 173.5468,68.2144 174.6410,70.0000 175.6403,71.8404 176.5418,73.7305 177.3432,75.6653 178.0423,77.6393 178.6370,79.6472 179.1259,81.6835 179.5075,83.7426 179.7809,85.8189 179.9452,87.9066 180.0000,90.0000 179.9452,92.0934 179.7809,94.1811 179.5075,96.2574 179.1259,98.3165 178.6370,100.3528 178.0423,102.3607 177.3432,104.3347 176.5418,106.2695 175.6403,108.1596 174.6410,110.0000 173.5468,111.7856 172.3607,113.5114 171.0858,115.1728 169.7258,116.7652 168.2843,118.2843 166.7652,119.7258 165.1728,121.0858 163.5114,122.3607 161.7856,123.5468 160.0000,124.6410 158.1596,125.6403 156.2695,126.5418 154.3347,127.3432 152.3607,128.0423 150.3528,128.6370 148.3165,129.1259 146.2574,129.5075 144.1811,129.7809 142.0934,129.9452 140.0000,130.0000 137.9066,129.9452 135.8189,129.7809 133.7426,129.5075 131.6835,129.1259 129.6472,128.6370 127.6393,128.0423 125.6653,127.3432 123.7305,126.5418 121.8404,125.6403 120.0000,124.6410 118.2144,123.5468 116.4886,122.3607 114.8272,121.0858 113.2348,119.7258 111.7157,118.2843 110.2742,116.7652 108.9142,115.1728 107.6393,113.5114 106.4532,111.7856 105.3590,110.0000 104.3597,108.1596 103.4582,106.2695 102.6568,104.3347 101.9577,102.3607 101.3630,100.3528 100.8741,98.3165 100.4925,96.2574 100.2191,94.1811 100.0548,92.0934 100.0000,90.0000 100.0548,87.9066 100.2191,85.8189 100.4925,83.7426 100.8741,81.6835 101.3630,79.6472 101.9577,77.6393 102.6568,75.6653 103.4582,73.7305 104.3597,71.8404 105.3590,70.0000 106.4532,68.2144 107.6393,66.4886 108.9142,64.8272 110.2742,63.2348 111.7157,61.7157 113.2348,60.2742 114.8272,58.9142 116.4886,57.6393 118.2144,56.4532 120.0000,55.3590 121.8404,54.3597 123.7305,53.4582 125.6653,52.6568 127.6393,51.9577 129.6472,51.3630 131.6835,50.8741 133.7426,50.4925 135.8189,50.2191 137.9066,50.0548 140.0000,50.0000 Z"/> 
</g> 
<path d="M -0.2 0.0 A 0.2 0.2 0 1 1 0.2 0.0 L 0.2 -0.0 A 0.2 0.2 0 1 1 -0.2 -0.0 Z" transform="translate(106.190913 72.08187) rotate(-0.0)"/><path d="M -0.2 0.0 A 0.2 0.2 0 1 1 0.2 0.0 L 0.2 -0.0 A 0.2 0.2 0 1 1 -0.2 -0.0 Z" transform="translate(178.238593 88.613013) rotate(-0.0)"/><path d="M -0.2 0.0 A 0.2 0.2 0 1 1 0.2 0.0 L 0.2 -0.0 A 0.2 0.2 0 1 1 -0.2 -0.0 Z" transform="translate(176.406901 101.775027) rotate(-0.0)"/><path d="M -0.2 0.0 A 0.2 0.2 0 1 1 0.2 0.0 L 0.2 -0.0 A 0.2 0.2 0 1 1 -0.2 -0.0 Z" transform="translate(107.577901 110.320463) rotate(-0.0)"/><path d="M -0.2 0.0 A 0.2 0.2 0 1 1 0.2 0.0 L 0.2 -0.0 A 0.2 0.2 0 1 1 -0.2 -0.0 Z" transform="translate(102.101489 84.725854) rotate(-0.0)"/><path d="M -0.2 0.0 A 0.2 0.2 0 1 1 0.2 0.0 L 0.2 -0.0 A 0.2 0.2 0 1 1 -0.2 -0.0 Z" transform="translate(103.593099 78.224973) rotate(-0.0)"/><path d="M -0.2 0.0 A 0.2 0.2 0 1 1 0.2 0.0 L 0.2 -0.0 A 0.2 0.2 0 1 1 -0.2 -0.0 Z" transform="translate(111.599076 115.641788) rotate(-0.0)"/><path d="M -0.2 0.0 A 0.2 0.2 0 1 1 0.2 0.0 L 0.2 -0.0 A 0.2 0.2 0 1 1 -0.2 -0.0 Z" transform="translate(177.898511 95.274146) rotate(-0.0)"/><path d="M -0.2 0.0 A 0.2 0.2 0 1 1 0.2 0.0 L 0.2 -0.0 A 0.2 0.2 0 1 1 -0.2 -0.0 Z" transform="translate(168.400924 64.358212) rotate(-0.0)"/><path d="M -0.2 0.0 A 0.2 0.2 0 1 1 0.2 0.0 L 0.2 -0.0 A 0.2 0.2 0 1 1 -0.2 -0.0 Z" transform="translate(177.416815 81.994022) rotate(-0.0)"/><path d="M -0.2 0.0 A 0.2 0.2 0 1 1 0.2 0.0 L 0.2 -0.0 A 0.2 0.2 0 1 1 -0.2 -0.0 Z" transform="translate(104.541854 104.381711) rotate(-0.0)"/><path d="M -0.2 0.0 A 0.2 0.2 0 1 1 0.2 0.0 L 0.2 -0.0 A 0.2 0.2 0 1 1 -0.2 -0.0 Z" transform="translate(175.458146 75.618289) rotate(-0.0)"/><path d="M -0.2 0.0 A 0.2 0.2 0 1 1 0.2 0.0 L 0.2 -0.0 A 0.2 0.2 0 1 1 -0.2 -0.0 Z" transform="translate(116.4832 120.184) rotate(-0.0)"/><path d="M -0.2 0.0 A 0.2 0.2 0 1 1 0.2 0.0 L 0.2 -0.0 A 0.2 0.2 0 1 1 -0.2 -0.0 Z" transform="translate(101.761407 91.386987) rotate(-0.0)"/><path d="M -0.2 0.0 A 0.2 0.2 0 1 1 0.2 0.0 L 0.2 -0.0 A 0.2 0.2 0 1 1 -0.2 -0.0 Z" transform="translate(163.5168 59.816) rotate(-0.0)"/><path d="M -0.2 0.0 A 0.2 0.2 0 1 1 0.2 0.0 L 0.2 -0.0 A 0.2 0.2 0 1 1 -0.2 -0.0 Z" transform="translate(173.809087 107.91813) rotate(-0.0)"/><path d="M -0.2 0.0 A 0.2 0.2 0 1 1 0.2 0.0 L 0.2 -0.0 A 0.2 0.2 0 1 1 -0.2 -0.0 Z" transform="translate(172.422099 69.679537) rotate(-0.0)"/><path d="M -0.2 0.0 A 0.2 0.2 0 1 1 0.2 0.0 L 0.2 -0.0 A 0.2 0.2 0 1 1 -0.2 -0.0 Z" transform="translate(102.583185 98.005978) rotate(-0.0)"/></g></g><g id="substrate-paste" style="fill:#8a8a8a; stroke:#8a8a8a;"><g style="fill-opacity: 0.0;stroke-width: 0.0000;stroke-opacity: 1;stroke-linecap: round;stroke-linejoin: round">
<g style="fill-opacity: 1.0000;stroke-width: 0.0000;stroke-opacity: 1;stroke-linecap: round;stroke-linejoin: round">
<path style="fill-opacity: 1.0000;stroke-width: 0.0000;stroke-opacity: 1;stroke-linecap: round;stroke-linejoin: round;fill-rule: evenodd" d="M 124.2843,83.2103 124.9726,82.2274 128.2492,84.5217 127.5610,85.5046 Z"/> 
</g>
</g> 
</g></g></svg>