<!DOCTYPE svg PUBLIC "-//W3C//DTD SVG 1.1//EN" "http://www.w3.org/Graphics/SVG/1.1/DTD/svg11.dtd">
<svg xmlns="http://www.w3.org/2000/svg" version="1.1" width="90.049982mm" height="90.049982mm" viewBox="94.975001 44.975001 90.04998200000001 90.049982">
            <title>Picture generated by PcbDraw </title>
            <desc>Picture generated by PcbDraw</desc>
        <defs><clipPath id="cut-off"><path d="M140.0000 50.0000 L142.0934 50.0548 M 144.1811 50.2191 L 146.2574 50.4925 L 148.3165 50.8741 L 150.3528 51.363 L 152.3607 51.9577 L 154.3347 52.6568 L 156.2695 53.4582 L 158.1596 54.3597 L 160.0 55.359 L 161.7856 56.4532 L 163.5114 57.6393 L 165.1728 58.9142 L 166.7652 60.2742 L 168.2843 61.7157 L 169.7258 63.2348 L 171.0858 64.8272 L 172.3607 66.4886 L 173.5468 68.2144 L 174.641 70.0 L 175.6403 71.8404 L 176.5418 73.7305 L 177.3432 75.6653 L 178.0423 77.6393 L 178.637 79.6472 L 179.1259 81.6835 L 179.5075 83.7426 L 179.7809 85.8189 L 179.9452 87.9066 L 180.0 90.0 L 179.9452 92.0934 L 179.7809 94.1811 L 179.5075 96.2574 L 179.1259 98.3165 L 178.637 100.3528 L 178.0423 102.3607 L 177.3432 104.3347 L 176.5418 106.2695 L 175.6403 108.1596 L 174.641 110.0 L 173.5468 111.7856 L 172.3607 113.5114 L 171.0858 115.1728 L 169.7258 116.7652 L 168.2843 118.2843 L 166.7652 119.7258 L 165.1728 121.0858 L 163.5114 122.3607 L 161.7856 123.5468 L 160.0 124.641 L 158.1596 125.6403 L 156.2695 126.5418 L 154.3347 127.3432 L 152.3607 128.0423 L 150.3528 128.637 L 148.3165 129.1259 L 146.2574 129.5075 L 144.1811 129.7809 L 142.0934 129.9452 L 140.0 130.0 L 137.9066 129.9452 L 135.8189 129.7809 L 133.7426 129.5075 L 131.6835 129.1259 L 129.6472 128.637 L 127.6393 128.0423 L 125.6653 127.3432 L 123.7305 126.5418 L 121.8404 125.6403 L 120.0 124.641 L 118.2144 123.5468 L 116.4886 122.3607 L 114.8272 121.0858 L 113.2348 119.7258 L 111.7157 118.2843 L 110.2742 116.7652 L 108.9142 115.1728 L 107.6393 113.5114 L 106.4532 111.7856 L 105.359 110.0 L 104.3597 108.1596 L 103.4582 106.2695 L 102.6568 104.3347 L 101.9577 102.3607 L 101.363 100.3528 L 100.8741 98.3165 L 100.4925 96.2574 L 100.2191 94.1811 L 100.0548 92.0934 L 100.0 90.0 L 100.0548 87.9066 L 100.2191 85.8189 L 100.4925 83.7426 L 100.8741 81.6835 L 101.363 79.6472 L 101.9577 77.6393 L 102.6568 75.6653 L 103.4582 73.7305 L 104.3597 71.8404 L 105.359 70.0 L 106.4532 68.2144 L 107.6393 66.4886 L 108.9142 64.8272 L 110.2742 63.2348 L 111.7157 61.7157 L 113.2348 60.2742 L 114.8272 58.9142 L 116.4886 57.6393 L 118.2144 56.4532 L 120.0 55.359 L 121.8404 54.3597 L 123.7305 53.4582 L 125.6653 52.6568 L 127.6393 51.9577 L 129.6472 51.363 L 131.6835 50.8741 L 133.7426 50.4925 L 135.8189 50.2191 L 137.9066 50.0548 L 140.0 50.0 L 142.0934 50.0548 L 144.1811 50.2191 " style="fill-rule: evenodd;"/></clipPath><mask id="pads-mask"><g style="fill:#ffffff; fill-opacity:0.0;  stroke:#ffffff; stroke-width:0.0000; stroke-opacity:1;  stroke-linecap:round; stroke-linejoin:round;">
<g style="fill:#ffffff; fill-opacity:1.0000;  stroke:#ffffff; stroke-width:0.0000; stroke-opacity:1;  stroke-linecap:round; stroke-linejoin:round;">
<path style="fill:#ffffff; fill-opacity:1.0000;  stroke:#ffffff; stroke-width:0.0000; stroke-opacity:1;  stroke-linecap:round; stroke-linejoin:round;fill-rule:evenodd;" d="M 124.2843,83.2103 124.9726,82.2274 128.2492,84.5217 127.5610,85.5046 Z"/> 
</g>
<g style="fill:#ffffff; fill-opacity:1.0000;  stroke:#ffffff; stroke-width:0.0000; stroke-opacity:1;  stroke-linecap:round; stroke-linejoin:round;">
<g>
<path style="fill:#ffffff; fill-opacity:1.0000;  stroke:#ffffff; stroke-width:0.0000; stroke-opacity:1;  stroke-linecap:round; stroke-linejoin:round;fill-rule:evenodd;" d="M 142.0915,50.0547 142.0954,50.0549 144.1792,50.2189 144.1831,50.2194 146.2554,50.4922 146.2593,50.4929 148.3145,50.8737 148.3183,50.8746 150.3509,51.3625 150.3547,51.3636 152.3588,51.9571 152.3625,51.9583 154.3328,52.6561 154.3365,52.6575 156.2677,53.4575 156.2713,53.4590 158.1578,54.3589 158.1613,54.3606 159.9983,55.3581 160.0016,55.3600 161.7839,56.4522 161.7872,56.4543 163.5098,57.6382 163.5129,57.6405 165.1712,58.9130 165.1743,58.9155 166.7637,60.2729 166.7666,60.2755 168.2829,61.7144 168.2856,61.7171 169.7244,63.2334 169.7270,63.2363 171.0845,64.8257 171.0870,64.8288 172.3595,66.4870 172.3618,66.4902 173.5457,68.2128 173.5478,68.2161 174.6400,69.9983 174.6419,70.0017 175.6394,71.8387 175.6411,71.8422 176.5409,73.7287 176.5425,73.7323 177.3424,75.6635 177.3438,75.6671 178.0416,77.6375 178.0428,77.6412 178.6364,79.6453 178.6374,79.6491 179.1254,81.6816 179.1262,81.6855 179.5071,83.7407 179.5077,83.7445 179.7806,85.8169 179.7810,85.8208 179.9450,87.9046 179.9452,87.9085 179.9999,89.9980 179.9999,90.0019 179.9452,92.0915 179.9450,92.0954 179.7810,94.1792 179.7806,94.1831 179.5077,96.2554 179.5071,96.2593 179.1262,98.3145 179.1254,98.3183 178.6374,100.3509 178.6364,100.3547 178.0428,102.3588 178.0416,102.3625 177.3438,104.3328 177.3424,104.3365 176.5425,106.2677 176.5409,106.2713 175.6411,108.1578 175.6394,108.1613 174.6419,109.9983 174.6400,110.0016 173.5478,111.7839 173.5457,111.7872 172.3618,113.5098 172.3595,113.5129 171.0870,115.1712 171.0845,115.1743 169.7271,116.7637 169.7244,116.7666 168.2856,118.2829 168.2829,118.2856 166.7666,119.7244 166.7637,119.7271 165.1743,121.0845 165.1712,121.0870 163.5129,122.3595 163.5098,122.3618 161.7872,123.5457 161.7839,123.5478 160.0016,124.6400 159.9983,124.6419 158.1613,125.6394 158.1578,125.6411 156.2713,126.5409 156.2677,126.5425 154.3365,127.3424 154.3328,127.3438 152.3625,128.0416 152.3588,128.0428 150.3547,128.6364 150.3509,128.6374 148.3183,129.1254 148.3145,129.1262 146.2593,129.5071 146.2554,129.5077 144.1831,129.7806 144.1792,129.7810 142.0954,129.9450 142.0915,129.9452 140.0019,129.9999 139.9980,129.9999 137.9085,129.9452 137.9046,129.9450 135.8208,129.7810 135.8169,129.7806 133.7445,129.5077 133.7407,129.5071 131.6855,129.1262 131.6816,129.1254 129.6491,128.6374 129.6453,128.6364 127.6412,128.0428 127.6375,128.0416 125.6671,127.3438 125.6635,127.3424 123.7323,126.5425 123.7287,126.5409 121.8422,125.6411 121.8387,125.6394 120.0017,124.6419 119.9983,124.6400 118.2161,123.5478 118.2128,123.5457 116.4902,122.3618 116.4870,122.3595 114.8288,121.0870 114.8257,121.0845 113.2363,119.7270 113.2334,119.7244 111.7171,118.2856 111.7144,118.2829 110.2755,116.7666 110.2729,116.7637 108.9155,115.1743 108.9130,115.1712 107.6405,113.5129 107.6382,113.5098 106.4543,111.7872 106.4522,111.7839 105.3600,110.0016 105.3581,109.9983 104.3606,108.1613 104.3589,108.1578 103.4590,106.2713 103.4575,106.2677 102.6575,104.3365 102.6561,104.3328 101.9583,102.3625 101.9571,102.3588 101.3636,100.3547 101.3625,100.3509 100.8746,98.3183 100.8737,98.3145 100.4929,96.2593 100.4922,96.2554 100.2194,94.1831 100.2189,94.1792 100.0549,92.0954 100.0547,92.0915 100.0001,90.0019 100.0001,89.9980 100.0547,87.9085 100.0549,87.9046 100.2189,85.8208 100.2194,85.8169 100.4922,83.7445 100.4929,83.7407 100.8737,81.6855 100.8746,81.6816 101.3625,79.6491 101.3636,79.6453 101.9571,77.6412 101.9583,77.6375 102.6561,75.6671 102.6575,75.6635 103.4575,73.7323 103.4590,73.7287 104.3589,71.8422 104.3606,71.8387 105.3581,70.0017 105.3600,69.9983 106.4522,68.2161 106.4543,68.2128 107.6382,66.4902 107.6405,66.4871 108.9130,64.8287 108.9155,64.8257 110.2729,63.2363 110.2755,63.2334 111.7144,61.7171 111.7171,61.7144 113.2334,60.2755 113.2363,60.2729 114.8257,58.9155 114.8287,58.9130 116.4871,57.6405 116.4902,57.6382 118.2128,56.4543 118.2161,56.4522 119.9983,55.3600 120.0017,55.3581 121.8387,54.3606 121.8422,54.3589 123.7287,53.4590 123.7323,53.4575 125.6635,52.6575 125.6671,52.6561 127.6375,51.9583 127.6412,51.9571 129.6453,51.3636 129.6491,51.3625 131.6816,50.8746 131.6855,50.8737 133.7407,50.4929 133.7445,50.4922 135.8169,50.2194 135.8208,50.2189 137.9046,50.0549 137.9085,50.0547 139.9980,50.0001 140.0019,50.0001 Z"/> 
</g>
</g>
</g> 
</mask><mask id="pads-mask-silkscreen"><rect x="99.975001" y="49.975001" width="80.049982" height="80.049982" fill="white"/><g style="fill:#000000; fill-opacity:0.0;  stroke:#000000; stroke-width:0.0000; stroke-opacity:1;  stroke-linecap:round; stroke-linejoin:round;">
<g style="fill:#000000; fill-opacity:1.0000;  stroke:#000000; stroke-width:0.0000; stroke-opacity:1;  stroke-linecap:round; stroke-linejoin:round;">
<path style="fill:#000000; fill-opacity:1.0000;  stroke:#000000; stroke-width:0.0000; stroke-opacity:1;  stroke-linecap:round; stroke-linejoin:round;fill-rule:evenodd;" d="M 124.2843,83.2103 124.9726,82.2274 128.2492,84.5217 127.5610,85.5046 Z"/> 
</g>
<g style="fill:#000000; fill-opacity:1.0000;  stroke:#000000; stroke-width:0.0000; stroke-opacity:1;  stroke-linecap:round; stroke-linejoin:round;">
<g>
<path style="fill:#000000; fill-opacity:1.0000;  stroke:#000000; stroke-width:0.0000; stroke-opacity:1;  stroke-linecap:round; stroke-linejoin:round;fill-rule:evenodd;" d="M 142.0915,50.0547 142.0954,50.0549 144.1792,50.2189 144.1831,50.2194 146.2554,50.4922 146.2593,50.4929 148.3145,50.8737 148.3183,50.8746 150.3509,51.3625 150.3547,51.3636 152.3588,51.9571 152.3625,51.9583 154.3328,52.6561 154.3365,52.6575 156.2677,53.4575 156.2713,53.4590 158.1578,54.3589 158.1613,54.3606 159.9983,55.3581 160.0016,55.3600 161.7839,56.4522 161.7872,56.4543 163.5098,57.6382 163.5129,57.6405 165.1712,58.9130 165.1743,58.9155 166.7637,60.2729 166.7666,60.2755 168.2829,61.7144 168.2856,61.7171 169.7244,63.2334 169.7270,63.2363 171.0845,64.8257 171.0870,64.8288 172.3595,66.4870 172.3618,66.4902 173.5457,68.2128 173.5478,68.2161 174.6400,69.9983 174.6419,70.0017 175.6394,71.8387 175.6411,71.8422 176.5409,73.7287 176.5425,73.7323 177.3424,75.6635 177.3438,75.6671 178.0416,77.6375 178.0428,77.6412 178.6364,79.6453 178.6374,79.6491 179.1254,81.6816 179.1262,81.6855 179.5071,83.7407 179.5077,83.7445 179.7806,85.8169 179.7810,85.8208 179.9450,87.9046 179.9452,87.9085 179.9999,89.9980 179.9999,90.0019 179.9452,92.0915 179.9450,92.0954 179.7810,94.1792 179.7806,94.1831 179.5077,96.2554 179.5071,96.2593 179.1262,98.3145 179.1254,98.3183 178.6374,100.3509 178.6364,100.3547 178.0428,102.3588 178.0416,102.3625 177.3438,104.3328 177.3424,104.3365 176.5425,106.2677 176.5409,106.2713 175.6411,108.1578 175.6394,108.1613 174.6419,109.9983 174.6400,110.0016 173.5478,111.7839 173.5457,111.7872 172.3618,113.5098 172.3595,113.5129 171.0870,115.1712 171.0845,115.1743 169.7271,116.7637 169.7244,116.7666 168.2856,118.2829 168.2829,118.2856 166.7666,119.7244 166.7637,119.7271 165.1743,121.0845 165.1712,121.0870 163.5129,122.3595 163.5098,122.3618 161.7872,123.5457 161.7839,123.5478 160.0016,124.6400 159.9983,124.6419 158.1613,125.6394 158.1578,125.6411 156.2713,126.5409 156.2677,126.5425 154.3365,127.3424 154.3328,127.3438 152.3625,128.0416 152.3588,128.0428 150.3547,128.6364 150.3509,128.6374 148.3183,129.1254 148.3145,129.1262 146.2593,129.5071 146.2554,129.5077 144.1831,129.7806 144.1792,129.7810 142.0954,129.9450 142.0915,129.9452 140.0019,129.9999 139.9980,129.9999 137.9085,129.9452 137.9046,129.9450 135.8208,129.7810 135.8169,129.7806 133.7445,129.5077 133.7407,129.5071 131.6855,129.1262 131.6816,129.1254 129.6491,128.6374 129.6453,128.6364 127.6412,128.0428 127.6375,128.0416 125.6671,127.3438 125.6635,127.3424 123.7323,126.5425 123.7287,126.5409 121.8422,125.6411 121.8387,125.6394 120.0017,124.6419 119.9983,124.6400 118.2161,123.5478 118.2128,123.5457 116.4902,122.3618 116.4870,122.3595 114.8288,121.0870 114.8257,121.0845 113.2363,119.7270 113.2334,119.7244 111.7171,118.2856 111.7144,118.2829 110.2755,116.7666 110.2729,116.7637 108.9155,115.1743 108.9130,115.1712 107.6405,113.5129 107.6382,113.5098 106.4543,111.7872 106.4522,111.7839 105.3600,110.0016 105.3581,109.9983 104.3606,108.1613 104.3589,108.1578 103.4590,106.2713 103.4575,106.2677 102.6575,104.3365 102.6561,104.3328 101.9583,102.3625 101.9571,102.3588 101.3636,100.3547 101.3625,100.3509 100.8746,98.3183 100.8737,98.3145 100.4929,96.2593 100.4922,96.2554 100.2194,94.1831 100.2189,94.1792 100.0549,92.0954 100.0547,92.0915 100.0001,90.0019 100.0001,89.9980 100.0547,87.9085 100.0549,87.9046 100.2189,85.8208 100.2194,85.8169 100.4922,83.7445 100.4929,83.7407 100.8737,81.6855 100.8746,81.6816 101.3625,79.6491 101.3636,79.6453 101.9571,77.6412 101.9583,77.6375 102.6561,75.6671 102.6575,75.6635 103.4575,73.7323 103.4590,73.7287 104.3589,71.8422 104.3606,71.8387 105.3581,70.0017 105.3600,69.9983 106.4522,68.2161 106.4543,68.2128 107.6382,66.4902 107.6405,66.4871 108.9130,64.8287 108.9155,64.8257 110.2729,63.2363 110.2755,63.2334 111.7144,61.7171 111.7171,61.7144 113.2334,60.2755 113.2363,60.2729 114.8257,58.9155 114.8287,58.9130 116.4871,57.6405 116.4902,57.6382 118.2128,56.4543 118.2161,56.4522 119.9983,55.3600 120.0017,55.3581 121.8387,54.3606 121.8422,54.3589 123.7287,53.4590 123.7323,53.4575 125.6635,52.6575 125.6671,52.6561 127.6375,51.9583 127.6412,51.9571 129.6453,51.3636 129.6491,51.3625 131.6816,50.8746 131.6855,50.8737 133.7407,50.4929 133.7445,50.4922 135.8169,50.2194 135.8208,50.2189 137.9046,50.0549 137.9085,50.0547 139.9980,50.0001 140.0019,50.0001 Z"/> 
</g>
</g>
</g> 
</mask><mask id="hole-mask"><g><rect x="99.975001" y="49.975001" fill="white" width="80.049982" height="80.049982"/><polyline stroke-linecap="round" stroke="black" stroke-width="0.4" points="-0.0 0 0.0 0" transform="translate(106.190913 72.08187) rotate(-0.0)"/><polyline stroke-linecap="round" stroke="black" stroke-width="0.4" points="-0.0 0 0.0 0" transform="translate(178.238593 88.613013) rotate(-0.0)"/><polyline stroke-linecap="round" stroke="black" stroke-width="0.4" points="-0.0 0 0.0 0" transform="translate(176.406901 101.775027) rotate(-0.0)"/><polyline stroke-linecap="round" stroke="black" stroke-width="0.4" points="-0.0 0 0.0 0" transform="translate(107.577901 110.320463) rotate(-0.0)"/><polyline stroke-linecap="round" stroke="black" stroke-width="0.4" points="-0.0 0 0.0 0" transform="translate(102.101489 84.725854) rotate(-0.0)"/><polyline stroke-linecap="round" stroke="black" stroke-width="0.4" points="-0.0 0 0.0 0" transform="translate(103.593099 78.224973) rotate(-0.0)"/><polyline stroke-linecap="round" stroke="black" stroke-width="0.4" points="-0.0 0 0.0 0" transform="translate(111.599076 115.641788) rotate(-0.0)"/><polyline stroke-linecap="round" stroke="black" stroke-width="0.4" points="-0.0 0 0.0 0" transform="translate(177.898511 95.274146) rotate(-0.0)"/><polyline stroke-linecap="round" stroke="black" stroke-width="0.4" points="-0.0 0 0.0 0" transform="translate(168.400924 64.358212) rotate(-0.0)"/><polyline stroke-linecap="round" stroke="black" stroke-width="0.4" points="-0.0 0 0.0 0" transform="translate(177.416815 81.994022) rotate(-0.0)"/><polyline stroke-linecap="round" stroke="black" stroke-width="0.4" points="-0.0 0 0.0 0" transform="translate(104.541854 104.381711) rotate(-0.0)"/><polyline stroke-linecap="round" stroke="black" stroke-width="0.4" points="-0.0 0 0.0 0" transform="translate(175.458146 75.618289) rotate(-0.0)"/><polyline stroke-linecap="round" stroke="black" stroke-width="0.4" points="-0.0 0 0.0 0" transform="translate(116.4832 120.184) rotate(-0.0)"/><polyline stroke-linecap="round" stroke="black" stroke-width="0.4" points="-0.0 0 0.0 0" transform="translate(101.761407 91.386987) rotate(-0.0)"/><polyline stroke-linecap="round" stroke="black" stroke-width="0.4" points="-0.0 0 0.0 0" transform="translate(163.5168 59.816) rotate(-0.0)"/><polyline stroke-linecap="round" stroke="black" stroke-width="0.4" points="-0.0 0 0.0 0" transform="translate(173.809087 107.91813) rotate(-0.0)"/><polyline stroke-linecap="round" stroke="black" stroke-width="0.4" points="-0.0 0 0.0 0" transform="translate(172.422099 69.679537) rotate(-0.0)"/><polyline stroke-linecap="round" stroke="black" stroke-width="0.4" points="-0.0 0 0.0 0" transform="translate(102.583185 98.005978) rotate(-0.0)"/></g></mask></defs><g transform="" id="boardContainer"><g id="substrate" clip-path="url(#cut-off)" mask="url(#hole-mask)"><g id="substrate-board" style="fill:#f1f4f3; stroke:#f1f4f3;"><path d="M140.0000 50.0000 L142.0934 50.0548 M 144.1811 50.2191 L 146.2574 50.4925 L 148.3165 50.8741 L 150.3528 51.363 L 152.3607 51.9577 L 154.3347 52.6568 L 156.2695 53.4582 L 158.1596 54.3597 L 160.0 55.359 L 161.7856 56.4532 L 163.5114 57.6393 L 165.1728 58.9142 L 166.7652 60.2742 L 168.2843 61.7157 L 169.7258 63.2348 L 171.0858 64.8272 L 172.3607 66.4886 L 173.5468 68.2144 L 174.641 70.0 L 175.6403 71.8404 L 176.5418 73.7305 L 177.3432 75.6653 L 178.0423 77.6393 L 178.637 79.6472 L 179.1259 81.6835 L 179.5075 83.7426 L 179.7809 85.8189 L 179.9452 87.9066 L 180.0 90.0 L 179.9452 92.0934 L 179.7809 94.1811 L 179.5075 96.2574 L 179.1259 98.3165 L 178.637 100.3528 L 178.0423 102.3607 L 177.3432 104.3347 L 176.5418 106.2695 L 175.6403 108.1596 L 174.641 110.0 L 173.5468 111.7856 L 172.3607 113.5114 L 171.0858 115.1728 L 169.7258 116.7652 L 168.2843 118.2843 L 166.7652 119.7258 L 165.1728 121.0858 L 163.5114 122.3607 L 161.7856 123.5468 L 160.0 124.641 L 158.1596 125.6403 L 156.2695 126.5418 L 154.3347 127.3432 L 152.3607 128.0423 L 150.3528 128.637 L 148.3165 129.1259 L 146.2574 129.5075 L 144.1811 129.7809 L 142.0934 129.9452 L 140.0 130.0 L 137.9066 129.9452 L 135.8189 129.7809 L 133.7426 129.5075 L 131.6835 129.1259 L 129.6472 128.637 L 127.6393 128.0423 L 125.6653 127.3432 L 123.7305 126.5418 L 121.8404 125.6403 L 120.0 124.641 L 118.2144 123.5468 L 116.4886 122.3607 L 114.8272 121.0858 L 113.2348 119.7258 L 111.7157 118.2843 L 110.2742 116.7652 L 108.9142 115.1728 L 107.6393 113.5114 L 106.4532 111.7856 L 105.359 110.0 L 104.3597 108.1596 L 103.4582 106.2695 L 102.6568 104.3347 L 101.9577 102.3607 L 101.363 100.3528 L 100.8741 98.3165 L 100.4925 96.2574 L 100.2191 94.1811 L 100.0548 92.0934 L 100.0 90.0 L 100.0548 87.9066 L 100.2191 85.8189 L 100.4925 83.7426 L 100.8741 81.6835 L 101.363 79.6472 L 101.9577 77.6393 L 102.6568 75.6653 L 103.4582 73.7305 L 104.3597 71.8404 L 105.359 70.0 L 106.4532 68.2144 L 107.6393 66.4886 L 108.9142 64.8272 L 110.2742 63.2348 L 111.7157 61.7157 L 113.2348 60.2742 L 114.8272 58.9142 L 116.4886 57.6393 L 118.2144 56.4532 L 120.0 55.359 L 121.8404 54.3597 L 123.7305 53.4582 L 125.6653 52.6568 L 127.6393 51.9577 L 129.6472 51.363 L 131.6835 50.8741 L 133.7426 50.4925 L 135.8189 50.2191 L 137.9066 50.0548 L 140.0 50.0 L 142.0934 50.0548 L 144.1811 50.2191 " style="fill-rule: evenodd;"/><g style="fill-opacity: 0.0;stroke-width: 0.0500;stroke-opacity: 1;stroke-linecap: round;stroke-linejoin: round">
<path style="fill-opacity: 0.0;stroke-width: 0.0500;stroke-opacity: 1;stroke-linecap: round;stroke-linejoin: round" d="M 142.0934,50.0548 144.1811,50.2191 146.2574,50.4925 148.3165,50.8741 150.3528,51.3630 152.3607,51.9577 154.3347,52.6568 156.2695,53.4582 158.1596,54.3597 160.0000,55.3590 161.7856,56.4532 163.5114,57.6393 165.1728,58.9142 166.7652,60.2742 168.2843,61.7157 169.7258,63.2348 171.0858,64.8272 172.3607,66.4886 173.5468,68.2144 174.6410,70.0000 175.6403,71.8404 176.5418,73.7305 177.3432,75.6653 178.0423,77.6393 178.6370,79.6472 179.1259,81.6835 179.5075,83.7426 179.7809,85.8189 179.9452,87.9066 180.0000,90.0000 179.9452,92.0934 179.7809,94.1811 179.5075,96.2574 179.1259,98.3165 178.6370,100.3528 178.0423,102.3607 177.3432,104.3347 176.5418,106.2695 175.6403,108.1596 174.6410,110.0000 173.5468,111.7856 172.3607,113.5114 171.0858,115.1728 169.7258,116.7652 168.2843,118.2843 166.7652,119.7258 165.1728,121.0858 163.5114,122.3607 161.7856,123.5468 160.0000,124.6410 158.1596,125.6403 156.2695,126.5418 154.3347,127.3432 152.3607,128.0423 150.3528,128.6370 148.3165,129.1259 146.2574,129.5075 144.1811,129.7809 142.0934,129.9452 140.0000,130.0000 137.9066,129.9452 135.8189,129.7809 133.7426,129.5075 131.6835,129.1259 129.6472,128.6370 127.6393,128.0423 125.6653,127.3432 123.7305,126.5418 121.8404,125.6403 120.0000,124.6410 118.2144,123.5468 116.4886,122.3607 114.8272,121.0858 113.2348,119.7258 111.7157,118.2843 110.2742,116.7652 108.9142,115.1728 107.6393,113.5114 106.4532,111.7856 105.3590,110.0000 104.3597,108.1596 103.4582,106.2695 102.6568,104.3347 101.9577,102.3607 101.3630,100.3528 100.8741,98.3165 100.4925,96.2574 100.2191,94.1811 100.0548,92.0934 100.0000,90.0000 100.0548,87.9066 100.2191,85.8189 100.4925,83.7426 100.8741,81.6835 101.3630,79.6472 101.9577,77.6393 102.6568,75.6653 103.4582,73.7305 104.3597,71.8404 105.3590,70.0000 106.4532,68.2144 107.6393,66.4886 108.9142,64.8272 110.2742,63.2348 111.7157,61.7157 113.2348,60.2742 114.8272,58.9142 116.4886,57.6393 118.2144,56.4532 120.0000,55.3590 121.8404,54.3597 123.7305,53.4582 125.6653,52.6568 127.6393,51.9577 129.6472,51.3630 131.6835,50.8741 133.7426,50.4925 135.8189,50.2191 137.9066,50.0548 140.0000,50.0000 Z"/> 
</g> 
</g><g id="substrate-clad" style="fill:#72786c; stroke:#72786c;"><g style="fill-opacity: 0.0;stroke-width: 0.0000;stroke-opacity: 1;stroke-linecap: round;stroke-linejoin: round">
<g style="fill-opacity: 1.0000;stroke-width: 0.0000;stroke-opacity: 1;stroke-linecap: round;stroke-linejoin: round">
<path style="fill-opacity: 1.0000;stroke-width: 0.0000;stroke-opacity: 1;stroke-linecap: round;stroke-linejoin: round;fill-rule: evenodd" d="M 124.2843,83.2103 124.9726,82.2274 128.2492,84.5217 127.5610,85.5046 Z"/> 
</g>
<g style="fill-opacity: 1.0000;stroke-width: 0.0000;stroke-opacity: 1;stroke-linecap: round;stroke-linejoin: round">
<g>
<path style="fill-opacity: 1.0000;stroke-width: 0.0000;stroke-opacity: 1;stroke-linecap: round;stroke-linejoin: round;fill-rule: evenodd" d="M 142.0915,50.0547 142.0954,50.0549 144.1792,50.2189 144.1831,50.2194 146.2554,50.4922 146.2593,50.4929 148.3145,50.8737 148.3183,50.8746 150.3509,51.3625 150.3547,51.3636 152.3588,51.9571 152.3625,51.9583 154.3328,52.6561 154.3365,52.6575 156.2677,53.4575 156.2713,53.4590 158.1578,54.3589 158.1613,54.3606 159.9983,55.3581 160.0016,55.3600 161.7839,56.4522 161.7872,56.4543 163.5098,57.6382 163.5129,57.6405 165.1712,58.9130 165.1743,58.9155 166.7637,60.2729 166.7666,60.2755 168.2829,61.7144 168.2856,61.7171 169.7244,63.2334 169.7270,63.2363 171.0845,64.8257 171.0870,64.8288 172.3595,66.4870 172.3618,66.4902 173.5457,68.2128 173.5478,68.2161 174.6400,69.9983 174.6419,70.0017 175.6394,71.8387 175.6411,71.8422 176.5409,73.7287 176.5425,73.7323 177.3424,75.6635 177.3438,75.6671 178.0416,77.6375 178.0428,77.6412 178.6364,79.6453 178.6374,79.6491 179.1254,81.6816 179.1262,81.6855 179.5071,83.7407 179.5077,83.7445 179.7806,85.8169 179.7810,85.8208 179.9450,87.9046 179.9452,87.9085 179.9999,89.9980 179.9999,90.0019 179.9452,92.0915 179.9450,92.0954 179.7810,94.1792 179.7806,94.1831 179.5077,96.2554 179.5071,96.2593 179.1262,98.3145 179.1254,98.3183 178.6374,100.3509 178.6364,100.3547 178.0428,102.3588 178.0416,102.3625 177.3438,104.3328 177.3424,104.3365 176.5425,106.2677 176.5409,106.2713 175.6411,108.1578 175.6394,108.1613 174.6419,109.9983 174.6400,110.0016 173.5478,111.7839 173.5457,111.7872 172.3618,113.5098 172.3595,113.5129 171.0870,115.1712 171.0845,115.1743 169.7271,116.7637 169.7244,116.7666 168.2856,118.2829 168.2829,118.2856 166.7666,119.7244 166.7637,119.7271 165.1743,121.0845 165.1712,121.0870 163.5129,122.3595 163.5098,122.3618 161.7872,123.5457 161.7839,123.5478 160.0016,124.6400 159.9983,124.6419 158.1613,125.6394 158.1578,125.6411 156.2713,126.5409 156.2677,126.5425 154.3365,127.3424 154.3328,127.3438 152.3625,128.0416 152.3588,128.0428 150.3547,128.6364 150.3509,128.6374 148.3183,129.1254 148.3145,129.1262 146.2593,129.5071 146.2554,129.5077 144.1831,129.7806 144.1792,129.7810 142.0954,129.9450 142.0915,129.9452 140.0019,129.9999 139.9980,129.9999 137.9085,129.9452 137.9046,129.9450 135.8208,129.7810 135.8169,129.7806 133.7445,129.5077 133.7407,129.5071 131.6855,129.1262 131.6816,129.1254 129.6491,128.6374 129.6453,128.6364 127.6412,128.0428 127.6375,128.0416 125.6671,127.3438 125.6635,127.3424 123.7323,126.5425 123.7287,126.5409 121.8422,125.6411 121.8387,125.6394 120.0017,124.6419 119.9983,124.6400 118.2161,123.5478 118.2128,123.5457 116.4902,122.3618 116.4870,122.3595 114.8288,121.0870 114.8257,121.0845 113.2363,119.7270 113.2334,119.7244 111.7171,118.2856 111.7144,118.2829 110.2755,116.7666 110.2729,116.7637 108.9155,115.1743 108.9130,115.1712 107.6405,113.5129 107.6382,113.5098 106.4543,111.7872 106.4522,111.7839 105.3600,110.0016 105.3581,109.9983 104.3606,108.1613 104.3589,108.1578 103.4590,106.2713 103.4575,106.2677 102.6575,104.3365 102.6561,104.3328 101.9583,102.3625 101.9571,102.3588 101.3636,100.3547 101.3625,100.3509 100.8746,98.3183 100.8737,98.3145 100.4929,96.2593 100.4922,96.2554 100.2194,94.1831 100.2189,94.1792 100.0549,92.0954 100.0547,92.0915 100.0001,90.0019 100.0001,89.9980 100.0547,87.9085 100.0549,87.9046 100.2189,85.8208 100.2194,85.8169 100.4922,83.7445 100.4929,83.7407 100.8737,81.6855 100.8746,81.6816 101.3625,79.6491 101.3636,79.6453 101.9571,77.6412 101.9583,77.6375 102.6561,75.6671 102.6575,75.6635 103.4575,73.7323 103.4590,73.7287 104.3589,71.8422 104.3606,71.8387 105.3581,70.0017 105.3600,69.9983 106.4522,68.2161 106.4543,68.2128 107.6382,66.4902 107.6405,66.4871 108.9130,64.8287 108.9155,64.8257 110.2729,63.2363 110.2755,63.2334 111.7144,61.7171 111.7171,61.7144 113.2334,60.2755 113.2363,60.2729 114.8257,58.9155 114.8287,58.9130 116.4871,57.6405 116.4902,57.6382 118.2128,56.4543 118.2161,56.4522 119.9983,55.3600 120.0017,55.3581 121.8387,54.3606 121.8422,54.3589 123.7287,53.4590 123.7323,53.4575 125.6635,52.6575 125.6671,52.6561 127.6375,51.9583 127.6412,51.9571 129.6453,51.3636 129.6491,51.3625 131.6816,50.8746 131.6855,50.8737 133.7407,50.4929 133.7445,50.4922 135.8169,50.2194 135.8208,50.2189 137.9046,50.0549 137.9085,50.0547 139.9980,50.0001 140.0019,50.0001 Z"/> 
</g>
</g>
</g> 
</g><g id="substrate-copper" style="fill:#f8f8f7; stroke:#f8f8f7;"><g style="fill-opacity: 0.0;stroke-width: 0.0000;stroke-opacity: 1;stroke-linecap: round;stroke-linejoin: round">
<g style="fill-opacity: 1.0000;stroke-width: 0.0000;stroke-opacity: 1;stroke-linecap: round;stroke-linejoin: round">
<path style="fill-opacity: 1.0000;stroke-width: 0.0000;stroke-opacity: 1;stroke-linecap: round;stroke-linejoin: round;fill-rule: evenodd" d="M 124.2843,83.2103 124.9726,82.2274 128.2492,84.5217 127.5610,85.5046 Z"/> 
</g>
<g style="fill-opacity: 1.0000;stroke-width: 0.0000;stroke-opacity: 1;stroke-linecap: round;stroke-linejoin: round">
<circle cx="106.1909" cy="72.0819" r="0.4000"/> 
</g>
<g style="fill-opacity: 1.0000;stroke-width: 0.0000;stroke-opacity: 1;stroke-linecap: round;stroke-linejoin: round">
<circle cx="178.2386" cy="88.6130" r="0.4000"/> 
</g>
<g style="fill-opacity: 1.0000;stroke-width: 0.0000;stroke-opacity: 1;stroke-linecap: round;stroke-linejoin: round">
<circle cx="176.4069" cy="101.7750" r="0.4000"/> 
</g>
<g style="fill-opacity: 1.0000;stroke-width: 0.0000;stroke-opacity: 1;stroke-linecap: round;stroke-linejoin: round">
<circle cx="107.5779" cy="110.3205" r="0.4000"/> 
</g>
<g style="fill-opacity: 1.0000;stroke-width: 0.0000;stroke-opacity: 1;stroke-linecap: round;stroke-linejoin: round">
<circle cx="102.1015" cy="84.7259" r="0.4000"/> 
</g>
<g style="fill-opacity: 1.0000;stroke-width: 0.0000;stroke-opacity: 1;stroke-linecap: round;stroke-linejoin: round">
<circle cx="103.5931" cy="78.2250" r="0.4000"/> 
</g>
<g style="fill-opacity: 1.0000;stroke-width: 0.0000;stroke-opacity: 1;stroke-linecap: round;stroke-linejoin: round">
<circle cx="111.5991" cy="115.6418" r="0.4000"/> 
</g>
<g style="fill-opacity: 1.0000;stroke-width: 0.0000;stroke-opacity: 1;stroke-linecap: round;stroke-linejoin: round">
<circle cx="177.8985" cy="95.2741" r="0.4000"/> 
</g>
<g style="fill-opacity: 1.0000;stroke-width: 0.0000;stroke-opacity: 1;stroke-linecap: round;stroke-linejoin: round">
<circle cx="168.4009" cy="64.3582" r="0.4000"/> 
</g>
<g style="fill-opacity: 1.0000;stroke-width: 0.0000;stroke-opacity: 1;stroke-linecap: round;stroke-linejoin: round">
<circle cx="177.4168" cy="81.9940" r="0.4000"/> 
</g>
<g style="fill-opacity: 1.0000;stroke-width: 0.0000;stroke-opacity: 1;stroke-linecap: round;stroke-linejoin: round">
<circle cx="104.5419" cy="104.3817" r="0.4000"/> 
</g>
<g style="fill-opacity: 1.0000;stroke-width: 0.0000;stroke-opacity: 1;stroke-linecap: round;stroke-linejoin: round">
<circle cx="175.4581" cy="75.6183" r="0.4000"/> 
</g>
<g style="fill-opacity: 1.0000;stroke-width: 0.0000;stroke-opacity: 1;stroke-linecap: round;stroke-linejoin: round">
<circle cx="116.4832" cy="120.1840" r="0.4000"/> 
</g>
<g style="fill-opacity: 1.0000;stroke-width: 0.0000;stroke-opacity: 1;stroke-linecap: round;stroke-linejoin: round">
<circle cx="101.7614" cy="91.3870" r="0.4000"/> 
</g>
<g style="fill-opacity: 1.0000;stroke-width: 0.0000;stroke-opacity: 1;stroke-linecap: round;stroke-linejoin: round">
<circle cx="163.5168" cy="59.8160" r="0.4000"/> 
</g>
<g style="fill-opacity: 1.0000;stroke-width: 0.0000;stroke-opacity: 1;stroke-linecap: round;stroke-linejoin: round">
<circle cx="173.8091" cy="107.9181" r="0.4000"/> 
</g>
<g style="fill-opacity: 1.0000;stroke-width: 0.0000;stroke-opacity: 1;stroke-linecap: round;stroke-linejoin: round">
<circle cx="172.4221" cy="69.6795" r="0.4000"/> 
</g>
<g style="fill-opacity: 1.0000;stroke-width: 0.0000;stroke-opacity: 1;stroke-linecap: round;stroke-linejoin: round">
<circle cx="102.5832" cy="98.0060" r="0.4000"/> 
</g>
<g style="fill-opacity: 1.0000;stroke-width: 0.0212;stroke-opacity: 1;stroke-linecap: round;stroke-linejoin: round">
<g style="fill-opacity: 1.0000;stroke-width: 0.0000;stroke-opacity: 1;stroke-linecap: round;stroke-linejoin: round">
<path style="fill-opacity: 1.0000;stroke-width: 0.0000;stroke-opacity: 1;stroke-linecap: round;stroke-linejoin: round;fill-rule: evenodd" d="M 142.0915,50.0552 142.0953,50.0554 144.1792,50.2194 144.1830,50.2198 145.8982,50.4457 146.2554,50.4927 146.2592,50.4933 148.3145,50.8742 148.3183,50.8750 148.7713,50.9838 150.3508,51.3630 150.3545,51.3640 152.3587,51.9576 152.3624,51.9588 153.2499,52.2731 154.3327,52.6566 154.3363,52.6580 156.2675,53.4579 156.2710,53.4595 158.1576,54.3593 158.1610,54.3611 159.9980,55.3585 160.0014,55.3604 161.7837,56.4526 161.7869,56.4547 163.5095,57.6386 163.5095,57.6386 163.5126,57.6409 165.1710,58.9134 165.1739,58.9158 166.5306,60.0745 166.7634,60.2733 166.7662,60.2759 168.2825,61.7147 168.2853,61.7175 169.7241,63.2337 169.7267,63.2366 171.0841,64.8261 171.0866,64.8290 172.3591,66.4874 172.3614,66.4905 173.5453,68.2131 173.5474,68.2163 174.6395,69.9986 174.6415,70.0019 175.6389,71.8389 175.6407,71.8424 176.5405,73.7289 176.5421,73.7325 177.3420,75.6637 177.3434,75.6673 178.0411,77.6376 178.0423,77.6413 178.6359,79.6454 178.6370,79.6492 179.1249,81.6817 179.1258,81.6855 179.5066,83.7408 179.5072,83.7446 179.7801,85.8170 179.7805,85.8209 179.9445,87.9046 179.9447,87.9085 179.9994,89.9980 179.9994,90.0019 179.9447,92.0914 179.9445,92.0953 179.7805,94.1791 179.7801,94.1830 179.5072,96.2554 179.5066,96.2592 179.1258,98.3144 179.1249,98.3183 178.6370,100.3508 178.6359,100.3545 178.0424,102.3587 178.0411,102.3624 177.3434,104.3327 177.3420,104.3363 176.5421,106.2675 176.5405,106.2711 175.6407,108.1576 175.6389,108.1611 174.6415,109.9980 174.6395,110.0014 173.5474,111.7836 173.5453,111.7869 172.3614,113.5095 172.3591,113.5126 171.0866,115.1709 171.0841,115.1740 169.7267,116.7634 169.7241,116.7663 168.2853,118.2825 168.2825,118.2853 166.7663,119.7241 166.7634,119.7267 165.1740,121.0841 165.1709,121.0866 163.5126,122.3591 163.5095,122.3614 161.7869,123.5453 161.7836,123.5474 160.0014,124.6395 159.9980,124.6415 158.1611,125.6389 158.1576,125.6407 158.1576,125.6407 156.2711,126.5405 156.2675,126.5421 154.3363,127.3420 154.3326,127.3434 152.3624,128.0411 152.3587,128.0424 152.3572,128.0428 150.3545,128.6359 150.3508,128.6370 148.3183,129.1249 148.3144,129.1257 146.2592,129.5066 146.2554,129.5072 144.1830,129.7801 144.1791,129.7805 142.0953,129.9445 142.0914,129.9447 140.0019,129.9994 139.9980,129.9994 137.9085,129.9447 137.9047,129.9445 135.8209,129.7805 135.8170,129.7801 135.5009,129.7385 133.7446,129.5072 133.7408,129.5066 131.6855,129.1257 131.6817,129.1249 129.6492,128.6370 129.6455,128.6359 127.6413,128.0423 127.6376,128.0412 126.9512,127.7981 125.6673,127.3434 125.6637,127.3420 123.7325,126.5421 123.7289,126.5405 121.8424,125.6407 121.8389,125.6389 120.0019,124.6415 119.9986,124.6395 118.2163,123.5474 118.2131,123.5453 116.4905,122.3614 116.4874,122.3591 114.8290,121.0866 114.8261,121.0841 113.6941,120.1174 113.2366,119.7267 113.2337,119.7241 111.7175,118.2853 111.7147,118.2826 110.2759,116.7662 110.2733,116.7634 110.0746,116.5306 108.9158,115.1739 108.9134,115.1710 107.6409,113.5126 107.6386,113.5095 107.6386,113.5095 106.4547,111.7869 106.4526,111.7837 105.3604,110.0014 105.3585,109.9980 104.3611,108.1610 104.3593,108.1576 103.4595,106.2710 103.4579,106.2675 102.6580,104.3363 102.6566,104.3327 101.9588,102.3624 101.9576,102.3587 101.3640,100.3545 101.3630,100.3508 100.8750,98.3183 100.8742,98.3145 100.4933,96.2592 100.4927,96.2554 100.4457,95.8982 100.2198,94.1830 100.2194,94.1792 100.0554,92.0953 100.0552,92.0915 100.0005,90.0019 100.0005,89.9980 100.0552,87.9085 100.0554,87.9047 100.2194,85.8208 100.2198,85.8170 100.4927,83.7446 100.4933,83.7408 100.8742,81.6855 100.8750,81.6817 101.3630,79.6492 101.3640,79.6455 101.9576,77.6413 101.9588,77.6376 101.9588,77.6376 102.6566,75.6673 102.6580,75.6637 103.4579,73.7325 103.4595,73.7290 104.3593,71.8423 104.3610,71.8390 105.3585,70.0019 105.3604,69.9986 106.4526,68.2163 106.4547,68.2131 107.6386,66.4905 107.6409,66.4874 108.9134,64.8290 108.9158,64.8261 110.2733,63.2366 110.2759,63.2338 111.7147,61.7174 111.7175,61.7147 113.2338,60.2759 113.2366,60.2733 114.8261,58.9158 114.8290,58.9134 116.4874,57.6409 116.4905,57.6386 118.2131,56.4547 118.2163,56.4526 119.9986,55.3604 120.0019,55.3585 121.8390,54.3610 121.8423,54.3593 123.7290,53.4595 123.7325,53.4579 125.6637,52.6580 125.6673,52.6566 127.6376,51.9588 127.6413,51.9576 129.6455,51.3640 129.6492,51.3630 131.6817,50.8750 131.6855,50.8742 133.7408,50.4933 133.7446,50.4927 133.8897,50.4736 135.8170,50.2198 135.8208,50.2194 137.9047,50.0554 137.9085,50.0552 139.9980,50.0005 140.0019,50.0005 Z"/> 
</g>
</g>
</g> 
</g><g id="substrate-pads" style="fill:#c4c1ba; stroke:#c4c1ba;" mask="url(#pads-mask)"><g style="fill-opacity: 0.0;stroke-width: 0.0000;stroke-opacity: 1;stroke-linecap: round;stroke-linejoin: round">
<g style="fill-opacity: 1.0000;stroke-width: 0.0000;stroke-opacity: 1;stroke-linecap: round;stroke-linejoin: round">
<path style="fill-opacity: 1.0000;stroke-width: 0.0000;stroke-opacity: 1;stroke-linecap: round;stroke-linejoin: round;fill-rule: evenodd" d="M 124.2843,83.2103 124.9726,82.2274 128.2492,84.5217 127.5610,85.5046 Z"/> 
</g>
<g style="fill-opacity: 1.0000;stroke-width: 0.0000;stroke-opacity: 1;stroke-linecap: round;stroke-linejoin: round">
<circle cx="106.1909" cy="72.0819" r="0.4000"/> 
</g>
<g style="fill-opacity: 1.0000;stroke-width: 0.0000;stroke-opacity: 1;stroke-linecap: round;stroke-linejoin: round">
<circle cx="178.2386" cy="88.6130" r="0.4000"/> 
</g>
<g style="fill-opacity: 1.0000;stroke-width: 0.0000;stroke-opacity: 1;stroke-linecap: round;stroke-linejoin: round">
<circle cx="176.4069" cy="101.7750" r="0.4000"/> 
</g>
<g style="fill-opacity: 1.0000;stroke-width: 0.0000;stroke-opacity: 1;stroke-linecap: round;stroke-linejoin: round">
<circle cx="107.5779" cy="110.3205" r="0.4000"/> 
</g>
<g style="fill-opacity: 1.0000;stroke-width: 0.0000;stroke-opacity: 1;stroke-linecap: round;stroke-linejoin: round">
<circle cx="102.1015" cy="84.7259" r="0.4000"/> 
</g>
<g style="fill-opacity: 1.0000;stroke-width: 0.0000;stroke-opacity: 1;stroke-linecap: round;stroke-linejoin: round">
<circle cx="103.5931" cy="78.2250" r="0.4000"/> 
</g>
<g style="fill-opacity: 1.0000;stroke-width: 0.0000;stroke-opacity: 1;stroke-linecap: round;stroke-linejoin: round">
<circle cx="111.5991" cy="115.6418" r="0.4000"/> 
</g>
<g style="fill-opacity: 1.0000;stroke-width: 0.0000;stroke-opacity: 1;stroke-linecap: round;stroke-linejoin: round">
<circle cx="177.8985" cy="95.2741" r="0.4000"/> 
</g>
<g style="fill-opacity: 1.0000;stroke-width: 0.0000;stroke-opacity: 1;stroke-linecap: round;stroke-linejoin: round">
<circle cx="168.4009" cy="64.3582" r="0.4000"/> 
</g>
<g style="fill-opacity: 1.0000;stroke-width: 0.0000;stroke-opacity: 1;stroke-linecap: round;stroke-linejoin: round">
<circle cx="177.4168" cy="81.9940" r="0.4000"/> 
</g>
<g style="fill-opacity: 1.0000;stroke-width: 0.0000;stroke-opacity: 1;stroke-linecap: round;stroke-linejoin: round">
<circle cx="104.5419" cy="104.3817" r="0.4000"/> 
</g>
<g style="fill-opacity: 1.0000;stroke-width: 0.0000;stroke-opacity: 1;stroke-linecap: round;stroke-linejoin: round">
<circle cx="175.4581" cy="75.6183" r="0.4000"/> 
</g>
<g style="fill-opacity: 1.0000;stroke-width: 0.0000;stroke-opacity: 1;stroke-linecap: round;stroke-linejoin: round">
<circle cx="116.4832" cy="120.1840" r="0.4000"/> 
</g>
<g style="fill-opacity: 1.0000;stroke-width: 0.0000;stroke-opacity: 1;stroke-linecap: round;stroke-linejoin: round">
<circle cx="101.7614" cy="91.3870" r="0.4000"/> 
</g>
<g style="fill-opacity: 1.0000;stroke-width: 0.0000;stroke-opacity: 1;stroke-linecap: round;stroke-linejoin: round">
<circle cx="163.5168" cy="59.8160" r="0.4000"/> 
</g>
<g style="fill-opacity: 1.0000;stroke-width: 0.0000;stroke-opacity: 1;stroke-linecap: round;stroke-linejoin: round">
<circle cx="173.8091" cy="107.9181" r="0.4000"/> 
</g>
<g style="fill-opacity: 1.0000;stroke-width: 0.0000;stroke-opacity: 1;stroke-linecap: round;stroke-linejoin: round">
<circle cx="172.4221" cy="69.6795" r="0.4000"/> 
</g>
<g style="fill-opacity: 1.0000;stroke-width: 0.0000;stroke-opacity: 1;stroke-linecap: round;stroke-linejoin: round">
<circle cx="102.5832" cy="98.0060" r="0.4000"/> 
</g>
<g style="fill-opacity: 1.0000;stroke-width: 0.0212;stroke-opacity: 1;stroke-linecap: round;stroke-linejoin: round">
<g style="fill-opacity: 1.0000;stroke-width: 0.0000;stroke-opacity: 1;stroke-linecap: round;stroke-linejoin: round">
<path style="fill-opacity: 1.0000;stroke-width: 0.0000;stroke-opacity: 1;stroke-linecap: round;stroke-linejoin: round;fill-rule: evenodd" d="M 142.0915,50.0552 142.0953,50.0554 144.1792,50.2194 144.1830,50.2198 145.8982,50.4457 146.2554,50.4927 146.2592,50.4933 148.3145,50.8742 148.3183,50.8750 148.7713,50.9838 150.3508,51.3630 150.3545,51.3640 152.3587,51.9576 152.3624,51.9588 153.2499,52.2731 154.3327,52.6566 154.3363,52.6580 156.2675,53.4579 156.2710,53.4595 158.1576,54.3593 158.1610,54.3611 159.9980,55.3585 160.0014,55.3604 161.7837,56.4526 161.7869,56.4547 163.5095,57.6386 163.5095,57.6386 163.5126,57.6409 165.1710,58.9134 165.1739,58.9158 166.5306,60.0745 166.7634,60.2733 166.7662,60.2759 168.2825,61.7147 168.2853,61.7175 169.7241,63.2337 169.7267,63.2366 171.0841,64.8261 171.0866,64.8290 172.3591,66.4874 172.3614,66.4905 173.5453,68.2131 173.5474,68.2163 174.6395,69.9986 174.6415,70.0019 175.6389,71.8389 175.6407,71.8424 176.5405,73.7289 176.5421,73.7325 177.3420,75.6637 177.3434,75.6673 178.0411,77.6376 178.0423,77.6413 178.6359,79.6454 178.6370,79.6492 179.1249,81.6817 179.1258,81.6855 179.5066,83.7408 179.5072,83.7446 179.7801,85.8170 179.7805,85.8209 179.9445,87.9046 179.9447,87.9085 179.9994,89.9980 179.9994,90.0019 179.9447,92.0914 179.9445,92.0953 179.7805,94.1791 179.7801,94.1830 179.5072,96.2554 179.5066,96.2592 179.1258,98.3144 179.1249,98.3183 178.6370,100.3508 178.6359,100.3545 178.0424,102.3587 178.0411,102.3624 177.3434,104.3327 177.3420,104.3363 176.5421,106.2675 176.5405,106.2711 175.6407,108.1576 175.6389,108.1611 174.6415,109.9980 174.6395,110.0014 173.5474,111.7836 173.5453,111.7869 172.3614,113.5095 172.3591,113.5126 171.0866,115.1709 171.0841,115.1740 169.7267,116.7634 169.7241,116.7663 168.2853,118.2825 168.2825,118.2853 166.7663,119.7241 166.7634,119.7267 165.1740,121.0841 165.1709,121.0866 163.5126,122.3591 163.5095,122.3614 161.7869,123.5453 161.7836,123.5474 160.0014,124.6395 159.9980,124.6415 158.1611,125.6389 158.1576,125.6407 158.1576,125.6407 156.2711,126.5405 156.2675,126.5421 154.3363,127.3420 154.3326,127.3434 152.3624,128.0411 152.3587,128.0424 152.3572,128.0428 150.3545,128.6359 150.3508,128.6370 148.3183,129.1249 148.3144,129.1257 146.2592,129.5066 146.2554,129.5072 144.1830,129.7801 144.1791,129.7805 142.0953,129.9445 142.0914,129.9447 140.0019,129.9994 139.9980,129.9994 137.9085,129.9447 137.9047,129.9445 135.8209,129.7805 135.8170,129.7801 135.5009,129.7385 133.7446,129.5072 133.7408,129.5066 131.6855,129.1257 131.6817,129.1249 129.6492,128.6370 129.6455,128.6359 127.6413,128.0423 127.6376,128.0412 126.9512,127.7981 125.6673,127.3434 125.6637,127.3420 123.7325,126.5421 123.7289,126.5405 121.8424,125.6407 121.8389,125.6389 120.0019,124.6415 119.9986,124.6395 118.2163,123.5474 118.2131,123.5453 116.4905,122.3614 116.4874,122.3591 114.8290,121.0866 114.8261,121.0841 113.6941,120.1174 113.2366,119.7267 113.2337,119.7241 111.7175,118.2853 111.7147,118.2826 110.2759,116.7662 110.2733,116.7634 110.0746,116.5306 108.9158,115.1739 108.9134,115.1710 107.6409,113.5126 107.6386,113.5095 107.6386,113.5095 106.4547,111.7869 106.4526,111.7837 105.3604,110.0014 105.3585,109.9980 104.3611,108.1610 104.3593,108.1576 103.4595,106.2710 103.4579,106.2675 102.6580,104.3363 102.6566,104.3327 101.9588,102.3624 101.9576,102.3587 101.3640,100.3545 101.3630,100.3508 100.8750,98.3183 100.8742,98.3145 100.4933,96.2592 100.4927,96.2554 100.4457,95.8982 100.2198,94.1830 100.2194,94.1792 100.0554,92.0953 100.0552,92.0915 100.0005,90.0019 100.0005,89.9980 100.0552,87.9085 100.0554,87.9047 100.2194,85.8208 100.2198,85.8170 100.4927,83.7446 100.4933,83.7408 100.8742,81.6855 100.8750,81.6817 101.3630,79.6492 101.3640,79.6455 101.9576,77.6413 101.9588,77.6376 101.9588,77.6376 102.6566,75.6673 102.6580,75.6637 103.4579,73.7325 103.4595,73.7290 104.3593,71.8423 104.3610,71.8390 105.3585,70.0019 105.3604,69.9986 106.4526,68.2163 106.4547,68.2131 107.6386,66.4905 107.6409,66.4874 108.9134,64.8290 108.9158,64.8261 110.2733,63.2366 110.2759,63.2338 111.7147,61.7174 111.7175,61.7147 113.2338,60.2759 113.2366,60.2733 114.8261,58.9158 114.8290,58.9134 116.4874,57.6409 116.4905,57.6386 118.2131,56.4547 118.2163,56.4526 119.9986,55.3604 120.0019,55.3585 121.8390,54.3610 121.8423,54.3593 123.7290,53.4595 123.7325,53.4579 125.6637,52.6580 125.6673,52.6566 127.6376,51.9588 127.6413,51.9576 129.6455,51.3640 129.6492,51.3630 131.6817,50.8750 131.6855,50.8742 133.7408,50.4933 133.7446,50.4927 133.8897,50.4736 135.8170,50.2198 135.8208,50.2194 137.9047,50.0554 137.9085,50.0552 139.9980,50.0005 140.0019,50.0005 Z"/> 
</g>
</g>
</g> 
</g><g id="substrate-outline" style="fill:#000000; stroke:#000000; stroke-width: 0.15"><g style="fill-opacity: 0.0;stroke-opacity: 1;stroke-linecap: round;stroke-linejoin: round">
<path style="fill-opacity: 0.0;stroke-opacity: 1;stroke-linecap: round;stroke-linejoin: round" d="M 142.0934,50.0548 144.1811,50.2191 146.2574,50.4925 148.3165,50.8741 150.3528,51.3630 152.3607,51.9577 154.3347,52.6568 156.2695,53.4582 158.1596,54.3597 160.0000,55.3590 161.7856,56.4532 163.5114,57.6393 165.1728,58.9142 166.7652,60.2742 168.2843,61.7157 169.7258,63.2348 171.0858,64.8272 172.3607,66.4886 173.5468,68.2144 174.6410,70.0000 175.6403,71.8404 176.5418,73.7305 177.3432,75.6653 178.0423,77.6393 178.6370,79.6472 179.1259,81.6835 179.5075,83.7426 179.7809,85.8189 179.9452,87.9066 180.0000,90.0000 179.9452,92.0934 179.7809,94.1811 179.5075,96.2574 179.1259,98.3165 178.6370,100.3528 178.0423,102.3607 177.3432,104.3347 176.5418,106.2695 175.6403,108.1596 174.6410,110.0000 173.5468,111.7856 172.3607,113.5114 171.0858,115.1728 169.7258,116.7652 168.2843,118.2843 166.7652,119.7258 165.1728,121.0858 163.5114,122.3607 161.7856,123.5468 160.0000,124.6410 158.1596,125.6403 156.2695,126.5418 154.3347,127.3432 152.3607,128.0423 150.3528,128.6370 148.3165,129.1259 146.2574,129.5075 144.1811,129.7809 142.0934,129.9452 140.0000,130.0000 137.9066,129.9452 135.8189,129.7809 133.7426,129.5075 131.6835,129.1259 129.6472,128.6370 127.6393,128.0423 125.6653,127.3432 123.7305,126.5418 121.8404,125.6403 120.0000,124.6410 118.2144,123.5468 116.4886,122.3607 114.8272,121.0858 113.2348,119.7258 111.7157,118.2843 110.2742,116.7652 108.9142,115.1728 107.6393,113.5114 106.4532,111.7856 105.3590,110.0000 104.3597,108.1596 103.4582,106.2695 102.6568,104.3347 101.9577,102.3607 101.3630,100.3528 100.8741,98.3165 100.4925,96.2574 100.2191,94.1811 100.0548,92.0934 100.0000,90.0000 100.0548,87.9066 100.2191,85.8189 100.4925,83.7426 100.8741,81.6835 101.3630,79.6472 101.9577,77.6393 102.6568,75.6653 103.4582,73.7305 104.3597,71.8404 105.3590,70.0000 106.4532,68.2144 107.6393,66.4886 108.9142,64.8272 110.2742,63.2348 111.7157,61.7157 113.2348,60.2742 114.8272,58.9142 116.4886,57.6393 118.2144,56.4532 120.0000,55.3590 121.8404,54.3597 123.7305,53.4582 125.6653,52.6568 127.6393,51.9577 129.6472,51.3630 131.6835,50.8741 133.7426,50.4925 135.8189,50.2191 137.9066,50.0548 140.0000,50.0000 Z"/> 
</g> 
<path d="M -0.2 0.0 A 0.2 0.2 0 1 1 0.2 0.0 L 0.2 -0.0 A 0.2 0.2 0 1 1 -0.2 -0.0 Z" transform="translate(106.190913 72.08187) rotate(-0.0)"/><path d="M -0.2 0.0 A 0.2 0.2 0 1 1 0.2 0.0 L 0.2 -0.0 A 0.2 0.2 0 1 1 -0.2 -0.0 Z" transform="translate(178.238593 88.613013) rotate(-0.0)"/><path d="M -0.2 0.0 A 0.2 0.2 0 1 1 0.2 0.0 L 0.2 -0.0 A 0.2 0.2 0 1 1 -0.2 -0.0 Z" transform="translate(176.406901 101.775027) rotate(-0.0)"/><path d="M -0.2 0.0 A 0.2 0.2 0 1 1 0.2 0.0 L 0.2 -0.0 A 0.2 0.2 0 1 1 -0.2 -0.0 Z" transform="translate(107.577901 110.320463) rotate(-0.0)"/><path d="M -0.2 0.0 A 0.2 0.2 0 1 1 0.2 0.0 L 0.2 -0.0 A 0.2 0.2 0 1 1 -0.2 -0.0 Z" transform="translate(102.101489 84.725854) rotate(-0.0)"/><path d="M -0.2 0.0 A 0.2 0.2 0 1 1 0.2 0.0 L 0.2 -0.0 A 0.2 0.2 0 1 1 -0.2 -0.0 Z" transform="translate(103.593099 78.224973) rotate(-0.0)"/><path d="M -0.2 0.0 A 0.2 0.2 0 1 1 0.2 0.0 L 0.2 -0.0 A 0.2 0.2 0 1 1 -0.2 -0.0 Z" transform="translate(111.599076 115.641788) rotate(-0.0)"/><path d="M -0.2 0.0 A 0.2 0.2 0 1 1 0.2 0.0 L 0.2 -0.0 A 0.2 0.2 0 1 1 -0.2 -0.0 Z" transform="translate(177.898511 95.274146) rotate(-0.0)"/><path d="M -0.2 0.0 A 0.2 0.2 0 1 1 0.2 0.0 L 0.2 -0.0 A 0.2 0.2 0 1 1 -0.2 -0.0 Z" transform="translate(168.400924 64.358212) rotate(-0.0)"/><path d="M -0.2 0.0 A 0.2 0.2 0 1 1 0.2 0.0 L 0.2 -0.0 A 0.2 0.2 0 1 1 -0.2 -0.0 Z" transform="translate(177.416815 81.994022) rotate(-0.0)"/><path d="M -0.2 0.0 A 0.2 0.2 0 1 1 0.2 0.0 L 0.2 -0.0 A 0.2 0.2 0 1 1 -0.2 -0.0 Z" transform="translate(104.541854 104.381711) rotate(-0.0)"/><path d="M -0.2 0.0 A 0.2 0.2 0 1 1 0.2 0.0 L 0.2 -0.0 A 0.2 0.2 0 1 1 -0.2 -0.0 Z" transform="translate(175.458146 75.618289) rotate(-0.0)"/><path d="M -0.2 0.0 A 0.2 0.2 0 1 1 0.2 0.0 L 0.2 -0.0 A 0.2 0.2 0 1 1 -0.2 -0.0 Z" transform="translate(116.4832 120.184) rotate(-0.0)"/><path d="M -0.2 0.0 A 0.2 0.2 0 1 1 0.2 0.0 L 0.2 -0.0 A 0.2 0.2 0 1 1 -0.2 -0.0 Z" transform="translate(101.761407 91.386987) rotate(-0.0)"/><path d="M -0.2 0.0 A 0.2 0.2 0 1 1 0.2 0.0 L 0.2 -0.0 A 0.2 0.2 0 1 1 -0.2 -0.0 Z" transform="translate(163.5168 59.816) rotate(-0.0)"/><path d="M -0.2 0.0 A 0.2 0.2 0 1 1 0.2 0.0 L 0.2 -0.0 A 0.2 0.2 0 1 1 -0.2 -0.0 Z" transform="translate(173.809087 107.91813) rotate(-0.0)"/><path d="M -0.2 0.0 A 0.2 0.2 0 1 1 0.2 0.0 L 0.2 -0.0 A 0.2 0.2 0 1 1 -0.2 -0.0 Z" transform="translate(172.422099 69.679537) rotate(-0.0)"/><path d="M -0.2 0.0 A 0.2 0.2 0 1 1 0.2 0.0 L 0.2 -0.0 A 0.2 0.2 0 1 1 -0.2 -0.0 Z" transform="translate(102.583185 98.005978) rotate(-0.0)"/></g></g><g id="substrate-paste" style="fill:#8a8a8a; stroke:#8a8a8a;"><g style="fill-opacity: 0.0;stroke-width: 0.0000;stroke-opacity: 1;stroke-linecap: round;stroke-linejoin: round">
<g style="fill-opacity: 1.0000;stroke-width: 0.0000;stroke-opacity: 1;stroke-linecap: round;stroke-linejoin: round">
<path style="fill-opacity: 1.0000;stroke-width: 0.0000;stroke-opacity: 1;stroke-linecap: round;stroke-linejoin: round;fill-rule: evenodd" d="M 124.2843,83.2103 124.9726,82.2274 128.2492,84.5217 127.5610,85.5046 Z"/> 
</g>
</g> 
</g></g></svg>