<?xml version='1.0' encoding='ASCII' standalone='yes'?>
<svg xmlns:svg="http://www.w3.org/2000/svg" xmlns="http://www.w3.org/2000/svg" xmlns:xlink="http://www.w3.org/1999/xlink" version="1.1" width="297.0022mm" height="210.0072mm" viewBox="0.0000 0.0000 297.0022 210.0072">
<title>SVG Image created as USTTHUNDERMILLPCB02-B_Fab.svg date 2023/06/30 15:09:18 </title>
  <desc>Image generated by PCBNEW </desc>
<g style="fill:#000084; fill-opacity:1.0000;stroke:#000084; stroke-opacity:1.0000; stroke-linecap:round; stroke-linejoin:round;" transform="translate(0 0) scale(1 1)">
</g>
<g style="fill:#000084; fill-opacity:0.0;  stroke:#000084; stroke-width:0.0000; stroke-opacity:1;  stroke-linecap:round; stroke-linejoin:round;">
<g>
</g>
<g>
</g>
<g>
</g>
<g>
</g>
</g> 
<svg:g><svg:g><svg:title>SVG Image created as USTTHUNDERMILLPCB02-Edge_Cuts.svg date 2023/06/30 15:09:18 </svg:title>
  <svg:desc>Image generated by PCBNEW </svg:desc>
<svg:g style="fill:#C2C200; fill-opacity:1.0000;stroke:#C2C200; stroke-opacity:1.0000; stroke-linecap:round; stroke-linejoin:round;" transform="translate(0 0) scale(1 1)">
</svg:g>
<svg:g style="fill:#C2C200; fill-opacity:0.0;  stroke:#C2C200; stroke-width:0.0000; stroke-opacity:1;  stroke-linecap:round; stroke-linejoin:round;">
</svg:g>
<svg:g style="fill:#C2C200; fill-opacity:0.0;  stroke:#C2C200; stroke-width:0.1312; stroke-opacity:1;  stroke-linecap:round; stroke-linejoin:round;">
<svg:path style="fill:#C2C200; fill-opacity:0.0;  stroke:#C2C200; stroke-width:0.1312; stroke-opacity:1;  stroke-linecap:round; stroke-linejoin:round;fill:none" d="M 209.7949,140.9777 210.7970,141.4237 212.3114,142.4633 215.1108,144.3852 217.7350,146.1867 220.1765,147.8628 222.4287,149.4087 224.4857,150.8208 226.3414,152.0948 227.9910,153.2270 228.9583,153.8910 229.8455,154.5358 230.5795,155.3509 231.1280,156.3008 231.4670,157.3441 231.5816,158.4349 231.4670,159.5257 231.1280,160.5690 230.5795,161.5189 230.2382,162.0155 229.3523,163.3044 229.1500,163.5985 228.5508,164.3794 227.9034,165.2234 227.4396,165.8278 227.1610,166.1911 227.0679,166.3123 226.1402,167.5212 222.9290,171.2810 222.1952,172.0960 218.7917,175.6824 215.2053,179.0860 211.4455,182.2970 207.5228,185.3070 206.6356,185.9519 202.5607,188.7523 198.3449,191.3358 193.9999,193.6950 189.5370,195.8236 188.5352,196.2695 183.9671,198.1618 179.3062,199.8121 174.5656,201.2164 169.7578,202.3707 168.6849,202.5989 163.8234,203.4998 158.9213,204.1451 153.9922,204.5331 149.0495,204.6624 147.9527,204.6624 143.0100,204.5331 138.0809,204.1451 133.1788,203.4998 128.3173,202.5989 127.2444,202.3707 122.4366,201.2164 117.6960,199.8121 113.0351,198.1618 108.4670,196.2695 107.4652,195.8236 103.0023,193.6950 101.6634,192.9678 101.5290,192.8948 101.1266,192.6763 100.4569,192.3130 99.5222,191.8053 98.6573,191.3358 98.3529,191.1492 97.0192,190.3321 96.5056,190.0170 95.6181,189.3724 94.8843,188.5574 94.3358,187.6074 93.9968,186.5641 93.8822,185.4733 93.9968,184.3825 94.3358,183.3392 94.8843,182.3893 95.4977,181.3893 96.5441,179.6838 97.7212,177.7654 99.0261,175.6389 100.4548,173.3104 102.0033,170.7862 103.6679,168.0731 105.4436,165.1788 106.4043,163.6131 107.1383,162.7981 108.0258,162.1532 109.0277,161.7070 110.1006,161.4790 111.1974,161.4790 112.2704,161.7070 113.2725,162.1532 114.9221,163.1640 118.2535,164.9728 121.1796,166.3687 124.1749,167.6093 127.7481,168.8745 131.3827,169.9512 134.5351,170.7080 137.7229,171.2991 141.4812,171.7938 145.2601,172.0910 148.5011,172.1760 151.7421,172.0910 155.5210,171.7938 159.2793,171.2991 162.4670,170.7080 165.6195,169.9512 169.2541,168.8745 172.8273,167.6093 175.8226,166.3687 178.7487,164.9728 182.0801,163.1640 185.3121,161.1836 187.9840,159.3473 190.5562,157.3735 193.4385,154.9117 196.1883,152.3025 198.4200,149.9507 200.5255,147.4855 202.8330,144.4781 203.9290,142.8836 204.6628,142.0685 205.5503,141.4237 206.5524,140.9777 207.6251,140.7495 208.7222,140.7495 Z"/> 
</svg:g>
<svg:g style="fill:#C2C200; fill-opacity:0.0;  stroke:#C2C200; stroke-width:0.2623; stroke-opacity:1;  stroke-linecap:round; stroke-linejoin:round;">
<svg:circle cx="148.4140" cy="104.9144" r="16.2648"/> 
</svg:g>
<svg:g style="fill:#C2C200; fill-opacity:0.0;  stroke:#C2C200; stroke-width:0.1312; stroke-opacity:1;  stroke-linecap:round; stroke-linejoin:round;">
<svg:path style="fill:#C2C200; fill-opacity:0.0;  stroke:#C2C200; stroke-width:0.1312; stroke-opacity:1;  stroke-linecap:round; stroke-linejoin:round;fill:none" d="M 153.9930,0.2129 159.4697,0.6440 164.9165,1.3612 170.3182,2.3623 175.6602,3.6448 180.9277,5.2049 186.1062,7.0389 191.1819,9.1413 196.1403,11.5062 200.9683,14.1278 205.6526,16.9983 210.1800,20.1098 214.5384,23.4543 218.7159,27.0221 222.7010,30.8037 226.4826,34.7888 230.0504,38.9663 233.3949,43.3247 236.5064,47.8521 239.3769,52.5364 241.9985,57.3644 244.3634,62.3228 246.4658,67.3985 248.2998,72.5770 249.8599,77.8445 251.1424,83.1865 252.1435,88.5882 252.8607,94.0350 253.2918,99.5117 253.4355,105.0036 253.2918,110.4955 252.8607,115.9722 252.1435,121.4190 251.1424,126.8207 249.8599,132.1627 248.2998,137.4302 246.4658,142.6087 244.3634,147.6844 241.9985,152.6428 239.3769,157.4708 236.5064,162.1551 233.3949,166.6825 230.0504,171.0409 226.4826,175.2184 222.7010,179.2035 218.7159,182.9851 214.5384,186.5529 210.1800,189.8974 205.6526,193.0089 200.9683,195.8794 196.1403,198.5010 191.1819,200.8659 186.1062,202.9683 180.9277,204.8023 175.6602,206.3624 170.3182,207.6449 164.9165,208.6460 159.4697,209.3632 153.9930,209.7943 148.5011,209.9380 143.0092,209.7943 137.5325,209.3632 132.0857,208.6460 126.6840,207.6449 121.3420,206.3624 116.0745,204.8023 110.8960,202.9683 105.8203,200.8659 100.8619,198.5010 96.0339,195.8794 91.3496,193.0089 86.8222,189.8974 82.4638,186.5529 78.2863,182.9851 74.3012,179.2035 70.5196,175.2184 66.9518,171.0409 63.6073,166.6825 60.4958,162.1551 57.6253,157.4708 55.0037,152.6428 52.6388,147.6844 50.5364,142.6087 48.7024,137.4302 47.1423,132.1627 45.8598,126.8207 44.8587,121.4190 44.1415,115.9722 43.7104,110.4955 43.5667,105.0036 43.7104,99.5117 44.1415,94.0350 44.8587,88.5882 45.8598,83.1865 47.1423,77.8445 48.7024,72.5770 50.5364,67.3985 52.6388,62.3228 55.0037,57.3644 57.6253,52.5364 60.4958,47.8521 63.6073,43.3247 66.9518,38.9663 70.5196,34.7888 74.3012,30.8037 78.2863,27.0221 82.4638,23.4543 86.8222,20.1098 91.3496,16.9983 96.0339,14.1278 100.8619,11.5062 105.8203,9.1413 110.8960,7.0389 116.0745,5.2049 121.3420,3.6448 126.6840,2.3623 132.0857,1.3612 137.5325,0.6440 143.0092,0.2129 148.5011,0.0692 Z"/> 
<svg:path style="fill:#C2C200; fill-opacity:0.0;  stroke:#C2C200; stroke-width:0.1312; stroke-opacity:1;  stroke-linecap:round; stroke-linejoin:round;fill:none" d="M 153.9922,5.4741 158.9213,5.8621 163.8234,6.5074 168.6849,7.4083 169.7578,7.6365 174.5656,8.7908 179.3062,10.1951 183.9671,11.8454 188.5352,13.7377 189.5370,14.1836 193.9999,16.3122 195.3388,17.0394 195.4732,17.1124 195.8756,17.3309 196.5453,17.6942 197.4800,18.2018 198.3449,18.6714 198.6492,18.8580 199.9830,19.6751 200.4966,19.9902 201.3841,20.6348 202.1179,21.4498 202.6664,22.3997 203.0054,23.4431 203.1200,24.5339 203.0054,25.6246 202.6664,26.6680 202.1179,27.6179 201.5045,28.6179 200.4581,30.3233 199.2810,32.2418 197.9761,34.3683 196.5474,36.6968 194.9989,39.2210 193.3343,41.9341 191.5586,44.8284 190.5979,46.3941 189.8639,47.2091 188.9764,47.8540 187.9745,48.3002 186.9016,48.5282 185.8048,48.5282 184.7318,48.3002 183.7297,47.8540 182.0801,46.8432 178.7487,45.0344 175.8226,43.6385 172.8273,42.3979 169.2541,41.1326 165.6195,40.0560 162.4671,39.2992 159.2793,38.7081 155.5210,38.2134 151.7421,37.9161 148.5011,37.8311 145.2601,37.9161 141.4812,38.2134 137.7229,38.7081 134.5352,39.2992 131.3827,40.0560 127.7481,41.1326 124.1749,42.3979 121.1796,43.6385 118.2535,45.0344 114.9221,46.8432 111.6901,48.8235 109.0182,50.6599 106.4460,52.6337 103.5637,55.0955 100.8139,57.7047 98.5822,60.0565 96.4767,62.5217 94.1692,65.5291 93.0732,67.1236 92.3394,67.9387 91.4519,68.5835 90.4498,69.0295 89.3771,69.2577 88.2800,69.2577 87.2073,69.0295 86.2052,68.5835 84.6907,67.5438 81.8914,65.6220 79.2672,63.8205 76.8256,62.1444 74.5735,60.5985 72.5165,59.1863 70.6607,57.9124 69.0112,56.7802 68.0439,56.1162 67.1567,55.4714 66.4227,54.6563 65.8742,53.7064 65.5352,52.6631 65.4206,51.5723 65.5352,50.4815 65.8742,49.4382 66.4227,48.4883 66.7640,47.9917 67.6499,46.7028 67.8522,46.4087 68.4514,45.6278 69.0988,44.7838 69.5626,44.1794 69.8412,43.8161 69.9343,43.6949 70.8620,42.4860 74.0732,38.7262 74.8070,37.9112 78.2105,34.3248 81.7969,30.9212 85.5567,27.7102 89.4794,24.7002 90.3666,24.0553 94.4415,21.2549 98.6573,18.6714 103.0023,16.3122 107.4652,14.1836 108.4670,13.7377 113.0351,11.8454 117.6960,10.1951 122.4366,8.7908 127.2444,7.6365 128.3173,7.4083 133.1788,6.5074 138.0809,5.8621 143.0100,5.4741 147.9527,5.3448 149.0495,5.3448 Z"/> 
<svg:g>
</svg:g>
<svg:g>
</svg:g>
<svg:g>
</svg:g>
<svg:g>
</svg:g>
</svg:g> 
</svg:g></svg:g></svg>
