<?xml version='1.0' encoding='ASCII' standalone='yes'?>
<svg xmlns:svg="http://www.w3.org/2000/svg" xmlns="http://www.w3.org/2000/svg" xmlns:xlink="http://www.w3.org/1999/xlink" version="1.1" width="297.0022mm" height="210.0072mm" viewBox="0.0000 0.0000 297.0022 210.0072">
<title>SVG Image created as USTTHUNDERMILLPCB02-B_Fab.svg date 2023/06/30 15:00:37 </title>
  <desc>Image generated by PCBNEW </desc>
<g style="fill:#000084; fill-opacity:1.0000;stroke:#000084; stroke-opacity:1.0000; stroke-linecap:round; stroke-linejoin:round;" transform="translate(0 0) scale(1 1)">
</g>
<g style="fill:#000084; fill-opacity:0.0;  stroke:#000084; stroke-width:0.0000; stroke-opacity:1;  stroke-linecap:round; stroke-linejoin:round;">
<g>
</g>
<g>
</g>
<g>
</g>
<g>
</g>
</g> 
<svg:g><svg:g><svg:title>SVG Image created as USTTHUNDERMILLPCB02-Edge_Cuts.svg date 2023/06/30 15:00:37 </svg:title>
  <svg:desc>Image generated by PCBNEW </svg:desc>
<svg:g style="fill:#C2C200; fill-opacity:1.0000;stroke:#C2C200; stroke-opacity:1.0000; stroke-linecap:round; stroke-linejoin:round;" transform="translate(0 0) scale(1 1)">
</svg:g>
<svg:g style="fill:#C2C200; fill-opacity:0.0;  stroke:#C2C200; stroke-width:0.0000; stroke-opacity:1;  stroke-linecap:round; stroke-linejoin:round;">
</svg:g>
<svg:g style="fill:#C2C200; fill-opacity:0.0;  stroke:#C2C200; stroke-width:0.1312; stroke-opacity:1;  stroke-linecap:round; stroke-linejoin:round;">
<svg:path style="fill:#C2C200; fill-opacity:0.0;  stroke:#C2C200; stroke-width:0.1312; stroke-opacity:1;  stroke-linecap:round; stroke-linejoin:round;fill:none" d="M 153.9930,0.2129 159.4697,0.6440 164.9165,1.3612 170.3182,2.3623 175.6602,3.6448 180.9277,5.2049 186.1062,7.0389 191.1819,9.1413 196.1403,11.5062 200.9683,14.1278 205.6526,16.9983 210.1800,20.1098 214.5384,23.4543 218.7159,27.0221 222.7010,30.8037 226.4826,34.7888 230.0504,38.9663 233.3949,43.3247 236.5064,47.8521 239.3769,52.5364 241.9985,57.3644 244.3634,62.3228 246.4658,67.3985 248.2998,72.5770 249.8599,77.8445 251.1424,83.1865 252.1435,88.5882 252.8607,94.0350 253.2918,99.5117 253.4355,105.0036 253.2918,110.4955 252.8607,115.9722 252.1435,121.4190 251.1424,126.8207 249.8599,132.1627 248.2998,137.4302 246.4658,142.6087 244.3634,147.6844 241.9985,152.6428 239.3769,157.4708 236.5064,162.1551 233.3949,166.6825 230.0504,171.0409 226.4826,175.2184 222.7010,179.2035 218.7159,182.9851 214.5384,186.5529 210.1800,189.8974 205.6526,193.0089 200.9683,195.8794 196.1403,198.5010 191.1819,200.8659 186.1062,202.9683 180.9277,204.8023 175.6602,206.3624 170.3182,207.6449 164.9165,208.6460 159.4697,209.3632 153.9930,209.7943 148.5011,209.9380 143.0092,209.7943 137.5325,209.3632 132.0857,208.6460 126.6840,207.6449 121.3420,206.3624 116.0745,204.8023 110.8960,202.9683 105.8203,200.8659 100.8619,198.5010 96.0339,195.8794 91.3496,193.0089 86.8222,189.8974 82.4638,186.5529 78.2863,182.9851 74.3012,179.2035 70.5196,175.2184 66.9518,171.0409 63.6073,166.6825 60.4958,162.1551 57.6253,157.4708 55.0037,152.6428 52.6388,147.6844 50.5364,142.6087 48.7024,137.4302 47.1423,132.1627 45.8598,126.8207 44.8587,121.4190 44.1415,115.9722 43.7104,110.4955 43.5667,105.0036 43.7104,99.5117 44.1415,94.0350 44.8587,88.5882 45.8598,83.1865 47.1423,77.8445 48.7024,72.5770 50.5364,67.3985 52.6388,62.3228 55.0037,57.3644 57.6253,52.5364 60.4958,47.8521 63.6073,43.3247 66.9518,38.9663 70.5196,34.7888 74.3012,30.8037 78.2863,27.0221 82.4638,23.4543 86.8222,20.1098 91.3496,16.9983 96.0339,14.1278 100.8619,11.5062 105.8203,9.1413 110.8960,7.0389 116.0745,5.2049 121.3420,3.6448 126.6840,2.3623 132.0857,1.3612 137.5325,0.6440 143.0092,0.2129 148.5011,0.0692 Z"/> 
<svg:g>
</svg:g>
<svg:g>
</svg:g>
<svg:g>
</svg:g>
<svg:g>
</svg:g>
</svg:g> 
</svg:g></svg:g></svg>
